  0
SECTION
  2
HEADER
  9
$ANGBASE
  50
0.0
  9
$ANGDIR
  70
1
  9
$MEASUREMENT
  70
1
  0
ENDSEC
  0
SECTION
  2
TABLES
  0
TABLE
  2
LTYPE
  70
4
  0
LTYPE
  5
40F
  2
CONTINUOUS
  70
0
  3
Solid line
  72
65
  73
0
  40
0.0
  0
LTYPE
  5
410
  2
DASHDOT
 70
0
  3
Dash Dot ____ _ ____ _
 72
65
 73
4
 40
2.0
 49
1.25
 49
-0.25
 49
0.25
 49
-0.25
  0
LTYPE
  5
411
  2
DASHED
 70
0
  3
Dashed __ __ __ __ __
 72
65
 73
2
 40
0.75
 49
0.5
 49
-0.25
  0
LTYPE
  5
43B
  2
DOTTED
 70
0
  3
Dotted .  .  .  .
 72
65
 73
2
 40
0.2
 49
0.0
 49
-0.2
  0
ENDTAB
  0
TABLE
  2
STYLE
  70
4
  0
STYLE
  2
KICAD
  70
0
  40
0
  41
1
  42
1
  50
0
  71
0
  3
isocp.shx
  0
STYLE
  2
KICADB
  70
0
  40
0
  41
1
  42
1
  50
0
  71
0
  3
isocp.shx
  0
STYLE
  2
KICADI
  70
0
  40
0
  41
1
  42
1
  50
15
  71
0
  3
isocp.shx
  0
STYLE
  2
KICADBI
  70
0
  40
0
  41
1
  42
1
  50
15
  71
0
  3
isocp.shx
  0
ENDTAB
  0
TABLE
  2
LAYER
  70
1
  0
LAYER
  2
BLACK
  70
0
  62
7
  6
CONTINUOUS
  0
ENDTAB
  0
ENDSEC
  0
SECTION
  2
ENTITIES
0
LINE
8
BLACK
6
CONTINUOUS
10
153.342
20
-72.5006
11
153.479
21
-72.5404
0
LINE
8
BLACK
6
CONTINUOUS
10
153.479
20
-72.5404
11
153.6
21
-72.6155
0
LINE
8
BLACK
6
CONTINUOUS
10
153.6
20
-72.6155
11
153.696
21
-72.7204
0
LINE
8
BLACK
6
CONTINUOUS
10
153.696
20
-72.7204
11
153.761
21
-72.8473
0
LINE
8
BLACK
6
CONTINUOUS
10
153.761
20
-72.8473
11
153.77
21
-72.895
0
LINE
8
BLACK
6
CONTINUOUS
10
153.77
20
-72.895
11
154.62
21
-72.895
0
LINE
8
BLACK
6
CONTINUOUS
10
154.62
20
-72.895
11
154.642
21
-72.8982
0
LINE
8
BLACK
6
CONTINUOUS
10
154.642
20
-72.8982
11
154.647
21
-72.8979
0
LINE
8
BLACK
6
CONTINUOUS
10
154.647
20
-72.8979
11
154.649
21
-72.8992
0
LINE
8
BLACK
6
CONTINUOUS
10
154.649
20
-72.8992
11
154.656
21
-72.9001
0
LINE
8
BLACK
6
CONTINUOUS
10
154.656
20
-72.9001
11
154.681
21
-72.9168
0
LINE
8
BLACK
6
CONTINUOUS
10
154.681
20
-72.9168
11
154.708
21
-72.9316
0
LINE
8
BLACK
6
CONTINUOUS
10
154.708
20
-72.9316
11
155.888
21
-74.1116
0
LINE
8
BLACK
6
CONTINUOUS
10
155.888
20
-74.1116
11
155.902
21
-74.1294
0
LINE
8
BLACK
6
CONTINUOUS
10
155.902
20
-74.1294
11
155.905
21
-74.1325
0
LINE
8
BLACK
6
CONTINUOUS
10
155.905
20
-74.1325
11
155.906
21
-74.1352
0
LINE
8
BLACK
6
CONTINUOUS
10
155.906
20
-74.1352
11
155.91
21
-74.1404
0
LINE
8
BLACK
6
CONTINUOUS
10
155.91
20
-74.1404
11
155.916
21
-74.1705
0
LINE
8
BLACK
6
CONTINUOUS
10
155.916
20
-74.1705
11
155.925
21
-74.2
0
LINE
8
BLACK
6
CONTINUOUS
10
155.925
20
-74.2
11
155.925
21
-77.8
0
LINE
8
BLACK
6
CONTINUOUS
10
155.925
20
-77.8
11
155.922
21
-77.822
0
LINE
8
BLACK
6
CONTINUOUS
10
155.922
20
-77.822
11
155.922
21
-77.8266
0
LINE
8
BLACK
6
CONTINUOUS
10
155.922
20
-77.8266
11
155.921
21
-77.8291
0
LINE
8
BLACK
6
CONTINUOUS
10
155.921
20
-77.8291
11
155.92
21
-77.8355
0
LINE
8
BLACK
6
CONTINUOUS
10
155.92
20
-77.8355
11
155.903
21
-77.8614
0
LINE
8
BLACK
6
CONTINUOUS
10
155.903
20
-77.8614
11
155.888
21
-77.8884
0
LINE
8
BLACK
6
CONTINUOUS
10
155.888
20
-77.8884
11
154.888
21
-78.8884
0
LINE
8
BLACK
6
CONTINUOUS
10
154.888
20
-78.8884
11
154.871
21
-78.9017
0
LINE
8
BLACK
6
CONTINUOUS
10
154.871
20
-78.9017
11
154.868
21
-78.9052
0
LINE
8
BLACK
6
CONTINUOUS
10
154.868
20
-78.9052
11
154.865
21
-78.906
0
LINE
8
BLACK
6
CONTINUOUS
10
154.865
20
-78.906
11
154.86
21
-78.9099
0
LINE
8
BLACK
6
CONTINUOUS
10
154.86
20
-78.9099
11
154.83
21
-78.9163
0
LINE
8
BLACK
6
CONTINUOUS
10
154.83
20
-78.9163
11
154.8
21
-78.925
0
LINE
8
BLACK
6
CONTINUOUS
10
154.8
20
-78.925
11
154.6
21
-78.925
0
LINE
8
BLACK
6
CONTINUOUS
10
154.6
20
-78.925
11
154.578
21
-78.9218
0
LINE
8
BLACK
6
CONTINUOUS
10
154.578
20
-78.9218
11
154.573
21
-78.9221
0
LINE
8
BLACK
6
CONTINUOUS
10
154.573
20
-78.9221
11
154.571
21
-78.9208
0
LINE
8
BLACK
6
CONTINUOUS
10
154.571
20
-78.9208
11
154.564
21
-78.9199
0
LINE
8
BLACK
6
CONTINUOUS
10
154.564
20
-78.9199
11
154.557
21
-78.915
0
LINE
8
BLACK
6
CONTINUOUS
10
154.557
20
-78.915
11
153.733
21
-78.915
0
LINE
8
BLACK
6
CONTINUOUS
10
153.733
20
-78.915
11
153.69
21
-79.0332
0
LINE
8
BLACK
6
CONTINUOUS
10
153.69
20
-79.0332
11
153.608
21
-79.1494
0
LINE
8
BLACK
6
CONTINUOUS
10
153.608
20
-79.1494
11
153.497
21
-79.2391
0
LINE
8
BLACK
6
CONTINUOUS
10
153.497
20
-79.2391
11
153.366
21
-79.2957
0
LINE
8
BLACK
6
CONTINUOUS
10
153.366
20
-79.2957
11
153.225
21
-79.315
0
LINE
8
BLACK
6
CONTINUOUS
10
153.225
20
-79.315
11
152.775
21
-79.315
0
LINE
8
BLACK
6
CONTINUOUS
10
152.775
20
-79.315
11
152.698
21
-79.3094
0
LINE
8
BLACK
6
CONTINUOUS
10
152.698
20
-79.3094
11
152.667
21
-79.3002
0
LINE
8
BLACK
6
CONTINUOUS
10
152.667
20
-79.3002
11
151.278
21
-80.6884
0
LINE
8
BLACK
6
CONTINUOUS
10
151.278
20
-80.6884
11
151.261
21
-80.7017
0
LINE
8
BLACK
6
CONTINUOUS
10
151.261
20
-80.7017
11
151.258
21
-80.7052
0
LINE
8
BLACK
6
CONTINUOUS
10
151.258
20
-80.7052
11
151.255
21
-80.706
0
LINE
8
BLACK
6
CONTINUOUS
10
151.255
20
-80.706
11
151.25
21
-80.7099
0
LINE
8
BLACK
6
CONTINUOUS
10
151.25
20
-80.7099
11
151.22
21
-80.7163
0
LINE
8
BLACK
6
CONTINUOUS
10
151.22
20
-80.7163
11
151.19
21
-80.725
0
LINE
8
BLACK
6
CONTINUOUS
10
151.19
20
-80.725
11
144.6
21
-80.725
0
LINE
8
BLACK
6
CONTINUOUS
10
144.6
20
-80.725
11
144.578
21
-80.7218
0
LINE
8
BLACK
6
CONTINUOUS
10
144.578
20
-80.7218
11
144.573
21
-80.7221
0
LINE
8
BLACK
6
CONTINUOUS
10
144.573
20
-80.7221
11
144.571
21
-80.7208
0
LINE
8
BLACK
6
CONTINUOUS
10
144.571
20
-80.7208
11
144.564
21
-80.7199
0
LINE
8
BLACK
6
CONTINUOUS
10
144.564
20
-80.7199
11
144.539
21
-80.7032
0
LINE
8
BLACK
6
CONTINUOUS
10
144.539
20
-80.7032
11
144.512
21
-80.6884
0
LINE
8
BLACK
6
CONTINUOUS
10
144.512
20
-80.6884
11
143.731
21
-79.9075
0
LINE
8
BLACK
6
CONTINUOUS
10
143.731
20
-79.9075
11
143.696
21
-79.931
0
LINE
8
BLACK
6
CONTINUOUS
10
143.696
20
-79.931
11
143.6
21
-79.95
0
LINE
8
BLACK
6
CONTINUOUS
10
143.6
20
-79.95
11
142.9
21
-79.95
0
LINE
8
BLACK
6
CONTINUOUS
10
142.9
20
-79.95
11
142.804
21
-79.931
0
LINE
8
BLACK
6
CONTINUOUS
10
142.804
20
-79.931
11
142.723
21
-79.8768
0
LINE
8
BLACK
6
CONTINUOUS
10
142.723
20
-79.8768
11
142.669
21
-79.7957
0
LINE
8
BLACK
6
CONTINUOUS
10
142.669
20
-79.7957
11
142.65
21
-79.7
0
LINE
8
BLACK
6
CONTINUOUS
10
142.65
20
-79.7
11
142.65
21
-78.8
0
LINE
8
BLACK
6
CONTINUOUS
10
142.65
20
-78.8
11
142.669
21
-78.7043
0
LINE
8
BLACK
6
CONTINUOUS
10
142.669
20
-78.7043
11
142.723
21
-78.6232
0
LINE
8
BLACK
6
CONTINUOUS
10
142.723
20
-78.6232
11
142.804
21
-78.569
0
LINE
8
BLACK
6
CONTINUOUS
10
142.804
20
-78.569
11
142.9
21
-78.55
0
LINE
8
BLACK
6
CONTINUOUS
10
142.9
20
-78.55
11
143.6
21
-78.55
0
LINE
8
BLACK
6
CONTINUOUS
10
143.6
20
-78.55
11
143.696
21
-78.569
0
LINE
8
BLACK
6
CONTINUOUS
10
143.696
20
-78.569
11
143.777
21
-78.6232
0
LINE
8
BLACK
6
CONTINUOUS
10
143.777
20
-78.6232
11
143.831
21
-78.7043
0
LINE
8
BLACK
6
CONTINUOUS
10
143.831
20
-78.7043
11
143.85
21
-78.8
0
LINE
8
BLACK
6
CONTINUOUS
10
143.85
20
-78.8
11
143.85
21
-79.6732
0
LINE
8
BLACK
6
CONTINUOUS
10
143.85
20
-79.6732
11
144.652
21
-80.475
0
LINE
8
BLACK
6
CONTINUOUS
10
144.652
20
-80.475
11
151.138
21
-80.475
0
LINE
8
BLACK
6
CONTINUOUS
10
151.138
20
-80.475
11
152.43
21
-79.1832
0
LINE
8
BLACK
6
CONTINUOUS
10
152.43
20
-79.1832
11
152.344
21
-79.0896
0
LINE
8
BLACK
6
CONTINUOUS
10
152.344
20
-79.0896
11
152.279
21
-78.9627
0
LINE
8
BLACK
6
CONTINUOUS
10
152.279
20
-78.9627
11
152.251
21
-78.823
0
LINE
8
BLACK
6
CONTINUOUS
10
152.251
20
-78.823
11
152.261
21
-78.6808
0
LINE
8
BLACK
6
CONTINUOUS
10
152.261
20
-78.6808
11
152.31
21
-78.5468
0
LINE
8
BLACK
6
CONTINUOUS
10
152.31
20
-78.5468
11
152.392
21
-78.4306
0
LINE
8
BLACK
6
CONTINUOUS
10
152.392
20
-78.4306
11
152.503
21
-78.3409
0
LINE
8
BLACK
6
CONTINUOUS
10
152.503
20
-78.3409
11
152.634
21
-78.2843
0
LINE
8
BLACK
6
CONTINUOUS
10
152.634
20
-78.2843
11
152.775
21
-78.265
0
LINE
8
BLACK
6
CONTINUOUS
10
152.775
20
-78.265
11
153.225
21
-78.265
0
LINE
8
BLACK
6
CONTINUOUS
10
153.225
20
-78.265
11
153.302
21
-78.2706
0
LINE
8
BLACK
6
CONTINUOUS
10
153.302
20
-78.2706
11
153.439
21
-78.3104
0
LINE
8
BLACK
6
CONTINUOUS
10
153.439
20
-78.3104
11
153.56
21
-78.3855
0
LINE
8
BLACK
6
CONTINUOUS
10
153.56
20
-78.3855
11
153.656
21
-78.4904
0
LINE
8
BLACK
6
CONTINUOUS
10
153.656
20
-78.4904
11
153.721
21
-78.6173
0
LINE
8
BLACK
6
CONTINUOUS
10
153.721
20
-78.6173
11
153.73
21
-78.665
0
LINE
8
BLACK
6
CONTINUOUS
10
153.73
20
-78.665
11
154.59
21
-78.665
0
LINE
8
BLACK
6
CONTINUOUS
10
154.59
20
-78.665
11
154.612
21
-78.6682
0
LINE
8
BLACK
6
CONTINUOUS
10
154.612
20
-78.6682
11
154.617
21
-78.6679
0
LINE
8
BLACK
6
CONTINUOUS
10
154.617
20
-78.6679
11
154.619
21
-78.6692
0
LINE
8
BLACK
6
CONTINUOUS
10
154.619
20
-78.6692
11
154.626
21
-78.6701
0
LINE
8
BLACK
6
CONTINUOUS
10
154.626
20
-78.6701
11
154.633
21
-78.675
0
LINE
8
BLACK
6
CONTINUOUS
10
154.633
20
-78.675
11
154.748
21
-78.675
0
LINE
8
BLACK
6
CONTINUOUS
10
154.748
20
-78.675
11
155.675
21
-77.7482
0
LINE
8
BLACK
6
CONTINUOUS
10
155.675
20
-77.7482
11
155.675
21
-74.2518
0
LINE
8
BLACK
6
CONTINUOUS
10
155.675
20
-74.2518
11
154.568
21
-73.145
0
LINE
8
BLACK
6
CONTINUOUS
10
154.568
20
-73.145
11
153.773
21
-73.145
0
LINE
8
BLACK
6
CONTINUOUS
10
153.773
20
-73.145
11
153.73
21
-73.2632
0
LINE
8
BLACK
6
CONTINUOUS
10
153.73
20
-73.2632
11
153.648
21
-73.3794
0
LINE
8
BLACK
6
CONTINUOUS
10
153.648
20
-73.3794
11
153.537
21
-73.4691
0
LINE
8
BLACK
6
CONTINUOUS
10
153.537
20
-73.4691
11
153.406
21
-73.5257
0
LINE
8
BLACK
6
CONTINUOUS
10
153.406
20
-73.5257
11
153.265
21
-73.545
0
LINE
8
BLACK
6
CONTINUOUS
10
153.265
20
-73.545
11
152.815
21
-73.545
0
LINE
8
BLACK
6
CONTINUOUS
10
152.815
20
-73.545
11
152.738
21
-73.5394
0
LINE
8
BLACK
6
CONTINUOUS
10
152.738
20
-73.5394
11
152.601
21
-73.4996
0
LINE
8
BLACK
6
CONTINUOUS
10
152.601
20
-73.4996
11
152.48
21
-73.4245
0
LINE
8
BLACK
6
CONTINUOUS
10
152.48
20
-73.4245
11
152.384
21
-73.3196
0
LINE
8
BLACK
6
CONTINUOUS
10
152.384
20
-73.3196
11
152.319
21
-73.1927
0
LINE
8
BLACK
6
CONTINUOUS
10
152.319
20
-73.1927
11
152.291
21
-73.053
0
LINE
8
BLACK
6
CONTINUOUS
10
152.291
20
-73.053
11
152.301
21
-72.9108
0
LINE
8
BLACK
6
CONTINUOUS
10
152.301
20
-72.9108
11
152.35
21
-72.7768
0
LINE
8
BLACK
6
CONTINUOUS
10
152.35
20
-72.7768
11
152.432
21
-72.6606
0
LINE
8
BLACK
6
CONTINUOUS
10
152.432
20
-72.6606
11
152.543
21
-72.5709
0
LINE
8
BLACK
6
CONTINUOUS
10
152.543
20
-72.5709
11
152.674
21
-72.5143
0
LINE
8
BLACK
6
CONTINUOUS
10
152.674
20
-72.5143
11
152.815
21
-72.495
0
LINE
8
BLACK
6
CONTINUOUS
10
152.815
20
-72.495
11
153.265
21
-72.495
0
LINE
8
BLACK
6
CONTINUOUS
10
153.265
20
-72.495
11
153.342
21
-72.5006
0
LINE
8
BLACK
6
CONTINUOUS
10
160.09
20
-77.5594
11
160.09
21
-77.5594
0
LINE
8
BLACK
6
CONTINUOUS
10
160.09
20
-77.5594
11
160.094
21
-77.5562
0
LINE
8
BLACK
6
CONTINUOUS
10
160.094
20
-77.5562
11
160.256
21
-77.3943
0
LINE
8
BLACK
6
CONTINUOUS
10
160.256
20
-77.3943
11
160.27
21
-77.3749
0
LINE
8
BLACK
6
CONTINUOUS
10
160.27
20
-77.3749
11
160.314
21
-77.3116
0
LINE
8
BLACK
6
CONTINUOUS
10
160.314
20
-77.3116
11
160.388
21
-77.2067
0
LINE
8
BLACK
6
CONTINUOUS
10
160.388
20
-77.2067
11
160.39
21
-77.2018
0
LINE
8
BLACK
6
CONTINUOUS
10
160.39
20
-77.2018
11
160.39
21
-77.2018
0
LINE
8
BLACK
6
CONTINUOUS
10
160.39
20
-77.2018
11
160.406
21
-77.167
0
LINE
8
BLACK
6
CONTINUOUS
10
160.406
20
-77.167
11
160.453
21
-77.1137
0
LINE
8
BLACK
6
CONTINUOUS
10
160.453
20
-77.1137
11
160.521
21
-77.0942
0
LINE
8
BLACK
6
CONTINUOUS
10
160.521
20
-77.0942
11
160.589
21
-77.1147
0
LINE
8
BLACK
6
CONTINUOUS
10
160.589
20
-77.1147
11
160.634
21
-77.167
0
LINE
8
BLACK
6
CONTINUOUS
10
160.634
20
-77.167
11
160.651
21
-77.2015
0
LINE
8
BLACK
6
CONTINUOUS
10
160.651
20
-77.2015
11
160.656
21
-77.211
0
LINE
8
BLACK
6
CONTINUOUS
10
160.656
20
-77.211
11
160.693
21
-77.263
0
LINE
8
BLACK
6
CONTINUOUS
10
160.693
20
-77.263
11
160.703
21
-77.2714
0
LINE
8
BLACK
6
CONTINUOUS
10
160.703
20
-77.2714
11
160.716
21
-77.2644
0
LINE
8
BLACK
6
CONTINUOUS
10
160.716
20
-77.2644
11
161.076
21
-76.9051
0
LINE
8
BLACK
6
CONTINUOUS
10
161.076
20
-76.9051
11
161.064
21
-76.8856
0
LINE
8
BLACK
6
CONTINUOUS
10
161.064
20
-76.8856
11
161.007
21
-76.7163
0
LINE
8
BLACK
6
CONTINUOUS
10
161.007
20
-76.7163
11
160.99
21
-76.5388
0
LINE
8
BLACK
6
CONTINUOUS
10
160.99
20
-76.5388
11
161.012
21
-76.3619
0
LINE
8
BLACK
6
CONTINUOUS
10
161.012
20
-76.3619
11
161.073
21
-76.1943
0
LINE
8
BLACK
6
CONTINUOUS
10
161.073
20
-76.1943
11
161.074
21
-76.1933
0
LINE
8
BLACK
6
CONTINUOUS
10
161.074
20
-76.1933
11
160.716
21
-75.8349
0
LINE
8
BLACK
6
CONTINUOUS
10
160.716
20
-75.8349
11
160.704
21
-75.8285
0
LINE
8
BLACK
6
CONTINUOUS
10
160.704
20
-75.8285
11
160.692
21
-75.8378
0
LINE
8
BLACK
6
CONTINUOUS
10
160.692
20
-75.8378
11
160.656
21
-75.889
0
LINE
8
BLACK
6
CONTINUOUS
10
160.656
20
-75.889
11
160.651
21
-75.8985
0
LINE
8
BLACK
6
CONTINUOUS
10
160.651
20
-75.8985
11
160.634
21
-75.933
0
LINE
8
BLACK
6
CONTINUOUS
10
160.634
20
-75.933
11
160.588
21
-75.9863
0
LINE
8
BLACK
6
CONTINUOUS
10
160.588
20
-75.9863
11
160.519
21
-76.0058
0
LINE
8
BLACK
6
CONTINUOUS
10
160.519
20
-76.0058
11
160.451
21
-75.9853
0
LINE
8
BLACK
6
CONTINUOUS
10
160.451
20
-75.9853
11
160.406
21
-75.933
0
LINE
8
BLACK
6
CONTINUOUS
10
160.406
20
-75.933
11
160.39
21
-75.8982
0
LINE
8
BLACK
6
CONTINUOUS
10
160.39
20
-75.8982
11
160.39
21
-75.8982
0
LINE
8
BLACK
6
CONTINUOUS
10
160.39
20
-75.8982
11
160.388
21
-75.8933
0
LINE
8
BLACK
6
CONTINUOUS
10
160.388
20
-75.8933
11
160.261
21
-75.7119
0
LINE
8
BLACK
6
CONTINUOUS
10
160.261
20
-75.7119
11
160.259
21
-75.7102
0
LINE
8
BLACK
6
CONTINUOUS
10
160.259
20
-75.7102
11
160.259
21
-75.7102
0
LINE
8
BLACK
6
CONTINUOUS
10
160.259
20
-75.7102
11
160.256
21
-75.7057
0
LINE
8
BLACK
6
CONTINUOUS
10
160.256
20
-75.7057
11
160.094
21
-75.5438
0
LINE
8
BLACK
6
CONTINUOUS
10
160.094
20
-75.5438
11
160.09
21
-75.5406
0
LINE
8
BLACK
6
CONTINUOUS
10
160.09
20
-75.5406
11
160.09
21
-75.5406
0
LINE
8
BLACK
6
CONTINUOUS
10
160.09
20
-75.5406
11
159.997
21
-75.4757
0
LINE
8
BLACK
6
CONTINUOUS
10
159.997
20
-75.4757
11
159.907
21
-75.4125
0
LINE
8
BLACK
6
CONTINUOUS
10
159.907
20
-75.4125
11
159.902
21
-75.4102
0
LINE
8
BLACK
6
CONTINUOUS
10
159.902
20
-75.4102
11
159.902
21
-75.4102
0
LINE
8
BLACK
6
CONTINUOUS
10
159.902
20
-75.4102
11
159.704
21
-75.318
0
LINE
8
BLACK
6
CONTINUOUS
10
159.704
20
-75.318
11
159.704
21
-75.318
0
LINE
8
BLACK
6
CONTINUOUS
10
159.704
20
-75.318
11
159.699
21
-75.3157
0
LINE
8
BLACK
6
CONTINUOUS
10
159.699
20
-75.3157
11
159.694
21
-75.3143
0
LINE
8
BLACK
6
CONTINUOUS
10
159.694
20
-75.3143
11
159.694
21
-75.3143
0
LINE
8
BLACK
6
CONTINUOUS
10
159.694
20
-75.3143
11
159.664
21
-75.3062
0
LINE
8
BLACK
6
CONTINUOUS
10
159.664
20
-75.3062
11
159.603
21
-75.2693
0
LINE
8
BLACK
6
CONTINUOUS
10
159.603
20
-75.2693
11
159.572
21
-75.2054
0
LINE
8
BLACK
6
CONTINUOUS
10
159.572
20
-75.2054
11
159.581
21
-75.1349
0
LINE
8
BLACK
6
CONTINUOUS
10
159.581
20
-75.1349
11
159.626
21
-75.0802
0
LINE
8
BLACK
6
CONTINUOUS
10
159.626
20
-75.0802
11
159.696
21
-75.0585
0
LINE
8
BLACK
6
CONTINUOUS
10
159.696
20
-75.0585
11
159.851
21
-75.0585
0
LINE
8
BLACK
6
CONTINUOUS
10
159.851
20
-75.0585
11
159.854
21
-75.0582
0
LINE
8
BLACK
6
CONTINUOUS
10
159.854
20
-75.0582
11
159.854
21
-75.0582
0
LINE
8
BLACK
6
CONTINUOUS
10
159.854
20
-75.0582
11
159.9
21
-75.0534
0
LINE
8
BLACK
6
CONTINUOUS
10
159.9
20
-75.0534
11
159.956
21
-75.0475
0
LINE
8
BLACK
6
CONTINUOUS
10
159.956
20
-75.0475
11
160.124
21
-74.9916
0
LINE
8
BLACK
6
CONTINUOUS
10
160.124
20
-74.9916
11
160.274
21
-74.8986
0
LINE
8
BLACK
6
CONTINUOUS
10
160.274
20
-74.8986
11
160.399
21
-74.7735
0
LINE
8
BLACK
6
CONTINUOUS
10
160.399
20
-74.7735
11
160.492
21
-74.623
0
LINE
8
BLACK
6
CONTINUOUS
10
160.492
20
-74.623
11
160.513
21
-74.5589
0
LINE
8
BLACK
6
CONTINUOUS
10
160.513
20
-74.5589
11
160.554
21
-74.5006
0
LINE
8
BLACK
6
CONTINUOUS
10
160.554
20
-74.5006
11
160.619
21
-74.4733
0
LINE
8
BLACK
6
CONTINUOUS
10
160.619
20
-74.4733
11
160.689
21
-74.4859
0
LINE
8
BLACK
6
CONTINUOUS
10
160.689
20
-74.4859
11
160.736
21
-74.5263
0
LINE
8
BLACK
6
CONTINUOUS
10
160.736
20
-74.5263
11
160.781
21
-74.5898
0
LINE
8
BLACK
6
CONTINUOUS
10
160.781
20
-74.5898
11
160.784
21
-74.5943
0
LINE
8
BLACK
6
CONTINUOUS
10
160.784
20
-74.5943
11
160.946
21
-74.7562
0
LINE
8
BLACK
6
CONTINUOUS
10
160.946
20
-74.7562
11
160.95
21
-74.7594
0
LINE
8
BLACK
6
CONTINUOUS
10
160.95
20
-74.7594
11
160.95
21
-74.7594
0
LINE
8
BLACK
6
CONTINUOUS
10
160.95
20
-74.7594
11
161.028
21
-74.8141
0
LINE
8
BLACK
6
CONTINUOUS
10
161.028
20
-74.8141
11
161.133
21
-74.8875
0
LINE
8
BLACK
6
CONTINUOUS
10
161.133
20
-74.8875
11
161.138
21
-74.8898
0
LINE
8
BLACK
6
CONTINUOUS
10
161.138
20
-74.8898
11
161.138
21
-74.8898
0
LINE
8
BLACK
6
CONTINUOUS
10
161.138
20
-74.8898
11
161.336
21
-74.982
0
LINE
8
BLACK
6
CONTINUOUS
10
161.336
20
-74.982
11
161.341
21
-74.9843
0
LINE
8
BLACK
6
CONTINUOUS
10
161.341
20
-74.9843
11
161.346
21
-74.9857
0
LINE
8
BLACK
6
CONTINUOUS
10
161.346
20
-74.9857
11
161.506
21
-75.0286
0
LINE
8
BLACK
6
CONTINUOUS
10
161.506
20
-75.0286
11
161.567
21
-75.0655
0
LINE
8
BLACK
6
CONTINUOUS
10
161.567
20
-75.0655
11
161.598
21
-75.1294
0
LINE
8
BLACK
6
CONTINUOUS
10
161.598
20
-75.1294
11
161.589
21
-75.1999
0
LINE
8
BLACK
6
CONTINUOUS
10
161.589
20
-75.1999
11
161.544
21
-75.2546
0
LINE
8
BLACK
6
CONTINUOUS
10
161.544
20
-75.2546
11
161.506
21
-75.272
0
LINE
8
BLACK
6
CONTINUOUS
10
161.506
20
-75.272
11
161.346
21
-75.3148
0
LINE
8
BLACK
6
CONTINUOUS
10
161.346
20
-75.3148
11
161.336
21
-75.3185
0
LINE
8
BLACK
6
CONTINUOUS
10
161.336
20
-75.3185
11
161.138
21
-75.4106
0
LINE
8
BLACK
6
CONTINUOUS
10
161.138
20
-75.4106
11
161.129
21
-75.4161
0
LINE
8
BLACK
6
CONTINUOUS
10
161.129
20
-75.4161
11
161.077
21
-75.4525
0
LINE
8
BLACK
6
CONTINUOUS
10
161.077
20
-75.4525
11
161.069
21
-75.463
0
LINE
8
BLACK
6
CONTINUOUS
10
161.069
20
-75.463
11
161.076
21
-75.4764
0
LINE
8
BLACK
6
CONTINUOUS
10
161.076
20
-75.4764
11
161.434
21
-75.8353
0
LINE
8
BLACK
6
CONTINUOUS
10
161.434
20
-75.8353
11
161.449
21
-75.8261
0
LINE
8
BLACK
6
CONTINUOUS
10
161.449
20
-75.8261
11
161.618
21
-75.7687
0
LINE
8
BLACK
6
CONTINUOUS
10
161.618
20
-75.7687
11
161.796
21
-75.75
0
LINE
8
BLACK
6
CONTINUOUS
10
161.796
20
-75.75
11
161.973
21
-75.7711
0
LINE
8
BLACK
6
CONTINUOUS
10
161.973
20
-75.7711
11
162.141
21
-75.831
0
LINE
8
BLACK
6
CONTINUOUS
10
162.141
20
-75.831
11
162.146
21
-75.8345
0
LINE
8
BLACK
6
CONTINUOUS
10
162.146
20
-75.8345
11
162.505
21
-75.4757
0
LINE
8
BLACK
6
CONTINUOUS
10
162.505
20
-75.4757
11
162.512
21
-75.4639
0
LINE
8
BLACK
6
CONTINUOUS
10
162.512
20
-75.4639
11
162.502
21
-75.4519
0
LINE
8
BLACK
6
CONTINUOUS
10
162.502
20
-75.4519
11
162.451
21
-75.4161
0
LINE
8
BLACK
6
CONTINUOUS
10
162.451
20
-75.4161
11
162.442
21
-75.4106
0
LINE
8
BLACK
6
CONTINUOUS
10
162.442
20
-75.4106
11
162.244
21
-75.3185
0
LINE
8
BLACK
6
CONTINUOUS
10
162.244
20
-75.3185
11
162.234
21
-75.3148
0
LINE
8
BLACK
6
CONTINUOUS
10
162.234
20
-75.3148
11
162.074
21
-75.272
0
LINE
8
BLACK
6
CONTINUOUS
10
162.074
20
-75.272
11
162.013
21
-75.235
0
LINE
8
BLACK
6
CONTINUOUS
10
162.013
20
-75.235
11
161.982
21
-75.1712
0
LINE
8
BLACK
6
CONTINUOUS
10
161.982
20
-75.1712
11
161.991
21
-75.1007
0
LINE
8
BLACK
6
CONTINUOUS
10
161.991
20
-75.1007
11
162.036
21
-75.0459
0
LINE
8
BLACK
6
CONTINUOUS
10
162.036
20
-75.0459
11
162.074
21
-75.0286
0
LINE
8
BLACK
6
CONTINUOUS
10
162.074
20
-75.0286
11
162.234
21
-74.9857
0
LINE
8
BLACK
6
CONTINUOUS
10
162.234
20
-74.9857
11
162.239
21
-74.9843
0
LINE
8
BLACK
6
CONTINUOUS
10
162.239
20
-74.9843
11
162.244
21
-74.982
0
LINE
8
BLACK
6
CONTINUOUS
10
162.244
20
-74.982
11
162.442
21
-74.8898
0
LINE
8
BLACK
6
CONTINUOUS
10
162.442
20
-74.8898
11
162.442
21
-74.8898
0
LINE
8
BLACK
6
CONTINUOUS
10
162.442
20
-74.8898
11
162.447
21
-74.8875
0
LINE
8
BLACK
6
CONTINUOUS
10
162.447
20
-74.8875
11
162.552
21
-74.8141
0
LINE
8
BLACK
6
CONTINUOUS
10
162.552
20
-74.8141
11
162.63
21
-74.7594
0
LINE
8
BLACK
6
CONTINUOUS
10
162.63
20
-74.7594
11
162.63
21
-74.7594
0
LINE
8
BLACK
6
CONTINUOUS
10
162.63
20
-74.7594
11
162.634
21
-74.7562
0
LINE
8
BLACK
6
CONTINUOUS
10
162.634
20
-74.7562
11
162.796
21
-74.5943
0
LINE
8
BLACK
6
CONTINUOUS
10
162.796
20
-74.5943
11
162.821
21
-74.5589
0
LINE
8
BLACK
6
CONTINUOUS
10
162.821
20
-74.5589
11
162.872
21
-74.4859
0
LINE
8
BLACK
6
CONTINUOUS
10
162.872
20
-74.4859
11
162.928
21
-74.4067
0
LINE
8
BLACK
6
CONTINUOUS
10
162.928
20
-74.4067
11
162.93
21
-74.4018
0
LINE
8
BLACK
6
CONTINUOUS
10
162.93
20
-74.4018
11
162.93
21
-74.4018
0
LINE
8
BLACK
6
CONTINUOUS
10
162.93
20
-74.4018
11
163.022
21
-74.2042
0
LINE
8
BLACK
6
CONTINUOUS
10
163.022
20
-74.2042
11
163.022
21
-74.2042
0
LINE
8
BLACK
6
CONTINUOUS
10
163.022
20
-74.2042
11
163.024
21
-74.1992
0
LINE
8
BLACK
6
CONTINUOUS
10
163.024
20
-74.1992
11
163.027
21
-74.19
0
LINE
8
BLACK
6
CONTINUOUS
10
163.027
20
-74.19
11
163.082
21
-73.9834
0
LINE
8
BLACK
6
CONTINUOUS
10
163.082
20
-73.9834
11
163.082
21
-73.9834
0
LINE
8
BLACK
6
CONTINUOUS
10
163.082
20
-73.9834
11
163.084
21
-73.9781
0
LINE
8
BLACK
6
CONTINUOUS
10
163.084
20
-73.9781
11
163.103
21
-73.75
0
LINE
8
BLACK
6
CONTINUOUS
10
163.103
20
-73.75
11
163.084
21
-73.5219
0
LINE
8
BLACK
6
CONTINUOUS
10
163.084
20
-73.5219
11
163.08
21
-73.5084
0
LINE
8
BLACK
6
CONTINUOUS
10
163.08
20
-73.5084
11
163.026
21
-73.3061
0
LINE
8
BLACK
6
CONTINUOUS
10
163.026
20
-73.3061
11
163.026
21
-73.3061
0
LINE
8
BLACK
6
CONTINUOUS
10
163.026
20
-73.3061
11
163.024
21
-73.3008
0
LINE
8
BLACK
6
CONTINUOUS
10
163.024
20
-73.3008
11
163.002
21
-73.2538
0
LINE
8
BLACK
6
CONTINUOUS
10
163.002
20
-73.2538
11
162.93
21
-73.0982
0
LINE
8
BLACK
6
CONTINUOUS
10
162.93
20
-73.0982
11
162.93
21
-73.0982
0
LINE
8
BLACK
6
CONTINUOUS
10
162.93
20
-73.0982
11
162.928
21
-73.0933
0
LINE
8
BLACK
6
CONTINUOUS
10
162.928
20
-73.0933
11
162.814
21
-72.9305
0
LINE
8
BLACK
6
CONTINUOUS
10
162.814
20
-72.9305
11
162.799
21
-72.9102
0
LINE
8
BLACK
6
CONTINUOUS
10
162.799
20
-72.9102
11
162.799
21
-72.9102
0
LINE
8
BLACK
6
CONTINUOUS
10
162.799
20
-72.9102
11
162.796
21
-72.9057
0
LINE
8
BLACK
6
CONTINUOUS
10
162.796
20
-72.9057
11
162.634
21
-72.7438
0
LINE
8
BLACK
6
CONTINUOUS
10
162.634
20
-72.7438
11
162.63
21
-72.7406
0
LINE
8
BLACK
6
CONTINUOUS
10
162.63
20
-72.7406
11
162.63
21
-72.7406
0
LINE
8
BLACK
6
CONTINUOUS
10
162.63
20
-72.7406
11
162.552
21
-72.6859
0
LINE
8
BLACK
6
CONTINUOUS
10
162.552
20
-72.6859
11
162.447
21
-72.6125
0
LINE
8
BLACK
6
CONTINUOUS
10
162.447
20
-72.6125
11
162.442
21
-72.6102
0
LINE
8
BLACK
6
CONTINUOUS
10
162.442
20
-72.6102
11
162.442
21
-72.6102
0
LINE
8
BLACK
6
CONTINUOUS
10
162.442
20
-72.6102
11
162.244
21
-72.518
0
LINE
8
BLACK
6
CONTINUOUS
10
162.244
20
-72.518
11
162.244
21
-72.518
0
LINE
8
BLACK
6
CONTINUOUS
10
162.244
20
-72.518
11
162.239
21
-72.5157
0
LINE
8
BLACK
6
CONTINUOUS
10
162.239
20
-72.5157
11
162.234
21
-72.5143
0
LINE
8
BLACK
6
CONTINUOUS
10
162.234
20
-72.5143
11
162.234
21
-72.5143
0
LINE
8
BLACK
6
CONTINUOUS
10
162.234
20
-72.5143
11
162.023
21
-72.4579
0
LINE
8
BLACK
6
CONTINUOUS
10
162.023
20
-72.4579
11
162.023
21
-72.4579
0
LINE
8
BLACK
6
CONTINUOUS
10
162.023
20
-72.4579
11
162.018
21
-72.4565
0
LINE
8
BLACK
6
CONTINUOUS
10
162.018
20
-72.4565
11
161.79
21
-72.4365
0
LINE
8
BLACK
6
CONTINUOUS
10
161.79
20
-72.4365
11
161.562
21
-72.4565
0
LINE
8
BLACK
6
CONTINUOUS
10
161.562
20
-72.4565
11
161.557
21
-72.4579
0
LINE
8
BLACK
6
CONTINUOUS
10
161.557
20
-72.4579
11
161.557
21
-72.4579
0
LINE
8
BLACK
6
CONTINUOUS
10
161.557
20
-72.4579
11
161.346
21
-72.5143
0
LINE
8
BLACK
6
CONTINUOUS
10
161.346
20
-72.5143
11
161.346
21
-72.5143
0
LINE
8
BLACK
6
CONTINUOUS
10
161.346
20
-72.5143
11
161.341
21
-72.5157
0
LINE
8
BLACK
6
CONTINUOUS
10
161.341
20
-72.5157
11
161.336
21
-72.518
0
LINE
8
BLACK
6
CONTINUOUS
10
161.336
20
-72.518
11
161.336
21
-72.518
0
LINE
8
BLACK
6
CONTINUOUS
10
161.336
20
-72.518
11
161.138
21
-72.6102
0
LINE
8
BLACK
6
CONTINUOUS
10
161.138
20
-72.6102
11
161.138
21
-72.6102
0
LINE
8
BLACK
6
CONTINUOUS
10
161.138
20
-72.6102
11
161.133
21
-72.6125
0
LINE
8
BLACK
6
CONTINUOUS
10
161.133
20
-72.6125
11
161.028
21
-72.6859
0
LINE
8
BLACK
6
CONTINUOUS
10
161.028
20
-72.6859
11
160.95
21
-72.7406
0
LINE
8
BLACK
6
CONTINUOUS
10
160.95
20
-72.7406
11
160.95
21
-72.7406
0
LINE
8
BLACK
6
CONTINUOUS
10
160.95
20
-72.7406
11
160.946
21
-72.7438
0
LINE
8
BLACK
6
CONTINUOUS
10
160.946
20
-72.7438
11
160.784
21
-72.9057
0
LINE
8
BLACK
6
CONTINUOUS
10
160.784
20
-72.9057
11
160.781
21
-72.9102
0
LINE
8
BLACK
6
CONTINUOUS
10
160.781
20
-72.9102
11
160.781
21
-72.9102
0
LINE
8
BLACK
6
CONTINUOUS
10
160.781
20
-72.9102
11
160.736
21
-72.9737
0
LINE
8
BLACK
6
CONTINUOUS
10
160.736
20
-72.9737
11
160.681
21
-73.018
0
LINE
8
BLACK
6
CONTINUOUS
10
160.681
20
-73.018
11
160.61
21
-73.0254
0
LINE
8
BLACK
6
CONTINUOUS
10
160.61
20
-73.0254
11
160.547
21
-72.9933
0
LINE
8
BLACK
6
CONTINUOUS
10
160.547
20
-72.9933
11
160.513
21
-72.9413
0
LINE
8
BLACK
6
CONTINUOUS
10
160.513
20
-72.9413
11
160.495
21
-72.8856
0
LINE
8
BLACK
6
CONTINUOUS
10
160.495
20
-72.8856
11
160.492
21
-72.8758
0
LINE
8
BLACK
6
CONTINUOUS
10
160.492
20
-72.8758
11
160.399
21
-72.7255
0
LINE
8
BLACK
6
CONTINUOUS
10
160.399
20
-72.7255
11
160.273
21
-72.6006
0
LINE
8
BLACK
6
CONTINUOUS
10
160.273
20
-72.6006
11
160.123
21
-72.5079
0
LINE
8
BLACK
6
CONTINUOUS
10
160.123
20
-72.5079
11
160.098
21
-72.4996
0
LINE
8
BLACK
6
CONTINUOUS
10
160.098
20
-72.4996
11
159.97
21
-72.4571
0
LINE
8
BLACK
6
CONTINUOUS
10
159.97
20
-72.4571
11
159.911
21
-72.4166
0
LINE
8
BLACK
6
CONTINUOUS
10
159.911
20
-72.4166
11
159.884
21
-72.3511
0
LINE
8
BLACK
6
CONTINUOUS
10
159.884
20
-72.3511
11
159.883
21
-72.3375
0
LINE
8
BLACK
6
CONTINUOUS
10
159.883
20
-72.3375
11
159.883
21
-70.1288
0
LINE
8
BLACK
6
CONTINUOUS
10
159.883
20
-70.1288
11
159.884
21
-70.1176
0
LINE
8
BLACK
6
CONTINUOUS
10
159.884
20
-70.1176
11
159.886
21
-70.1101
0
LINE
8
BLACK
6
CONTINUOUS
10
159.886
20
-70.1101
11
159.884
21
-70.042
0
LINE
8
BLACK
6
CONTINUOUS
10
159.884
20
-70.042
11
159.883
21
-70.038
0
LINE
8
BLACK
6
CONTINUOUS
10
159.883
20
-70.038
11
159.883
21
-70.0101
0
LINE
8
BLACK
6
CONTINUOUS
10
159.883
20
-70.0101
11
159.883
21
-70.0062
0
LINE
8
BLACK
6
CONTINUOUS
10
159.883
20
-70.0062
11
159.882
21
-69.9943
0
LINE
8
BLACK
6
CONTINUOUS
10
159.882
20
-69.9943
11
159.881
21
-69.958
0
LINE
8
BLACK
6
CONTINUOUS
10
159.881
20
-69.958
11
159.881
21
-69.9501
0
LINE
8
BLACK
6
CONTINUOUS
10
159.881
20
-69.9501
11
159.875
21
-69.9307
0
LINE
8
BLACK
6
CONTINUOUS
10
159.875
20
-69.9307
11
159.871
21
-69.9113
0
LINE
8
BLACK
6
CONTINUOUS
10
159.871
20
-69.9113
11
159.87
21
-69.9069
0
LINE
8
BLACK
6
CONTINUOUS
10
159.87
20
-69.9069
11
159.868
21
-69.8912
0
LINE
8
BLACK
6
CONTINUOUS
10
159.868
20
-69.8912
11
159.866
21
-69.8838
0
LINE
8
BLACK
6
CONTINUOUS
10
159.866
20
-69.8838
11
159.866
21
-69.8838
0
LINE
8
BLACK
6
CONTINUOUS
10
159.866
20
-69.8838
11
159.852
21
-69.8501
0
LINE
8
BLACK
6
CONTINUOUS
10
159.852
20
-69.8501
11
159.848
21
-69.8389
0
LINE
8
BLACK
6
CONTINUOUS
10
159.848
20
-69.8389
11
159.838
21
-69.804
0
LINE
8
BLACK
6
CONTINUOUS
10
159.838
20
-69.804
11
159.838
21
-69.804
0
LINE
8
BLACK
6
CONTINUOUS
10
159.838
20
-69.804
11
159.836
21
-69.7964
0
LINE
8
BLACK
6
CONTINUOUS
10
159.836
20
-69.7964
11
159.826
21
-69.779
0
LINE
8
BLACK
6
CONTINUOUS
10
159.826
20
-69.779
11
159.817
21
-69.7612
0
LINE
8
BLACK
6
CONTINUOUS
10
159.817
20
-69.7612
11
159.812
21
-69.7498
0
LINE
8
BLACK
6
CONTINUOUS
10
159.812
20
-69.7498
11
159.81
21
-69.7424
0
LINE
8
BLACK
6
CONTINUOUS
10
159.81
20
-69.7424
11
159.784
21
-69.7066
0
LINE
8
BLACK
6
CONTINUOUS
10
159.784
20
-69.7066
11
159.777
21
-69.6967
0
LINE
8
BLACK
6
CONTINUOUS
10
159.777
20
-69.6967
11
159.759
21
-69.6655
0
LINE
8
BLACK
6
CONTINUOUS
10
159.759
20
-69.6655
11
159.755
21
-69.6586
0
LINE
8
BLACK
6
CONTINUOUS
10
159.755
20
-69.6586
11
159.74
21
-69.6443
0
LINE
8
BLACK
6
CONTINUOUS
10
159.74
20
-69.6443
11
159.727
21
-69.6293
0
LINE
8
BLACK
6
CONTINUOUS
10
159.727
20
-69.6293
11
159.72
21
-69.6193
0
LINE
8
BLACK
6
CONTINUOUS
10
159.72
20
-69.6193
11
159.715
21
-69.6129
0
LINE
8
BLACK
6
CONTINUOUS
10
159.715
20
-69.6129
11
159.681
21
-69.5847
0
LINE
8
BLACK
6
CONTINUOUS
10
159.681
20
-69.5847
11
159.673
21
-69.5767
0
LINE
8
BLACK
6
CONTINUOUS
10
159.673
20
-69.5767
11
158.819
21
-68.7236
0
LINE
8
BLACK
6
CONTINUOUS
10
158.819
20
-68.7236
11
158.785
21
-68.6613
0
LINE
8
BLACK
6
CONTINUOUS
10
158.785
20
-68.6613
11
158.791
21
-68.5905
0
LINE
8
BLACK
6
CONTINUOUS
10
158.791
20
-68.5905
11
158.833
21
-68.5336
0
LINE
8
BLACK
6
CONTINUOUS
10
158.833
20
-68.5336
11
158.9
21
-68.5088
0
LINE
8
BLACK
6
CONTINUOUS
10
158.9
20
-68.5088
11
158.909
21
-68.5085
0
LINE
8
BLACK
6
CONTINUOUS
10
158.909
20
-68.5085
11
164.115
21
-68.5085
0
LINE
8
BLACK
6
CONTINUOUS
10
164.115
20
-68.5085
11
164.184
21
-68.5285
0
LINE
8
BLACK
6
CONTINUOUS
10
164.184
20
-68.5285
11
164.23
21
-68.5822
0
LINE
8
BLACK
6
CONTINUOUS
10
164.23
20
-68.5822
11
164.242
21
-68.6345
0
LINE
8
BLACK
6
CONTINUOUS
10
164.242
20
-68.6345
11
164.242
21
-80.3655
0
LINE
8
BLACK
6
CONTINUOUS
10
164.242
20
-80.3655
11
164.221
21
-80.4336
0
LINE
8
BLACK
6
CONTINUOUS
10
164.221
20
-80.4336
11
164.168
21
-80.4801
0
LINE
8
BLACK
6
CONTINUOUS
10
164.168
20
-80.4801
11
164.115
21
-80.4915
0
LINE
8
BLACK
6
CONTINUOUS
10
164.115
20
-80.4915
11
152.499
21
-80.4915
0
LINE
8
BLACK
6
CONTINUOUS
10
152.499
20
-80.4915
11
152.43
21
-80.4715
0
LINE
8
BLACK
6
CONTINUOUS
10
152.43
20
-80.4715
11
152.384
21
-80.4178
0
LINE
8
BLACK
6
CONTINUOUS
10
152.384
20
-80.4178
11
152.374
21
-80.3476
0
LINE
8
BLACK
6
CONTINUOUS
10
152.374
20
-80.3476
11
152.403
21
-80.283
0
LINE
8
BLACK
6
CONTINUOUS
10
152.403
20
-80.283
11
152.409
21
-80.2764
0
LINE
8
BLACK
6
CONTINUOUS
10
152.409
20
-80.2764
11
152.825
21
-79.8604
0
LINE
8
BLACK
6
CONTINUOUS
10
152.825
20
-79.8604
11
152.888
21
-79.8264
0
LINE
8
BLACK
6
CONTINUOUS
10
152.888
20
-79.8264
11
152.895
21
-79.8256
0
LINE
8
BLACK
6
CONTINUOUS
10
152.895
20
-79.8256
11
152.926
21
-79.7649
0
LINE
8
BLACK
6
CONTINUOUS
10
152.926
20
-79.7649
11
153.015
21
-79.6764
0
LINE
8
BLACK
6
CONTINUOUS
10
153.015
20
-79.6764
11
153.126
21
-79.6196
0
LINE
8
BLACK
6
CONTINUOUS
10
153.126
20
-79.6196
11
153.25
21
-79.6
0
LINE
8
BLACK
6
CONTINUOUS
10
153.25
20
-79.6
11
153.374
21
-79.6196
0
LINE
8
BLACK
6
CONTINUOUS
10
153.374
20
-79.6196
11
153.485
21
-79.6764
0
LINE
8
BLACK
6
CONTINUOUS
10
153.485
20
-79.6764
11
153.573
21
-79.7645
0
LINE
8
BLACK
6
CONTINUOUS
10
153.573
20
-79.7645
11
153.621
21
-79.7501
0
LINE
8
BLACK
6
CONTINUOUS
10
153.621
20
-79.7501
11
153.8
21
-79.655
0
LINE
8
BLACK
6
CONTINUOUS
10
153.8
20
-79.655
11
153.957
21
-79.5269
0
LINE
8
BLACK
6
CONTINUOUS
10
153.957
20
-79.5269
11
154.005
21
-79.4692
0
LINE
8
BLACK
6
CONTINUOUS
10
154.005
20
-79.4692
11
154.063
21
-79.4294
0
LINE
8
BLACK
6
CONTINUOUS
10
154.063
20
-79.4294
11
154.102
21
-79.4235
0
LINE
8
BLACK
6
CONTINUOUS
10
154.102
20
-79.4235
11
154.465
21
-79.4235
0
LINE
8
BLACK
6
CONTINUOUS
10
154.465
20
-79.4235
11
154.496
21
-79.4275
0
LINE
8
BLACK
6
CONTINUOUS
10
154.496
20
-79.4275
11
154.52
21
-79.4335
0
LINE
8
BLACK
6
CONTINUOUS
10
154.52
20
-79.4335
11
154.54
21
-79.4335
0
LINE
8
BLACK
6
CONTINUOUS
10
154.54
20
-79.4335
11
154.56
21
-79.4351
0
LINE
8
BLACK
6
CONTINUOUS
10
154.56
20
-79.4351
11
154.58
21
-79.4382
0
LINE
8
BLACK
6
CONTINUOUS
10
154.58
20
-79.4382
11
154.588
21
-79.4375
0
LINE
8
BLACK
6
CONTINUOUS
10
154.588
20
-79.4375
11
154.607
21
-79.4357
0
LINE
8
BLACK
6
CONTINUOUS
10
154.607
20
-79.4357
11
154.624
21
-79.4341
0
LINE
8
BLACK
6
CONTINUOUS
10
154.624
20
-79.4341
11
154.636
21
-79.4335
0
LINE
8
BLACK
6
CONTINUOUS
10
154.636
20
-79.4335
11
154.721
21
-79.4335
0
LINE
8
BLACK
6
CONTINUOUS
10
154.721
20
-79.4335
11
154.732
21
-79.434
0
LINE
8
BLACK
6
CONTINUOUS
10
154.732
20
-79.434
11
154.74
21
-79.4357
0
LINE
8
BLACK
6
CONTINUOUS
10
154.74
20
-79.4357
11
154.748
21
-79.4355
0
LINE
8
BLACK
6
CONTINUOUS
10
154.748
20
-79.4355
11
154.748
21
-79.4355
0
LINE
8
BLACK
6
CONTINUOUS
10
154.748
20
-79.4355
11
154.808
21
-79.4336
0
LINE
8
BLACK
6
CONTINUOUS
10
154.808
20
-79.4336
11
154.812
21
-79.4335
0
LINE
8
BLACK
6
CONTINUOUS
10
154.812
20
-79.4335
11
154.84
21
-79.4335
0
LINE
8
BLACK
6
CONTINUOUS
10
154.84
20
-79.4335
11
154.844
21
-79.433
0
LINE
8
BLACK
6
CONTINUOUS
10
154.844
20
-79.433
11
154.844
21
-79.433
0
LINE
8
BLACK
6
CONTINUOUS
10
154.844
20
-79.433
11
154.856
21
-79.4321
0
LINE
8
BLACK
6
CONTINUOUS
10
154.856
20
-79.4321
11
154.888
21
-79.431
0
LINE
8
BLACK
6
CONTINUOUS
10
154.888
20
-79.431
11
154.892
21
-79.4309
0
LINE
8
BLACK
6
CONTINUOUS
10
154.892
20
-79.4309
11
154.9
21
-79.4307
0
LINE
8
BLACK
6
CONTINUOUS
10
154.9
20
-79.4307
11
154.919
21
-79.425
0
LINE
8
BLACK
6
CONTINUOUS
10
154.919
20
-79.425
11
154.939
21
-79.421
0
LINE
8
BLACK
6
CONTINUOUS
10
154.939
20
-79.421
11
154.951
21
-79.4195
0
LINE
8
BLACK
6
CONTINUOUS
10
154.951
20
-79.4195
11
154.951
21
-79.4195
0
LINE
8
BLACK
6
CONTINUOUS
10
154.951
20
-79.4195
11
154.959
21
-79.4185
0
LINE
8
BLACK
6
CONTINUOUS
10
154.959
20
-79.4185
11
154.966
21
-79.4156
0
LINE
8
BLACK
6
CONTINUOUS
10
154.966
20
-79.4156
11
154.966
21
-79.4156
0
LINE
8
BLACK
6
CONTINUOUS
10
154.966
20
-79.4156
11
155
21
-79.4022
0
LINE
8
BLACK
6
CONTINUOUS
10
155
20
-79.4022
11
155.011
21
-79.3984
0
LINE
8
BLACK
6
CONTINUOUS
10
155.011
20
-79.3984
11
155.046
21
-79.3882
0
LINE
8
BLACK
6
CONTINUOUS
10
155.046
20
-79.3882
11
155.046
21
-79.3882
0
LINE
8
BLACK
6
CONTINUOUS
10
155.046
20
-79.3882
11
155.054
21
-79.386
0
LINE
8
BLACK
6
CONTINUOUS
10
155.054
20
-79.386
11
155.06
21
-79.382
0
LINE
8
BLACK
6
CONTINUOUS
10
155.06
20
-79.382
11
155.06
21
-79.382
0
LINE
8
BLACK
6
CONTINUOUS
10
155.06
20
-79.382
11
155.071
21
-79.3757
0
LINE
8
BLACK
6
CONTINUOUS
10
155.071
20
-79.3757
11
155.089
21
-79.367
0
LINE
8
BLACK
6
CONTINUOUS
10
155.089
20
-79.367
11
155.108
21
-79.3596
0
LINE
8
BLACK
6
CONTINUOUS
10
155.108
20
-79.3596
11
155.143
21
-79.3336
0
LINE
8
BLACK
6
CONTINUOUS
10
155.143
20
-79.3336
11
155.153
21
-79.327
0
LINE
8
BLACK
6
CONTINUOUS
10
155.153
20
-79.327
11
155.185
21
-79.3086
0
LINE
8
BLACK
6
CONTINUOUS
10
155.185
20
-79.3086
11
155.185
21
-79.3086
0
LINE
8
BLACK
6
CONTINUOUS
10
155.185
20
-79.3086
11
155.191
21
-79.3045
0
LINE
8
BLACK
6
CONTINUOUS
10
155.191
20
-79.3045
11
155.206
21
-79.2902
0
LINE
8
BLACK
6
CONTINUOUS
10
155.206
20
-79.2902
11
155.221
21
-79.2774
0
LINE
8
BLACK
6
CONTINUOUS
10
155.221
20
-79.2774
11
155.231
21
-79.2701
0
LINE
8
BLACK
6
CONTINUOUS
10
155.231
20
-79.2701
11
155.237
21
-79.2655
0
LINE
8
BLACK
6
CONTINUOUS
10
155.237
20
-79.2655
11
155.265
21
-79.2314
0
LINE
8
BLACK
6
CONTINUOUS
10
155.265
20
-79.2314
11
155.273
21
-79.2226
0
LINE
8
BLACK
6
CONTINUOUS
10
155.273
20
-79.2226
11
156.192
21
-78.3037
0
LINE
8
BLACK
6
CONTINUOUS
10
156.192
20
-78.3037
11
156.201
21
-78.2961
0
LINE
8
BLACK
6
CONTINUOUS
10
156.201
20
-78.2961
11
156.207
21
-78.292
0
LINE
8
BLACK
6
CONTINUOUS
10
156.207
20
-78.292
11
156.254
21
-78.2423
0
LINE
8
BLACK
6
CONTINUOUS
10
156.254
20
-78.2423
11
156.256
21
-78.2395
0
LINE
8
BLACK
6
CONTINUOUS
10
156.256
20
-78.2395
11
156.276
21
-78.2198
0
LINE
8
BLACK
6
CONTINUOUS
10
156.276
20
-78.2198
11
156.279
21
-78.2166
0
LINE
8
BLACK
6
CONTINUOUS
10
156.279
20
-78.2166
11
156.286
21
-78.2076
0
LINE
8
BLACK
6
CONTINUOUS
10
156.286
20
-78.2076
11
156.301
21
-78.1921
0
LINE
8
BLACK
6
CONTINUOUS
10
156.301
20
-78.1921
11
156.317
21
-78.1753
0
LINE
8
BLACK
6
CONTINUOUS
10
156.317
20
-78.1753
11
156.32
21
-78.1684
0
LINE
8
BLACK
6
CONTINUOUS
10
156.32
20
-78.1684
11
156.326
21
-78.1576
0
LINE
8
BLACK
6
CONTINUOUS
10
156.326
20
-78.1576
11
156.337
21
-78.141
0
LINE
8
BLACK
6
CONTINUOUS
10
156.337
20
-78.141
11
156.345
21
-78.1313
0
LINE
8
BLACK
6
CONTINUOUS
10
156.345
20
-78.1313
11
156.345
21
-78.1313
0
LINE
8
BLACK
6
CONTINUOUS
10
156.345
20
-78.1313
11
156.35
21
-78.125
0
LINE
8
BLACK
6
CONTINUOUS
10
156.35
20
-78.125
11
156.367
21
-78.0845
0
LINE
8
BLACK
6
CONTINUOUS
10
156.367
20
-78.0845
11
156.372
21
-78.0738
0
LINE
8
BLACK
6
CONTINUOUS
10
156.372
20
-78.0738
11
156.39
21
-78.042
0
LINE
8
BLACK
6
CONTINUOUS
10
156.39
20
-78.042
11
156.394
21
-78.0351
0
LINE
8
BLACK
6
CONTINUOUS
10
156.394
20
-78.0351
11
156.399
21
-78.0154
0
LINE
8
BLACK
6
CONTINUOUS
10
156.399
20
-78.0154
11
156.405
21
-77.9967
0
LINE
8
BLACK
6
CONTINUOUS
10
156.405
20
-77.9967
11
156.41
21
-77.9854
0
LINE
8
BLACK
6
CONTINUOUS
10
156.41
20
-77.9854
11
156.41
21
-77.9854
0
LINE
8
BLACK
6
CONTINUOUS
10
156.41
20
-77.9854
11
156.413
21
-77.9781
0
LINE
8
BLACK
6
CONTINUOUS
10
156.413
20
-77.9781
11
156.414
21
-77.9703
0
LINE
8
BLACK
6
CONTINUOUS
10
156.414
20
-77.9703
11
156.414
21
-77.9703
0
LINE
8
BLACK
6
CONTINUOUS
10
156.414
20
-77.9703
11
156.42
21
-77.9345
0
LINE
8
BLACK
6
CONTINUOUS
10
156.42
20
-77.9345
11
156.423
21
-77.9229
0
LINE
8
BLACK
6
CONTINUOUS
10
156.423
20
-77.9229
11
156.432
21
-77.8877
0
LINE
8
BLACK
6
CONTINUOUS
10
156.432
20
-77.8877
11
156.432
21
-77.8877
0
LINE
8
BLACK
6
CONTINUOUS
10
156.432
20
-77.8877
11
156.433
21
-77.88
0
LINE
8
BLACK
6
CONTINUOUS
10
156.433
20
-77.88
11
156.433
21
-77.8598
0
LINE
8
BLACK
6
CONTINUOUS
10
156.433
20
-77.8598
11
156.435
21
-77.8401
0
LINE
8
BLACK
6
CONTINUOUS
10
156.435
20
-77.8401
11
156.437
21
-77.8279
0
LINE
8
BLACK
6
CONTINUOUS
10
156.437
20
-77.8279
11
156.438
21
-77.8201
0
LINE
8
BLACK
6
CONTINUOUS
10
156.438
20
-77.8201
11
156.434
21
-77.776
0
LINE
8
BLACK
6
CONTINUOUS
10
156.434
20
-77.776
11
156.433
21
-77.7642
0
LINE
8
BLACK
6
CONTINUOUS
10
156.433
20
-77.7642
11
156.433
21
-74.2788
0
LINE
8
BLACK
6
CONTINUOUS
10
156.433
20
-74.2788
11
156.434
21
-74.2676
0
LINE
8
BLACK
6
CONTINUOUS
10
156.434
20
-74.2676
11
156.436
21
-74.2601
0
LINE
8
BLACK
6
CONTINUOUS
10
156.436
20
-74.2601
11
156.434
21
-74.192
0
LINE
8
BLACK
6
CONTINUOUS
10
156.434
20
-74.192
11
156.433
21
-74.1881
0
LINE
8
BLACK
6
CONTINUOUS
10
156.433
20
-74.1881
11
156.433
21
-74.1601
0
LINE
8
BLACK
6
CONTINUOUS
10
156.433
20
-74.1601
11
156.433
21
-74.1561
0
LINE
8
BLACK
6
CONTINUOUS
10
156.433
20
-74.1561
11
156.432
21
-74.1443
0
LINE
8
BLACK
6
CONTINUOUS
10
156.432
20
-74.1443
11
156.432
21
-74.1438
0
LINE
8
BLACK
6
CONTINUOUS
10
156.432
20
-74.1438
11
156.431
21
-74.1001
0
LINE
8
BLACK
6
CONTINUOUS
10
156.431
20
-74.1001
11
156.425
21
-74.0807
0
LINE
8
BLACK
6
CONTINUOUS
10
156.425
20
-74.0807
11
156.421
21
-74.0613
0
LINE
8
BLACK
6
CONTINUOUS
10
156.421
20
-74.0613
11
156.419
21
-74.0491
0
LINE
8
BLACK
6
CONTINUOUS
10
156.419
20
-74.0491
11
156.419
21
-74.0491
0
LINE
8
BLACK
6
CONTINUOUS
10
156.419
20
-74.0491
11
156.418
21
-74.0412
0
LINE
8
BLACK
6
CONTINUOUS
10
156.418
20
-74.0412
11
156.416
21
-74.0338
0
LINE
8
BLACK
6
CONTINUOUS
10
156.416
20
-74.0338
11
156.402
21
-74.0001
0
LINE
8
BLACK
6
CONTINUOUS
10
156.402
20
-74.0001
11
156.398
21
-73.9889
0
LINE
8
BLACK
6
CONTINUOUS
10
156.398
20
-73.9889
11
156.388
21
-73.954
0
LINE
8
BLACK
6
CONTINUOUS
10
156.388
20
-73.954
11
156.388
21
-73.954
0
LINE
8
BLACK
6
CONTINUOUS
10
156.388
20
-73.954
11
156.386
21
-73.9464
0
LINE
8
BLACK
6
CONTINUOUS
10
156.386
20
-73.9464
11
156.382
21
-73.9396
0
LINE
8
BLACK
6
CONTINUOUS
10
156.382
20
-73.9396
11
156.382
21
-73.9396
0
LINE
8
BLACK
6
CONTINUOUS
10
156.382
20
-73.9396
11
156.376
21
-73.929
0
LINE
8
BLACK
6
CONTINUOUS
10
156.376
20
-73.929
11
156.367
21
-73.9112
0
LINE
8
BLACK
6
CONTINUOUS
10
156.367
20
-73.9112
11
156.36
21
-73.8924
0
LINE
8
BLACK
6
CONTINUOUS
10
156.36
20
-73.8924
11
156.334
21
-73.8566
0
LINE
8
BLACK
6
CONTINUOUS
10
156.334
20
-73.8566
11
156.327
21
-73.8467
0
LINE
8
BLACK
6
CONTINUOUS
10
156.327
20
-73.8467
11
156.309
21
-73.8155
0
LINE
8
BLACK
6
CONTINUOUS
10
156.309
20
-73.8155
11
156.309
21
-73.8155
0
LINE
8
BLACK
6
CONTINUOUS
10
156.309
20
-73.8155
11
156.305
21
-73.8086
0
LINE
8
BLACK
6
CONTINUOUS
10
156.305
20
-73.8086
11
156.29
21
-73.7943
0
LINE
8
BLACK
6
CONTINUOUS
10
156.29
20
-73.7943
11
156.277
21
-73.7793
0
LINE
8
BLACK
6
CONTINUOUS
10
156.277
20
-73.7793
11
156.27
21
-73.7693
0
LINE
8
BLACK
6
CONTINUOUS
10
156.27
20
-73.7693
11
156.265
21
-73.7629
0
LINE
8
BLACK
6
CONTINUOUS
10
156.265
20
-73.7629
11
156.231
21
-73.7347
0
LINE
8
BLACK
6
CONTINUOUS
10
156.231
20
-73.7347
11
156.223
21
-73.7267
0
LINE
8
BLACK
6
CONTINUOUS
10
156.223
20
-73.7267
11
155.124
21
-72.6277
0
LINE
8
BLACK
6
CONTINUOUS
10
155.124
20
-72.6277
11
155.116
21
-72.6195
0
LINE
8
BLACK
6
CONTINUOUS
10
155.116
20
-72.6195
11
155.112
21
-72.613
0
LINE
8
BLACK
6
CONTINUOUS
10
155.112
20
-72.613
11
155.062
21
-72.5664
0
LINE
8
BLACK
6
CONTINUOUS
10
155.062
20
-72.5664
11
155.06
21
-72.5636
0
LINE
8
BLACK
6
CONTINUOUS
10
155.06
20
-72.5636
11
155.04
21
-72.5439
0
LINE
8
BLACK
6
CONTINUOUS
10
155.04
20
-72.5439
11
155.037
21
-72.5414
0
LINE
8
BLACK
6
CONTINUOUS
10
155.037
20
-72.5414
11
155.028
21
-72.5337
0
LINE
8
BLACK
6
CONTINUOUS
10
155.028
20
-72.5337
11
155.001
21
-72.5088
0
LINE
8
BLACK
6
CONTINUOUS
10
155.001
20
-72.5088
11
154.995
21
-72.5034
0
LINE
8
BLACK
6
CONTINUOUS
10
154.995
20
-72.5034
11
154.988
21
-72.4996
0
LINE
8
BLACK
6
CONTINUOUS
10
154.988
20
-72.4996
11
154.988
21
-72.4996
0
LINE
8
BLACK
6
CONTINUOUS
10
154.988
20
-72.4996
11
154.978
21
-72.4937
0
LINE
8
BLACK
6
CONTINUOUS
10
154.978
20
-72.4937
11
154.961
21
-72.4828
0
LINE
8
BLACK
6
CONTINUOUS
10
154.961
20
-72.4828
11
154.958
21
-72.4807
0
LINE
8
BLACK
6
CONTINUOUS
10
154.958
20
-72.4807
11
154.945
21
-72.4704
0
LINE
8
BLACK
6
CONTINUOUS
10
154.945
20
-72.4704
11
154.938
21
-72.4672
0
LINE
8
BLACK
6
CONTINUOUS
10
154.938
20
-72.4672
11
154.938
21
-72.4672
0
LINE
8
BLACK
6
CONTINUOUS
10
154.938
20
-72.4672
11
154.904
21
-72.4528
0
LINE
8
BLACK
6
CONTINUOUS
10
154.904
20
-72.4528
11
154.894
21
-72.4476
0
LINE
8
BLACK
6
CONTINUOUS
10
154.894
20
-72.4476
11
154.855
21
-72.4263
0
LINE
8
BLACK
6
CONTINUOUS
10
154.855
20
-72.4263
11
154.835
21
-72.4213
0
LINE
8
BLACK
6
CONTINUOUS
10
154.835
20
-72.4213
11
154.817
21
-72.4149
0
LINE
8
BLACK
6
CONTINUOUS
10
154.817
20
-72.4149
11
154.805
21
-72.41
0
LINE
8
BLACK
6
CONTINUOUS
10
154.805
20
-72.41
11
154.805
21
-72.41
0
LINE
8
BLACK
6
CONTINUOUS
10
154.805
20
-72.41
11
154.798
21
-72.4068
0
LINE
8
BLACK
6
CONTINUOUS
10
154.798
20
-72.4068
11
154.79
21
-72.4056
0
LINE
8
BLACK
6
CONTINUOUS
10
154.79
20
-72.4056
11
154.79
21
-72.4056
0
LINE
8
BLACK
6
CONTINUOUS
10
154.79
20
-72.4056
11
154.754
21
-72.3999
0
LINE
8
BLACK
6
CONTINUOUS
10
154.754
20
-72.3999
11
154.743
21
-72.3975
0
LINE
8
BLACK
6
CONTINUOUS
10
154.743
20
-72.3975
11
154.708
21
-72.3885
0
LINE
8
BLACK
6
CONTINUOUS
10
154.708
20
-72.3885
11
154.708
21
-72.3885
0
LINE
8
BLACK
6
CONTINUOUS
10
154.708
20
-72.3885
11
154.7
21
-72.3865
0
LINE
8
BLACK
6
CONTINUOUS
10
154.7
20
-72.3865
11
154.68
21
-72.3865
0
LINE
8
BLACK
6
CONTINUOUS
10
154.68
20
-72.3865
11
154.66
21
-72.3849
0
LINE
8
BLACK
6
CONTINUOUS
10
154.66
20
-72.3849
11
154.648
21
-72.383
0
LINE
8
BLACK
6
CONTINUOUS
10
154.648
20
-72.383
11
154.64
21
-72.3818
0
LINE
8
BLACK
6
CONTINUOUS
10
154.64
20
-72.3818
11
154.603
21
-72.3853
0
LINE
8
BLACK
6
CONTINUOUS
10
154.603
20
-72.3853
11
154.596
21
-72.3859
0
LINE
8
BLACK
6
CONTINUOUS
10
154.596
20
-72.3859
11
154.584
21
-72.3865
0
LINE
8
BLACK
6
CONTINUOUS
10
154.584
20
-72.3865
11
154.307
21
-72.3865
0
LINE
8
BLACK
6
CONTINUOUS
10
154.307
20
-72.3865
11
154.239
21
-72.3665
0
LINE
8
BLACK
6
CONTINUOUS
10
154.239
20
-72.3665
11
154.193
21
-72.3128
0
LINE
8
BLACK
6
CONTINUOUS
10
154.193
20
-72.3128
11
154.182
21
-72.2426
0
LINE
8
BLACK
6
CONTINUOUS
10
154.182
20
-72.2426
11
154.196
21
-72.2006
0
LINE
8
BLACK
6
CONTINUOUS
10
154.196
20
-72.2006
11
154.219
21
-72.1579
0
LINE
8
BLACK
6
CONTINUOUS
10
154.219
20
-72.1579
11
154.222
21
-72.1524
0
LINE
8
BLACK
6
CONTINUOUS
10
154.222
20
-72.1524
11
154.28
21
-71.9665
0
LINE
8
BLACK
6
CONTINUOUS
10
154.28
20
-71.9665
11
154.28
21
-71.9647
0
LINE
8
BLACK
6
CONTINUOUS
10
154.28
20
-71.9647
11
154.28
21
-71.9647
0
LINE
8
BLACK
6
CONTINUOUS
10
154.28
20
-71.9647
11
154.282
21
-71.9588
0
LINE
8
BLACK
6
CONTINUOUS
10
154.282
20
-71.9588
11
154.303
21
-71.7572
0
LINE
8
BLACK
6
CONTINUOUS
10
154.303
20
-71.7572
11
154.285
21
-71.5554
0
LINE
8
BLACK
6
CONTINUOUS
10
154.285
20
-71.5554
11
154.279
21
-71.5353
0
LINE
8
BLACK
6
CONTINUOUS
10
154.279
20
-71.5353
11
154.23
21
-71.3669
0
LINE
8
BLACK
6
CONTINUOUS
10
154.23
20
-71.3669
11
154.23
21
-71.3669
0
LINE
8
BLACK
6
CONTINUOUS
10
154.23
20
-71.3669
11
154.228
21
-71.361
0
LINE
8
BLACK
6
CONTINUOUS
10
154.228
20
-71.361
11
154.229
21
-71.3607
0
LINE
8
BLACK
6
CONTINUOUS
10
154.229
20
-71.3607
11
154.222
21
-71.2953
0
LINE
8
BLACK
6
CONTINUOUS
10
154.222
20
-71.2953
11
154.235
21
-71.2586
0
LINE
8
BLACK
6
CONTINUOUS
10
154.235
20
-71.2586
11
154.241
21
-71.2517
0
LINE
8
BLACK
6
CONTINUOUS
10
154.241
20
-71.2517
11
154.255
21
-71.2139
0
LINE
8
BLACK
6
CONTINUOUS
10
154.255
20
-71.2139
11
154.289
21
-71.1227
0
LINE
8
BLACK
6
CONTINUOUS
10
154.289
20
-71.1227
11
154.292
21
-71.1153
0
LINE
8
BLACK
6
CONTINUOUS
10
154.292
20
-71.1153
11
154.298
21
-71.0531
0
LINE
8
BLACK
6
CONTINUOUS
10
154.298
20
-71.0531
11
154.298
21
-69.9069
0
LINE
8
BLACK
6
CONTINUOUS
10
154.298
20
-69.9069
11
154.292
21
-69.8447
0
LINE
8
BLACK
6
CONTINUOUS
10
154.292
20
-69.8447
11
154.241
21
-69.7083
0
LINE
8
BLACK
6
CONTINUOUS
10
154.241
20
-69.7083
11
154.153
21
-69.5917
0
LINE
8
BLACK
6
CONTINUOUS
10
154.153
20
-69.5917
11
154.037
21
-69.5044
0
LINE
8
BLACK
6
CONTINUOUS
10
154.037
20
-69.5044
11
154.028
21
-69.5012
0
LINE
8
BLACK
6
CONTINUOUS
10
154.028
20
-69.5012
11
154.028
21
-69.5012
0
LINE
8
BLACK
6
CONTINUOUS
10
154.028
20
-69.5012
11
153.965
21
-69.4775
0
LINE
8
BLACK
6
CONTINUOUS
10
153.965
20
-69.4775
11
153.908
21
-69.4348
0
LINE
8
BLACK
6
CONTINUOUS
10
153.908
20
-69.4348
11
153.883
21
-69.3683
0
LINE
8
BLACK
6
CONTINUOUS
10
153.883
20
-69.3683
11
153.899
21
-69.2989
0
LINE
8
BLACK
6
CONTINUOUS
10
153.899
20
-69.2989
11
153.949
21
-69.2488
0
LINE
8
BLACK
6
CONTINUOUS
10
153.949
20
-69.2488
11
154.009
21
-69.2335
0
LINE
8
BLACK
6
CONTINUOUS
10
154.009
20
-69.2335
11
157.485
21
-69.2335
0
LINE
8
BLACK
6
CONTINUOUS
10
157.485
20
-69.2335
11
157.554
21
-69.2535
0
LINE
8
BLACK
6
CONTINUOUS
10
157.554
20
-69.2535
11
157.575
21
-69.2704
0
LINE
8
BLACK
6
CONTINUOUS
10
157.575
20
-69.2704
11
158.58
21
-70.2755
0
LINE
8
BLACK
6
CONTINUOUS
10
158.58
20
-70.2755
11
158.614
21
-70.3378
0
LINE
8
BLACK
6
CONTINUOUS
10
158.614
20
-70.3378
11
158.617
21
-70.3646
0
LINE
8
BLACK
6
CONTINUOUS
10
158.617
20
-70.3646
11
158.617
21
-72.3373
0
LINE
8
BLACK
6
CONTINUOUS
10
158.617
20
-72.3373
11
158.596
21
-72.4055
0
LINE
8
BLACK
6
CONTINUOUS
10
158.596
20
-72.4055
11
158.543
21
-72.4519
0
LINE
8
BLACK
6
CONTINUOUS
10
158.543
20
-72.4519
11
158.53
21
-72.4569
0
LINE
8
BLACK
6
CONTINUOUS
10
158.53
20
-72.4569
11
158.376
21
-72.5084
0
LINE
8
BLACK
6
CONTINUOUS
10
158.376
20
-72.5084
11
158.226
21
-72.6014
0
LINE
8
BLACK
6
CONTINUOUS
10
158.226
20
-72.6014
11
158.22
21
-72.6066
0
LINE
8
BLACK
6
CONTINUOUS
10
158.22
20
-72.6066
11
158.199
21
-72.6277
0
LINE
8
BLACK
6
CONTINUOUS
10
158.199
20
-72.6277
11
158.101
21
-72.7265
0
LINE
8
BLACK
6
CONTINUOUS
10
158.101
20
-72.7265
11
158.008
21
-72.877
0
LINE
8
BLACK
6
CONTINUOUS
10
158.008
20
-72.877
11
158.006
21
-72.884
0
LINE
8
BLACK
6
CONTINUOUS
10
158.006
20
-72.884
11
158.006
21
-72.884
0
LINE
8
BLACK
6
CONTINUOUS
10
158.006
20
-72.884
11
157.958
21
-73.0267
0
LINE
8
BLACK
6
CONTINUOUS
10
157.958
20
-73.0267
11
157.952
21
-73.0448
0
LINE
8
BLACK
6
CONTINUOUS
10
157.952
20
-73.0448
11
157.941
21
-73.1492
0
LINE
8
BLACK
6
CONTINUOUS
10
157.941
20
-73.1492
11
157.942
21
-74.3508
0
LINE
8
BLACK
6
CONTINUOUS
10
157.942
20
-74.3508
11
157.952
21
-74.4565
0
LINE
8
BLACK
6
CONTINUOUS
10
157.952
20
-74.4565
11
158.008
21
-74.6242
0
LINE
8
BLACK
6
CONTINUOUS
10
158.008
20
-74.6242
11
158.101
21
-74.7745
0
LINE
8
BLACK
6
CONTINUOUS
10
158.101
20
-74.7745
11
158.227
21
-74.8994
0
LINE
8
BLACK
6
CONTINUOUS
10
158.227
20
-74.8994
11
158.377
21
-74.9921
0
LINE
8
BLACK
6
CONTINUOUS
10
158.377
20
-74.9921
11
158.384
21
-74.9945
0
LINE
8
BLACK
6
CONTINUOUS
10
158.384
20
-74.9945
11
158.384
21
-74.9945
0
LINE
8
BLACK
6
CONTINUOUS
10
158.384
20
-74.9945
11
158.538
21
-75.0456
0
LINE
8
BLACK
6
CONTINUOUS
10
158.538
20
-75.0456
11
158.538
21
-75.0456
0
LINE
8
BLACK
6
CONTINUOUS
10
158.538
20
-75.0456
11
158.545
21
-75.0478
0
LINE
8
BLACK
6
CONTINUOUS
10
158.545
20
-75.0478
11
158.649
21
-75.0585
0
LINE
8
BLACK
6
CONTINUOUS
10
158.649
20
-75.0585
11
158.804
21
-75.0585
0
LINE
8
BLACK
6
CONTINUOUS
10
158.804
20
-75.0585
11
158.872
21
-75.0785
0
LINE
8
BLACK
6
CONTINUOUS
10
158.872
20
-75.0785
11
158.918
21
-75.1322
0
LINE
8
BLACK
6
CONTINUOUS
10
158.918
20
-75.1322
11
158.928
21
-75.2024
0
LINE
8
BLACK
6
CONTINUOUS
10
158.928
20
-75.2024
11
158.899
21
-75.267
0
LINE
8
BLACK
6
CONTINUOUS
10
158.899
20
-75.267
11
158.836
21
-75.3062
0
LINE
8
BLACK
6
CONTINUOUS
10
158.836
20
-75.3062
11
158.806
21
-75.3143
0
LINE
8
BLACK
6
CONTINUOUS
10
158.806
20
-75.3143
11
158.806
21
-75.3143
0
LINE
8
BLACK
6
CONTINUOUS
10
158.806
20
-75.3143
11
158.801
21
-75.3157
0
LINE
8
BLACK
6
CONTINUOUS
10
158.801
20
-75.3157
11
158.796
21
-75.318
0
LINE
8
BLACK
6
CONTINUOUS
10
158.796
20
-75.318
11
158.796
21
-75.318
0
LINE
8
BLACK
6
CONTINUOUS
10
158.796
20
-75.318
11
158.598
21
-75.4102
0
LINE
8
BLACK
6
CONTINUOUS
10
158.598
20
-75.4102
11
158.598
21
-75.4102
0
LINE
8
BLACK
6
CONTINUOUS
10
158.598
20
-75.4102
11
158.593
21
-75.4125
0
LINE
8
BLACK
6
CONTINUOUS
10
158.593
20
-75.4125
11
158.503
21
-75.4757
0
LINE
8
BLACK
6
CONTINUOUS
10
158.503
20
-75.4757
11
158.41
21
-75.5406
0
LINE
8
BLACK
6
CONTINUOUS
10
158.41
20
-75.5406
11
158.41
21
-75.5406
0
LINE
8
BLACK
6
CONTINUOUS
10
158.41
20
-75.5406
11
158.406
21
-75.5438
0
LINE
8
BLACK
6
CONTINUOUS
10
158.406
20
-75.5438
11
158.244
21
-75.7057
0
LINE
8
BLACK
6
CONTINUOUS
10
158.244
20
-75.7057
11
158.241
21
-75.7102
0
LINE
8
BLACK
6
CONTINUOUS
10
158.241
20
-75.7102
11
158.241
21
-75.7102
0
LINE
8
BLACK
6
CONTINUOUS
10
158.241
20
-75.7102
11
158.239
21
-75.7119
0
LINE
8
BLACK
6
CONTINUOUS
10
158.239
20
-75.7119
11
158.112
21
-75.8933
0
LINE
8
BLACK
6
CONTINUOUS
10
158.112
20
-75.8933
11
158.11
21
-75.8982
0
LINE
8
BLACK
6
CONTINUOUS
10
158.11
20
-75.8982
11
158.11
21
-75.8982
0
LINE
8
BLACK
6
CONTINUOUS
10
158.11
20
-75.8982
11
158.06
21
-76.0058
0
LINE
8
BLACK
6
CONTINUOUS
10
158.06
20
-76.0058
11
158.016
21
-76.1008
0
LINE
8
BLACK
6
CONTINUOUS
10
158.016
20
-76.1008
11
158.014
21
-76.1061
0
LINE
8
BLACK
6
CONTINUOUS
10
158.014
20
-76.1061
11
158.014
21
-76.1061
0
LINE
8
BLACK
6
CONTINUOUS
10
158.014
20
-76.1061
11
157.96
21
-76.3081
0
LINE
8
BLACK
6
CONTINUOUS
10
157.96
20
-76.3081
11
157.956
21
-76.3219
0
LINE
8
BLACK
6
CONTINUOUS
10
157.956
20
-76.3219
11
157.937
21
-76.55
0
LINE
8
BLACK
6
CONTINUOUS
10
157.937
20
-76.55
11
157.956
21
-76.7781
0
LINE
8
BLACK
6
CONTINUOUS
10
157.956
20
-76.7781
11
157.958
21
-76.7834
0
LINE
8
BLACK
6
CONTINUOUS
10
157.958
20
-76.7834
11
157.958
21
-76.7834
0
LINE
8
BLACK
6
CONTINUOUS
10
157.958
20
-76.7834
11
157.995
21
-76.922
0
LINE
8
BLACK
6
CONTINUOUS
10
157.995
20
-76.922
11
158.016
21
-76.9992
0
LINE
8
BLACK
6
CONTINUOUS
10
158.016
20
-76.9992
11
158.018
21
-77.0042
0
LINE
8
BLACK
6
CONTINUOUS
10
158.018
20
-77.0042
11
158.018
21
-77.0042
0
LINE
8
BLACK
6
CONTINUOUS
10
158.018
20
-77.0042
11
158.11
21
-77.2018
0
LINE
8
BLACK
6
CONTINUOUS
10
158.11
20
-77.2018
11
158.11
21
-77.2018
0
LINE
8
BLACK
6
CONTINUOUS
10
158.11
20
-77.2018
11
158.112
21
-77.2067
0
LINE
8
BLACK
6
CONTINUOUS
10
158.112
20
-77.2067
11
158.186
21
-77.3116
0
LINE
8
BLACK
6
CONTINUOUS
10
158.186
20
-77.3116
11
158.23
21
-77.3749
0
LINE
8
BLACK
6
CONTINUOUS
10
158.23
20
-77.3749
11
158.244
21
-77.3943
0
LINE
8
BLACK
6
CONTINUOUS
10
158.244
20
-77.3943
11
158.406
21
-77.5562
0
LINE
8
BLACK
6
CONTINUOUS
10
158.406
20
-77.5562
11
158.41
21
-77.5594
0
LINE
8
BLACK
6
CONTINUOUS
10
158.41
20
-77.5594
11
158.41
21
-77.5594
0
LINE
8
BLACK
6
CONTINUOUS
10
158.41
20
-77.5594
11
158.477
21
-77.6062
0
LINE
8
BLACK
6
CONTINUOUS
10
158.477
20
-77.6062
11
158.593
21
-77.6875
0
LINE
8
BLACK
6
CONTINUOUS
10
158.593
20
-77.6875
11
158.598
21
-77.6898
0
LINE
8
BLACK
6
CONTINUOUS
10
158.598
20
-77.6898
11
158.598
21
-77.6898
0
LINE
8
BLACK
6
CONTINUOUS
10
158.598
20
-77.6898
11
158.779
21
-77.7739
0
LINE
8
BLACK
6
CONTINUOUS
10
158.779
20
-77.7739
11
158.801
21
-77.7843
0
LINE
8
BLACK
6
CONTINUOUS
10
158.801
20
-77.7843
11
158.806
21
-77.7857
0
LINE
8
BLACK
6
CONTINUOUS
10
158.806
20
-77.7857
11
158.806
21
-77.7857
0
LINE
8
BLACK
6
CONTINUOUS
10
158.806
20
-77.7857
11
159.017
21
-77.8421
0
LINE
8
BLACK
6
CONTINUOUS
10
159.017
20
-77.8421
11
159.017
21
-77.8421
0
LINE
8
BLACK
6
CONTINUOUS
10
159.017
20
-77.8421
11
159.022
21
-77.8435
0
LINE
8
BLACK
6
CONTINUOUS
10
159.022
20
-77.8435
11
159.25
21
-77.8635
0
LINE
8
BLACK
6
CONTINUOUS
10
159.25
20
-77.8635
11
159.478
21
-77.8435
0
LINE
8
BLACK
6
CONTINUOUS
10
159.478
20
-77.8435
11
159.483
21
-77.8421
0
LINE
8
BLACK
6
CONTINUOUS
10
159.483
20
-77.8421
11
159.483
21
-77.8421
0
LINE
8
BLACK
6
CONTINUOUS
10
159.483
20
-77.8421
11
159.694
21
-77.7857
0
LINE
8
BLACK
6
CONTINUOUS
10
159.694
20
-77.7857
11
159.694
21
-77.7857
0
LINE
8
BLACK
6
CONTINUOUS
10
159.694
20
-77.7857
11
159.699
21
-77.7843
0
LINE
8
BLACK
6
CONTINUOUS
10
159.699
20
-77.7843
11
159.721
21
-77.7739
0
LINE
8
BLACK
6
CONTINUOUS
10
159.721
20
-77.7739
11
159.902
21
-77.6898
0
LINE
8
BLACK
6
CONTINUOUS
10
159.902
20
-77.6898
11
159.902
21
-77.6898
0
LINE
8
BLACK
6
CONTINUOUS
10
159.902
20
-77.6898
11
159.907
21
-77.6875
0
LINE
8
BLACK
6
CONTINUOUS
10
159.907
20
-77.6875
11
159.98
21
-77.6361
0
LINE
8
BLACK
6
CONTINUOUS
10
159.98
20
-77.6361
11
160.023
21
-77.6062
0
LINE
8
BLACK
6
CONTINUOUS
10
160.023
20
-77.6062
11
160.09
21
-77.5594
0
LINE
8
BLACK
6
CONTINUOUS
10
161.129
20
-77.6839
11
161.138
21
-77.6894
0
LINE
8
BLACK
6
CONTINUOUS
10
161.138
20
-77.6894
11
161.336
21
-77.7815
0
LINE
8
BLACK
6
CONTINUOUS
10
161.336
20
-77.7815
11
161.346
21
-77.7852
0
LINE
8
BLACK
6
CONTINUOUS
10
161.346
20
-77.7852
11
161.557
21
-77.8416
0
LINE
8
BLACK
6
CONTINUOUS
10
161.557
20
-77.8416
11
161.567
21
-77.8435
0
LINE
8
BLACK
6
CONTINUOUS
10
161.567
20
-77.8435
11
161.785
21
-77.8625
0
LINE
8
BLACK
6
CONTINUOUS
10
161.785
20
-77.8625
11
161.795
21
-77.8625
0
LINE
8
BLACK
6
CONTINUOUS
10
161.795
20
-77.8625
11
162.013
21
-77.8435
0
LINE
8
BLACK
6
CONTINUOUS
10
162.013
20
-77.8435
11
162.023
21
-77.8416
0
LINE
8
BLACK
6
CONTINUOUS
10
162.023
20
-77.8416
11
162.234
21
-77.7852
0
LINE
8
BLACK
6
CONTINUOUS
10
162.234
20
-77.7852
11
162.244
21
-77.7815
0
LINE
8
BLACK
6
CONTINUOUS
10
162.244
20
-77.7815
11
162.442
21
-77.6894
0
LINE
8
BLACK
6
CONTINUOUS
10
162.442
20
-77.6894
11
162.451
21
-77.6839
0
LINE
8
BLACK
6
CONTINUOUS
10
162.451
20
-77.6839
11
162.503
21
-77.6475
0
LINE
8
BLACK
6
CONTINUOUS
10
162.503
20
-77.6475
11
162.511
21
-77.637
0
LINE
8
BLACK
6
CONTINUOUS
10
162.511
20
-77.637
11
162.504
21
-77.6236
0
LINE
8
BLACK
6
CONTINUOUS
10
162.504
20
-77.6236
11
162.145
21
-77.264
0
LINE
8
BLACK
6
CONTINUOUS
10
162.145
20
-77.264
11
162.12
21
-77.2785
0
LINE
8
BLACK
6
CONTINUOUS
10
162.12
20
-77.2785
11
161.951
21
-77.3337
0
LINE
8
BLACK
6
CONTINUOUS
10
161.951
20
-77.3337
11
161.773
21
-77.3498
0
LINE
8
BLACK
6
CONTINUOUS
10
161.773
20
-77.3498
11
161.596
21
-77.3262
0
LINE
8
BLACK
6
CONTINUOUS
10
161.596
20
-77.3262
11
161.434
21
-77.2657
0
LINE
8
BLACK
6
CONTINUOUS
10
161.434
20
-77.2657
11
161.075
21
-77.6243
0
LINE
8
BLACK
6
CONTINUOUS
10
161.075
20
-77.6243
11
161.068
21
-77.6361
0
LINE
8
BLACK
6
CONTINUOUS
10
161.068
20
-77.6361
11
161.078
21
-77.6481
0
LINE
8
BLACK
6
CONTINUOUS
10
161.078
20
-77.6481
11
161.129
21
-77.6839
0
LINE
8
BLACK
6
CONTINUOUS
10
162.864
20
-75.8356
11
162.505
21
-76.1941
0
LINE
8
BLACK
6
CONTINUOUS
10
162.505
20
-76.1941
11
162.511
21
-76.2043
0
LINE
8
BLACK
6
CONTINUOUS
10
162.511
20
-76.2043
11
162.57
21
-76.3728
0
LINE
8
BLACK
6
CONTINUOUS
10
162.57
20
-76.3728
11
162.59
21
-76.55
0
LINE
8
BLACK
6
CONTINUOUS
10
162.59
20
-76.55
11
162.59
21
-76.5723
0
LINE
8
BLACK
6
CONTINUOUS
10
162.59
20
-76.5723
11
162.565
21
-76.749
0
LINE
8
BLACK
6
CONTINUOUS
10
162.565
20
-76.749
11
162.505
21
-76.906
0
LINE
8
BLACK
6
CONTINUOUS
10
162.505
20
-76.906
11
162.864
21
-77.2651
0
LINE
8
BLACK
6
CONTINUOUS
10
162.864
20
-77.2651
11
162.876
21
-77.2715
0
LINE
8
BLACK
6
CONTINUOUS
10
162.876
20
-77.2715
11
162.888
21
-77.2622
0
LINE
8
BLACK
6
CONTINUOUS
10
162.888
20
-77.2622
11
162.924
21
-77.211
0
LINE
8
BLACK
6
CONTINUOUS
10
162.924
20
-77.211
11
162.929
21
-77.2015
0
LINE
8
BLACK
6
CONTINUOUS
10
162.929
20
-77.2015
11
163.021
21
-77.0041
0
LINE
8
BLACK
6
CONTINUOUS
10
163.021
20
-77.0041
11
163.025
21
-76.9938
0
LINE
8
BLACK
6
CONTINUOUS
10
163.025
20
-76.9938
11
163.082
21
-76.7833
0
LINE
8
BLACK
6
CONTINUOUS
10
163.082
20
-76.7833
11
163.084
21
-76.7725
0
LINE
8
BLACK
6
CONTINUOUS
10
163.084
20
-76.7725
11
163.103
21
-76.5555
0
LINE
8
BLACK
6
CONTINUOUS
10
163.103
20
-76.5555
11
163.103
21
-76.5445
0
LINE
8
BLACK
6
CONTINUOUS
10
163.103
20
-76.5445
11
163.084
21
-76.3275
0
LINE
8
BLACK
6
CONTINUOUS
10
163.084
20
-76.3275
11
163.082
21
-76.3167
0
LINE
8
BLACK
6
CONTINUOUS
10
163.082
20
-76.3167
11
163.025
21
-76.1062
0
LINE
8
BLACK
6
CONTINUOUS
10
163.025
20
-76.1062
11
163.021
21
-76.0959
0
LINE
8
BLACK
6
CONTINUOUS
10
163.021
20
-76.0959
11
162.929
21
-75.8985
0
LINE
8
BLACK
6
CONTINUOUS
10
162.929
20
-75.8985
11
162.924
21
-75.889
0
LINE
8
BLACK
6
CONTINUOUS
10
162.924
20
-75.889
11
162.887
21
-75.837
0
LINE
8
BLACK
6
CONTINUOUS
10
162.887
20
-75.837
11
162.877
21
-75.8286
0
LINE
8
BLACK
6
CONTINUOUS
10
162.877
20
-75.8286
11
162.864
21
-75.8356
0
LINE
8
BLACK
6
CONTINUOUS
10
141.696
20
-78.569
11
141.777
21
-78.6232
0
LINE
8
BLACK
6
CONTINUOUS
10
141.777
20
-78.6232
11
141.831
21
-78.7043
0
LINE
8
BLACK
6
CONTINUOUS
10
141.831
20
-78.7043
11
141.85
21
-78.8
0
LINE
8
BLACK
6
CONTINUOUS
10
141.85
20
-78.8
11
141.85
21
-79.7
0
LINE
8
BLACK
6
CONTINUOUS
10
141.85
20
-79.7
11
141.831
21
-79.7957
0
LINE
8
BLACK
6
CONTINUOUS
10
141.831
20
-79.7957
11
141.777
21
-79.8768
0
LINE
8
BLACK
6
CONTINUOUS
10
141.777
20
-79.8768
11
141.696
21
-79.931
0
LINE
8
BLACK
6
CONTINUOUS
10
141.696
20
-79.931
11
141.6
21
-79.95
0
LINE
8
BLACK
6
CONTINUOUS
10
141.6
20
-79.95
11
140.9
21
-79.95
0
LINE
8
BLACK
6
CONTINUOUS
10
140.9
20
-79.95
11
140.804
21
-79.931
0
LINE
8
BLACK
6
CONTINUOUS
10
140.804
20
-79.931
11
140.723
21
-79.8768
0
LINE
8
BLACK
6
CONTINUOUS
10
140.723
20
-79.8768
11
140.669
21
-79.7957
0
LINE
8
BLACK
6
CONTINUOUS
10
140.669
20
-79.7957
11
140.65
21
-79.7
0
LINE
8
BLACK
6
CONTINUOUS
10
140.65
20
-79.7
11
140.65
21
-78.8
0
LINE
8
BLACK
6
CONTINUOUS
10
140.65
20
-78.8
11
140.669
21
-78.7043
0
LINE
8
BLACK
6
CONTINUOUS
10
140.669
20
-78.7043
11
140.723
21
-78.6232
0
LINE
8
BLACK
6
CONTINUOUS
10
140.723
20
-78.6232
11
140.804
21
-78.569
0
LINE
8
BLACK
6
CONTINUOUS
10
140.804
20
-78.569
11
140.9
21
-78.55
0
LINE
8
BLACK
6
CONTINUOUS
10
140.9
20
-78.55
11
141.6
21
-78.55
0
LINE
8
BLACK
6
CONTINUOUS
10
141.6
20
-78.55
11
141.696
21
-78.569
0
LINE
8
BLACK
6
CONTINUOUS
10
147.696
20
-78.569
11
147.777
21
-78.6232
0
LINE
8
BLACK
6
CONTINUOUS
10
147.777
20
-78.6232
11
147.831
21
-78.7043
0
LINE
8
BLACK
6
CONTINUOUS
10
147.831
20
-78.7043
11
147.85
21
-78.8
0
LINE
8
BLACK
6
CONTINUOUS
10
147.85
20
-78.8
11
147.85
21
-79.7
0
LINE
8
BLACK
6
CONTINUOUS
10
147.85
20
-79.7
11
147.831
21
-79.7957
0
LINE
8
BLACK
6
CONTINUOUS
10
147.831
20
-79.7957
11
147.777
21
-79.8768
0
LINE
8
BLACK
6
CONTINUOUS
10
147.777
20
-79.8768
11
147.696
21
-79.931
0
LINE
8
BLACK
6
CONTINUOUS
10
147.696
20
-79.931
11
147.6
21
-79.95
0
LINE
8
BLACK
6
CONTINUOUS
10
147.6
20
-79.95
11
146.9
21
-79.95
0
LINE
8
BLACK
6
CONTINUOUS
10
146.9
20
-79.95
11
146.804
21
-79.931
0
LINE
8
BLACK
6
CONTINUOUS
10
146.804
20
-79.931
11
146.723
21
-79.8768
0
LINE
8
BLACK
6
CONTINUOUS
10
146.723
20
-79.8768
11
146.669
21
-79.7957
0
LINE
8
BLACK
6
CONTINUOUS
10
146.669
20
-79.7957
11
146.65
21
-79.7
0
LINE
8
BLACK
6
CONTINUOUS
10
146.65
20
-79.7
11
146.65
21
-78.8
0
LINE
8
BLACK
6
CONTINUOUS
10
146.65
20
-78.8
11
146.669
21
-78.7043
0
LINE
8
BLACK
6
CONTINUOUS
10
146.669
20
-78.7043
11
146.723
21
-78.6232
0
LINE
8
BLACK
6
CONTINUOUS
10
146.723
20
-78.6232
11
146.804
21
-78.569
0
LINE
8
BLACK
6
CONTINUOUS
10
146.804
20
-78.569
11
146.9
21
-78.55
0
LINE
8
BLACK
6
CONTINUOUS
10
146.9
20
-78.55
11
147.6
21
-78.55
0
LINE
8
BLACK
6
CONTINUOUS
10
147.6
20
-78.55
11
147.696
21
-78.569
0
LINE
8
BLACK
6
CONTINUOUS
10
153.302
20
-77.0006
11
153.439
21
-77.0404
0
LINE
8
BLACK
6
CONTINUOUS
10
153.439
20
-77.0404
11
153.56
21
-77.1155
0
LINE
8
BLACK
6
CONTINUOUS
10
153.56
20
-77.1155
11
153.656
21
-77.2204
0
LINE
8
BLACK
6
CONTINUOUS
10
153.656
20
-77.2204
11
153.721
21
-77.3473
0
LINE
8
BLACK
6
CONTINUOUS
10
153.721
20
-77.3473
11
153.749
21
-77.487
0
LINE
8
BLACK
6
CONTINUOUS
10
153.749
20
-77.487
11
153.739
21
-77.6292
0
LINE
8
BLACK
6
CONTINUOUS
10
153.739
20
-77.6292
11
153.69
21
-77.7632
0
LINE
8
BLACK
6
CONTINUOUS
10
153.69
20
-77.7632
11
153.608
21
-77.8794
0
LINE
8
BLACK
6
CONTINUOUS
10
153.608
20
-77.8794
11
153.497
21
-77.9691
0
LINE
8
BLACK
6
CONTINUOUS
10
153.497
20
-77.9691
11
153.366
21
-78.0257
0
LINE
8
BLACK
6
CONTINUOUS
10
153.366
20
-78.0257
11
153.225
21
-78.045
0
LINE
8
BLACK
6
CONTINUOUS
10
153.225
20
-78.045
11
152.775
21
-78.045
0
LINE
8
BLACK
6
CONTINUOUS
10
152.775
20
-78.045
11
152.698
21
-78.0394
0
LINE
8
BLACK
6
CONTINUOUS
10
152.698
20
-78.0394
11
152.561
21
-77.9996
0
LINE
8
BLACK
6
CONTINUOUS
10
152.561
20
-77.9996
11
152.44
21
-77.9245
0
LINE
8
BLACK
6
CONTINUOUS
10
152.44
20
-77.9245
11
152.344
21
-77.8196
0
LINE
8
BLACK
6
CONTINUOUS
10
152.344
20
-77.8196
11
152.279
21
-77.6927
0
LINE
8
BLACK
6
CONTINUOUS
10
152.279
20
-77.6927
11
152.27
21
-77.645
0
LINE
8
BLACK
6
CONTINUOUS
10
152.27
20
-77.645
11
151.032
21
-77.645
0
LINE
8
BLACK
6
CONTINUOUS
10
151.032
20
-77.645
11
149.85
21
-78.8268
0
LINE
8
BLACK
6
CONTINUOUS
10
149.85
20
-78.8268
11
149.85
21
-79.7
0
LINE
8
BLACK
6
CONTINUOUS
10
149.85
20
-79.7
11
149.831
21
-79.7957
0
LINE
8
BLACK
6
CONTINUOUS
10
149.831
20
-79.7957
11
149.777
21
-79.8768
0
LINE
8
BLACK
6
CONTINUOUS
10
149.777
20
-79.8768
11
149.696
21
-79.931
0
LINE
8
BLACK
6
CONTINUOUS
10
149.696
20
-79.931
11
149.6
21
-79.95
0
LINE
8
BLACK
6
CONTINUOUS
10
149.6
20
-79.95
11
148.9
21
-79.95
0
LINE
8
BLACK
6
CONTINUOUS
10
148.9
20
-79.95
11
148.804
21
-79.931
0
LINE
8
BLACK
6
CONTINUOUS
10
148.804
20
-79.931
11
148.723
21
-79.8768
0
LINE
8
BLACK
6
CONTINUOUS
10
148.723
20
-79.8768
11
148.669
21
-79.7957
0
LINE
8
BLACK
6
CONTINUOUS
10
148.669
20
-79.7957
11
148.65
21
-79.7
0
LINE
8
BLACK
6
CONTINUOUS
10
148.65
20
-79.7
11
148.65
21
-78.8
0
LINE
8
BLACK
6
CONTINUOUS
10
148.65
20
-78.8
11
148.669
21
-78.7043
0
LINE
8
BLACK
6
CONTINUOUS
10
148.669
20
-78.7043
11
148.723
21
-78.6232
0
LINE
8
BLACK
6
CONTINUOUS
10
148.723
20
-78.6232
11
148.804
21
-78.569
0
LINE
8
BLACK
6
CONTINUOUS
10
148.804
20
-78.569
11
148.9
21
-78.55
0
LINE
8
BLACK
6
CONTINUOUS
10
148.9
20
-78.55
11
149.6
21
-78.55
0
LINE
8
BLACK
6
CONTINUOUS
10
149.6
20
-78.55
11
149.696
21
-78.569
0
LINE
8
BLACK
6
CONTINUOUS
10
149.696
20
-78.569
11
149.731
21
-78.5925
0
LINE
8
BLACK
6
CONTINUOUS
10
149.731
20
-78.5925
11
150.892
21
-77.4316
0
LINE
8
BLACK
6
CONTINUOUS
10
150.892
20
-77.4316
11
150.909
21
-77.4183
0
LINE
8
BLACK
6
CONTINUOUS
10
150.909
20
-77.4183
11
150.912
21
-77.4148
0
LINE
8
BLACK
6
CONTINUOUS
10
150.912
20
-77.4148
11
150.915
21
-77.414
0
LINE
8
BLACK
6
CONTINUOUS
10
150.915
20
-77.414
11
150.92
21
-77.4101
0
LINE
8
BLACK
6
CONTINUOUS
10
150.92
20
-77.4101
11
150.95
21
-77.4037
0
LINE
8
BLACK
6
CONTINUOUS
10
150.95
20
-77.4037
11
150.98
21
-77.395
0
LINE
8
BLACK
6
CONTINUOUS
10
150.98
20
-77.395
11
152.267
21
-77.395
0
LINE
8
BLACK
6
CONTINUOUS
10
152.267
20
-77.395
11
152.31
21
-77.2768
0
LINE
8
BLACK
6
CONTINUOUS
10
152.31
20
-77.2768
11
152.392
21
-77.1606
0
LINE
8
BLACK
6
CONTINUOUS
10
152.392
20
-77.1606
11
152.503
21
-77.0709
0
LINE
8
BLACK
6
CONTINUOUS
10
152.503
20
-77.0709
11
152.634
21
-77.0143
0
LINE
8
BLACK
6
CONTINUOUS
10
152.634
20
-77.0143
11
152.775
21
-76.995
0
LINE
8
BLACK
6
CONTINUOUS
10
152.775
20
-76.995
11
153.225
21
-76.995
0
LINE
8
BLACK
6
CONTINUOUS
10
153.225
20
-76.995
11
153.302
21
-77.0006
0
LINE
8
BLACK
6
CONTINUOUS
10
147.696
20
-71.569
11
147.777
21
-71.6232
0
LINE
8
BLACK
6
CONTINUOUS
10
147.777
20
-71.6232
11
147.831
21
-71.7043
0
LINE
8
BLACK
6
CONTINUOUS
10
147.831
20
-71.7043
11
147.85
21
-71.8
0
LINE
8
BLACK
6
CONTINUOUS
10
147.85
20
-71.8
11
147.85
21
-72.7
0
LINE
8
BLACK
6
CONTINUOUS
10
147.85
20
-72.7
11
147.831
21
-72.7957
0
LINE
8
BLACK
6
CONTINUOUS
10
147.831
20
-72.7957
11
147.798
21
-72.8457
0
LINE
8
BLACK
6
CONTINUOUS
10
147.798
20
-72.8457
11
148.327
21
-73.375
0
LINE
8
BLACK
6
CONTINUOUS
10
148.327
20
-73.375
11
150.925
21
-73.375
0
LINE
8
BLACK
6
CONTINUOUS
10
150.925
20
-73.375
11
150.947
21
-73.3782
0
LINE
8
BLACK
6
CONTINUOUS
10
150.947
20
-73.3782
11
150.952
21
-73.3779
0
LINE
8
BLACK
6
CONTINUOUS
10
150.952
20
-73.3779
11
150.954
21
-73.3792
0
LINE
8
BLACK
6
CONTINUOUS
10
150.954
20
-73.3792
11
150.961
21
-73.3801
0
LINE
8
BLACK
6
CONTINUOUS
10
150.961
20
-73.3801
11
150.986
21
-73.3968
0
LINE
8
BLACK
6
CONTINUOUS
10
150.986
20
-73.3968
11
151.013
21
-73.4116
0
LINE
8
BLACK
6
CONTINUOUS
10
151.013
20
-73.4116
11
153.088
21
-75.4866
0
LINE
8
BLACK
6
CONTINUOUS
10
153.088
20
-75.4866
11
153.102
21
-75.5044
0
LINE
8
BLACK
6
CONTINUOUS
10
153.102
20
-75.5044
11
153.105
21
-75.5075
0
LINE
8
BLACK
6
CONTINUOUS
10
153.105
20
-75.5075
11
153.106
21
-75.5102
0
LINE
8
BLACK
6
CONTINUOUS
10
153.106
20
-75.5102
11
153.11
21
-75.5154
0
LINE
8
BLACK
6
CONTINUOUS
10
153.11
20
-75.5154
11
153.116
21
-75.5455
0
LINE
8
BLACK
6
CONTINUOUS
10
153.116
20
-75.5455
11
153.125
21
-75.575
0
LINE
8
BLACK
6
CONTINUOUS
10
153.125
20
-75.575
11
153.125
21
-75.725
0
LINE
8
BLACK
6
CONTINUOUS
10
153.125
20
-75.725
11
153.75
21
-75.725
0
LINE
8
BLACK
6
CONTINUOUS
10
153.75
20
-75.725
11
153.75
21
-76.775
0
LINE
8
BLACK
6
CONTINUOUS
10
153.75
20
-76.775
11
152.25
21
-76.775
0
LINE
8
BLACK
6
CONTINUOUS
10
152.25
20
-76.775
11
152.25
21
-76.375
0
LINE
8
BLACK
6
CONTINUOUS
10
152.25
20
-76.375
11
150.052
21
-76.375
0
LINE
8
BLACK
6
CONTINUOUS
10
150.052
20
-76.375
11
149.85
21
-76.5768
0
LINE
8
BLACK
6
CONTINUOUS
10
149.85
20
-76.5768
11
149.85
21
-77.45
0
LINE
8
BLACK
6
CONTINUOUS
10
149.85
20
-77.45
11
149.831
21
-77.5457
0
LINE
8
BLACK
6
CONTINUOUS
10
149.831
20
-77.5457
11
149.777
21
-77.6268
0
LINE
8
BLACK
6
CONTINUOUS
10
149.777
20
-77.6268
11
149.696
21
-77.681
0
LINE
8
BLACK
6
CONTINUOUS
10
149.696
20
-77.681
11
149.6
21
-77.7
0
LINE
8
BLACK
6
CONTINUOUS
10
149.6
20
-77.7
11
148.9
21
-77.7
0
LINE
8
BLACK
6
CONTINUOUS
10
148.9
20
-77.7
11
148.804
21
-77.681
0
LINE
8
BLACK
6
CONTINUOUS
10
148.804
20
-77.681
11
148.723
21
-77.6268
0
LINE
8
BLACK
6
CONTINUOUS
10
148.723
20
-77.6268
11
148.669
21
-77.5457
0
LINE
8
BLACK
6
CONTINUOUS
10
148.669
20
-77.5457
11
148.65
21
-77.45
0
LINE
8
BLACK
6
CONTINUOUS
10
148.65
20
-77.45
11
148.65
21
-76.55
0
LINE
8
BLACK
6
CONTINUOUS
10
148.65
20
-76.55
11
148.669
21
-76.4543
0
LINE
8
BLACK
6
CONTINUOUS
10
148.669
20
-76.4543
11
148.723
21
-76.3732
0
LINE
8
BLACK
6
CONTINUOUS
10
148.723
20
-76.3732
11
148.804
21
-76.319
0
LINE
8
BLACK
6
CONTINUOUS
10
148.804
20
-76.319
11
148.9
21
-76.3
0
LINE
8
BLACK
6
CONTINUOUS
10
148.9
20
-76.3
11
149.6
21
-76.3
0
LINE
8
BLACK
6
CONTINUOUS
10
149.6
20
-76.3
11
149.696
21
-76.319
0
LINE
8
BLACK
6
CONTINUOUS
10
149.696
20
-76.319
11
149.731
21
-76.3425
0
LINE
8
BLACK
6
CONTINUOUS
10
149.731
20
-76.3425
11
149.912
21
-76.1616
0
LINE
8
BLACK
6
CONTINUOUS
10
149.912
20
-76.1616
11
149.929
21
-76.1483
0
LINE
8
BLACK
6
CONTINUOUS
10
149.929
20
-76.1483
11
149.932
21
-76.1448
0
LINE
8
BLACK
6
CONTINUOUS
10
149.932
20
-76.1448
11
149.935
21
-76.144
0
LINE
8
BLACK
6
CONTINUOUS
10
149.935
20
-76.144
11
149.94
21
-76.1401
0
LINE
8
BLACK
6
CONTINUOUS
10
149.94
20
-76.1401
11
149.97
21
-76.1337
0
LINE
8
BLACK
6
CONTINUOUS
10
149.97
20
-76.1337
11
150
21
-76.125
0
LINE
8
BLACK
6
CONTINUOUS
10
150
20
-76.125
11
152.25
21
-76.125
0
LINE
8
BLACK
6
CONTINUOUS
10
152.25
20
-76.125
11
152.25
21
-75.725
0
LINE
8
BLACK
6
CONTINUOUS
10
152.25
20
-75.725
11
152.875
21
-75.725
0
LINE
8
BLACK
6
CONTINUOUS
10
152.875
20
-75.725
11
152.875
21
-75.6268
0
LINE
8
BLACK
6
CONTINUOUS
10
152.875
20
-75.6268
11
150.873
21
-73.625
0
LINE
8
BLACK
6
CONTINUOUS
10
150.873
20
-73.625
11
148.275
21
-73.625
0
LINE
8
BLACK
6
CONTINUOUS
10
148.275
20
-73.625
11
148.253
21
-73.6218
0
LINE
8
BLACK
6
CONTINUOUS
10
148.253
20
-73.6218
11
148.248
21
-73.6221
0
LINE
8
BLACK
6
CONTINUOUS
10
148.248
20
-73.6221
11
148.246
21
-73.6208
0
LINE
8
BLACK
6
CONTINUOUS
10
148.246
20
-73.6208
11
148.239
21
-73.6199
0
LINE
8
BLACK
6
CONTINUOUS
10
148.239
20
-73.6199
11
148.214
21
-73.6032
0
LINE
8
BLACK
6
CONTINUOUS
10
148.214
20
-73.6032
11
148.187
21
-73.5884
0
LINE
8
BLACK
6
CONTINUOUS
10
148.187
20
-73.5884
11
147.548
21
-72.95
0
LINE
8
BLACK
6
CONTINUOUS
10
147.548
20
-72.95
11
146.9
21
-72.95
0
LINE
8
BLACK
6
CONTINUOUS
10
146.9
20
-72.95
11
146.804
21
-72.931
0
LINE
8
BLACK
6
CONTINUOUS
10
146.804
20
-72.931
11
146.723
21
-72.8768
0
LINE
8
BLACK
6
CONTINUOUS
10
146.723
20
-72.8768
11
146.669
21
-72.7957
0
LINE
8
BLACK
6
CONTINUOUS
10
146.669
20
-72.7957
11
146.65
21
-72.7
0
LINE
8
BLACK
6
CONTINUOUS
10
146.65
20
-72.7
11
146.65
21
-71.8
0
LINE
8
BLACK
6
CONTINUOUS
10
146.65
20
-71.8
11
146.669
21
-71.7043
0
LINE
8
BLACK
6
CONTINUOUS
10
146.669
20
-71.7043
11
146.723
21
-71.6232
0
LINE
8
BLACK
6
CONTINUOUS
10
146.723
20
-71.6232
11
146.804
21
-71.569
0
LINE
8
BLACK
6
CONTINUOUS
10
146.804
20
-71.569
11
146.9
21
-71.55
0
LINE
8
BLACK
6
CONTINUOUS
10
146.9
20
-71.55
11
147.6
21
-71.55
0
LINE
8
BLACK
6
CONTINUOUS
10
147.6
20
-71.55
11
147.696
21
-71.569
0
LINE
8
BLACK
6
CONTINUOUS
10
159.433
20
-75.7711
11
159.601
21
-75.831
0
LINE
8
BLACK
6
CONTINUOUS
10
159.601
20
-75.831
11
159.751
21
-75.9265
0
LINE
8
BLACK
6
CONTINUOUS
10
159.751
20
-75.9265
11
159.877
21
-76.0531
0
LINE
8
BLACK
6
CONTINUOUS
10
159.877
20
-76.0531
11
159.971
21
-76.2043
0
LINE
8
BLACK
6
CONTINUOUS
10
159.971
20
-76.2043
11
160.03
21
-76.3728
0
LINE
8
BLACK
6
CONTINUOUS
10
160.03
20
-76.3728
11
160.05
21
-76.55
0
LINE
8
BLACK
6
CONTINUOUS
10
160.05
20
-76.55
11
160.05
21
-76.5723
0
LINE
8
BLACK
6
CONTINUOUS
10
160.05
20
-76.5723
11
160.025
21
-76.749
0
LINE
8
BLACK
6
CONTINUOUS
10
160.025
20
-76.749
11
159.962
21
-76.9157
0
LINE
8
BLACK
6
CONTINUOUS
10
159.962
20
-76.9157
11
159.863
21
-77.0642
0
LINE
8
BLACK
6
CONTINUOUS
10
159.863
20
-77.0642
11
159.734
21
-77.1872
0
LINE
8
BLACK
6
CONTINUOUS
10
159.734
20
-77.1872
11
159.58
21
-77.2785
0
LINE
8
BLACK
6
CONTINUOUS
10
159.58
20
-77.2785
11
159.411
21
-77.3337
0
LINE
8
BLACK
6
CONTINUOUS
10
159.411
20
-77.3337
11
159.233
21
-77.3498
0
LINE
8
BLACK
6
CONTINUOUS
10
159.233
20
-77.3498
11
159.056
21
-77.3262
0
LINE
8
BLACK
6
CONTINUOUS
10
159.056
20
-77.3262
11
158.889
21
-77.2641
0
LINE
8
BLACK
6
CONTINUOUS
10
158.889
20
-77.2641
11
158.74
21
-77.1664
0
LINE
8
BLACK
6
CONTINUOUS
10
158.74
20
-77.1664
11
158.616
21
-77.0381
0
LINE
8
BLACK
6
CONTINUOUS
10
158.616
20
-77.0381
11
158.524
21
-76.8856
0
LINE
8
BLACK
6
CONTINUOUS
10
158.524
20
-76.8856
11
158.467
21
-76.7163
0
LINE
8
BLACK
6
CONTINUOUS
10
158.467
20
-76.7163
11
158.45
21
-76.5388
0
LINE
8
BLACK
6
CONTINUOUS
10
158.45
20
-76.5388
11
158.472
21
-76.3619
0
LINE
8
BLACK
6
CONTINUOUS
10
158.472
20
-76.3619
11
158.533
21
-76.1943
0
LINE
8
BLACK
6
CONTINUOUS
10
158.533
20
-76.1943
11
158.63
21
-76.0444
0
LINE
8
BLACK
6
CONTINUOUS
10
158.63
20
-76.0444
11
158.757
21
-75.9196
0
LINE
8
BLACK
6
CONTINUOUS
10
158.757
20
-75.9196
11
158.909
21
-75.8261
0
LINE
8
BLACK
6
CONTINUOUS
10
158.909
20
-75.8261
11
159.078
21
-75.7687
0
LINE
8
BLACK
6
CONTINUOUS
10
159.078
20
-75.7687
11
159.256
21
-75.75
0
LINE
8
BLACK
6
CONTINUOUS
10
159.256
20
-75.75
11
159.433
21
-75.7711
0
LINE
8
BLACK
6
CONTINUOUS
10
147.696
20
-74.069
11
147.777
21
-74.1232
0
LINE
8
BLACK
6
CONTINUOUS
10
147.777
20
-74.1232
11
147.831
21
-74.2043
0
LINE
8
BLACK
6
CONTINUOUS
10
147.831
20
-74.2043
11
147.85
21
-74.3
0
LINE
8
BLACK
6
CONTINUOUS
10
147.85
20
-74.3
11
147.85
21
-75.2
0
LINE
8
BLACK
6
CONTINUOUS
10
147.85
20
-75.2
11
147.831
21
-75.2957
0
LINE
8
BLACK
6
CONTINUOUS
10
147.831
20
-75.2957
11
147.777
21
-75.3768
0
LINE
8
BLACK
6
CONTINUOUS
10
147.777
20
-75.3768
11
147.696
21
-75.431
0
LINE
8
BLACK
6
CONTINUOUS
10
147.696
20
-75.431
11
147.6
21
-75.45
0
LINE
8
BLACK
6
CONTINUOUS
10
147.6
20
-75.45
11
146.9
21
-75.45
0
LINE
8
BLACK
6
CONTINUOUS
10
146.9
20
-75.45
11
146.804
21
-75.431
0
LINE
8
BLACK
6
CONTINUOUS
10
146.804
20
-75.431
11
146.723
21
-75.3768
0
LINE
8
BLACK
6
CONTINUOUS
10
146.723
20
-75.3768
11
146.669
21
-75.2957
0
LINE
8
BLACK
6
CONTINUOUS
10
146.669
20
-75.2957
11
146.65
21
-75.2
0
LINE
8
BLACK
6
CONTINUOUS
10
146.65
20
-75.2
11
146.65
21
-74.3
0
LINE
8
BLACK
6
CONTINUOUS
10
146.65
20
-74.3
11
146.669
21
-74.2043
0
LINE
8
BLACK
6
CONTINUOUS
10
146.669
20
-74.2043
11
146.723
21
-74.1232
0
LINE
8
BLACK
6
CONTINUOUS
10
146.723
20
-74.1232
11
146.804
21
-74.069
0
LINE
8
BLACK
6
CONTINUOUS
10
146.804
20
-74.069
11
146.9
21
-74.05
0
LINE
8
BLACK
6
CONTINUOUS
10
146.9
20
-74.05
11
147.6
21
-74.05
0
LINE
8
BLACK
6
CONTINUOUS
10
147.6
20
-74.05
11
147.696
21
-74.069
0
LINE
8
BLACK
6
CONTINUOUS
10
149.696
20
-74.069
11
149.777
21
-74.1232
0
LINE
8
BLACK
6
CONTINUOUS
10
149.777
20
-74.1232
11
149.831
21
-74.2043
0
LINE
8
BLACK
6
CONTINUOUS
10
149.831
20
-74.2043
11
149.85
21
-74.3
0
LINE
8
BLACK
6
CONTINUOUS
10
149.85
20
-74.3
11
149.85
21
-75.2
0
LINE
8
BLACK
6
CONTINUOUS
10
149.85
20
-75.2
11
149.831
21
-75.2957
0
LINE
8
BLACK
6
CONTINUOUS
10
149.831
20
-75.2957
11
149.777
21
-75.3768
0
LINE
8
BLACK
6
CONTINUOUS
10
149.777
20
-75.3768
11
149.696
21
-75.431
0
LINE
8
BLACK
6
CONTINUOUS
10
149.696
20
-75.431
11
149.6
21
-75.45
0
LINE
8
BLACK
6
CONTINUOUS
10
149.6
20
-75.45
11
148.9
21
-75.45
0
LINE
8
BLACK
6
CONTINUOUS
10
148.9
20
-75.45
11
148.804
21
-75.431
0
LINE
8
BLACK
6
CONTINUOUS
10
148.804
20
-75.431
11
148.723
21
-75.3768
0
LINE
8
BLACK
6
CONTINUOUS
10
148.723
20
-75.3768
11
148.669
21
-75.2957
0
LINE
8
BLACK
6
CONTINUOUS
10
148.669
20
-75.2957
11
148.65
21
-75.2
0
LINE
8
BLACK
6
CONTINUOUS
10
148.65
20
-75.2
11
148.65
21
-74.3
0
LINE
8
BLACK
6
CONTINUOUS
10
148.65
20
-74.3
11
148.669
21
-74.2043
0
LINE
8
BLACK
6
CONTINUOUS
10
148.669
20
-74.2043
11
148.723
21
-74.1232
0
LINE
8
BLACK
6
CONTINUOUS
10
148.723
20
-74.1232
11
148.804
21
-74.069
0
LINE
8
BLACK
6
CONTINUOUS
10
148.804
20
-74.069
11
148.9
21
-74.05
0
LINE
8
BLACK
6
CONTINUOUS
10
148.9
20
-74.05
11
149.6
21
-74.05
0
LINE
8
BLACK
6
CONTINUOUS
10
149.6
20
-74.05
11
149.696
21
-74.069
0
LINE
8
BLACK
6
CONTINUOUS
10
157.822
20
-68.4782
11
157.827
21
-68.4779
0
LINE
8
BLACK
6
CONTINUOUS
10
157.827
20
-68.4779
11
157.829
21
-68.4792
0
LINE
8
BLACK
6
CONTINUOUS
10
157.829
20
-68.4792
11
157.836
21
-68.4801
0
LINE
8
BLACK
6
CONTINUOUS
10
157.836
20
-68.4801
11
157.861
21
-68.4968
0
LINE
8
BLACK
6
CONTINUOUS
10
157.861
20
-68.4968
11
157.888
21
-68.5116
0
LINE
8
BLACK
6
CONTINUOUS
10
157.888
20
-68.5116
11
159.338
21
-69.9616
0
LINE
8
BLACK
6
CONTINUOUS
10
159.338
20
-69.9616
11
159.352
21
-69.9794
0
LINE
8
BLACK
6
CONTINUOUS
10
159.352
20
-69.9794
11
159.355
21
-69.9825
0
LINE
8
BLACK
6
CONTINUOUS
10
159.355
20
-69.9825
11
159.356
21
-69.9852
0
LINE
8
BLACK
6
CONTINUOUS
10
159.356
20
-69.9852
11
159.36
21
-69.9904
0
LINE
8
BLACK
6
CONTINUOUS
10
159.36
20
-69.9904
11
159.366
21
-70.0205
0
LINE
8
BLACK
6
CONTINUOUS
10
159.366
20
-70.0205
11
159.375
21
-70.05
0
LINE
8
BLACK
6
CONTINUOUS
10
159.375
20
-70.05
11
159.375
21
-72.95
0
LINE
8
BLACK
6
CONTINUOUS
10
159.375
20
-72.95
11
159.8
21
-72.95
0
LINE
8
BLACK
6
CONTINUOUS
10
159.8
20
-72.95
11
159.896
21
-72.969
0
LINE
8
BLACK
6
CONTINUOUS
10
159.896
20
-72.969
11
159.977
21
-73.0231
0
LINE
8
BLACK
6
CONTINUOUS
10
159.977
20
-73.0231
11
160.031
21
-73.1041
0
LINE
8
BLACK
6
CONTINUOUS
10
160.031
20
-73.1041
11
160.05
21
-73.1996
0
LINE
8
BLACK
6
CONTINUOUS
10
160.05
20
-73.1996
11
160.05
21
-74.3004
0
LINE
8
BLACK
6
CONTINUOUS
10
160.05
20
-74.3004
11
160.031
21
-74.3959
0
LINE
8
BLACK
6
CONTINUOUS
10
160.031
20
-74.3959
11
159.977
21
-74.4769
0
LINE
8
BLACK
6
CONTINUOUS
10
159.977
20
-74.4769
11
159.896
21
-74.531
0
LINE
8
BLACK
6
CONTINUOUS
10
159.896
20
-74.531
11
159.8
21
-74.55
0
LINE
8
BLACK
6
CONTINUOUS
10
159.8
20
-74.55
11
158.7
21
-74.55
0
LINE
8
BLACK
6
CONTINUOUS
10
158.7
20
-74.55
11
158.604
21
-74.531
0
LINE
8
BLACK
6
CONTINUOUS
10
158.604
20
-74.531
11
158.523
21
-74.4769
0
LINE
8
BLACK
6
CONTINUOUS
10
158.523
20
-74.4769
11
158.469
21
-74.3959
0
LINE
8
BLACK
6
CONTINUOUS
10
158.469
20
-74.3959
11
158.45
21
-74.3004
0
LINE
8
BLACK
6
CONTINUOUS
10
158.45
20
-74.3004
11
158.45
21
-73.1996
0
LINE
8
BLACK
6
CONTINUOUS
10
158.45
20
-73.1996
11
158.469
21
-73.1041
0
LINE
8
BLACK
6
CONTINUOUS
10
158.469
20
-73.1041
11
158.523
21
-73.0231
0
LINE
8
BLACK
6
CONTINUOUS
10
158.523
20
-73.0231
11
158.604
21
-72.969
0
LINE
8
BLACK
6
CONTINUOUS
10
158.604
20
-72.969
11
158.7
21
-72.95
0
LINE
8
BLACK
6
CONTINUOUS
10
158.7
20
-72.95
11
159.125
21
-72.95
0
LINE
8
BLACK
6
CONTINUOUS
10
159.125
20
-72.95
11
159.125
21
-70.1018
0
LINE
8
BLACK
6
CONTINUOUS
10
159.125
20
-70.1018
11
157.748
21
-68.725
0
LINE
8
BLACK
6
CONTINUOUS
10
157.748
20
-68.725
11
146.052
21
-68.725
0
LINE
8
BLACK
6
CONTINUOUS
10
146.052
20
-68.725
11
144.688
21
-70.0884
0
LINE
8
BLACK
6
CONTINUOUS
10
144.688
20
-70.0884
11
144.671
21
-70.1017
0
LINE
8
BLACK
6
CONTINUOUS
10
144.671
20
-70.1017
11
144.668
21
-70.1052
0
LINE
8
BLACK
6
CONTINUOUS
10
144.668
20
-70.1052
11
144.665
21
-70.106
0
LINE
8
BLACK
6
CONTINUOUS
10
144.665
20
-70.106
11
144.66
21
-70.1099
0
LINE
8
BLACK
6
CONTINUOUS
10
144.66
20
-70.1099
11
144.63
21
-70.1163
0
LINE
8
BLACK
6
CONTINUOUS
10
144.63
20
-70.1163
11
144.6
21
-70.125
0
LINE
8
BLACK
6
CONTINUOUS
10
144.6
20
-70.125
11
143.85
21
-70.125
0
LINE
8
BLACK
6
CONTINUOUS
10
143.85
20
-70.125
11
143.85
21
-70.45
0
LINE
8
BLACK
6
CONTINUOUS
10
143.85
20
-70.45
11
143.831
21
-70.5457
0
LINE
8
BLACK
6
CONTINUOUS
10
143.831
20
-70.5457
11
143.777
21
-70.6268
0
LINE
8
BLACK
6
CONTINUOUS
10
143.777
20
-70.6268
11
143.696
21
-70.681
0
LINE
8
BLACK
6
CONTINUOUS
10
143.696
20
-70.681
11
143.6
21
-70.7
0
LINE
8
BLACK
6
CONTINUOUS
10
143.6
20
-70.7
11
142.9
21
-70.7
0
LINE
8
BLACK
6
CONTINUOUS
10
142.9
20
-70.7
11
142.804
21
-70.681
0
LINE
8
BLACK
6
CONTINUOUS
10
142.804
20
-70.681
11
142.723
21
-70.6268
0
LINE
8
BLACK
6
CONTINUOUS
10
142.723
20
-70.6268
11
142.669
21
-70.5457
0
LINE
8
BLACK
6
CONTINUOUS
10
142.669
20
-70.5457
11
142.65
21
-70.45
0
LINE
8
BLACK
6
CONTINUOUS
10
142.65
20
-70.45
11
142.65
21
-69.55
0
LINE
8
BLACK
6
CONTINUOUS
10
142.65
20
-69.55
11
142.669
21
-69.4543
0
LINE
8
BLACK
6
CONTINUOUS
10
142.669
20
-69.4543
11
142.723
21
-69.3732
0
LINE
8
BLACK
6
CONTINUOUS
10
142.723
20
-69.3732
11
142.804
21
-69.319
0
LINE
8
BLACK
6
CONTINUOUS
10
142.804
20
-69.319
11
142.9
21
-69.3
0
LINE
8
BLACK
6
CONTINUOUS
10
142.9
20
-69.3
11
143.6
21
-69.3
0
LINE
8
BLACK
6
CONTINUOUS
10
143.6
20
-69.3
11
143.696
21
-69.319
0
LINE
8
BLACK
6
CONTINUOUS
10
143.696
20
-69.319
11
143.777
21
-69.3732
0
LINE
8
BLACK
6
CONTINUOUS
10
143.777
20
-69.3732
11
143.831
21
-69.4543
0
LINE
8
BLACK
6
CONTINUOUS
10
143.831
20
-69.4543
11
143.85
21
-69.55
0
LINE
8
BLACK
6
CONTINUOUS
10
143.85
20
-69.55
11
143.85
21
-69.875
0
LINE
8
BLACK
6
CONTINUOUS
10
143.85
20
-69.875
11
144.548
21
-69.875
0
LINE
8
BLACK
6
CONTINUOUS
10
144.548
20
-69.875
11
145.912
21
-68.5116
0
LINE
8
BLACK
6
CONTINUOUS
10
145.912
20
-68.5116
11
145.929
21
-68.4983
0
LINE
8
BLACK
6
CONTINUOUS
10
145.929
20
-68.4983
11
145.932
21
-68.4948
0
LINE
8
BLACK
6
CONTINUOUS
10
145.932
20
-68.4948
11
145.935
21
-68.494
0
LINE
8
BLACK
6
CONTINUOUS
10
145.935
20
-68.494
11
145.94
21
-68.4901
0
LINE
8
BLACK
6
CONTINUOUS
10
145.94
20
-68.4901
11
145.97
21
-68.4837
0
LINE
8
BLACK
6
CONTINUOUS
10
145.97
20
-68.4837
11
146
21
-68.475
0
LINE
8
BLACK
6
CONTINUOUS
10
146
20
-68.475
11
157.8
21
-68.475
0
LINE
8
BLACK
6
CONTINUOUS
10
157.8
20
-68.475
11
157.822
21
-68.4782
0
LINE
8
BLACK
6
CONTINUOUS
10
161.973
20
-72.9711
11
162.141
21
-73.031
0
LINE
8
BLACK
6
CONTINUOUS
10
162.141
20
-73.031
11
162.291
21
-73.1265
0
LINE
8
BLACK
6
CONTINUOUS
10
162.291
20
-73.1265
11
162.417
21
-73.2531
0
LINE
8
BLACK
6
CONTINUOUS
10
162.417
20
-73.2531
11
162.511
21
-73.4043
0
LINE
8
BLACK
6
CONTINUOUS
10
162.511
20
-73.4043
11
162.57
21
-73.5728
0
LINE
8
BLACK
6
CONTINUOUS
10
162.57
20
-73.5728
11
162.59
21
-73.75
0
LINE
8
BLACK
6
CONTINUOUS
10
162.59
20
-73.75
11
162.59
21
-73.7723
0
LINE
8
BLACK
6
CONTINUOUS
10
162.59
20
-73.7723
11
162.565
21
-73.949
0
LINE
8
BLACK
6
CONTINUOUS
10
162.565
20
-73.949
11
162.502
21
-74.1157
0
LINE
8
BLACK
6
CONTINUOUS
10
162.502
20
-74.1157
11
162.403
21
-74.2642
0
LINE
8
BLACK
6
CONTINUOUS
10
162.403
20
-74.2642
11
162.274
21
-74.3872
0
LINE
8
BLACK
6
CONTINUOUS
10
162.274
20
-74.3872
11
162.12
21
-74.4785
0
LINE
8
BLACK
6
CONTINUOUS
10
162.12
20
-74.4785
11
161.951
21
-74.5337
0
LINE
8
BLACK
6
CONTINUOUS
10
161.951
20
-74.5337
11
161.773
21
-74.5498
0
LINE
8
BLACK
6
CONTINUOUS
10
161.773
20
-74.5498
11
161.596
21
-74.5262
0
LINE
8
BLACK
6
CONTINUOUS
10
161.596
20
-74.5262
11
161.429
21
-74.4641
0
LINE
8
BLACK
6
CONTINUOUS
10
161.429
20
-74.4641
11
161.28
21
-74.3664
0
LINE
8
BLACK
6
CONTINUOUS
10
161.28
20
-74.3664
11
161.156
21
-74.2381
0
LINE
8
BLACK
6
CONTINUOUS
10
161.156
20
-74.2381
11
161.064
21
-74.0856
0
LINE
8
BLACK
6
CONTINUOUS
10
161.064
20
-74.0856
11
161.007
21
-73.9163
0
LINE
8
BLACK
6
CONTINUOUS
10
161.007
20
-73.9163
11
160.99
21
-73.7388
0
LINE
8
BLACK
6
CONTINUOUS
10
160.99
20
-73.7388
11
161.012
21
-73.5619
0
LINE
8
BLACK
6
CONTINUOUS
10
161.012
20
-73.5619
11
161.073
21
-73.3943
0
LINE
8
BLACK
6
CONTINUOUS
10
161.073
20
-73.3943
11
161.17
21
-73.2444
0
LINE
8
BLACK
6
CONTINUOUS
10
161.17
20
-73.2444
11
161.297
21
-73.1196
0
LINE
8
BLACK
6
CONTINUOUS
10
161.297
20
-73.1196
11
161.449
21
-73.0261
0
LINE
8
BLACK
6
CONTINUOUS
10
161.449
20
-73.0261
11
161.618
21
-72.9687
0
LINE
8
BLACK
6
CONTINUOUS
10
161.618
20
-72.9687
11
161.796
21
-72.95
0
LINE
8
BLACK
6
CONTINUOUS
10
161.796
20
-72.95
11
161.973
21
-72.9711
0
LINE
8
BLACK
6
CONTINUOUS
10
149.696
20
-71.569
11
149.777
21
-71.6232
0
LINE
8
BLACK
6
CONTINUOUS
10
149.777
20
-71.6232
11
149.831
21
-71.7043
0
LINE
8
BLACK
6
CONTINUOUS
10
149.831
20
-71.7043
11
149.85
21
-71.8
0
LINE
8
BLACK
6
CONTINUOUS
10
149.85
20
-71.8
11
149.85
21
-72.7
0
LINE
8
BLACK
6
CONTINUOUS
10
149.85
20
-72.7
11
149.831
21
-72.7957
0
LINE
8
BLACK
6
CONTINUOUS
10
149.831
20
-72.7957
11
149.777
21
-72.8768
0
LINE
8
BLACK
6
CONTINUOUS
10
149.777
20
-72.8768
11
149.696
21
-72.931
0
LINE
8
BLACK
6
CONTINUOUS
10
149.696
20
-72.931
11
149.6
21
-72.95
0
LINE
8
BLACK
6
CONTINUOUS
10
149.6
20
-72.95
11
148.9
21
-72.95
0
LINE
8
BLACK
6
CONTINUOUS
10
148.9
20
-72.95
11
148.804
21
-72.931
0
LINE
8
BLACK
6
CONTINUOUS
10
148.804
20
-72.931
11
148.723
21
-72.8768
0
LINE
8
BLACK
6
CONTINUOUS
10
148.723
20
-72.8768
11
148.669
21
-72.7957
0
LINE
8
BLACK
6
CONTINUOUS
10
148.669
20
-72.7957
11
148.65
21
-72.7
0
LINE
8
BLACK
6
CONTINUOUS
10
148.65
20
-72.7
11
148.65
21
-71.8
0
LINE
8
BLACK
6
CONTINUOUS
10
148.65
20
-71.8
11
148.669
21
-71.7043
0
LINE
8
BLACK
6
CONTINUOUS
10
148.669
20
-71.7043
11
148.723
21
-71.6232
0
LINE
8
BLACK
6
CONTINUOUS
10
148.723
20
-71.6232
11
148.804
21
-71.569
0
LINE
8
BLACK
6
CONTINUOUS
10
148.804
20
-71.569
11
148.9
21
-71.55
0
LINE
8
BLACK
6
CONTINUOUS
10
148.9
20
-71.55
11
149.6
21
-71.55
0
LINE
8
BLACK
6
CONTINUOUS
10
149.6
20
-71.55
11
149.696
21
-71.569
0
LINE
8
BLACK
6
CONTINUOUS
10
153.342
20
-71.2306
11
153.479
21
-71.2704
0
LINE
8
BLACK
6
CONTINUOUS
10
153.479
20
-71.2704
11
153.6
21
-71.3455
0
LINE
8
BLACK
6
CONTINUOUS
10
153.6
20
-71.3455
11
153.696
21
-71.4504
0
LINE
8
BLACK
6
CONTINUOUS
10
153.696
20
-71.4504
11
153.761
21
-71.5773
0
LINE
8
BLACK
6
CONTINUOUS
10
153.761
20
-71.5773
11
153.789
21
-71.717
0
LINE
8
BLACK
6
CONTINUOUS
10
153.789
20
-71.717
11
153.779
21
-71.8592
0
LINE
8
BLACK
6
CONTINUOUS
10
153.779
20
-71.8592
11
153.73
21
-71.9932
0
LINE
8
BLACK
6
CONTINUOUS
10
153.73
20
-71.9932
11
153.648
21
-72.1094
0
LINE
8
BLACK
6
CONTINUOUS
10
153.648
20
-72.1094
11
153.537
21
-72.1991
0
LINE
8
BLACK
6
CONTINUOUS
10
153.537
20
-72.1991
11
153.406
21
-72.2557
0
LINE
8
BLACK
6
CONTINUOUS
10
153.406
20
-72.2557
11
153.265
21
-72.275
0
LINE
8
BLACK
6
CONTINUOUS
10
153.265
20
-72.275
11
152.815
21
-72.275
0
LINE
8
BLACK
6
CONTINUOUS
10
152.815
20
-72.275
11
152.738
21
-72.2694
0
LINE
8
BLACK
6
CONTINUOUS
10
152.738
20
-72.2694
11
152.601
21
-72.2296
0
LINE
8
BLACK
6
CONTINUOUS
10
152.601
20
-72.2296
11
152.48
21
-72.1545
0
LINE
8
BLACK
6
CONTINUOUS
10
152.48
20
-72.1545
11
152.384
21
-72.0496
0
LINE
8
BLACK
6
CONTINUOUS
10
152.384
20
-72.0496
11
152.319
21
-71.9227
0
LINE
8
BLACK
6
CONTINUOUS
10
152.319
20
-71.9227
11
152.291
21
-71.783
0
LINE
8
BLACK
6
CONTINUOUS
10
152.291
20
-71.783
11
152.301
21
-71.6408
0
LINE
8
BLACK
6
CONTINUOUS
10
152.301
20
-71.6408
11
152.35
21
-71.5068
0
LINE
8
BLACK
6
CONTINUOUS
10
152.35
20
-71.5068
11
152.432
21
-71.3906
0
LINE
8
BLACK
6
CONTINUOUS
10
152.432
20
-71.3906
11
152.543
21
-71.3009
0
LINE
8
BLACK
6
CONTINUOUS
10
152.543
20
-71.3009
11
152.674
21
-71.2443
0
LINE
8
BLACK
6
CONTINUOUS
10
152.674
20
-71.2443
11
152.815
21
-71.225
0
LINE
8
BLACK
6
CONTINUOUS
10
152.815
20
-71.225
11
153.265
21
-71.225
0
LINE
8
BLACK
6
CONTINUOUS
10
153.265
20
-71.225
11
153.342
21
-71.2306
0
LINE
8
BLACK
6
CONTINUOUS
10
149.696
20
-69.319
11
149.777
21
-69.3732
0
LINE
8
BLACK
6
CONTINUOUS
10
149.777
20
-69.3732
11
149.831
21
-69.4543
0
LINE
8
BLACK
6
CONTINUOUS
10
149.831
20
-69.4543
11
149.85
21
-69.55
0
LINE
8
BLACK
6
CONTINUOUS
10
149.85
20
-69.55
11
149.85
21
-70.355
0
LINE
8
BLACK
6
CONTINUOUS
10
149.85
20
-70.355
11
152.29
21
-70.355
0
LINE
8
BLACK
6
CONTINUOUS
10
152.29
20
-70.355
11
152.29
21
-69.955
0
LINE
8
BLACK
6
CONTINUOUS
10
152.29
20
-69.955
11
153.79
21
-69.955
0
LINE
8
BLACK
6
CONTINUOUS
10
153.79
20
-69.955
11
153.79
21
-71.005
0
LINE
8
BLACK
6
CONTINUOUS
10
153.79
20
-71.005
11
152.29
21
-71.005
0
LINE
8
BLACK
6
CONTINUOUS
10
152.29
20
-71.005
11
152.29
21
-70.605
0
LINE
8
BLACK
6
CONTINUOUS
10
152.29
20
-70.605
11
149.791
21
-70.605
0
LINE
8
BLACK
6
CONTINUOUS
10
149.791
20
-70.605
11
149.777
21
-70.6268
0
LINE
8
BLACK
6
CONTINUOUS
10
149.777
20
-70.6268
11
149.696
21
-70.681
0
LINE
8
BLACK
6
CONTINUOUS
10
149.696
20
-70.681
11
149.6
21
-70.7
0
LINE
8
BLACK
6
CONTINUOUS
10
149.6
20
-70.7
11
148.9
21
-70.7
0
LINE
8
BLACK
6
CONTINUOUS
10
148.9
20
-70.7
11
148.804
21
-70.681
0
LINE
8
BLACK
6
CONTINUOUS
10
148.804
20
-70.681
11
148.723
21
-70.6268
0
LINE
8
BLACK
6
CONTINUOUS
10
148.723
20
-70.6268
11
148.669
21
-70.5457
0
LINE
8
BLACK
6
CONTINUOUS
10
148.669
20
-70.5457
11
148.65
21
-70.45
0
LINE
8
BLACK
6
CONTINUOUS
10
148.65
20
-70.45
11
148.65
21
-69.55
0
LINE
8
BLACK
6
CONTINUOUS
10
148.65
20
-69.55
11
148.669
21
-69.4543
0
LINE
8
BLACK
6
CONTINUOUS
10
148.669
20
-69.4543
11
148.723
21
-69.3732
0
LINE
8
BLACK
6
CONTINUOUS
10
148.723
20
-69.3732
11
148.804
21
-69.319
0
LINE
8
BLACK
6
CONTINUOUS
10
148.804
20
-69.319
11
148.9
21
-69.3
0
LINE
8
BLACK
6
CONTINUOUS
10
148.9
20
-69.3
11
149.6
21
-69.3
0
LINE
8
BLACK
6
CONTINUOUS
10
149.6
20
-69.3
11
149.696
21
-69.319
0
LINE
8
BLACK
6
CONTINUOUS
10
136.279
20
-68.5664
11
136.332
21
-68.5199
0
LINE
8
BLACK
6
CONTINUOUS
10
136.332
20
-68.5199
11
136.385
21
-68.5085
0
LINE
8
BLACK
6
CONTINUOUS
10
136.385
20
-68.5085
11
144.891
21
-68.5085
0
LINE
8
BLACK
6
CONTINUOUS
10
144.891
20
-68.5085
11
144.96
21
-68.5285
0
LINE
8
BLACK
6
CONTINUOUS
10
144.96
20
-68.5285
11
145.006
21
-68.5822
0
LINE
8
BLACK
6
CONTINUOUS
10
145.006
20
-68.5822
11
145.016
21
-68.6524
0
LINE
8
BLACK
6
CONTINUOUS
10
145.016
20
-68.6524
11
144.987
21
-68.717
0
LINE
8
BLACK
6
CONTINUOUS
10
144.987
20
-68.717
11
144.981
21
-68.7236
0
LINE
8
BLACK
6
CONTINUOUS
10
144.981
20
-68.7236
11
144.475
21
-69.2287
0
LINE
8
BLACK
6
CONTINUOUS
10
144.475
20
-69.2287
11
144.413
21
-69.2628
0
LINE
8
BLACK
6
CONTINUOUS
10
144.413
20
-69.2628
11
144.342
21
-69.2577
0
LINE
8
BLACK
6
CONTINUOUS
10
144.342
20
-69.2577
11
144.285
21
-69.2152
0
LINE
8
BLACK
6
CONTINUOUS
10
144.285
20
-69.2152
11
144.279
21
-69.206
0
LINE
8
BLACK
6
CONTINUOUS
10
144.279
20
-69.206
11
144.198
21
-69.0757
0
LINE
8
BLACK
6
CONTINUOUS
10
144.198
20
-69.0757
11
144.073
21
-68.9507
0
LINE
8
BLACK
6
CONTINUOUS
10
144.073
20
-68.9507
11
144.067
21
-68.9469
0
LINE
8
BLACK
6
CONTINUOUS
10
144.067
20
-68.9469
11
143.929
21
-68.8617
0
LINE
8
BLACK
6
CONTINUOUS
10
143.929
20
-68.8617
11
143.929
21
-68.8617
0
LINE
8
BLACK
6
CONTINUOUS
10
143.929
20
-68.8617
11
143.923
21
-68.8579
0
LINE
8
BLACK
6
CONTINUOUS
10
143.923
20
-68.8579
11
143.843
21
-68.8314
0
LINE
8
BLACK
6
CONTINUOUS
10
143.843
20
-68.8314
11
143.761
21
-68.8044
0
LINE
8
BLACK
6
CONTINUOUS
10
143.761
20
-68.8044
11
143.761
21
-68.8044
0
LINE
8
BLACK
6
CONTINUOUS
10
143.761
20
-68.8044
11
143.755
21
-68.8022
0
LINE
8
BLACK
6
CONTINUOUS
10
143.755
20
-68.8022
11
143.748
21
-68.8015
0
LINE
8
BLACK
6
CONTINUOUS
10
143.748
20
-68.8015
11
143.748
21
-68.8015
0
LINE
8
BLACK
6
CONTINUOUS
10
143.748
20
-68.8015
11
143.705
21
-68.7971
0
LINE
8
BLACK
6
CONTINUOUS
10
143.705
20
-68.7971
11
143.65
21
-68.7915
0
LINE
8
BLACK
6
CONTINUOUS
10
143.65
20
-68.7915
11
142.85
21
-68.7915
0
LINE
8
BLACK
6
CONTINUOUS
10
142.85
20
-68.7915
11
142.846
21
-68.7918
0
LINE
8
BLACK
6
CONTINUOUS
10
142.846
20
-68.7918
11
142.846
21
-68.7918
0
LINE
8
BLACK
6
CONTINUOUS
10
142.846
20
-68.7918
11
142.751
21
-68.8018
0
LINE
8
BLACK
6
CONTINUOUS
10
142.751
20
-68.8018
11
142.751
21
-68.8018
0
LINE
8
BLACK
6
CONTINUOUS
10
142.751
20
-68.8018
11
142.744
21
-68.8025
0
LINE
8
BLACK
6
CONTINUOUS
10
142.744
20
-68.8025
11
142.737
21
-68.8047
0
LINE
8
BLACK
6
CONTINUOUS
10
142.737
20
-68.8047
11
142.737
21
-68.8047
0
LINE
8
BLACK
6
CONTINUOUS
10
142.737
20
-68.8047
11
142.721
21
-68.8101
0
LINE
8
BLACK
6
CONTINUOUS
10
142.721
20
-68.8101
11
142.576
21
-68.8584
0
LINE
8
BLACK
6
CONTINUOUS
10
142.576
20
-68.8584
11
142.426
21
-68.9515
0
LINE
8
BLACK
6
CONTINUOUS
10
142.426
20
-68.9515
11
142.42
21
-68.9567
0
LINE
8
BLACK
6
CONTINUOUS
10
142.42
20
-68.9567
11
142.339
21
-69.0385
0
LINE
8
BLACK
6
CONTINUOUS
10
142.339
20
-69.0385
11
142.277
21
-69.0725
0
LINE
8
BLACK
6
CONTINUOUS
10
142.277
20
-69.0725
11
142.206
21
-69.0675
0
LINE
8
BLACK
6
CONTINUOUS
10
142.206
20
-69.0675
11
142.161
21
-69.0386
0
LINE
8
BLACK
6
CONTINUOUS
10
142.161
20
-69.0386
11
142.078
21
-68.9563
0
LINE
8
BLACK
6
CONTINUOUS
10
142.078
20
-68.9563
11
142.067
21
-68.9472
0
LINE
8
BLACK
6
CONTINUOUS
10
142.067
20
-68.9472
11
141.929
21
-68.8622
0
LINE
8
BLACK
6
CONTINUOUS
10
141.929
20
-68.8622
11
141.916
21
-68.856
0
LINE
8
BLACK
6
CONTINUOUS
10
141.916
20
-68.856
11
141.761
21
-68.8049
0
LINE
8
BLACK
6
CONTINUOUS
10
141.761
20
-68.8049
11
141.748
21
-68.802
0
LINE
8
BLACK
6
CONTINUOUS
10
141.748
20
-68.802
11
141.654
21
-68.7923
0
LINE
8
BLACK
6
CONTINUOUS
10
141.654
20
-68.7923
11
141.647
21
-68.792
0
LINE
8
BLACK
6
CONTINUOUS
10
141.647
20
-68.792
11
141.522
21
-68.792
0
LINE
8
BLACK
6
CONTINUOUS
10
141.522
20
-68.792
11
141.507
21
-68.7965
0
LINE
8
BLACK
6
CONTINUOUS
10
141.507
20
-68.7965
11
141.506
21
-68.7979
0
LINE
8
BLACK
6
CONTINUOUS
10
141.506
20
-68.7979
11
141.504
21
-68.8055
0
LINE
8
BLACK
6
CONTINUOUS
10
141.504
20
-68.8055
11
141.504
21
-69.3
0
LINE
8
BLACK
6
CONTINUOUS
10
141.504
20
-69.3
11
141.6
21
-69.3
0
LINE
8
BLACK
6
CONTINUOUS
10
141.6
20
-69.3
11
141.696
21
-69.319
0
LINE
8
BLACK
6
CONTINUOUS
10
141.696
20
-69.319
11
141.777
21
-69.3732
0
LINE
8
BLACK
6
CONTINUOUS
10
141.777
20
-69.3732
11
141.831
21
-69.4543
0
LINE
8
BLACK
6
CONTINUOUS
10
141.831
20
-69.4543
11
141.85
21
-69.55
0
LINE
8
BLACK
6
CONTINUOUS
10
141.85
20
-69.55
11
141.85
21
-70.4232
0
LINE
8
BLACK
6
CONTINUOUS
10
141.85
20
-70.4232
11
142.555
21
-71.1287
0
LINE
8
BLACK
6
CONTINUOUS
10
142.555
20
-71.1287
11
142.57
21
-71.1378
0
LINE
8
BLACK
6
CONTINUOUS
10
142.57
20
-71.1378
11
142.577
21
-71.1421
0
LINE
8
BLACK
6
CONTINUOUS
10
142.577
20
-71.1421
11
142.606
21
-71.1516
0
LINE
8
BLACK
6
CONTINUOUS
10
142.606
20
-71.1516
11
142.739
21
-71.1956
0
LINE
8
BLACK
6
CONTINUOUS
10
142.739
20
-71.1956
11
142.739
21
-71.1956
0
LINE
8
BLACK
6
CONTINUOUS
10
142.739
20
-71.1956
11
142.745
21
-71.1978
0
LINE
8
BLACK
6
CONTINUOUS
10
142.745
20
-71.1978
11
142.752
21
-71.1985
0
LINE
8
BLACK
6
CONTINUOUS
10
142.752
20
-71.1985
11
142.752
21
-71.1985
0
LINE
8
BLACK
6
CONTINUOUS
10
142.752
20
-71.1985
11
142.795
21
-71.2029
0
LINE
8
BLACK
6
CONTINUOUS
10
142.795
20
-71.2029
11
142.85
21
-71.2085
0
LINE
8
BLACK
6
CONTINUOUS
10
142.85
20
-71.2085
11
143.65
21
-71.2085
0
LINE
8
BLACK
6
CONTINUOUS
10
143.65
20
-71.2085
11
143.654
21
-71.2082
0
LINE
8
BLACK
6
CONTINUOUS
10
143.654
20
-71.2082
11
143.654
21
-71.2082
0
LINE
8
BLACK
6
CONTINUOUS
10
143.654
20
-71.2082
11
143.749
21
-71.1982
0
LINE
8
BLACK
6
CONTINUOUS
10
143.749
20
-71.1982
11
143.749
21
-71.1982
0
LINE
8
BLACK
6
CONTINUOUS
10
143.749
20
-71.1982
11
143.756
21
-71.1975
0
LINE
8
BLACK
6
CONTINUOUS
10
143.756
20
-71.1975
11
143.763
21
-71.1953
0
LINE
8
BLACK
6
CONTINUOUS
10
143.763
20
-71.1953
11
143.763
21
-71.1953
0
LINE
8
BLACK
6
CONTINUOUS
10
143.763
20
-71.1953
11
143.895
21
-71.1513
0
LINE
8
BLACK
6
CONTINUOUS
10
143.895
20
-71.1513
11
143.924
21
-71.1415
0
LINE
8
BLACK
6
CONTINUOUS
10
143.924
20
-71.1415
11
144.074
21
-71.0485
0
LINE
8
BLACK
6
CONTINUOUS
10
144.074
20
-71.0485
11
144.199
21
-70.9233
0
LINE
8
BLACK
6
CONTINUOUS
10
144.199
20
-70.9233
11
144.226
21
-70.8805
0
LINE
8
BLACK
6
CONTINUOUS
10
144.226
20
-70.8805
11
144.288
21
-70.779
0
LINE
8
BLACK
6
CONTINUOUS
10
144.288
20
-70.779
11
144.288
21
-70.779
0
LINE
8
BLACK
6
CONTINUOUS
10
144.288
20
-70.779
11
144.292
21
-70.7727
0
LINE
8
BLACK
6
CONTINUOUS
10
144.292
20
-70.7727
11
144.31
21
-70.7198
0
LINE
8
BLACK
6
CONTINUOUS
10
144.31
20
-70.7198
11
144.35
21
-70.6615
0
LINE
8
BLACK
6
CONTINUOUS
10
144.35
20
-70.6615
11
144.416
21
-70.6342
0
LINE
8
BLACK
6
CONTINUOUS
10
144.416
20
-70.6342
11
144.429
21
-70.6335
0
LINE
8
BLACK
6
CONTINUOUS
10
144.429
20
-70.6335
11
144.521
21
-70.6335
0
LINE
8
BLACK
6
CONTINUOUS
10
144.521
20
-70.6335
11
144.532
21
-70.634
0
LINE
8
BLACK
6
CONTINUOUS
10
144.532
20
-70.634
11
144.54
21
-70.6357
0
LINE
8
BLACK
6
CONTINUOUS
10
144.54
20
-70.6357
11
144.548
21
-70.6355
0
LINE
8
BLACK
6
CONTINUOUS
10
144.548
20
-70.6355
11
144.548
21
-70.6355
0
LINE
8
BLACK
6
CONTINUOUS
10
144.548
20
-70.6355
11
144.608
21
-70.6336
0
LINE
8
BLACK
6
CONTINUOUS
10
144.608
20
-70.6336
11
144.612
21
-70.6335
0
LINE
8
BLACK
6
CONTINUOUS
10
144.612
20
-70.6335
11
144.64
21
-70.6335
0
LINE
8
BLACK
6
CONTINUOUS
10
144.64
20
-70.6335
11
144.644
21
-70.633
0
LINE
8
BLACK
6
CONTINUOUS
10
144.644
20
-70.633
11
144.644
21
-70.633
0
LINE
8
BLACK
6
CONTINUOUS
10
144.644
20
-70.633
11
144.656
21
-70.6321
0
LINE
8
BLACK
6
CONTINUOUS
10
144.656
20
-70.6321
11
144.688
21
-70.631
0
LINE
8
BLACK
6
CONTINUOUS
10
144.688
20
-70.631
11
144.692
21
-70.6309
0
LINE
8
BLACK
6
CONTINUOUS
10
144.692
20
-70.6309
11
144.7
21
-70.6307
0
LINE
8
BLACK
6
CONTINUOUS
10
144.7
20
-70.6307
11
144.719
21
-70.625
0
LINE
8
BLACK
6
CONTINUOUS
10
144.719
20
-70.625
11
144.739
21
-70.621
0
LINE
8
BLACK
6
CONTINUOUS
10
144.739
20
-70.621
11
144.751
21
-70.6195
0
LINE
8
BLACK
6
CONTINUOUS
10
144.751
20
-70.6195
11
144.751
21
-70.6195
0
LINE
8
BLACK
6
CONTINUOUS
10
144.751
20
-70.6195
11
144.759
21
-70.6185
0
LINE
8
BLACK
6
CONTINUOUS
10
144.759
20
-70.6185
11
144.766
21
-70.6156
0
LINE
8
BLACK
6
CONTINUOUS
10
144.766
20
-70.6156
11
144.766
21
-70.6156
0
LINE
8
BLACK
6
CONTINUOUS
10
144.766
20
-70.6156
11
144.8
21
-70.6022
0
LINE
8
BLACK
6
CONTINUOUS
10
144.8
20
-70.6022
11
144.811
21
-70.5984
0
LINE
8
BLACK
6
CONTINUOUS
10
144.811
20
-70.5984
11
144.846
21
-70.5882
0
LINE
8
BLACK
6
CONTINUOUS
10
144.846
20
-70.5882
11
144.846
21
-70.5882
0
LINE
8
BLACK
6
CONTINUOUS
10
144.846
20
-70.5882
11
144.854
21
-70.586
0
LINE
8
BLACK
6
CONTINUOUS
10
144.854
20
-70.586
11
144.86
21
-70.582
0
LINE
8
BLACK
6
CONTINUOUS
10
144.86
20
-70.582
11
144.86
21
-70.582
0
LINE
8
BLACK
6
CONTINUOUS
10
144.86
20
-70.582
11
144.871
21
-70.5757
0
LINE
8
BLACK
6
CONTINUOUS
10
144.871
20
-70.5757
11
144.889
21
-70.567
0
LINE
8
BLACK
6
CONTINUOUS
10
144.889
20
-70.567
11
144.908
21
-70.5596
0
LINE
8
BLACK
6
CONTINUOUS
10
144.908
20
-70.5596
11
144.943
21
-70.5336
0
LINE
8
BLACK
6
CONTINUOUS
10
144.943
20
-70.5336
11
144.953
21
-70.527
0
LINE
8
BLACK
6
CONTINUOUS
10
144.953
20
-70.527
11
144.985
21
-70.5086
0
LINE
8
BLACK
6
CONTINUOUS
10
144.985
20
-70.5086
11
144.985
21
-70.5086
0
LINE
8
BLACK
6
CONTINUOUS
10
144.985
20
-70.5086
11
144.991
21
-70.5045
0
LINE
8
BLACK
6
CONTINUOUS
10
144.991
20
-70.5045
11
145.006
21
-70.4902
0
LINE
8
BLACK
6
CONTINUOUS
10
145.006
20
-70.4902
11
145.021
21
-70.4774
0
LINE
8
BLACK
6
CONTINUOUS
10
145.021
20
-70.4774
11
145.031
21
-70.4701
0
LINE
8
BLACK
6
CONTINUOUS
10
145.031
20
-70.4701
11
145.037
21
-70.4655
0
LINE
8
BLACK
6
CONTINUOUS
10
145.037
20
-70.4655
11
145.065
21
-70.4314
0
LINE
8
BLACK
6
CONTINUOUS
10
145.065
20
-70.4314
11
145.073
21
-70.4226
0
LINE
8
BLACK
6
CONTINUOUS
10
145.073
20
-70.4226
11
145.927
21
-69.569
0
LINE
8
BLACK
6
CONTINUOUS
10
145.927
20
-69.569
11
145.989
21
-69.535
0
LINE
8
BLACK
6
CONTINUOUS
10
145.989
20
-69.535
11
146.06
21
-69.54
0
LINE
8
BLACK
6
CONTINUOUS
10
146.06
20
-69.54
11
146.117
21
-69.5826
0
LINE
8
BLACK
6
CONTINUOUS
10
146.117
20
-69.5826
11
146.142
21
-69.6491
0
LINE
8
BLACK
6
CONTINUOUS
10
146.142
20
-69.6491
11
146.142
21
-69.6581
0
LINE
8
BLACK
6
CONTINUOUS
10
146.142
20
-69.6581
11
146.142
21
-69.7279
0
LINE
8
BLACK
6
CONTINUOUS
10
146.142
20
-69.7279
11
146.146
21
-69.7431
0
LINE
8
BLACK
6
CONTINUOUS
10
146.146
20
-69.7431
11
146.148
21
-69.7443
0
LINE
8
BLACK
6
CONTINUOUS
10
146.148
20
-69.7443
11
146.156
21
-69.746
0
LINE
8
BLACK
6
CONTINUOUS
10
146.156
20
-69.746
11
146.65
21
-69.746
0
LINE
8
BLACK
6
CONTINUOUS
10
146.65
20
-69.746
11
146.65
21
-69.55
0
LINE
8
BLACK
6
CONTINUOUS
10
146.65
20
-69.55
11
146.669
21
-69.4543
0
LINE
8
BLACK
6
CONTINUOUS
10
146.669
20
-69.4543
11
146.723
21
-69.3732
0
LINE
8
BLACK
6
CONTINUOUS
10
146.723
20
-69.3732
11
146.804
21
-69.319
0
LINE
8
BLACK
6
CONTINUOUS
10
146.804
20
-69.319
11
146.9
21
-69.3
0
LINE
8
BLACK
6
CONTINUOUS
10
146.9
20
-69.3
11
147.6
21
-69.3
0
LINE
8
BLACK
6
CONTINUOUS
10
147.6
20
-69.3
11
147.696
21
-69.319
0
LINE
8
BLACK
6
CONTINUOUS
10
147.696
20
-69.319
11
147.777
21
-69.3732
0
LINE
8
BLACK
6
CONTINUOUS
10
147.777
20
-69.3732
11
147.831
21
-69.4543
0
LINE
8
BLACK
6
CONTINUOUS
10
147.831
20
-69.4543
11
147.85
21
-69.55
0
LINE
8
BLACK
6
CONTINUOUS
10
147.85
20
-69.55
11
147.85
21
-70.45
0
LINE
8
BLACK
6
CONTINUOUS
10
147.85
20
-70.45
11
147.831
21
-70.5457
0
LINE
8
BLACK
6
CONTINUOUS
10
147.831
20
-70.5457
11
147.777
21
-70.6268
0
LINE
8
BLACK
6
CONTINUOUS
10
147.777
20
-70.6268
11
147.696
21
-70.681
0
LINE
8
BLACK
6
CONTINUOUS
10
147.696
20
-70.681
11
147.6
21
-70.7
0
LINE
8
BLACK
6
CONTINUOUS
10
147.6
20
-70.7
11
146.9
21
-70.7
0
LINE
8
BLACK
6
CONTINUOUS
10
146.9
20
-70.7
11
146.804
21
-70.681
0
LINE
8
BLACK
6
CONTINUOUS
10
146.804
20
-70.681
11
146.723
21
-70.6268
0
LINE
8
BLACK
6
CONTINUOUS
10
146.723
20
-70.6268
11
146.669
21
-70.5457
0
LINE
8
BLACK
6
CONTINUOUS
10
146.669
20
-70.5457
11
146.65
21
-70.45
0
LINE
8
BLACK
6
CONTINUOUS
10
146.65
20
-70.45
11
146.65
21
-70.3268
0
LINE
8
BLACK
6
CONTINUOUS
10
146.65
20
-70.3268
11
146.208
21
-70.7691
0
LINE
8
BLACK
6
CONTINUOUS
10
146.208
20
-70.7691
11
146.213
21
-70.78
0
LINE
8
BLACK
6
CONTINUOUS
10
146.213
20
-70.78
11
146.298
21
-70.9178
0
LINE
8
BLACK
6
CONTINUOUS
10
146.298
20
-70.9178
11
146.307
21
-70.9292
0
LINE
8
BLACK
6
CONTINUOUS
10
146.307
20
-70.9292
11
146.413
21
-71.0354
0
LINE
8
BLACK
6
CONTINUOUS
10
146.413
20
-71.0354
11
146.448
21
-71.0977
0
LINE
8
BLACK
6
CONTINUOUS
10
146.448
20
-71.0977
11
146.443
21
-71.1685
0
LINE
8
BLACK
6
CONTINUOUS
10
146.443
20
-71.1685
11
146.414
21
-71.2136
0
LINE
8
BLACK
6
CONTINUOUS
10
146.414
20
-71.2136
11
146.301
21
-71.3267
0
LINE
8
BLACK
6
CONTINUOUS
10
146.301
20
-71.3267
11
146.297
21
-71.3329
0
LINE
8
BLACK
6
CONTINUOUS
10
146.297
20
-71.3329
11
146.297
21
-71.3329
0
LINE
8
BLACK
6
CONTINUOUS
10
146.297
20
-71.3329
11
146.282
21
-71.3569
0
LINE
8
BLACK
6
CONTINUOUS
10
146.282
20
-71.3569
11
146.208
21
-71.4773
0
LINE
8
BLACK
6
CONTINUOUS
10
146.208
20
-71.4773
11
146.152
21
-71.6451
0
LINE
8
BLACK
6
CONTINUOUS
10
146.152
20
-71.6451
11
146.141
21
-71.7496
0
LINE
8
BLACK
6
CONTINUOUS
10
146.141
20
-71.7496
11
146.141
21
-72.7504
0
LINE
8
BLACK
6
CONTINUOUS
10
146.141
20
-72.7504
11
146.142
21
-72.7536
0
LINE
8
BLACK
6
CONTINUOUS
10
146.142
20
-72.7536
11
146.142
21
-72.7536
0
LINE
8
BLACK
6
CONTINUOUS
10
146.142
20
-72.7536
11
146.151
21
-72.8465
0
LINE
8
BLACK
6
CONTINUOUS
10
146.151
20
-72.8465
11
146.152
21
-72.8562
0
LINE
8
BLACK
6
CONTINUOUS
10
146.152
20
-72.8562
11
146.155
21
-72.8627
0
LINE
8
BLACK
6
CONTINUOUS
10
146.155
20
-72.8627
11
146.155
21
-72.8627
0
LINE
8
BLACK
6
CONTINUOUS
10
146.155
20
-72.8627
11
146.164
21
-72.89
0
LINE
8
BLACK
6
CONTINUOUS
10
146.164
20
-72.89
11
146.208
21
-73.0239
0
LINE
8
BLACK
6
CONTINUOUS
10
146.208
20
-73.0239
11
146.302
21
-73.1743
0
LINE
8
BLACK
6
CONTINUOUS
10
146.302
20
-73.1743
11
146.427
21
-73.2993
0
LINE
8
BLACK
6
CONTINUOUS
10
146.427
20
-73.2993
11
146.433
21
-73.3031
0
LINE
8
BLACK
6
CONTINUOUS
10
146.433
20
-73.3031
11
146.433
21
-73.3031
0
LINE
8
BLACK
6
CONTINUOUS
10
146.433
20
-73.3031
11
146.577
21
-73.3921
0
LINE
8
BLACK
6
CONTINUOUS
10
146.577
20
-73.3921
11
146.576
21
-73.3946
0
LINE
8
BLACK
6
CONTINUOUS
10
146.576
20
-73.3946
11
146.619
21
-73.4327
0
LINE
8
BLACK
6
CONTINUOUS
10
146.619
20
-73.4327
11
146.639
21
-73.501
0
LINE
8
BLACK
6
CONTINUOUS
10
146.639
20
-73.501
11
146.618
21
-73.5689
0
LINE
8
BLACK
6
CONTINUOUS
10
146.618
20
-73.5689
11
146.575
21
-73.6064
0
LINE
8
BLACK
6
CONTINUOUS
10
146.575
20
-73.6064
11
146.576
21
-73.6084
0
LINE
8
BLACK
6
CONTINUOUS
10
146.576
20
-73.6084
11
146.426
21
-73.7015
0
LINE
8
BLACK
6
CONTINUOUS
10
146.426
20
-73.7015
11
146.42
21
-73.7067
0
LINE
8
BLACK
6
CONTINUOUS
10
146.42
20
-73.7067
11
146.38
21
-73.7477
0
LINE
8
BLACK
6
CONTINUOUS
10
146.38
20
-73.7477
11
146.301
21
-73.8267
0
LINE
8
BLACK
6
CONTINUOUS
10
146.301
20
-73.8267
11
146.297
21
-73.8329
0
LINE
8
BLACK
6
CONTINUOUS
10
146.297
20
-73.8329
11
146.297
21
-73.8329
0
LINE
8
BLACK
6
CONTINUOUS
10
146.297
20
-73.8329
11
146.232
21
-73.9376
0
LINE
8
BLACK
6
CONTINUOUS
10
146.232
20
-73.9376
11
146.208
21
-73.9773
0
LINE
8
BLACK
6
CONTINUOUS
10
146.208
20
-73.9773
11
146.183
21
-74.0531
0
LINE
8
BLACK
6
CONTINUOUS
10
146.183
20
-74.0531
11
146.16
21
-74.1208
0
LINE
8
BLACK
6
CONTINUOUS
10
146.16
20
-74.1208
11
146.152
21
-74.1451
0
LINE
8
BLACK
6
CONTINUOUS
10
146.152
20
-74.1451
11
146.152
21
-74.152
0
LINE
8
BLACK
6
CONTINUOUS
10
146.152
20
-74.152
11
146.152
21
-74.152
0
LINE
8
BLACK
6
CONTINUOUS
10
146.152
20
-74.152
11
146.15
21
-74.1641
0
LINE
8
BLACK
6
CONTINUOUS
10
146.15
20
-74.1641
11
146.141
21
-74.2496
0
LINE
8
BLACK
6
CONTINUOUS
10
146.141
20
-74.2496
11
146.141
21
-75.2504
0
LINE
8
BLACK
6
CONTINUOUS
10
146.141
20
-75.2504
11
146.142
21
-75.2536
0
LINE
8
BLACK
6
CONTINUOUS
10
146.142
20
-75.2536
11
146.142
21
-75.2536
0
LINE
8
BLACK
6
CONTINUOUS
10
146.142
20
-75.2536
11
146.145
21
-75.2822
0
LINE
8
BLACK
6
CONTINUOUS
10
146.145
20
-75.2822
11
146.152
21
-75.3562
0
LINE
8
BLACK
6
CONTINUOUS
10
146.152
20
-75.3562
11
146.155
21
-75.3627
0
LINE
8
BLACK
6
CONTINUOUS
10
146.155
20
-75.3627
11
146.155
21
-75.3627
0
LINE
8
BLACK
6
CONTINUOUS
10
146.155
20
-75.3627
11
146.184
21
-75.4519
0
LINE
8
BLACK
6
CONTINUOUS
10
146.184
20
-75.4519
11
146.208
21
-75.5239
0
LINE
8
BLACK
6
CONTINUOUS
10
146.208
20
-75.5239
11
146.302
21
-75.6743
0
LINE
8
BLACK
6
CONTINUOUS
10
146.302
20
-75.6743
11
146.307
21
-75.6795
0
LINE
8
BLACK
6
CONTINUOUS
10
146.307
20
-75.6795
11
146.413
21
-75.7861
0
LINE
8
BLACK
6
CONTINUOUS
10
146.413
20
-75.7861
11
146.448
21
-75.8484
0
LINE
8
BLACK
6
CONTINUOUS
10
146.448
20
-75.8484
11
146.443
21
-75.9192
0
LINE
8
BLACK
6
CONTINUOUS
10
146.443
20
-75.9192
11
146.414
21
-75.9643
0
LINE
8
BLACK
6
CONTINUOUS
10
146.414
20
-75.9643
11
146.306
21
-76.0718
0
LINE
8
BLACK
6
CONTINUOUS
10
146.306
20
-76.0718
11
146.297
21
-76.0832
0
LINE
8
BLACK
6
CONTINUOUS
10
146.297
20
-76.0832
11
146.212
21
-76.2212
0
LINE
8
BLACK
6
CONTINUOUS
10
146.212
20
-76.2212
11
146.206
21
-76.2344
0
LINE
8
BLACK
6
CONTINUOUS
10
146.206
20
-76.2344
11
146.155
21
-76.3887
0
LINE
8
BLACK
6
CONTINUOUS
10
146.155
20
-76.3887
11
146.152
21
-76.4021
0
LINE
8
BLACK
6
CONTINUOUS
10
146.152
20
-76.4021
11
146.142
21
-76.4964
0
LINE
8
BLACK
6
CONTINUOUS
10
146.142
20
-76.4964
11
146.142
21
-76.5029
0
LINE
8
BLACK
6
CONTINUOUS
10
146.142
20
-76.5029
11
146.142
21
-76.5652
0
LINE
8
BLACK
6
CONTINUOUS
10
146.142
20
-76.5652
11
146.323
21
-76.746
0
LINE
8
BLACK
6
CONTINUOUS
10
146.323
20
-76.746
11
146.65
21
-76.746
0
LINE
8
BLACK
6
CONTINUOUS
10
146.65
20
-76.746
11
146.65
21
-76.55
0
LINE
8
BLACK
6
CONTINUOUS
10
146.65
20
-76.55
11
146.669
21
-76.4543
0
LINE
8
BLACK
6
CONTINUOUS
10
146.669
20
-76.4543
11
146.723
21
-76.3732
0
LINE
8
BLACK
6
CONTINUOUS
10
146.723
20
-76.3732
11
146.804
21
-76.319
0
LINE
8
BLACK
6
CONTINUOUS
10
146.804
20
-76.319
11
146.9
21
-76.3
0
LINE
8
BLACK
6
CONTINUOUS
10
146.9
20
-76.3
11
147.6
21
-76.3
0
LINE
8
BLACK
6
CONTINUOUS
10
147.6
20
-76.3
11
147.696
21
-76.319
0
LINE
8
BLACK
6
CONTINUOUS
10
147.696
20
-76.319
11
147.777
21
-76.3732
0
LINE
8
BLACK
6
CONTINUOUS
10
147.777
20
-76.3732
11
147.831
21
-76.4543
0
LINE
8
BLACK
6
CONTINUOUS
10
147.831
20
-76.4543
11
147.85
21
-76.55
0
LINE
8
BLACK
6
CONTINUOUS
10
147.85
20
-76.55
11
147.85
21
-77.45
0
LINE
8
BLACK
6
CONTINUOUS
10
147.85
20
-77.45
11
147.831
21
-77.5457
0
LINE
8
BLACK
6
CONTINUOUS
10
147.831
20
-77.5457
11
147.777
21
-77.6268
0
LINE
8
BLACK
6
CONTINUOUS
10
147.777
20
-77.6268
11
147.696
21
-77.681
0
LINE
8
BLACK
6
CONTINUOUS
10
147.696
20
-77.681
11
147.6
21
-77.7
0
LINE
8
BLACK
6
CONTINUOUS
10
147.6
20
-77.7
11
146.9
21
-77.7
0
LINE
8
BLACK
6
CONTINUOUS
10
146.9
20
-77.7
11
146.804
21
-77.681
0
LINE
8
BLACK
6
CONTINUOUS
10
146.804
20
-77.681
11
146.723
21
-77.6268
0
LINE
8
BLACK
6
CONTINUOUS
10
146.723
20
-77.6268
11
146.669
21
-77.5457
0
LINE
8
BLACK
6
CONTINUOUS
10
146.669
20
-77.5457
11
146.65
21
-77.45
0
LINE
8
BLACK
6
CONTINUOUS
10
146.65
20
-77.45
11
146.65
21
-77.254
0
LINE
8
BLACK
6
CONTINUOUS
10
146.65
20
-77.254
11
146.16
21
-77.254
0
LINE
8
BLACK
6
CONTINUOUS
10
146.16
20
-77.254
11
146.145
21
-77.2585
0
LINE
8
BLACK
6
CONTINUOUS
10
146.145
20
-77.2585
11
146.144
21
-77.2599
0
LINE
8
BLACK
6
CONTINUOUS
10
146.144
20
-77.2599
11
146.142
21
-77.2675
0
LINE
8
BLACK
6
CONTINUOUS
10
146.142
20
-77.2675
11
146.142
21
-77.4971
0
LINE
8
BLACK
6
CONTINUOUS
10
146.142
20
-77.4971
11
146.142
21
-77.5036
0
LINE
8
BLACK
6
CONTINUOUS
10
146.142
20
-77.5036
11
146.152
21
-77.5992
0
LINE
8
BLACK
6
CONTINUOUS
10
146.152
20
-77.5992
11
146.155
21
-77.6126
0
LINE
8
BLACK
6
CONTINUOUS
10
146.155
20
-77.6126
11
146.207
21
-77.7668
0
LINE
8
BLACK
6
CONTINUOUS
10
146.207
20
-77.7668
11
146.213
21
-77.78
0
LINE
8
BLACK
6
CONTINUOUS
10
146.213
20
-77.78
11
146.298
21
-77.9178
0
LINE
8
BLACK
6
CONTINUOUS
10
146.298
20
-77.9178
11
146.307
21
-77.9292
0
LINE
8
BLACK
6
CONTINUOUS
10
146.307
20
-77.9292
11
146.413
21
-78.0354
0
LINE
8
BLACK
6
CONTINUOUS
10
146.413
20
-78.0354
11
146.448
21
-78.0977
0
LINE
8
BLACK
6
CONTINUOUS
10
146.448
20
-78.0977
11
146.443
21
-78.1685
0
LINE
8
BLACK
6
CONTINUOUS
10
146.443
20
-78.1685
11
146.414
21
-78.2136
0
LINE
8
BLACK
6
CONTINUOUS
10
146.414
20
-78.2136
11
146.301
21
-78.3267
0
LINE
8
BLACK
6
CONTINUOUS
10
146.301
20
-78.3267
11
146.208
21
-78.4773
0
LINE
8
BLACK
6
CONTINUOUS
10
146.208
20
-78.4773
11
146.152
21
-78.6451
0
LINE
8
BLACK
6
CONTINUOUS
10
146.152
20
-78.6451
11
146.152
21
-78.652
0
LINE
8
BLACK
6
CONTINUOUS
10
146.152
20
-78.652
11
146.152
21
-78.652
0
LINE
8
BLACK
6
CONTINUOUS
10
146.152
20
-78.652
11
146.15
21
-78.6666
0
LINE
8
BLACK
6
CONTINUOUS
10
146.15
20
-78.6666
11
146.141
21
-78.7496
0
LINE
8
BLACK
6
CONTINUOUS
10
146.141
20
-78.7496
11
146.141
21
-79.7504
0
LINE
8
BLACK
6
CONTINUOUS
10
146.141
20
-79.7504
11
146.142
21
-79.7536
0
LINE
8
BLACK
6
CONTINUOUS
10
146.142
20
-79.7536
11
146.142
21
-79.7537
0
LINE
8
BLACK
6
CONTINUOUS
10
146.142
20
-79.7537
11
146.149
21
-79.8275
0
LINE
8
BLACK
6
CONTINUOUS
10
146.149
20
-79.8275
11
146.137
21
-79.8973
0
LINE
8
BLACK
6
CONTINUOUS
10
146.137
20
-79.8973
11
146.088
21
-79.9491
0
LINE
8
BLACK
6
CONTINUOUS
10
146.088
20
-79.9491
11
146.024
21
-79.9665
0
LINE
8
BLACK
6
CONTINUOUS
10
146.024
20
-79.9665
11
144.915
21
-79.9665
0
LINE
8
BLACK
6
CONTINUOUS
10
144.915
20
-79.9665
11
144.846
21
-79.9465
0
LINE
8
BLACK
6
CONTINUOUS
10
144.846
20
-79.9465
11
144.826
21
-79.9296
0
LINE
8
BLACK
6
CONTINUOUS
10
144.826
20
-79.9296
11
144.395
21
-79.4995
0
LINE
8
BLACK
6
CONTINUOUS
10
144.395
20
-79.4995
11
144.361
21
-79.4372
0
LINE
8
BLACK
6
CONTINUOUS
10
144.361
20
-79.4372
11
144.358
21
-79.4104
0
LINE
8
BLACK
6
CONTINUOUS
10
144.358
20
-79.4104
11
144.358
21
-78.7496
0
LINE
8
BLACK
6
CONTINUOUS
10
144.358
20
-78.7496
11
144.35
21
-78.6668
0
LINE
8
BLACK
6
CONTINUOUS
10
144.35
20
-78.6668
11
144.348
21
-78.6507
0
LINE
8
BLACK
6
CONTINUOUS
10
144.348
20
-78.6507
11
144.348
21
-78.6507
0
LINE
8
BLACK
6
CONTINUOUS
10
144.348
20
-78.6507
11
144.348
21
-78.6438
0
LINE
8
BLACK
6
CONTINUOUS
10
144.348
20
-78.6438
11
144.292
21
-78.4761
0
LINE
8
BLACK
6
CONTINUOUS
10
144.292
20
-78.4761
11
144.198
21
-78.3257
0
LINE
8
BLACK
6
CONTINUOUS
10
144.198
20
-78.3257
11
144.073
21
-78.2007
0
LINE
8
BLACK
6
CONTINUOUS
10
144.073
20
-78.2007
11
144.067
21
-78.1969
0
LINE
8
BLACK
6
CONTINUOUS
10
144.067
20
-78.1969
11
143.929
21
-78.1117
0
LINE
8
BLACK
6
CONTINUOUS
10
143.929
20
-78.1117
11
143.929
21
-78.1117
0
LINE
8
BLACK
6
CONTINUOUS
10
143.929
20
-78.1117
11
143.923
21
-78.1079
0
LINE
8
BLACK
6
CONTINUOUS
10
143.923
20
-78.1079
11
143.836
21
-78.079
0
LINE
8
BLACK
6
CONTINUOUS
10
143.836
20
-78.079
11
143.761
21
-78.0544
0
LINE
8
BLACK
6
CONTINUOUS
10
143.761
20
-78.0544
11
143.761
21
-78.0544
0
LINE
8
BLACK
6
CONTINUOUS
10
143.761
20
-78.0544
11
143.755
21
-78.0522
0
LINE
8
BLACK
6
CONTINUOUS
10
143.755
20
-78.0522
11
143.748
21
-78.0515
0
LINE
8
BLACK
6
CONTINUOUS
10
143.748
20
-78.0515
11
143.748
21
-78.0515
0
LINE
8
BLACK
6
CONTINUOUS
10
143.748
20
-78.0515
11
143.705
21
-78.0471
0
LINE
8
BLACK
6
CONTINUOUS
10
143.705
20
-78.0471
11
143.65
21
-78.0415
0
LINE
8
BLACK
6
CONTINUOUS
10
143.65
20
-78.0415
11
142.85
21
-78.0415
0
LINE
8
BLACK
6
CONTINUOUS
10
142.85
20
-78.0415
11
142.846
21
-78.0418
0
LINE
8
BLACK
6
CONTINUOUS
10
142.846
20
-78.0418
11
142.846
21
-78.0418
0
LINE
8
BLACK
6
CONTINUOUS
10
142.846
20
-78.0418
11
142.751
21
-78.0518
0
LINE
8
BLACK
6
CONTINUOUS
10
142.751
20
-78.0518
11
142.751
21
-78.0518
0
LINE
8
BLACK
6
CONTINUOUS
10
142.751
20
-78.0518
11
142.744
21
-78.0525
0
LINE
8
BLACK
6
CONTINUOUS
10
142.744
20
-78.0525
11
142.737
21
-78.0547
0
LINE
8
BLACK
6
CONTINUOUS
10
142.737
20
-78.0547
11
142.737
21
-78.0547
0
LINE
8
BLACK
6
CONTINUOUS
10
142.737
20
-78.0547
11
142.608
21
-78.0977
0
LINE
8
BLACK
6
CONTINUOUS
10
142.608
20
-78.0977
11
142.576
21
-78.1084
0
LINE
8
BLACK
6
CONTINUOUS
10
142.576
20
-78.1084
11
142.426
21
-78.2015
0
LINE
8
BLACK
6
CONTINUOUS
10
142.426
20
-78.2015
11
142.42
21
-78.2067
0
LINE
8
BLACK
6
CONTINUOUS
10
142.42
20
-78.2067
11
142.339
21
-78.2881
0
LINE
8
BLACK
6
CONTINUOUS
10
142.339
20
-78.2881
11
142.277
21
-78.3222
0
LINE
8
BLACK
6
CONTINUOUS
10
142.277
20
-78.3222
11
142.206
21
-78.3172
0
LINE
8
BLACK
6
CONTINUOUS
10
142.206
20
-78.3172
11
142.161
21
-78.2883
0
LINE
8
BLACK
6
CONTINUOUS
10
142.161
20
-78.2883
11
142.078
21
-78.2059
0
LINE
8
BLACK
6
CONTINUOUS
10
142.078
20
-78.2059
11
142.073
21
-78.2007
0
LINE
8
BLACK
6
CONTINUOUS
10
142.073
20
-78.2007
11
142.067
21
-78.1969
0
LINE
8
BLACK
6
CONTINUOUS
10
142.067
20
-78.1969
11
141.929
21
-78.1117
0
LINE
8
BLACK
6
CONTINUOUS
10
141.929
20
-78.1117
11
141.929
21
-78.1117
0
LINE
8
BLACK
6
CONTINUOUS
10
141.929
20
-78.1117
11
141.923
21
-78.1079
0
LINE
8
BLACK
6
CONTINUOUS
10
141.923
20
-78.1079
11
141.836
21
-78.079
0
LINE
8
BLACK
6
CONTINUOUS
10
141.836
20
-78.079
11
141.761
21
-78.0544
0
LINE
8
BLACK
6
CONTINUOUS
10
141.761
20
-78.0544
11
141.761
21
-78.0544
0
LINE
8
BLACK
6
CONTINUOUS
10
141.761
20
-78.0544
11
141.755
21
-78.0522
0
LINE
8
BLACK
6
CONTINUOUS
10
141.755
20
-78.0522
11
141.748
21
-78.0515
0
LINE
8
BLACK
6
CONTINUOUS
10
141.748
20
-78.0515
11
141.748
21
-78.0515
0
LINE
8
BLACK
6
CONTINUOUS
10
141.748
20
-78.0515
11
141.705
21
-78.0471
0
LINE
8
BLACK
6
CONTINUOUS
10
141.705
20
-78.0471
11
141.65
21
-78.0415
0
LINE
8
BLACK
6
CONTINUOUS
10
141.65
20
-78.0415
11
140.85
21
-78.0415
0
LINE
8
BLACK
6
CONTINUOUS
10
140.85
20
-78.0415
11
140.846
21
-78.0418
0
LINE
8
BLACK
6
CONTINUOUS
10
140.846
20
-78.0418
11
140.846
21
-78.0418
0
LINE
8
BLACK
6
CONTINUOUS
10
140.846
20
-78.0418
11
140.751
21
-78.0518
0
LINE
8
BLACK
6
CONTINUOUS
10
140.751
20
-78.0518
11
140.751
21
-78.0518
0
LINE
8
BLACK
6
CONTINUOUS
10
140.751
20
-78.0518
11
140.744
21
-78.0525
0
LINE
8
BLACK
6
CONTINUOUS
10
140.744
20
-78.0525
11
140.737
21
-78.0547
0
LINE
8
BLACK
6
CONTINUOUS
10
140.737
20
-78.0547
11
140.737
21
-78.0547
0
LINE
8
BLACK
6
CONTINUOUS
10
140.737
20
-78.0547
11
140.608
21
-78.0977
0
LINE
8
BLACK
6
CONTINUOUS
10
140.608
20
-78.0977
11
140.576
21
-78.1084
0
LINE
8
BLACK
6
CONTINUOUS
10
140.576
20
-78.1084
11
140.426
21
-78.2015
0
LINE
8
BLACK
6
CONTINUOUS
10
140.426
20
-78.2015
11
140.42
21
-78.2067
0
LINE
8
BLACK
6
CONTINUOUS
10
140.42
20
-78.2067
11
140.415
21
-78.2119
0
LINE
8
BLACK
6
CONTINUOUS
10
140.415
20
-78.2119
11
140.301
21
-78.3267
0
LINE
8
BLACK
6
CONTINUOUS
10
140.301
20
-78.3267
11
140.208
21
-78.4773
0
LINE
8
BLACK
6
CONTINUOUS
10
140.208
20
-78.4773
11
140.152
21
-78.6451
0
LINE
8
BLACK
6
CONTINUOUS
10
140.152
20
-78.6451
11
140.152
21
-78.652
0
LINE
8
BLACK
6
CONTINUOUS
10
140.152
20
-78.652
11
140.152
21
-78.652
0
LINE
8
BLACK
6
CONTINUOUS
10
140.152
20
-78.652
11
140.15
21
-78.6666
0
LINE
8
BLACK
6
CONTINUOUS
10
140.15
20
-78.6666
11
140.142
21
-78.7496
0
LINE
8
BLACK
6
CONTINUOUS
10
140.142
20
-78.7496
11
140.142
21
-79.7504
0
LINE
8
BLACK
6
CONTINUOUS
10
140.142
20
-79.7504
11
140.142
21
-79.7536
0
LINE
8
BLACK
6
CONTINUOUS
10
140.142
20
-79.7536
11
140.142
21
-79.7536
0
LINE
8
BLACK
6
CONTINUOUS
10
140.142
20
-79.7536
11
140.149
21
-79.8235
0
LINE
8
BLACK
6
CONTINUOUS
10
140.149
20
-79.8235
11
140.152
21
-79.8562
0
LINE
8
BLACK
6
CONTINUOUS
10
140.152
20
-79.8562
11
140.208
21
-80.0239
0
LINE
8
BLACK
6
CONTINUOUS
10
140.208
20
-80.0239
11
140.302
21
-80.1743
0
LINE
8
BLACK
6
CONTINUOUS
10
140.302
20
-80.1743
11
140.339
21
-80.2119
0
LINE
8
BLACK
6
CONTINUOUS
10
140.339
20
-80.2119
11
140.404
21
-80.2763
0
LINE
8
BLACK
6
CONTINUOUS
10
140.404
20
-80.2763
11
140.438
21
-80.3386
0
LINE
8
BLACK
6
CONTINUOUS
10
140.438
20
-80.3386
11
140.433
21
-80.4094
0
LINE
8
BLACK
6
CONTINUOUS
10
140.433
20
-80.4094
11
140.39
21
-80.4663
0
LINE
8
BLACK
6
CONTINUOUS
10
140.39
20
-80.4663
11
140.324
21
-80.4912
0
LINE
8
BLACK
6
CONTINUOUS
10
140.324
20
-80.4912
11
140.315
21
-80.4915
0
LINE
8
BLACK
6
CONTINUOUS
10
140.315
20
-80.4915
11
136.385
21
-80.4915
0
LINE
8
BLACK
6
CONTINUOUS
10
136.385
20
-80.4915
11
136.316
21
-80.4715
0
LINE
8
BLACK
6
CONTINUOUS
10
136.316
20
-80.4715
11
136.27
21
-80.4178
0
LINE
8
BLACK
6
CONTINUOUS
10
136.27
20
-80.4178
11
136.258
21
-80.3655
0
LINE
8
BLACK
6
CONTINUOUS
10
136.258
20
-80.3655
11
136.258
21
-68.6345
0
LINE
8
BLACK
6
CONTINUOUS
10
136.258
20
-68.6345
11
136.279
21
-68.5664
0
LINE
8
BLACK
6
CONTINUOUS
10
136.888
20
-77.2769
11
136.893
21
-77.3716
0
LINE
8
BLACK
6
CONTINUOUS
10
136.893
20
-77.3716
11
136.9
21
-77.4947
0
LINE
8
BLACK
6
CONTINUOUS
10
136.9
20
-77.4947
11
136.901
21
-77.4998
0
LINE
8
BLACK
6
CONTINUOUS
10
136.901
20
-77.4998
11
136.901
21
-77.4998
0
LINE
8
BLACK
6
CONTINUOUS
10
136.901
20
-77.4998
11
136.913
21
-77.5535
0
LINE
8
BLACK
6
CONTINUOUS
10
136.913
20
-77.5535
11
136.949
21
-77.7126
0
LINE
8
BLACK
6
CONTINUOUS
10
136.949
20
-77.7126
11
137.033
21
-77.9196
0
LINE
8
BLACK
6
CONTINUOUS
10
137.033
20
-77.9196
11
137.074
21
-77.9854
0
LINE
8
BLACK
6
CONTINUOUS
10
137.074
20
-77.9854
11
137.144
21
-78.1007
0
LINE
8
BLACK
6
CONTINUOUS
10
137.144
20
-78.1007
11
137.15
21
-78.1101
0
LINE
8
BLACK
6
CONTINUOUS
10
137.15
20
-78.1101
11
137.296
21
-78.2789
0
LINE
8
BLACK
6
CONTINUOUS
10
137.296
20
-78.2789
11
137.468
21
-78.4216
0
LINE
8
BLACK
6
CONTINUOUS
10
137.468
20
-78.4216
11
137.661
21
-78.5343
0
LINE
8
BLACK
6
CONTINUOUS
10
137.661
20
-78.5343
11
137.87
21
-78.614
0
LINE
8
BLACK
6
CONTINUOUS
10
137.87
20
-78.614
11
137.875
21
-78.6151
0
LINE
8
BLACK
6
CONTINUOUS
10
137.875
20
-78.6151
11
137.875
21
-78.6151
0
LINE
8
BLACK
6
CONTINUOUS
10
137.875
20
-78.6151
11
137.982
21
-78.6369
0
LINE
8
BLACK
6
CONTINUOUS
10
137.982
20
-78.6369
11
138.089
21
-78.6586
0
LINE
8
BLACK
6
CONTINUOUS
10
138.089
20
-78.6586
11
138.094
21
-78.6588
0
LINE
8
BLACK
6
CONTINUOUS
10
138.094
20
-78.6588
11
138.094
21
-78.6588
0
LINE
8
BLACK
6
CONTINUOUS
10
138.094
20
-78.6588
11
138.307
21
-78.6666
0
LINE
8
BLACK
6
CONTINUOUS
10
138.307
20
-78.6666
11
138.307
21
-78.6666
0
LINE
8
BLACK
6
CONTINUOUS
10
138.307
20
-78.6666
11
138.312
21
-78.6668
0
LINE
8
BLACK
6
CONTINUOUS
10
138.312
20
-78.6668
11
138.317
21
-78.6661
0
LINE
8
BLACK
6
CONTINUOUS
10
138.317
20
-78.6661
11
138.317
21
-78.6661
0
LINE
8
BLACK
6
CONTINUOUS
10
138.317
20
-78.6661
11
138.528
21
-78.639
0
LINE
8
BLACK
6
CONTINUOUS
10
138.528
20
-78.639
11
138.528
21
-78.639
0
LINE
8
BLACK
6
CONTINUOUS
10
138.528
20
-78.639
11
138.533
21
-78.6384
0
LINE
8
BLACK
6
CONTINUOUS
10
138.533
20
-78.6384
11
138.538
21
-78.6369
0
LINE
8
BLACK
6
CONTINUOUS
10
138.538
20
-78.6369
11
138.742
21
-78.5757
0
LINE
8
BLACK
6
CONTINUOUS
10
138.742
20
-78.5757
11
138.742
21
-78.5757
0
LINE
8
BLACK
6
CONTINUOUS
10
138.742
20
-78.5757
11
138.747
21
-78.5742
0
LINE
8
BLACK
6
CONTINUOUS
10
138.747
20
-78.5742
11
138.948
21
-78.4759
0
LINE
8
BLACK
6
CONTINUOUS
10
138.948
20
-78.4759
11
139.13
21
-78.3462
0
LINE
8
BLACK
6
CONTINUOUS
10
139.13
20
-78.3462
11
139.143
21
-78.3329
0
LINE
8
BLACK
6
CONTINUOUS
10
139.143
20
-78.3329
11
139.211
21
-78.2651
0
LINE
8
BLACK
6
CONTINUOUS
10
139.211
20
-78.2651
11
139.288
21
-78.1885
0
LINE
8
BLACK
6
CONTINUOUS
10
139.288
20
-78.1885
11
139.334
21
-78.125
0
LINE
8
BLACK
6
CONTINUOUS
10
139.334
20
-78.125
11
139.415
21
-78.0113
0
LINE
8
BLACK
6
CONTINUOUS
10
139.415
20
-78.0113
11
139.418
21
-78.0071
0
LINE
8
BLACK
6
CONTINUOUS
10
139.418
20
-78.0071
11
139.429
21
-77.9854
0
LINE
8
BLACK
6
CONTINUOUS
10
139.429
20
-77.9854
11
139.515
21
-77.8115
0
LINE
8
BLACK
6
CONTINUOUS
10
139.515
20
-77.8115
11
139.515
21
-77.8115
0
LINE
8
BLACK
6
CONTINUOUS
10
139.515
20
-77.8115
11
139.517
21
-77.8068
0
LINE
8
BLACK
6
CONTINUOUS
10
139.517
20
-77.8068
11
139.578
21
-77.6062
0
LINE
8
BLACK
6
CONTINUOUS
10
139.578
20
-77.6062
11
139.581
21
-77.598
0
LINE
8
BLACK
6
CONTINUOUS
10
139.581
20
-77.598
11
139.581
21
-77.598
0
LINE
8
BLACK
6
CONTINUOUS
10
139.581
20
-77.598
11
139.582
21
-77.5931
0
LINE
8
BLACK
6
CONTINUOUS
10
139.582
20
-77.5931
11
139.612
21
-77.3716
0
LINE
8
BLACK
6
CONTINUOUS
10
139.612
20
-77.3716
11
139.612
21
-77.3682
0
LINE
8
BLACK
6
CONTINUOUS
10
139.612
20
-77.3682
11
139.613
21
-77.3084
0
LINE
8
BLACK
6
CONTINUOUS
10
139.613
20
-77.3084
11
139.613
21
-77.3084
0
LINE
8
BLACK
6
CONTINUOUS
10
139.613
20
-77.3084
11
139.613
21
-77.305
0
LINE
8
BLACK
6
CONTINUOUS
10
139.613
20
-77.305
11
139.595
21
-77.0824
0
LINE
8
BLACK
6
CONTINUOUS
10
139.595
20
-77.0824
11
139.54
21
-76.8657
0
LINE
8
BLACK
6
CONTINUOUS
10
139.54
20
-76.8657
11
139.451
21
-76.6608
0
LINE
8
BLACK
6
CONTINUOUS
10
139.451
20
-76.6608
11
139.378
21
-76.547
0
LINE
8
BLACK
6
CONTINUOUS
10
139.378
20
-76.547
11
139.333
21
-76.4776
0
LINE
8
BLACK
6
CONTINUOUS
10
139.333
20
-76.4776
11
139.333
21
-76.4776
0
LINE
8
BLACK
6
CONTINUOUS
10
139.333
20
-76.4776
11
139.33
21
-76.4733
0
LINE
8
BLACK
6
CONTINUOUS
10
139.33
20
-76.4733
11
139.18
21
-76.3081
0
LINE
8
BLACK
6
CONTINUOUS
10
139.18
20
-76.3081
11
139.176
21
-76.3049
0
LINE
8
BLACK
6
CONTINUOUS
10
139.176
20
-76.3049
11
139.176
21
-76.3048
0
LINE
8
BLACK
6
CONTINUOUS
10
139.176
20
-76.3048
11
139.008
21
-76.1728
0
LINE
8
BLACK
6
CONTINUOUS
10
139.008
20
-76.1728
11
139.008
21
-76.1728
0
LINE
8
BLACK
6
CONTINUOUS
10
139.008
20
-76.1728
11
139.004
21
-76.1696
0
LINE
8
BLACK
6
CONTINUOUS
10
139.004
20
-76.1696
11
138.963
21
-76.1468
0
LINE
8
BLACK
6
CONTINUOUS
10
138.963
20
-76.1468
11
138.913
21
-76.0964
0
LINE
8
BLACK
6
CONTINUOUS
10
138.913
20
-76.0964
11
138.898
21
-76.0269
0
LINE
8
BLACK
6
CONTINUOUS
10
138.898
20
-76.0269
11
138.923
21
-75.9605
0
LINE
8
BLACK
6
CONTINUOUS
10
138.923
20
-75.9605
11
138.951
21
-75.9339
0
LINE
8
BLACK
6
CONTINUOUS
10
138.951
20
-75.9339
11
139.01
21
-75.8915
0
LINE
8
BLACK
6
CONTINUOUS
10
139.01
20
-75.8915
11
139.13
21
-75.8062
0
LINE
8
BLACK
6
CONTINUOUS
10
139.13
20
-75.8062
11
139.288
21
-75.6485
0
LINE
8
BLACK
6
CONTINUOUS
10
139.288
20
-75.6485
11
139.348
21
-75.5657
0
LINE
8
BLACK
6
CONTINUOUS
10
139.348
20
-75.5657
11
139.415
21
-75.4713
0
LINE
8
BLACK
6
CONTINUOUS
10
139.415
20
-75.4713
11
139.418
21
-75.4671
0
LINE
8
BLACK
6
CONTINUOUS
10
139.418
20
-75.4671
11
139.426
21
-75.4508
0
LINE
8
BLACK
6
CONTINUOUS
10
139.426
20
-75.4508
11
139.515
21
-75.2715
0
LINE
8
BLACK
6
CONTINUOUS
10
139.515
20
-75.2715
11
139.515
21
-75.2715
0
LINE
8
BLACK
6
CONTINUOUS
10
139.515
20
-75.2715
11
139.517
21
-75.2668
0
LINE
8
BLACK
6
CONTINUOUS
10
139.517
20
-75.2668
11
139.579
21
-75.0655
0
LINE
8
BLACK
6
CONTINUOUS
10
139.579
20
-75.0655
11
139.581
21
-75.058
0
LINE
8
BLACK
6
CONTINUOUS
10
139.581
20
-75.058
11
139.581
21
-75.058
0
LINE
8
BLACK
6
CONTINUOUS
10
139.581
20
-75.058
11
139.582
21
-75.0531
0
LINE
8
BLACK
6
CONTINUOUS
10
139.582
20
-75.0531
11
139.612
21
-74.8316
0
LINE
8
BLACK
6
CONTINUOUS
10
139.612
20
-74.8316
11
139.613
21
-74.7745
0
LINE
8
BLACK
6
CONTINUOUS
10
139.613
20
-74.7745
11
139.613
21
-74.7684
0
LINE
8
BLACK
6
CONTINUOUS
10
139.613
20
-74.7684
11
139.613
21
-74.7684
0
LINE
8
BLACK
6
CONTINUOUS
10
139.613
20
-74.7684
11
139.613
21
-74.765
0
LINE
8
BLACK
6
CONTINUOUS
10
139.613
20
-74.765
11
139.595
21
-74.5424
0
LINE
8
BLACK
6
CONTINUOUS
10
139.595
20
-74.5424
11
139.54
21
-74.3257
0
LINE
8
BLACK
6
CONTINUOUS
10
139.54
20
-74.3257
11
139.451
21
-74.1208
0
LINE
8
BLACK
6
CONTINUOUS
10
139.451
20
-74.1208
11
139.402
21
-74.0448
0
LINE
8
BLACK
6
CONTINUOUS
10
139.402
20
-74.0448
11
139.333
21
-73.9376
0
LINE
8
BLACK
6
CONTINUOUS
10
139.333
20
-73.9376
11
139.333
21
-73.9376
0
LINE
8
BLACK
6
CONTINUOUS
10
139.333
20
-73.9376
11
139.33
21
-73.9333
0
LINE
8
BLACK
6
CONTINUOUS
10
139.33
20
-73.9333
11
139.327
21
-73.9295
0
LINE
8
BLACK
6
CONTINUOUS
10
139.327
20
-73.9295
11
139.327
21
-73.9295
0
LINE
8
BLACK
6
CONTINUOUS
10
139.327
20
-73.9295
11
139.182
21
-73.7711
0
LINE
8
BLACK
6
CONTINUOUS
10
139.182
20
-73.7711
11
139.151
21
-73.7072
0
LINE
8
BLACK
6
CONTINUOUS
10
139.151
20
-73.7072
11
139.16
21
-73.6367
0
LINE
8
BLACK
6
CONTINUOUS
10
139.16
20
-73.6367
11
139.205
21
-73.582
0
LINE
8
BLACK
6
CONTINUOUS
10
139.205
20
-73.582
11
139.231
21
-73.5683
0
LINE
8
BLACK
6
CONTINUOUS
10
139.231
20
-73.5683
11
139.338
21
-73.5283
0
LINE
8
BLACK
6
CONTINUOUS
10
139.338
20
-73.5283
11
139.354
21
-73.5198
0
LINE
8
BLACK
6
CONTINUOUS
10
139.354
20
-73.5198
11
139.456
21
-73.4433
0
LINE
8
BLACK
6
CONTINUOUS
10
139.456
20
-73.4433
11
139.468
21
-73.4307
0
LINE
8
BLACK
6
CONTINUOUS
10
139.468
20
-73.4307
11
139.545
21
-73.3286
0
LINE
8
BLACK
6
CONTINUOUS
10
139.545
20
-73.3286
11
139.553
21
-73.3131
0
LINE
8
BLACK
6
CONTINUOUS
10
139.553
20
-73.3131
11
139.598
21
-73.1926
0
LINE
8
BLACK
6
CONTINUOUS
10
139.598
20
-73.1926
11
139.602
21
-73.1774
0
LINE
8
BLACK
6
CONTINUOUS
10
139.602
20
-73.1774
11
139.608
21
-73.1265
0
LINE
8
BLACK
6
CONTINUOUS
10
139.608
20
-73.1265
11
139.608
21
-73.1197
0
LINE
8
BLACK
6
CONTINUOUS
10
139.608
20
-73.1197
11
139.608
21
-72.4971
0
LINE
8
BLACK
6
CONTINUOUS
10
139.608
20
-72.4971
11
139.604
21
-72.4819
0
LINE
8
BLACK
6
CONTINUOUS
10
139.604
20
-72.4819
11
139.602
21
-72.4807
0
LINE
8
BLACK
6
CONTINUOUS
10
139.602
20
-72.4807
11
139.594
21
-72.479
0
LINE
8
BLACK
6
CONTINUOUS
10
139.594
20
-72.479
11
139.1
21
-72.479
0
LINE
8
BLACK
6
CONTINUOUS
10
139.1
20
-72.479
11
139.1
21
-73.075
0
LINE
8
BLACK
6
CONTINUOUS
10
139.1
20
-73.075
11
137.4
21
-73.075
0
LINE
8
BLACK
6
CONTINUOUS
10
137.4
20
-73.075
11
137.4
21
-72.479
0
LINE
8
BLACK
6
CONTINUOUS
10
137.4
20
-72.479
11
136.91
21
-72.479
0
LINE
8
BLACK
6
CONTINUOUS
10
136.91
20
-72.479
11
136.895
21
-72.4835
0
LINE
8
BLACK
6
CONTINUOUS
10
136.895
20
-72.4835
11
136.894
21
-72.4849
0
LINE
8
BLACK
6
CONTINUOUS
10
136.894
20
-72.4849
11
136.892
21
-72.4925
0
LINE
8
BLACK
6
CONTINUOUS
10
136.892
20
-72.4925
11
136.892
21
-73.1197
0
LINE
8
BLACK
6
CONTINUOUS
10
136.892
20
-73.1197
11
136.892
21
-73.1265
0
LINE
8
BLACK
6
CONTINUOUS
10
136.892
20
-73.1265
11
136.898
21
-73.1774
0
LINE
8
BLACK
6
CONTINUOUS
10
136.898
20
-73.1774
11
136.902
21
-73.1926
0
LINE
8
BLACK
6
CONTINUOUS
10
136.902
20
-73.1926
11
136.947
21
-73.3131
0
LINE
8
BLACK
6
CONTINUOUS
10
136.947
20
-73.3131
11
136.955
21
-73.3286
0
LINE
8
BLACK
6
CONTINUOUS
10
136.955
20
-73.3286
11
137.032
21
-73.4307
0
LINE
8
BLACK
6
CONTINUOUS
10
137.032
20
-73.4307
11
137.044
21
-73.4433
0
LINE
8
BLACK
6
CONTINUOUS
10
137.044
20
-73.4433
11
137.146
21
-73.5198
0
LINE
8
BLACK
6
CONTINUOUS
10
137.146
20
-73.5198
11
137.162
21
-73.5283
0
LINE
8
BLACK
6
CONTINUOUS
10
137.162
20
-73.5283
11
137.271
21
-73.5691
0
LINE
8
BLACK
6
CONTINUOUS
10
137.271
20
-73.5691
11
137.328
21
-73.6118
0
LINE
8
BLACK
6
CONTINUOUS
10
137.328
20
-73.6118
11
137.352
21
-73.6783
0
LINE
8
BLACK
6
CONTINUOUS
10
137.352
20
-73.6783
11
137.337
21
-73.7477
0
LINE
8
BLACK
6
CONTINUOUS
10
137.337
20
-73.7477
11
137.318
21
-73.7742
0
LINE
8
BLACK
6
CONTINUOUS
10
137.318
20
-73.7742
11
137.205
21
-73.8924
0
LINE
8
BLACK
6
CONTINUOUS
10
137.205
20
-73.8924
11
137.191
21
-73.9071
0
LINE
8
BLACK
6
CONTINUOUS
10
137.191
20
-73.9071
11
137.188
21
-73.9114
0
LINE
8
BLACK
6
CONTINUOUS
10
137.188
20
-73.9114
11
137.188
21
-73.9114
0
LINE
8
BLACK
6
CONTINUOUS
10
137.188
20
-73.9114
11
137.159
21
-73.954
0
LINE
8
BLACK
6
CONTINUOUS
10
137.159
20
-73.954
11
137.065
21
-74.0917
0
LINE
8
BLACK
6
CONTINUOUS
10
137.065
20
-74.0917
11
137.037
21
-74.152
0
LINE
8
BLACK
6
CONTINUOUS
10
137.037
20
-74.152
11
136.983
21
-74.2669
0
LINE
8
BLACK
6
CONTINUOUS
10
136.983
20
-74.2669
11
136.971
21
-74.2943
0
LINE
8
BLACK
6
CONTINUOUS
10
136.971
20
-74.2943
11
136.911
21
-74.5096
0
LINE
8
BLACK
6
CONTINUOUS
10
136.911
20
-74.5096
11
136.887
21
-74.7317
0
LINE
8
BLACK
6
CONTINUOUS
10
136.887
20
-74.7317
11
136.888
21
-74.7368
0
LINE
8
BLACK
6
CONTINUOUS
10
136.888
20
-74.7368
11
136.888
21
-74.7369
0
LINE
8
BLACK
6
CONTINUOUS
10
136.888
20
-74.7369
11
136.893
21
-74.8316
0
LINE
8
BLACK
6
CONTINUOUS
10
136.893
20
-74.8316
11
136.9
21
-74.9547
0
LINE
8
BLACK
6
CONTINUOUS
10
136.9
20
-74.9547
11
136.901
21
-74.9598
0
LINE
8
BLACK
6
CONTINUOUS
10
136.901
20
-74.9598
11
136.901
21
-74.9598
0
LINE
8
BLACK
6
CONTINUOUS
10
136.901
20
-74.9598
11
136.922
21
-75.0531
0
LINE
8
BLACK
6
CONTINUOUS
10
136.922
20
-75.0531
11
136.949
21
-75.1726
0
LINE
8
BLACK
6
CONTINUOUS
10
136.949
20
-75.1726
11
137.033
21
-75.3796
0
LINE
8
BLACK
6
CONTINUOUS
10
137.033
20
-75.3796
11
137.053
21
-75.4125
0
LINE
8
BLACK
6
CONTINUOUS
10
137.053
20
-75.4125
11
137.133
21
-75.5428
0
LINE
8
BLACK
6
CONTINUOUS
10
137.133
20
-75.5428
11
137.15
21
-75.5701
0
LINE
8
BLACK
6
CONTINUOUS
10
137.15
20
-75.5701
11
137.296
21
-75.7389
0
LINE
8
BLACK
6
CONTINUOUS
10
137.296
20
-75.7389
11
137.468
21
-75.8816
0
LINE
8
BLACK
6
CONTINUOUS
10
137.468
20
-75.8816
11
137.504
21
-75.9023
0
LINE
8
BLACK
6
CONTINUOUS
10
137.504
20
-75.9023
11
137.541
21
-75.9245
0
LINE
8
BLACK
6
CONTINUOUS
10
137.541
20
-75.9245
11
137.59
21
-75.9761
0
LINE
8
BLACK
6
CONTINUOUS
10
137.59
20
-75.9761
11
137.603
21
-76.0459
0
LINE
8
BLACK
6
CONTINUOUS
10
137.603
20
-76.0459
11
137.577
21
-76.1117
0
LINE
8
BLACK
6
CONTINUOUS
10
137.577
20
-76.1117
11
137.536
21
-76.145
0
LINE
8
BLACK
6
CONTINUOUS
10
137.536
20
-76.145
11
137.524
21
-76.1515
0
LINE
8
BLACK
6
CONTINUOUS
10
137.524
20
-76.1515
11
137.519
21
-76.1546
0
LINE
8
BLACK
6
CONTINUOUS
10
137.519
20
-76.1546
11
137.519
21
-76.1546
0
LINE
8
BLACK
6
CONTINUOUS
10
137.519
20
-76.1546
11
137.349
21
-76.2825
0
LINE
8
BLACK
6
CONTINUOUS
10
137.349
20
-76.2825
11
137.345
21
-76.2856
0
LINE
8
BLACK
6
CONTINUOUS
10
137.345
20
-76.2856
11
137.191
21
-76.4471
0
LINE
8
BLACK
6
CONTINUOUS
10
137.191
20
-76.4471
11
137.188
21
-76.4514
0
LINE
8
BLACK
6
CONTINUOUS
10
137.188
20
-76.4514
11
137.188
21
-76.4514
0
LINE
8
BLACK
6
CONTINUOUS
10
137.188
20
-76.4514
11
137.114
21
-76.5596
0
LINE
8
BLACK
6
CONTINUOUS
10
137.114
20
-76.5596
11
137.065
21
-76.6317
0
LINE
8
BLACK
6
CONTINUOUS
10
137.065
20
-76.6317
11
137.049
21
-76.6656
0
LINE
8
BLACK
6
CONTINUOUS
10
137.049
20
-76.6656
11
136.974
21
-76.8265
0
LINE
8
BLACK
6
CONTINUOUS
10
136.974
20
-76.8265
11
136.971
21
-76.8343
0
LINE
8
BLACK
6
CONTINUOUS
10
136.971
20
-76.8343
11
136.911
21
-77.0496
0
LINE
8
BLACK
6
CONTINUOUS
10
136.911
20
-77.0496
11
136.887
21
-77.2717
0
LINE
8
BLACK
6
CONTINUOUS
10
136.887
20
-77.2717
11
136.888
21
-77.2768
0
LINE
8
BLACK
6
CONTINUOUS
10
136.888
20
-77.2768
11
136.888
21
-77.2769
0
LINE
8
BLACK
6
CONTINUOUS
10
139.1
20
-71.5518
11
139.1
21
-71.971
0
LINE
8
BLACK
6
CONTINUOUS
10
139.1
20
-71.971
11
139.59
21
-71.971
0
LINE
8
BLACK
6
CONTINUOUS
10
139.59
20
-71.971
11
139.605
21
-71.9665
0
LINE
8
BLACK
6
CONTINUOUS
10
139.605
20
-71.9665
11
139.606
21
-71.9651
0
LINE
8
BLACK
6
CONTINUOUS
10
139.606
20
-71.9651
11
139.608
21
-71.9575
0
LINE
8
BLACK
6
CONTINUOUS
10
139.608
20
-71.9575
11
139.608
21
-71.3303
0
LINE
8
BLACK
6
CONTINUOUS
10
139.608
20
-71.3303
11
139.608
21
-71.3235
0
LINE
8
BLACK
6
CONTINUOUS
10
139.608
20
-71.3235
11
139.602
21
-71.2726
0
LINE
8
BLACK
6
CONTINUOUS
10
139.602
20
-71.2726
11
139.598
21
-71.2574
0
LINE
8
BLACK
6
CONTINUOUS
10
139.598
20
-71.2574
11
139.553
21
-71.1369
0
LINE
8
BLACK
6
CONTINUOUS
10
139.553
20
-71.1369
11
139.545
21
-71.1214
0
LINE
8
BLACK
6
CONTINUOUS
10
139.545
20
-71.1214
11
139.539
21
-71.1131
0
LINE
8
BLACK
6
CONTINUOUS
10
139.539
20
-71.1131
11
139.1
21
-71.5518
0
LINE
8
BLACK
6
CONTINUOUS
10
138.522
20
-70.867
11
138.507
21
-70.8715
0
LINE
8
BLACK
6
CONTINUOUS
10
138.507
20
-70.8715
11
138.506
21
-70.8729
0
LINE
8
BLACK
6
CONTINUOUS
10
138.506
20
-70.8729
11
138.504
21
-70.8805
0
LINE
8
BLACK
6
CONTINUOUS
10
138.504
20
-70.8805
11
138.504
21
-71.375
0
LINE
8
BLACK
6
CONTINUOUS
10
138.504
20
-71.375
11
138.923
21
-71.375
0
LINE
8
BLACK
6
CONTINUOUS
10
138.923
20
-71.375
11
139.362
21
-70.9364
0
LINE
8
BLACK
6
CONTINUOUS
10
139.362
20
-70.9364
11
139.354
21
-70.9302
0
LINE
8
BLACK
6
CONTINUOUS
10
139.354
20
-70.9302
11
139.338
21
-70.9217
0
LINE
8
BLACK
6
CONTINUOUS
10
139.338
20
-70.9217
11
139.218
21
-70.8765
0
LINE
8
BLACK
6
CONTINUOUS
10
139.218
20
-70.8765
11
139.202
21
-70.8729
0
LINE
8
BLACK
6
CONTINUOUS
10
139.202
20
-70.8729
11
139.151
21
-70.8674
0
LINE
8
BLACK
6
CONTINUOUS
10
139.151
20
-70.8674
11
139.145
21
-70.867
0
LINE
8
BLACK
6
CONTINUOUS
10
139.145
20
-70.867
11
138.522
21
-70.867
0
LINE
8
BLACK
6
CONTINUOUS
10
140.398
20
-70.254
11
140.143
21
-70.5089
0
LINE
8
BLACK
6
CONTINUOUS
10
140.143
20
-70.5089
11
140.152
21
-70.5992
0
LINE
8
BLACK
6
CONTINUOUS
10
140.152
20
-70.5992
11
140.155
21
-70.6126
0
LINE
8
BLACK
6
CONTINUOUS
10
140.155
20
-70.6126
11
140.207
21
-70.7668
0
LINE
8
BLACK
6
CONTINUOUS
10
140.207
20
-70.7668
11
140.213
21
-70.78
0
LINE
8
BLACK
6
CONTINUOUS
10
140.213
20
-70.78
11
140.298
21
-70.9178
0
LINE
8
BLACK
6
CONTINUOUS
10
140.298
20
-70.9178
11
140.307
21
-70.9292
0
LINE
8
BLACK
6
CONTINUOUS
10
140.307
20
-70.9292
11
140.422
21
-71.0437
0
LINE
8
BLACK
6
CONTINUOUS
10
140.422
20
-71.0437
11
140.433
21
-71.0528
0
LINE
8
BLACK
6
CONTINUOUS
10
140.433
20
-71.0528
11
140.571
21
-71.1378
0
LINE
8
BLACK
6
CONTINUOUS
10
140.571
20
-71.1378
11
140.584
21
-71.144
0
LINE
8
BLACK
6
CONTINUOUS
10
140.584
20
-71.144
11
140.739
21
-71.1951
0
LINE
8
BLACK
6
CONTINUOUS
10
140.739
20
-71.1951
11
140.752
21
-71.198
0
LINE
8
BLACK
6
CONTINUOUS
10
140.752
20
-71.198
11
140.846
21
-71.2077
0
LINE
8
BLACK
6
CONTINUOUS
10
140.846
20
-71.2077
11
140.853
21
-71.208
0
LINE
8
BLACK
6
CONTINUOUS
10
140.853
20
-71.208
11
140.978
21
-71.208
0
LINE
8
BLACK
6
CONTINUOUS
10
140.978
20
-71.208
11
140.993
21
-71.2035
0
LINE
8
BLACK
6
CONTINUOUS
10
140.993
20
-71.2035
11
140.994
21
-71.2021
0
LINE
8
BLACK
6
CONTINUOUS
10
140.994
20
-71.2021
11
140.996
21
-71.1945
0
LINE
8
BLACK
6
CONTINUOUS
10
140.996
20
-71.1945
11
140.996
21
-70.7
0
LINE
8
BLACK
6
CONTINUOUS
10
140.996
20
-70.7
11
140.9
21
-70.7
0
LINE
8
BLACK
6
CONTINUOUS
10
140.9
20
-70.7
11
140.804
21
-70.681
0
LINE
8
BLACK
6
CONTINUOUS
10
140.804
20
-70.681
11
140.723
21
-70.6268
0
LINE
8
BLACK
6
CONTINUOUS
10
140.723
20
-70.6268
11
140.669
21
-70.5457
0
LINE
8
BLACK
6
CONTINUOUS
10
140.669
20
-70.5457
11
140.65
21
-70.45
0
LINE
8
BLACK
6
CONTINUOUS
10
140.65
20
-70.45
11
140.65
21
-70.254
0
LINE
8
BLACK
6
CONTINUOUS
10
140.65
20
-70.254
11
140.398
21
-70.254
0
LINE
8
BLACK
6
CONTINUOUS
10
141.696
20
-70.681
11
141.6
21
-70.7
0
LINE
8
BLACK
6
CONTINUOUS
10
141.6
20
-70.7
11
141.504
21
-70.7
0
LINE
8
BLACK
6
CONTINUOUS
10
141.504
20
-70.7
11
141.504
21
-71.1899
0
LINE
8
BLACK
6
CONTINUOUS
10
141.504
20
-71.1899
11
141.508
21
-71.2051
0
LINE
8
BLACK
6
CONTINUOUS
10
141.508
20
-71.2051
11
141.51
21
-71.2063
0
LINE
8
BLACK
6
CONTINUOUS
10
141.51
20
-71.2063
11
141.518
21
-71.208
0
LINE
8
BLACK
6
CONTINUOUS
10
141.518
20
-71.208
11
141.647
21
-71.208
0
LINE
8
BLACK
6
CONTINUOUS
10
141.647
20
-71.208
11
141.654
21
-71.2077
0
LINE
8
BLACK
6
CONTINUOUS
10
141.654
20
-71.2077
11
141.749
21
-71.1977
0
LINE
8
BLACK
6
CONTINUOUS
10
141.749
20
-71.1977
11
141.763
21
-71.1949
0
LINE
8
BLACK
6
CONTINUOUS
10
141.763
20
-71.1949
11
141.917
21
-71.1434
0
LINE
8
BLACK
6
CONTINUOUS
10
141.917
20
-71.1434
11
141.93
21
-71.1372
0
LINE
8
BLACK
6
CONTINUOUS
10
141.93
20
-71.1372
11
142.068
21
-71.0519
0
LINE
8
BLACK
6
CONTINUOUS
10
142.068
20
-71.0519
11
142.079
21
-71.0429
0
LINE
8
BLACK
6
CONTINUOUS
10
142.079
20
-71.0429
11
142.098
21
-71.0244
0
LINE
8
BLACK
6
CONTINUOUS
10
142.098
20
-71.0244
11
141.731
21
-70.6575
0
LINE
8
BLACK
6
CONTINUOUS
10
141.731
20
-70.6575
11
141.696
21
-70.681
0
LINE
8
BLACK
6
CONTINUOUS
10
146.16
20
-70.254
11
146.145
21
-70.2585
0
LINE
8
BLACK
6
CONTINUOUS
10
146.145
20
-70.2585
11
146.144
21
-70.2599
0
LINE
8
BLACK
6
CONTINUOUS
10
146.144
20
-70.2599
11
146.142
21
-70.2675
0
LINE
8
BLACK
6
CONTINUOUS
10
146.142
20
-70.2675
11
146.142
21
-70.4812
0
LINE
8
BLACK
6
CONTINUOUS
10
146.142
20
-70.4812
11
146.369
21
-70.254
0
LINE
8
BLACK
6
CONTINUOUS
10
146.369
20
-70.254
11
146.16
21
-70.254
0
LINE
8
BLACK
6
CONTINUOUS
10
136.898
20
-71.9693
11
136.906
21
-71.971
0
LINE
8
BLACK
6
CONTINUOUS
10
136.906
20
-71.971
11
137.4
21
-71.971
0
LINE
8
BLACK
6
CONTINUOUS
10
137.4
20
-71.971
11
137.4
21
-71.375
0
LINE
8
BLACK
6
CONTINUOUS
10
137.4
20
-71.375
11
137.996
21
-71.375
0
LINE
8
BLACK
6
CONTINUOUS
10
137.996
20
-71.375
11
137.996
21
-70.8851
0
LINE
8
BLACK
6
CONTINUOUS
10
137.996
20
-70.8851
11
137.992
21
-70.8699
0
LINE
8
BLACK
6
CONTINUOUS
10
137.992
20
-70.8699
11
137.99
21
-70.8687
0
LINE
8
BLACK
6
CONTINUOUS
10
137.99
20
-70.8687
11
137.982
21
-70.867
0
LINE
8
BLACK
6
CONTINUOUS
10
137.982
20
-70.867
11
137.355
21
-70.867
0
LINE
8
BLACK
6
CONTINUOUS
10
137.355
20
-70.867
11
137.349
21
-70.8674
0
LINE
8
BLACK
6
CONTINUOUS
10
137.349
20
-70.8674
11
137.298
21
-70.8729
0
LINE
8
BLACK
6
CONTINUOUS
10
137.298
20
-70.8729
11
137.282
21
-70.8765
0
LINE
8
BLACK
6
CONTINUOUS
10
137.282
20
-70.8765
11
137.162
21
-70.9217
0
LINE
8
BLACK
6
CONTINUOUS
10
137.162
20
-70.9217
11
137.146
21
-70.9302
0
LINE
8
BLACK
6
CONTINUOUS
10
137.146
20
-70.9302
11
137.044
21
-71.0067
0
LINE
8
BLACK
6
CONTINUOUS
10
137.044
20
-71.0067
11
137.032
21
-71.0193
0
LINE
8
BLACK
6
CONTINUOUS
10
137.032
20
-71.0193
11
136.955
21
-71.1214
0
LINE
8
BLACK
6
CONTINUOUS
10
136.955
20
-71.1214
11
136.947
21
-71.1369
0
LINE
8
BLACK
6
CONTINUOUS
10
136.947
20
-71.1369
11
136.902
21
-71.2574
0
LINE
8
BLACK
6
CONTINUOUS
10
136.902
20
-71.2574
11
136.898
21
-71.2726
0
LINE
8
BLACK
6
CONTINUOUS
10
136.898
20
-71.2726
11
136.892
21
-71.3235
0
LINE
8
BLACK
6
CONTINUOUS
10
136.892
20
-71.3235
11
136.892
21
-71.3303
0
LINE
8
BLACK
6
CONTINUOUS
10
136.892
20
-71.3303
11
136.892
21
-71.9529
0
LINE
8
BLACK
6
CONTINUOUS
10
136.892
20
-71.9529
11
136.896
21
-71.9681
0
LINE
8
BLACK
6
CONTINUOUS
10
136.896
20
-71.9681
11
136.898
21
-71.9693
0
LINE
8
BLACK
6
CONTINUOUS
10
140.148
20
-69.7443
11
140.156
21
-69.746
0
LINE
8
BLACK
6
CONTINUOUS
10
140.156
20
-69.746
11
140.65
21
-69.746
0
LINE
8
BLACK
6
CONTINUOUS
10
140.65
20
-69.746
11
140.65
21
-69.55
0
LINE
8
BLACK
6
CONTINUOUS
10
140.65
20
-69.55
11
140.669
21
-69.4543
0
LINE
8
BLACK
6
CONTINUOUS
10
140.669
20
-69.4543
11
140.723
21
-69.3732
0
LINE
8
BLACK
6
CONTINUOUS
10
140.723
20
-69.3732
11
140.804
21
-69.319
0
LINE
8
BLACK
6
CONTINUOUS
10
140.804
20
-69.319
11
140.9
21
-69.3
0
LINE
8
BLACK
6
CONTINUOUS
10
140.9
20
-69.3
11
140.996
21
-69.3
0
LINE
8
BLACK
6
CONTINUOUS
10
140.996
20
-69.3
11
140.996
21
-68.8101
0
LINE
8
BLACK
6
CONTINUOUS
10
140.996
20
-68.8101
11
140.992
21
-68.7949
0
LINE
8
BLACK
6
CONTINUOUS
10
140.992
20
-68.7949
11
140.99
21
-68.7937
0
LINE
8
BLACK
6
CONTINUOUS
10
140.99
20
-68.7937
11
140.982
21
-68.792
0
LINE
8
BLACK
6
CONTINUOUS
10
140.982
20
-68.792
11
140.853
21
-68.792
0
LINE
8
BLACK
6
CONTINUOUS
10
140.853
20
-68.792
11
140.846
21
-68.7923
0
LINE
8
BLACK
6
CONTINUOUS
10
140.846
20
-68.7923
11
140.751
21
-68.8023
0
LINE
8
BLACK
6
CONTINUOUS
10
140.751
20
-68.8023
11
140.737
21
-68.8051
0
LINE
8
BLACK
6
CONTINUOUS
10
140.737
20
-68.8051
11
140.583
21
-68.8566
0
LINE
8
BLACK
6
CONTINUOUS
10
140.583
20
-68.8566
11
140.57
21
-68.8628
0
LINE
8
BLACK
6
CONTINUOUS
10
140.57
20
-68.8628
11
140.432
21
-68.9481
0
LINE
8
BLACK
6
CONTINUOUS
10
140.432
20
-68.9481
11
140.421
21
-68.9571
0
LINE
8
BLACK
6
CONTINUOUS
10
140.421
20
-68.9571
11
140.306
21
-69.0718
0
LINE
8
BLACK
6
CONTINUOUS
10
140.306
20
-69.0718
11
140.297
21
-69.0832
0
LINE
8
BLACK
6
CONTINUOUS
10
140.297
20
-69.0832
11
140.212
21
-69.2212
0
LINE
8
BLACK
6
CONTINUOUS
10
140.212
20
-69.2212
11
140.206
21
-69.2344
0
LINE
8
BLACK
6
CONTINUOUS
10
140.206
20
-69.2344
11
140.155
21
-69.3887
0
LINE
8
BLACK
6
CONTINUOUS
10
140.155
20
-69.3887
11
140.152
21
-69.4021
0
LINE
8
BLACK
6
CONTINUOUS
10
140.152
20
-69.4021
11
140.142
21
-69.4964
0
LINE
8
BLACK
6
CONTINUOUS
10
140.142
20
-69.4964
11
140.142
21
-69.5029
0
LINE
8
BLACK
6
CONTINUOUS
10
140.142
20
-69.5029
11
140.142
21
-69.7279
0
LINE
8
BLACK
6
CONTINUOUS
10
140.142
20
-69.7279
11
140.146
21
-69.7431
0
LINE
8
BLACK
6
CONTINUOUS
10
140.146
20
-69.7431
11
140.148
21
-69.7443
0
LINE
8
BLACK
6
CONTINUOUS
10
138.513
20
-76.4966
11
138.675
21
-76.5689
0
LINE
8
BLACK
6
CONTINUOUS
10
138.675
20
-76.5689
11
138.819
21
-76.6733
0
LINE
8
BLACK
6
CONTINUOUS
10
138.819
20
-76.6733
11
138.938
21
-76.8054
0
LINE
8
BLACK
6
CONTINUOUS
10
138.938
20
-76.8054
11
139.027
21
-76.9593
0
LINE
8
BLACK
6
CONTINUOUS
10
139.027
20
-76.9593
11
139.081
21
-77.1283
0
LINE
8
BLACK
6
CONTINUOUS
10
139.081
20
-77.1283
11
139.1
21
-77.305
0
LINE
8
BLACK
6
CONTINUOUS
10
139.1
20
-77.305
11
139.081
21
-77.4817
0
LINE
8
BLACK
6
CONTINUOUS
10
139.081
20
-77.4817
11
139.027
21
-77.6507
0
LINE
8
BLACK
6
CONTINUOUS
10
139.027
20
-77.6507
11
138.938
21
-77.8046
0
LINE
8
BLACK
6
CONTINUOUS
10
138.938
20
-77.8046
11
138.819
21
-77.9367
0
LINE
8
BLACK
6
CONTINUOUS
10
138.819
20
-77.9367
11
138.675
21
-78.0411
0
LINE
8
BLACK
6
CONTINUOUS
10
138.675
20
-78.0411
11
138.513
21
-78.1134
0
LINE
8
BLACK
6
CONTINUOUS
10
138.513
20
-78.1134
11
138.339
21
-78.1503
0
LINE
8
BLACK
6
CONTINUOUS
10
138.339
20
-78.1503
11
138.161
21
-78.1503
0
LINE
8
BLACK
6
CONTINUOUS
10
138.161
20
-78.1503
11
137.987
21
-78.1134
0
LINE
8
BLACK
6
CONTINUOUS
10
137.987
20
-78.1134
11
137.825
21
-78.0411
0
LINE
8
BLACK
6
CONTINUOUS
10
137.825
20
-78.0411
11
137.681
21
-77.9367
0
LINE
8
BLACK
6
CONTINUOUS
10
137.681
20
-77.9367
11
137.562
21
-77.8046
0
LINE
8
BLACK
6
CONTINUOUS
10
137.562
20
-77.8046
11
137.473
21
-77.6507
0
LINE
8
BLACK
6
CONTINUOUS
10
137.473
20
-77.6507
11
137.419
21
-77.4817
0
LINE
8
BLACK
6
CONTINUOUS
10
137.419
20
-77.4817
11
137.4
21
-77.305
0
LINE
8
BLACK
6
CONTINUOUS
10
137.4
20
-77.305
11
137.419
21
-77.1283
0
LINE
8
BLACK
6
CONTINUOUS
10
137.419
20
-77.1283
11
137.473
21
-76.9593
0
LINE
8
BLACK
6
CONTINUOUS
10
137.473
20
-76.9593
11
137.562
21
-76.8054
0
LINE
8
BLACK
6
CONTINUOUS
10
137.562
20
-76.8054
11
137.681
21
-76.6733
0
LINE
8
BLACK
6
CONTINUOUS
10
137.681
20
-76.6733
11
137.825
21
-76.5689
0
LINE
8
BLACK
6
CONTINUOUS
10
137.825
20
-76.5689
11
137.987
21
-76.4966
0
LINE
8
BLACK
6
CONTINUOUS
10
137.987
20
-76.4966
11
138.161
21
-76.4597
0
LINE
8
BLACK
6
CONTINUOUS
10
138.161
20
-76.4597
11
138.339
21
-76.4597
0
LINE
8
BLACK
6
CONTINUOUS
10
138.339
20
-76.4597
11
138.513
21
-76.4966
0
LINE
8
BLACK
6
CONTINUOUS
10
138.513
20
-73.9566
11
138.675
21
-74.0289
0
LINE
8
BLACK
6
CONTINUOUS
10
138.675
20
-74.0289
11
138.819
21
-74.1333
0
LINE
8
BLACK
6
CONTINUOUS
10
138.819
20
-74.1333
11
138.938
21
-74.2654
0
LINE
8
BLACK
6
CONTINUOUS
10
138.938
20
-74.2654
11
139.027
21
-74.4193
0
LINE
8
BLACK
6
CONTINUOUS
10
139.027
20
-74.4193
11
139.081
21
-74.5883
0
LINE
8
BLACK
6
CONTINUOUS
10
139.081
20
-74.5883
11
139.1
21
-74.765
0
LINE
8
BLACK
6
CONTINUOUS
10
139.1
20
-74.765
11
139.081
21
-74.9417
0
LINE
8
BLACK
6
CONTINUOUS
10
139.081
20
-74.9417
11
139.027
21
-75.1107
0
LINE
8
BLACK
6
CONTINUOUS
10
139.027
20
-75.1107
11
138.938
21
-75.2646
0
LINE
8
BLACK
6
CONTINUOUS
10
138.938
20
-75.2646
11
138.819
21
-75.3967
0
LINE
8
BLACK
6
CONTINUOUS
10
138.819
20
-75.3967
11
138.675
21
-75.5011
0
LINE
8
BLACK
6
CONTINUOUS
10
138.675
20
-75.5011
11
138.513
21
-75.5734
0
LINE
8
BLACK
6
CONTINUOUS
10
138.513
20
-75.5734
11
138.339
21
-75.6103
0
LINE
8
BLACK
6
CONTINUOUS
10
138.339
20
-75.6103
11
138.161
21
-75.6103
0
LINE
8
BLACK
6
CONTINUOUS
10
138.161
20
-75.6103
11
137.987
21
-75.5734
0
LINE
8
BLACK
6
CONTINUOUS
10
137.987
20
-75.5734
11
137.825
21
-75.5011
0
LINE
8
BLACK
6
CONTINUOUS
10
137.825
20
-75.5011
11
137.681
21
-75.3967
0
LINE
8
BLACK
6
CONTINUOUS
10
137.681
20
-75.3967
11
137.562
21
-75.2646
0
LINE
8
BLACK
6
CONTINUOUS
10
137.562
20
-75.2646
11
137.473
21
-75.1107
0
LINE
8
BLACK
6
CONTINUOUS
10
137.473
20
-75.1107
11
137.419
21
-74.9417
0
LINE
8
BLACK
6
CONTINUOUS
10
137.419
20
-74.9417
11
137.4
21
-74.765
0
LINE
8
BLACK
6
CONTINUOUS
10
137.4
20
-74.765
11
137.419
21
-74.5883
0
LINE
8
BLACK
6
CONTINUOUS
10
137.419
20
-74.5883
11
137.473
21
-74.4193
0
LINE
8
BLACK
6
CONTINUOUS
10
137.473
20
-74.4193
11
137.562
21
-74.2654
0
LINE
8
BLACK
6
CONTINUOUS
10
137.562
20
-74.2654
11
137.681
21
-74.1333
0
LINE
8
BLACK
6
CONTINUOUS
10
137.681
20
-74.1333
11
137.825
21
-74.0289
0
LINE
8
BLACK
6
CONTINUOUS
10
137.825
20
-74.0289
11
137.987
21
-73.9566
0
LINE
8
BLACK
6
CONTINUOUS
10
137.987
20
-73.9566
11
138.161
21
-73.9197
0
LINE
8
BLACK
6
CONTINUOUS
10
138.161
20
-73.9197
11
138.339
21
-73.9197
0
LINE
8
BLACK
6
CONTINUOUS
10
138.339
20
-73.9197
11
138.513
21
-73.9566
0
CIRCLE
8
BLACK
10
147.25
20
-74.75
40
0.2
0
CIRCLE
8
BLACK
10
149.25
20
-72.25
40
0.2
0
CIRCLE
8
BLACK
10
149.25
20
-70
40
0.2
0
CIRCLE
8
BLACK
10
153.25
20
-80
40
0.2
0
CIRCLE
8
BLACK
10
147.25
20
-77
40
0.2
0
CIRCLE
8
BLACK
10
141.2
20
-79.4
40
0.2
0
CIRCLE
8
BLACK
10
147.2
20
-79.2
40
0.2
0
CIRCLE
8
BLACK
10
149.2
20
-74.8
40
0.2
  0
ENDSEC
  0
EOF
