  0
SECTION
  2
HEADER
  9
$ANGBASE
  50
0.0
  9
$ANGDIR
  70
1
  9
$MEASUREMENT
  70
1
  0
ENDSEC
  0
SECTION
  2
TABLES
  0
TABLE
  2
LTYPE
  70
4
  0
LTYPE
  5
40F
  2
CONTINUOUS
  70
0
  3
Solid line
  72
65
  73
0
  40
0.0
  0
LTYPE
  5
410
  2
DASHDOT
 70
0
  3
Dash Dot ____ _ ____ _
 72
65
 73
4
 40
2.0
 49
1.25
 49
-0.25
 49
0.25
 49
-0.25
  0
LTYPE
  5
411
  2
DASHED
 70
0
  3
Dashed __ __ __ __ __
 72
65
 73
2
 40
0.75
 49
0.5
 49
-0.25
  0
LTYPE
  5
43B
  2
DOTTED
 70
0
  3
Dotted .  .  .  .
 72
65
 73
2
 40
0.2
 49
0.0
 49
-0.2
  0
ENDTAB
  0
TABLE
  2
STYLE
  70
4
  0
STYLE
  2
KICAD
  70
0
  40
0
  41
1
  42
1
  50
0
  71
0
  3
isocp.shx
  0
STYLE
  2
KICADB
  70
0
  40
0
  41
1
  42
1
  50
0
  71
0
  3
isocp.shx
  0
STYLE
  2
KICADI
  70
0
  40
0
  41
1
  42
1
  50
15
  71
0
  3
isocp.shx
  0
STYLE
  2
KICADBI
  70
0
  40
0
  41
1
  42
1
  50
15
  71
0
  3
isocp.shx
  0
ENDTAB
  0
TABLE
  2
LAYER
  70
1
  0
LAYER
  2
BLACK
  70
0
  62
7
  6
CONTINUOUS
  0
ENDTAB
  0
ENDSEC
  0
SECTION
  2
ENTITIES
0
LINE
8
BLACK
6
CONTINUOUS
10
143.696
20
-78.569
11
143.777
21
-78.6232
0
LINE
8
BLACK
6
CONTINUOUS
10
143.777
20
-78.6232
11
143.831
21
-78.7043
0
LINE
8
BLACK
6
CONTINUOUS
10
143.831
20
-78.7043
11
143.85
21
-78.8
0
LINE
8
BLACK
6
CONTINUOUS
10
143.85
20
-78.8
11
143.85
21
-79.7
0
LINE
8
BLACK
6
CONTINUOUS
10
143.85
20
-79.7
11
143.831
21
-79.7957
0
LINE
8
BLACK
6
CONTINUOUS
10
143.831
20
-79.7957
11
143.777
21
-79.8768
0
LINE
8
BLACK
6
CONTINUOUS
10
143.777
20
-79.8768
11
143.696
21
-79.931
0
LINE
8
BLACK
6
CONTINUOUS
10
143.696
20
-79.931
11
143.6
21
-79.95
0
LINE
8
BLACK
6
CONTINUOUS
10
143.6
20
-79.95
11
142.9
21
-79.95
0
LINE
8
BLACK
6
CONTINUOUS
10
142.9
20
-79.95
11
142.804
21
-79.931
0
LINE
8
BLACK
6
CONTINUOUS
10
142.804
20
-79.931
11
142.723
21
-79.8768
0
LINE
8
BLACK
6
CONTINUOUS
10
142.723
20
-79.8768
11
142.669
21
-79.7957
0
LINE
8
BLACK
6
CONTINUOUS
10
142.669
20
-79.7957
11
142.65
21
-79.7
0
LINE
8
BLACK
6
CONTINUOUS
10
142.65
20
-79.7
11
142.65
21
-78.8
0
LINE
8
BLACK
6
CONTINUOUS
10
142.65
20
-78.8
11
142.669
21
-78.7043
0
LINE
8
BLACK
6
CONTINUOUS
10
142.669
20
-78.7043
11
142.723
21
-78.6232
0
LINE
8
BLACK
6
CONTINUOUS
10
142.723
20
-78.6232
11
142.804
21
-78.569
0
LINE
8
BLACK
6
CONTINUOUS
10
142.804
20
-78.569
11
142.9
21
-78.55
0
LINE
8
BLACK
6
CONTINUOUS
10
142.9
20
-78.55
11
143.6
21
-78.55
0
LINE
8
BLACK
6
CONTINUOUS
10
143.6
20
-78.55
11
143.696
21
-78.569
0
LINE
8
BLACK
6
CONTINUOUS
10
141.696
20
-78.569
11
141.777
21
-78.6232
0
LINE
8
BLACK
6
CONTINUOUS
10
141.777
20
-78.6232
11
141.831
21
-78.7043
0
LINE
8
BLACK
6
CONTINUOUS
10
141.831
20
-78.7043
11
141.85
21
-78.8
0
LINE
8
BLACK
6
CONTINUOUS
10
141.85
20
-78.8
11
141.85
21
-79.7
0
LINE
8
BLACK
6
CONTINUOUS
10
141.85
20
-79.7
11
141.831
21
-79.7957
0
LINE
8
BLACK
6
CONTINUOUS
10
141.831
20
-79.7957
11
141.777
21
-79.8768
0
LINE
8
BLACK
6
CONTINUOUS
10
141.777
20
-79.8768
11
141.696
21
-79.931
0
LINE
8
BLACK
6
CONTINUOUS
10
141.696
20
-79.931
11
141.6
21
-79.95
0
LINE
8
BLACK
6
CONTINUOUS
10
141.6
20
-79.95
11
140.9
21
-79.95
0
LINE
8
BLACK
6
CONTINUOUS
10
140.9
20
-79.95
11
140.804
21
-79.931
0
LINE
8
BLACK
6
CONTINUOUS
10
140.804
20
-79.931
11
140.723
21
-79.8768
0
LINE
8
BLACK
6
CONTINUOUS
10
140.723
20
-79.8768
11
140.669
21
-79.7957
0
LINE
8
BLACK
6
CONTINUOUS
10
140.669
20
-79.7957
11
140.65
21
-79.7
0
LINE
8
BLACK
6
CONTINUOUS
10
140.65
20
-79.7
11
140.65
21
-78.8
0
LINE
8
BLACK
6
CONTINUOUS
10
140.65
20
-78.8
11
140.669
21
-78.7043
0
LINE
8
BLACK
6
CONTINUOUS
10
140.669
20
-78.7043
11
140.723
21
-78.6232
0
LINE
8
BLACK
6
CONTINUOUS
10
140.723
20
-78.6232
11
140.804
21
-78.569
0
LINE
8
BLACK
6
CONTINUOUS
10
140.804
20
-78.569
11
140.9
21
-78.55
0
LINE
8
BLACK
6
CONTINUOUS
10
140.9
20
-78.55
11
141.6
21
-78.55
0
LINE
8
BLACK
6
CONTINUOUS
10
141.6
20
-78.55
11
141.696
21
-78.569
0
LINE
8
BLACK
6
CONTINUOUS
10
149.696
20
-78.569
11
149.777
21
-78.6232
0
LINE
8
BLACK
6
CONTINUOUS
10
149.777
20
-78.6232
11
149.831
21
-78.7043
0
LINE
8
BLACK
6
CONTINUOUS
10
149.831
20
-78.7043
11
149.85
21
-78.8
0
LINE
8
BLACK
6
CONTINUOUS
10
149.85
20
-78.8
11
149.85
21
-79.7
0
LINE
8
BLACK
6
CONTINUOUS
10
149.85
20
-79.7
11
149.831
21
-79.7957
0
LINE
8
BLACK
6
CONTINUOUS
10
149.831
20
-79.7957
11
149.777
21
-79.8768
0
LINE
8
BLACK
6
CONTINUOUS
10
149.777
20
-79.8768
11
149.696
21
-79.931
0
LINE
8
BLACK
6
CONTINUOUS
10
149.696
20
-79.931
11
149.6
21
-79.95
0
LINE
8
BLACK
6
CONTINUOUS
10
149.6
20
-79.95
11
148.9
21
-79.95
0
LINE
8
BLACK
6
CONTINUOUS
10
148.9
20
-79.95
11
148.804
21
-79.931
0
LINE
8
BLACK
6
CONTINUOUS
10
148.804
20
-79.931
11
148.723
21
-79.8768
0
LINE
8
BLACK
6
CONTINUOUS
10
148.723
20
-79.8768
11
148.669
21
-79.7957
0
LINE
8
BLACK
6
CONTINUOUS
10
148.669
20
-79.7957
11
148.65
21
-79.7
0
LINE
8
BLACK
6
CONTINUOUS
10
148.65
20
-79.7
11
148.65
21
-78.8
0
LINE
8
BLACK
6
CONTINUOUS
10
148.65
20
-78.8
11
148.669
21
-78.7043
0
LINE
8
BLACK
6
CONTINUOUS
10
148.669
20
-78.7043
11
148.723
21
-78.6232
0
LINE
8
BLACK
6
CONTINUOUS
10
148.723
20
-78.6232
11
148.804
21
-78.569
0
LINE
8
BLACK
6
CONTINUOUS
10
148.804
20
-78.569
11
148.9
21
-78.55
0
LINE
8
BLACK
6
CONTINUOUS
10
148.9
20
-78.55
11
149.6
21
-78.55
0
LINE
8
BLACK
6
CONTINUOUS
10
149.6
20
-78.55
11
149.696
21
-78.569
0
LINE
8
BLACK
6
CONTINUOUS
10
147.696
20
-78.569
11
147.777
21
-78.6232
0
LINE
8
BLACK
6
CONTINUOUS
10
147.777
20
-78.6232
11
147.831
21
-78.7043
0
LINE
8
BLACK
6
CONTINUOUS
10
147.831
20
-78.7043
11
147.85
21
-78.8
0
LINE
8
BLACK
6
CONTINUOUS
10
147.85
20
-78.8
11
147.85
21
-79.7
0
LINE
8
BLACK
6
CONTINUOUS
10
147.85
20
-79.7
11
147.831
21
-79.7957
0
LINE
8
BLACK
6
CONTINUOUS
10
147.831
20
-79.7957
11
147.777
21
-79.8768
0
LINE
8
BLACK
6
CONTINUOUS
10
147.777
20
-79.8768
11
147.696
21
-79.931
0
LINE
8
BLACK
6
CONTINUOUS
10
147.696
20
-79.931
11
147.6
21
-79.95
0
LINE
8
BLACK
6
CONTINUOUS
10
147.6
20
-79.95
11
146.9
21
-79.95
0
LINE
8
BLACK
6
CONTINUOUS
10
146.9
20
-79.95
11
146.804
21
-79.931
0
LINE
8
BLACK
6
CONTINUOUS
10
146.804
20
-79.931
11
146.723
21
-79.8768
0
LINE
8
BLACK
6
CONTINUOUS
10
146.723
20
-79.8768
11
146.669
21
-79.7957
0
LINE
8
BLACK
6
CONTINUOUS
10
146.669
20
-79.7957
11
146.65
21
-79.7
0
LINE
8
BLACK
6
CONTINUOUS
10
146.65
20
-79.7
11
146.65
21
-78.8
0
LINE
8
BLACK
6
CONTINUOUS
10
146.65
20
-78.8
11
146.669
21
-78.7043
0
LINE
8
BLACK
6
CONTINUOUS
10
146.669
20
-78.7043
11
146.723
21
-78.6232
0
LINE
8
BLACK
6
CONTINUOUS
10
146.723
20
-78.6232
11
146.804
21
-78.569
0
LINE
8
BLACK
6
CONTINUOUS
10
146.804
20
-78.569
11
146.9
21
-78.55
0
LINE
8
BLACK
6
CONTINUOUS
10
146.9
20
-78.55
11
147.6
21
-78.55
0
LINE
8
BLACK
6
CONTINUOUS
10
147.6
20
-78.55
11
147.696
21
-78.569
0
LINE
8
BLACK
6
CONTINUOUS
10
147.696
20
-76.319
11
147.777
21
-76.3732
0
LINE
8
BLACK
6
CONTINUOUS
10
147.777
20
-76.3732
11
147.831
21
-76.4543
0
LINE
8
BLACK
6
CONTINUOUS
10
147.831
20
-76.4543
11
147.85
21
-76.55
0
LINE
8
BLACK
6
CONTINUOUS
10
147.85
20
-76.55
11
147.85
21
-77.45
0
LINE
8
BLACK
6
CONTINUOUS
10
147.85
20
-77.45
11
147.831
21
-77.5457
0
LINE
8
BLACK
6
CONTINUOUS
10
147.831
20
-77.5457
11
147.777
21
-77.6268
0
LINE
8
BLACK
6
CONTINUOUS
10
147.777
20
-77.6268
11
147.696
21
-77.681
0
LINE
8
BLACK
6
CONTINUOUS
10
147.696
20
-77.681
11
147.6
21
-77.7
0
LINE
8
BLACK
6
CONTINUOUS
10
147.6
20
-77.7
11
146.9
21
-77.7
0
LINE
8
BLACK
6
CONTINUOUS
10
146.9
20
-77.7
11
146.804
21
-77.681
0
LINE
8
BLACK
6
CONTINUOUS
10
146.804
20
-77.681
11
146.723
21
-77.6268
0
LINE
8
BLACK
6
CONTINUOUS
10
146.723
20
-77.6268
11
146.669
21
-77.5457
0
LINE
8
BLACK
6
CONTINUOUS
10
146.669
20
-77.5457
11
146.65
21
-77.45
0
LINE
8
BLACK
6
CONTINUOUS
10
146.65
20
-77.45
11
146.65
21
-76.55
0
LINE
8
BLACK
6
CONTINUOUS
10
146.65
20
-76.55
11
146.669
21
-76.4543
0
LINE
8
BLACK
6
CONTINUOUS
10
146.669
20
-76.4543
11
146.723
21
-76.3732
0
LINE
8
BLACK
6
CONTINUOUS
10
146.723
20
-76.3732
11
146.804
21
-76.319
0
LINE
8
BLACK
6
CONTINUOUS
10
146.804
20
-76.319
11
146.9
21
-76.3
0
LINE
8
BLACK
6
CONTINUOUS
10
146.9
20
-76.3
11
147.6
21
-76.3
0
LINE
8
BLACK
6
CONTINUOUS
10
147.6
20
-76.3
11
147.696
21
-76.319
0
LINE
8
BLACK
6
CONTINUOUS
10
149.696
20
-76.319
11
149.777
21
-76.3732
0
LINE
8
BLACK
6
CONTINUOUS
10
149.777
20
-76.3732
11
149.831
21
-76.4543
0
LINE
8
BLACK
6
CONTINUOUS
10
149.831
20
-76.4543
11
149.85
21
-76.55
0
LINE
8
BLACK
6
CONTINUOUS
10
149.85
20
-76.55
11
149.85
21
-77.45
0
LINE
8
BLACK
6
CONTINUOUS
10
149.85
20
-77.45
11
149.831
21
-77.5457
0
LINE
8
BLACK
6
CONTINUOUS
10
149.831
20
-77.5457
11
149.777
21
-77.6268
0
LINE
8
BLACK
6
CONTINUOUS
10
149.777
20
-77.6268
11
149.696
21
-77.681
0
LINE
8
BLACK
6
CONTINUOUS
10
149.696
20
-77.681
11
149.6
21
-77.7
0
LINE
8
BLACK
6
CONTINUOUS
10
149.6
20
-77.7
11
148.9
21
-77.7
0
LINE
8
BLACK
6
CONTINUOUS
10
148.9
20
-77.7
11
148.804
21
-77.681
0
LINE
8
BLACK
6
CONTINUOUS
10
148.804
20
-77.681
11
148.723
21
-77.6268
0
LINE
8
BLACK
6
CONTINUOUS
10
148.723
20
-77.6268
11
148.669
21
-77.5457
0
LINE
8
BLACK
6
CONTINUOUS
10
148.669
20
-77.5457
11
148.65
21
-77.45
0
LINE
8
BLACK
6
CONTINUOUS
10
148.65
20
-77.45
11
148.65
21
-76.55
0
LINE
8
BLACK
6
CONTINUOUS
10
148.65
20
-76.55
11
148.669
21
-76.4543
0
LINE
8
BLACK
6
CONTINUOUS
10
148.669
20
-76.4543
11
148.723
21
-76.3732
0
LINE
8
BLACK
6
CONTINUOUS
10
148.723
20
-76.3732
11
148.804
21
-76.319
0
LINE
8
BLACK
6
CONTINUOUS
10
148.804
20
-76.319
11
148.9
21
-76.3
0
LINE
8
BLACK
6
CONTINUOUS
10
148.9
20
-76.3
11
149.6
21
-76.3
0
LINE
8
BLACK
6
CONTINUOUS
10
149.6
20
-76.3
11
149.696
21
-76.319
0
LINE
8
BLACK
6
CONTINUOUS
10
147.696
20
-74.069
11
147.777
21
-74.1232
0
LINE
8
BLACK
6
CONTINUOUS
10
147.777
20
-74.1232
11
147.831
21
-74.2043
0
LINE
8
BLACK
6
CONTINUOUS
10
147.831
20
-74.2043
11
147.85
21
-74.3
0
LINE
8
BLACK
6
CONTINUOUS
10
147.85
20
-74.3
11
147.85
21
-75.2
0
LINE
8
BLACK
6
CONTINUOUS
10
147.85
20
-75.2
11
147.831
21
-75.2957
0
LINE
8
BLACK
6
CONTINUOUS
10
147.831
20
-75.2957
11
147.777
21
-75.3768
0
LINE
8
BLACK
6
CONTINUOUS
10
147.777
20
-75.3768
11
147.696
21
-75.431
0
LINE
8
BLACK
6
CONTINUOUS
10
147.696
20
-75.431
11
147.6
21
-75.45
0
LINE
8
BLACK
6
CONTINUOUS
10
147.6
20
-75.45
11
146.9
21
-75.45
0
LINE
8
BLACK
6
CONTINUOUS
10
146.9
20
-75.45
11
146.804
21
-75.431
0
LINE
8
BLACK
6
CONTINUOUS
10
146.804
20
-75.431
11
146.723
21
-75.3768
0
LINE
8
BLACK
6
CONTINUOUS
10
146.723
20
-75.3768
11
146.669
21
-75.2957
0
LINE
8
BLACK
6
CONTINUOUS
10
146.669
20
-75.2957
11
146.65
21
-75.2
0
LINE
8
BLACK
6
CONTINUOUS
10
146.65
20
-75.2
11
146.65
21
-74.3
0
LINE
8
BLACK
6
CONTINUOUS
10
146.65
20
-74.3
11
146.669
21
-74.2043
0
LINE
8
BLACK
6
CONTINUOUS
10
146.669
20
-74.2043
11
146.723
21
-74.1232
0
LINE
8
BLACK
6
CONTINUOUS
10
146.723
20
-74.1232
11
146.804
21
-74.069
0
LINE
8
BLACK
6
CONTINUOUS
10
146.804
20
-74.069
11
146.9
21
-74.05
0
LINE
8
BLACK
6
CONTINUOUS
10
146.9
20
-74.05
11
147.6
21
-74.05
0
LINE
8
BLACK
6
CONTINUOUS
10
147.6
20
-74.05
11
147.696
21
-74.069
0
LINE
8
BLACK
6
CONTINUOUS
10
149.696
20
-74.069
11
149.777
21
-74.1232
0
LINE
8
BLACK
6
CONTINUOUS
10
149.777
20
-74.1232
11
149.831
21
-74.2043
0
LINE
8
BLACK
6
CONTINUOUS
10
149.831
20
-74.2043
11
149.85
21
-74.3
0
LINE
8
BLACK
6
CONTINUOUS
10
149.85
20
-74.3
11
149.85
21
-75.2
0
LINE
8
BLACK
6
CONTINUOUS
10
149.85
20
-75.2
11
149.831
21
-75.2957
0
LINE
8
BLACK
6
CONTINUOUS
10
149.831
20
-75.2957
11
149.777
21
-75.3768
0
LINE
8
BLACK
6
CONTINUOUS
10
149.777
20
-75.3768
11
149.696
21
-75.431
0
LINE
8
BLACK
6
CONTINUOUS
10
149.696
20
-75.431
11
149.6
21
-75.45
0
LINE
8
BLACK
6
CONTINUOUS
10
149.6
20
-75.45
11
148.9
21
-75.45
0
LINE
8
BLACK
6
CONTINUOUS
10
148.9
20
-75.45
11
148.804
21
-75.431
0
LINE
8
BLACK
6
CONTINUOUS
10
148.804
20
-75.431
11
148.723
21
-75.3768
0
LINE
8
BLACK
6
CONTINUOUS
10
148.723
20
-75.3768
11
148.669
21
-75.2957
0
LINE
8
BLACK
6
CONTINUOUS
10
148.669
20
-75.2957
11
148.65
21
-75.2
0
LINE
8
BLACK
6
CONTINUOUS
10
148.65
20
-75.2
11
148.65
21
-74.3
0
LINE
8
BLACK
6
CONTINUOUS
10
148.65
20
-74.3
11
148.669
21
-74.2043
0
LINE
8
BLACK
6
CONTINUOUS
10
148.669
20
-74.2043
11
148.723
21
-74.1232
0
LINE
8
BLACK
6
CONTINUOUS
10
148.723
20
-74.1232
11
148.804
21
-74.069
0
LINE
8
BLACK
6
CONTINUOUS
10
148.804
20
-74.069
11
148.9
21
-74.05
0
LINE
8
BLACK
6
CONTINUOUS
10
148.9
20
-74.05
11
149.6
21
-74.05
0
LINE
8
BLACK
6
CONTINUOUS
10
149.6
20
-74.05
11
149.696
21
-74.069
0
LINE
8
BLACK
6
CONTINUOUS
10
149.696
20
-71.569
11
149.777
21
-71.6232
0
LINE
8
BLACK
6
CONTINUOUS
10
149.777
20
-71.6232
11
149.831
21
-71.7043
0
LINE
8
BLACK
6
CONTINUOUS
10
149.831
20
-71.7043
11
149.85
21
-71.8
0
LINE
8
BLACK
6
CONTINUOUS
10
149.85
20
-71.8
11
149.85
21
-72.7
0
LINE
8
BLACK
6
CONTINUOUS
10
149.85
20
-72.7
11
149.831
21
-72.7957
0
LINE
8
BLACK
6
CONTINUOUS
10
149.831
20
-72.7957
11
149.777
21
-72.8768
0
LINE
8
BLACK
6
CONTINUOUS
10
149.777
20
-72.8768
11
149.696
21
-72.931
0
LINE
8
BLACK
6
CONTINUOUS
10
149.696
20
-72.931
11
149.6
21
-72.95
0
LINE
8
BLACK
6
CONTINUOUS
10
149.6
20
-72.95
11
148.9
21
-72.95
0
LINE
8
BLACK
6
CONTINUOUS
10
148.9
20
-72.95
11
148.804
21
-72.931
0
LINE
8
BLACK
6
CONTINUOUS
10
148.804
20
-72.931
11
148.723
21
-72.8768
0
LINE
8
BLACK
6
CONTINUOUS
10
148.723
20
-72.8768
11
148.669
21
-72.7957
0
LINE
8
BLACK
6
CONTINUOUS
10
148.669
20
-72.7957
11
148.65
21
-72.7
0
LINE
8
BLACK
6
CONTINUOUS
10
148.65
20
-72.7
11
148.65
21
-71.8
0
LINE
8
BLACK
6
CONTINUOUS
10
148.65
20
-71.8
11
148.669
21
-71.7043
0
LINE
8
BLACK
6
CONTINUOUS
10
148.669
20
-71.7043
11
148.723
21
-71.6232
0
LINE
8
BLACK
6
CONTINUOUS
10
148.723
20
-71.6232
11
148.804
21
-71.569
0
LINE
8
BLACK
6
CONTINUOUS
10
148.804
20
-71.569
11
148.9
21
-71.55
0
LINE
8
BLACK
6
CONTINUOUS
10
148.9
20
-71.55
11
149.6
21
-71.55
0
LINE
8
BLACK
6
CONTINUOUS
10
149.6
20
-71.55
11
149.696
21
-71.569
0
LINE
8
BLACK
6
CONTINUOUS
10
147.696
20
-71.569
11
147.777
21
-71.6232
0
LINE
8
BLACK
6
CONTINUOUS
10
147.777
20
-71.6232
11
147.831
21
-71.7043
0
LINE
8
BLACK
6
CONTINUOUS
10
147.831
20
-71.7043
11
147.85
21
-71.8
0
LINE
8
BLACK
6
CONTINUOUS
10
147.85
20
-71.8
11
147.85
21
-72.7
0
LINE
8
BLACK
6
CONTINUOUS
10
147.85
20
-72.7
11
147.831
21
-72.7957
0
LINE
8
BLACK
6
CONTINUOUS
10
147.831
20
-72.7957
11
147.777
21
-72.8768
0
LINE
8
BLACK
6
CONTINUOUS
10
147.777
20
-72.8768
11
147.696
21
-72.931
0
LINE
8
BLACK
6
CONTINUOUS
10
147.696
20
-72.931
11
147.6
21
-72.95
0
LINE
8
BLACK
6
CONTINUOUS
10
147.6
20
-72.95
11
146.9
21
-72.95
0
LINE
8
BLACK
6
CONTINUOUS
10
146.9
20
-72.95
11
146.804
21
-72.931
0
LINE
8
BLACK
6
CONTINUOUS
10
146.804
20
-72.931
11
146.723
21
-72.8768
0
LINE
8
BLACK
6
CONTINUOUS
10
146.723
20
-72.8768
11
146.669
21
-72.7957
0
LINE
8
BLACK
6
CONTINUOUS
10
146.669
20
-72.7957
11
146.65
21
-72.7
0
LINE
8
BLACK
6
CONTINUOUS
10
146.65
20
-72.7
11
146.65
21
-71.8
0
LINE
8
BLACK
6
CONTINUOUS
10
146.65
20
-71.8
11
146.669
21
-71.7043
0
LINE
8
BLACK
6
CONTINUOUS
10
146.669
20
-71.7043
11
146.723
21
-71.6232
0
LINE
8
BLACK
6
CONTINUOUS
10
146.723
20
-71.6232
11
146.804
21
-71.569
0
LINE
8
BLACK
6
CONTINUOUS
10
146.804
20
-71.569
11
146.9
21
-71.55
0
LINE
8
BLACK
6
CONTINUOUS
10
146.9
20
-71.55
11
147.6
21
-71.55
0
LINE
8
BLACK
6
CONTINUOUS
10
147.6
20
-71.55
11
147.696
21
-71.569
0
LINE
8
BLACK
6
CONTINUOUS
10
147.696
20
-69.319
11
147.777
21
-69.3732
0
LINE
8
BLACK
6
CONTINUOUS
10
147.777
20
-69.3732
11
147.831
21
-69.4543
0
LINE
8
BLACK
6
CONTINUOUS
10
147.831
20
-69.4543
11
147.85
21
-69.55
0
LINE
8
BLACK
6
CONTINUOUS
10
147.85
20
-69.55
11
147.85
21
-70.45
0
LINE
8
BLACK
6
CONTINUOUS
10
147.85
20
-70.45
11
147.831
21
-70.5457
0
LINE
8
BLACK
6
CONTINUOUS
10
147.831
20
-70.5457
11
147.777
21
-70.6268
0
LINE
8
BLACK
6
CONTINUOUS
10
147.777
20
-70.6268
11
147.696
21
-70.681
0
LINE
8
BLACK
6
CONTINUOUS
10
147.696
20
-70.681
11
147.6
21
-70.7
0
LINE
8
BLACK
6
CONTINUOUS
10
147.6
20
-70.7
11
146.9
21
-70.7
0
LINE
8
BLACK
6
CONTINUOUS
10
146.9
20
-70.7
11
146.804
21
-70.681
0
LINE
8
BLACK
6
CONTINUOUS
10
146.804
20
-70.681
11
146.723
21
-70.6268
0
LINE
8
BLACK
6
CONTINUOUS
10
146.723
20
-70.6268
11
146.669
21
-70.5457
0
LINE
8
BLACK
6
CONTINUOUS
10
146.669
20
-70.5457
11
146.65
21
-70.45
0
LINE
8
BLACK
6
CONTINUOUS
10
146.65
20
-70.45
11
146.65
21
-69.55
0
LINE
8
BLACK
6
CONTINUOUS
10
146.65
20
-69.55
11
146.669
21
-69.4543
0
LINE
8
BLACK
6
CONTINUOUS
10
146.669
20
-69.4543
11
146.723
21
-69.3732
0
LINE
8
BLACK
6
CONTINUOUS
10
146.723
20
-69.3732
11
146.804
21
-69.319
0
LINE
8
BLACK
6
CONTINUOUS
10
146.804
20
-69.319
11
146.9
21
-69.3
0
LINE
8
BLACK
6
CONTINUOUS
10
146.9
20
-69.3
11
147.6
21
-69.3
0
LINE
8
BLACK
6
CONTINUOUS
10
147.6
20
-69.3
11
147.696
21
-69.319
0
LINE
8
BLACK
6
CONTINUOUS
10
149.696
20
-69.319
11
149.777
21
-69.3732
0
LINE
8
BLACK
6
CONTINUOUS
10
149.777
20
-69.3732
11
149.831
21
-69.4543
0
LINE
8
BLACK
6
CONTINUOUS
10
149.831
20
-69.4543
11
149.85
21
-69.55
0
LINE
8
BLACK
6
CONTINUOUS
10
149.85
20
-69.55
11
149.85
21
-70.45
0
LINE
8
BLACK
6
CONTINUOUS
10
149.85
20
-70.45
11
149.831
21
-70.5457
0
LINE
8
BLACK
6
CONTINUOUS
10
149.831
20
-70.5457
11
149.777
21
-70.6268
0
LINE
8
BLACK
6
CONTINUOUS
10
149.777
20
-70.6268
11
149.696
21
-70.681
0
LINE
8
BLACK
6
CONTINUOUS
10
149.696
20
-70.681
11
149.6
21
-70.7
0
LINE
8
BLACK
6
CONTINUOUS
10
149.6
20
-70.7
11
148.9
21
-70.7
0
LINE
8
BLACK
6
CONTINUOUS
10
148.9
20
-70.7
11
148.804
21
-70.681
0
LINE
8
BLACK
6
CONTINUOUS
10
148.804
20
-70.681
11
148.723
21
-70.6268
0
LINE
8
BLACK
6
CONTINUOUS
10
148.723
20
-70.6268
11
148.669
21
-70.5457
0
LINE
8
BLACK
6
CONTINUOUS
10
148.669
20
-70.5457
11
148.65
21
-70.45
0
LINE
8
BLACK
6
CONTINUOUS
10
148.65
20
-70.45
11
148.65
21
-69.55
0
LINE
8
BLACK
6
CONTINUOUS
10
148.65
20
-69.55
11
148.669
21
-69.4543
0
LINE
8
BLACK
6
CONTINUOUS
10
148.669
20
-69.4543
11
148.723
21
-69.3732
0
LINE
8
BLACK
6
CONTINUOUS
10
148.723
20
-69.3732
11
148.804
21
-69.319
0
LINE
8
BLACK
6
CONTINUOUS
10
148.804
20
-69.319
11
148.9
21
-69.3
0
LINE
8
BLACK
6
CONTINUOUS
10
148.9
20
-69.3
11
149.6
21
-69.3
0
LINE
8
BLACK
6
CONTINUOUS
10
149.6
20
-69.3
11
149.696
21
-69.319
0
LINE
8
BLACK
6
CONTINUOUS
10
141.696
20
-69.319
11
141.777
21
-69.3732
0
LINE
8
BLACK
6
CONTINUOUS
10
141.777
20
-69.3732
11
141.831
21
-69.4543
0
LINE
8
BLACK
6
CONTINUOUS
10
141.831
20
-69.4543
11
141.85
21
-69.55
0
LINE
8
BLACK
6
CONTINUOUS
10
141.85
20
-69.55
11
141.85
21
-70.45
0
LINE
8
BLACK
6
CONTINUOUS
10
141.85
20
-70.45
11
141.831
21
-70.5457
0
LINE
8
BLACK
6
CONTINUOUS
10
141.831
20
-70.5457
11
141.777
21
-70.6268
0
LINE
8
BLACK
6
CONTINUOUS
10
141.777
20
-70.6268
11
141.696
21
-70.681
0
LINE
8
BLACK
6
CONTINUOUS
10
141.696
20
-70.681
11
141.6
21
-70.7
0
LINE
8
BLACK
6
CONTINUOUS
10
141.6
20
-70.7
11
140.9
21
-70.7
0
LINE
8
BLACK
6
CONTINUOUS
10
140.9
20
-70.7
11
140.804
21
-70.681
0
LINE
8
BLACK
6
CONTINUOUS
10
140.804
20
-70.681
11
140.723
21
-70.6268
0
LINE
8
BLACK
6
CONTINUOUS
10
140.723
20
-70.6268
11
140.669
21
-70.5457
0
LINE
8
BLACK
6
CONTINUOUS
10
140.669
20
-70.5457
11
140.65
21
-70.45
0
LINE
8
BLACK
6
CONTINUOUS
10
140.65
20
-70.45
11
140.65
21
-69.55
0
LINE
8
BLACK
6
CONTINUOUS
10
140.65
20
-69.55
11
140.669
21
-69.4543
0
LINE
8
BLACK
6
CONTINUOUS
10
140.669
20
-69.4543
11
140.723
21
-69.3732
0
LINE
8
BLACK
6
CONTINUOUS
10
140.723
20
-69.3732
11
140.804
21
-69.319
0
LINE
8
BLACK
6
CONTINUOUS
10
140.804
20
-69.319
11
140.9
21
-69.3
0
LINE
8
BLACK
6
CONTINUOUS
10
140.9
20
-69.3
11
141.6
21
-69.3
0
LINE
8
BLACK
6
CONTINUOUS
10
141.6
20
-69.3
11
141.696
21
-69.319
0
LINE
8
BLACK
6
CONTINUOUS
10
143.696
20
-69.319
11
143.777
21
-69.3732
0
LINE
8
BLACK
6
CONTINUOUS
10
143.777
20
-69.3732
11
143.831
21
-69.4543
0
LINE
8
BLACK
6
CONTINUOUS
10
143.831
20
-69.4543
11
143.85
21
-69.55
0
LINE
8
BLACK
6
CONTINUOUS
10
143.85
20
-69.55
11
143.85
21
-70.45
0
LINE
8
BLACK
6
CONTINUOUS
10
143.85
20
-70.45
11
143.831
21
-70.5457
0
LINE
8
BLACK
6
CONTINUOUS
10
143.831
20
-70.5457
11
143.777
21
-70.6268
0
LINE
8
BLACK
6
CONTINUOUS
10
143.777
20
-70.6268
11
143.696
21
-70.681
0
LINE
8
BLACK
6
CONTINUOUS
10
143.696
20
-70.681
11
143.6
21
-70.7
0
LINE
8
BLACK
6
CONTINUOUS
10
143.6
20
-70.7
11
142.9
21
-70.7
0
LINE
8
BLACK
6
CONTINUOUS
10
142.9
20
-70.7
11
142.804
21
-70.681
0
LINE
8
BLACK
6
CONTINUOUS
10
142.804
20
-70.681
11
142.723
21
-70.6268
0
LINE
8
BLACK
6
CONTINUOUS
10
142.723
20
-70.6268
11
142.669
21
-70.5457
0
LINE
8
BLACK
6
CONTINUOUS
10
142.669
20
-70.5457
11
142.65
21
-70.45
0
LINE
8
BLACK
6
CONTINUOUS
10
142.65
20
-70.45
11
142.65
21
-69.55
0
LINE
8
BLACK
6
CONTINUOUS
10
142.65
20
-69.55
11
142.669
21
-69.4543
0
LINE
8
BLACK
6
CONTINUOUS
10
142.669
20
-69.4543
11
142.723
21
-69.3732
0
LINE
8
BLACK
6
CONTINUOUS
10
142.723
20
-69.3732
11
142.804
21
-69.319
0
LINE
8
BLACK
6
CONTINUOUS
10
142.804
20
-69.319
11
142.9
21
-69.3
0
LINE
8
BLACK
6
CONTINUOUS
10
142.9
20
-69.3
11
143.6
21
-69.3
0
LINE
8
BLACK
6
CONTINUOUS
10
143.6
20
-69.3
11
143.696
21
-69.319
  0
ENDSEC
  0
EOF
