  0
SECTION
  2
HEADER
  9
$ANGBASE
  50
0.0
  9
$ANGDIR
  70
1
  9
$MEASUREMENT
  70
1
  0
ENDSEC
  0
SECTION
  2
TABLES
  0
TABLE
  2
LTYPE
  70
4
  0
LTYPE
  5
40F
  2
CONTINUOUS
  70
0
  3
Solid line
  72
65
  73
0
  40
0.0
  0
LTYPE
  5
410
  2
DASHDOT
 70
0
  3
Dash Dot ____ _ ____ _
 72
65
 73
4
 40
2.0
 49
1.25
 49
-0.25
 49
0.25
 49
-0.25
  0
LTYPE
  5
411
  2
DASHED
 70
0
  3
Dashed __ __ __ __ __
 72
65
 73
2
 40
0.75
 49
0.5
 49
-0.25
  0
LTYPE
  5
43B
  2
DOTTED
 70
0
  3
Dotted .  .  .  .
 72
65
 73
2
 40
0.2
 49
0.0
 49
-0.2
  0
ENDTAB
  0
TABLE
  2
STYLE
  70
4
  0
STYLE
  2
KICAD
  70
0
  40
0
  41
1
  42
1
  50
0
  71
0
  3
isocp.shx
  0
STYLE
  2
KICADB
  70
0
  40
0
  41
1
  42
1
  50
0
  71
0
  3
isocp.shx
  0
STYLE
  2
KICADI
  70
0
  40
0
  41
1
  42
1
  50
15
  71
0
  3
isocp.shx
  0
STYLE
  2
KICADBI
  70
0
  40
0
  41
1
  42
1
  50
15
  71
0
  3
isocp.shx
  0
ENDTAB
  0
TABLE
  2
LAYER
  70
1
  0
LAYER
  2
BLACK
  70
0
  62
7
  6
CONTINUOUS
  0
ENDTAB
  0
ENDSEC
  0
SECTION
  2
ENTITIES
0
LINE
8
BLACK
6
CONTINUOUS
10
156.395
20
-79.1319
11
156.398
21
-79.1348
0
LINE
8
BLACK
6
CONTINUOUS
10
156.398
20
-79.1348
11
156.403
21
-79.1353
0
LINE
8
BLACK
6
CONTINUOUS
10
156.403
20
-79.1353
11
156.498
21
-79.1829
0
LINE
8
BLACK
6
CONTINUOUS
10
156.498
20
-79.1829
11
156.516
21
-79.1963
0
LINE
8
BLACK
6
CONTINUOUS
10
156.516
20
-79.1963
11
156.517
21
-79.197
0
LINE
8
BLACK
6
CONTINUOUS
10
156.517
20
-79.197
11
156.613
21
-79.2922
0
LINE
8
BLACK
6
CONTINUOUS
10
156.613
20
-79.2922
11
156.627
21
-79.3135
0
LINE
8
BLACK
6
CONTINUOUS
10
156.627
20
-79.3135
11
156.628
21
-79.3209
0
LINE
8
BLACK
6
CONTINUOUS
10
156.628
20
-79.3209
11
156.632
21
-79.327
0
LINE
8
BLACK
6
CONTINUOUS
10
156.632
20
-79.327
11
156.68
21
-79.5175
0
LINE
8
BLACK
6
CONTINUOUS
10
156.68
20
-79.5175
11
156.681
21
-79.5325
0
LINE
8
BLACK
6
CONTINUOUS
10
156.681
20
-79.5325
11
156.682
21
-79.5357
0
LINE
8
BLACK
6
CONTINUOUS
10
156.682
20
-79.5357
11
156.682
21
-79.869
0
LINE
8
BLACK
6
CONTINUOUS
10
156.682
20
-79.869
11
156.68
21
-79.8838
0
LINE
8
BLACK
6
CONTINUOUS
10
156.68
20
-79.8838
11
156.68
21
-79.8872
0
LINE
8
BLACK
6
CONTINUOUS
10
156.68
20
-79.8872
11
156.632
21
-80.0777
0
LINE
8
BLACK
6
CONTINUOUS
10
156.632
20
-80.0777
11
156.622
21
-80.1015
0
LINE
8
BLACK
6
CONTINUOUS
10
156.622
20
-80.1015
11
156.616
21
-80.1058
0
LINE
8
BLACK
6
CONTINUOUS
10
156.616
20
-80.1058
11
156.613
21
-80.1126
0
LINE
8
BLACK
6
CONTINUOUS
10
156.613
20
-80.1126
11
156.57
21
-80.1548
0
LINE
8
BLACK
6
CONTINUOUS
10
156.57
20
-80.1548
11
156.604
21
-80.1884
0
LINE
8
BLACK
6
CONTINUOUS
10
156.604
20
-80.1884
11
156.688
21
-80.2305
0
LINE
8
BLACK
6
CONTINUOUS
10
156.688
20
-80.2305
11
156.709
21
-80.2461
0
LINE
8
BLACK
6
CONTINUOUS
10
156.709
20
-80.2461
11
156.73
21
-80.2931
0
LINE
8
BLACK
6
CONTINUOUS
10
156.73
20
-80.2931
11
156.715
21
-80.3423
0
LINE
8
BLACK
6
CONTINUOUS
10
156.715
20
-80.3423
11
156.672
21
-80.3706
0
LINE
8
BLACK
6
CONTINUOUS
10
156.672
20
-80.3706
11
156.621
21
-80.3647
0
LINE
8
BLACK
6
CONTINUOUS
10
156.621
20
-80.3647
11
156.526
21
-80.3171
0
LINE
8
BLACK
6
CONTINUOUS
10
156.526
20
-80.3171
11
156.508
21
-80.3037
0
LINE
8
BLACK
6
CONTINUOUS
10
156.508
20
-80.3037
11
156.506
21
-80.303
0
LINE
8
BLACK
6
CONTINUOUS
10
156.506
20
-80.303
11
156.449
21
-80.246
0
LINE
8
BLACK
6
CONTINUOUS
10
156.449
20
-80.246
11
156.403
21
-80.2695
0
LINE
8
BLACK
6
CONTINUOUS
10
156.403
20
-80.2695
11
156.378
21
-80.2769
0
LINE
8
BLACK
6
CONTINUOUS
10
156.378
20
-80.2769
11
156.373
21
-80.2758
0
LINE
8
BLACK
6
CONTINUOUS
10
156.373
20
-80.2758
11
156.369
21
-80.2774
0
LINE
8
BLACK
6
CONTINUOUS
10
156.369
20
-80.2774
11
156.179
21
-80.2774
0
LINE
8
BLACK
6
CONTINUOUS
10
156.179
20
-80.2774
11
156.153
21
-80.2729
0
LINE
8
BLACK
6
CONTINUOUS
10
156.153
20
-80.2729
11
156.149
21
-80.27
0
LINE
8
BLACK
6
CONTINUOUS
10
156.149
20
-80.27
11
156.145
21
-80.2695
0
LINE
8
BLACK
6
CONTINUOUS
10
156.145
20
-80.2695
11
156.05
21
-80.2218
0
LINE
8
BLACK
6
CONTINUOUS
10
156.05
20
-80.2218
11
156.032
21
-80.2085
0
LINE
8
BLACK
6
CONTINUOUS
10
156.032
20
-80.2085
11
156.03
21
-80.2078
0
LINE
8
BLACK
6
CONTINUOUS
10
156.03
20
-80.2078
11
155.935
21
-80.1126
0
LINE
8
BLACK
6
CONTINUOUS
10
155.935
20
-80.1126
11
155.92
21
-80.0912
0
LINE
8
BLACK
6
CONTINUOUS
10
155.92
20
-80.0912
11
155.919
21
-80.0838
0
LINE
8
BLACK
6
CONTINUOUS
10
155.919
20
-80.0838
11
155.915
21
-80.0777
0
LINE
8
BLACK
6
CONTINUOUS
10
155.915
20
-80.0777
11
155.868
21
-79.8872
0
LINE
8
BLACK
6
CONTINUOUS
10
155.868
20
-79.8872
11
155.867
21
-79.8723
0
LINE
8
BLACK
6
CONTINUOUS
10
155.867
20
-79.8723
11
155.865
21
-79.869
0
LINE
8
BLACK
6
CONTINUOUS
10
155.865
20
-79.869
11
155.865
21
-79.5357
0
LINE
8
BLACK
6
CONTINUOUS
10
155.865
20
-79.5357
11
155.868
21
-79.521
0
LINE
8
BLACK
6
CONTINUOUS
10
155.868
20
-79.521
11
155.868
21
-79.5175
0
LINE
8
BLACK
6
CONTINUOUS
10
155.868
20
-79.5175
11
155.915
21
-79.327
0
LINE
8
BLACK
6
CONTINUOUS
10
155.915
20
-79.327
11
155.926
21
-79.3033
0
LINE
8
BLACK
6
CONTINUOUS
10
155.926
20
-79.3033
11
155.932
21
-79.2989
0
LINE
8
BLACK
6
CONTINUOUS
10
155.932
20
-79.2989
11
155.935
21
-79.2922
0
LINE
8
BLACK
6
CONTINUOUS
10
155.935
20
-79.2922
11
156.03
21
-79.197
0
LINE
8
BLACK
6
CONTINUOUS
10
156.03
20
-79.197
11
156.049
21
-79.1841
0
LINE
8
BLACK
6
CONTINUOUS
10
156.049
20
-79.1841
11
156.05
21
-79.1829
0
LINE
8
BLACK
6
CONTINUOUS
10
156.05
20
-79.1829
11
156.145
21
-79.1353
0
LINE
8
BLACK
6
CONTINUOUS
10
156.145
20
-79.1353
11
156.17
21
-79.1279
0
LINE
8
BLACK
6
CONTINUOUS
10
156.17
20
-79.1279
11
156.174
21
-79.1289
0
LINE
8
BLACK
6
CONTINUOUS
10
156.174
20
-79.1289
11
156.179
21
-79.1274
0
LINE
8
BLACK
6
CONTINUOUS
10
156.179
20
-79.1274
11
156.369
21
-79.1274
0
LINE
8
BLACK
6
CONTINUOUS
10
156.369
20
-79.1274
11
156.395
21
-79.1319
0
LINE
8
BLACK
6
CONTINUOUS
10
156.196
20
-79.2774
11
156.128
21
-79.3116
0
LINE
8
BLACK
6
CONTINUOUS
10
156.128
20
-79.3116
11
156.056
21
-79.3836
0
LINE
8
BLACK
6
CONTINUOUS
10
156.056
20
-79.3836
11
156.015
21
-79.5449
0
LINE
8
BLACK
6
CONTINUOUS
10
156.015
20
-79.5449
11
156.015
21
-79.8598
0
LINE
8
BLACK
6
CONTINUOUS
10
156.015
20
-79.8598
11
156.056
21
-80.0212
0
LINE
8
BLACK
6
CONTINUOUS
10
156.056
20
-80.0212
11
156.128
21
-80.0931
0
LINE
8
BLACK
6
CONTINUOUS
10
156.128
20
-80.0931
11
156.196
21
-80.1274
0
LINE
8
BLACK
6
CONTINUOUS
10
156.196
20
-80.1274
11
156.331
21
-80.1274
0
LINE
8
BLACK
6
CONTINUOUS
10
156.331
20
-80.1274
11
156.277
21
-80.0735
0
LINE
8
BLACK
6
CONTINUOUS
10
156.277
20
-80.0735
11
156.208
21
-80.0393
0
LINE
8
BLACK
6
CONTINUOUS
10
156.208
20
-80.0393
11
156.131
21
-80.0393
0
LINE
8
BLACK
6
CONTINUOUS
10
156.131
20
-80.0393
11
156.105
21
-80.0348
0
LINE
8
BLACK
6
CONTINUOUS
10
156.105
20
-80.0348
11
156.066
21
-80.0018
0
LINE
8
BLACK
6
CONTINUOUS
10
156.066
20
-80.0018
11
156.057
21
-79.9513
0
LINE
8
BLACK
6
CONTINUOUS
10
156.057
20
-79.9513
11
156.083
21
-79.9068
0
LINE
8
BLACK
6
CONTINUOUS
10
156.083
20
-79.9068
11
156.131
21
-79.8893
0
LINE
8
BLACK
6
CONTINUOUS
10
156.131
20
-79.8893
11
156.226
21
-79.8893
0
LINE
8
BLACK
6
CONTINUOUS
10
156.226
20
-79.8893
11
156.252
21
-79.8938
0
LINE
8
BLACK
6
CONTINUOUS
10
156.252
20
-79.8938
11
156.255
21
-79.8967
0
LINE
8
BLACK
6
CONTINUOUS
10
156.255
20
-79.8967
11
156.26
21
-79.8972
0
LINE
8
BLACK
6
CONTINUOUS
10
156.26
20
-79.8972
11
156.355
21
-79.9448
0
LINE
8
BLACK
6
CONTINUOUS
10
156.355
20
-79.9448
11
156.373
21
-79.9582
0
LINE
8
BLACK
6
CONTINUOUS
10
156.373
20
-79.9582
11
156.374
21
-79.9589
0
LINE
8
BLACK
6
CONTINUOUS
10
156.374
20
-79.9589
11
156.464
21
-80.0487
0
LINE
8
BLACK
6
CONTINUOUS
10
156.464
20
-80.0487
11
156.492
21
-80.0212
0
LINE
8
BLACK
6
CONTINUOUS
10
156.492
20
-80.0212
11
156.532
21
-79.8598
0
LINE
8
BLACK
6
CONTINUOUS
10
156.532
20
-79.8598
11
156.532
21
-79.5449
0
LINE
8
BLACK
6
CONTINUOUS
10
156.532
20
-79.5449
11
156.492
21
-79.3836
0
LINE
8
BLACK
6
CONTINUOUS
10
156.492
20
-79.3836
11
156.42
21
-79.3116
0
LINE
8
BLACK
6
CONTINUOUS
10
156.42
20
-79.3116
11
156.351
21
-79.2774
0
LINE
8
BLACK
6
CONTINUOUS
10
156.351
20
-79.2774
11
156.196
21
-79.2774
0
LINE
8
BLACK
6
CONTINUOUS
10
157.283
20
-79.1293
11
157.287
21
-79.1285
0
LINE
8
BLACK
6
CONTINUOUS
10
157.287
20
-79.1285
11
157.306
21
-79.1394
0
LINE
8
BLACK
6
CONTINUOUS
10
157.306
20
-79.1394
11
157.326
21
-79.1481
0
LINE
8
BLACK
6
CONTINUOUS
10
157.326
20
-79.1481
11
157.328
21
-79.152
0
LINE
8
BLACK
6
CONTINUOUS
10
157.328
20
-79.152
11
157.331
21
-79.1542
0
LINE
8
BLACK
6
CONTINUOUS
10
157.331
20
-79.1542
11
157.339
21
-79.1746
0
LINE
8
BLACK
6
CONTINUOUS
10
157.339
20
-79.1746
11
157.348
21
-79.1941
0
LINE
8
BLACK
6
CONTINUOUS
10
157.348
20
-79.1941
11
157.347
21
-79.1983
0
LINE
8
BLACK
6
CONTINUOUS
10
157.347
20
-79.1983
11
157.349
21
-79.2024
0
LINE
8
BLACK
6
CONTINUOUS
10
157.349
20
-79.2024
11
157.349
21
-80.1274
0
LINE
8
BLACK
6
CONTINUOUS
10
157.349
20
-80.1274
11
157.56
21
-80.1274
0
LINE
8
BLACK
6
CONTINUOUS
10
157.56
20
-80.1274
11
157.585
21
-80.1319
0
LINE
8
BLACK
6
CONTINUOUS
10
157.585
20
-80.1319
11
157.624
21
-80.1649
0
LINE
8
BLACK
6
CONTINUOUS
10
157.624
20
-80.1649
11
157.633
21
-80.2154
0
LINE
8
BLACK
6
CONTINUOUS
10
157.633
20
-80.2154
11
157.608
21
-80.2598
0
LINE
8
BLACK
6
CONTINUOUS
10
157.608
20
-80.2598
11
157.56
21
-80.2774
0
LINE
8
BLACK
6
CONTINUOUS
10
157.56
20
-80.2774
11
156.988
21
-80.2774
0
LINE
8
BLACK
6
CONTINUOUS
10
156.988
20
-80.2774
11
156.962
21
-80.2729
0
LINE
8
BLACK
6
CONTINUOUS
10
156.962
20
-80.2729
11
156.923
21
-80.2399
0
LINE
8
BLACK
6
CONTINUOUS
10
156.923
20
-80.2399
11
156.914
21
-80.1894
0
LINE
8
BLACK
6
CONTINUOUS
10
156.914
20
-80.1894
11
156.94
21
-80.1449
0
LINE
8
BLACK
6
CONTINUOUS
10
156.94
20
-80.1449
11
156.988
21
-80.1274
0
LINE
8
BLACK
6
CONTINUOUS
10
156.988
20
-80.1274
11
157.199
21
-80.1274
0
LINE
8
BLACK
6
CONTINUOUS
10
157.199
20
-80.1274
11
157.199
21
-79.4311
0
LINE
8
BLACK
6
CONTINUOUS
10
157.199
20
-79.4311
11
157.136
21
-79.4935
0
LINE
8
BLACK
6
CONTINUOUS
10
157.136
20
-79.4935
11
157.118
21
-79.5064
0
LINE
8
BLACK
6
CONTINUOUS
10
157.118
20
-79.5064
11
157.117
21
-79.5076
0
LINE
8
BLACK
6
CONTINUOUS
10
157.117
20
-79.5076
11
157.022
21
-79.5552
0
LINE
8
BLACK
6
CONTINUOUS
10
157.022
20
-79.5552
11
156.997
21
-79.5626
0
LINE
8
BLACK
6
CONTINUOUS
10
156.997
20
-79.5626
11
156.947
21
-79.5507
0
LINE
8
BLACK
6
CONTINUOUS
10
156.947
20
-79.5507
11
156.916
21
-79.5095
0
LINE
8
BLACK
6
CONTINUOUS
10
156.916
20
-79.5095
11
156.919
21
-79.4583
0
LINE
8
BLACK
6
CONTINUOUS
10
156.919
20
-79.4583
11
156.955
21
-79.421
0
LINE
8
BLACK
6
CONTINUOUS
10
156.955
20
-79.421
11
157.039
21
-79.3788
0
LINE
8
BLACK
6
CONTINUOUS
10
157.039
20
-79.3788
11
157.12
21
-79.2975
0
LINE
8
BLACK
6
CONTINUOUS
10
157.12
20
-79.2975
11
157.211
21
-79.1608
0
LINE
8
BLACK
6
CONTINUOUS
10
157.211
20
-79.1608
11
157.229
21
-79.1419
0
LINE
8
BLACK
6
CONTINUOUS
10
157.229
20
-79.1419
11
157.234
21
-79.1407
0
LINE
8
BLACK
6
CONTINUOUS
10
157.234
20
-79.1407
11
157.236
21
-79.1374
0
LINE
8
BLACK
6
CONTINUOUS
10
157.236
20
-79.1374
11
157.258
21
-79.1336
0
LINE
8
BLACK
6
CONTINUOUS
10
157.258
20
-79.1336
11
157.279
21
-79.1275
0
LINE
8
BLACK
6
CONTINUOUS
10
157.279
20
-79.1275
11
157.283
21
-79.1293
0
LINE
8
BLACK
6
CONTINUOUS
10
153.416
20
-74.8927
11
153.722
21
-74.9599
0
LINE
8
BLACK
6
CONTINUOUS
10
153.722
20
-74.9599
11
154.018
21
-75.0625
0
LINE
8
BLACK
6
CONTINUOUS
10
154.018
20
-75.0625
11
154.3
21
-75.1992
0
LINE
8
BLACK
6
CONTINUOUS
10
154.3
20
-75.1992
11
154.564
21
-75.368
0
LINE
8
BLACK
6
CONTINUOUS
10
154.564
20
-75.368
11
154.806
21
-75.5667
0
LINE
8
BLACK
6
CONTINUOUS
10
154.806
20
-75.5667
11
155.023
21
-75.7925
0
LINE
8
BLACK
6
CONTINUOUS
10
155.023
20
-75.7925
11
155.212
21
-76.0422
0
LINE
8
BLACK
6
CONTINUOUS
10
155.212
20
-76.0422
11
155.37
21
-76.3124
0
LINE
8
BLACK
6
CONTINUOUS
10
155.37
20
-76.3124
11
155.496
21
-76.5993
0
LINE
8
BLACK
6
CONTINUOUS
10
155.496
20
-76.5993
11
155.587
21
-76.899
0
LINE
8
BLACK
6
CONTINUOUS
10
155.587
20
-76.899
11
155.642
21
-77.2074
0
LINE
8
BLACK
6
CONTINUOUS
10
155.642
20
-77.2074
11
155.66
21
-77.52
0
LINE
8
BLACK
6
CONTINUOUS
10
155.66
20
-77.52
11
155.642
21
-77.8326
0
LINE
8
BLACK
6
CONTINUOUS
10
155.642
20
-77.8326
11
155.587
21
-78.141
0
LINE
8
BLACK
6
CONTINUOUS
10
155.587
20
-78.141
11
155.496
21
-78.4407
0
LINE
8
BLACK
6
CONTINUOUS
10
155.496
20
-78.4407
11
155.37
21
-78.7276
0
LINE
8
BLACK
6
CONTINUOUS
10
155.37
20
-78.7276
11
155.212
21
-78.9978
0
LINE
8
BLACK
6
CONTINUOUS
10
155.212
20
-78.9978
11
155.023
21
-79.2475
0
LINE
8
BLACK
6
CONTINUOUS
10
155.023
20
-79.2475
11
154.806
21
-79.4733
0
LINE
8
BLACK
6
CONTINUOUS
10
154.806
20
-79.4733
11
154.564
21
-79.672
0
LINE
8
BLACK
6
CONTINUOUS
10
154.564
20
-79.672
11
154.3
21
-79.8408
0
LINE
8
BLACK
6
CONTINUOUS
10
154.3
20
-79.8408
11
154.018
21
-79.9775
0
LINE
8
BLACK
6
CONTINUOUS
10
154.018
20
-79.9775
11
153.722
21
-80.0801
0
LINE
8
BLACK
6
CONTINUOUS
10
153.722
20
-80.0801
11
153.416
21
-80.1473
0
LINE
8
BLACK
6
CONTINUOUS
10
153.416
20
-80.1473
11
153.104
21
-80.1779
0
LINE
8
BLACK
6
CONTINUOUS
10
153.104
20
-80.1779
11
152.791
21
-80.1718
0
LINE
8
BLACK
6
CONTINUOUS
10
152.791
20
-80.1718
11
152.481
21
-80.1289
0
LINE
8
BLACK
6
CONTINUOUS
10
152.481
20
-80.1289
11
152.178
21
-80.0498
0
LINE
8
BLACK
6
CONTINUOUS
10
152.178
20
-80.0498
11
151.886
21
-79.9357
0
LINE
8
BLACK
6
CONTINUOUS
10
151.886
20
-79.9357
11
151.61
21
-79.788
0
LINE
8
BLACK
6
CONTINUOUS
10
151.61
20
-79.788
11
151.353
21
-79.6089
0
LINE
8
BLACK
6
CONTINUOUS
10
151.353
20
-79.6089
11
151.119
21
-79.4009
0
LINE
8
BLACK
6
CONTINUOUS
10
151.119
20
-79.4009
11
151.102
21
-79.3585
0
LINE
8
BLACK
6
CONTINUOUS
10
151.102
20
-79.3585
11
151.104
21
-79.3531
0
LINE
8
BLACK
6
CONTINUOUS
10
151.104
20
-79.3531
11
151.09
21
-79.32
0
LINE
8
BLACK
6
CONTINUOUS
10
151.09
20
-79.32
11
151.09
21
-75.72
0
LINE
8
BLACK
6
CONTINUOUS
10
151.09
20
-75.72
11
151.104
21
-75.6869
0
LINE
8
BLACK
6
CONTINUOUS
10
151.104
20
-75.6869
11
151.102
21
-75.6815
0
LINE
8
BLACK
6
CONTINUOUS
10
151.102
20
-75.6815
11
151.119
21
-75.6391
0
LINE
8
BLACK
6
CONTINUOUS
10
151.119
20
-75.6391
11
151.353
21
-75.4311
0
LINE
8
BLACK
6
CONTINUOUS
10
151.353
20
-75.4311
11
151.61
21
-75.252
0
LINE
8
BLACK
6
CONTINUOUS
10
151.61
20
-75.252
11
151.886
21
-75.1043
0
LINE
8
BLACK
6
CONTINUOUS
10
151.886
20
-75.1043
11
152.178
21
-74.9902
0
LINE
8
BLACK
6
CONTINUOUS
10
152.178
20
-74.9902
11
152.481
21
-74.9111
0
LINE
8
BLACK
6
CONTINUOUS
10
152.481
20
-74.9111
11
152.791
21
-74.8682
0
LINE
8
BLACK
6
CONTINUOUS
10
152.791
20
-74.8682
11
153.104
21
-74.8621
0
LINE
8
BLACK
6
CONTINUOUS
10
153.104
20
-74.8621
11
153.416
21
-74.8927
0
LINE
8
BLACK
6
CONTINUOUS
10
152.8
20
-74.9834
11
152.504
21
-75.0244
0
LINE
8
BLACK
6
CONTINUOUS
10
152.504
20
-75.0244
11
152.214
21
-75.1001
0
LINE
8
BLACK
6
CONTINUOUS
10
152.214
20
-75.1001
11
151.935
21
-75.2093
0
LINE
8
BLACK
6
CONTINUOUS
10
151.935
20
-75.2093
11
151.671
21
-75.3505
0
LINE
8
BLACK
6
CONTINUOUS
10
151.671
20
-75.3505
11
151.425
21
-75.5218
0
LINE
8
BLACK
6
CONTINUOUS
10
151.425
20
-75.5218
11
151.208
21
-75.7145
0
LINE
8
BLACK
6
CONTINUOUS
10
151.208
20
-75.7145
11
151.208
21
-75.7147
0
LINE
8
BLACK
6
CONTINUOUS
10
151.208
20
-75.7147
11
151.21
21
-75.72
0
LINE
8
BLACK
6
CONTINUOUS
10
151.21
20
-75.72
11
151.21
21
-79.32
0
LINE
8
BLACK
6
CONTINUOUS
10
151.21
20
-79.32
11
151.208
21
-79.3253
0
LINE
8
BLACK
6
CONTINUOUS
10
151.208
20
-79.3253
11
151.208
21
-79.3255
0
LINE
8
BLACK
6
CONTINUOUS
10
151.208
20
-79.3255
11
151.425
21
-79.5182
0
LINE
8
BLACK
6
CONTINUOUS
10
151.425
20
-79.5182
11
151.671
21
-79.6895
0
LINE
8
BLACK
6
CONTINUOUS
10
151.671
20
-79.6895
11
151.935
21
-79.8307
0
LINE
8
BLACK
6
CONTINUOUS
10
151.935
20
-79.8307
11
152.214
21
-79.9399
0
LINE
8
BLACK
6
CONTINUOUS
10
152.214
20
-79.9399
11
152.504
21
-80.0156
0
LINE
8
BLACK
6
CONTINUOUS
10
152.504
20
-80.0156
11
152.8
21
-80.0566
0
LINE
8
BLACK
6
CONTINUOUS
10
152.8
20
-80.0566
11
153.1
21
-80.0625
0
LINE
8
BLACK
6
CONTINUOUS
10
153.1
20
-80.0625
11
153.398
21
-80.0331
0
LINE
8
BLACK
6
CONTINUOUS
10
153.398
20
-80.0331
11
153.691
21
-79.9689
0
LINE
8
BLACK
6
CONTINUOUS
10
153.691
20
-79.9689
11
153.974
21
-79.8708
0
LINE
8
BLACK
6
CONTINUOUS
10
153.974
20
-79.8708
11
154.243
21
-79.74
0
LINE
8
BLACK
6
CONTINUOUS
10
154.243
20
-79.74
11
154.496
21
-79.5785
0
LINE
8
BLACK
6
CONTINUOUS
10
154.496
20
-79.5785
11
154.727
21
-79.3885
0
LINE
8
BLACK
6
CONTINUOUS
10
154.727
20
-79.3885
11
154.935
21
-79.1725
0
LINE
8
BLACK
6
CONTINUOUS
10
154.935
20
-79.1725
11
155.116
21
-78.9336
0
LINE
8
BLACK
6
CONTINUOUS
10
155.116
20
-78.9336
11
155.267
21
-78.6752
0
LINE
8
BLACK
6
CONTINUOUS
10
155.267
20
-78.6752
11
155.387
21
-78.4007
0
LINE
8
BLACK
6
CONTINUOUS
10
155.387
20
-78.4007
11
155.474
21
-78.114
0
LINE
8
BLACK
6
CONTINUOUS
10
155.474
20
-78.114
11
155.527
21
-77.8191
0
LINE
8
BLACK
6
CONTINUOUS
10
155.527
20
-77.8191
11
155.544
21
-77.5294
0
LINE
8
BLACK
6
CONTINUOUS
10
155.544
20
-77.5294
11
155.54
21
-77.52
0
LINE
8
BLACK
6
CONTINUOUS
10
155.54
20
-77.52
11
155.544
21
-77.5106
0
LINE
8
BLACK
6
CONTINUOUS
10
155.544
20
-77.5106
11
155.527
21
-77.2209
0
LINE
8
BLACK
6
CONTINUOUS
10
155.527
20
-77.2209
11
155.474
21
-76.926
0
LINE
8
BLACK
6
CONTINUOUS
10
155.474
20
-76.926
11
155.387
21
-76.6393
0
LINE
8
BLACK
6
CONTINUOUS
10
155.387
20
-76.6393
11
155.267
21
-76.3648
0
LINE
8
BLACK
6
CONTINUOUS
10
155.267
20
-76.3648
11
155.116
21
-76.1064
0
LINE
8
BLACK
6
CONTINUOUS
10
155.116
20
-76.1064
11
154.935
21
-75.8675
0
LINE
8
BLACK
6
CONTINUOUS
10
154.935
20
-75.8675
11
154.727
21
-75.6515
0
LINE
8
BLACK
6
CONTINUOUS
10
154.727
20
-75.6515
11
154.496
21
-75.4615
0
LINE
8
BLACK
6
CONTINUOUS
10
154.496
20
-75.4615
11
154.243
21
-75.3
0
LINE
8
BLACK
6
CONTINUOUS
10
154.243
20
-75.3
11
153.974
21
-75.1692
0
LINE
8
BLACK
6
CONTINUOUS
10
153.974
20
-75.1692
11
153.691
21
-75.0711
0
LINE
8
BLACK
6
CONTINUOUS
10
153.691
20
-75.0711
11
153.398
21
-75.0069
0
LINE
8
BLACK
6
CONTINUOUS
10
153.398
20
-75.0069
11
153.1
21
-74.9775
0
LINE
8
BLACK
6
CONTINUOUS
10
153.1
20
-74.9775
11
152.8
21
-74.9834
0
LINE
8
BLACK
6
CONTINUOUS
10
148.519
20
-79.9426
11
148.537
21
-79.985
0
LINE
8
BLACK
6
CONTINUOUS
10
148.537
20
-79.985
11
148.519
21
-80.0274
0
LINE
8
BLACK
6
CONTINUOUS
10
148.519
20
-80.0274
11
148.477
21
-80.045
0
LINE
8
BLACK
6
CONTINUOUS
10
148.477
20
-80.045
11
148.023
21
-80.045
0
LINE
8
BLACK
6
CONTINUOUS
10
148.023
20
-80.045
11
147.981
21
-80.0274
0
LINE
8
BLACK
6
CONTINUOUS
10
147.981
20
-80.0274
11
147.963
21
-79.985
0
LINE
8
BLACK
6
CONTINUOUS
10
147.963
20
-79.985
11
147.981
21
-79.9426
0
LINE
8
BLACK
6
CONTINUOUS
10
147.981
20
-79.9426
11
148.023
21
-79.925
0
LINE
8
BLACK
6
CONTINUOUS
10
148.023
20
-79.925
11
148.477
21
-79.925
0
LINE
8
BLACK
6
CONTINUOUS
10
148.477
20
-79.925
11
148.519
21
-79.9426
0
LINE
8
BLACK
6
CONTINUOUS
10
142.519
20
-79.9426
11
142.537
21
-79.985
0
LINE
8
BLACK
6
CONTINUOUS
10
142.537
20
-79.985
11
142.519
21
-80.0274
0
LINE
8
BLACK
6
CONTINUOUS
10
142.519
20
-80.0274
11
142.477
21
-80.045
0
LINE
8
BLACK
6
CONTINUOUS
10
142.477
20
-80.045
11
142.023
21
-80.045
0
LINE
8
BLACK
6
CONTINUOUS
10
142.023
20
-80.045
11
141.981
21
-80.0274
0
LINE
8
BLACK
6
CONTINUOUS
10
141.981
20
-80.0274
11
141.963
21
-79.985
0
LINE
8
BLACK
6
CONTINUOUS
10
141.963
20
-79.985
11
141.981
21
-79.9426
0
LINE
8
BLACK
6
CONTINUOUS
10
141.981
20
-79.9426
11
142.023
21
-79.925
0
LINE
8
BLACK
6
CONTINUOUS
10
142.023
20
-79.925
11
142.477
21
-79.925
0
LINE
8
BLACK
6
CONTINUOUS
10
142.477
20
-79.925
11
142.519
21
-79.9426
0
LINE
8
BLACK
6
CONTINUOUS
10
145.871
20
-78.6319
11
145.874
21
-78.6348
0
LINE
8
BLACK
6
CONTINUOUS
10
145.874
20
-78.6348
11
145.879
21
-78.6353
0
LINE
8
BLACK
6
CONTINUOUS
10
145.879
20
-78.6353
11
145.974
21
-78.6829
0
LINE
8
BLACK
6
CONTINUOUS
10
145.974
20
-78.6829
11
145.992
21
-78.6963
0
LINE
8
BLACK
6
CONTINUOUS
10
145.992
20
-78.6963
11
145.994
21
-78.697
0
LINE
8
BLACK
6
CONTINUOUS
10
145.994
20
-78.697
11
146.041
21
-78.7446
0
LINE
8
BLACK
6
CONTINUOUS
10
146.041
20
-78.7446
11
146.054
21
-78.763
0
LINE
8
BLACK
6
CONTINUOUS
10
146.054
20
-78.763
11
146.055
21
-78.7641
0
LINE
8
BLACK
6
CONTINUOUS
10
146.055
20
-78.7641
11
146.103
21
-78.8593
0
LINE
8
BLACK
6
CONTINUOUS
10
146.103
20
-78.8593
11
146.11
21
-78.8843
0
LINE
8
BLACK
6
CONTINUOUS
10
146.11
20
-78.8843
11
146.109
21
-78.8886
0
LINE
8
BLACK
6
CONTINUOUS
10
146.109
20
-78.8886
11
146.111
21
-78.8929
0
LINE
8
BLACK
6
CONTINUOUS
10
146.111
20
-78.8929
11
146.111
21
-78.9881
0
LINE
8
BLACK
6
CONTINUOUS
10
146.111
20
-78.9881
11
146.107
21
-79.0102
0
LINE
8
BLACK
6
CONTINUOUS
10
146.107
20
-79.0102
11
146.107
21
-79.0118
0
LINE
8
BLACK
6
CONTINUOUS
10
146.107
20
-79.0118
11
146.059
21
-79.1547
0
LINE
8
BLACK
6
CONTINUOUS
10
146.059
20
-79.1547
11
146.047
21
-79.1776
0
LINE
8
BLACK
6
CONTINUOUS
10
146.047
20
-79.1776
11
146.043
21
-79.1799
0
LINE
8
BLACK
6
CONTINUOUS
10
146.043
20
-79.1799
11
146.041
21
-79.184
0
LINE
8
BLACK
6
CONTINUOUS
10
146.041
20
-79.184
11
145.598
21
-79.6274
0
LINE
8
BLACK
6
CONTINUOUS
10
145.598
20
-79.6274
11
146.036
21
-79.6274
0
LINE
8
BLACK
6
CONTINUOUS
10
146.036
20
-79.6274
11
146.061
21
-79.6319
0
LINE
8
BLACK
6
CONTINUOUS
10
146.061
20
-79.6319
11
146.101
21
-79.6649
0
LINE
8
BLACK
6
CONTINUOUS
10
146.101
20
-79.6649
11
146.11
21
-79.7154
0
LINE
8
BLACK
6
CONTINUOUS
10
146.11
20
-79.7154
11
146.084
21
-79.7598
0
LINE
8
BLACK
6
CONTINUOUS
10
146.084
20
-79.7598
11
146.036
21
-79.7774
0
LINE
8
BLACK
6
CONTINUOUS
10
146.036
20
-79.7774
11
145.417
21
-79.7774
0
LINE
8
BLACK
6
CONTINUOUS
10
145.417
20
-79.7774
11
145.401
21
-79.7745
0
LINE
8
BLACK
6
CONTINUOUS
10
145.401
20
-79.7745
11
145.397
21
-79.7748
0
LINE
8
BLACK
6
CONTINUOUS
10
145.397
20
-79.7748
11
145.396
21
-79.7737
0
LINE
8
BLACK
6
CONTINUOUS
10
145.396
20
-79.7737
11
145.391
21
-79.7729
0
LINE
8
BLACK
6
CONTINUOUS
10
145.391
20
-79.7729
11
145.374
21
-79.7583
0
LINE
8
BLACK
6
CONTINUOUS
10
145.374
20
-79.7583
11
145.355
21
-79.7454
0
LINE
8
BLACK
6
CONTINUOUS
10
145.355
20
-79.7454
11
145.354
21
-79.7421
0
LINE
8
BLACK
6
CONTINUOUS
10
145.354
20
-79.7421
11
145.352
21
-79.7399
0
LINE
8
BLACK
6
CONTINUOUS
10
145.352
20
-79.7399
11
145.348
21
-79.7176
0
LINE
8
BLACK
6
CONTINUOUS
10
145.348
20
-79.7176
11
145.342
21
-79.6958
0
LINE
8
BLACK
6
CONTINUOUS
10
145.342
20
-79.6958
11
145.343
21
-79.6927
0
LINE
8
BLACK
6
CONTINUOUS
10
145.343
20
-79.6927
11
145.343
21
-79.6894
0
LINE
8
BLACK
6
CONTINUOUS
10
145.343
20
-79.6894
11
145.354
21
-79.6698
0
LINE
8
BLACK
6
CONTINUOUS
10
145.354
20
-79.6698
11
145.364
21
-79.6493
0
LINE
8
BLACK
6
CONTINUOUS
10
145.364
20
-79.6493
11
145.923
21
-79.0904
0
LINE
8
BLACK
6
CONTINUOUS
10
145.923
20
-79.0904
11
145.961
21
-78.9759
0
LINE
8
BLACK
6
CONTINUOUS
10
145.961
20
-78.9759
11
145.961
21
-78.9106
0
LINE
8
BLACK
6
CONTINUOUS
10
145.961
20
-78.9106
11
145.926
21
-78.842
0
LINE
8
BLACK
6
CONTINUOUS
10
145.926
20
-78.842
11
145.896
21
-78.8116
0
LINE
8
BLACK
6
CONTINUOUS
10
145.896
20
-78.8116
11
145.828
21
-78.7774
0
LINE
8
BLACK
6
CONTINUOUS
10
145.828
20
-78.7774
11
145.625
21
-78.7774
0
LINE
8
BLACK
6
CONTINUOUS
10
145.625
20
-78.7774
11
145.556
21
-78.8116
0
LINE
8
BLACK
6
CONTINUOUS
10
145.556
20
-78.8116
11
145.517
21
-78.8507
0
LINE
8
BLACK
6
CONTINUOUS
10
145.517
20
-78.8507
11
145.496
21
-78.8656
0
LINE
8
BLACK
6
CONTINUOUS
10
145.496
20
-78.8656
11
145.445
21
-78.8701
0
LINE
8
BLACK
6
CONTINUOUS
10
145.445
20
-78.8701
11
145.403
21
-78.8406
0
LINE
8
BLACK
6
CONTINUOUS
10
145.403
20
-78.8406
11
145.39
21
-78.7911
0
LINE
8
BLACK
6
CONTINUOUS
10
145.39
20
-78.7911
11
145.411
21
-78.7446
0
LINE
8
BLACK
6
CONTINUOUS
10
145.411
20
-78.7446
11
145.459
21
-78.697
0
LINE
8
BLACK
6
CONTINUOUS
10
145.459
20
-78.697
11
145.477
21
-78.6841
0
LINE
8
BLACK
6
CONTINUOUS
10
145.477
20
-78.6841
11
145.478
21
-78.6829
0
LINE
8
BLACK
6
CONTINUOUS
10
145.478
20
-78.6829
11
145.574
21
-78.6353
0
LINE
8
BLACK
6
CONTINUOUS
10
145.574
20
-78.6353
11
145.599
21
-78.6279
0
LINE
8
BLACK
6
CONTINUOUS
10
145.599
20
-78.6279
11
145.603
21
-78.6289
0
LINE
8
BLACK
6
CONTINUOUS
10
145.603
20
-78.6289
11
145.607
21
-78.6274
0
LINE
8
BLACK
6
CONTINUOUS
10
145.607
20
-78.6274
11
145.845
21
-78.6274
0
LINE
8
BLACK
6
CONTINUOUS
10
145.845
20
-78.6274
11
145.871
21
-78.6319
0
LINE
8
BLACK
6
CONTINUOUS
10
144.919
20
-78.6319
11
144.922
21
-78.6348
0
LINE
8
BLACK
6
CONTINUOUS
10
144.922
20
-78.6348
11
144.926
21
-78.6353
0
LINE
8
BLACK
6
CONTINUOUS
10
144.926
20
-78.6353
11
145.022
21
-78.6829
0
LINE
8
BLACK
6
CONTINUOUS
10
145.022
20
-78.6829
11
145.04
21
-78.6963
0
LINE
8
BLACK
6
CONTINUOUS
10
145.04
20
-78.6963
11
145.041
21
-78.697
0
LINE
8
BLACK
6
CONTINUOUS
10
145.041
20
-78.697
11
145.089
21
-78.7446
0
LINE
8
BLACK
6
CONTINUOUS
10
145.089
20
-78.7446
11
145.102
21
-78.763
0
LINE
8
BLACK
6
CONTINUOUS
10
145.102
20
-78.763
11
145.103
21
-78.7641
0
LINE
8
BLACK
6
CONTINUOUS
10
145.103
20
-78.7641
11
145.15
21
-78.8593
0
LINE
8
BLACK
6
CONTINUOUS
10
145.15
20
-78.8593
11
145.158
21
-78.8843
0
LINE
8
BLACK
6
CONTINUOUS
10
145.158
20
-78.8843
11
145.157
21
-78.8886
0
LINE
8
BLACK
6
CONTINUOUS
10
145.157
20
-78.8886
11
145.158
21
-78.8929
0
LINE
8
BLACK
6
CONTINUOUS
10
145.158
20
-78.8929
11
145.158
21
-79.0357
0
LINE
8
BLACK
6
CONTINUOUS
10
145.158
20
-79.0357
11
145.154
21
-79.0614
0
LINE
8
BLACK
6
CONTINUOUS
10
145.154
20
-79.0614
11
145.151
21
-79.0648
0
LINE
8
BLACK
6
CONTINUOUS
10
145.151
20
-79.0648
11
145.15
21
-79.0693
0
LINE
8
BLACK
6
CONTINUOUS
10
145.15
20
-79.0693
11
145.103
21
-79.1645
0
LINE
8
BLACK
6
CONTINUOUS
10
145.103
20
-79.1645
11
145.089
21
-79.1825
0
LINE
8
BLACK
6
CONTINUOUS
10
145.089
20
-79.1825
11
145.089
21
-79.184
0
LINE
8
BLACK
6
CONTINUOUS
10
145.089
20
-79.184
11
145.041
21
-79.2316
0
LINE
8
BLACK
6
CONTINUOUS
10
145.041
20
-79.2316
11
145.023
21
-79.2445
0
LINE
8
BLACK
6
CONTINUOUS
10
145.023
20
-79.2445
11
145.022
21
-79.2457
0
LINE
8
BLACK
6
CONTINUOUS
10
145.022
20
-79.2457
11
144.926
21
-79.2933
0
LINE
8
BLACK
6
CONTINUOUS
10
144.926
20
-79.2933
11
144.901
21
-79.3007
0
LINE
8
BLACK
6
CONTINUOUS
10
144.901
20
-79.3007
11
144.897
21
-79.2997
0
LINE
8
BLACK
6
CONTINUOUS
10
144.897
20
-79.2997
11
144.894
21
-79.3008
0
LINE
8
BLACK
6
CONTINUOUS
10
144.894
20
-79.3008
11
145.145
21
-79.6594
0
LINE
8
BLACK
6
CONTINUOUS
10
145.145
20
-79.6594
11
145.156
21
-79.683
0
LINE
8
BLACK
6
CONTINUOUS
10
145.156
20
-79.683
11
145.151
21
-79.7341
0
LINE
8
BLACK
6
CONTINUOUS
10
145.151
20
-79.7341
11
145.115
21
-79.7704
0
LINE
8
BLACK
6
CONTINUOUS
10
145.115
20
-79.7704
11
145.064
21
-79.7748
0
LINE
8
BLACK
6
CONTINUOUS
10
145.064
20
-79.7748
11
145.022
21
-79.7454
0
LINE
8
BLACK
6
CONTINUOUS
10
145.022
20
-79.7454
11
144.711
21
-79.3012
0
LINE
8
BLACK
6
CONTINUOUS
10
144.711
20
-79.3012
11
144.587
21
-79.3012
0
LINE
8
BLACK
6
CONTINUOUS
10
144.587
20
-79.3012
11
144.587
21
-79.7024
0
LINE
8
BLACK
6
CONTINUOUS
10
144.587
20
-79.7024
11
144.582
21
-79.728
0
LINE
8
BLACK
6
CONTINUOUS
10
144.582
20
-79.728
11
144.549
21
-79.7673
0
LINE
8
BLACK
6
CONTINUOUS
10
144.549
20
-79.7673
11
144.499
21
-79.7762
0
LINE
8
BLACK
6
CONTINUOUS
10
144.499
20
-79.7762
11
144.454
21
-79.7506
0
LINE
8
BLACK
6
CONTINUOUS
10
144.454
20
-79.7506
11
144.437
21
-79.7024
0
LINE
8
BLACK
6
CONTINUOUS
10
144.437
20
-79.7024
11
144.437
21
-78.7024
0
LINE
8
BLACK
6
CONTINUOUS
10
144.437
20
-78.7024
11
144.439
21
-78.6926
0
LINE
8
BLACK
6
CONTINUOUS
10
144.439
20
-78.6926
11
144.438
21
-78.6894
0
LINE
8
BLACK
6
CONTINUOUS
10
144.438
20
-78.6894
11
144.44
21
-78.6865
0
LINE
8
BLACK
6
CONTINUOUS
10
144.44
20
-78.6865
11
144.441
21
-78.6767
0
LINE
8
BLACK
6
CONTINUOUS
10
144.441
20
-78.6767
11
144.454
21
-78.6618
0
LINE
8
BLACK
6
CONTINUOUS
10
144.454
20
-78.6618
11
144.464
21
-78.6449
0
LINE
8
BLACK
6
CONTINUOUS
10
144.464
20
-78.6449
11
144.47
21
-78.6426
0
LINE
8
BLACK
6
CONTINUOUS
10
144.47
20
-78.6426
11
144.474
21
-78.6374
0
LINE
8
BLACK
6
CONTINUOUS
10
144.474
20
-78.6374
11
144.494
21
-78.634
0
LINE
8
BLACK
6
CONTINUOUS
10
144.494
20
-78.634
11
144.512
21
-78.6274
0
LINE
8
BLACK
6
CONTINUOUS
10
144.512
20
-78.6274
11
144.893
21
-78.6274
0
LINE
8
BLACK
6
CONTINUOUS
10
144.893
20
-78.6274
11
144.919
21
-78.6319
0
LINE
8
BLACK
6
CONTINUOUS
10
144.587
20
-78.7774
11
144.587
21
-79.1512
0
LINE
8
BLACK
6
CONTINUOUS
10
144.587
20
-79.1512
11
144.875
21
-79.1512
0
LINE
8
BLACK
6
CONTINUOUS
10
144.875
20
-79.1512
11
144.944
21
-79.1169
0
LINE
8
BLACK
6
CONTINUOUS
10
144.944
20
-79.1169
11
144.974
21
-79.0865
0
LINE
8
BLACK
6
CONTINUOUS
10
144.974
20
-79.0865
11
145.008
21
-79.018
0
LINE
8
BLACK
6
CONTINUOUS
10
145.008
20
-79.018
11
145.008
21
-78.9106
0
LINE
8
BLACK
6
CONTINUOUS
10
145.008
20
-78.9106
11
144.974
21
-78.842
0
LINE
8
BLACK
6
CONTINUOUS
10
144.974
20
-78.842
11
144.944
21
-78.8116
0
LINE
8
BLACK
6
CONTINUOUS
10
144.944
20
-78.8116
11
144.875
21
-78.7774
0
LINE
8
BLACK
6
CONTINUOUS
10
144.875
20
-78.7774
11
144.587
21
-78.7774
0
LINE
8
BLACK
6
CONTINUOUS
10
136.878
20
-78.6774
11
136.86
21
-78.635
0
LINE
8
BLACK
6
CONTINUOUS
10
136.86
20
-78.635
11
136.86
21
-73.495
0
LINE
8
BLACK
6
CONTINUOUS
10
136.86
20
-73.495
11
136.878
21
-73.4526
0
LINE
8
BLACK
6
CONTINUOUS
10
136.878
20
-73.4526
11
136.92
21
-73.435
0
LINE
8
BLACK
6
CONTINUOUS
10
136.92
20
-73.435
11
139.58
21
-73.435
0
LINE
8
BLACK
6
CONTINUOUS
10
139.58
20
-73.435
11
139.622
21
-73.4526
0
LINE
8
BLACK
6
CONTINUOUS
10
139.622
20
-73.4526
11
139.64
21
-73.495
0
LINE
8
BLACK
6
CONTINUOUS
10
139.64
20
-73.495
11
139.64
21
-78.635
0
LINE
8
BLACK
6
CONTINUOUS
10
139.64
20
-78.635
11
139.622
21
-78.6774
0
LINE
8
BLACK
6
CONTINUOUS
10
139.622
20
-78.6774
11
139.58
21
-78.695
0
LINE
8
BLACK
6
CONTINUOUS
10
139.58
20
-78.695
11
136.92
21
-78.695
0
LINE
8
BLACK
6
CONTINUOUS
10
136.92
20
-78.695
11
136.878
21
-78.6774
0
LINE
8
BLACK
6
CONTINUOUS
10
136.98
20
-73.555
11
136.98
21
-78.575
0
LINE
8
BLACK
6
CONTINUOUS
10
136.98
20
-78.575
11
139.52
21
-78.575
0
LINE
8
BLACK
6
CONTINUOUS
10
139.52
20
-78.575
11
139.52
21
-73.555
0
LINE
8
BLACK
6
CONTINUOUS
10
139.52
20
-73.555
11
136.98
21
-73.555
0
LINE
8
BLACK
6
CONTINUOUS
10
142.519
20
-78.4726
11
142.537
21
-78.515
0
LINE
8
BLACK
6
CONTINUOUS
10
142.537
20
-78.515
11
142.519
21
-78.5574
0
LINE
8
BLACK
6
CONTINUOUS
10
142.519
20
-78.5574
11
142.477
21
-78.575
0
LINE
8
BLACK
6
CONTINUOUS
10
142.477
20
-78.575
11
142.023
21
-78.575
0
LINE
8
BLACK
6
CONTINUOUS
10
142.023
20
-78.575
11
141.981
21
-78.5574
0
LINE
8
BLACK
6
CONTINUOUS
10
141.981
20
-78.5574
11
141.963
21
-78.515
0
LINE
8
BLACK
6
CONTINUOUS
10
141.963
20
-78.515
11
141.981
21
-78.4726
0
LINE
8
BLACK
6
CONTINUOUS
10
141.981
20
-78.4726
11
142.023
21
-78.455
0
LINE
8
BLACK
6
CONTINUOUS
10
142.023
20
-78.455
11
142.477
21
-78.455
0
LINE
8
BLACK
6
CONTINUOUS
10
142.477
20
-78.455
11
142.519
21
-78.4726
0
LINE
8
BLACK
6
CONTINUOUS
10
148.519
20
-78.4726
11
148.537
21
-78.515
0
LINE
8
BLACK
6
CONTINUOUS
10
148.537
20
-78.515
11
148.519
21
-78.5574
0
LINE
8
BLACK
6
CONTINUOUS
10
148.519
20
-78.5574
11
148.477
21
-78.575
0
LINE
8
BLACK
6
CONTINUOUS
10
148.477
20
-78.575
11
148.023
21
-78.575
0
LINE
8
BLACK
6
CONTINUOUS
10
148.023
20
-78.575
11
147.981
21
-78.5574
0
LINE
8
BLACK
6
CONTINUOUS
10
147.981
20
-78.5574
11
147.963
21
-78.515
0
LINE
8
BLACK
6
CONTINUOUS
10
147.963
20
-78.515
11
147.981
21
-78.4726
0
LINE
8
BLACK
6
CONTINUOUS
10
147.981
20
-78.4726
11
148.023
21
-78.455
0
LINE
8
BLACK
6
CONTINUOUS
10
148.023
20
-78.455
11
148.477
21
-78.455
0
LINE
8
BLACK
6
CONTINUOUS
10
148.477
20
-78.455
11
148.519
21
-78.4726
0
LINE
8
BLACK
6
CONTINUOUS
10
143.109
20
-76.8819
11
143.116
21
-76.8876
0
LINE
8
BLACK
6
CONTINUOUS
10
143.116
20
-76.8876
11
143.124
21
-76.8896
0
LINE
8
BLACK
6
CONTINUOUS
10
143.124
20
-76.8896
11
143.135
21
-76.9036
0
LINE
8
BLACK
6
CONTINUOUS
10
143.135
20
-76.9036
11
143.148
21
-76.9149
0
LINE
8
BLACK
6
CONTINUOUS
10
143.148
20
-76.9149
11
143.15
21
-76.9236
0
LINE
8
BLACK
6
CONTINUOUS
10
143.15
20
-76.9236
11
143.155
21
-76.9307
0
LINE
8
BLACK
6
CONTINUOUS
10
143.155
20
-76.9307
11
143.154
21
-76.9482
0
LINE
8
BLACK
6
CONTINUOUS
10
143.154
20
-76.9482
11
143.157
21
-76.9654
0
LINE
8
BLACK
6
CONTINUOUS
10
143.157
20
-76.9654
11
143.153
21
-76.9731
0
LINE
8
BLACK
6
CONTINUOUS
10
143.153
20
-76.9731
11
143.152
21
-76.9819
0
LINE
8
BLACK
6
CONTINUOUS
10
143.152
20
-76.9819
11
142.724
21
-77.9819
0
LINE
8
BLACK
6
CONTINUOUS
10
142.724
20
-77.9819
11
142.709
21
-78.0037
0
LINE
8
BLACK
6
CONTINUOUS
10
142.709
20
-78.0037
11
142.664
21
-78.0269
0
LINE
8
BLACK
6
CONTINUOUS
10
142.664
20
-78.0269
11
142.614
21
-78.0151
0
LINE
8
BLACK
6
CONTINUOUS
10
142.614
20
-78.0151
11
142.583
21
-77.9741
0
LINE
8
BLACK
6
CONTINUOUS
10
142.583
20
-77.9741
11
142.586
21
-77.9228
0
LINE
8
BLACK
6
CONTINUOUS
10
142.586
20
-77.9228
11
142.97
21
-77.0274
0
LINE
8
BLACK
6
CONTINUOUS
10
142.97
20
-77.0274
11
142.417
21
-77.0274
0
LINE
8
BLACK
6
CONTINUOUS
10
142.417
20
-77.0274
11
142.391
21
-77.0229
0
LINE
8
BLACK
6
CONTINUOUS
10
142.391
20
-77.0229
11
142.352
21
-76.9899
0
LINE
8
BLACK
6
CONTINUOUS
10
142.352
20
-76.9899
11
142.343
21
-76.9394
0
LINE
8
BLACK
6
CONTINUOUS
10
142.343
20
-76.9394
11
142.368
21
-76.8949
0
LINE
8
BLACK
6
CONTINUOUS
10
142.368
20
-76.8949
11
142.417
21
-76.8774
0
LINE
8
BLACK
6
CONTINUOUS
10
142.417
20
-76.8774
11
143.083
21
-76.8774
0
LINE
8
BLACK
6
CONTINUOUS
10
143.083
20
-76.8774
11
143.109
21
-76.8819
0
LINE
8
BLACK
6
CONTINUOUS
10
141.919
20
-76.8819
11
141.922
21
-76.8848
0
LINE
8
BLACK
6
CONTINUOUS
10
141.922
20
-76.8848
11
141.926
21
-76.8853
0
LINE
8
BLACK
6
CONTINUOUS
10
141.926
20
-76.8853
11
142.022
21
-76.9329
0
LINE
8
BLACK
6
CONTINUOUS
10
142.022
20
-76.9329
11
142.04
21
-76.9463
0
LINE
8
BLACK
6
CONTINUOUS
10
142.04
20
-76.9463
11
142.041
21
-76.947
0
LINE
8
BLACK
6
CONTINUOUS
10
142.041
20
-76.947
11
142.089
21
-76.9946
0
LINE
8
BLACK
6
CONTINUOUS
10
142.089
20
-76.9946
11
142.102
21
-77.013
0
LINE
8
BLACK
6
CONTINUOUS
10
142.102
20
-77.013
11
142.103
21
-77.0141
0
LINE
8
BLACK
6
CONTINUOUS
10
142.103
20
-77.0141
11
142.15
21
-77.1093
0
LINE
8
BLACK
6
CONTINUOUS
10
142.15
20
-77.1093
11
142.158
21
-77.1343
0
LINE
8
BLACK
6
CONTINUOUS
10
142.158
20
-77.1343
11
142.157
21
-77.1386
0
LINE
8
BLACK
6
CONTINUOUS
10
142.157
20
-77.1386
11
142.158
21
-77.1429
0
LINE
8
BLACK
6
CONTINUOUS
10
142.158
20
-77.1429
11
142.158
21
-77.2857
0
LINE
8
BLACK
6
CONTINUOUS
10
142.158
20
-77.2857
11
142.154
21
-77.3114
0
LINE
8
BLACK
6
CONTINUOUS
10
142.154
20
-77.3114
11
142.151
21
-77.3148
0
LINE
8
BLACK
6
CONTINUOUS
10
142.151
20
-77.3148
11
142.15
21
-77.3193
0
LINE
8
BLACK
6
CONTINUOUS
10
142.15
20
-77.3193
11
142.103
21
-77.4145
0
LINE
8
BLACK
6
CONTINUOUS
10
142.103
20
-77.4145
11
142.089
21
-77.4325
0
LINE
8
BLACK
6
CONTINUOUS
10
142.089
20
-77.4325
11
142.089
21
-77.434
0
LINE
8
BLACK
6
CONTINUOUS
10
142.089
20
-77.434
11
142.041
21
-77.4816
0
LINE
8
BLACK
6
CONTINUOUS
10
142.041
20
-77.4816
11
142.023
21
-77.4945
0
LINE
8
BLACK
6
CONTINUOUS
10
142.023
20
-77.4945
11
142.022
21
-77.4957
0
LINE
8
BLACK
6
CONTINUOUS
10
142.022
20
-77.4957
11
141.926
21
-77.5433
0
LINE
8
BLACK
6
CONTINUOUS
10
141.926
20
-77.5433
11
141.901
21
-77.5507
0
LINE
8
BLACK
6
CONTINUOUS
10
141.901
20
-77.5507
11
141.897
21
-77.5497
0
LINE
8
BLACK
6
CONTINUOUS
10
141.897
20
-77.5497
11
141.894
21
-77.5508
0
LINE
8
BLACK
6
CONTINUOUS
10
141.894
20
-77.5508
11
142.145
21
-77.9094
0
LINE
8
BLACK
6
CONTINUOUS
10
142.145
20
-77.9094
11
142.156
21
-77.933
0
LINE
8
BLACK
6
CONTINUOUS
10
142.156
20
-77.933
11
142.151
21
-77.9841
0
LINE
8
BLACK
6
CONTINUOUS
10
142.151
20
-77.9841
11
142.115
21
-78.0204
0
LINE
8
BLACK
6
CONTINUOUS
10
142.115
20
-78.0204
11
142.064
21
-78.0248
0
LINE
8
BLACK
6
CONTINUOUS
10
142.064
20
-78.0248
11
142.022
21
-77.9954
0
LINE
8
BLACK
6
CONTINUOUS
10
142.022
20
-77.9954
11
141.711
21
-77.5512
0
LINE
8
BLACK
6
CONTINUOUS
10
141.711
20
-77.5512
11
141.587
21
-77.5512
0
LINE
8
BLACK
6
CONTINUOUS
10
141.587
20
-77.5512
11
141.587
21
-77.9524
0
LINE
8
BLACK
6
CONTINUOUS
10
141.587
20
-77.9524
11
141.582
21
-77.978
0
LINE
8
BLACK
6
CONTINUOUS
10
141.582
20
-77.978
11
141.549
21
-78.0173
0
LINE
8
BLACK
6
CONTINUOUS
10
141.549
20
-78.0173
11
141.499
21
-78.0262
0
LINE
8
BLACK
6
CONTINUOUS
10
141.499
20
-78.0262
11
141.454
21
-78.0006
0
LINE
8
BLACK
6
CONTINUOUS
10
141.454
20
-78.0006
11
141.437
21
-77.9524
0
LINE
8
BLACK
6
CONTINUOUS
10
141.437
20
-77.9524
11
141.437
21
-76.9524
0
LINE
8
BLACK
6
CONTINUOUS
10
141.437
20
-76.9524
11
141.439
21
-76.9426
0
LINE
8
BLACK
6
CONTINUOUS
10
141.439
20
-76.9426
11
141.438
21
-76.9394
0
LINE
8
BLACK
6
CONTINUOUS
10
141.438
20
-76.9394
11
141.44
21
-76.9365
0
LINE
8
BLACK
6
CONTINUOUS
10
141.44
20
-76.9365
11
141.441
21
-76.9267
0
LINE
8
BLACK
6
CONTINUOUS
10
141.441
20
-76.9267
11
141.454
21
-76.9118
0
LINE
8
BLACK
6
CONTINUOUS
10
141.454
20
-76.9118
11
141.464
21
-76.8949
0
LINE
8
BLACK
6
CONTINUOUS
10
141.464
20
-76.8949
11
141.47
21
-76.8926
0
LINE
8
BLACK
6
CONTINUOUS
10
141.47
20
-76.8926
11
141.474
21
-76.8874
0
LINE
8
BLACK
6
CONTINUOUS
10
141.474
20
-76.8874
11
141.494
21
-76.884
0
LINE
8
BLACK
6
CONTINUOUS
10
141.494
20
-76.884
11
141.512
21
-76.8774
0
LINE
8
BLACK
6
CONTINUOUS
10
141.512
20
-76.8774
11
141.893
21
-76.8774
0
LINE
8
BLACK
6
CONTINUOUS
10
141.893
20
-76.8774
11
141.919
21
-76.8819
0
LINE
8
BLACK
6
CONTINUOUS
10
141.587
20
-77.0274
11
141.587
21
-77.4012
0
LINE
8
BLACK
6
CONTINUOUS
10
141.587
20
-77.4012
11
141.875
21
-77.4012
0
LINE
8
BLACK
6
CONTINUOUS
10
141.875
20
-77.4012
11
141.944
21
-77.3669
0
LINE
8
BLACK
6
CONTINUOUS
10
141.944
20
-77.3669
11
141.974
21
-77.3365
0
LINE
8
BLACK
6
CONTINUOUS
10
141.974
20
-77.3365
11
142.008
21
-77.268
0
LINE
8
BLACK
6
CONTINUOUS
10
142.008
20
-77.268
11
142.008
21
-77.1606
0
LINE
8
BLACK
6
CONTINUOUS
10
142.008
20
-77.1606
11
141.974
21
-77.092
0
LINE
8
BLACK
6
CONTINUOUS
10
141.974
20
-77.092
11
141.944
21
-77.0616
0
LINE
8
BLACK
6
CONTINUOUS
10
141.944
20
-77.0616
11
141.875
21
-77.0274
0
LINE
8
BLACK
6
CONTINUOUS
10
141.875
20
-77.0274
11
141.587
21
-77.0274
0
LINE
8
BLACK
6
CONTINUOUS
10
148.519
20
-77.6926
11
148.537
21
-77.735
0
LINE
8
BLACK
6
CONTINUOUS
10
148.537
20
-77.735
11
148.519
21
-77.7774
0
LINE
8
BLACK
6
CONTINUOUS
10
148.519
20
-77.7774
11
148.477
21
-77.795
0
LINE
8
BLACK
6
CONTINUOUS
10
148.477
20
-77.795
11
148.023
21
-77.795
0
LINE
8
BLACK
6
CONTINUOUS
10
148.023
20
-77.795
11
147.981
21
-77.7774
0
LINE
8
BLACK
6
CONTINUOUS
10
147.981
20
-77.7774
11
147.963
21
-77.735
0
LINE
8
BLACK
6
CONTINUOUS
10
147.963
20
-77.735
11
147.981
21
-77.6926
0
LINE
8
BLACK
6
CONTINUOUS
10
147.981
20
-77.6926
11
148.023
21
-77.675
0
LINE
8
BLACK
6
CONTINUOUS
10
148.023
20
-77.675
11
148.477
21
-77.675
0
LINE
8
BLACK
6
CONTINUOUS
10
148.477
20
-77.675
11
148.519
21
-77.6926
0
LINE
8
BLACK
6
CONTINUOUS
10
146.047
20
-76.3793
11
146.05
21
-76.3788
0
LINE
8
BLACK
6
CONTINUOUS
10
146.05
20
-76.3788
11
146.053
21
-76.3804
0
LINE
8
BLACK
6
CONTINUOUS
10
146.053
20
-76.3804
11
146.061
21
-76.3819
0
LINE
8
BLACK
6
CONTINUOUS
10
146.061
20
-76.3819
11
146.077
21
-76.3949
0
LINE
8
BLACK
6
CONTINUOUS
10
146.077
20
-76.3949
11
146.094
21
-76.4054
0
LINE
8
BLACK
6
CONTINUOUS
10
146.094
20
-76.4054
11
146.096
21
-76.411
0
LINE
8
BLACK
6
CONTINUOUS
10
146.096
20
-76.411
11
146.101
21
-76.4149
0
LINE
8
BLACK
6
CONTINUOUS
10
146.101
20
-76.4149
11
146.104
21
-76.4348
0
LINE
8
BLACK
6
CONTINUOUS
10
146.104
20
-76.4348
11
146.111
21
-76.4539
0
LINE
8
BLACK
6
CONTINUOUS
10
146.111
20
-76.4539
11
146.109
21
-76.4595
0
LINE
8
BLACK
6
CONTINUOUS
10
146.109
20
-76.4595
11
146.11
21
-76.4654
0
LINE
8
BLACK
6
CONTINUOUS
10
146.11
20
-76.4654
11
146.099
21
-76.4829
0
LINE
8
BLACK
6
CONTINUOUS
10
146.099
20
-76.4829
11
146.092
21
-76.5018
0
LINE
8
BLACK
6
CONTINUOUS
10
146.092
20
-76.5018
11
145.865
21
-76.7618
0
LINE
8
BLACK
6
CONTINUOUS
10
145.865
20
-76.7618
11
145.871
21
-76.7629
0
LINE
8
BLACK
6
CONTINUOUS
10
145.871
20
-76.7629
11
145.874
21
-76.7657
0
LINE
8
BLACK
6
CONTINUOUS
10
145.874
20
-76.7657
11
145.879
21
-76.7663
0
LINE
8
BLACK
6
CONTINUOUS
10
145.879
20
-76.7663
11
145.974
21
-76.8139
0
LINE
8
BLACK
6
CONTINUOUS
10
145.974
20
-76.8139
11
145.992
21
-76.8272
0
LINE
8
BLACK
6
CONTINUOUS
10
145.992
20
-76.8272
11
145.994
21
-76.8279
0
LINE
8
BLACK
6
CONTINUOUS
10
145.994
20
-76.8279
11
146.041
21
-76.8755
0
LINE
8
BLACK
6
CONTINUOUS
10
146.041
20
-76.8755
11
146.054
21
-76.8939
0
LINE
8
BLACK
6
CONTINUOUS
10
146.054
20
-76.8939
11
146.055
21
-76.895
0
LINE
8
BLACK
6
CONTINUOUS
10
146.055
20
-76.895
11
146.103
21
-76.9903
0
LINE
8
BLACK
6
CONTINUOUS
10
146.103
20
-76.9903
11
146.11
21
-77.0152
0
LINE
8
BLACK
6
CONTINUOUS
10
146.11
20
-77.0152
11
146.109
21
-77.0196
0
LINE
8
BLACK
6
CONTINUOUS
10
146.109
20
-77.0196
11
146.111
21
-77.0238
0
LINE
8
BLACK
6
CONTINUOUS
10
146.111
20
-77.0238
11
146.111
21
-77.2619
0
LINE
8
BLACK
6
CONTINUOUS
10
146.111
20
-77.2619
11
146.106
21
-77.2876
0
LINE
8
BLACK
6
CONTINUOUS
10
146.106
20
-77.2876
11
146.103
21
-77.291
0
LINE
8
BLACK
6
CONTINUOUS
10
146.103
20
-77.291
11
146.103
21
-77.2954
0
LINE
8
BLACK
6
CONTINUOUS
10
146.103
20
-77.2954
11
146.055
21
-77.3907
0
LINE
8
BLACK
6
CONTINUOUS
10
146.055
20
-77.3907
11
146.042
21
-77.4087
0
LINE
8
BLACK
6
CONTINUOUS
10
146.042
20
-77.4087
11
146.041
21
-77.4102
0
LINE
8
BLACK
6
CONTINUOUS
10
146.041
20
-77.4102
11
145.994
21
-77.4578
0
LINE
8
BLACK
6
CONTINUOUS
10
145.994
20
-77.4578
11
145.975
21
-77.4707
0
LINE
8
BLACK
6
CONTINUOUS
10
145.975
20
-77.4707
11
145.974
21
-77.4718
0
LINE
8
BLACK
6
CONTINUOUS
10
145.974
20
-77.4718
11
145.879
21
-77.5195
0
LINE
8
BLACK
6
CONTINUOUS
10
145.879
20
-77.5195
11
145.854
21
-77.5269
0
LINE
8
BLACK
6
CONTINUOUS
10
145.854
20
-77.5269
11
145.849
21
-77.5258
0
LINE
8
BLACK
6
CONTINUOUS
10
145.849
20
-77.5258
11
145.845
21
-77.5274
0
LINE
8
BLACK
6
CONTINUOUS
10
145.845
20
-77.5274
11
145.56
21
-77.5274
0
LINE
8
BLACK
6
CONTINUOUS
10
145.56
20
-77.5274
11
145.534
21
-77.5229
0
LINE
8
BLACK
6
CONTINUOUS
10
145.534
20
-77.5229
11
145.53
21
-77.52
0
LINE
8
BLACK
6
CONTINUOUS
10
145.53
20
-77.52
11
145.526
21
-77.5195
0
LINE
8
BLACK
6
CONTINUOUS
10
145.526
20
-77.5195
11
145.431
21
-77.4718
0
LINE
8
BLACK
6
CONTINUOUS
10
145.431
20
-77.4718
11
145.413
21
-77.4585
0
LINE
8
BLACK
6
CONTINUOUS
10
145.413
20
-77.4585
11
145.411
21
-77.4578
0
LINE
8
BLACK
6
CONTINUOUS
10
145.411
20
-77.4578
11
145.364
21
-77.4102
0
LINE
8
BLACK
6
CONTINUOUS
10
145.364
20
-77.4102
11
145.349
21
-77.3888
0
LINE
8
BLACK
6
CONTINUOUS
10
145.349
20
-77.3888
11
145.344
21
-77.3377
0
LINE
8
BLACK
6
CONTINUOUS
10
145.344
20
-77.3377
11
145.374
21
-77.2957
0
LINE
8
BLACK
6
CONTINUOUS
10
145.374
20
-77.2957
11
145.423
21
-77.2824
0
LINE
8
BLACK
6
CONTINUOUS
10
145.423
20
-77.2824
11
145.47
21
-77.3041
0
LINE
8
BLACK
6
CONTINUOUS
10
145.47
20
-77.3041
11
145.509
21
-77.3431
0
LINE
8
BLACK
6
CONTINUOUS
10
145.509
20
-77.3431
11
145.577
21
-77.3774
0
LINE
8
BLACK
6
CONTINUOUS
10
145.577
20
-77.3774
11
145.828
21
-77.3774
0
LINE
8
BLACK
6
CONTINUOUS
10
145.828
20
-77.3774
11
145.896
21
-77.3431
0
LINE
8
BLACK
6
CONTINUOUS
10
145.896
20
-77.3431
11
145.926
21
-77.3127
0
LINE
8
BLACK
6
CONTINUOUS
10
145.926
20
-77.3127
11
145.961
21
-77.2442
0
LINE
8
BLACK
6
CONTINUOUS
10
145.961
20
-77.2442
11
145.961
21
-77.0415
0
LINE
8
BLACK
6
CONTINUOUS
10
145.961
20
-77.0415
11
145.926
21
-76.973
0
LINE
8
BLACK
6
CONTINUOUS
10
145.926
20
-76.973
11
145.896
21
-76.9426
0
LINE
8
BLACK
6
CONTINUOUS
10
145.896
20
-76.9426
11
145.828
21
-76.9083
0
LINE
8
BLACK
6
CONTINUOUS
10
145.828
20
-76.9083
11
145.702
21
-76.9083
0
LINE
8
BLACK
6
CONTINUOUS
10
145.702
20
-76.9083
11
145.691
21
-76.9064
0
LINE
8
BLACK
6
CONTINUOUS
10
145.691
20
-76.9064
11
145.688
21
-76.9069
0
LINE
8
BLACK
6
CONTINUOUS
10
145.688
20
-76.9069
11
145.685
21
-76.9053
0
LINE
8
BLACK
6
CONTINUOUS
10
145.685
20
-76.9053
11
145.677
21
-76.9038
0
LINE
8
BLACK
6
CONTINUOUS
10
145.677
20
-76.9038
11
145.661
21
-76.8908
0
LINE
8
BLACK
6
CONTINUOUS
10
145.661
20
-76.8908
11
145.644
21
-76.8803
0
LINE
8
BLACK
6
CONTINUOUS
10
145.644
20
-76.8803
11
145.642
21
-76.8747
0
LINE
8
BLACK
6
CONTINUOUS
10
145.642
20
-76.8747
11
145.637
21
-76.8708
0
LINE
8
BLACK
6
CONTINUOUS
10
145.637
20
-76.8708
11
145.634
21
-76.8509
0
LINE
8
BLACK
6
CONTINUOUS
10
145.634
20
-76.8509
11
145.627
21
-76.8318
0
LINE
8
BLACK
6
CONTINUOUS
10
145.627
20
-76.8318
11
145.63
21
-76.8262
0
LINE
8
BLACK
6
CONTINUOUS
10
145.63
20
-76.8262
11
145.629
21
-76.8203
0
LINE
8
BLACK
6
CONTINUOUS
10
145.629
20
-76.8203
11
145.639
21
-76.8028
0
LINE
8
BLACK
6
CONTINUOUS
10
145.639
20
-76.8028
11
145.646
21
-76.7839
0
LINE
8
BLACK
6
CONTINUOUS
10
145.646
20
-76.7839
11
145.87
21
-76.5274
0
LINE
8
BLACK
6
CONTINUOUS
10
145.87
20
-76.5274
11
145.417
21
-76.5274
0
LINE
8
BLACK
6
CONTINUOUS
10
145.417
20
-76.5274
11
145.391
21
-76.5229
0
LINE
8
BLACK
6
CONTINUOUS
10
145.391
20
-76.5229
11
145.352
21
-76.4899
0
LINE
8
BLACK
6
CONTINUOUS
10
145.352
20
-76.4899
11
145.343
21
-76.4394
0
LINE
8
BLACK
6
CONTINUOUS
10
145.343
20
-76.4394
11
145.368
21
-76.3949
0
LINE
8
BLACK
6
CONTINUOUS
10
145.368
20
-76.3949
11
145.417
21
-76.3774
0
LINE
8
BLACK
6
CONTINUOUS
10
145.417
20
-76.3774
11
146.036
21
-76.3774
0
LINE
8
BLACK
6
CONTINUOUS
10
146.036
20
-76.3774
11
146.047
21
-76.3793
0
LINE
8
BLACK
6
CONTINUOUS
10
144.919
20
-76.3819
11
144.922
21
-76.3848
0
LINE
8
BLACK
6
CONTINUOUS
10
144.922
20
-76.3848
11
144.926
21
-76.3853
0
LINE
8
BLACK
6
CONTINUOUS
10
144.926
20
-76.3853
11
145.022
21
-76.4329
0
LINE
8
BLACK
6
CONTINUOUS
10
145.022
20
-76.4329
11
145.04
21
-76.4463
0
LINE
8
BLACK
6
CONTINUOUS
10
145.04
20
-76.4463
11
145.041
21
-76.447
0
LINE
8
BLACK
6
CONTINUOUS
10
145.041
20
-76.447
11
145.089
21
-76.4946
0
LINE
8
BLACK
6
CONTINUOUS
10
145.089
20
-76.4946
11
145.102
21
-76.513
0
LINE
8
BLACK
6
CONTINUOUS
10
145.102
20
-76.513
11
145.103
21
-76.5141
0
LINE
8
BLACK
6
CONTINUOUS
10
145.103
20
-76.5141
11
145.15
21
-76.6093
0
LINE
8
BLACK
6
CONTINUOUS
10
145.15
20
-76.6093
11
145.158
21
-76.6343
0
LINE
8
BLACK
6
CONTINUOUS
10
145.158
20
-76.6343
11
145.157
21
-76.6386
0
LINE
8
BLACK
6
CONTINUOUS
10
145.157
20
-76.6386
11
145.158
21
-76.6429
0
LINE
8
BLACK
6
CONTINUOUS
10
145.158
20
-76.6429
11
145.158
21
-76.7857
0
LINE
8
BLACK
6
CONTINUOUS
10
145.158
20
-76.7857
11
145.154
21
-76.8114
0
LINE
8
BLACK
6
CONTINUOUS
10
145.154
20
-76.8114
11
145.151
21
-76.8148
0
LINE
8
BLACK
6
CONTINUOUS
10
145.151
20
-76.8148
11
145.15
21
-76.8193
0
LINE
8
BLACK
6
CONTINUOUS
10
145.15
20
-76.8193
11
145.103
21
-76.9145
0
LINE
8
BLACK
6
CONTINUOUS
10
145.103
20
-76.9145
11
145.089
21
-76.9325
0
LINE
8
BLACK
6
CONTINUOUS
10
145.089
20
-76.9325
11
145.089
21
-76.934
0
LINE
8
BLACK
6
CONTINUOUS
10
145.089
20
-76.934
11
145.041
21
-76.9816
0
LINE
8
BLACK
6
CONTINUOUS
10
145.041
20
-76.9816
11
145.023
21
-76.9945
0
LINE
8
BLACK
6
CONTINUOUS
10
145.023
20
-76.9945
11
145.022
21
-76.9957
0
LINE
8
BLACK
6
CONTINUOUS
10
145.022
20
-76.9957
11
144.926
21
-77.0433
0
LINE
8
BLACK
6
CONTINUOUS
10
144.926
20
-77.0433
11
144.901
21
-77.0507
0
LINE
8
BLACK
6
CONTINUOUS
10
144.901
20
-77.0507
11
144.897
21
-77.0497
0
LINE
8
BLACK
6
CONTINUOUS
10
144.897
20
-77.0497
11
144.894
21
-77.0508
0
LINE
8
BLACK
6
CONTINUOUS
10
144.894
20
-77.0508
11
145.145
21
-77.4094
0
LINE
8
BLACK
6
CONTINUOUS
10
145.145
20
-77.4094
11
145.156
21
-77.433
0
LINE
8
BLACK
6
CONTINUOUS
10
145.156
20
-77.433
11
145.151
21
-77.4841
0
LINE
8
BLACK
6
CONTINUOUS
10
145.151
20
-77.4841
11
145.115
21
-77.5204
0
LINE
8
BLACK
6
CONTINUOUS
10
145.115
20
-77.5204
11
145.064
21
-77.5248
0
LINE
8
BLACK
6
CONTINUOUS
10
145.064
20
-77.5248
11
145.022
21
-77.4954
0
LINE
8
BLACK
6
CONTINUOUS
10
145.022
20
-77.4954
11
144.711
21
-77.0512
0
LINE
8
BLACK
6
CONTINUOUS
10
144.711
20
-77.0512
11
144.587
21
-77.0512
0
LINE
8
BLACK
6
CONTINUOUS
10
144.587
20
-77.0512
11
144.587
21
-77.4524
0
LINE
8
BLACK
6
CONTINUOUS
10
144.587
20
-77.4524
11
144.582
21
-77.478
0
LINE
8
BLACK
6
CONTINUOUS
10
144.582
20
-77.478
11
144.549
21
-77.5173
0
LINE
8
BLACK
6
CONTINUOUS
10
144.549
20
-77.5173
11
144.499
21
-77.5262
0
LINE
8
BLACK
6
CONTINUOUS
10
144.499
20
-77.5262
11
144.454
21
-77.5006
0
LINE
8
BLACK
6
CONTINUOUS
10
144.454
20
-77.5006
11
144.437
21
-77.4524
0
LINE
8
BLACK
6
CONTINUOUS
10
144.437
20
-77.4524
11
144.437
21
-76.4524
0
LINE
8
BLACK
6
CONTINUOUS
10
144.437
20
-76.4524
11
144.439
21
-76.4426
0
LINE
8
BLACK
6
CONTINUOUS
10
144.439
20
-76.4426
11
144.438
21
-76.4394
0
LINE
8
BLACK
6
CONTINUOUS
10
144.438
20
-76.4394
11
144.44
21
-76.4365
0
LINE
8
BLACK
6
CONTINUOUS
10
144.44
20
-76.4365
11
144.441
21
-76.4267
0
LINE
8
BLACK
6
CONTINUOUS
10
144.441
20
-76.4267
11
144.454
21
-76.4118
0
LINE
8
BLACK
6
CONTINUOUS
10
144.454
20
-76.4118
11
144.464
21
-76.3949
0
LINE
8
BLACK
6
CONTINUOUS
10
144.464
20
-76.3949
11
144.47
21
-76.3926
0
LINE
8
BLACK
6
CONTINUOUS
10
144.47
20
-76.3926
11
144.474
21
-76.3874
0
LINE
8
BLACK
6
CONTINUOUS
10
144.474
20
-76.3874
11
144.494
21
-76.384
0
LINE
8
BLACK
6
CONTINUOUS
10
144.494
20
-76.384
11
144.512
21
-76.3774
0
LINE
8
BLACK
6
CONTINUOUS
10
144.512
20
-76.3774
11
144.893
21
-76.3774
0
LINE
8
BLACK
6
CONTINUOUS
10
144.893
20
-76.3774
11
144.919
21
-76.3819
0
LINE
8
BLACK
6
CONTINUOUS
10
144.587
20
-76.5274
11
144.587
21
-76.9012
0
LINE
8
BLACK
6
CONTINUOUS
10
144.587
20
-76.9012
11
144.875
21
-76.9012
0
LINE
8
BLACK
6
CONTINUOUS
10
144.875
20
-76.9012
11
144.944
21
-76.8669
0
LINE
8
BLACK
6
CONTINUOUS
10
144.944
20
-76.8669
11
144.974
21
-76.8365
0
LINE
8
BLACK
6
CONTINUOUS
10
144.974
20
-76.8365
11
145.008
21
-76.768
0
LINE
8
BLACK
6
CONTINUOUS
10
145.008
20
-76.768
11
145.008
21
-76.6606
0
LINE
8
BLACK
6
CONTINUOUS
10
145.008
20
-76.6606
11
144.974
21
-76.592
0
LINE
8
BLACK
6
CONTINUOUS
10
144.974
20
-76.592
11
144.944
21
-76.5616
0
LINE
8
BLACK
6
CONTINUOUS
10
144.944
20
-76.5616
11
144.875
21
-76.5274
0
LINE
8
BLACK
6
CONTINUOUS
10
144.875
20
-76.5274
11
144.587
21
-76.5274
0
LINE
8
BLACK
6
CONTINUOUS
10
148.519
20
-76.2226
11
148.537
21
-76.265
0
LINE
8
BLACK
6
CONTINUOUS
10
148.537
20
-76.265
11
148.519
21
-76.3074
0
LINE
8
BLACK
6
CONTINUOUS
10
148.519
20
-76.3074
11
148.477
21
-76.325
0
LINE
8
BLACK
6
CONTINUOUS
10
148.477
20
-76.325
11
148.023
21
-76.325
0
LINE
8
BLACK
6
CONTINUOUS
10
148.023
20
-76.325
11
147.981
21
-76.3074
0
LINE
8
BLACK
6
CONTINUOUS
10
147.981
20
-76.3074
11
147.963
21
-76.265
0
LINE
8
BLACK
6
CONTINUOUS
10
147.963
20
-76.265
11
147.981
21
-76.2226
0
LINE
8
BLACK
6
CONTINUOUS
10
147.981
20
-76.2226
11
148.023
21
-76.205
0
LINE
8
BLACK
6
CONTINUOUS
10
148.023
20
-76.205
11
148.477
21
-76.205
0
LINE
8
BLACK
6
CONTINUOUS
10
148.477
20
-76.205
11
148.519
21
-76.2226
0
LINE
8
BLACK
6
CONTINUOUS
10
148.519
20
-75.4426
11
148.537
21
-75.485
0
LINE
8
BLACK
6
CONTINUOUS
10
148.537
20
-75.485
11
148.519
21
-75.5274
0
LINE
8
BLACK
6
CONTINUOUS
10
148.519
20
-75.5274
11
148.477
21
-75.545
0
LINE
8
BLACK
6
CONTINUOUS
10
148.477
20
-75.545
11
148.023
21
-75.545
0
LINE
8
BLACK
6
CONTINUOUS
10
148.023
20
-75.545
11
147.981
21
-75.5274
0
LINE
8
BLACK
6
CONTINUOUS
10
147.981
20
-75.5274
11
147.963
21
-75.485
0
LINE
8
BLACK
6
CONTINUOUS
10
147.963
20
-75.485
11
147.981
21
-75.4426
0
LINE
8
BLACK
6
CONTINUOUS
10
147.981
20
-75.4426
11
148.023
21
-75.425
0
LINE
8
BLACK
6
CONTINUOUS
10
148.023
20
-75.425
11
148.477
21
-75.425
0
LINE
8
BLACK
6
CONTINUOUS
10
148.477
20
-75.425
11
148.519
21
-75.4426
0
LINE
8
BLACK
6
CONTINUOUS
10
145.966
20
-74.1319
11
146.005
21
-74.1649
0
LINE
8
BLACK
6
CONTINUOUS
10
146.005
20
-74.1649
11
146.014
21
-74.2154
0
LINE
8
BLACK
6
CONTINUOUS
10
146.014
20
-74.2154
11
145.989
21
-74.2598
0
LINE
8
BLACK
6
CONTINUOUS
10
145.989
20
-74.2598
11
145.94
21
-74.2774
0
LINE
8
BLACK
6
CONTINUOUS
10
145.94
20
-74.2774
11
145.768
21
-74.2774
0
LINE
8
BLACK
6
CONTINUOUS
10
145.768
20
-74.2774
11
145.699
21
-74.3116
0
LINE
8
BLACK
6
CONTINUOUS
10
145.699
20
-74.3116
11
145.665
21
-74.3454
0
LINE
8
BLACK
6
CONTINUOUS
10
145.665
20
-74.3454
11
145.582
21
-74.4713
0
LINE
8
BLACK
6
CONTINUOUS
10
145.582
20
-74.4713
11
145.563
21
-74.5454
0
LINE
8
BLACK
6
CONTINUOUS
10
145.563
20
-74.5454
11
145.621
21
-74.5163
0
LINE
8
BLACK
6
CONTINUOUS
10
145.621
20
-74.5163
11
145.646
21
-74.5088
0
LINE
8
BLACK
6
CONTINUOUS
10
145.646
20
-74.5088
11
145.651
21
-74.5099
0
LINE
8
BLACK
6
CONTINUOUS
10
145.651
20
-74.5099
11
145.655
21
-74.5083
0
LINE
8
BLACK
6
CONTINUOUS
10
145.655
20
-74.5083
11
145.845
21
-74.5083
0
LINE
8
BLACK
6
CONTINUOUS
10
145.845
20
-74.5083
11
145.871
21
-74.5129
0
LINE
8
BLACK
6
CONTINUOUS
10
145.871
20
-74.5129
11
145.874
21
-74.5157
0
LINE
8
BLACK
6
CONTINUOUS
10
145.874
20
-74.5157
11
145.879
21
-74.5163
0
LINE
8
BLACK
6
CONTINUOUS
10
145.879
20
-74.5163
11
145.974
21
-74.5639
0
LINE
8
BLACK
6
CONTINUOUS
10
145.974
20
-74.5639
11
145.992
21
-74.5772
0
LINE
8
BLACK
6
CONTINUOUS
10
145.992
20
-74.5772
11
145.994
21
-74.5779
0
LINE
8
BLACK
6
CONTINUOUS
10
145.994
20
-74.5779
11
146.041
21
-74.6255
0
LINE
8
BLACK
6
CONTINUOUS
10
146.041
20
-74.6255
11
146.054
21
-74.6439
0
LINE
8
BLACK
6
CONTINUOUS
10
146.054
20
-74.6439
11
146.055
21
-74.645
0
LINE
8
BLACK
6
CONTINUOUS
10
146.055
20
-74.645
11
146.103
21
-74.7403
0
LINE
8
BLACK
6
CONTINUOUS
10
146.103
20
-74.7403
11
146.11
21
-74.7652
0
LINE
8
BLACK
6
CONTINUOUS
10
146.11
20
-74.7652
11
146.109
21
-74.7696
0
LINE
8
BLACK
6
CONTINUOUS
10
146.109
20
-74.7696
11
146.111
21
-74.7738
0
LINE
8
BLACK
6
CONTINUOUS
10
146.111
20
-74.7738
11
146.111
21
-75.0119
0
LINE
8
BLACK
6
CONTINUOUS
10
146.111
20
-75.0119
11
146.106
21
-75.0376
0
LINE
8
BLACK
6
CONTINUOUS
10
146.106
20
-75.0376
11
146.103
21
-75.041
0
LINE
8
BLACK
6
CONTINUOUS
10
146.103
20
-75.041
11
146.103
21
-75.0454
0
LINE
8
BLACK
6
CONTINUOUS
10
146.103
20
-75.0454
11
146.055
21
-75.1407
0
LINE
8
BLACK
6
CONTINUOUS
10
146.055
20
-75.1407
11
146.042
21
-75.1587
0
LINE
8
BLACK
6
CONTINUOUS
10
146.042
20
-75.1587
11
146.041
21
-75.1602
0
LINE
8
BLACK
6
CONTINUOUS
10
146.041
20
-75.1602
11
145.994
21
-75.2078
0
LINE
8
BLACK
6
CONTINUOUS
10
145.994
20
-75.2078
11
145.975
21
-75.2207
0
LINE
8
BLACK
6
CONTINUOUS
10
145.975
20
-75.2207
11
145.974
21
-75.2218
0
LINE
8
BLACK
6
CONTINUOUS
10
145.974
20
-75.2218
11
145.879
21
-75.2695
0
LINE
8
BLACK
6
CONTINUOUS
10
145.879
20
-75.2695
11
145.854
21
-75.2769
0
LINE
8
BLACK
6
CONTINUOUS
10
145.854
20
-75.2769
11
145.849
21
-75.2758
0
LINE
8
BLACK
6
CONTINUOUS
10
145.849
20
-75.2758
11
145.845
21
-75.2774
0
LINE
8
BLACK
6
CONTINUOUS
10
145.845
20
-75.2774
11
145.655
21
-75.2774
0
LINE
8
BLACK
6
CONTINUOUS
10
145.655
20
-75.2774
11
145.629
21
-75.2729
0
LINE
8
BLACK
6
CONTINUOUS
10
145.629
20
-75.2729
11
145.626
21
-75.27
0
LINE
8
BLACK
6
CONTINUOUS
10
145.626
20
-75.27
11
145.621
21
-75.2695
0
LINE
8
BLACK
6
CONTINUOUS
10
145.621
20
-75.2695
11
145.526
21
-75.2218
0
LINE
8
BLACK
6
CONTINUOUS
10
145.526
20
-75.2218
11
145.508
21
-75.2085
0
LINE
8
BLACK
6
CONTINUOUS
10
145.508
20
-75.2085
11
145.506
21
-75.2078
0
LINE
8
BLACK
6
CONTINUOUS
10
145.506
20
-75.2078
11
145.459
21
-75.1602
0
LINE
8
BLACK
6
CONTINUOUS
10
145.459
20
-75.1602
11
145.446
21
-75.1418
0
LINE
8
BLACK
6
CONTINUOUS
10
145.446
20
-75.1418
11
145.445
21
-75.1407
0
LINE
8
BLACK
6
CONTINUOUS
10
145.445
20
-75.1407
11
145.397
21
-75.0454
0
LINE
8
BLACK
6
CONTINUOUS
10
145.397
20
-75.0454
11
145.39
21
-75.0205
0
LINE
8
BLACK
6
CONTINUOUS
10
145.39
20
-75.0205
11
145.391
21
-75.0161
0
LINE
8
BLACK
6
CONTINUOUS
10
145.391
20
-75.0161
11
145.389
21
-75.0119
0
LINE
8
BLACK
6
CONTINUOUS
10
145.389
20
-75.0119
11
145.389
21
-74.631
0
LINE
8
BLACK
6
CONTINUOUS
10
145.389
20
-74.631
11
145.392
21
-74.6162
0
LINE
8
BLACK
6
CONTINUOUS
10
145.392
20
-74.6162
11
145.392
21
-74.6128
0
LINE
8
BLACK
6
CONTINUOUS
10
145.392
20
-74.6128
11
145.439
21
-74.4223
0
LINE
8
BLACK
6
CONTINUOUS
10
145.439
20
-74.4223
11
145.449
21
-74.3993
0
LINE
8
BLACK
6
CONTINUOUS
10
145.449
20
-74.3993
11
145.45
21
-74.3989
0
LINE
8
BLACK
6
CONTINUOUS
10
145.45
20
-74.3989
11
145.545
21
-74.256
0
LINE
8
BLACK
6
CONTINUOUS
10
145.545
20
-74.256
11
145.553
21
-74.2478
0
LINE
8
BLACK
6
CONTINUOUS
10
145.553
20
-74.2478
11
145.554
21
-74.2446
0
LINE
8
BLACK
6
CONTINUOUS
10
145.554
20
-74.2446
11
145.602
21
-74.197
0
LINE
8
BLACK
6
CONTINUOUS
10
145.602
20
-74.197
11
145.62
21
-74.1841
0
LINE
8
BLACK
6
CONTINUOUS
10
145.62
20
-74.1841
11
145.621
21
-74.1829
0
LINE
8
BLACK
6
CONTINUOUS
10
145.621
20
-74.1829
11
145.716
21
-74.1353
0
LINE
8
BLACK
6
CONTINUOUS
10
145.716
20
-74.1353
11
145.741
21
-74.1279
0
LINE
8
BLACK
6
CONTINUOUS
10
145.741
20
-74.1279
11
145.746
21
-74.1289
0
LINE
8
BLACK
6
CONTINUOUS
10
145.746
20
-74.1289
11
145.75
21
-74.1274
0
LINE
8
BLACK
6
CONTINUOUS
10
145.75
20
-74.1274
11
145.94
21
-74.1274
0
LINE
8
BLACK
6
CONTINUOUS
10
145.94
20
-74.1274
11
145.966
21
-74.1319
0
LINE
8
BLACK
6
CONTINUOUS
10
145.672
20
-74.6583
11
145.604
21
-74.6926
0
LINE
8
BLACK
6
CONTINUOUS
10
145.604
20
-74.6926
11
145.574
21
-74.723
0
LINE
8
BLACK
6
CONTINUOUS
10
145.574
20
-74.723
11
145.539
21
-74.7915
0
LINE
8
BLACK
6
CONTINUOUS
10
145.539
20
-74.7915
11
145.539
21
-74.9942
0
LINE
8
BLACK
6
CONTINUOUS
10
145.539
20
-74.9942
11
145.574
21
-75.0627
0
LINE
8
BLACK
6
CONTINUOUS
10
145.574
20
-75.0627
11
145.604
21
-75.0931
0
LINE
8
BLACK
6
CONTINUOUS
10
145.604
20
-75.0931
11
145.672
21
-75.1274
0
LINE
8
BLACK
6
CONTINUOUS
10
145.672
20
-75.1274
11
145.828
21
-75.1274
0
LINE
8
BLACK
6
CONTINUOUS
10
145.828
20
-75.1274
11
145.896
21
-75.0931
0
LINE
8
BLACK
6
CONTINUOUS
10
145.896
20
-75.0931
11
145.926
21
-75.0627
0
LINE
8
BLACK
6
CONTINUOUS
10
145.926
20
-75.0627
11
145.961
21
-74.9942
0
LINE
8
BLACK
6
CONTINUOUS
10
145.961
20
-74.9942
11
145.961
21
-74.7915
0
LINE
8
BLACK
6
CONTINUOUS
10
145.961
20
-74.7915
11
145.926
21
-74.723
0
LINE
8
BLACK
6
CONTINUOUS
10
145.926
20
-74.723
11
145.896
21
-74.6926
0
LINE
8
BLACK
6
CONTINUOUS
10
145.896
20
-74.6926
11
145.828
21
-74.6583
0
LINE
8
BLACK
6
CONTINUOUS
10
145.828
20
-74.6583
11
145.672
21
-74.6583
0
LINE
8
BLACK
6
CONTINUOUS
10
144.919
20
-74.1319
11
144.922
21
-74.1348
0
LINE
8
BLACK
6
CONTINUOUS
10
144.922
20
-74.1348
11
144.926
21
-74.1353
0
LINE
8
BLACK
6
CONTINUOUS
10
144.926
20
-74.1353
11
145.022
21
-74.1829
0
LINE
8
BLACK
6
CONTINUOUS
10
145.022
20
-74.1829
11
145.04
21
-74.1963
0
LINE
8
BLACK
6
CONTINUOUS
10
145.04
20
-74.1963
11
145.041
21
-74.197
0
LINE
8
BLACK
6
CONTINUOUS
10
145.041
20
-74.197
11
145.089
21
-74.2446
0
LINE
8
BLACK
6
CONTINUOUS
10
145.089
20
-74.2446
11
145.102
21
-74.263
0
LINE
8
BLACK
6
CONTINUOUS
10
145.102
20
-74.263
11
145.103
21
-74.2641
0
LINE
8
BLACK
6
CONTINUOUS
10
145.103
20
-74.2641
11
145.15
21
-74.3593
0
LINE
8
BLACK
6
CONTINUOUS
10
145.15
20
-74.3593
11
145.158
21
-74.3843
0
LINE
8
BLACK
6
CONTINUOUS
10
145.158
20
-74.3843
11
145.157
21
-74.3886
0
LINE
8
BLACK
6
CONTINUOUS
10
145.157
20
-74.3886
11
145.158
21
-74.3929
0
LINE
8
BLACK
6
CONTINUOUS
10
145.158
20
-74.3929
11
145.158
21
-74.5357
0
LINE
8
BLACK
6
CONTINUOUS
10
145.158
20
-74.5357
11
145.154
21
-74.5614
0
LINE
8
BLACK
6
CONTINUOUS
10
145.154
20
-74.5614
11
145.151
21
-74.5648
0
LINE
8
BLACK
6
CONTINUOUS
10
145.151
20
-74.5648
11
145.15
21
-74.5693
0
LINE
8
BLACK
6
CONTINUOUS
10
145.15
20
-74.5693
11
145.103
21
-74.6645
0
LINE
8
BLACK
6
CONTINUOUS
10
145.103
20
-74.6645
11
145.089
21
-74.6825
0
LINE
8
BLACK
6
CONTINUOUS
10
145.089
20
-74.6825
11
145.089
21
-74.684
0
LINE
8
BLACK
6
CONTINUOUS
10
145.089
20
-74.684
11
145.041
21
-74.7316
0
LINE
8
BLACK
6
CONTINUOUS
10
145.041
20
-74.7316
11
145.023
21
-74.7445
0
LINE
8
BLACK
6
CONTINUOUS
10
145.023
20
-74.7445
11
145.022
21
-74.7457
0
LINE
8
BLACK
6
CONTINUOUS
10
145.022
20
-74.7457
11
144.926
21
-74.7933
0
LINE
8
BLACK
6
CONTINUOUS
10
144.926
20
-74.7933
11
144.901
21
-74.8007
0
LINE
8
BLACK
6
CONTINUOUS
10
144.901
20
-74.8007
11
144.897
21
-74.7997
0
LINE
8
BLACK
6
CONTINUOUS
10
144.897
20
-74.7997
11
144.894
21
-74.8008
0
LINE
8
BLACK
6
CONTINUOUS
10
144.894
20
-74.8008
11
145.145
21
-75.1594
0
LINE
8
BLACK
6
CONTINUOUS
10
145.145
20
-75.1594
11
145.156
21
-75.183
0
LINE
8
BLACK
6
CONTINUOUS
10
145.156
20
-75.183
11
145.151
21
-75.2341
0
LINE
8
BLACK
6
CONTINUOUS
10
145.151
20
-75.2341
11
145.115
21
-75.2704
0
LINE
8
BLACK
6
CONTINUOUS
10
145.115
20
-75.2704
11
145.064
21
-75.2748
0
LINE
8
BLACK
6
CONTINUOUS
10
145.064
20
-75.2748
11
145.022
21
-75.2454
0
LINE
8
BLACK
6
CONTINUOUS
10
145.022
20
-75.2454
11
144.711
21
-74.8012
0
LINE
8
BLACK
6
CONTINUOUS
10
144.711
20
-74.8012
11
144.587
21
-74.8012
0
LINE
8
BLACK
6
CONTINUOUS
10
144.587
20
-74.8012
11
144.587
21
-75.2024
0
LINE
8
BLACK
6
CONTINUOUS
10
144.587
20
-75.2024
11
144.582
21
-75.228
0
LINE
8
BLACK
6
CONTINUOUS
10
144.582
20
-75.228
11
144.549
21
-75.2673
0
LINE
8
BLACK
6
CONTINUOUS
10
144.549
20
-75.2673
11
144.499
21
-75.2762
0
LINE
8
BLACK
6
CONTINUOUS
10
144.499
20
-75.2762
11
144.454
21
-75.2506
0
LINE
8
BLACK
6
CONTINUOUS
10
144.454
20
-75.2506
11
144.437
21
-75.2024
0
LINE
8
BLACK
6
CONTINUOUS
10
144.437
20
-75.2024
11
144.437
21
-74.2024
0
LINE
8
BLACK
6
CONTINUOUS
10
144.437
20
-74.2024
11
144.439
21
-74.1926
0
LINE
8
BLACK
6
CONTINUOUS
10
144.439
20
-74.1926
11
144.438
21
-74.1894
0
LINE
8
BLACK
6
CONTINUOUS
10
144.438
20
-74.1894
11
144.44
21
-74.1865
0
LINE
8
BLACK
6
CONTINUOUS
10
144.44
20
-74.1865
11
144.441
21
-74.1767
0
LINE
8
BLACK
6
CONTINUOUS
10
144.441
20
-74.1767
11
144.454
21
-74.1618
0
LINE
8
BLACK
6
CONTINUOUS
10
144.454
20
-74.1618
11
144.464
21
-74.1449
0
LINE
8
BLACK
6
CONTINUOUS
10
144.464
20
-74.1449
11
144.47
21
-74.1426
0
LINE
8
BLACK
6
CONTINUOUS
10
144.47
20
-74.1426
11
144.474
21
-74.1374
0
LINE
8
BLACK
6
CONTINUOUS
10
144.474
20
-74.1374
11
144.494
21
-74.134
0
LINE
8
BLACK
6
CONTINUOUS
10
144.494
20
-74.134
11
144.512
21
-74.1274
0
LINE
8
BLACK
6
CONTINUOUS
10
144.512
20
-74.1274
11
144.893
21
-74.1274
0
LINE
8
BLACK
6
CONTINUOUS
10
144.893
20
-74.1274
11
144.919
21
-74.1319
0
LINE
8
BLACK
6
CONTINUOUS
10
144.587
20
-74.2774
11
144.587
21
-74.6512
0
LINE
8
BLACK
6
CONTINUOUS
10
144.587
20
-74.6512
11
144.875
21
-74.6512
0
LINE
8
BLACK
6
CONTINUOUS
10
144.875
20
-74.6512
11
144.944
21
-74.6169
0
LINE
8
BLACK
6
CONTINUOUS
10
144.944
20
-74.6169
11
144.974
21
-74.5865
0
LINE
8
BLACK
6
CONTINUOUS
10
144.974
20
-74.5865
11
145.008
21
-74.518
0
LINE
8
BLACK
6
CONTINUOUS
10
145.008
20
-74.518
11
145.008
21
-74.4106
0
LINE
8
BLACK
6
CONTINUOUS
10
145.008
20
-74.4106
11
144.974
21
-74.342
0
LINE
8
BLACK
6
CONTINUOUS
10
144.974
20
-74.342
11
144.944
21
-74.3116
0
LINE
8
BLACK
6
CONTINUOUS
10
144.944
20
-74.3116
11
144.875
21
-74.2774
0
LINE
8
BLACK
6
CONTINUOUS
10
144.875
20
-74.2774
11
144.587
21
-74.2774
0
LINE
8
BLACK
6
CONTINUOUS
10
153.456
20
-69.1227
11
153.762
21
-69.1899
0
LINE
8
BLACK
6
CONTINUOUS
10
153.762
20
-69.1899
11
154.058
21
-69.2925
0
LINE
8
BLACK
6
CONTINUOUS
10
154.058
20
-69.2925
11
154.34
21
-69.4292
0
LINE
8
BLACK
6
CONTINUOUS
10
154.34
20
-69.4292
11
154.604
21
-69.598
0
LINE
8
BLACK
6
CONTINUOUS
10
154.604
20
-69.598
11
154.846
21
-69.7967
0
LINE
8
BLACK
6
CONTINUOUS
10
154.846
20
-69.7967
11
155.063
21
-70.0225
0
LINE
8
BLACK
6
CONTINUOUS
10
155.063
20
-70.0225
11
155.252
21
-70.2722
0
LINE
8
BLACK
6
CONTINUOUS
10
155.252
20
-70.2722
11
155.41
21
-70.5424
0
LINE
8
BLACK
6
CONTINUOUS
10
155.41
20
-70.5424
11
155.536
21
-70.8293
0
LINE
8
BLACK
6
CONTINUOUS
10
155.536
20
-70.8293
11
155.627
21
-71.129
0
LINE
8
BLACK
6
CONTINUOUS
10
155.627
20
-71.129
11
155.682
21
-71.4374
0
LINE
8
BLACK
6
CONTINUOUS
10
155.682
20
-71.4374
11
155.7
21
-71.75
0
LINE
8
BLACK
6
CONTINUOUS
10
155.7
20
-71.75
11
155.682
21
-72.0626
0
LINE
8
BLACK
6
CONTINUOUS
10
155.682
20
-72.0626
11
155.627
21
-72.371
0
LINE
8
BLACK
6
CONTINUOUS
10
155.627
20
-72.371
11
155.536
21
-72.6707
0
LINE
8
BLACK
6
CONTINUOUS
10
155.536
20
-72.6707
11
155.41
21
-72.9576
0
LINE
8
BLACK
6
CONTINUOUS
10
155.41
20
-72.9576
11
155.252
21
-73.2278
0
LINE
8
BLACK
6
CONTINUOUS
10
155.252
20
-73.2278
11
155.063
21
-73.4775
0
LINE
8
BLACK
6
CONTINUOUS
10
155.063
20
-73.4775
11
154.846
21
-73.7033
0
LINE
8
BLACK
6
CONTINUOUS
10
154.846
20
-73.7033
11
154.604
21
-73.902
0
LINE
8
BLACK
6
CONTINUOUS
10
154.604
20
-73.902
11
154.34
21
-74.0708
0
LINE
8
BLACK
6
CONTINUOUS
10
154.34
20
-74.0708
11
154.058
21
-74.2075
0
LINE
8
BLACK
6
CONTINUOUS
10
154.058
20
-74.2075
11
153.762
21
-74.3101
0
LINE
8
BLACK
6
CONTINUOUS
10
153.762
20
-74.3101
11
153.456
21
-74.3773
0
LINE
8
BLACK
6
CONTINUOUS
10
153.456
20
-74.3773
11
153.144
21
-74.4079
0
LINE
8
BLACK
6
CONTINUOUS
10
153.144
20
-74.4079
11
152.831
21
-74.4018
0
LINE
8
BLACK
6
CONTINUOUS
10
152.831
20
-74.4018
11
152.521
21
-74.3589
0
LINE
8
BLACK
6
CONTINUOUS
10
152.521
20
-74.3589
11
152.218
21
-74.2798
0
LINE
8
BLACK
6
CONTINUOUS
10
152.218
20
-74.2798
11
151.926
21
-74.1657
0
LINE
8
BLACK
6
CONTINUOUS
10
151.926
20
-74.1657
11
151.65
21
-74.018
0
LINE
8
BLACK
6
CONTINUOUS
10
151.65
20
-74.018
11
151.393
21
-73.8389
0
LINE
8
BLACK
6
CONTINUOUS
10
151.393
20
-73.8389
11
151.159
21
-73.6309
0
LINE
8
BLACK
6
CONTINUOUS
10
151.159
20
-73.6309
11
151.142
21
-73.5885
0
LINE
8
BLACK
6
CONTINUOUS
10
151.142
20
-73.5885
11
151.144
21
-73.5831
0
LINE
8
BLACK
6
CONTINUOUS
10
151.144
20
-73.5831
11
151.13
21
-73.55
0
LINE
8
BLACK
6
CONTINUOUS
10
151.13
20
-73.55
11
151.13
21
-69.95
0
LINE
8
BLACK
6
CONTINUOUS
10
151.13
20
-69.95
11
151.144
21
-69.9169
0
LINE
8
BLACK
6
CONTINUOUS
10
151.144
20
-69.9169
11
151.142
21
-69.9115
0
LINE
8
BLACK
6
CONTINUOUS
10
151.142
20
-69.9115
11
151.159
21
-69.8691
0
LINE
8
BLACK
6
CONTINUOUS
10
151.159
20
-69.8691
11
151.393
21
-69.6611
0
LINE
8
BLACK
6
CONTINUOUS
10
151.393
20
-69.6611
11
151.65
21
-69.482
0
LINE
8
BLACK
6
CONTINUOUS
10
151.65
20
-69.482
11
151.926
21
-69.3343
0
LINE
8
BLACK
6
CONTINUOUS
10
151.926
20
-69.3343
11
152.218
21
-69.2202
0
LINE
8
BLACK
6
CONTINUOUS
10
152.218
20
-69.2202
11
152.521
21
-69.1411
0
LINE
8
BLACK
6
CONTINUOUS
10
152.521
20
-69.1411
11
152.831
21
-69.0982
0
LINE
8
BLACK
6
CONTINUOUS
10
152.831
20
-69.0982
11
153.144
21
-69.0921
0
LINE
8
BLACK
6
CONTINUOUS
10
153.144
20
-69.0921
11
153.456
21
-69.1227
0
LINE
8
BLACK
6
CONTINUOUS
10
152.84
20
-69.2134
11
152.544
21
-69.2544
0
LINE
8
BLACK
6
CONTINUOUS
10
152.544
20
-69.2544
11
152.254
21
-69.3301
0
LINE
8
BLACK
6
CONTINUOUS
10
152.254
20
-69.3301
11
151.975
21
-69.4393
0
LINE
8
BLACK
6
CONTINUOUS
10
151.975
20
-69.4393
11
151.711
21
-69.5805
0
LINE
8
BLACK
6
CONTINUOUS
10
151.711
20
-69.5805
11
151.465
21
-69.7518
0
LINE
8
BLACK
6
CONTINUOUS
10
151.465
20
-69.7518
11
151.248
21
-69.9445
0
LINE
8
BLACK
6
CONTINUOUS
10
151.248
20
-69.9445
11
151.248
21
-69.9447
0
LINE
8
BLACK
6
CONTINUOUS
10
151.248
20
-69.9447
11
151.25
21
-69.95
0
LINE
8
BLACK
6
CONTINUOUS
10
151.25
20
-69.95
11
151.25
21
-73.55
0
LINE
8
BLACK
6
CONTINUOUS
10
151.25
20
-73.55
11
151.248
21
-73.5553
0
LINE
8
BLACK
6
CONTINUOUS
10
151.248
20
-73.5553
11
151.248
21
-73.5555
0
LINE
8
BLACK
6
CONTINUOUS
10
151.248
20
-73.5555
11
151.465
21
-73.7482
0
LINE
8
BLACK
6
CONTINUOUS
10
151.465
20
-73.7482
11
151.711
21
-73.9195
0
LINE
8
BLACK
6
CONTINUOUS
10
151.711
20
-73.9195
11
151.975
21
-74.0607
0
LINE
8
BLACK
6
CONTINUOUS
10
151.975
20
-74.0607
11
152.254
21
-74.1699
0
LINE
8
BLACK
6
CONTINUOUS
10
152.254
20
-74.1699
11
152.544
21
-74.2456
0
LINE
8
BLACK
6
CONTINUOUS
10
152.544
20
-74.2456
11
152.84
21
-74.2866
0
LINE
8
BLACK
6
CONTINUOUS
10
152.84
20
-74.2866
11
153.14
21
-74.2925
0
LINE
8
BLACK
6
CONTINUOUS
10
153.14
20
-74.2925
11
153.438
21
-74.2631
0
LINE
8
BLACK
6
CONTINUOUS
10
153.438
20
-74.2631
11
153.731
21
-74.1989
0
LINE
8
BLACK
6
CONTINUOUS
10
153.731
20
-74.1989
11
154.014
21
-74.1008
0
LINE
8
BLACK
6
CONTINUOUS
10
154.014
20
-74.1008
11
154.283
21
-73.97
0
LINE
8
BLACK
6
CONTINUOUS
10
154.283
20
-73.97
11
154.536
21
-73.8085
0
LINE
8
BLACK
6
CONTINUOUS
10
154.536
20
-73.8085
11
154.767
21
-73.6185
0
LINE
8
BLACK
6
CONTINUOUS
10
154.767
20
-73.6185
11
154.975
21
-73.4025
0
LINE
8
BLACK
6
CONTINUOUS
10
154.975
20
-73.4025
11
155.156
21
-73.1636
0
LINE
8
BLACK
6
CONTINUOUS
10
155.156
20
-73.1636
11
155.307
21
-72.9052
0
LINE
8
BLACK
6
CONTINUOUS
10
155.307
20
-72.9052
11
155.427
21
-72.6307
0
LINE
8
BLACK
6
CONTINUOUS
10
155.427
20
-72.6307
11
155.514
21
-72.344
0
LINE
8
BLACK
6
CONTINUOUS
10
155.514
20
-72.344
11
155.567
21
-72.0491
0
LINE
8
BLACK
6
CONTINUOUS
10
155.567
20
-72.0491
11
155.584
21
-71.7594
0
LINE
8
BLACK
6
CONTINUOUS
10
155.584
20
-71.7594
11
155.58
21
-71.75
0
LINE
8
BLACK
6
CONTINUOUS
10
155.58
20
-71.75
11
155.584
21
-71.7406
0
LINE
8
BLACK
6
CONTINUOUS
10
155.584
20
-71.7406
11
155.567
21
-71.4509
0
LINE
8
BLACK
6
CONTINUOUS
10
155.567
20
-71.4509
11
155.514
21
-71.156
0
LINE
8
BLACK
6
CONTINUOUS
10
155.514
20
-71.156
11
155.427
21
-70.8693
0
LINE
8
BLACK
6
CONTINUOUS
10
155.427
20
-70.8693
11
155.307
21
-70.5948
0
LINE
8
BLACK
6
CONTINUOUS
10
155.307
20
-70.5948
11
155.156
21
-70.3364
0
LINE
8
BLACK
6
CONTINUOUS
10
155.156
20
-70.3364
11
154.975
21
-70.0975
0
LINE
8
BLACK
6
CONTINUOUS
10
154.975
20
-70.0975
11
154.767
21
-69.8815
0
LINE
8
BLACK
6
CONTINUOUS
10
154.767
20
-69.8815
11
154.536
21
-69.6915
0
LINE
8
BLACK
6
CONTINUOUS
10
154.536
20
-69.6915
11
154.283
21
-69.53
0
LINE
8
BLACK
6
CONTINUOUS
10
154.283
20
-69.53
11
154.014
21
-69.3992
0
LINE
8
BLACK
6
CONTINUOUS
10
154.014
20
-69.3992
11
153.731
21
-69.3011
0
LINE
8
BLACK
6
CONTINUOUS
10
153.731
20
-69.3011
11
153.438
21
-69.2369
0
LINE
8
BLACK
6
CONTINUOUS
10
153.438
20
-69.2369
11
153.14
21
-69.2075
0
LINE
8
BLACK
6
CONTINUOUS
10
153.14
20
-69.2075
11
152.84
21
-69.2134
0
LINE
8
BLACK
6
CONTINUOUS
10
148.519
20
-73.9726
11
148.537
21
-74.015
0
LINE
8
BLACK
6
CONTINUOUS
10
148.537
20
-74.015
11
148.519
21
-74.0574
0
LINE
8
BLACK
6
CONTINUOUS
10
148.519
20
-74.0574
11
148.477
21
-74.075
0
LINE
8
BLACK
6
CONTINUOUS
10
148.477
20
-74.075
11
148.023
21
-74.075
0
LINE
8
BLACK
6
CONTINUOUS
10
148.023
20
-74.075
11
147.981
21
-74.0574
0
LINE
8
BLACK
6
CONTINUOUS
10
147.981
20
-74.0574
11
147.963
21
-74.015
0
LINE
8
BLACK
6
CONTINUOUS
10
147.963
20
-74.015
11
147.981
21
-73.9726
0
LINE
8
BLACK
6
CONTINUOUS
10
147.981
20
-73.9726
11
148.023
21
-73.955
0
LINE
8
BLACK
6
CONTINUOUS
10
148.023
20
-73.955
11
148.477
21
-73.955
0
LINE
8
BLACK
6
CONTINUOUS
10
148.477
20
-73.955
11
148.519
21
-73.9726
0
LINE
8
BLACK
6
CONTINUOUS
10
148.519
20
-72.9426
11
148.537
21
-72.985
0
LINE
8
BLACK
6
CONTINUOUS
10
148.537
20
-72.985
11
148.519
21
-73.0274
0
LINE
8
BLACK
6
CONTINUOUS
10
148.519
20
-73.0274
11
148.477
21
-73.045
0
LINE
8
BLACK
6
CONTINUOUS
10
148.477
20
-73.045
11
148.023
21
-73.045
0
LINE
8
BLACK
6
CONTINUOUS
10
148.023
20
-73.045
11
147.981
21
-73.0274
0
LINE
8
BLACK
6
CONTINUOUS
10
147.981
20
-73.0274
11
147.963
21
-72.985
0
LINE
8
BLACK
6
CONTINUOUS
10
147.963
20
-72.985
11
147.981
21
-72.9426
0
LINE
8
BLACK
6
CONTINUOUS
10
147.981
20
-72.9426
11
148.023
21
-72.925
0
LINE
8
BLACK
6
CONTINUOUS
10
148.023
20
-72.925
11
148.477
21
-72.925
0
LINE
8
BLACK
6
CONTINUOUS
10
148.477
20
-72.925
11
148.519
21
-72.9426
0
LINE
8
BLACK
6
CONTINUOUS
10
145.738
20
-71.5888
11
145.772
21
-71.6272
0
LINE
8
BLACK
6
CONTINUOUS
10
145.772
20
-71.6272
11
145.774
21
-71.6785
0
LINE
8
BLACK
6
CONTINUOUS
10
145.774
20
-71.6785
11
145.568
21
-72.294
0
LINE
8
BLACK
6
CONTINUOUS
10
145.568
20
-72.294
11
145.865
21
-72.294
0
LINE
8
BLACK
6
CONTINUOUS
10
145.865
20
-72.294
11
145.865
21
-72.0357
0
LINE
8
BLACK
6
CONTINUOUS
10
145.865
20
-72.0357
11
145.87
21
-72.0101
0
LINE
8
BLACK
6
CONTINUOUS
10
145.87
20
-72.0101
11
145.903
21
-71.9708
0
LINE
8
BLACK
6
CONTINUOUS
10
145.903
20
-71.9708
11
145.953
21
-71.9619
0
LINE
8
BLACK
6
CONTINUOUS
10
145.953
20
-71.9619
11
145.998
21
-71.9875
0
LINE
8
BLACK
6
CONTINUOUS
10
145.998
20
-71.9875
11
146.015
21
-72.0357
0
LINE
8
BLACK
6
CONTINUOUS
10
146.015
20
-72.0357
11
146.015
21
-72.294
0
LINE
8
BLACK
6
CONTINUOUS
10
146.015
20
-72.294
11
146.083
21
-72.294
0
LINE
8
BLACK
6
CONTINUOUS
10
146.083
20
-72.294
11
146.109
21
-72.2986
0
LINE
8
BLACK
6
CONTINUOUS
10
146.109
20
-72.2986
11
146.148
21
-72.3315
0
LINE
8
BLACK
6
CONTINUOUS
10
146.148
20
-72.3315
11
146.157
21
-72.3821
0
LINE
8
BLACK
6
CONTINUOUS
10
146.157
20
-72.3821
11
146.132
21
-72.4265
0
LINE
8
BLACK
6
CONTINUOUS
10
146.132
20
-72.4265
11
146.083
21
-72.444
0
LINE
8
BLACK
6
CONTINUOUS
10
146.083
20
-72.444
11
146.015
21
-72.444
0
LINE
8
BLACK
6
CONTINUOUS
10
146.015
20
-72.444
11
146.015
21
-72.7024
0
LINE
8
BLACK
6
CONTINUOUS
10
146.015
20
-72.7024
11
146.011
21
-72.728
0
LINE
8
BLACK
6
CONTINUOUS
10
146.011
20
-72.728
11
145.978
21
-72.7673
0
LINE
8
BLACK
6
CONTINUOUS
10
145.978
20
-72.7673
11
145.927
21
-72.7762
0
LINE
8
BLACK
6
CONTINUOUS
10
145.927
20
-72.7762
11
145.883
21
-72.7506
0
LINE
8
BLACK
6
CONTINUOUS
10
145.883
20
-72.7506
11
145.865
21
-72.7024
0
LINE
8
BLACK
6
CONTINUOUS
10
145.865
20
-72.7024
11
145.865
21
-72.444
0
LINE
8
BLACK
6
CONTINUOUS
10
145.865
20
-72.444
11
145.464
21
-72.444
0
LINE
8
BLACK
6
CONTINUOUS
10
145.464
20
-72.444
11
145.439
21
-72.4395
0
LINE
8
BLACK
6
CONTINUOUS
10
145.439
20
-72.4395
11
145.434
21
-72.4358
0
LINE
8
BLACK
6
CONTINUOUS
10
145.434
20
-72.4358
11
145.429
21
-72.435
0
LINE
8
BLACK
6
CONTINUOUS
10
145.429
20
-72.435
11
145.415
21
-72.4197
0
LINE
8
BLACK
6
CONTINUOUS
10
145.415
20
-72.4197
11
145.399
21
-72.4065
0
LINE
8
BLACK
6
CONTINUOUS
10
145.399
20
-72.4065
11
145.398
21
-72.4009
0
LINE
8
BLACK
6
CONTINUOUS
10
145.398
20
-72.4009
11
145.395
21
-72.3966
0
LINE
8
BLACK
6
CONTINUOUS
10
145.395
20
-72.3966
11
145.394
21
-72.3762
0
LINE
8
BLACK
6
CONTINUOUS
10
145.394
20
-72.3762
11
145.39
21
-72.356
0
LINE
8
BLACK
6
CONTINUOUS
10
145.39
20
-72.356
11
145.393
21
-72.3511
0
LINE
8
BLACK
6
CONTINUOUS
10
145.393
20
-72.3511
11
145.393
21
-72.3453
0
LINE
8
BLACK
6
CONTINUOUS
10
145.393
20
-72.3453
11
145.631
21
-71.631
0
LINE
8
BLACK
6
CONTINUOUS
10
145.631
20
-71.631
11
145.644
21
-71.6081
0
LINE
8
BLACK
6
CONTINUOUS
10
145.644
20
-71.6081
11
145.687
21
-71.5813
0
LINE
8
BLACK
6
CONTINUOUS
10
145.687
20
-71.5813
11
145.738
21
-71.5888
0
LINE
8
BLACK
6
CONTINUOUS
10
144.919
20
-71.6319
11
144.922
21
-71.6348
0
LINE
8
BLACK
6
CONTINUOUS
10
144.922
20
-71.6348
11
144.926
21
-71.6353
0
LINE
8
BLACK
6
CONTINUOUS
10
144.926
20
-71.6353
11
145.022
21
-71.6829
0
LINE
8
BLACK
6
CONTINUOUS
10
145.022
20
-71.6829
11
145.04
21
-71.6963
0
LINE
8
BLACK
6
CONTINUOUS
10
145.04
20
-71.6963
11
145.041
21
-71.697
0
LINE
8
BLACK
6
CONTINUOUS
10
145.041
20
-71.697
11
145.089
21
-71.7446
0
LINE
8
BLACK
6
CONTINUOUS
10
145.089
20
-71.7446
11
145.102
21
-71.763
0
LINE
8
BLACK
6
CONTINUOUS
10
145.102
20
-71.763
11
145.103
21
-71.7641
0
LINE
8
BLACK
6
CONTINUOUS
10
145.103
20
-71.7641
11
145.15
21
-71.8593
0
LINE
8
BLACK
6
CONTINUOUS
10
145.15
20
-71.8593
11
145.158
21
-71.8843
0
LINE
8
BLACK
6
CONTINUOUS
10
145.158
20
-71.8843
11
145.157
21
-71.8886
0
LINE
8
BLACK
6
CONTINUOUS
10
145.157
20
-71.8886
11
145.158
21
-71.8929
0
LINE
8
BLACK
6
CONTINUOUS
10
145.158
20
-71.8929
11
145.158
21
-72.0357
0
LINE
8
BLACK
6
CONTINUOUS
10
145.158
20
-72.0357
11
145.154
21
-72.0614
0
LINE
8
BLACK
6
CONTINUOUS
10
145.154
20
-72.0614
11
145.151
21
-72.0648
0
LINE
8
BLACK
6
CONTINUOUS
10
145.151
20
-72.0648
11
145.15
21
-72.0693
0
LINE
8
BLACK
6
CONTINUOUS
10
145.15
20
-72.0693
11
145.103
21
-72.1645
0
LINE
8
BLACK
6
CONTINUOUS
10
145.103
20
-72.1645
11
145.089
21
-72.1825
0
LINE
8
BLACK
6
CONTINUOUS
10
145.089
20
-72.1825
11
145.089
21
-72.184
0
LINE
8
BLACK
6
CONTINUOUS
10
145.089
20
-72.184
11
145.041
21
-72.2316
0
LINE
8
BLACK
6
CONTINUOUS
10
145.041
20
-72.2316
11
145.023
21
-72.2445
0
LINE
8
BLACK
6
CONTINUOUS
10
145.023
20
-72.2445
11
145.022
21
-72.2457
0
LINE
8
BLACK
6
CONTINUOUS
10
145.022
20
-72.2457
11
144.926
21
-72.2933
0
LINE
8
BLACK
6
CONTINUOUS
10
144.926
20
-72.2933
11
144.901
21
-72.3007
0
LINE
8
BLACK
6
CONTINUOUS
10
144.901
20
-72.3007
11
144.897
21
-72.2997
0
LINE
8
BLACK
6
CONTINUOUS
10
144.897
20
-72.2997
11
144.894
21
-72.3008
0
LINE
8
BLACK
6
CONTINUOUS
10
144.894
20
-72.3008
11
145.145
21
-72.6594
0
LINE
8
BLACK
6
CONTINUOUS
10
145.145
20
-72.6594
11
145.156
21
-72.683
0
LINE
8
BLACK
6
CONTINUOUS
10
145.156
20
-72.683
11
145.151
21
-72.7341
0
LINE
8
BLACK
6
CONTINUOUS
10
145.151
20
-72.7341
11
145.115
21
-72.7704
0
LINE
8
BLACK
6
CONTINUOUS
10
145.115
20
-72.7704
11
145.064
21
-72.7748
0
LINE
8
BLACK
6
CONTINUOUS
10
145.064
20
-72.7748
11
145.022
21
-72.7454
0
LINE
8
BLACK
6
CONTINUOUS
10
145.022
20
-72.7454
11
144.711
21
-72.3012
0
LINE
8
BLACK
6
CONTINUOUS
10
144.711
20
-72.3012
11
144.587
21
-72.3012
0
LINE
8
BLACK
6
CONTINUOUS
10
144.587
20
-72.3012
11
144.587
21
-72.7024
0
LINE
8
BLACK
6
CONTINUOUS
10
144.587
20
-72.7024
11
144.582
21
-72.728
0
LINE
8
BLACK
6
CONTINUOUS
10
144.582
20
-72.728
11
144.549
21
-72.7673
0
LINE
8
BLACK
6
CONTINUOUS
10
144.549
20
-72.7673
11
144.499
21
-72.7762
0
LINE
8
BLACK
6
CONTINUOUS
10
144.499
20
-72.7762
11
144.454
21
-72.7506
0
LINE
8
BLACK
6
CONTINUOUS
10
144.454
20
-72.7506
11
144.437
21
-72.7024
0
LINE
8
BLACK
6
CONTINUOUS
10
144.437
20
-72.7024
11
144.437
21
-71.7024
0
LINE
8
BLACK
6
CONTINUOUS
10
144.437
20
-71.7024
11
144.439
21
-71.6926
0
LINE
8
BLACK
6
CONTINUOUS
10
144.439
20
-71.6926
11
144.438
21
-71.6894
0
LINE
8
BLACK
6
CONTINUOUS
10
144.438
20
-71.6894
11
144.44
21
-71.6865
0
LINE
8
BLACK
6
CONTINUOUS
10
144.44
20
-71.6865
11
144.441
21
-71.6767
0
LINE
8
BLACK
6
CONTINUOUS
10
144.441
20
-71.6767
11
144.454
21
-71.6618
0
LINE
8
BLACK
6
CONTINUOUS
10
144.454
20
-71.6618
11
144.464
21
-71.6449
0
LINE
8
BLACK
6
CONTINUOUS
10
144.464
20
-71.6449
11
144.47
21
-71.6426
0
LINE
8
BLACK
6
CONTINUOUS
10
144.47
20
-71.6426
11
144.474
21
-71.6374
0
LINE
8
BLACK
6
CONTINUOUS
10
144.474
20
-71.6374
11
144.494
21
-71.634
0
LINE
8
BLACK
6
CONTINUOUS
10
144.494
20
-71.634
11
144.512
21
-71.6274
0
LINE
8
BLACK
6
CONTINUOUS
10
144.512
20
-71.6274
11
144.893
21
-71.6274
0
LINE
8
BLACK
6
CONTINUOUS
10
144.893
20
-71.6274
11
144.919
21
-71.6319
0
LINE
8
BLACK
6
CONTINUOUS
10
144.587
20
-71.7774
11
144.587
21
-72.1512
0
LINE
8
BLACK
6
CONTINUOUS
10
144.587
20
-72.1512
11
144.875
21
-72.1512
0
LINE
8
BLACK
6
CONTINUOUS
10
144.875
20
-72.1512
11
144.944
21
-72.1169
0
LINE
8
BLACK
6
CONTINUOUS
10
144.944
20
-72.1169
11
144.974
21
-72.0865
0
LINE
8
BLACK
6
CONTINUOUS
10
144.974
20
-72.0865
11
145.008
21
-72.018
0
LINE
8
BLACK
6
CONTINUOUS
10
145.008
20
-72.018
11
145.008
21
-71.9106
0
LINE
8
BLACK
6
CONTINUOUS
10
145.008
20
-71.9106
11
144.974
21
-71.842
0
LINE
8
BLACK
6
CONTINUOUS
10
144.974
20
-71.842
11
144.944
21
-71.8116
0
LINE
8
BLACK
6
CONTINUOUS
10
144.944
20
-71.8116
11
144.875
21
-71.7774
0
LINE
8
BLACK
6
CONTINUOUS
10
144.875
20
-71.7774
11
144.587
21
-71.7774
0
LINE
8
BLACK
6
CONTINUOUS
10
138.292
20
-70.8526
11
138.31
21
-70.895
0
LINE
8
BLACK
6
CONTINUOUS
10
138.31
20
-70.895
11
138.292
21
-70.9374
0
LINE
8
BLACK
6
CONTINUOUS
10
138.292
20
-70.9374
11
138.25
21
-70.955
0
LINE
8
BLACK
6
CONTINUOUS
10
138.25
20
-70.955
11
136.98
21
-70.955
0
LINE
8
BLACK
6
CONTINUOUS
10
136.98
20
-70.955
11
136.98
21
-72.225
0
LINE
8
BLACK
6
CONTINUOUS
10
136.98
20
-72.225
11
136.962
21
-72.2674
0
LINE
8
BLACK
6
CONTINUOUS
10
136.962
20
-72.2674
11
136.92
21
-72.285
0
LINE
8
BLACK
6
CONTINUOUS
10
136.92
20
-72.285
11
136.878
21
-72.2674
0
LINE
8
BLACK
6
CONTINUOUS
10
136.878
20
-72.2674
11
136.86
21
-72.225
0
LINE
8
BLACK
6
CONTINUOUS
10
136.86
20
-72.225
11
136.86
21
-70.895
0
LINE
8
BLACK
6
CONTINUOUS
10
136.86
20
-70.895
11
136.878
21
-70.8526
0
LINE
8
BLACK
6
CONTINUOUS
10
136.878
20
-70.8526
11
136.92
21
-70.835
0
LINE
8
BLACK
6
CONTINUOUS
10
136.92
20
-70.835
11
138.25
21
-70.835
0
LINE
8
BLACK
6
CONTINUOUS
10
138.25
20
-70.835
11
138.292
21
-70.8526
0
LINE
8
BLACK
6
CONTINUOUS
10
142.759
20
-71.1293
11
142.763
21
-71.1285
0
LINE
8
BLACK
6
CONTINUOUS
10
142.763
20
-71.1285
11
142.782
21
-71.1394
0
LINE
8
BLACK
6
CONTINUOUS
10
142.782
20
-71.1394
11
142.802
21
-71.1481
0
LINE
8
BLACK
6
CONTINUOUS
10
142.802
20
-71.1481
11
142.804
21
-71.152
0
LINE
8
BLACK
6
CONTINUOUS
10
142.804
20
-71.152
11
142.807
21
-71.1542
0
LINE
8
BLACK
6
CONTINUOUS
10
142.807
20
-71.1542
11
142.815
21
-71.1746
0
LINE
8
BLACK
6
CONTINUOUS
10
142.815
20
-71.1746
11
142.825
21
-71.1941
0
LINE
8
BLACK
6
CONTINUOUS
10
142.825
20
-71.1941
11
142.824
21
-71.1983
0
LINE
8
BLACK
6
CONTINUOUS
10
142.824
20
-71.1983
11
142.825
21
-71.2024
0
LINE
8
BLACK
6
CONTINUOUS
10
142.825
20
-71.2024
11
142.825
21
-72.1274
0
LINE
8
BLACK
6
CONTINUOUS
10
142.825
20
-72.1274
11
143.036
21
-72.1274
0
LINE
8
BLACK
6
CONTINUOUS
10
143.036
20
-72.1274
11
143.061
21
-72.1319
0
LINE
8
BLACK
6
CONTINUOUS
10
143.061
20
-72.1319
11
143.101
21
-72.1649
0
LINE
8
BLACK
6
CONTINUOUS
10
143.101
20
-72.1649
11
143.11
21
-72.2154
0
LINE
8
BLACK
6
CONTINUOUS
10
143.11
20
-72.2154
11
143.084
21
-72.2598
0
LINE
8
BLACK
6
CONTINUOUS
10
143.084
20
-72.2598
11
143.036
21
-72.2774
0
LINE
8
BLACK
6
CONTINUOUS
10
143.036
20
-72.2774
11
142.464
21
-72.2774
0
LINE
8
BLACK
6
CONTINUOUS
10
142.464
20
-72.2774
11
142.439
21
-72.2729
0
LINE
8
BLACK
6
CONTINUOUS
10
142.439
20
-72.2729
11
142.399
21
-72.2399
0
LINE
8
BLACK
6
CONTINUOUS
10
142.399
20
-72.2399
11
142.39
21
-72.1894
0
LINE
8
BLACK
6
CONTINUOUS
10
142.39
20
-72.1894
11
142.416
21
-72.1449
0
LINE
8
BLACK
6
CONTINUOUS
10
142.416
20
-72.1449
11
142.464
21
-72.1274
0
LINE
8
BLACK
6
CONTINUOUS
10
142.464
20
-72.1274
11
142.675
21
-72.1274
0
LINE
8
BLACK
6
CONTINUOUS
10
142.675
20
-72.1274
11
142.675
21
-71.4311
0
LINE
8
BLACK
6
CONTINUOUS
10
142.675
20
-71.4311
11
142.613
21
-71.4935
0
LINE
8
BLACK
6
CONTINUOUS
10
142.613
20
-71.4935
11
142.594
21
-71.5064
0
LINE
8
BLACK
6
CONTINUOUS
10
142.594
20
-71.5064
11
142.593
21
-71.5076
0
LINE
8
BLACK
6
CONTINUOUS
10
142.593
20
-71.5076
11
142.498
21
-71.5552
0
LINE
8
BLACK
6
CONTINUOUS
10
142.498
20
-71.5552
11
142.473
21
-71.5626
0
LINE
8
BLACK
6
CONTINUOUS
10
142.473
20
-71.5626
11
142.423
21
-71.5507
0
LINE
8
BLACK
6
CONTINUOUS
10
142.423
20
-71.5507
11
142.392
21
-71.5095
0
LINE
8
BLACK
6
CONTINUOUS
10
142.392
20
-71.5095
11
142.395
21
-71.4583
0
LINE
8
BLACK
6
CONTINUOUS
10
142.395
20
-71.4583
11
142.431
21
-71.421
0
LINE
8
BLACK
6
CONTINUOUS
10
142.431
20
-71.421
11
142.515
21
-71.3788
0
LINE
8
BLACK
6
CONTINUOUS
10
142.515
20
-71.3788
11
142.596
21
-71.2975
0
LINE
8
BLACK
6
CONTINUOUS
10
142.596
20
-71.2975
11
142.688
21
-71.1608
0
LINE
8
BLACK
6
CONTINUOUS
10
142.688
20
-71.1608
11
142.706
21
-71.1419
0
LINE
8
BLACK
6
CONTINUOUS
10
142.706
20
-71.1419
11
142.71
21
-71.1407
0
LINE
8
BLACK
6
CONTINUOUS
10
142.71
20
-71.1407
11
142.713
21
-71.1374
0
LINE
8
BLACK
6
CONTINUOUS
10
142.713
20
-71.1374
11
142.734
21
-71.1336
0
LINE
8
BLACK
6
CONTINUOUS
10
142.734
20
-71.1336
11
142.755
21
-71.1275
0
LINE
8
BLACK
6
CONTINUOUS
10
142.755
20
-71.1275
11
142.759
21
-71.1293
0
LINE
8
BLACK
6
CONTINUOUS
10
141.919
20
-71.1319
11
141.922
21
-71.1348
0
LINE
8
BLACK
6
CONTINUOUS
10
141.922
20
-71.1348
11
141.926
21
-71.1353
0
LINE
8
BLACK
6
CONTINUOUS
10
141.926
20
-71.1353
11
142.022
21
-71.1829
0
LINE
8
BLACK
6
CONTINUOUS
10
142.022
20
-71.1829
11
142.04
21
-71.1963
0
LINE
8
BLACK
6
CONTINUOUS
10
142.04
20
-71.1963
11
142.041
21
-71.197
0
LINE
8
BLACK
6
CONTINUOUS
10
142.041
20
-71.197
11
142.089
21
-71.2446
0
LINE
8
BLACK
6
CONTINUOUS
10
142.089
20
-71.2446
11
142.102
21
-71.263
0
LINE
8
BLACK
6
CONTINUOUS
10
142.102
20
-71.263
11
142.103
21
-71.2641
0
LINE
8
BLACK
6
CONTINUOUS
10
142.103
20
-71.2641
11
142.15
21
-71.3593
0
LINE
8
BLACK
6
CONTINUOUS
10
142.15
20
-71.3593
11
142.158
21
-71.3843
0
LINE
8
BLACK
6
CONTINUOUS
10
142.158
20
-71.3843
11
142.157
21
-71.3886
0
LINE
8
BLACK
6
CONTINUOUS
10
142.157
20
-71.3886
11
142.158
21
-71.3929
0
LINE
8
BLACK
6
CONTINUOUS
10
142.158
20
-71.3929
11
142.158
21
-71.5357
0
LINE
8
BLACK
6
CONTINUOUS
10
142.158
20
-71.5357
11
142.154
21
-71.5614
0
LINE
8
BLACK
6
CONTINUOUS
10
142.154
20
-71.5614
11
142.151
21
-71.5648
0
LINE
8
BLACK
6
CONTINUOUS
10
142.151
20
-71.5648
11
142.15
21
-71.5693
0
LINE
8
BLACK
6
CONTINUOUS
10
142.15
20
-71.5693
11
142.103
21
-71.6645
0
LINE
8
BLACK
6
CONTINUOUS
10
142.103
20
-71.6645
11
142.089
21
-71.6825
0
LINE
8
BLACK
6
CONTINUOUS
10
142.089
20
-71.6825
11
142.089
21
-71.684
0
LINE
8
BLACK
6
CONTINUOUS
10
142.089
20
-71.684
11
142.041
21
-71.7316
0
LINE
8
BLACK
6
CONTINUOUS
10
142.041
20
-71.7316
11
142.023
21
-71.7445
0
LINE
8
BLACK
6
CONTINUOUS
10
142.023
20
-71.7445
11
142.022
21
-71.7457
0
LINE
8
BLACK
6
CONTINUOUS
10
142.022
20
-71.7457
11
141.926
21
-71.7933
0
LINE
8
BLACK
6
CONTINUOUS
10
141.926
20
-71.7933
11
141.901
21
-71.8007
0
LINE
8
BLACK
6
CONTINUOUS
10
141.901
20
-71.8007
11
141.897
21
-71.7997
0
LINE
8
BLACK
6
CONTINUOUS
10
141.897
20
-71.7997
11
141.894
21
-71.8008
0
LINE
8
BLACK
6
CONTINUOUS
10
141.894
20
-71.8008
11
142.145
21
-72.1594
0
LINE
8
BLACK
6
CONTINUOUS
10
142.145
20
-72.1594
11
142.156
21
-72.183
0
LINE
8
BLACK
6
CONTINUOUS
10
142.156
20
-72.183
11
142.151
21
-72.2341
0
LINE
8
BLACK
6
CONTINUOUS
10
142.151
20
-72.2341
11
142.115
21
-72.2704
0
LINE
8
BLACK
6
CONTINUOUS
10
142.115
20
-72.2704
11
142.064
21
-72.2748
0
LINE
8
BLACK
6
CONTINUOUS
10
142.064
20
-72.2748
11
142.022
21
-72.2454
0
LINE
8
BLACK
6
CONTINUOUS
10
142.022
20
-72.2454
11
141.711
21
-71.8012
0
LINE
8
BLACK
6
CONTINUOUS
10
141.711
20
-71.8012
11
141.587
21
-71.8012
0
LINE
8
BLACK
6
CONTINUOUS
10
141.587
20
-71.8012
11
141.587
21
-72.2024
0
LINE
8
BLACK
6
CONTINUOUS
10
141.587
20
-72.2024
11
141.582
21
-72.228
0
LINE
8
BLACK
6
CONTINUOUS
10
141.582
20
-72.228
11
141.549
21
-72.2673
0
LINE
8
BLACK
6
CONTINUOUS
10
141.549
20
-72.2673
11
141.499
21
-72.2762
0
LINE
8
BLACK
6
CONTINUOUS
10
141.499
20
-72.2762
11
141.454
21
-72.2506
0
LINE
8
BLACK
6
CONTINUOUS
10
141.454
20
-72.2506
11
141.437
21
-72.2024
0
LINE
8
BLACK
6
CONTINUOUS
10
141.437
20
-72.2024
11
141.437
21
-71.2024
0
LINE
8
BLACK
6
CONTINUOUS
10
141.437
20
-71.2024
11
141.439
21
-71.1926
0
LINE
8
BLACK
6
CONTINUOUS
10
141.439
20
-71.1926
11
141.438
21
-71.1894
0
LINE
8
BLACK
6
CONTINUOUS
10
141.438
20
-71.1894
11
141.44
21
-71.1865
0
LINE
8
BLACK
6
CONTINUOUS
10
141.44
20
-71.1865
11
141.441
21
-71.1767
0
LINE
8
BLACK
6
CONTINUOUS
10
141.441
20
-71.1767
11
141.454
21
-71.1618
0
LINE
8
BLACK
6
CONTINUOUS
10
141.454
20
-71.1618
11
141.464
21
-71.1449
0
LINE
8
BLACK
6
CONTINUOUS
10
141.464
20
-71.1449
11
141.47
21
-71.1426
0
LINE
8
BLACK
6
CONTINUOUS
10
141.47
20
-71.1426
11
141.474
21
-71.1374
0
LINE
8
BLACK
6
CONTINUOUS
10
141.474
20
-71.1374
11
141.494
21
-71.134
0
LINE
8
BLACK
6
CONTINUOUS
10
141.494
20
-71.134
11
141.512
21
-71.1274
0
LINE
8
BLACK
6
CONTINUOUS
10
141.512
20
-71.1274
11
141.893
21
-71.1274
0
LINE
8
BLACK
6
CONTINUOUS
10
141.893
20
-71.1274
11
141.919
21
-71.1319
0
LINE
8
BLACK
6
CONTINUOUS
10
141.587
20
-71.2774
11
141.587
21
-71.6512
0
LINE
8
BLACK
6
CONTINUOUS
10
141.587
20
-71.6512
11
141.875
21
-71.6512
0
LINE
8
BLACK
6
CONTINUOUS
10
141.875
20
-71.6512
11
141.944
21
-71.6169
0
LINE
8
BLACK
6
CONTINUOUS
10
141.944
20
-71.6169
11
141.974
21
-71.5865
0
LINE
8
BLACK
6
CONTINUOUS
10
141.974
20
-71.5865
11
142.008
21
-71.518
0
LINE
8
BLACK
6
CONTINUOUS
10
142.008
20
-71.518
11
142.008
21
-71.4106
0
LINE
8
BLACK
6
CONTINUOUS
10
142.008
20
-71.4106
11
141.974
21
-71.342
0
LINE
8
BLACK
6
CONTINUOUS
10
141.974
20
-71.342
11
141.944
21
-71.3116
0
LINE
8
BLACK
6
CONTINUOUS
10
141.944
20
-71.3116
11
141.875
21
-71.2774
0
LINE
8
BLACK
6
CONTINUOUS
10
141.875
20
-71.2774
11
141.587
21
-71.2774
0
LINE
8
BLACK
6
CONTINUOUS
10
148.519
20
-71.4726
11
148.537
21
-71.515
0
LINE
8
BLACK
6
CONTINUOUS
10
148.537
20
-71.515
11
148.519
21
-71.5574
0
LINE
8
BLACK
6
CONTINUOUS
10
148.519
20
-71.5574
11
148.477
21
-71.575
0
LINE
8
BLACK
6
CONTINUOUS
10
148.477
20
-71.575
11
148.023
21
-71.575
0
LINE
8
BLACK
6
CONTINUOUS
10
148.023
20
-71.575
11
147.981
21
-71.5574
0
LINE
8
BLACK
6
CONTINUOUS
10
147.981
20
-71.5574
11
147.963
21
-71.515
0
LINE
8
BLACK
6
CONTINUOUS
10
147.963
20
-71.515
11
147.981
21
-71.4726
0
LINE
8
BLACK
6
CONTINUOUS
10
147.981
20
-71.4726
11
148.023
21
-71.455
0
LINE
8
BLACK
6
CONTINUOUS
10
148.023
20
-71.455
11
148.477
21
-71.455
0
LINE
8
BLACK
6
CONTINUOUS
10
148.477
20
-71.455
11
148.519
21
-71.4726
0
LINE
8
BLACK
6
CONTINUOUS
10
148.519
20
-70.6926
11
148.537
21
-70.735
0
LINE
8
BLACK
6
CONTINUOUS
10
148.537
20
-70.735
11
148.519
21
-70.7774
0
LINE
8
BLACK
6
CONTINUOUS
10
148.519
20
-70.7774
11
148.477
21
-70.795
0
LINE
8
BLACK
6
CONTINUOUS
10
148.477
20
-70.795
11
148.023
21
-70.795
0
LINE
8
BLACK
6
CONTINUOUS
10
148.023
20
-70.795
11
147.981
21
-70.7774
0
LINE
8
BLACK
6
CONTINUOUS
10
147.981
20
-70.7774
11
147.963
21
-70.735
0
LINE
8
BLACK
6
CONTINUOUS
10
147.963
20
-70.735
11
147.981
21
-70.6926
0
LINE
8
BLACK
6
CONTINUOUS
10
147.981
20
-70.6926
11
148.023
21
-70.675
0
LINE
8
BLACK
6
CONTINUOUS
10
148.023
20
-70.675
11
148.477
21
-70.675
0
LINE
8
BLACK
6
CONTINUOUS
10
148.477
20
-70.675
11
148.519
21
-70.6926
0
LINE
8
BLACK
6
CONTINUOUS
10
142.519
20
-70.6926
11
142.537
21
-70.735
0
LINE
8
BLACK
6
CONTINUOUS
10
142.537
20
-70.735
11
142.519
21
-70.7774
0
LINE
8
BLACK
6
CONTINUOUS
10
142.519
20
-70.7774
11
142.477
21
-70.795
0
LINE
8
BLACK
6
CONTINUOUS
10
142.477
20
-70.795
11
142.023
21
-70.795
0
LINE
8
BLACK
6
CONTINUOUS
10
142.023
20
-70.795
11
141.981
21
-70.7774
0
LINE
8
BLACK
6
CONTINUOUS
10
141.981
20
-70.7774
11
141.963
21
-70.735
0
LINE
8
BLACK
6
CONTINUOUS
10
141.963
20
-70.735
11
141.981
21
-70.6926
0
LINE
8
BLACK
6
CONTINUOUS
10
141.981
20
-70.6926
11
142.023
21
-70.675
0
LINE
8
BLACK
6
CONTINUOUS
10
142.023
20
-70.675
11
142.477
21
-70.675
0
LINE
8
BLACK
6
CONTINUOUS
10
142.477
20
-70.675
11
142.519
21
-70.6926
0
LINE
8
BLACK
6
CONTINUOUS
10
156.395
20
-69.3819
11
156.398
21
-69.3848
0
LINE
8
BLACK
6
CONTINUOUS
10
156.398
20
-69.3848
11
156.403
21
-69.3853
0
LINE
8
BLACK
6
CONTINUOUS
10
156.403
20
-69.3853
11
156.498
21
-69.4329
0
LINE
8
BLACK
6
CONTINUOUS
10
156.498
20
-69.4329
11
156.516
21
-69.4463
0
LINE
8
BLACK
6
CONTINUOUS
10
156.516
20
-69.4463
11
156.517
21
-69.447
0
LINE
8
BLACK
6
CONTINUOUS
10
156.517
20
-69.447
11
156.613
21
-69.5422
0
LINE
8
BLACK
6
CONTINUOUS
10
156.613
20
-69.5422
11
156.627
21
-69.5635
0
LINE
8
BLACK
6
CONTINUOUS
10
156.627
20
-69.5635
11
156.628
21
-69.5709
0
LINE
8
BLACK
6
CONTINUOUS
10
156.628
20
-69.5709
11
156.632
21
-69.577
0
LINE
8
BLACK
6
CONTINUOUS
10
156.632
20
-69.577
11
156.68
21
-69.7675
0
LINE
8
BLACK
6
CONTINUOUS
10
156.68
20
-69.7675
11
156.681
21
-69.7825
0
LINE
8
BLACK
6
CONTINUOUS
10
156.681
20
-69.7825
11
156.682
21
-69.7857
0
LINE
8
BLACK
6
CONTINUOUS
10
156.682
20
-69.7857
11
156.682
21
-70.119
0
LINE
8
BLACK
6
CONTINUOUS
10
156.682
20
-70.119
11
156.68
21
-70.1338
0
LINE
8
BLACK
6
CONTINUOUS
10
156.68
20
-70.1338
11
156.68
21
-70.1372
0
LINE
8
BLACK
6
CONTINUOUS
10
156.68
20
-70.1372
11
156.632
21
-70.3277
0
LINE
8
BLACK
6
CONTINUOUS
10
156.632
20
-70.3277
11
156.622
21
-70.3515
0
LINE
8
BLACK
6
CONTINUOUS
10
156.622
20
-70.3515
11
156.616
21
-70.3558
0
LINE
8
BLACK
6
CONTINUOUS
10
156.616
20
-70.3558
11
156.613
21
-70.3626
0
LINE
8
BLACK
6
CONTINUOUS
10
156.613
20
-70.3626
11
156.57
21
-70.4048
0
LINE
8
BLACK
6
CONTINUOUS
10
156.57
20
-70.4048
11
156.604
21
-70.4384
0
LINE
8
BLACK
6
CONTINUOUS
10
156.604
20
-70.4384
11
156.688
21
-70.4805
0
LINE
8
BLACK
6
CONTINUOUS
10
156.688
20
-70.4805
11
156.709
21
-70.4961
0
LINE
8
BLACK
6
CONTINUOUS
10
156.709
20
-70.4961
11
156.73
21
-70.5431
0
LINE
8
BLACK
6
CONTINUOUS
10
156.73
20
-70.5431
11
156.715
21
-70.5923
0
LINE
8
BLACK
6
CONTINUOUS
10
156.715
20
-70.5923
11
156.672
21
-70.6206
0
LINE
8
BLACK
6
CONTINUOUS
10
156.672
20
-70.6206
11
156.621
21
-70.6147
0
LINE
8
BLACK
6
CONTINUOUS
10
156.621
20
-70.6147
11
156.526
21
-70.5671
0
LINE
8
BLACK
6
CONTINUOUS
10
156.526
20
-70.5671
11
156.508
21
-70.5537
0
LINE
8
BLACK
6
CONTINUOUS
10
156.508
20
-70.5537
11
156.506
21
-70.553
0
LINE
8
BLACK
6
CONTINUOUS
10
156.506
20
-70.553
11
156.449
21
-70.496
0
LINE
8
BLACK
6
CONTINUOUS
10
156.449
20
-70.496
11
156.403
21
-70.5195
0
LINE
8
BLACK
6
CONTINUOUS
10
156.403
20
-70.5195
11
156.378
21
-70.5269
0
LINE
8
BLACK
6
CONTINUOUS
10
156.378
20
-70.5269
11
156.373
21
-70.5258
0
LINE
8
BLACK
6
CONTINUOUS
10
156.373
20
-70.5258
11
156.369
21
-70.5274
0
LINE
8
BLACK
6
CONTINUOUS
10
156.369
20
-70.5274
11
156.179
21
-70.5274
0
LINE
8
BLACK
6
CONTINUOUS
10
156.179
20
-70.5274
11
156.153
21
-70.5229
0
LINE
8
BLACK
6
CONTINUOUS
10
156.153
20
-70.5229
11
156.149
21
-70.52
0
LINE
8
BLACK
6
CONTINUOUS
10
156.149
20
-70.52
11
156.145
21
-70.5195
0
LINE
8
BLACK
6
CONTINUOUS
10
156.145
20
-70.5195
11
156.05
21
-70.4718
0
LINE
8
BLACK
6
CONTINUOUS
10
156.05
20
-70.4718
11
156.032
21
-70.4585
0
LINE
8
BLACK
6
CONTINUOUS
10
156.032
20
-70.4585
11
156.03
21
-70.4578
0
LINE
8
BLACK
6
CONTINUOUS
10
156.03
20
-70.4578
11
155.935
21
-70.3626
0
LINE
8
BLACK
6
CONTINUOUS
10
155.935
20
-70.3626
11
155.92
21
-70.3412
0
LINE
8
BLACK
6
CONTINUOUS
10
155.92
20
-70.3412
11
155.919
21
-70.3338
0
LINE
8
BLACK
6
CONTINUOUS
10
155.919
20
-70.3338
11
155.915
21
-70.3277
0
LINE
8
BLACK
6
CONTINUOUS
10
155.915
20
-70.3277
11
155.868
21
-70.1372
0
LINE
8
BLACK
6
CONTINUOUS
10
155.868
20
-70.1372
11
155.867
21
-70.1223
0
LINE
8
BLACK
6
CONTINUOUS
10
155.867
20
-70.1223
11
155.865
21
-70.119
0
LINE
8
BLACK
6
CONTINUOUS
10
155.865
20
-70.119
11
155.865
21
-69.7857
0
LINE
8
BLACK
6
CONTINUOUS
10
155.865
20
-69.7857
11
155.868
21
-69.771
0
LINE
8
BLACK
6
CONTINUOUS
10
155.868
20
-69.771
11
155.868
21
-69.7675
0
LINE
8
BLACK
6
CONTINUOUS
10
155.868
20
-69.7675
11
155.915
21
-69.577
0
LINE
8
BLACK
6
CONTINUOUS
10
155.915
20
-69.577
11
155.926
21
-69.5533
0
LINE
8
BLACK
6
CONTINUOUS
10
155.926
20
-69.5533
11
155.932
21
-69.5489
0
LINE
8
BLACK
6
CONTINUOUS
10
155.932
20
-69.5489
11
155.935
21
-69.5422
0
LINE
8
BLACK
6
CONTINUOUS
10
155.935
20
-69.5422
11
156.03
21
-69.447
0
LINE
8
BLACK
6
CONTINUOUS
10
156.03
20
-69.447
11
156.049
21
-69.4341
0
LINE
8
BLACK
6
CONTINUOUS
10
156.049
20
-69.4341
11
156.05
21
-69.4329
0
LINE
8
BLACK
6
CONTINUOUS
10
156.05
20
-69.4329
11
156.145
21
-69.3853
0
LINE
8
BLACK
6
CONTINUOUS
10
156.145
20
-69.3853
11
156.17
21
-69.3779
0
LINE
8
BLACK
6
CONTINUOUS
10
156.17
20
-69.3779
11
156.174
21
-69.3789
0
LINE
8
BLACK
6
CONTINUOUS
10
156.174
20
-69.3789
11
156.179
21
-69.3774
0
LINE
8
BLACK
6
CONTINUOUS
10
156.179
20
-69.3774
11
156.369
21
-69.3774
0
LINE
8
BLACK
6
CONTINUOUS
10
156.369
20
-69.3774
11
156.395
21
-69.3819
0
LINE
8
BLACK
6
CONTINUOUS
10
156.196
20
-69.5274
11
156.128
21
-69.5616
0
LINE
8
BLACK
6
CONTINUOUS
10
156.128
20
-69.5616
11
156.056
21
-69.6336
0
LINE
8
BLACK
6
CONTINUOUS
10
156.056
20
-69.6336
11
156.015
21
-69.7949
0
LINE
8
BLACK
6
CONTINUOUS
10
156.015
20
-69.7949
11
156.015
21
-70.1098
0
LINE
8
BLACK
6
CONTINUOUS
10
156.015
20
-70.1098
11
156.056
21
-70.2712
0
LINE
8
BLACK
6
CONTINUOUS
10
156.056
20
-70.2712
11
156.128
21
-70.3431
0
LINE
8
BLACK
6
CONTINUOUS
10
156.128
20
-70.3431
11
156.196
21
-70.3774
0
LINE
8
BLACK
6
CONTINUOUS
10
156.196
20
-70.3774
11
156.331
21
-70.3774
0
LINE
8
BLACK
6
CONTINUOUS
10
156.331
20
-70.3774
11
156.277
21
-70.3235
0
LINE
8
BLACK
6
CONTINUOUS
10
156.277
20
-70.3235
11
156.208
21
-70.2893
0
LINE
8
BLACK
6
CONTINUOUS
10
156.208
20
-70.2893
11
156.131
21
-70.2893
0
LINE
8
BLACK
6
CONTINUOUS
10
156.131
20
-70.2893
11
156.105
21
-70.2848
0
LINE
8
BLACK
6
CONTINUOUS
10
156.105
20
-70.2848
11
156.066
21
-70.2518
0
LINE
8
BLACK
6
CONTINUOUS
10
156.066
20
-70.2518
11
156.057
21
-70.2013
0
LINE
8
BLACK
6
CONTINUOUS
10
156.057
20
-70.2013
11
156.083
21
-70.1568
0
LINE
8
BLACK
6
CONTINUOUS
10
156.083
20
-70.1568
11
156.131
21
-70.1393
0
LINE
8
BLACK
6
CONTINUOUS
10
156.131
20
-70.1393
11
156.226
21
-70.1393
0
LINE
8
BLACK
6
CONTINUOUS
10
156.226
20
-70.1393
11
156.252
21
-70.1438
0
LINE
8
BLACK
6
CONTINUOUS
10
156.252
20
-70.1438
11
156.255
21
-70.1467
0
LINE
8
BLACK
6
CONTINUOUS
10
156.255
20
-70.1467
11
156.26
21
-70.1472
0
LINE
8
BLACK
6
CONTINUOUS
10
156.26
20
-70.1472
11
156.355
21
-70.1948
0
LINE
8
BLACK
6
CONTINUOUS
10
156.355
20
-70.1948
11
156.373
21
-70.2082
0
LINE
8
BLACK
6
CONTINUOUS
10
156.373
20
-70.2082
11
156.374
21
-70.2089
0
LINE
8
BLACK
6
CONTINUOUS
10
156.374
20
-70.2089
11
156.464
21
-70.2987
0
LINE
8
BLACK
6
CONTINUOUS
10
156.464
20
-70.2987
11
156.492
21
-70.2712
0
LINE
8
BLACK
6
CONTINUOUS
10
156.492
20
-70.2712
11
156.532
21
-70.1098
0
LINE
8
BLACK
6
CONTINUOUS
10
156.532
20
-70.1098
11
156.532
21
-69.7949
0
LINE
8
BLACK
6
CONTINUOUS
10
156.532
20
-69.7949
11
156.492
21
-69.6336
0
LINE
8
BLACK
6
CONTINUOUS
10
156.492
20
-69.6336
11
156.42
21
-69.5616
0
LINE
8
BLACK
6
CONTINUOUS
10
156.42
20
-69.5616
11
156.351
21
-69.5274
0
LINE
8
BLACK
6
CONTINUOUS
10
156.351
20
-69.5274
11
156.196
21
-69.5274
0
LINE
8
BLACK
6
CONTINUOUS
10
157.395
20
-69.3819
11
157.398
21
-69.3848
0
LINE
8
BLACK
6
CONTINUOUS
10
157.398
20
-69.3848
11
157.403
21
-69.3853
0
LINE
8
BLACK
6
CONTINUOUS
10
157.403
20
-69.3853
11
157.498
21
-69.4329
0
LINE
8
BLACK
6
CONTINUOUS
10
157.498
20
-69.4329
11
157.516
21
-69.4463
0
LINE
8
BLACK
6
CONTINUOUS
10
157.516
20
-69.4463
11
157.517
21
-69.447
0
LINE
8
BLACK
6
CONTINUOUS
10
157.517
20
-69.447
11
157.565
21
-69.4946
0
LINE
8
BLACK
6
CONTINUOUS
10
157.565
20
-69.4946
11
157.578
21
-69.513
0
LINE
8
BLACK
6
CONTINUOUS
10
157.578
20
-69.513
11
157.579
21
-69.5141
0
LINE
8
BLACK
6
CONTINUOUS
10
157.579
20
-69.5141
11
157.627
21
-69.6093
0
LINE
8
BLACK
6
CONTINUOUS
10
157.627
20
-69.6093
11
157.634
21
-69.6343
0
LINE
8
BLACK
6
CONTINUOUS
10
157.634
20
-69.6343
11
157.633
21
-69.6386
0
LINE
8
BLACK
6
CONTINUOUS
10
157.633
20
-69.6386
11
157.635
21
-69.6429
0
LINE
8
BLACK
6
CONTINUOUS
10
157.635
20
-69.6429
11
157.635
21
-69.7381
0
LINE
8
BLACK
6
CONTINUOUS
10
157.635
20
-69.7381
11
157.631
21
-69.7602
0
LINE
8
BLACK
6
CONTINUOUS
10
157.631
20
-69.7602
11
157.631
21
-69.7618
0
LINE
8
BLACK
6
CONTINUOUS
10
157.631
20
-69.7618
11
157.583
21
-69.9047
0
LINE
8
BLACK
6
CONTINUOUS
10
157.583
20
-69.9047
11
157.571
21
-69.9276
0
LINE
8
BLACK
6
CONTINUOUS
10
157.571
20
-69.9276
11
157.567
21
-69.9299
0
LINE
8
BLACK
6
CONTINUOUS
10
157.567
20
-69.9299
11
157.565
21
-69.934
0
LINE
8
BLACK
6
CONTINUOUS
10
157.565
20
-69.934
11
157.122
21
-70.3774
0
LINE
8
BLACK
6
CONTINUOUS
10
157.122
20
-70.3774
11
157.56
21
-70.3774
0
LINE
8
BLACK
6
CONTINUOUS
10
157.56
20
-70.3774
11
157.585
21
-70.3819
0
LINE
8
BLACK
6
CONTINUOUS
10
157.585
20
-70.3819
11
157.624
21
-70.4149
0
LINE
8
BLACK
6
CONTINUOUS
10
157.624
20
-70.4149
11
157.633
21
-70.4654
0
LINE
8
BLACK
6
CONTINUOUS
10
157.633
20
-70.4654
11
157.608
21
-70.5098
0
LINE
8
BLACK
6
CONTINUOUS
10
157.608
20
-70.5098
11
157.56
21
-70.5274
0
LINE
8
BLACK
6
CONTINUOUS
10
157.56
20
-70.5274
11
156.94
21
-70.5274
0
LINE
8
BLACK
6
CONTINUOUS
10
156.94
20
-70.5274
11
156.924
21
-70.5245
0
LINE
8
BLACK
6
CONTINUOUS
10
156.924
20
-70.5245
11
156.921
21
-70.5248
0
LINE
8
BLACK
6
CONTINUOUS
10
156.921
20
-70.5248
11
156.919
21
-70.5237
0
LINE
8
BLACK
6
CONTINUOUS
10
156.919
20
-70.5237
11
156.915
21
-70.5229
0
LINE
8
BLACK
6
CONTINUOUS
10
156.915
20
-70.5229
11
156.898
21
-70.5083
0
LINE
8
BLACK
6
CONTINUOUS
10
156.898
20
-70.5083
11
156.879
21
-70.4954
0
LINE
8
BLACK
6
CONTINUOUS
10
156.879
20
-70.4954
11
156.878
21
-70.4921
0
LINE
8
BLACK
6
CONTINUOUS
10
156.878
20
-70.4921
11
156.876
21
-70.4899
0
LINE
8
BLACK
6
CONTINUOUS
10
156.876
20
-70.4899
11
156.872
21
-70.4676
0
LINE
8
BLACK
6
CONTINUOUS
10
156.872
20
-70.4676
11
156.866
21
-70.4458
0
LINE
8
BLACK
6
CONTINUOUS
10
156.866
20
-70.4458
11
156.867
21
-70.4427
0
LINE
8
BLACK
6
CONTINUOUS
10
156.867
20
-70.4427
11
156.867
21
-70.4394
0
LINE
8
BLACK
6
CONTINUOUS
10
156.867
20
-70.4394
11
156.878
21
-70.4198
0
LINE
8
BLACK
6
CONTINUOUS
10
156.878
20
-70.4198
11
156.887
21
-70.3993
0
LINE
8
BLACK
6
CONTINUOUS
10
156.887
20
-70.3993
11
157.446
21
-69.8404
0
LINE
8
BLACK
6
CONTINUOUS
10
157.446
20
-69.8404
11
157.485
21
-69.7259
0
LINE
8
BLACK
6
CONTINUOUS
10
157.485
20
-69.7259
11
157.485
21
-69.6606
0
LINE
8
BLACK
6
CONTINUOUS
10
157.485
20
-69.6606
11
157.45
21
-69.592
0
LINE
8
BLACK
6
CONTINUOUS
10
157.45
20
-69.592
11
157.42
21
-69.5616
0
LINE
8
BLACK
6
CONTINUOUS
10
157.42
20
-69.5616
11
157.351
21
-69.5274
0
LINE
8
BLACK
6
CONTINUOUS
10
157.351
20
-69.5274
11
157.149
21
-69.5274
0
LINE
8
BLACK
6
CONTINUOUS
10
157.149
20
-69.5274
11
157.08
21
-69.5616
0
LINE
8
BLACK
6
CONTINUOUS
10
157.08
20
-69.5616
11
157.041
21
-69.6007
0
LINE
8
BLACK
6
CONTINUOUS
10
157.041
20
-69.6007
11
157.02
21
-69.6156
0
LINE
8
BLACK
6
CONTINUOUS
10
157.02
20
-69.6156
11
156.969
21
-69.6201
0
LINE
8
BLACK
6
CONTINUOUS
10
156.969
20
-69.6201
11
156.927
21
-69.5906
0
LINE
8
BLACK
6
CONTINUOUS
10
156.927
20
-69.5906
11
156.913
21
-69.5411
0
LINE
8
BLACK
6
CONTINUOUS
10
156.913
20
-69.5411
11
156.935
21
-69.4946
0
LINE
8
BLACK
6
CONTINUOUS
10
156.935
20
-69.4946
11
156.983
21
-69.447
0
LINE
8
BLACK
6
CONTINUOUS
10
156.983
20
-69.447
11
157.001
21
-69.4341
0
LINE
8
BLACK
6
CONTINUOUS
10
157.001
20
-69.4341
11
157.002
21
-69.4329
0
LINE
8
BLACK
6
CONTINUOUS
10
157.002
20
-69.4329
11
157.097
21
-69.3853
0
LINE
8
BLACK
6
CONTINUOUS
10
157.097
20
-69.3853
11
157.122
21
-69.3779
0
LINE
8
BLACK
6
CONTINUOUS
10
157.122
20
-69.3779
11
157.127
21
-69.3789
0
LINE
8
BLACK
6
CONTINUOUS
10
157.127
20
-69.3789
11
157.131
21
-69.3774
0
LINE
8
BLACK
6
CONTINUOUS
10
157.131
20
-69.3774
11
157.369
21
-69.3774
0
LINE
8
BLACK
6
CONTINUOUS
10
157.369
20
-69.3774
11
157.395
21
-69.3819
0
LINE
8
BLACK
6
CONTINUOUS
10
146.014
20
-69.3819
11
146.053
21
-69.4149
0
LINE
8
BLACK
6
CONTINUOUS
10
146.053
20
-69.4149
11
146.062
21
-69.4654
0
LINE
8
BLACK
6
CONTINUOUS
10
146.062
20
-69.4654
11
146.036
21
-69.5098
0
LINE
8
BLACK
6
CONTINUOUS
10
146.036
20
-69.5098
11
145.988
21
-69.5274
0
LINE
8
BLACK
6
CONTINUOUS
10
145.988
20
-69.5274
11
145.58
21
-69.5274
0
LINE
8
BLACK
6
CONTINUOUS
10
145.58
20
-69.5274
11
145.555
21
-69.7756
0
LINE
8
BLACK
6
CONTINUOUS
10
145.555
20
-69.7756
11
145.574
21
-69.7663
0
LINE
8
BLACK
6
CONTINUOUS
10
145.574
20
-69.7663
11
145.599
21
-69.7588
0
LINE
8
BLACK
6
CONTINUOUS
10
145.599
20
-69.7588
11
145.603
21
-69.7599
0
LINE
8
BLACK
6
CONTINUOUS
10
145.603
20
-69.7599
11
145.607
21
-69.7583
0
LINE
8
BLACK
6
CONTINUOUS
10
145.607
20
-69.7583
11
145.845
21
-69.7583
0
LINE
8
BLACK
6
CONTINUOUS
10
145.845
20
-69.7583
11
145.871
21
-69.7629
0
LINE
8
BLACK
6
CONTINUOUS
10
145.871
20
-69.7629
11
145.874
21
-69.7657
0
LINE
8
BLACK
6
CONTINUOUS
10
145.874
20
-69.7657
11
145.879
21
-69.7663
0
LINE
8
BLACK
6
CONTINUOUS
10
145.879
20
-69.7663
11
145.974
21
-69.8139
0
LINE
8
BLACK
6
CONTINUOUS
10
145.974
20
-69.8139
11
145.992
21
-69.8272
0
LINE
8
BLACK
6
CONTINUOUS
10
145.992
20
-69.8272
11
145.994
21
-69.8279
0
LINE
8
BLACK
6
CONTINUOUS
10
145.994
20
-69.8279
11
146.041
21
-69.8755
0
LINE
8
BLACK
6
CONTINUOUS
10
146.041
20
-69.8755
11
146.054
21
-69.8939
0
LINE
8
BLACK
6
CONTINUOUS
10
146.054
20
-69.8939
11
146.055
21
-69.895
0
LINE
8
BLACK
6
CONTINUOUS
10
146.055
20
-69.895
11
146.103
21
-69.9903
0
LINE
8
BLACK
6
CONTINUOUS
10
146.103
20
-69.9903
11
146.11
21
-70.0152
0
LINE
8
BLACK
6
CONTINUOUS
10
146.11
20
-70.0152
11
146.109
21
-70.0196
0
LINE
8
BLACK
6
CONTINUOUS
10
146.109
20
-70.0196
11
146.111
21
-70.0238
0
LINE
8
BLACK
6
CONTINUOUS
10
146.111
20
-70.0238
11
146.111
21
-70.2619
0
LINE
8
BLACK
6
CONTINUOUS
10
146.111
20
-70.2619
11
146.106
21
-70.2876
0
LINE
8
BLACK
6
CONTINUOUS
10
146.106
20
-70.2876
11
146.103
21
-70.291
0
LINE
8
BLACK
6
CONTINUOUS
10
146.103
20
-70.291
11
146.103
21
-70.2954
0
LINE
8
BLACK
6
CONTINUOUS
10
146.103
20
-70.2954
11
146.055
21
-70.3907
0
LINE
8
BLACK
6
CONTINUOUS
10
146.055
20
-70.3907
11
146.042
21
-70.4087
0
LINE
8
BLACK
6
CONTINUOUS
10
146.042
20
-70.4087
11
146.041
21
-70.4102
0
LINE
8
BLACK
6
CONTINUOUS
10
146.041
20
-70.4102
11
145.994
21
-70.4578
0
LINE
8
BLACK
6
CONTINUOUS
10
145.994
20
-70.4578
11
145.975
21
-70.4707
0
LINE
8
BLACK
6
CONTINUOUS
10
145.975
20
-70.4707
11
145.974
21
-70.4718
0
LINE
8
BLACK
6
CONTINUOUS
10
145.974
20
-70.4718
11
145.879
21
-70.5195
0
LINE
8
BLACK
6
CONTINUOUS
10
145.879
20
-70.5195
11
145.854
21
-70.5269
0
LINE
8
BLACK
6
CONTINUOUS
10
145.854
20
-70.5269
11
145.849
21
-70.5258
0
LINE
8
BLACK
6
CONTINUOUS
10
145.849
20
-70.5258
11
145.845
21
-70.5274
0
LINE
8
BLACK
6
CONTINUOUS
10
145.845
20
-70.5274
11
145.607
21
-70.5274
0
LINE
8
BLACK
6
CONTINUOUS
10
145.607
20
-70.5274
11
145.581
21
-70.5229
0
LINE
8
BLACK
6
CONTINUOUS
10
145.581
20
-70.5229
11
145.578
21
-70.52
0
LINE
8
BLACK
6
CONTINUOUS
10
145.578
20
-70.52
11
145.574
21
-70.5195
0
LINE
8
BLACK
6
CONTINUOUS
10
145.574
20
-70.5195
11
145.478
21
-70.4718
0
LINE
8
BLACK
6
CONTINUOUS
10
145.478
20
-70.4718
11
145.46
21
-70.4585
0
LINE
8
BLACK
6
CONTINUOUS
10
145.46
20
-70.4585
11
145.459
21
-70.4578
0
LINE
8
BLACK
6
CONTINUOUS
10
145.459
20
-70.4578
11
145.411
21
-70.4102
0
LINE
8
BLACK
6
CONTINUOUS
10
145.411
20
-70.4102
11
145.396
21
-70.3888
0
LINE
8
BLACK
6
CONTINUOUS
10
145.396
20
-70.3888
11
145.392
21
-70.3377
0
LINE
8
BLACK
6
CONTINUOUS
10
145.392
20
-70.3377
11
145.421
21
-70.2957
0
LINE
8
BLACK
6
CONTINUOUS
10
145.421
20
-70.2957
11
145.471
21
-70.2824
0
LINE
8
BLACK
6
CONTINUOUS
10
145.471
20
-70.2824
11
145.517
21
-70.3041
0
LINE
8
BLACK
6
CONTINUOUS
10
145.517
20
-70.3041
11
145.556
21
-70.3431
0
LINE
8
BLACK
6
CONTINUOUS
10
145.556
20
-70.3431
11
145.625
21
-70.3774
0
LINE
8
BLACK
6
CONTINUOUS
10
145.625
20
-70.3774
11
145.828
21
-70.3774
0
LINE
8
BLACK
6
CONTINUOUS
10
145.828
20
-70.3774
11
145.896
21
-70.3431
0
LINE
8
BLACK
6
CONTINUOUS
10
145.896
20
-70.3431
11
145.926
21
-70.3127
0
LINE
8
BLACK
6
CONTINUOUS
10
145.926
20
-70.3127
11
145.961
21
-70.2442
0
LINE
8
BLACK
6
CONTINUOUS
10
145.961
20
-70.2442
11
145.961
21
-70.0415
0
LINE
8
BLACK
6
CONTINUOUS
10
145.961
20
-70.0415
11
145.926
21
-69.973
0
LINE
8
BLACK
6
CONTINUOUS
10
145.926
20
-69.973
11
145.896
21
-69.9426
0
LINE
8
BLACK
6
CONTINUOUS
10
145.896
20
-69.9426
11
145.828
21
-69.9083
0
LINE
8
BLACK
6
CONTINUOUS
10
145.828
20
-69.9083
11
145.625
21
-69.9083
0
LINE
8
BLACK
6
CONTINUOUS
10
145.625
20
-69.9083
11
145.556
21
-69.9426
0
LINE
8
BLACK
6
CONTINUOUS
10
145.556
20
-69.9426
11
145.517
21
-69.9816
0
LINE
8
BLACK
6
CONTINUOUS
10
145.517
20
-69.9816
11
145.496
21
-69.9965
0
LINE
8
BLACK
6
CONTINUOUS
10
145.496
20
-69.9965
11
145.495
21
-69.9966
0
LINE
8
BLACK
6
CONTINUOUS
10
145.495
20
-69.9966
11
145.495
21
-69.9969
0
LINE
8
BLACK
6
CONTINUOUS
10
145.495
20
-69.9969
11
145.47
21
-69.9988
0
LINE
8
BLACK
6
CONTINUOUS
10
145.47
20
-69.9988
11
145.445
21
-70.001
0
LINE
8
BLACK
6
CONTINUOUS
10
145.445
20
-70.001
11
145.444
21
-70.0007
0
LINE
8
BLACK
6
CONTINUOUS
10
145.444
20
-70.0007
11
145.444
21
-70.0008
0
LINE
8
BLACK
6
CONTINUOUS
10
145.444
20
-70.0008
11
145.423
21
-69.986
0
LINE
8
BLACK
6
CONTINUOUS
10
145.423
20
-69.986
11
145.403
21
-69.9716
0
LINE
8
BLACK
6
CONTINUOUS
10
145.403
20
-69.9716
11
145.403
21
-69.9711
0
LINE
8
BLACK
6
CONTINUOUS
10
145.403
20
-69.9711
11
145.402
21
-69.9708
0
LINE
8
BLACK
6
CONTINUOUS
10
145.402
20
-69.9708
11
145.396
21
-69.9464
0
LINE
8
BLACK
6
CONTINUOUS
10
145.396
20
-69.9464
11
145.39
21
-69.922
0
LINE
8
BLACK
6
CONTINUOUS
10
145.39
20
-69.922
11
145.39
21
-69.9216
0
LINE
8
BLACK
6
CONTINUOUS
10
145.39
20
-69.9216
11
145.39
21
-69.9211
0
LINE
8
BLACK
6
CONTINUOUS
10
145.39
20
-69.9211
11
145.437
21
-69.4449
0
LINE
8
BLACK
6
CONTINUOUS
10
145.437
20
-69.4449
11
145.438
21
-69.4411
0
LINE
8
BLACK
6
CONTINUOUS
10
145.438
20
-69.4411
11
145.438
21
-69.4394
0
LINE
8
BLACK
6
CONTINUOUS
10
145.438
20
-69.4394
11
145.44
21
-69.4367
0
LINE
8
BLACK
6
CONTINUOUS
10
145.44
20
-69.4367
11
145.444
21
-69.4198
0
LINE
8
BLACK
6
CONTINUOUS
10
145.444
20
-69.4198
11
145.456
21
-69.4087
0
LINE
8
BLACK
6
CONTINUOUS
10
145.456
20
-69.4087
11
145.464
21
-69.3949
0
LINE
8
BLACK
6
CONTINUOUS
10
145.464
20
-69.3949
11
145.474
21
-69.3913
0
LINE
8
BLACK
6
CONTINUOUS
10
145.474
20
-69.3913
11
145.481
21
-69.384
0
LINE
8
BLACK
6
CONTINUOUS
10
145.481
20
-69.384
11
145.497
21
-69.3828
0
LINE
8
BLACK
6
CONTINUOUS
10
145.497
20
-69.3828
11
145.512
21
-69.3774
0
LINE
8
BLACK
6
CONTINUOUS
10
145.512
20
-69.3774
11
145.988
21
-69.3774
0
LINE
8
BLACK
6
CONTINUOUS
10
145.988
20
-69.3774
11
146.014
21
-69.3819
0
LINE
8
BLACK
6
CONTINUOUS
10
144.919
20
-69.3819
11
144.922
21
-69.3848
0
LINE
8
BLACK
6
CONTINUOUS
10
144.922
20
-69.3848
11
144.926
21
-69.3853
0
LINE
8
BLACK
6
CONTINUOUS
10
144.926
20
-69.3853
11
145.022
21
-69.4329
0
LINE
8
BLACK
6
CONTINUOUS
10
145.022
20
-69.4329
11
145.04
21
-69.4463
0
LINE
8
BLACK
6
CONTINUOUS
10
145.04
20
-69.4463
11
145.041
21
-69.447
0
LINE
8
BLACK
6
CONTINUOUS
10
145.041
20
-69.447
11
145.089
21
-69.4946
0
LINE
8
BLACK
6
CONTINUOUS
10
145.089
20
-69.4946
11
145.102
21
-69.513
0
LINE
8
BLACK
6
CONTINUOUS
10
145.102
20
-69.513
11
145.103
21
-69.5141
0
LINE
8
BLACK
6
CONTINUOUS
10
145.103
20
-69.5141
11
145.15
21
-69.6093
0
LINE
8
BLACK
6
CONTINUOUS
10
145.15
20
-69.6093
11
145.158
21
-69.6343
0
LINE
8
BLACK
6
CONTINUOUS
10
145.158
20
-69.6343
11
145.157
21
-69.6386
0
LINE
8
BLACK
6
CONTINUOUS
10
145.157
20
-69.6386
11
145.158
21
-69.6429
0
LINE
8
BLACK
6
CONTINUOUS
10
145.158
20
-69.6429
11
145.158
21
-69.7857
0
LINE
8
BLACK
6
CONTINUOUS
10
145.158
20
-69.7857
11
145.154
21
-69.8114
0
LINE
8
BLACK
6
CONTINUOUS
10
145.154
20
-69.8114
11
145.151
21
-69.8148
0
LINE
8
BLACK
6
CONTINUOUS
10
145.151
20
-69.8148
11
145.15
21
-69.8193
0
LINE
8
BLACK
6
CONTINUOUS
10
145.15
20
-69.8193
11
145.103
21
-69.9145
0
LINE
8
BLACK
6
CONTINUOUS
10
145.103
20
-69.9145
11
145.089
21
-69.9325
0
LINE
8
BLACK
6
CONTINUOUS
10
145.089
20
-69.9325
11
145.089
21
-69.934
0
LINE
8
BLACK
6
CONTINUOUS
10
145.089
20
-69.934
11
145.041
21
-69.9816
0
LINE
8
BLACK
6
CONTINUOUS
10
145.041
20
-69.9816
11
145.023
21
-69.9945
0
LINE
8
BLACK
6
CONTINUOUS
10
145.023
20
-69.9945
11
145.022
21
-69.9957
0
LINE
8
BLACK
6
CONTINUOUS
10
145.022
20
-69.9957
11
144.926
21
-70.0433
0
LINE
8
BLACK
6
CONTINUOUS
10
144.926
20
-70.0433
11
144.901
21
-70.0507
0
LINE
8
BLACK
6
CONTINUOUS
10
144.901
20
-70.0507
11
144.897
21
-70.0497
0
LINE
8
BLACK
6
CONTINUOUS
10
144.897
20
-70.0497
11
144.894
21
-70.0508
0
LINE
8
BLACK
6
CONTINUOUS
10
144.894
20
-70.0508
11
145.145
21
-70.4094
0
LINE
8
BLACK
6
CONTINUOUS
10
145.145
20
-70.4094
11
145.156
21
-70.433
0
LINE
8
BLACK
6
CONTINUOUS
10
145.156
20
-70.433
11
145.151
21
-70.4841
0
LINE
8
BLACK
6
CONTINUOUS
10
145.151
20
-70.4841
11
145.115
21
-70.5204
0
LINE
8
BLACK
6
CONTINUOUS
10
145.115
20
-70.5204
11
145.064
21
-70.5248
0
LINE
8
BLACK
6
CONTINUOUS
10
145.064
20
-70.5248
11
145.022
21
-70.4954
0
LINE
8
BLACK
6
CONTINUOUS
10
145.022
20
-70.4954
11
144.711
21
-70.0512
0
LINE
8
BLACK
6
CONTINUOUS
10
144.711
20
-70.0512
11
144.587
21
-70.0512
0
LINE
8
BLACK
6
CONTINUOUS
10
144.587
20
-70.0512
11
144.587
21
-70.4524
0
LINE
8
BLACK
6
CONTINUOUS
10
144.587
20
-70.4524
11
144.582
21
-70.478
0
LINE
8
BLACK
6
CONTINUOUS
10
144.582
20
-70.478
11
144.549
21
-70.5173
0
LINE
8
BLACK
6
CONTINUOUS
10
144.549
20
-70.5173
11
144.499
21
-70.5262
0
LINE
8
BLACK
6
CONTINUOUS
10
144.499
20
-70.5262
11
144.454
21
-70.5006
0
LINE
8
BLACK
6
CONTINUOUS
10
144.454
20
-70.5006
11
144.437
21
-70.4524
0
LINE
8
BLACK
6
CONTINUOUS
10
144.437
20
-70.4524
11
144.437
21
-69.4524
0
LINE
8
BLACK
6
CONTINUOUS
10
144.437
20
-69.4524
11
144.439
21
-69.4426
0
LINE
8
BLACK
6
CONTINUOUS
10
144.439
20
-69.4426
11
144.438
21
-69.4394
0
LINE
8
BLACK
6
CONTINUOUS
10
144.438
20
-69.4394
11
144.44
21
-69.4365
0
LINE
8
BLACK
6
CONTINUOUS
10
144.44
20
-69.4365
11
144.441
21
-69.4267
0
LINE
8
BLACK
6
CONTINUOUS
10
144.441
20
-69.4267
11
144.454
21
-69.4118
0
LINE
8
BLACK
6
CONTINUOUS
10
144.454
20
-69.4118
11
144.464
21
-69.3949
0
LINE
8
BLACK
6
CONTINUOUS
10
144.464
20
-69.3949
11
144.47
21
-69.3926
0
LINE
8
BLACK
6
CONTINUOUS
10
144.47
20
-69.3926
11
144.474
21
-69.3874
0
LINE
8
BLACK
6
CONTINUOUS
10
144.474
20
-69.3874
11
144.494
21
-69.384
0
LINE
8
BLACK
6
CONTINUOUS
10
144.494
20
-69.384
11
144.512
21
-69.3774
0
LINE
8
BLACK
6
CONTINUOUS
10
144.512
20
-69.3774
11
144.893
21
-69.3774
0
LINE
8
BLACK
6
CONTINUOUS
10
144.893
20
-69.3774
11
144.919
21
-69.3819
0
LINE
8
BLACK
6
CONTINUOUS
10
144.587
20
-69.5274
11
144.587
21
-69.9012
0
LINE
8
BLACK
6
CONTINUOUS
10
144.587
20
-69.9012
11
144.875
21
-69.9012
0
LINE
8
BLACK
6
CONTINUOUS
10
144.875
20
-69.9012
11
144.944
21
-69.8669
0
LINE
8
BLACK
6
CONTINUOUS
10
144.944
20
-69.8669
11
144.974
21
-69.8365
0
LINE
8
BLACK
6
CONTINUOUS
10
144.974
20
-69.8365
11
145.008
21
-69.768
0
LINE
8
BLACK
6
CONTINUOUS
10
145.008
20
-69.768
11
145.008
21
-69.6606
0
LINE
8
BLACK
6
CONTINUOUS
10
145.008
20
-69.6606
11
144.974
21
-69.592
0
LINE
8
BLACK
6
CONTINUOUS
10
144.974
20
-69.592
11
144.944
21
-69.5616
0
LINE
8
BLACK
6
CONTINUOUS
10
144.944
20
-69.5616
11
144.875
21
-69.5274
0
LINE
8
BLACK
6
CONTINUOUS
10
144.875
20
-69.5274
11
144.587
21
-69.5274
0
LINE
8
BLACK
6
CONTINUOUS
10
137.974
20
-69.2992
11
137.992
21
-69.3474
0
LINE
8
BLACK
6
CONTINUOUS
10
137.992
20
-69.3474
11
137.992
21
-70.0617
0
LINE
8
BLACK
6
CONTINUOUS
10
137.992
20
-70.0617
11
137.988
21
-70.0837
0
LINE
8
BLACK
6
CONTINUOUS
10
137.988
20
-70.0837
11
137.988
21
-70.0854
0
LINE
8
BLACK
6
CONTINUOUS
10
137.988
20
-70.0854
11
137.94
21
-70.2282
0
LINE
8
BLACK
6
CONTINUOUS
10
137.94
20
-70.2282
11
137.928
21
-70.2511
0
LINE
8
BLACK
6
CONTINUOUS
10
137.928
20
-70.2511
11
137.924
21
-70.2535
0
LINE
8
BLACK
6
CONTINUOUS
10
137.924
20
-70.2535
11
137.922
21
-70.2576
0
LINE
8
BLACK
6
CONTINUOUS
10
137.922
20
-70.2576
11
137.827
21
-70.3528
0
LINE
8
BLACK
6
CONTINUOUS
10
137.827
20
-70.3528
11
137.806
21
-70.3677
0
LINE
8
BLACK
6
CONTINUOUS
10
137.806
20
-70.3677
11
137.801
21
-70.3681
0
LINE
8
BLACK
6
CONTINUOUS
10
137.801
20
-70.3681
11
137.798
21
-70.3709
0
LINE
8
BLACK
6
CONTINUOUS
10
137.798
20
-70.3709
11
137.655
21
-70.4185
0
LINE
8
BLACK
6
CONTINUOUS
10
137.655
20
-70.4185
11
137.632
21
-70.4218
0
LINE
8
BLACK
6
CONTINUOUS
10
137.632
20
-70.4218
11
137.631
21
-70.4224
0
LINE
8
BLACK
6
CONTINUOUS
10
137.631
20
-70.4224
11
137.536
21
-70.4224
0
LINE
8
BLACK
6
CONTINUOUS
10
137.536
20
-70.4224
11
137.51
21
-70.4179
0
LINE
8
BLACK
6
CONTINUOUS
10
137.51
20
-70.4179
11
137.471
21
-70.3849
0
LINE
8
BLACK
6
CONTINUOUS
10
137.471
20
-70.3849
11
137.462
21
-70.3344
0
LINE
8
BLACK
6
CONTINUOUS
10
137.462
20
-70.3344
11
137.488
21
-70.2899
0
LINE
8
BLACK
6
CONTINUOUS
10
137.488
20
-70.2899
11
137.536
21
-70.2724
0
LINE
8
BLACK
6
CONTINUOUS
10
137.536
20
-70.2724
11
137.619
21
-70.2724
0
LINE
8
BLACK
6
CONTINUOUS
10
137.619
20
-70.2724
11
137.733
21
-70.2342
0
LINE
8
BLACK
6
CONTINUOUS
10
137.733
20
-70.2342
11
137.803
21
-70.164
0
LINE
8
BLACK
6
CONTINUOUS
10
137.803
20
-70.164
11
137.842
21
-70.0495
0
LINE
8
BLACK
6
CONTINUOUS
10
137.842
20
-70.0495
11
137.842
21
-69.3474
0
LINE
8
BLACK
6
CONTINUOUS
10
137.842
20
-69.3474
11
137.846
21
-69.3217
0
LINE
8
BLACK
6
CONTINUOUS
10
137.846
20
-69.3217
11
137.879
21
-69.2824
0
LINE
8
BLACK
6
CONTINUOUS
10
137.879
20
-69.2824
11
137.93
21
-69.2735
0
LINE
8
BLACK
6
CONTINUOUS
10
137.93
20
-69.2735
11
137.974
21
-69.2992
0
LINE
8
BLACK
6
CONTINUOUS
10
138.64
20
-69.2743
11
138.644
21
-69.2735
0
LINE
8
BLACK
6
CONTINUOUS
10
138.644
20
-69.2735
11
138.663
21
-69.2844
0
LINE
8
BLACK
6
CONTINUOUS
10
138.663
20
-69.2844
11
138.683
21
-69.2931
0
LINE
8
BLACK
6
CONTINUOUS
10
138.683
20
-69.2931
11
138.685
21
-69.297
0
LINE
8
BLACK
6
CONTINUOUS
10
138.685
20
-69.297
11
138.688
21
-69.2992
0
LINE
8
BLACK
6
CONTINUOUS
10
138.688
20
-69.2992
11
138.696
21
-69.3196
0
LINE
8
BLACK
6
CONTINUOUS
10
138.696
20
-69.3196
11
138.705
21
-69.3391
0
LINE
8
BLACK
6
CONTINUOUS
10
138.705
20
-69.3391
11
138.704
21
-69.3433
0
LINE
8
BLACK
6
CONTINUOUS
10
138.704
20
-69.3433
11
138.706
21
-69.3474
0
LINE
8
BLACK
6
CONTINUOUS
10
138.706
20
-69.3474
11
138.706
21
-70.2724
0
LINE
8
BLACK
6
CONTINUOUS
10
138.706
20
-70.2724
11
138.917
21
-70.2724
0
LINE
8
BLACK
6
CONTINUOUS
10
138.917
20
-70.2724
11
138.942
21
-70.2769
0
LINE
8
BLACK
6
CONTINUOUS
10
138.942
20
-70.2769
11
138.982
21
-70.3099
0
LINE
8
BLACK
6
CONTINUOUS
10
138.982
20
-70.3099
11
138.991
21
-70.3604
0
LINE
8
BLACK
6
CONTINUOUS
10
138.991
20
-70.3604
11
138.965
21
-70.4048
0
LINE
8
BLACK
6
CONTINUOUS
10
138.965
20
-70.4048
11
138.917
21
-70.4224
0
LINE
8
BLACK
6
CONTINUOUS
10
138.917
20
-70.4224
11
138.345
21
-70.4224
0
LINE
8
BLACK
6
CONTINUOUS
10
138.345
20
-70.4224
11
138.32
21
-70.4179
0
LINE
8
BLACK
6
CONTINUOUS
10
138.32
20
-70.4179
11
138.28
21
-70.3849
0
LINE
8
BLACK
6
CONTINUOUS
10
138.28
20
-70.3849
11
138.271
21
-70.3344
0
LINE
8
BLACK
6
CONTINUOUS
10
138.271
20
-70.3344
11
138.297
21
-70.2899
0
LINE
8
BLACK
6
CONTINUOUS
10
138.297
20
-70.2899
11
138.345
21
-70.2724
0
LINE
8
BLACK
6
CONTINUOUS
10
138.345
20
-70.2724
11
138.556
21
-70.2724
0
LINE
8
BLACK
6
CONTINUOUS
10
138.556
20
-70.2724
11
138.556
21
-69.5761
0
LINE
8
BLACK
6
CONTINUOUS
10
138.556
20
-69.5761
11
138.494
21
-69.6385
0
LINE
8
BLACK
6
CONTINUOUS
10
138.494
20
-69.6385
11
138.475
21
-69.6514
0
LINE
8
BLACK
6
CONTINUOUS
10
138.475
20
-69.6514
11
138.474
21
-69.6526
0
LINE
8
BLACK
6
CONTINUOUS
10
138.474
20
-69.6526
11
138.379
21
-69.7002
0
LINE
8
BLACK
6
CONTINUOUS
10
138.379
20
-69.7002
11
138.354
21
-69.7076
0
LINE
8
BLACK
6
CONTINUOUS
10
138.354
20
-69.7076
11
138.304
21
-69.6957
0
LINE
8
BLACK
6
CONTINUOUS
10
138.304
20
-69.6957
11
138.273
21
-69.6545
0
LINE
8
BLACK
6
CONTINUOUS
10
138.273
20
-69.6545
11
138.276
21
-69.6033
0
LINE
8
BLACK
6
CONTINUOUS
10
138.276
20
-69.6033
11
138.312
21
-69.566
0
LINE
8
BLACK
6
CONTINUOUS
10
138.312
20
-69.566
11
138.396
21
-69.5238
0
LINE
8
BLACK
6
CONTINUOUS
10
138.396
20
-69.5238
11
138.477
21
-69.4425
0
LINE
8
BLACK
6
CONTINUOUS
10
138.477
20
-69.4425
11
138.569
21
-69.3058
0
LINE
8
BLACK
6
CONTINUOUS
10
138.569
20
-69.3058
11
138.587
21
-69.2869
0
LINE
8
BLACK
6
CONTINUOUS
10
138.587
20
-69.2869
11
138.591
21
-69.2857
0
LINE
8
BLACK
6
CONTINUOUS
10
138.591
20
-69.2857
11
138.593
21
-69.2824
0
LINE
8
BLACK
6
CONTINUOUS
10
138.593
20
-69.2824
11
138.615
21
-69.2786
0
LINE
8
BLACK
6
CONTINUOUS
10
138.615
20
-69.2786
11
138.636
21
-69.2725
0
LINE
8
BLACK
6
CONTINUOUS
10
138.636
20
-69.2725
11
138.64
21
-69.2743
0
LINE
8
BLACK
6
CONTINUOUS
10
148.519
20
-69.2226
11
148.537
21
-69.265
0
LINE
8
BLACK
6
CONTINUOUS
10
148.537
20
-69.265
11
148.519
21
-69.3074
0
LINE
8
BLACK
6
CONTINUOUS
10
148.519
20
-69.3074
11
148.477
21
-69.325
0
LINE
8
BLACK
6
CONTINUOUS
10
148.477
20
-69.325
11
148.023
21
-69.325
0
LINE
8
BLACK
6
CONTINUOUS
10
148.023
20
-69.325
11
147.981
21
-69.3074
0
LINE
8
BLACK
6
CONTINUOUS
10
147.981
20
-69.3074
11
147.963
21
-69.265
0
LINE
8
BLACK
6
CONTINUOUS
10
147.963
20
-69.265
11
147.981
21
-69.2226
0
LINE
8
BLACK
6
CONTINUOUS
10
147.981
20
-69.2226
11
148.023
21
-69.205
0
LINE
8
BLACK
6
CONTINUOUS
10
148.023
20
-69.205
11
148.477
21
-69.205
0
LINE
8
BLACK
6
CONTINUOUS
10
148.477
20
-69.205
11
148.519
21
-69.2226
0
LINE
8
BLACK
6
CONTINUOUS
10
142.519
20
-69.2226
11
142.537
21
-69.265
0
LINE
8
BLACK
6
CONTINUOUS
10
142.537
20
-69.265
11
142.519
21
-69.3074
0
LINE
8
BLACK
6
CONTINUOUS
10
142.519
20
-69.3074
11
142.477
21
-69.325
0
LINE
8
BLACK
6
CONTINUOUS
10
142.477
20
-69.325
11
142.023
21
-69.325
0
LINE
8
BLACK
6
CONTINUOUS
10
142.023
20
-69.325
11
141.981
21
-69.3074
0
LINE
8
BLACK
6
CONTINUOUS
10
141.981
20
-69.3074
11
141.963
21
-69.265
0
LINE
8
BLACK
6
CONTINUOUS
10
141.963
20
-69.265
11
141.981
21
-69.2226
0
LINE
8
BLACK
6
CONTINUOUS
10
141.981
20
-69.2226
11
142.023
21
-69.205
0
LINE
8
BLACK
6
CONTINUOUS
10
142.023
20
-69.205
11
142.477
21
-69.205
0
LINE
8
BLACK
6
CONTINUOUS
10
142.477
20
-69.205
11
142.519
21
-69.2226
  0
ENDSEC
  0
EOF
