  0
SECTION
  2
HEADER
  9
$ANGBASE
  50
0.0
  9
$ANGDIR
  70
1
  9
$MEASUREMENT
  70
1
  0
ENDSEC
  0
SECTION
  2
TABLES
  0
TABLE
  2
LTYPE
  70
4
  0
LTYPE
  5
40F
  2
CONTINUOUS
  70
0
  3
Solid line
  72
65
  73
0
  40
0.0
  0
LTYPE
  5
410
  2
DASHDOT
 70
0
  3
Dash Dot ____ _ ____ _
 72
65
 73
4
 40
2.0
 49
1.25
 49
-0.25
 49
0.25
 49
-0.25
  0
LTYPE
  5
411
  2
DASHED
 70
0
  3
Dashed __ __ __ __ __
 72
65
 73
2
 40
0.75
 49
0.5
 49
-0.25
  0
LTYPE
  5
43B
  2
DOTTED
 70
0
  3
Dotted .  .  .  .
 72
65
 73
2
 40
0.2
 49
0.0
 49
-0.2
  0
ENDTAB
  0
TABLE
  2
STYLE
  70
4
  0
STYLE
  2
KICAD
  70
0
  40
0
  41
1
  42
1
  50
0
  71
0
  3
isocp.shx
  0
STYLE
  2
KICADB
  70
0
  40
0
  41
1
  42
1
  50
0
  71
0
  3
isocp.shx
  0
STYLE
  2
KICADI
  70
0
  40
0
  41
1
  42
1
  50
15
  71
0
  3
isocp.shx
  0
STYLE
  2
KICADBI
  70
0
  40
0
  41
1
  42
1
  50
15
  71
0
  3
isocp.shx
  0
ENDTAB
  0
TABLE
  2
LAYER
  70
1
  0
LAYER
  2
BLACK
  70
0
  62
7
  6
CONTINUOUS
  0
ENDTAB
  0
ENDSEC
  0
SECTION
  2
ENTITIES
0
LINE
8
BLACK
6
CONTINUOUS
10
156.908
20
-78.7924
11
156.89
21
-78.75
0
LINE
8
BLACK
6
CONTINUOUS
10
156.89
20
-78.75
11
156.89
21
-73.75
0
LINE
8
BLACK
6
CONTINUOUS
10
156.89
20
-73.75
11
156.908
21
-73.7076
0
LINE
8
BLACK
6
CONTINUOUS
10
156.908
20
-73.7076
11
156.95
21
-73.69
0
LINE
8
BLACK
6
CONTINUOUS
10
156.95
20
-73.69
11
156.992
21
-73.7076
0
LINE
8
BLACK
6
CONTINUOUS
10
156.992
20
-73.7076
11
157.01
21
-73.75
0
LINE
8
BLACK
6
CONTINUOUS
10
157.01
20
-73.75
11
157.01
21
-78.69
0
LINE
8
BLACK
6
CONTINUOUS
10
157.01
20
-78.69
11
164.09
21
-78.69
0
LINE
8
BLACK
6
CONTINUOUS
10
164.09
20
-78.69
11
164.09
21
-71.61
0
LINE
8
BLACK
6
CONTINUOUS
10
164.09
20
-71.61
11
159.25
21
-71.61
0
LINE
8
BLACK
6
CONTINUOUS
10
159.25
20
-71.61
11
159.208
21
-71.5924
0
LINE
8
BLACK
6
CONTINUOUS
10
159.208
20
-71.5924
11
159.19
21
-71.55
0
LINE
8
BLACK
6
CONTINUOUS
10
159.19
20
-71.55
11
159.208
21
-71.5076
0
LINE
8
BLACK
6
CONTINUOUS
10
159.208
20
-71.5076
11
159.25
21
-71.49
0
LINE
8
BLACK
6
CONTINUOUS
10
159.25
20
-71.49
11
164.15
21
-71.49
0
LINE
8
BLACK
6
CONTINUOUS
10
164.15
20
-71.49
11
164.192
21
-71.5076
0
LINE
8
BLACK
6
CONTINUOUS
10
164.192
20
-71.5076
11
164.21
21
-71.55
0
LINE
8
BLACK
6
CONTINUOUS
10
164.21
20
-71.55
11
164.21
21
-78.75
0
LINE
8
BLACK
6
CONTINUOUS
10
164.21
20
-78.75
11
164.192
21
-78.7924
0
LINE
8
BLACK
6
CONTINUOUS
10
164.192
20
-78.7924
11
164.15
21
-78.81
0
LINE
8
BLACK
6
CONTINUOUS
10
164.15
20
-78.81
11
156.95
21
-78.81
0
LINE
8
BLACK
6
CONTINUOUS
10
156.95
20
-78.81
11
156.908
21
-78.7924
0
LINE
8
BLACK
6
CONTINUOUS
10
156.033
20
-75.3279
11
156.061
21
-75.3707
0
LINE
8
BLACK
6
CONTINUOUS
10
156.061
20
-75.3707
11
156.055
21
-75.4216
0
LINE
8
BLACK
6
CONTINUOUS
10
156.055
20
-75.4216
11
156.008
21
-75.5169
0
LINE
8
BLACK
6
CONTINUOUS
10
156.008
20
-75.5169
11
155.994
21
-75.5349
0
LINE
8
BLACK
6
CONTINUOUS
10
155.994
20
-75.5349
11
155.994
21
-75.5364
0
LINE
8
BLACK
6
CONTINUOUS
10
155.994
20
-75.5364
11
155.931
21
-75.5988
0
LINE
8
BLACK
6
CONTINUOUS
10
155.931
20
-75.5988
11
156.627
21
-75.5988
0
LINE
8
BLACK
6
CONTINUOUS
10
156.627
20
-75.5988
11
156.627
21
-75.3881
0
LINE
8
BLACK
6
CONTINUOUS
10
156.627
20
-75.3881
11
156.632
21
-75.3624
0
LINE
8
BLACK
6
CONTINUOUS
10
156.632
20
-75.3624
11
156.665
21
-75.3231
0
LINE
8
BLACK
6
CONTINUOUS
10
156.665
20
-75.3231
11
156.715
21
-75.3142
0
LINE
8
BLACK
6
CONTINUOUS
10
156.715
20
-75.3142
11
156.76
21
-75.3399
0
LINE
8
BLACK
6
CONTINUOUS
10
156.76
20
-75.3399
11
156.777
21
-75.3881
0
LINE
8
BLACK
6
CONTINUOUS
10
156.777
20
-75.3881
11
156.777
21
-75.9595
0
LINE
8
BLACK
6
CONTINUOUS
10
156.777
20
-75.9595
11
156.773
21
-75.9852
0
LINE
8
BLACK
6
CONTINUOUS
10
156.773
20
-75.9852
11
156.74
21
-76.0245
0
LINE
8
BLACK
6
CONTINUOUS
10
156.74
20
-76.0245
11
156.689
21
-76.0334
0
LINE
8
BLACK
6
CONTINUOUS
10
156.689
20
-76.0334
11
156.645
21
-76.0077
0
LINE
8
BLACK
6
CONTINUOUS
10
156.645
20
-76.0077
11
156.627
21
-75.9595
0
LINE
8
BLACK
6
CONTINUOUS
10
156.627
20
-75.9595
11
156.627
21
-75.7488
0
LINE
8
BLACK
6
CONTINUOUS
10
156.627
20
-75.7488
11
155.702
21
-75.7488
0
LINE
8
BLACK
6
CONTINUOUS
10
155.702
20
-75.7488
11
155.677
21
-75.7443
0
LINE
8
BLACK
6
CONTINUOUS
10
155.677
20
-75.7443
11
155.673
21
-75.7415
0
LINE
8
BLACK
6
CONTINUOUS
10
155.673
20
-75.7415
11
155.669
21
-75.741
0
LINE
8
BLACK
6
CONTINUOUS
10
155.669
20
-75.741
11
155.654
21
-75.7253
0
LINE
8
BLACK
6
CONTINUOUS
10
155.654
20
-75.7253
11
155.637
21
-75.7113
0
LINE
8
BLACK
6
CONTINUOUS
10
155.637
20
-75.7113
11
155.637
21
-75.7071
0
LINE
8
BLACK
6
CONTINUOUS
10
155.637
20
-75.7071
11
155.634
21
-75.7039
0
LINE
8
BLACK
6
CONTINUOUS
10
155.634
20
-75.7039
11
155.632
21
-75.6822
0
LINE
8
BLACK
6
CONTINUOUS
10
155.632
20
-75.6822
11
155.629
21
-75.6608
0
LINE
8
BLACK
6
CONTINUOUS
10
155.629
20
-75.6608
11
155.631
21
-75.657
0
LINE
8
BLACK
6
CONTINUOUS
10
155.631
20
-75.657
11
155.63
21
-75.6527
0
LINE
8
BLACK
6
CONTINUOUS
10
155.63
20
-75.6527
11
155.643
21
-75.6352
0
LINE
8
BLACK
6
CONTINUOUS
10
155.643
20
-75.6352
11
155.654
21
-75.6164
0
LINE
8
BLACK
6
CONTINUOUS
10
155.654
20
-75.6164
11
155.658
21
-75.6149
0
LINE
8
BLACK
6
CONTINUOUS
10
155.658
20
-75.6149
11
155.661
21
-75.6114
0
LINE
8
BLACK
6
CONTINUOUS
10
155.661
20
-75.6114
11
155.797
21
-75.5203
0
LINE
8
BLACK
6
CONTINUOUS
10
155.797
20
-75.5203
11
155.879
21
-75.4389
0
LINE
8
BLACK
6
CONTINUOUS
10
155.879
20
-75.4389
11
155.921
21
-75.3546
0
LINE
8
BLACK
6
CONTINUOUS
10
155.921
20
-75.3546
11
155.937
21
-75.3336
0
LINE
8
BLACK
6
CONTINUOUS
10
155.937
20
-75.3336
11
155.984
21
-75.3132
0
LINE
8
BLACK
6
CONTINUOUS
10
155.984
20
-75.3132
11
156.033
21
-75.3279
0
LINE
8
BLACK
6
CONTINUOUS
10
156.538
20
-74.3176
11
156.541
21
-74.3205
0
LINE
8
BLACK
6
CONTINUOUS
10
156.541
20
-74.3205
11
156.545
21
-74.321
0
LINE
8
BLACK
6
CONTINUOUS
10
156.545
20
-74.321
11
156.641
21
-74.3686
0
LINE
8
BLACK
6
CONTINUOUS
10
156.641
20
-74.3686
11
156.659
21
-74.382
0
LINE
8
BLACK
6
CONTINUOUS
10
156.659
20
-74.382
11
156.66
21
-74.3827
0
LINE
8
BLACK
6
CONTINUOUS
10
156.66
20
-74.3827
11
156.708
21
-74.4303
0
LINE
8
BLACK
6
CONTINUOUS
10
156.708
20
-74.4303
11
156.721
21
-74.4487
0
LINE
8
BLACK
6
CONTINUOUS
10
156.721
20
-74.4487
11
156.722
21
-74.4498
0
LINE
8
BLACK
6
CONTINUOUS
10
156.722
20
-74.4498
11
156.769
21
-74.545
0
LINE
8
BLACK
6
CONTINUOUS
10
156.769
20
-74.545
11
156.777
21
-74.57
0
LINE
8
BLACK
6
CONTINUOUS
10
156.777
20
-74.57
11
156.776
21
-74.5744
0
LINE
8
BLACK
6
CONTINUOUS
10
156.776
20
-74.5744
11
156.777
21
-74.5786
0
LINE
8
BLACK
6
CONTINUOUS
10
156.777
20
-74.5786
11
156.777
21
-74.769
0
LINE
8
BLACK
6
CONTINUOUS
10
156.777
20
-74.769
11
156.773
21
-74.7947
0
LINE
8
BLACK
6
CONTINUOUS
10
156.773
20
-74.7947
11
156.77
21
-74.7981
0
LINE
8
BLACK
6
CONTINUOUS
10
156.77
20
-74.7981
11
156.769
21
-74.8026
0
LINE
8
BLACK
6
CONTINUOUS
10
156.769
20
-74.8026
11
156.722
21
-74.8978
0
LINE
8
BLACK
6
CONTINUOUS
10
156.722
20
-74.8978
11
156.708
21
-74.9158
0
LINE
8
BLACK
6
CONTINUOUS
10
156.708
20
-74.9158
11
156.708
21
-74.9173
0
LINE
8
BLACK
6
CONTINUOUS
10
156.708
20
-74.9173
11
156.66
21
-74.9649
0
LINE
8
BLACK
6
CONTINUOUS
10
156.66
20
-74.9649
11
156.642
21
-74.9778
0
LINE
8
BLACK
6
CONTINUOUS
10
156.642
20
-74.9778
11
156.641
21
-74.979
0
LINE
8
BLACK
6
CONTINUOUS
10
156.641
20
-74.979
11
156.545
21
-75.0266
0
LINE
8
BLACK
6
CONTINUOUS
10
156.545
20
-75.0266
11
156.52
21
-75.034
0
LINE
8
BLACK
6
CONTINUOUS
10
156.52
20
-75.034
11
156.516
21
-75.033
0
LINE
8
BLACK
6
CONTINUOUS
10
156.516
20
-75.033
11
156.512
21
-75.0345
0
LINE
8
BLACK
6
CONTINUOUS
10
156.512
20
-75.0345
11
155.702
21
-75.0345
0
LINE
8
BLACK
6
CONTINUOUS
10
155.702
20
-75.0345
11
155.677
21
-75.03
0
LINE
8
BLACK
6
CONTINUOUS
10
155.677
20
-75.03
11
155.637
21
-74.997
0
LINE
8
BLACK
6
CONTINUOUS
10
155.637
20
-74.997
11
155.629
21
-74.9465
0
LINE
8
BLACK
6
CONTINUOUS
10
155.629
20
-74.9465
11
155.654
21
-74.9021
0
LINE
8
BLACK
6
CONTINUOUS
10
155.654
20
-74.9021
11
155.702
21
-74.8845
0
LINE
8
BLACK
6
CONTINUOUS
10
155.702
20
-74.8845
11
156.494
21
-74.8845
0
LINE
8
BLACK
6
CONTINUOUS
10
156.494
20
-74.8845
11
156.563
21
-74.8503
0
LINE
8
BLACK
6
CONTINUOUS
10
156.563
20
-74.8503
11
156.593
21
-74.8199
0
LINE
8
BLACK
6
CONTINUOUS
10
156.593
20
-74.8199
11
156.627
21
-74.7513
0
LINE
8
BLACK
6
CONTINUOUS
10
156.627
20
-74.7513
11
156.627
21
-74.5963
0
LINE
8
BLACK
6
CONTINUOUS
10
156.627
20
-74.5963
11
156.593
21
-74.5278
0
LINE
8
BLACK
6
CONTINUOUS
10
156.593
20
-74.5278
11
156.563
21
-74.4974
0
LINE
8
BLACK
6
CONTINUOUS
10
156.563
20
-74.4974
11
156.494
21
-74.4631
0
LINE
8
BLACK
6
CONTINUOUS
10
156.494
20
-74.4631
11
155.702
21
-74.4631
0
LINE
8
BLACK
6
CONTINUOUS
10
155.702
20
-74.4631
11
155.677
21
-74.4586
0
LINE
8
BLACK
6
CONTINUOUS
10
155.677
20
-74.4586
11
155.637
21
-74.4256
0
LINE
8
BLACK
6
CONTINUOUS
10
155.637
20
-74.4256
11
155.629
21
-74.3751
0
LINE
8
BLACK
6
CONTINUOUS
10
155.629
20
-74.3751
11
155.654
21
-74.3306
0
LINE
8
BLACK
6
CONTINUOUS
10
155.654
20
-74.3306
11
155.702
21
-74.3131
0
LINE
8
BLACK
6
CONTINUOUS
10
155.702
20
-74.3131
11
156.512
21
-74.3131
0
LINE
8
BLACK
6
CONTINUOUS
10
156.512
20
-74.3131
11
156.538
21
-74.3176
  0
ENDSEC
  0
EOF
