  0
SECTION
  2
HEADER
  9
$ANGBASE
  50
0.0
  9
$ANGDIR
  70
1
  9
$MEASUREMENT
  70
1
  0
ENDSEC
  0
SECTION
  2
TABLES
  0
TABLE
  2
LTYPE
  70
4
  0
LTYPE
  5
40F
  2
CONTINUOUS
  70
0
  3
Solid line
  72
65
  73
0
  40
0.0
  0
LTYPE
  5
410
  2
DASHDOT
 70
0
  3
Dash Dot ____ _ ____ _
 72
65
 73
4
 40
2.0
 49
1.25
 49
-0.25
 49
0.25
 49
-0.25
  0
LTYPE
  5
411
  2
DASHED
 70
0
  3
Dashed __ __ __ __ __
 72
65
 73
2
 40
0.75
 49
0.5
 49
-0.25
  0
LTYPE
  5
43B
  2
DOTTED
 70
0
  3
Dotted .  .  .  .
 72
65
 73
2
 40
0.2
 49
0.0
 49
-0.2
  0
ENDTAB
  0
TABLE
  2
STYLE
  70
4
  0
STYLE
  2
KICAD
  70
0
  40
0
  41
1
  42
1
  50
0
  71
0
  3
isocp.shx
  0
STYLE
  2
KICADB
  70
0
  40
0
  41
1
  42
1
  50
0
  71
0
  3
isocp.shx
  0
STYLE
  2
KICADI
  70
0
  40
0
  41
1
  42
1
  50
15
  71
0
  3
isocp.shx
  0
STYLE
  2
KICADBI
  70
0
  40
0
  41
1
  42
1
  50
15
  71
0
  3
isocp.shx
  0
ENDTAB
  0
TABLE
  2
LAYER
  70
1
  0
LAYER
  2
BLACK
  70
0
  62
7
  6
CONTINUOUS
  0
ENDTAB
  0
ENDSEC
  0
SECTION
  2
ENTITIES
0
LINE
8
BLACK
6
CONTINUOUS
10
153.302
20
-78.2706
11
153.439
21
-78.3104
0
LINE
8
BLACK
6
CONTINUOUS
10
153.439
20
-78.3104
11
153.56
21
-78.3855
0
LINE
8
BLACK
6
CONTINUOUS
10
153.56
20
-78.3855
11
153.656
21
-78.4904
0
LINE
8
BLACK
6
CONTINUOUS
10
153.656
20
-78.4904
11
153.721
21
-78.6173
0
LINE
8
BLACK
6
CONTINUOUS
10
153.721
20
-78.6173
11
153.749
21
-78.757
0
LINE
8
BLACK
6
CONTINUOUS
10
153.749
20
-78.757
11
153.739
21
-78.8992
0
LINE
8
BLACK
6
CONTINUOUS
10
153.739
20
-78.8992
11
153.69
21
-79.0332
0
LINE
8
BLACK
6
CONTINUOUS
10
153.69
20
-79.0332
11
153.608
21
-79.1494
0
LINE
8
BLACK
6
CONTINUOUS
10
153.608
20
-79.1494
11
153.497
21
-79.2391
0
LINE
8
BLACK
6
CONTINUOUS
10
153.497
20
-79.2391
11
153.366
21
-79.2957
0
LINE
8
BLACK
6
CONTINUOUS
10
153.366
20
-79.2957
11
153.225
21
-79.315
0
LINE
8
BLACK
6
CONTINUOUS
10
153.225
20
-79.315
11
152.775
21
-79.315
0
LINE
8
BLACK
6
CONTINUOUS
10
152.775
20
-79.315
11
152.698
21
-79.3094
0
LINE
8
BLACK
6
CONTINUOUS
10
152.698
20
-79.3094
11
152.561
21
-79.2696
0
LINE
8
BLACK
6
CONTINUOUS
10
152.561
20
-79.2696
11
152.44
21
-79.1945
0
LINE
8
BLACK
6
CONTINUOUS
10
152.44
20
-79.1945
11
152.344
21
-79.0896
0
LINE
8
BLACK
6
CONTINUOUS
10
152.344
20
-79.0896
11
152.279
21
-78.9627
0
LINE
8
BLACK
6
CONTINUOUS
10
152.279
20
-78.9627
11
152.251
21
-78.823
0
LINE
8
BLACK
6
CONTINUOUS
10
152.251
20
-78.823
11
152.261
21
-78.6808
0
LINE
8
BLACK
6
CONTINUOUS
10
152.261
20
-78.6808
11
152.31
21
-78.5468
0
LINE
8
BLACK
6
CONTINUOUS
10
152.31
20
-78.5468
11
152.392
21
-78.4306
0
LINE
8
BLACK
6
CONTINUOUS
10
152.392
20
-78.4306
11
152.503
21
-78.3409
0
LINE
8
BLACK
6
CONTINUOUS
10
152.503
20
-78.3409
11
152.634
21
-78.2843
0
LINE
8
BLACK
6
CONTINUOUS
10
152.634
20
-78.2843
11
152.775
21
-78.265
0
LINE
8
BLACK
6
CONTINUOUS
10
152.775
20
-78.265
11
153.225
21
-78.265
0
LINE
8
BLACK
6
CONTINUOUS
10
153.225
20
-78.265
11
153.302
21
-78.2706
0
LINE
8
BLACK
6
CONTINUOUS
10
138.513
20
-76.4966
11
138.675
21
-76.5689
0
LINE
8
BLACK
6
CONTINUOUS
10
138.675
20
-76.5689
11
138.819
21
-76.6733
0
LINE
8
BLACK
6
CONTINUOUS
10
138.819
20
-76.6733
11
138.938
21
-76.8054
0
LINE
8
BLACK
6
CONTINUOUS
10
138.938
20
-76.8054
11
139.027
21
-76.9593
0
LINE
8
BLACK
6
CONTINUOUS
10
139.027
20
-76.9593
11
139.081
21
-77.1283
0
LINE
8
BLACK
6
CONTINUOUS
10
139.081
20
-77.1283
11
139.1
21
-77.305
0
LINE
8
BLACK
6
CONTINUOUS
10
139.1
20
-77.305
11
139.081
21
-77.4817
0
LINE
8
BLACK
6
CONTINUOUS
10
139.081
20
-77.4817
11
139.027
21
-77.6507
0
LINE
8
BLACK
6
CONTINUOUS
10
139.027
20
-77.6507
11
138.938
21
-77.8046
0
LINE
8
BLACK
6
CONTINUOUS
10
138.938
20
-77.8046
11
138.819
21
-77.9367
0
LINE
8
BLACK
6
CONTINUOUS
10
138.819
20
-77.9367
11
138.675
21
-78.0411
0
LINE
8
BLACK
6
CONTINUOUS
10
138.675
20
-78.0411
11
138.513
21
-78.1134
0
LINE
8
BLACK
6
CONTINUOUS
10
138.513
20
-78.1134
11
138.339
21
-78.1503
0
LINE
8
BLACK
6
CONTINUOUS
10
138.339
20
-78.1503
11
138.161
21
-78.1503
0
LINE
8
BLACK
6
CONTINUOUS
10
138.161
20
-78.1503
11
137.987
21
-78.1134
0
LINE
8
BLACK
6
CONTINUOUS
10
137.987
20
-78.1134
11
137.825
21
-78.0411
0
LINE
8
BLACK
6
CONTINUOUS
10
137.825
20
-78.0411
11
137.681
21
-77.9367
0
LINE
8
BLACK
6
CONTINUOUS
10
137.681
20
-77.9367
11
137.562
21
-77.8046
0
LINE
8
BLACK
6
CONTINUOUS
10
137.562
20
-77.8046
11
137.473
21
-77.6507
0
LINE
8
BLACK
6
CONTINUOUS
10
137.473
20
-77.6507
11
137.419
21
-77.4817
0
LINE
8
BLACK
6
CONTINUOUS
10
137.419
20
-77.4817
11
137.4
21
-77.305
0
LINE
8
BLACK
6
CONTINUOUS
10
137.4
20
-77.305
11
137.419
21
-77.1283
0
LINE
8
BLACK
6
CONTINUOUS
10
137.419
20
-77.1283
11
137.473
21
-76.9593
0
LINE
8
BLACK
6
CONTINUOUS
10
137.473
20
-76.9593
11
137.562
21
-76.8054
0
LINE
8
BLACK
6
CONTINUOUS
10
137.562
20
-76.8054
11
137.681
21
-76.6733
0
LINE
8
BLACK
6
CONTINUOUS
10
137.681
20
-76.6733
11
137.825
21
-76.5689
0
LINE
8
BLACK
6
CONTINUOUS
10
137.825
20
-76.5689
11
137.987
21
-76.4966
0
LINE
8
BLACK
6
CONTINUOUS
10
137.987
20
-76.4966
11
138.161
21
-76.4597
0
LINE
8
BLACK
6
CONTINUOUS
10
138.161
20
-76.4597
11
138.339
21
-76.4597
0
LINE
8
BLACK
6
CONTINUOUS
10
138.339
20
-76.4597
11
138.513
21
-76.4966
0
LINE
8
BLACK
6
CONTINUOUS
10
153.302
20
-77.0006
11
153.439
21
-77.0404
0
LINE
8
BLACK
6
CONTINUOUS
10
153.439
20
-77.0404
11
153.56
21
-77.1155
0
LINE
8
BLACK
6
CONTINUOUS
10
153.56
20
-77.1155
11
153.656
21
-77.2204
0
LINE
8
BLACK
6
CONTINUOUS
10
153.656
20
-77.2204
11
153.721
21
-77.3473
0
LINE
8
BLACK
6
CONTINUOUS
10
153.721
20
-77.3473
11
153.749
21
-77.487
0
LINE
8
BLACK
6
CONTINUOUS
10
153.749
20
-77.487
11
153.739
21
-77.6292
0
LINE
8
BLACK
6
CONTINUOUS
10
153.739
20
-77.6292
11
153.69
21
-77.7632
0
LINE
8
BLACK
6
CONTINUOUS
10
153.69
20
-77.7632
11
153.608
21
-77.8794
0
LINE
8
BLACK
6
CONTINUOUS
10
153.608
20
-77.8794
11
153.497
21
-77.9691
0
LINE
8
BLACK
6
CONTINUOUS
10
153.497
20
-77.9691
11
153.366
21
-78.0257
0
LINE
8
BLACK
6
CONTINUOUS
10
153.366
20
-78.0257
11
153.225
21
-78.045
0
LINE
8
BLACK
6
CONTINUOUS
10
153.225
20
-78.045
11
152.775
21
-78.045
0
LINE
8
BLACK
6
CONTINUOUS
10
152.775
20
-78.045
11
152.698
21
-78.0394
0
LINE
8
BLACK
6
CONTINUOUS
10
152.698
20
-78.0394
11
152.561
21
-77.9996
0
LINE
8
BLACK
6
CONTINUOUS
10
152.561
20
-77.9996
11
152.44
21
-77.9245
0
LINE
8
BLACK
6
CONTINUOUS
10
152.44
20
-77.9245
11
152.344
21
-77.8196
0
LINE
8
BLACK
6
CONTINUOUS
10
152.344
20
-77.8196
11
152.279
21
-77.6927
0
LINE
8
BLACK
6
CONTINUOUS
10
152.279
20
-77.6927
11
152.251
21
-77.553
0
LINE
8
BLACK
6
CONTINUOUS
10
152.251
20
-77.553
11
152.261
21
-77.4108
0
LINE
8
BLACK
6
CONTINUOUS
10
152.261
20
-77.4108
11
152.31
21
-77.2768
0
LINE
8
BLACK
6
CONTINUOUS
10
152.31
20
-77.2768
11
152.392
21
-77.1606
0
LINE
8
BLACK
6
CONTINUOUS
10
152.392
20
-77.1606
11
152.503
21
-77.0709
0
LINE
8
BLACK
6
CONTINUOUS
10
152.503
20
-77.0709
11
152.634
21
-77.0143
0
LINE
8
BLACK
6
CONTINUOUS
10
152.634
20
-77.0143
11
152.775
21
-76.995
0
LINE
8
BLACK
6
CONTINUOUS
10
152.775
20
-76.995
11
153.225
21
-76.995
0
LINE
8
BLACK
6
CONTINUOUS
10
153.225
20
-76.995
11
153.302
21
-77.0006
0
LINE
8
BLACK
6
CONTINUOUS
10
159.433
20
-75.7711
11
159.601
21
-75.831
0
LINE
8
BLACK
6
CONTINUOUS
10
159.601
20
-75.831
11
159.751
21
-75.9265
0
LINE
8
BLACK
6
CONTINUOUS
10
159.751
20
-75.9265
11
159.877
21
-76.0531
0
LINE
8
BLACK
6
CONTINUOUS
10
159.877
20
-76.0531
11
159.971
21
-76.2043
0
LINE
8
BLACK
6
CONTINUOUS
10
159.971
20
-76.2043
11
160.03
21
-76.3728
0
LINE
8
BLACK
6
CONTINUOUS
10
160.03
20
-76.3728
11
160.05
21
-76.55
0
LINE
8
BLACK
6
CONTINUOUS
10
160.05
20
-76.55
11
160.05
21
-76.5723
0
LINE
8
BLACK
6
CONTINUOUS
10
160.05
20
-76.5723
11
160.025
21
-76.749
0
LINE
8
BLACK
6
CONTINUOUS
10
160.025
20
-76.749
11
159.962
21
-76.9157
0
LINE
8
BLACK
6
CONTINUOUS
10
159.962
20
-76.9157
11
159.863
21
-77.0642
0
LINE
8
BLACK
6
CONTINUOUS
10
159.863
20
-77.0642
11
159.734
21
-77.1872
0
LINE
8
BLACK
6
CONTINUOUS
10
159.734
20
-77.1872
11
159.58
21
-77.2785
0
LINE
8
BLACK
6
CONTINUOUS
10
159.58
20
-77.2785
11
159.411
21
-77.3337
0
LINE
8
BLACK
6
CONTINUOUS
10
159.411
20
-77.3337
11
159.233
21
-77.3498
0
LINE
8
BLACK
6
CONTINUOUS
10
159.233
20
-77.3498
11
159.056
21
-77.3262
0
LINE
8
BLACK
6
CONTINUOUS
10
159.056
20
-77.3262
11
158.889
21
-77.2641
0
LINE
8
BLACK
6
CONTINUOUS
10
158.889
20
-77.2641
11
158.74
21
-77.1664
0
LINE
8
BLACK
6
CONTINUOUS
10
158.74
20
-77.1664
11
158.616
21
-77.0381
0
LINE
8
BLACK
6
CONTINUOUS
10
158.616
20
-77.0381
11
158.524
21
-76.8856
0
LINE
8
BLACK
6
CONTINUOUS
10
158.524
20
-76.8856
11
158.467
21
-76.7163
0
LINE
8
BLACK
6
CONTINUOUS
10
158.467
20
-76.7163
11
158.45
21
-76.5388
0
LINE
8
BLACK
6
CONTINUOUS
10
158.45
20
-76.5388
11
158.472
21
-76.3619
0
LINE
8
BLACK
6
CONTINUOUS
10
158.472
20
-76.3619
11
158.533
21
-76.1943
0
LINE
8
BLACK
6
CONTINUOUS
10
158.533
20
-76.1943
11
158.63
21
-76.0444
0
LINE
8
BLACK
6
CONTINUOUS
10
158.63
20
-76.0444
11
158.757
21
-75.9196
0
LINE
8
BLACK
6
CONTINUOUS
10
158.757
20
-75.9196
11
158.909
21
-75.8261
0
LINE
8
BLACK
6
CONTINUOUS
10
158.909
20
-75.8261
11
159.078
21
-75.7687
0
LINE
8
BLACK
6
CONTINUOUS
10
159.078
20
-75.7687
11
159.256
21
-75.75
0
LINE
8
BLACK
6
CONTINUOUS
10
159.256
20
-75.75
11
159.433
21
-75.7711
0
LINE
8
BLACK
6
CONTINUOUS
10
161.973
20
-75.7711
11
162.141
21
-75.831
0
LINE
8
BLACK
6
CONTINUOUS
10
162.141
20
-75.831
11
162.291
21
-75.9265
0
LINE
8
BLACK
6
CONTINUOUS
10
162.291
20
-75.9265
11
162.417
21
-76.0531
0
LINE
8
BLACK
6
CONTINUOUS
10
162.417
20
-76.0531
11
162.511
21
-76.2043
0
LINE
8
BLACK
6
CONTINUOUS
10
162.511
20
-76.2043
11
162.57
21
-76.3728
0
LINE
8
BLACK
6
CONTINUOUS
10
162.57
20
-76.3728
11
162.59
21
-76.55
0
LINE
8
BLACK
6
CONTINUOUS
10
162.59
20
-76.55
11
162.59
21
-76.5723
0
LINE
8
BLACK
6
CONTINUOUS
10
162.59
20
-76.5723
11
162.565
21
-76.749
0
LINE
8
BLACK
6
CONTINUOUS
10
162.565
20
-76.749
11
162.502
21
-76.9157
0
LINE
8
BLACK
6
CONTINUOUS
10
162.502
20
-76.9157
11
162.403
21
-77.0642
0
LINE
8
BLACK
6
CONTINUOUS
10
162.403
20
-77.0642
11
162.274
21
-77.1872
0
LINE
8
BLACK
6
CONTINUOUS
10
162.274
20
-77.1872
11
162.12
21
-77.2785
0
LINE
8
BLACK
6
CONTINUOUS
10
162.12
20
-77.2785
11
161.951
21
-77.3337
0
LINE
8
BLACK
6
CONTINUOUS
10
161.951
20
-77.3337
11
161.773
21
-77.3498
0
LINE
8
BLACK
6
CONTINUOUS
10
161.773
20
-77.3498
11
161.596
21
-77.3262
0
LINE
8
BLACK
6
CONTINUOUS
10
161.596
20
-77.3262
11
161.429
21
-77.2641
0
LINE
8
BLACK
6
CONTINUOUS
10
161.429
20
-77.2641
11
161.28
21
-77.1664
0
LINE
8
BLACK
6
CONTINUOUS
10
161.28
20
-77.1664
11
161.156
21
-77.0381
0
LINE
8
BLACK
6
CONTINUOUS
10
161.156
20
-77.0381
11
161.064
21
-76.8856
0
LINE
8
BLACK
6
CONTINUOUS
10
161.064
20
-76.8856
11
161.007
21
-76.7163
0
LINE
8
BLACK
6
CONTINUOUS
10
161.007
20
-76.7163
11
160.99
21
-76.5388
0
LINE
8
BLACK
6
CONTINUOUS
10
160.99
20
-76.5388
11
161.012
21
-76.3619
0
LINE
8
BLACK
6
CONTINUOUS
10
161.012
20
-76.3619
11
161.073
21
-76.1943
0
LINE
8
BLACK
6
CONTINUOUS
10
161.073
20
-76.1943
11
161.17
21
-76.0444
0
LINE
8
BLACK
6
CONTINUOUS
10
161.17
20
-76.0444
11
161.297
21
-75.9196
0
LINE
8
BLACK
6
CONTINUOUS
10
161.297
20
-75.9196
11
161.449
21
-75.8261
0
LINE
8
BLACK
6
CONTINUOUS
10
161.449
20
-75.8261
11
161.618
21
-75.7687
0
LINE
8
BLACK
6
CONTINUOUS
10
161.618
20
-75.7687
11
161.796
21
-75.75
0
LINE
8
BLACK
6
CONTINUOUS
10
161.796
20
-75.75
11
161.973
21
-75.7711
0
LINE
8
BLACK
6
CONTINUOUS
10
153.75
20
-76.775
11
152.25
21
-76.775
0
LINE
8
BLACK
6
CONTINUOUS
10
152.25
20
-76.775
11
152.25
21
-75.725
0
LINE
8
BLACK
6
CONTINUOUS
10
152.25
20
-75.725
11
153.75
21
-75.725
0
LINE
8
BLACK
6
CONTINUOUS
10
153.75
20
-75.725
11
153.75
21
-76.775
0
LINE
8
BLACK
6
CONTINUOUS
10
138.513
20
-73.9566
11
138.675
21
-74.0289
0
LINE
8
BLACK
6
CONTINUOUS
10
138.675
20
-74.0289
11
138.819
21
-74.1333
0
LINE
8
BLACK
6
CONTINUOUS
10
138.819
20
-74.1333
11
138.938
21
-74.2654
0
LINE
8
BLACK
6
CONTINUOUS
10
138.938
20
-74.2654
11
139.027
21
-74.4193
0
LINE
8
BLACK
6
CONTINUOUS
10
139.027
20
-74.4193
11
139.081
21
-74.5883
0
LINE
8
BLACK
6
CONTINUOUS
10
139.081
20
-74.5883
11
139.1
21
-74.765
0
LINE
8
BLACK
6
CONTINUOUS
10
139.1
20
-74.765
11
139.081
21
-74.9417
0
LINE
8
BLACK
6
CONTINUOUS
10
139.081
20
-74.9417
11
139.027
21
-75.1107
0
LINE
8
BLACK
6
CONTINUOUS
10
139.027
20
-75.1107
11
138.938
21
-75.2646
0
LINE
8
BLACK
6
CONTINUOUS
10
138.938
20
-75.2646
11
138.819
21
-75.3967
0
LINE
8
BLACK
6
CONTINUOUS
10
138.819
20
-75.3967
11
138.675
21
-75.5011
0
LINE
8
BLACK
6
CONTINUOUS
10
138.675
20
-75.5011
11
138.513
21
-75.5734
0
LINE
8
BLACK
6
CONTINUOUS
10
138.513
20
-75.5734
11
138.339
21
-75.6103
0
LINE
8
BLACK
6
CONTINUOUS
10
138.339
20
-75.6103
11
138.161
21
-75.6103
0
LINE
8
BLACK
6
CONTINUOUS
10
138.161
20
-75.6103
11
137.987
21
-75.5734
0
LINE
8
BLACK
6
CONTINUOUS
10
137.987
20
-75.5734
11
137.825
21
-75.5011
0
LINE
8
BLACK
6
CONTINUOUS
10
137.825
20
-75.5011
11
137.681
21
-75.3967
0
LINE
8
BLACK
6
CONTINUOUS
10
137.681
20
-75.3967
11
137.562
21
-75.2646
0
LINE
8
BLACK
6
CONTINUOUS
10
137.562
20
-75.2646
11
137.473
21
-75.1107
0
LINE
8
BLACK
6
CONTINUOUS
10
137.473
20
-75.1107
11
137.419
21
-74.9417
0
LINE
8
BLACK
6
CONTINUOUS
10
137.419
20
-74.9417
11
137.4
21
-74.765
0
LINE
8
BLACK
6
CONTINUOUS
10
137.4
20
-74.765
11
137.419
21
-74.5883
0
LINE
8
BLACK
6
CONTINUOUS
10
137.419
20
-74.5883
11
137.473
21
-74.4193
0
LINE
8
BLACK
6
CONTINUOUS
10
137.473
20
-74.4193
11
137.562
21
-74.2654
0
LINE
8
BLACK
6
CONTINUOUS
10
137.562
20
-74.2654
11
137.681
21
-74.1333
0
LINE
8
BLACK
6
CONTINUOUS
10
137.681
20
-74.1333
11
137.825
21
-74.0289
0
LINE
8
BLACK
6
CONTINUOUS
10
137.825
20
-74.0289
11
137.987
21
-73.9566
0
LINE
8
BLACK
6
CONTINUOUS
10
137.987
20
-73.9566
11
138.161
21
-73.9197
0
LINE
8
BLACK
6
CONTINUOUS
10
138.161
20
-73.9197
11
138.339
21
-73.9197
0
LINE
8
BLACK
6
CONTINUOUS
10
138.339
20
-73.9197
11
138.513
21
-73.9566
0
LINE
8
BLACK
6
CONTINUOUS
10
159.896
20
-72.969
11
159.977
21
-73.0231
0
LINE
8
BLACK
6
CONTINUOUS
10
159.977
20
-73.0231
11
160.031
21
-73.1041
0
LINE
8
BLACK
6
CONTINUOUS
10
160.031
20
-73.1041
11
160.05
21
-73.1996
0
LINE
8
BLACK
6
CONTINUOUS
10
160.05
20
-73.1996
11
160.05
21
-74.3004
0
LINE
8
BLACK
6
CONTINUOUS
10
160.05
20
-74.3004
11
160.031
21
-74.3959
0
LINE
8
BLACK
6
CONTINUOUS
10
160.031
20
-74.3959
11
159.977
21
-74.4769
0
LINE
8
BLACK
6
CONTINUOUS
10
159.977
20
-74.4769
11
159.896
21
-74.531
0
LINE
8
BLACK
6
CONTINUOUS
10
159.896
20
-74.531
11
159.8
21
-74.55
0
LINE
8
BLACK
6
CONTINUOUS
10
159.8
20
-74.55
11
158.7
21
-74.55
0
LINE
8
BLACK
6
CONTINUOUS
10
158.7
20
-74.55
11
158.604
21
-74.531
0
LINE
8
BLACK
6
CONTINUOUS
10
158.604
20
-74.531
11
158.523
21
-74.4769
0
LINE
8
BLACK
6
CONTINUOUS
10
158.523
20
-74.4769
11
158.469
21
-74.3959
0
LINE
8
BLACK
6
CONTINUOUS
10
158.469
20
-74.3959
11
158.45
21
-74.3004
0
LINE
8
BLACK
6
CONTINUOUS
10
158.45
20
-74.3004
11
158.45
21
-73.1996
0
LINE
8
BLACK
6
CONTINUOUS
10
158.45
20
-73.1996
11
158.469
21
-73.1041
0
LINE
8
BLACK
6
CONTINUOUS
10
158.469
20
-73.1041
11
158.523
21
-73.0231
0
LINE
8
BLACK
6
CONTINUOUS
10
158.523
20
-73.0231
11
158.604
21
-72.969
0
LINE
8
BLACK
6
CONTINUOUS
10
158.604
20
-72.969
11
158.7
21
-72.95
0
LINE
8
BLACK
6
CONTINUOUS
10
158.7
20
-72.95
11
159.8
21
-72.95
0
LINE
8
BLACK
6
CONTINUOUS
10
159.8
20
-72.95
11
159.896
21
-72.969
0
LINE
8
BLACK
6
CONTINUOUS
10
161.973
20
-72.9711
11
162.141
21
-73.031
0
LINE
8
BLACK
6
CONTINUOUS
10
162.141
20
-73.031
11
162.291
21
-73.1265
0
LINE
8
BLACK
6
CONTINUOUS
10
162.291
20
-73.1265
11
162.417
21
-73.2531
0
LINE
8
BLACK
6
CONTINUOUS
10
162.417
20
-73.2531
11
162.511
21
-73.4043
0
LINE
8
BLACK
6
CONTINUOUS
10
162.511
20
-73.4043
11
162.57
21
-73.5728
0
LINE
8
BLACK
6
CONTINUOUS
10
162.57
20
-73.5728
11
162.59
21
-73.75
0
LINE
8
BLACK
6
CONTINUOUS
10
162.59
20
-73.75
11
162.59
21
-73.7723
0
LINE
8
BLACK
6
CONTINUOUS
10
162.59
20
-73.7723
11
162.565
21
-73.949
0
LINE
8
BLACK
6
CONTINUOUS
10
162.565
20
-73.949
11
162.502
21
-74.1157
0
LINE
8
BLACK
6
CONTINUOUS
10
162.502
20
-74.1157
11
162.403
21
-74.2642
0
LINE
8
BLACK
6
CONTINUOUS
10
162.403
20
-74.2642
11
162.274
21
-74.3872
0
LINE
8
BLACK
6
CONTINUOUS
10
162.274
20
-74.3872
11
162.12
21
-74.4785
0
LINE
8
BLACK
6
CONTINUOUS
10
162.12
20
-74.4785
11
161.951
21
-74.5337
0
LINE
8
BLACK
6
CONTINUOUS
10
161.951
20
-74.5337
11
161.773
21
-74.5498
0
LINE
8
BLACK
6
CONTINUOUS
10
161.773
20
-74.5498
11
161.596
21
-74.5262
0
LINE
8
BLACK
6
CONTINUOUS
10
161.596
20
-74.5262
11
161.429
21
-74.4641
0
LINE
8
BLACK
6
CONTINUOUS
10
161.429
20
-74.4641
11
161.28
21
-74.3664
0
LINE
8
BLACK
6
CONTINUOUS
10
161.28
20
-74.3664
11
161.156
21
-74.2381
0
LINE
8
BLACK
6
CONTINUOUS
10
161.156
20
-74.2381
11
161.064
21
-74.0856
0
LINE
8
BLACK
6
CONTINUOUS
10
161.064
20
-74.0856
11
161.007
21
-73.9163
0
LINE
8
BLACK
6
CONTINUOUS
10
161.007
20
-73.9163
11
160.99
21
-73.7388
0
LINE
8
BLACK
6
CONTINUOUS
10
160.99
20
-73.7388
11
161.012
21
-73.5619
0
LINE
8
BLACK
6
CONTINUOUS
10
161.012
20
-73.5619
11
161.073
21
-73.3943
0
LINE
8
BLACK
6
CONTINUOUS
10
161.073
20
-73.3943
11
161.17
21
-73.2444
0
LINE
8
BLACK
6
CONTINUOUS
10
161.17
20
-73.2444
11
161.297
21
-73.1196
0
LINE
8
BLACK
6
CONTINUOUS
10
161.297
20
-73.1196
11
161.449
21
-73.0261
0
LINE
8
BLACK
6
CONTINUOUS
10
161.449
20
-73.0261
11
161.618
21
-72.9687
0
LINE
8
BLACK
6
CONTINUOUS
10
161.618
20
-72.9687
11
161.796
21
-72.95
0
LINE
8
BLACK
6
CONTINUOUS
10
161.796
20
-72.95
11
161.973
21
-72.9711
0
LINE
8
BLACK
6
CONTINUOUS
10
153.342
20
-72.5006
11
153.479
21
-72.5404
0
LINE
8
BLACK
6
CONTINUOUS
10
153.479
20
-72.5404
11
153.6
21
-72.6155
0
LINE
8
BLACK
6
CONTINUOUS
10
153.6
20
-72.6155
11
153.696
21
-72.7204
0
LINE
8
BLACK
6
CONTINUOUS
10
153.696
20
-72.7204
11
153.761
21
-72.8473
0
LINE
8
BLACK
6
CONTINUOUS
10
153.761
20
-72.8473
11
153.789
21
-72.987
0
LINE
8
BLACK
6
CONTINUOUS
10
153.789
20
-72.987
11
153.779
21
-73.1292
0
LINE
8
BLACK
6
CONTINUOUS
10
153.779
20
-73.1292
11
153.73
21
-73.2632
0
LINE
8
BLACK
6
CONTINUOUS
10
153.73
20
-73.2632
11
153.648
21
-73.3794
0
LINE
8
BLACK
6
CONTINUOUS
10
153.648
20
-73.3794
11
153.537
21
-73.4691
0
LINE
8
BLACK
6
CONTINUOUS
10
153.537
20
-73.4691
11
153.406
21
-73.5257
0
LINE
8
BLACK
6
CONTINUOUS
10
153.406
20
-73.5257
11
153.265
21
-73.545
0
LINE
8
BLACK
6
CONTINUOUS
10
153.265
20
-73.545
11
152.815
21
-73.545
0
LINE
8
BLACK
6
CONTINUOUS
10
152.815
20
-73.545
11
152.738
21
-73.5394
0
LINE
8
BLACK
6
CONTINUOUS
10
152.738
20
-73.5394
11
152.601
21
-73.4996
0
LINE
8
BLACK
6
CONTINUOUS
10
152.601
20
-73.4996
11
152.48
21
-73.4245
0
LINE
8
BLACK
6
CONTINUOUS
10
152.48
20
-73.4245
11
152.384
21
-73.3196
0
LINE
8
BLACK
6
CONTINUOUS
10
152.384
20
-73.3196
11
152.319
21
-73.1927
0
LINE
8
BLACK
6
CONTINUOUS
10
152.319
20
-73.1927
11
152.291
21
-73.053
0
LINE
8
BLACK
6
CONTINUOUS
10
152.291
20
-73.053
11
152.301
21
-72.9108
0
LINE
8
BLACK
6
CONTINUOUS
10
152.301
20
-72.9108
11
152.35
21
-72.7768
0
LINE
8
BLACK
6
CONTINUOUS
10
152.35
20
-72.7768
11
152.432
21
-72.6606
0
LINE
8
BLACK
6
CONTINUOUS
10
152.432
20
-72.6606
11
152.543
21
-72.5709
0
LINE
8
BLACK
6
CONTINUOUS
10
152.543
20
-72.5709
11
152.674
21
-72.5143
0
LINE
8
BLACK
6
CONTINUOUS
10
152.674
20
-72.5143
11
152.815
21
-72.495
0
LINE
8
BLACK
6
CONTINUOUS
10
152.815
20
-72.495
11
153.265
21
-72.495
0
LINE
8
BLACK
6
CONTINUOUS
10
153.265
20
-72.495
11
153.342
21
-72.5006
0
LINE
8
BLACK
6
CONTINUOUS
10
139.1
20
-73.075
11
137.4
21
-73.075
0
LINE
8
BLACK
6
CONTINUOUS
10
137.4
20
-73.075
11
137.4
21
-71.375
0
LINE
8
BLACK
6
CONTINUOUS
10
137.4
20
-71.375
11
139.1
21
-71.375
0
LINE
8
BLACK
6
CONTINUOUS
10
139.1
20
-71.375
11
139.1
21
-73.075
0
LINE
8
BLACK
6
CONTINUOUS
10
153.342
20
-71.2306
11
153.479
21
-71.2704
0
LINE
8
BLACK
6
CONTINUOUS
10
153.479
20
-71.2704
11
153.6
21
-71.3455
0
LINE
8
BLACK
6
CONTINUOUS
10
153.6
20
-71.3455
11
153.696
21
-71.4504
0
LINE
8
BLACK
6
CONTINUOUS
10
153.696
20
-71.4504
11
153.761
21
-71.5773
0
LINE
8
BLACK
6
CONTINUOUS
10
153.761
20
-71.5773
11
153.789
21
-71.717
0
LINE
8
BLACK
6
CONTINUOUS
10
153.789
20
-71.717
11
153.779
21
-71.8592
0
LINE
8
BLACK
6
CONTINUOUS
10
153.779
20
-71.8592
11
153.73
21
-71.9932
0
LINE
8
BLACK
6
CONTINUOUS
10
153.73
20
-71.9932
11
153.648
21
-72.1094
0
LINE
8
BLACK
6
CONTINUOUS
10
153.648
20
-72.1094
11
153.537
21
-72.1991
0
LINE
8
BLACK
6
CONTINUOUS
10
153.537
20
-72.1991
11
153.406
21
-72.2557
0
LINE
8
BLACK
6
CONTINUOUS
10
153.406
20
-72.2557
11
153.265
21
-72.275
0
LINE
8
BLACK
6
CONTINUOUS
10
153.265
20
-72.275
11
152.815
21
-72.275
0
LINE
8
BLACK
6
CONTINUOUS
10
152.815
20
-72.275
11
152.738
21
-72.2694
0
LINE
8
BLACK
6
CONTINUOUS
10
152.738
20
-72.2694
11
152.601
21
-72.2296
0
LINE
8
BLACK
6
CONTINUOUS
10
152.601
20
-72.2296
11
152.48
21
-72.1545
0
LINE
8
BLACK
6
CONTINUOUS
10
152.48
20
-72.1545
11
152.384
21
-72.0496
0
LINE
8
BLACK
6
CONTINUOUS
10
152.384
20
-72.0496
11
152.319
21
-71.9227
0
LINE
8
BLACK
6
CONTINUOUS
10
152.319
20
-71.9227
11
152.291
21
-71.783
0
LINE
8
BLACK
6
CONTINUOUS
10
152.291
20
-71.783
11
152.301
21
-71.6408
0
LINE
8
BLACK
6
CONTINUOUS
10
152.301
20
-71.6408
11
152.35
21
-71.5068
0
LINE
8
BLACK
6
CONTINUOUS
10
152.35
20
-71.5068
11
152.432
21
-71.3906
0
LINE
8
BLACK
6
CONTINUOUS
10
152.432
20
-71.3906
11
152.543
21
-71.3009
0
LINE
8
BLACK
6
CONTINUOUS
10
152.543
20
-71.3009
11
152.674
21
-71.2443
0
LINE
8
BLACK
6
CONTINUOUS
10
152.674
20
-71.2443
11
152.815
21
-71.225
0
LINE
8
BLACK
6
CONTINUOUS
10
152.815
20
-71.225
11
153.265
21
-71.225
0
LINE
8
BLACK
6
CONTINUOUS
10
153.265
20
-71.225
11
153.342
21
-71.2306
0
LINE
8
BLACK
6
CONTINUOUS
10
153.79
20
-71.005
11
152.29
21
-71.005
0
LINE
8
BLACK
6
CONTINUOUS
10
152.29
20
-71.005
11
152.29
21
-69.955
0
LINE
8
BLACK
6
CONTINUOUS
10
152.29
20
-69.955
11
153.79
21
-69.955
0
LINE
8
BLACK
6
CONTINUOUS
10
153.79
20
-69.955
11
153.79
21
-71.005
  0
ENDSEC
  0
EOF
