  0
SECTION
  2
HEADER
  9
$ANGBASE
  50
0.0
  9
$ANGDIR
  70
1
  9
$MEASUREMENT
  70
1
  0
ENDSEC
  0
SECTION
  2
TABLES
  0
TABLE
  2
LTYPE
  70
4
  0
LTYPE
  5
40F
  2
CONTINUOUS
  70
0
  3
Solid line
  72
65
  73
0
  40
0.0
  0
LTYPE
  5
410
  2
DASHDOT
 70
0
  3
Dash Dot ____ _ ____ _
 72
65
 73
4
 40
2.0
 49
1.25
 49
-0.25
 49
0.25
 49
-0.25
  0
LTYPE
  5
411
  2
DASHED
 70
0
  3
Dashed __ __ __ __ __
 72
65
 73
2
 40
0.75
 49
0.5
 49
-0.25
  0
LTYPE
  5
43B
  2
DOTTED
 70
0
  3
Dotted .  .  .  .
 72
65
 73
2
 40
0.2
 49
0.0
 49
-0.2
  0
ENDTAB
  0
TABLE
  2
STYLE
  70
4
  0
STYLE
  2
KICAD
  70
0
  40
0
  41
1
  42
1
  50
0
  71
0
  3
isocp.shx
  0
STYLE
  2
KICADB
  70
0
  40
0
  41
1
  42
1
  50
0
  71
0
  3
isocp.shx
  0
STYLE
  2
KICADI
  70
0
  40
0
  41
1
  42
1
  50
15
  71
0
  3
isocp.shx
  0
STYLE
  2
KICADBI
  70
0
  40
0
  41
1
  42
1
  50
15
  71
0
  3
isocp.shx
  0
ENDTAB
  0
TABLE
  2
LAYER
  70
1
  0
LAYER
  2
BLACK
  70
0
  62
7
  6
CONTINUOUS
  0
ENDTAB
  0
ENDSEC
  0
SECTION
  2
ENTITIES
0
LINE
8
BLACK
6
CONTINUOUS
10
147.374
20
-76.6196
11
147.485
21
-76.6764
0
LINE
8
BLACK
6
CONTINUOUS
10
147.485
20
-76.6764
11
147.574
21
-76.7649
0
LINE
8
BLACK
6
CONTINUOUS
10
147.574
20
-76.7649
11
147.63
21
-76.8764
0
LINE
8
BLACK
6
CONTINUOUS
10
147.63
20
-76.8764
11
147.65
21
-77
0
LINE
8
BLACK
6
CONTINUOUS
10
147.65
20
-77
11
147.63
21
-77.1236
0
LINE
8
BLACK
6
CONTINUOUS
10
147.63
20
-77.1236
11
147.603
21
-77.1766
0
LINE
8
BLACK
6
CONTINUOUS
10
147.603
20
-77.1766
11
150.302
21
-79.875
0
LINE
8
BLACK
6
CONTINUOUS
10
150.302
20
-79.875
11
152.87
21
-79.875
0
LINE
8
BLACK
6
CONTINUOUS
10
152.87
20
-79.875
11
152.926
21
-79.7649
0
LINE
8
BLACK
6
CONTINUOUS
10
152.926
20
-79.7649
11
153.015
21
-79.6764
0
LINE
8
BLACK
6
CONTINUOUS
10
153.015
20
-79.6764
11
153.126
21
-79.6196
0
LINE
8
BLACK
6
CONTINUOUS
10
153.126
20
-79.6196
11
153.25
21
-79.6
0
LINE
8
BLACK
6
CONTINUOUS
10
153.25
20
-79.6
11
153.374
21
-79.6196
0
LINE
8
BLACK
6
CONTINUOUS
10
153.374
20
-79.6196
11
153.485
21
-79.6764
0
LINE
8
BLACK
6
CONTINUOUS
10
153.485
20
-79.6764
11
153.574
21
-79.7649
0
LINE
8
BLACK
6
CONTINUOUS
10
153.574
20
-79.7649
11
153.63
21
-79.8764
0
LINE
8
BLACK
6
CONTINUOUS
10
153.63
20
-79.8764
11
153.65
21
-80
0
LINE
8
BLACK
6
CONTINUOUS
10
153.65
20
-80
11
153.63
21
-80.1236
0
LINE
8
BLACK
6
CONTINUOUS
10
153.63
20
-80.1236
11
153.574
21
-80.2351
0
LINE
8
BLACK
6
CONTINUOUS
10
153.574
20
-80.2351
11
153.485
21
-80.3236
0
LINE
8
BLACK
6
CONTINUOUS
10
153.485
20
-80.3236
11
153.374
21
-80.3804
0
LINE
8
BLACK
6
CONTINUOUS
10
153.374
20
-80.3804
11
153.25
21
-80.4
0
LINE
8
BLACK
6
CONTINUOUS
10
153.25
20
-80.4
11
153.126
21
-80.3804
0
LINE
8
BLACK
6
CONTINUOUS
10
153.126
20
-80.3804
11
153.015
21
-80.3236
0
LINE
8
BLACK
6
CONTINUOUS
10
153.015
20
-80.3236
11
152.926
21
-80.2351
0
LINE
8
BLACK
6
CONTINUOUS
10
152.926
20
-80.2351
11
152.87
21
-80.125
0
LINE
8
BLACK
6
CONTINUOUS
10
152.87
20
-80.125
11
150.25
21
-80.125
0
LINE
8
BLACK
6
CONTINUOUS
10
150.25
20
-80.125
11
150.228
21
-80.1218
0
LINE
8
BLACK
6
CONTINUOUS
10
150.228
20
-80.1218
11
150.223
21
-80.1221
0
LINE
8
BLACK
6
CONTINUOUS
10
150.223
20
-80.1221
11
150.221
21
-80.1208
0
LINE
8
BLACK
6
CONTINUOUS
10
150.221
20
-80.1208
11
150.214
21
-80.1199
0
LINE
8
BLACK
6
CONTINUOUS
10
150.214
20
-80.1199
11
150.189
21
-80.1032
0
LINE
8
BLACK
6
CONTINUOUS
10
150.189
20
-80.1032
11
150.162
21
-80.0884
0
LINE
8
BLACK
6
CONTINUOUS
10
150.162
20
-80.0884
11
147.427
21
-77.3534
0
LINE
8
BLACK
6
CONTINUOUS
10
147.427
20
-77.3534
11
147.374
21
-77.3804
0
LINE
8
BLACK
6
CONTINUOUS
10
147.374
20
-77.3804
11
147.25
21
-77.4
0
LINE
8
BLACK
6
CONTINUOUS
10
147.25
20
-77.4
11
147.126
21
-77.3804
0
LINE
8
BLACK
6
CONTINUOUS
10
147.126
20
-77.3804
11
147.015
21
-77.3236
0
LINE
8
BLACK
6
CONTINUOUS
10
147.015
20
-77.3236
11
146.926
21
-77.2351
0
LINE
8
BLACK
6
CONTINUOUS
10
146.926
20
-77.2351
11
146.87
21
-77.1236
0
LINE
8
BLACK
6
CONTINUOUS
10
146.87
20
-77.1236
11
146.85
21
-77
0
LINE
8
BLACK
6
CONTINUOUS
10
146.85
20
-77
11
146.87
21
-76.8764
0
LINE
8
BLACK
6
CONTINUOUS
10
146.87
20
-76.8764
11
146.926
21
-76.7649
0
LINE
8
BLACK
6
CONTINUOUS
10
146.926
20
-76.7649
11
147.015
21
-76.6764
0
LINE
8
BLACK
6
CONTINUOUS
10
147.015
20
-76.6764
11
147.126
21
-76.6196
0
LINE
8
BLACK
6
CONTINUOUS
10
147.126
20
-76.6196
11
147.25
21
-76.6
0
LINE
8
BLACK
6
CONTINUOUS
10
147.25
20
-76.6
11
147.374
21
-76.6196
0
LINE
8
BLACK
6
CONTINUOUS
10
153.302
20
-78.2706
11
153.439
21
-78.3104
0
LINE
8
BLACK
6
CONTINUOUS
10
153.439
20
-78.3104
11
153.56
21
-78.3855
0
LINE
8
BLACK
6
CONTINUOUS
10
153.56
20
-78.3855
11
153.656
21
-78.4904
0
LINE
8
BLACK
6
CONTINUOUS
10
153.656
20
-78.4904
11
153.721
21
-78.6173
0
LINE
8
BLACK
6
CONTINUOUS
10
153.721
20
-78.6173
11
153.749
21
-78.757
0
LINE
8
BLACK
6
CONTINUOUS
10
153.749
20
-78.757
11
153.739
21
-78.8992
0
LINE
8
BLACK
6
CONTINUOUS
10
153.739
20
-78.8992
11
153.69
21
-79.0332
0
LINE
8
BLACK
6
CONTINUOUS
10
153.69
20
-79.0332
11
153.608
21
-79.1494
0
LINE
8
BLACK
6
CONTINUOUS
10
153.608
20
-79.1494
11
153.497
21
-79.2391
0
LINE
8
BLACK
6
CONTINUOUS
10
153.497
20
-79.2391
11
153.366
21
-79.2957
0
LINE
8
BLACK
6
CONTINUOUS
10
153.366
20
-79.2957
11
153.225
21
-79.315
0
LINE
8
BLACK
6
CONTINUOUS
10
153.225
20
-79.315
11
152.775
21
-79.315
0
LINE
8
BLACK
6
CONTINUOUS
10
152.775
20
-79.315
11
152.698
21
-79.3094
0
LINE
8
BLACK
6
CONTINUOUS
10
152.698
20
-79.3094
11
152.561
21
-79.2696
0
LINE
8
BLACK
6
CONTINUOUS
10
152.561
20
-79.2696
11
152.44
21
-79.1945
0
LINE
8
BLACK
6
CONTINUOUS
10
152.44
20
-79.1945
11
152.344
21
-79.0896
0
LINE
8
BLACK
6
CONTINUOUS
10
152.344
20
-79.0896
11
152.279
21
-78.9627
0
LINE
8
BLACK
6
CONTINUOUS
10
152.279
20
-78.9627
11
152.251
21
-78.823
0
LINE
8
BLACK
6
CONTINUOUS
10
152.251
20
-78.823
11
152.261
21
-78.6808
0
LINE
8
BLACK
6
CONTINUOUS
10
152.261
20
-78.6808
11
152.31
21
-78.5468
0
LINE
8
BLACK
6
CONTINUOUS
10
152.31
20
-78.5468
11
152.392
21
-78.4306
0
LINE
8
BLACK
6
CONTINUOUS
10
152.392
20
-78.4306
11
152.503
21
-78.3409
0
LINE
8
BLACK
6
CONTINUOUS
10
152.503
20
-78.3409
11
152.634
21
-78.2843
0
LINE
8
BLACK
6
CONTINUOUS
10
152.634
20
-78.2843
11
152.775
21
-78.265
0
LINE
8
BLACK
6
CONTINUOUS
10
152.775
20
-78.265
11
153.225
21
-78.265
0
LINE
8
BLACK
6
CONTINUOUS
10
153.225
20
-78.265
11
153.302
21
-78.2706
0
LINE
8
BLACK
6
CONTINUOUS
10
159.433
20
-75.7711
11
159.601
21
-75.831
0
LINE
8
BLACK
6
CONTINUOUS
10
159.601
20
-75.831
11
159.751
21
-75.9265
0
LINE
8
BLACK
6
CONTINUOUS
10
159.751
20
-75.9265
11
159.877
21
-76.0531
0
LINE
8
BLACK
6
CONTINUOUS
10
159.877
20
-76.0531
11
159.971
21
-76.2043
0
LINE
8
BLACK
6
CONTINUOUS
10
159.971
20
-76.2043
11
160.03
21
-76.3728
0
LINE
8
BLACK
6
CONTINUOUS
10
160.03
20
-76.3728
11
160.05
21
-76.55
0
LINE
8
BLACK
6
CONTINUOUS
10
160.05
20
-76.55
11
160.05
21
-76.5723
0
LINE
8
BLACK
6
CONTINUOUS
10
160.05
20
-76.5723
11
160.025
21
-76.749
0
LINE
8
BLACK
6
CONTINUOUS
10
160.025
20
-76.749
11
159.962
21
-76.9157
0
LINE
8
BLACK
6
CONTINUOUS
10
159.962
20
-76.9157
11
159.863
21
-77.0642
0
LINE
8
BLACK
6
CONTINUOUS
10
159.863
20
-77.0642
11
159.734
21
-77.1872
0
LINE
8
BLACK
6
CONTINUOUS
10
159.734
20
-77.1872
11
159.58
21
-77.2785
0
LINE
8
BLACK
6
CONTINUOUS
10
159.58
20
-77.2785
11
159.411
21
-77.3337
0
LINE
8
BLACK
6
CONTINUOUS
10
159.411
20
-77.3337
11
159.233
21
-77.3498
0
LINE
8
BLACK
6
CONTINUOUS
10
159.233
20
-77.3498
11
159.056
21
-77.3262
0
LINE
8
BLACK
6
CONTINUOUS
10
159.056
20
-77.3262
11
158.889
21
-77.2641
0
LINE
8
BLACK
6
CONTINUOUS
10
158.889
20
-77.2641
11
158.74
21
-77.1664
0
LINE
8
BLACK
6
CONTINUOUS
10
158.74
20
-77.1664
11
158.616
21
-77.0381
0
LINE
8
BLACK
6
CONTINUOUS
10
158.616
20
-77.0381
11
158.524
21
-76.8856
0
LINE
8
BLACK
6
CONTINUOUS
10
158.524
20
-76.8856
11
158.467
21
-76.7163
0
LINE
8
BLACK
6
CONTINUOUS
10
158.467
20
-76.7163
11
158.463
21
-76.675
0
LINE
8
BLACK
6
CONTINUOUS
10
158.463
20
-76.675
11
156.302
21
-76.675
0
LINE
8
BLACK
6
CONTINUOUS
10
156.302
20
-76.675
11
155.368
21
-77.6084
0
LINE
8
BLACK
6
CONTINUOUS
10
155.368
20
-77.6084
11
155.351
21
-77.6217
0
LINE
8
BLACK
6
CONTINUOUS
10
155.351
20
-77.6217
11
155.348
21
-77.6252
0
LINE
8
BLACK
6
CONTINUOUS
10
155.348
20
-77.6252
11
155.345
21
-77.626
0
LINE
8
BLACK
6
CONTINUOUS
10
155.345
20
-77.626
11
155.34
21
-77.6299
0
LINE
8
BLACK
6
CONTINUOUS
10
155.34
20
-77.6299
11
155.31
21
-77.6363
0
LINE
8
BLACK
6
CONTINUOUS
10
155.31
20
-77.6363
11
155.28
21
-77.645
0
LINE
8
BLACK
6
CONTINUOUS
10
155.28
20
-77.645
11
153.733
21
-77.645
0
LINE
8
BLACK
6
CONTINUOUS
10
153.733
20
-77.645
11
153.69
21
-77.7632
0
LINE
8
BLACK
6
CONTINUOUS
10
153.69
20
-77.7632
11
153.608
21
-77.8794
0
LINE
8
BLACK
6
CONTINUOUS
10
153.608
20
-77.8794
11
153.497
21
-77.9691
0
LINE
8
BLACK
6
CONTINUOUS
10
153.497
20
-77.9691
11
153.366
21
-78.0257
0
LINE
8
BLACK
6
CONTINUOUS
10
153.366
20
-78.0257
11
153.225
21
-78.045
0
LINE
8
BLACK
6
CONTINUOUS
10
153.225
20
-78.045
11
152.775
21
-78.045
0
LINE
8
BLACK
6
CONTINUOUS
10
152.775
20
-78.045
11
152.698
21
-78.0394
0
LINE
8
BLACK
6
CONTINUOUS
10
152.698
20
-78.0394
11
152.561
21
-77.9996
0
LINE
8
BLACK
6
CONTINUOUS
10
152.561
20
-77.9996
11
152.44
21
-77.9245
0
LINE
8
BLACK
6
CONTINUOUS
10
152.44
20
-77.9245
11
152.344
21
-77.8196
0
LINE
8
BLACK
6
CONTINUOUS
10
152.344
20
-77.8196
11
152.279
21
-77.6927
0
LINE
8
BLACK
6
CONTINUOUS
10
152.279
20
-77.6927
11
152.251
21
-77.553
0
LINE
8
BLACK
6
CONTINUOUS
10
152.251
20
-77.553
11
152.261
21
-77.4108
0
LINE
8
BLACK
6
CONTINUOUS
10
152.261
20
-77.4108
11
152.31
21
-77.2768
0
LINE
8
BLACK
6
CONTINUOUS
10
152.31
20
-77.2768
11
152.392
21
-77.1606
0
LINE
8
BLACK
6
CONTINUOUS
10
152.392
20
-77.1606
11
152.503
21
-77.0709
0
LINE
8
BLACK
6
CONTINUOUS
10
152.503
20
-77.0709
11
152.634
21
-77.0143
0
LINE
8
BLACK
6
CONTINUOUS
10
152.634
20
-77.0143
11
152.775
21
-76.995
0
LINE
8
BLACK
6
CONTINUOUS
10
152.775
20
-76.995
11
153.225
21
-76.995
0
LINE
8
BLACK
6
CONTINUOUS
10
153.225
20
-76.995
11
153.302
21
-77.0006
0
LINE
8
BLACK
6
CONTINUOUS
10
153.302
20
-77.0006
11
153.439
21
-77.0404
0
LINE
8
BLACK
6
CONTINUOUS
10
153.439
20
-77.0404
11
153.56
21
-77.1155
0
LINE
8
BLACK
6
CONTINUOUS
10
153.56
20
-77.1155
11
153.656
21
-77.2204
0
LINE
8
BLACK
6
CONTINUOUS
10
153.656
20
-77.2204
11
153.721
21
-77.3473
0
LINE
8
BLACK
6
CONTINUOUS
10
153.721
20
-77.3473
11
153.73
21
-77.395
0
LINE
8
BLACK
6
CONTINUOUS
10
153.73
20
-77.395
11
155.228
21
-77.395
0
LINE
8
BLACK
6
CONTINUOUS
10
155.228
20
-77.395
11
156.162
21
-76.4616
0
LINE
8
BLACK
6
CONTINUOUS
10
156.162
20
-76.4616
11
156.179
21
-76.4483
0
LINE
8
BLACK
6
CONTINUOUS
10
156.179
20
-76.4483
11
156.182
21
-76.4448
0
LINE
8
BLACK
6
CONTINUOUS
10
156.182
20
-76.4448
11
156.185
21
-76.444
0
LINE
8
BLACK
6
CONTINUOUS
10
156.185
20
-76.444
11
156.19
21
-76.4401
0
LINE
8
BLACK
6
CONTINUOUS
10
156.19
20
-76.4401
11
156.22
21
-76.4337
0
LINE
8
BLACK
6
CONTINUOUS
10
156.22
20
-76.4337
11
156.25
21
-76.425
0
LINE
8
BLACK
6
CONTINUOUS
10
156.25
20
-76.425
11
158.464
21
-76.425
0
LINE
8
BLACK
6
CONTINUOUS
10
158.464
20
-76.425
11
158.472
21
-76.3619
0
LINE
8
BLACK
6
CONTINUOUS
10
158.472
20
-76.3619
11
158.533
21
-76.1943
0
LINE
8
BLACK
6
CONTINUOUS
10
158.533
20
-76.1943
11
158.63
21
-76.0444
0
LINE
8
BLACK
6
CONTINUOUS
10
158.63
20
-76.0444
11
158.757
21
-75.9196
0
LINE
8
BLACK
6
CONTINUOUS
10
158.757
20
-75.9196
11
158.909
21
-75.8261
0
LINE
8
BLACK
6
CONTINUOUS
10
158.909
20
-75.8261
11
159.078
21
-75.7687
0
LINE
8
BLACK
6
CONTINUOUS
10
159.078
20
-75.7687
11
159.256
21
-75.75
0
LINE
8
BLACK
6
CONTINUOUS
10
159.256
20
-75.75
11
159.433
21
-75.7711
0
LINE
8
BLACK
6
CONTINUOUS
10
153.75
20
-76.775
11
152.25
21
-76.775
0
LINE
8
BLACK
6
CONTINUOUS
10
152.25
20
-76.775
11
152.25
21
-75.725
0
LINE
8
BLACK
6
CONTINUOUS
10
152.25
20
-75.725
11
153.75
21
-75.725
0
LINE
8
BLACK
6
CONTINUOUS
10
153.75
20
-75.725
11
153.75
21
-76.775
0
LINE
8
BLACK
6
CONTINUOUS
10
159.896
20
-72.969
11
159.977
21
-73.0231
0
LINE
8
BLACK
6
CONTINUOUS
10
159.977
20
-73.0231
11
160.031
21
-73.1041
0
LINE
8
BLACK
6
CONTINUOUS
10
160.031
20
-73.1041
11
160.05
21
-73.1996
0
LINE
8
BLACK
6
CONTINUOUS
10
160.05
20
-73.1996
11
160.05
21
-74.3004
0
LINE
8
BLACK
6
CONTINUOUS
10
160.05
20
-74.3004
11
160.031
21
-74.3959
0
LINE
8
BLACK
6
CONTINUOUS
10
160.031
20
-74.3959
11
159.977
21
-74.4769
0
LINE
8
BLACK
6
CONTINUOUS
10
159.977
20
-74.4769
11
159.896
21
-74.531
0
LINE
8
BLACK
6
CONTINUOUS
10
159.896
20
-74.531
11
159.8
21
-74.55
0
LINE
8
BLACK
6
CONTINUOUS
10
159.8
20
-74.55
11
158.7
21
-74.55
0
LINE
8
BLACK
6
CONTINUOUS
10
158.7
20
-74.55
11
158.604
21
-74.531
0
LINE
8
BLACK
6
CONTINUOUS
10
158.604
20
-74.531
11
158.523
21
-74.4769
0
LINE
8
BLACK
6
CONTINUOUS
10
158.523
20
-74.4769
11
158.469
21
-74.3959
0
LINE
8
BLACK
6
CONTINUOUS
10
158.469
20
-74.3959
11
158.45
21
-74.3004
0
LINE
8
BLACK
6
CONTINUOUS
10
158.45
20
-74.3004
11
158.45
21
-73.1996
0
LINE
8
BLACK
6
CONTINUOUS
10
158.45
20
-73.1996
11
158.469
21
-73.1041
0
LINE
8
BLACK
6
CONTINUOUS
10
158.469
20
-73.1041
11
158.523
21
-73.0231
0
LINE
8
BLACK
6
CONTINUOUS
10
158.523
20
-73.0231
11
158.604
21
-72.969
0
LINE
8
BLACK
6
CONTINUOUS
10
158.604
20
-72.969
11
158.7
21
-72.95
0
LINE
8
BLACK
6
CONTINUOUS
10
158.7
20
-72.95
11
159.8
21
-72.95
0
LINE
8
BLACK
6
CONTINUOUS
10
159.8
20
-72.95
11
159.896
21
-72.969
0
LINE
8
BLACK
6
CONTINUOUS
10
136.279
20
-68.5664
11
136.332
21
-68.5199
0
LINE
8
BLACK
6
CONTINUOUS
10
136.332
20
-68.5199
11
136.385
21
-68.5085
0
LINE
8
BLACK
6
CONTINUOUS
10
136.385
20
-68.5085
11
164.115
21
-68.5085
0
LINE
8
BLACK
6
CONTINUOUS
10
164.115
20
-68.5085
11
164.184
21
-68.5285
0
LINE
8
BLACK
6
CONTINUOUS
10
164.184
20
-68.5285
11
164.23
21
-68.5822
0
LINE
8
BLACK
6
CONTINUOUS
10
164.23
20
-68.5822
11
164.242
21
-68.6345
0
LINE
8
BLACK
6
CONTINUOUS
10
164.242
20
-68.6345
11
164.242
21
-80.3655
0
LINE
8
BLACK
6
CONTINUOUS
10
164.242
20
-80.3655
11
164.221
21
-80.4336
0
LINE
8
BLACK
6
CONTINUOUS
10
164.221
20
-80.4336
11
164.168
21
-80.4801
0
LINE
8
BLACK
6
CONTINUOUS
10
164.168
20
-80.4801
11
164.115
21
-80.4915
0
LINE
8
BLACK
6
CONTINUOUS
10
164.115
20
-80.4915
11
154.219
21
-80.4915
0
LINE
8
BLACK
6
CONTINUOUS
10
154.219
20
-80.4915
11
154.151
21
-80.4715
0
LINE
8
BLACK
6
CONTINUOUS
10
154.151
20
-80.4715
11
154.104
21
-80.4178
0
LINE
8
BLACK
6
CONTINUOUS
10
154.104
20
-80.4178
11
154.094
21
-80.3476
0
LINE
8
BLACK
6
CONTINUOUS
10
154.094
20
-80.3476
11
154.099
21
-80.3266
0
LINE
8
BLACK
6
CONTINUOUS
10
154.099
20
-80.3266
11
154.142
21
-80.1962
0
LINE
8
BLACK
6
CONTINUOUS
10
154.142
20
-80.1962
11
154.144
21
-80.1899
0
LINE
8
BLACK
6
CONTINUOUS
10
154.144
20
-80.1899
11
154.164
21
-80
0
LINE
8
BLACK
6
CONTINUOUS
10
154.164
20
-80
11
154.144
21
-79.8101
0
LINE
8
BLACK
6
CONTINUOUS
10
154.144
20
-79.8101
11
154.085
21
-79.6284
0
LINE
8
BLACK
6
CONTINUOUS
10
154.085
20
-79.6284
11
154.041
21
-79.5535
0
LINE
8
BLACK
6
CONTINUOUS
10
154.041
20
-79.5535
11
154.025
21
-79.4845
0
LINE
8
BLACK
6
CONTINUOUS
10
154.025
20
-79.4845
11
154.048
21
-79.4174
0
LINE
8
BLACK
6
CONTINUOUS
10
154.048
20
-79.4174
11
154.053
21
-79.4102
0
LINE
8
BLACK
6
CONTINUOUS
10
154.053
20
-79.4102
11
154.082
21
-79.3755
0
LINE
8
BLACK
6
CONTINUOUS
10
154.082
20
-79.3755
11
154.086
21
-79.3707
0
LINE
8
BLACK
6
CONTINUOUS
10
154.086
20
-79.3707
11
154.182
21
-79.1924
0
LINE
8
BLACK
6
CONTINUOUS
10
154.182
20
-79.1924
11
154.242
21
-78.9988
0
LINE
8
BLACK
6
CONTINUOUS
10
154.242
20
-78.9988
11
154.263
21
-78.7972
0
LINE
8
BLACK
6
CONTINUOUS
10
154.263
20
-78.7972
11
154.256
21
-78.714
0
LINE
8
BLACK
6
CONTINUOUS
10
154.256
20
-78.714
11
154.246
21
-78.6015
0
LINE
8
BLACK
6
CONTINUOUS
10
154.246
20
-78.6015
11
154.246
21
-78.6015
0
LINE
8
BLACK
6
CONTINUOUS
10
154.246
20
-78.6015
11
154.245
21
-78.5954
0
LINE
8
BLACK
6
CONTINUOUS
10
154.245
20
-78.5954
11
154.188
21
-78.401
0
LINE
8
BLACK
6
CONTINUOUS
10
154.188
20
-78.401
11
154.185
21
-78.3955
0
LINE
8
BLACK
6
CONTINUOUS
10
154.185
20
-78.3955
11
154.155
21
-78.3379
0
LINE
8
BLACK
6
CONTINUOUS
10
154.155
20
-78.3379
11
154.141
21
-78.2682
0
LINE
8
BLACK
6
CONTINUOUS
10
154.141
20
-78.2682
11
154.167
21
-78.2022
0
LINE
8
BLACK
6
CONTINUOUS
10
154.167
20
-78.2022
11
154.225
21
-78.1607
0
LINE
8
BLACK
6
CONTINUOUS
10
154.225
20
-78.1607
11
154.267
21
-78.1535
0
LINE
8
BLACK
6
CONTINUOUS
10
154.267
20
-78.1535
11
155.201
21
-78.1535
0
LINE
8
BLACK
6
CONTINUOUS
10
155.201
20
-78.1535
11
155.212
21
-78.154
0
LINE
8
BLACK
6
CONTINUOUS
10
155.212
20
-78.154
11
155.22
21
-78.1557
0
LINE
8
BLACK
6
CONTINUOUS
10
155.22
20
-78.1557
11
155.228
21
-78.1555
0
LINE
8
BLACK
6
CONTINUOUS
10
155.228
20
-78.1555
11
155.228
21
-78.1555
0
LINE
8
BLACK
6
CONTINUOUS
10
155.228
20
-78.1555
11
155.288
21
-78.1536
0
LINE
8
BLACK
6
CONTINUOUS
10
155.288
20
-78.1536
11
155.292
21
-78.1535
0
LINE
8
BLACK
6
CONTINUOUS
10
155.292
20
-78.1535
11
155.32
21
-78.1535
0
LINE
8
BLACK
6
CONTINUOUS
10
155.32
20
-78.1535
11
155.324
21
-78.153
0
LINE
8
BLACK
6
CONTINUOUS
10
155.324
20
-78.153
11
155.324
21
-78.153
0
LINE
8
BLACK
6
CONTINUOUS
10
155.324
20
-78.153
11
155.336
21
-78.1521
0
LINE
8
BLACK
6
CONTINUOUS
10
155.336
20
-78.1521
11
155.368
21
-78.151
0
LINE
8
BLACK
6
CONTINUOUS
10
155.368
20
-78.151
11
155.372
21
-78.1509
0
LINE
8
BLACK
6
CONTINUOUS
10
155.372
20
-78.1509
11
155.38
21
-78.1507
0
LINE
8
BLACK
6
CONTINUOUS
10
155.38
20
-78.1507
11
155.399
21
-78.145
0
LINE
8
BLACK
6
CONTINUOUS
10
155.399
20
-78.145
11
155.419
21
-78.141
0
LINE
8
BLACK
6
CONTINUOUS
10
155.419
20
-78.141
11
155.431
21
-78.1395
0
LINE
8
BLACK
6
CONTINUOUS
10
155.431
20
-78.1395
11
155.431
21
-78.1395
0
LINE
8
BLACK
6
CONTINUOUS
10
155.431
20
-78.1395
11
155.439
21
-78.1385
0
LINE
8
BLACK
6
CONTINUOUS
10
155.439
20
-78.1385
11
155.446
21
-78.1356
0
LINE
8
BLACK
6
CONTINUOUS
10
155.446
20
-78.1356
11
155.446
21
-78.1356
0
LINE
8
BLACK
6
CONTINUOUS
10
155.446
20
-78.1356
11
155.48
21
-78.1222
0
LINE
8
BLACK
6
CONTINUOUS
10
155.48
20
-78.1222
11
155.491
21
-78.1184
0
LINE
8
BLACK
6
CONTINUOUS
10
155.491
20
-78.1184
11
155.526
21
-78.1082
0
LINE
8
BLACK
6
CONTINUOUS
10
155.526
20
-78.1082
11
155.526
21
-78.1082
0
LINE
8
BLACK
6
CONTINUOUS
10
155.526
20
-78.1082
11
155.534
21
-78.106
0
LINE
8
BLACK
6
CONTINUOUS
10
155.534
20
-78.106
11
155.54
21
-78.102
0
LINE
8
BLACK
6
CONTINUOUS
10
155.54
20
-78.102
11
155.54
21
-78.102
0
LINE
8
BLACK
6
CONTINUOUS
10
155.54
20
-78.102
11
155.551
21
-78.0957
0
LINE
8
BLACK
6
CONTINUOUS
10
155.551
20
-78.0957
11
155.569
21
-78.087
0
LINE
8
BLACK
6
CONTINUOUS
10
155.569
20
-78.087
11
155.588
21
-78.0796
0
LINE
8
BLACK
6
CONTINUOUS
10
155.588
20
-78.0796
11
155.623
21
-78.0536
0
LINE
8
BLACK
6
CONTINUOUS
10
155.623
20
-78.0536
11
155.633
21
-78.047
0
LINE
8
BLACK
6
CONTINUOUS
10
155.633
20
-78.047
11
155.665
21
-78.0286
0
LINE
8
BLACK
6
CONTINUOUS
10
155.665
20
-78.0286
11
155.665
21
-78.0286
0
LINE
8
BLACK
6
CONTINUOUS
10
155.665
20
-78.0286
11
155.671
21
-78.0245
0
LINE
8
BLACK
6
CONTINUOUS
10
155.671
20
-78.0245
11
155.686
21
-78.0102
0
LINE
8
BLACK
6
CONTINUOUS
10
155.686
20
-78.0102
11
155.701
21
-77.9974
0
LINE
8
BLACK
6
CONTINUOUS
10
155.701
20
-77.9974
11
155.711
21
-77.9901
0
LINE
8
BLACK
6
CONTINUOUS
10
155.711
20
-77.9901
11
155.717
21
-77.9855
0
LINE
8
BLACK
6
CONTINUOUS
10
155.717
20
-77.9855
11
155.745
21
-77.9514
0
LINE
8
BLACK
6
CONTINUOUS
10
155.745
20
-77.9514
11
155.753
21
-77.9426
0
LINE
8
BLACK
6
CONTINUOUS
10
155.753
20
-77.9426
11
156.475
21
-77.2204
0
LINE
8
BLACK
6
CONTINUOUS
10
156.475
20
-77.2204
11
156.538
21
-77.1864
0
LINE
8
BLACK
6
CONTINUOUS
10
156.538
20
-77.1864
11
156.565
21
-77.1835
0
LINE
8
BLACK
6
CONTINUOUS
10
156.565
20
-77.1835
11
158.031
21
-77.1835
0
LINE
8
BLACK
6
CONTINUOUS
10
158.031
20
-77.1835
11
158.099
21
-77.2035
0
LINE
8
BLACK
6
CONTINUOUS
10
158.099
20
-77.2035
11
158.134
21
-77.2372
0
LINE
8
BLACK
6
CONTINUOUS
10
158.134
20
-77.2372
11
158.241
21
-77.3898
0
LINE
8
BLACK
6
CONTINUOUS
10
158.241
20
-77.3898
11
158.244
21
-77.3943
0
LINE
8
BLACK
6
CONTINUOUS
10
158.244
20
-77.3943
11
158.406
21
-77.5562
0
LINE
8
BLACK
6
CONTINUOUS
10
158.406
20
-77.5562
11
158.41
21
-77.5594
0
LINE
8
BLACK
6
CONTINUOUS
10
158.41
20
-77.5594
11
158.41
21
-77.5594
0
LINE
8
BLACK
6
CONTINUOUS
10
158.41
20
-77.5594
11
158.429
21
-77.5725
0
LINE
8
BLACK
6
CONTINUOUS
10
158.429
20
-77.5725
11
158.593
21
-77.6875
0
LINE
8
BLACK
6
CONTINUOUS
10
158.593
20
-77.6875
11
158.598
21
-77.6898
0
LINE
8
BLACK
6
CONTINUOUS
10
158.598
20
-77.6898
11
158.598
21
-77.6898
0
LINE
8
BLACK
6
CONTINUOUS
10
158.598
20
-77.6898
11
158.796
21
-77.782
0
LINE
8
BLACK
6
CONTINUOUS
10
158.796
20
-77.782
11
158.801
21
-77.7843
0
LINE
8
BLACK
6
CONTINUOUS
10
158.801
20
-77.7843
11
158.806
21
-77.7857
0
LINE
8
BLACK
6
CONTINUOUS
10
158.806
20
-77.7857
11
158.806
21
-77.7857
0
LINE
8
BLACK
6
CONTINUOUS
10
158.806
20
-77.7857
11
159.017
21
-77.8421
0
LINE
8
BLACK
6
CONTINUOUS
10
159.017
20
-77.8421
11
159.017
21
-77.8421
0
LINE
8
BLACK
6
CONTINUOUS
10
159.017
20
-77.8421
11
159.022
21
-77.8435
0
LINE
8
BLACK
6
CONTINUOUS
10
159.022
20
-77.8435
11
159.25
21
-77.8635
0
LINE
8
BLACK
6
CONTINUOUS
10
159.25
20
-77.8635
11
159.478
21
-77.8435
0
LINE
8
BLACK
6
CONTINUOUS
10
159.478
20
-77.8435
11
159.483
21
-77.8421
0
LINE
8
BLACK
6
CONTINUOUS
10
159.483
20
-77.8421
11
159.483
21
-77.8421
0
LINE
8
BLACK
6
CONTINUOUS
10
159.483
20
-77.8421
11
159.694
21
-77.7857
0
LINE
8
BLACK
6
CONTINUOUS
10
159.694
20
-77.7857
11
159.694
21
-77.7857
0
LINE
8
BLACK
6
CONTINUOUS
10
159.694
20
-77.7857
11
159.699
21
-77.7843
0
LINE
8
BLACK
6
CONTINUOUS
10
159.699
20
-77.7843
11
159.704
21
-77.782
0
LINE
8
BLACK
6
CONTINUOUS
10
159.704
20
-77.782
11
159.902
21
-77.6898
0
LINE
8
BLACK
6
CONTINUOUS
10
159.902
20
-77.6898
11
159.902
21
-77.6898
0
LINE
8
BLACK
6
CONTINUOUS
10
159.902
20
-77.6898
11
159.907
21
-77.6875
0
LINE
8
BLACK
6
CONTINUOUS
10
159.907
20
-77.6875
11
160.071
21
-77.5725
0
LINE
8
BLACK
6
CONTINUOUS
10
160.071
20
-77.5725
11
160.09
21
-77.5594
0
LINE
8
BLACK
6
CONTINUOUS
10
160.09
20
-77.5594
11
160.09
21
-77.5594
0
LINE
8
BLACK
6
CONTINUOUS
10
160.09
20
-77.5594
11
160.094
21
-77.5562
0
LINE
8
BLACK
6
CONTINUOUS
10
160.094
20
-77.5562
11
160.256
21
-77.3943
0
LINE
8
BLACK
6
CONTINUOUS
10
160.256
20
-77.3943
11
160.268
21
-77.3773
0
LINE
8
BLACK
6
CONTINUOUS
10
160.268
20
-77.3773
11
160.319
21
-77.3053
0
LINE
8
BLACK
6
CONTINUOUS
10
160.319
20
-77.3053
11
160.388
21
-77.2067
0
LINE
8
BLACK
6
CONTINUOUS
10
160.388
20
-77.2067
11
160.39
21
-77.2018
0
LINE
8
BLACK
6
CONTINUOUS
10
160.39
20
-77.2018
11
160.39
21
-77.2018
0
LINE
8
BLACK
6
CONTINUOUS
10
160.39
20
-77.2018
11
160.406
21
-77.1675
0
LINE
8
BLACK
6
CONTINUOUS
10
160.406
20
-77.1675
11
160.453
21
-77.1143
0
LINE
8
BLACK
6
CONTINUOUS
10
160.453
20
-77.1143
11
160.521
21
-77.0948
0
LINE
8
BLACK
6
CONTINUOUS
10
160.521
20
-77.0948
11
160.589
21
-77.1153
0
LINE
8
BLACK
6
CONTINUOUS
10
160.589
20
-77.1153
11
160.634
21
-77.1675
0
LINE
8
BLACK
6
CONTINUOUS
10
160.634
20
-77.1675
11
160.65
21
-77.2018
0
LINE
8
BLACK
6
CONTINUOUS
10
160.65
20
-77.2018
11
160.65
21
-77.2018
0
LINE
8
BLACK
6
CONTINUOUS
10
160.65
20
-77.2018
11
160.652
21
-77.2067
0
LINE
8
BLACK
6
CONTINUOUS
10
160.652
20
-77.2067
11
160.721
21
-77.3053
0
LINE
8
BLACK
6
CONTINUOUS
10
160.721
20
-77.3053
11
160.772
21
-77.3773
0
LINE
8
BLACK
6
CONTINUOUS
10
160.772
20
-77.3773
11
160.784
21
-77.3943
0
LINE
8
BLACK
6
CONTINUOUS
10
160.784
20
-77.3943
11
160.946
21
-77.5562
0
LINE
8
BLACK
6
CONTINUOUS
10
160.946
20
-77.5562
11
160.95
21
-77.5594
0
LINE
8
BLACK
6
CONTINUOUS
10
160.95
20
-77.5594
11
160.95
21
-77.5594
0
LINE
8
BLACK
6
CONTINUOUS
10
160.95
20
-77.5594
11
160.969
21
-77.5725
0
LINE
8
BLACK
6
CONTINUOUS
10
160.969
20
-77.5725
11
161.133
21
-77.6875
0
LINE
8
BLACK
6
CONTINUOUS
10
161.133
20
-77.6875
11
161.138
21
-77.6898
0
LINE
8
BLACK
6
CONTINUOUS
10
161.138
20
-77.6898
11
161.138
21
-77.6898
0
LINE
8
BLACK
6
CONTINUOUS
10
161.138
20
-77.6898
11
161.336
21
-77.782
0
LINE
8
BLACK
6
CONTINUOUS
10
161.336
20
-77.782
11
161.341
21
-77.7843
0
LINE
8
BLACK
6
CONTINUOUS
10
161.341
20
-77.7843
11
161.346
21
-77.7857
0
LINE
8
BLACK
6
CONTINUOUS
10
161.346
20
-77.7857
11
161.346
21
-77.7857
0
LINE
8
BLACK
6
CONTINUOUS
10
161.346
20
-77.7857
11
161.557
21
-77.8421
0
LINE
8
BLACK
6
CONTINUOUS
10
161.557
20
-77.8421
11
161.557
21
-77.8421
0
LINE
8
BLACK
6
CONTINUOUS
10
161.557
20
-77.8421
11
161.562
21
-77.8435
0
LINE
8
BLACK
6
CONTINUOUS
10
161.562
20
-77.8435
11
161.79
21
-77.8635
0
LINE
8
BLACK
6
CONTINUOUS
10
161.79
20
-77.8635
11
162.018
21
-77.8435
0
LINE
8
BLACK
6
CONTINUOUS
10
162.018
20
-77.8435
11
162.023
21
-77.8421
0
LINE
8
BLACK
6
CONTINUOUS
10
162.023
20
-77.8421
11
162.023
21
-77.8421
0
LINE
8
BLACK
6
CONTINUOUS
10
162.023
20
-77.8421
11
162.234
21
-77.7857
0
LINE
8
BLACK
6
CONTINUOUS
10
162.234
20
-77.7857
11
162.234
21
-77.7857
0
LINE
8
BLACK
6
CONTINUOUS
10
162.234
20
-77.7857
11
162.239
21
-77.7843
0
LINE
8
BLACK
6
CONTINUOUS
10
162.239
20
-77.7843
11
162.244
21
-77.782
0
LINE
8
BLACK
6
CONTINUOUS
10
162.244
20
-77.782
11
162.442
21
-77.6898
0
LINE
8
BLACK
6
CONTINUOUS
10
162.442
20
-77.6898
11
162.442
21
-77.6898
0
LINE
8
BLACK
6
CONTINUOUS
10
162.442
20
-77.6898
11
162.447
21
-77.6875
0
LINE
8
BLACK
6
CONTINUOUS
10
162.447
20
-77.6875
11
162.611
21
-77.5725
0
LINE
8
BLACK
6
CONTINUOUS
10
162.611
20
-77.5725
11
162.63
21
-77.5594
0
LINE
8
BLACK
6
CONTINUOUS
10
162.63
20
-77.5594
11
162.63
21
-77.5594
0
LINE
8
BLACK
6
CONTINUOUS
10
162.63
20
-77.5594
11
162.634
21
-77.5562
0
LINE
8
BLACK
6
CONTINUOUS
10
162.634
20
-77.5562
11
162.796
21
-77.3943
0
LINE
8
BLACK
6
CONTINUOUS
10
162.796
20
-77.3943
11
162.808
21
-77.3773
0
LINE
8
BLACK
6
CONTINUOUS
10
162.808
20
-77.3773
11
162.859
21
-77.3053
0
LINE
8
BLACK
6
CONTINUOUS
10
162.859
20
-77.3053
11
162.928
21
-77.2067
0
LINE
8
BLACK
6
CONTINUOUS
10
162.928
20
-77.2067
11
162.93
21
-77.2018
0
LINE
8
BLACK
6
CONTINUOUS
10
162.93
20
-77.2018
11
162.93
21
-77.2018
0
LINE
8
BLACK
6
CONTINUOUS
10
162.93
20
-77.2018
11
163.022
21
-77.0042
0
LINE
8
BLACK
6
CONTINUOUS
10
163.022
20
-77.0042
11
163.022
21
-77.0042
0
LINE
8
BLACK
6
CONTINUOUS
10
163.022
20
-77.0042
11
163.024
21
-76.9992
0
LINE
8
BLACK
6
CONTINUOUS
10
163.024
20
-76.9992
11
163.059
21
-76.8709
0
LINE
8
BLACK
6
CONTINUOUS
10
163.059
20
-76.8709
11
163.082
21
-76.7834
0
LINE
8
BLACK
6
CONTINUOUS
10
163.082
20
-76.7834
11
163.082
21
-76.7834
0
LINE
8
BLACK
6
CONTINUOUS
10
163.082
20
-76.7834
11
163.084
21
-76.7781
0
LINE
8
BLACK
6
CONTINUOUS
10
163.084
20
-76.7781
11
163.103
21
-76.55
0
LINE
8
BLACK
6
CONTINUOUS
10
163.103
20
-76.55
11
163.084
21
-76.3219
0
LINE
8
BLACK
6
CONTINUOUS
10
163.084
20
-76.3219
11
163.079
21
-76.3052
0
LINE
8
BLACK
6
CONTINUOUS
10
163.079
20
-76.3052
11
163.026
21
-76.1061
0
LINE
8
BLACK
6
CONTINUOUS
10
163.026
20
-76.1061
11
163.026
21
-76.1061
0
LINE
8
BLACK
6
CONTINUOUS
10
163.026
20
-76.1061
11
163.024
21
-76.1008
0
LINE
8
BLACK
6
CONTINUOUS
10
163.024
20
-76.1008
11
163.021
21
-76.0929
0
LINE
8
BLACK
6
CONTINUOUS
10
163.021
20
-76.0929
11
162.93
21
-75.8982
0
LINE
8
BLACK
6
CONTINUOUS
10
162.93
20
-75.8982
11
162.93
21
-75.8982
0
LINE
8
BLACK
6
CONTINUOUS
10
162.93
20
-75.8982
11
162.928
21
-75.8933
0
LINE
8
BLACK
6
CONTINUOUS
10
162.928
20
-75.8933
11
162.796
21
-75.7057
0
LINE
8
BLACK
6
CONTINUOUS
10
162.796
20
-75.7057
11
162.634
21
-75.5438
0
LINE
8
BLACK
6
CONTINUOUS
10
162.634
20
-75.5438
11
162.63
21
-75.5406
0
LINE
8
BLACK
6
CONTINUOUS
10
162.63
20
-75.5406
11
162.63
21
-75.5406
0
LINE
8
BLACK
6
CONTINUOUS
10
162.63
20
-75.5406
11
162.53
21
-75.4711
0
LINE
8
BLACK
6
CONTINUOUS
10
162.53
20
-75.4711
11
162.447
21
-75.4125
0
LINE
8
BLACK
6
CONTINUOUS
10
162.447
20
-75.4125
11
162.442
21
-75.4102
0
LINE
8
BLACK
6
CONTINUOUS
10
162.442
20
-75.4102
11
162.442
21
-75.4102
0
LINE
8
BLACK
6
CONTINUOUS
10
162.442
20
-75.4102
11
162.244
21
-75.318
0
LINE
8
BLACK
6
CONTINUOUS
10
162.244
20
-75.318
11
162.244
21
-75.318
0
LINE
8
BLACK
6
CONTINUOUS
10
162.244
20
-75.318
11
162.239
21
-75.3157
0
LINE
8
BLACK
6
CONTINUOUS
10
162.239
20
-75.3157
11
162.162
21
-75.2951
0
LINE
8
BLACK
6
CONTINUOUS
10
162.162
20
-75.2951
11
162.074
21
-75.2714
0
LINE
8
BLACK
6
CONTINUOUS
10
162.074
20
-75.2714
11
162.013
21
-75.2345
0
LINE
8
BLACK
6
CONTINUOUS
10
162.013
20
-75.2345
11
161.982
21
-75.1706
0
LINE
8
BLACK
6
CONTINUOUS
10
161.982
20
-75.1706
11
161.991
21
-75.1001
0
LINE
8
BLACK
6
CONTINUOUS
10
161.991
20
-75.1001
11
162.036
21
-75.0454
0
LINE
8
BLACK
6
CONTINUOUS
10
162.036
20
-75.0454
11
162.074
21
-75.028
0
LINE
8
BLACK
6
CONTINUOUS
10
162.074
20
-75.028
11
162.234
21
-74.9852
0
LINE
8
BLACK
6
CONTINUOUS
10
162.234
20
-74.9852
11
162.244
21
-74.9815
0
LINE
8
BLACK
6
CONTINUOUS
10
162.244
20
-74.9815
11
162.442
21
-74.8894
0
LINE
8
BLACK
6
CONTINUOUS
10
162.442
20
-74.8894
11
162.451
21
-74.8839
0
LINE
8
BLACK
6
CONTINUOUS
10
162.451
20
-74.8839
11
162.503
21
-74.8475
0
LINE
8
BLACK
6
CONTINUOUS
10
162.503
20
-74.8475
11
162.511
21
-74.837
0
LINE
8
BLACK
6
CONTINUOUS
10
162.511
20
-74.837
11
162.504
21
-74.8236
0
LINE
8
BLACK
6
CONTINUOUS
10
162.504
20
-74.8236
11
162.145
21
-74.464
0
LINE
8
BLACK
6
CONTINUOUS
10
162.145
20
-74.464
11
162.12
21
-74.4785
0
LINE
8
BLACK
6
CONTINUOUS
10
162.12
20
-74.4785
11
161.951
21
-74.5337
0
LINE
8
BLACK
6
CONTINUOUS
10
161.951
20
-74.5337
11
161.773
21
-74.5498
0
LINE
8
BLACK
6
CONTINUOUS
10
161.773
20
-74.5498
11
161.596
21
-74.5262
0
LINE
8
BLACK
6
CONTINUOUS
10
161.596
20
-74.5262
11
161.434
21
-74.4657
0
LINE
8
BLACK
6
CONTINUOUS
10
161.434
20
-74.4657
11
161.075
21
-74.8243
0
LINE
8
BLACK
6
CONTINUOUS
10
161.075
20
-74.8243
11
161.068
21
-74.8361
0
LINE
8
BLACK
6
CONTINUOUS
10
161.068
20
-74.8361
11
161.078
21
-74.8481
0
LINE
8
BLACK
6
CONTINUOUS
10
161.078
20
-74.8481
11
161.129
21
-74.8839
0
LINE
8
BLACK
6
CONTINUOUS
10
161.129
20
-74.8839
11
161.138
21
-74.8894
0
LINE
8
BLACK
6
CONTINUOUS
10
161.138
20
-74.8894
11
161.336
21
-74.9815
0
LINE
8
BLACK
6
CONTINUOUS
10
161.336
20
-74.9815
11
161.346
21
-74.9852
0
LINE
8
BLACK
6
CONTINUOUS
10
161.346
20
-74.9852
11
161.506
21
-75.028
0
LINE
8
BLACK
6
CONTINUOUS
10
161.506
20
-75.028
11
161.567
21
-75.065
0
LINE
8
BLACK
6
CONTINUOUS
10
161.567
20
-75.065
11
161.598
21
-75.1288
0
LINE
8
BLACK
6
CONTINUOUS
10
161.598
20
-75.1288
11
161.589
21
-75.1993
0
LINE
8
BLACK
6
CONTINUOUS
10
161.589
20
-75.1993
11
161.544
21
-75.2541
0
LINE
8
BLACK
6
CONTINUOUS
10
161.544
20
-75.2541
11
161.506
21
-75.2714
0
LINE
8
BLACK
6
CONTINUOUS
10
161.506
20
-75.2714
11
161.418
21
-75.2951
0
LINE
8
BLACK
6
CONTINUOUS
10
161.418
20
-75.2951
11
161.341
21
-75.3157
0
LINE
8
BLACK
6
CONTINUOUS
10
161.341
20
-75.3157
11
161.336
21
-75.318
0
LINE
8
BLACK
6
CONTINUOUS
10
161.336
20
-75.318
11
161.336
21
-75.318
0
LINE
8
BLACK
6
CONTINUOUS
10
161.336
20
-75.318
11
161.138
21
-75.4102
0
LINE
8
BLACK
6
CONTINUOUS
10
161.138
20
-75.4102
11
161.138
21
-75.4102
0
LINE
8
BLACK
6
CONTINUOUS
10
161.138
20
-75.4102
11
161.133
21
-75.4125
0
LINE
8
BLACK
6
CONTINUOUS
10
161.133
20
-75.4125
11
161.05
21
-75.4711
0
LINE
8
BLACK
6
CONTINUOUS
10
161.05
20
-75.4711
11
160.95
21
-75.5406
0
LINE
8
BLACK
6
CONTINUOUS
10
160.95
20
-75.5406
11
160.95
21
-75.5406
0
LINE
8
BLACK
6
CONTINUOUS
10
160.95
20
-75.5406
11
160.946
21
-75.5438
0
LINE
8
BLACK
6
CONTINUOUS
10
160.946
20
-75.5438
11
160.784
21
-75.7057
0
LINE
8
BLACK
6
CONTINUOUS
10
160.784
20
-75.7057
11
160.652
21
-75.8933
0
LINE
8
BLACK
6
CONTINUOUS
10
160.652
20
-75.8933
11
160.65
21
-75.8982
0
LINE
8
BLACK
6
CONTINUOUS
10
160.65
20
-75.8982
11
160.65
21
-75.8982
0
LINE
8
BLACK
6
CONTINUOUS
10
160.65
20
-75.8982
11
160.634
21
-75.9325
0
LINE
8
BLACK
6
CONTINUOUS
10
160.634
20
-75.9325
11
160.587
21
-75.9857
0
LINE
8
BLACK
6
CONTINUOUS
10
160.587
20
-75.9857
11
160.519
21
-76.0052
0
LINE
8
BLACK
6
CONTINUOUS
10
160.519
20
-76.0052
11
160.451
21
-75.9847
0
LINE
8
BLACK
6
CONTINUOUS
10
160.451
20
-75.9847
11
160.406
21
-75.9325
0
LINE
8
BLACK
6
CONTINUOUS
10
160.406
20
-75.9325
11
160.39
21
-75.8982
0
LINE
8
BLACK
6
CONTINUOUS
10
160.39
20
-75.8982
11
160.39
21
-75.8982
0
LINE
8
BLACK
6
CONTINUOUS
10
160.39
20
-75.8982
11
160.388
21
-75.8933
0
LINE
8
BLACK
6
CONTINUOUS
10
160.388
20
-75.8933
11
160.256
21
-75.7057
0
LINE
8
BLACK
6
CONTINUOUS
10
160.256
20
-75.7057
11
160.094
21
-75.5438
0
LINE
8
BLACK
6
CONTINUOUS
10
160.094
20
-75.5438
11
160.09
21
-75.5406
0
LINE
8
BLACK
6
CONTINUOUS
10
160.09
20
-75.5406
11
160.09
21
-75.5406
0
LINE
8
BLACK
6
CONTINUOUS
10
160.09
20
-75.5406
11
159.99
21
-75.4711
0
LINE
8
BLACK
6
CONTINUOUS
10
159.99
20
-75.4711
11
159.907
21
-75.4125
0
LINE
8
BLACK
6
CONTINUOUS
10
159.907
20
-75.4125
11
159.902
21
-75.4102
0
LINE
8
BLACK
6
CONTINUOUS
10
159.902
20
-75.4102
11
159.902
21
-75.4102
0
LINE
8
BLACK
6
CONTINUOUS
10
159.902
20
-75.4102
11
159.704
21
-75.318
0
LINE
8
BLACK
6
CONTINUOUS
10
159.704
20
-75.318
11
159.704
21
-75.318
0
LINE
8
BLACK
6
CONTINUOUS
10
159.704
20
-75.318
11
159.699
21
-75.3157
0
LINE
8
BLACK
6
CONTINUOUS
10
159.699
20
-75.3157
11
159.694
21
-75.3143
0
LINE
8
BLACK
6
CONTINUOUS
10
159.694
20
-75.3143
11
159.694
21
-75.3143
0
LINE
8
BLACK
6
CONTINUOUS
10
159.694
20
-75.3143
11
159.664
21
-75.3062
0
LINE
8
BLACK
6
CONTINUOUS
10
159.664
20
-75.3062
11
159.603
21
-75.2693
0
LINE
8
BLACK
6
CONTINUOUS
10
159.603
20
-75.2693
11
159.572
21
-75.2054
0
LINE
8
BLACK
6
CONTINUOUS
10
159.572
20
-75.2054
11
159.581
21
-75.1349
0
LINE
8
BLACK
6
CONTINUOUS
10
159.581
20
-75.1349
11
159.626
21
-75.0802
0
LINE
8
BLACK
6
CONTINUOUS
10
159.626
20
-75.0802
11
159.696
21
-75.0585
0
LINE
8
BLACK
6
CONTINUOUS
10
159.696
20
-75.0585
11
159.851
21
-75.0585
0
LINE
8
BLACK
6
CONTINUOUS
10
159.851
20
-75.0585
11
159.854
21
-75.0582
0
LINE
8
BLACK
6
CONTINUOUS
10
159.854
20
-75.0582
11
159.854
21
-75.0582
0
LINE
8
BLACK
6
CONTINUOUS
10
159.854
20
-75.0582
11
159.9
21
-75.0534
0
LINE
8
BLACK
6
CONTINUOUS
10
159.9
20
-75.0534
11
159.956
21
-75.0475
0
LINE
8
BLACK
6
CONTINUOUS
10
159.956
20
-75.0475
11
160.124
21
-74.9916
0
LINE
8
BLACK
6
CONTINUOUS
10
160.124
20
-74.9916
11
160.274
21
-74.8986
0
LINE
8
BLACK
6
CONTINUOUS
10
160.274
20
-74.8986
11
160.399
21
-74.7735
0
LINE
8
BLACK
6
CONTINUOUS
10
160.399
20
-74.7735
11
160.492
21
-74.623
0
LINE
8
BLACK
6
CONTINUOUS
10
160.492
20
-74.623
11
160.515
21
-74.5538
0
LINE
8
BLACK
6
CONTINUOUS
10
160.515
20
-74.5538
11
160.519
21
-74.5417
0
LINE
8
BLACK
6
CONTINUOUS
10
160.519
20
-74.5417
11
160.56
21
-74.4833
0
LINE
8
BLACK
6
CONTINUOUS
10
160.56
20
-74.4833
11
160.625
21
-74.4561
0
LINE
8
BLACK
6
CONTINUOUS
10
160.625
20
-74.4561
11
160.695
21
-74.4686
0
LINE
8
BLACK
6
CONTINUOUS
10
160.695
20
-74.4686
11
160.701
21
-74.4725
0
LINE
8
BLACK
6
CONTINUOUS
10
160.701
20
-74.4725
11
160.716
21
-74.4644
0
LINE
8
BLACK
6
CONTINUOUS
10
160.716
20
-74.4644
11
161.076
21
-74.1051
0
LINE
8
BLACK
6
CONTINUOUS
10
161.076
20
-74.1051
11
161.064
21
-74.0856
0
LINE
8
BLACK
6
CONTINUOUS
10
161.064
20
-74.0856
11
161.007
21
-73.9163
0
LINE
8
BLACK
6
CONTINUOUS
10
161.007
20
-73.9163
11
160.99
21
-73.7388
0
LINE
8
BLACK
6
CONTINUOUS
10
160.99
20
-73.7388
11
161.012
21
-73.5619
0
LINE
8
BLACK
6
CONTINUOUS
10
161.012
20
-73.5619
11
161.073
21
-73.3943
0
LINE
8
BLACK
6
CONTINUOUS
10
161.073
20
-73.3943
11
161.074
21
-73.3933
0
LINE
8
BLACK
6
CONTINUOUS
10
161.074
20
-73.3933
11
160.716
21
-73.0349
0
LINE
8
BLACK
6
CONTINUOUS
10
160.716
20
-73.0349
11
160.702
21
-73.0273
0
LINE
8
BLACK
6
CONTINUOUS
10
160.702
20
-73.0273
11
160.694
21
-73.0279
0
LINE
8
BLACK
6
CONTINUOUS
10
160.694
20
-73.0279
11
160.65
21
-73.045
0
LINE
8
BLACK
6
CONTINUOUS
10
160.65
20
-73.045
11
160.58
21
-73.031
0
LINE
8
BLACK
6
CONTINUOUS
10
160.58
20
-73.031
11
160.529
21
-72.9816
0
LINE
8
BLACK
6
CONTINUOUS
10
160.529
20
-72.9816
11
160.519
21
-72.9593
0
LINE
8
BLACK
6
CONTINUOUS
10
160.519
20
-72.9593
11
160.494
21
-72.8828
0
LINE
8
BLACK
6
CONTINUOUS
10
160.494
20
-72.8828
11
160.494
21
-72.8828
0
LINE
8
BLACK
6
CONTINUOUS
10
160.494
20
-72.8828
11
160.492
21
-72.8758
0
LINE
8
BLACK
6
CONTINUOUS
10
160.492
20
-72.8758
11
160.399
21
-72.7255
0
LINE
8
BLACK
6
CONTINUOUS
10
160.399
20
-72.7255
11
160.336
21
-72.663
0
LINE
8
BLACK
6
CONTINUOUS
10
160.336
20
-72.663
11
160.273
21
-72.6006
0
LINE
8
BLACK
6
CONTINUOUS
10
160.273
20
-72.6006
11
160.123
21
-72.5079
0
LINE
8
BLACK
6
CONTINUOUS
10
160.123
20
-72.5079
11
159.969
21
-72.4568
0
LINE
8
BLACK
6
CONTINUOUS
10
159.969
20
-72.4568
11
159.962
21
-72.4544
0
LINE
8
BLACK
6
CONTINUOUS
10
159.962
20
-72.4544
11
159.962
21
-72.4544
0
LINE
8
BLACK
6
CONTINUOUS
10
159.962
20
-72.4544
11
159.955
21
-72.4522
0
LINE
8
BLACK
6
CONTINUOUS
10
159.955
20
-72.4522
11
159.851
21
-72.4415
0
LINE
8
BLACK
6
CONTINUOUS
10
159.851
20
-72.4415
11
159.255
21
-72.4415
0
LINE
8
BLACK
6
CONTINUOUS
10
159.255
20
-72.4415
11
158.649
21
-72.4415
0
LINE
8
BLACK
6
CONTINUOUS
10
158.649
20
-72.4415
11
158.646
21
-72.4418
0
LINE
8
BLACK
6
CONTINUOUS
10
158.646
20
-72.4418
11
158.646
21
-72.4418
0
LINE
8
BLACK
6
CONTINUOUS
10
158.646
20
-72.4418
11
158.6
21
-72.4466
0
LINE
8
BLACK
6
CONTINUOUS
10
158.6
20
-72.4466
11
158.544
21
-72.4525
0
LINE
8
BLACK
6
CONTINUOUS
10
158.544
20
-72.4525
11
158.376
21
-72.5084
0
LINE
8
BLACK
6
CONTINUOUS
10
158.376
20
-72.5084
11
158.226
21
-72.6014
0
LINE
8
BLACK
6
CONTINUOUS
10
158.226
20
-72.6014
11
158.22
21
-72.6066
0
LINE
8
BLACK
6
CONTINUOUS
10
158.22
20
-72.6066
11
158.201
21
-72.6255
0
LINE
8
BLACK
6
CONTINUOUS
10
158.201
20
-72.6255
11
158.101
21
-72.7265
0
LINE
8
BLACK
6
CONTINUOUS
10
158.101
20
-72.7265
11
158.008
21
-72.877
0
LINE
8
BLACK
6
CONTINUOUS
10
158.008
20
-72.877
11
158.006
21
-72.884
0
LINE
8
BLACK
6
CONTINUOUS
10
158.006
20
-72.884
11
158.006
21
-72.884
0
LINE
8
BLACK
6
CONTINUOUS
10
158.006
20
-72.884
11
157.955
21
-73.037
0
LINE
8
BLACK
6
CONTINUOUS
10
157.955
20
-73.037
11
157.952
21
-73.0448
0
LINE
8
BLACK
6
CONTINUOUS
10
157.952
20
-73.0448
11
157.941
21
-73.1492
0
LINE
8
BLACK
6
CONTINUOUS
10
157.941
20
-73.1492
11
157.942
21
-74.3508
0
LINE
8
BLACK
6
CONTINUOUS
10
157.942
20
-74.3508
11
157.952
21
-74.4565
0
LINE
8
BLACK
6
CONTINUOUS
10
157.952
20
-74.4565
11
158.008
21
-74.6242
0
LINE
8
BLACK
6
CONTINUOUS
10
158.008
20
-74.6242
11
158.101
21
-74.7745
0
LINE
8
BLACK
6
CONTINUOUS
10
158.101
20
-74.7745
11
158.227
21
-74.8994
0
LINE
8
BLACK
6
CONTINUOUS
10
158.227
20
-74.8994
11
158.377
21
-74.9921
0
LINE
8
BLACK
6
CONTINUOUS
10
158.377
20
-74.9921
11
158.384
21
-74.9945
0
LINE
8
BLACK
6
CONTINUOUS
10
158.384
20
-74.9945
11
158.384
21
-74.9945
0
LINE
8
BLACK
6
CONTINUOUS
10
158.384
20
-74.9945
11
158.538
21
-75.0456
0
LINE
8
BLACK
6
CONTINUOUS
10
158.538
20
-75.0456
11
158.538
21
-75.0456
0
LINE
8
BLACK
6
CONTINUOUS
10
158.538
20
-75.0456
11
158.545
21
-75.0478
0
LINE
8
BLACK
6
CONTINUOUS
10
158.545
20
-75.0478
11
158.649
21
-75.0585
0
LINE
8
BLACK
6
CONTINUOUS
10
158.649
20
-75.0585
11
158.804
21
-75.0585
0
LINE
8
BLACK
6
CONTINUOUS
10
158.804
20
-75.0585
11
158.872
21
-75.0785
0
LINE
8
BLACK
6
CONTINUOUS
10
158.872
20
-75.0785
11
158.918
21
-75.1322
0
LINE
8
BLACK
6
CONTINUOUS
10
158.918
20
-75.1322
11
158.928
21
-75.2024
0
LINE
8
BLACK
6
CONTINUOUS
10
158.928
20
-75.2024
11
158.899
21
-75.267
0
LINE
8
BLACK
6
CONTINUOUS
10
158.899
20
-75.267
11
158.836
21
-75.3062
0
LINE
8
BLACK
6
CONTINUOUS
10
158.836
20
-75.3062
11
158.806
21
-75.3143
0
LINE
8
BLACK
6
CONTINUOUS
10
158.806
20
-75.3143
11
158.806
21
-75.3143
0
LINE
8
BLACK
6
CONTINUOUS
10
158.806
20
-75.3143
11
158.801
21
-75.3157
0
LINE
8
BLACK
6
CONTINUOUS
10
158.801
20
-75.3157
11
158.796
21
-75.318
0
LINE
8
BLACK
6
CONTINUOUS
10
158.796
20
-75.318
11
158.796
21
-75.318
0
LINE
8
BLACK
6
CONTINUOUS
10
158.796
20
-75.318
11
158.598
21
-75.4102
0
LINE
8
BLACK
6
CONTINUOUS
10
158.598
20
-75.4102
11
158.598
21
-75.4102
0
LINE
8
BLACK
6
CONTINUOUS
10
158.598
20
-75.4102
11
158.593
21
-75.4125
0
LINE
8
BLACK
6
CONTINUOUS
10
158.593
20
-75.4125
11
158.51
21
-75.4711
0
LINE
8
BLACK
6
CONTINUOUS
10
158.51
20
-75.4711
11
158.41
21
-75.5406
0
LINE
8
BLACK
6
CONTINUOUS
10
158.41
20
-75.5406
11
158.41
21
-75.5406
0
LINE
8
BLACK
6
CONTINUOUS
10
158.41
20
-75.5406
11
158.406
21
-75.5438
0
LINE
8
BLACK
6
CONTINUOUS
10
158.406
20
-75.5438
11
158.244
21
-75.7057
0
LINE
8
BLACK
6
CONTINUOUS
10
158.244
20
-75.7057
11
158.241
21
-75.7102
0
LINE
8
BLACK
6
CONTINUOUS
10
158.241
20
-75.7102
11
158.241
21
-75.7102
0
LINE
8
BLACK
6
CONTINUOUS
10
158.241
20
-75.7102
11
158.134
21
-75.8628
0
LINE
8
BLACK
6
CONTINUOUS
10
158.134
20
-75.8628
11
158.078
21
-75.9071
0
LINE
8
BLACK
6
CONTINUOUS
10
158.078
20
-75.9071
11
158.031
21
-75.9165
0
LINE
8
BLACK
6
CONTINUOUS
10
158.031
20
-75.9165
11
156.329
21
-75.9165
0
LINE
8
BLACK
6
CONTINUOUS
10
156.329
20
-75.9165
11
156.318
21
-75.916
0
LINE
8
BLACK
6
CONTINUOUS
10
156.318
20
-75.916
11
156.31
21
-75.9143
0
LINE
8
BLACK
6
CONTINUOUS
10
156.31
20
-75.9143
11
156.302
21
-75.9145
0
LINE
8
BLACK
6
CONTINUOUS
10
156.302
20
-75.9145
11
156.302
21
-75.9145
0
LINE
8
BLACK
6
CONTINUOUS
10
156.302
20
-75.9145
11
156.242
21
-75.9164
0
LINE
8
BLACK
6
CONTINUOUS
10
156.242
20
-75.9164
11
156.238
21
-75.9165
0
LINE
8
BLACK
6
CONTINUOUS
10
156.238
20
-75.9165
11
156.21
21
-75.9165
0
LINE
8
BLACK
6
CONTINUOUS
10
156.21
20
-75.9165
11
156.206
21
-75.917
0
LINE
8
BLACK
6
CONTINUOUS
10
156.206
20
-75.917
11
156.206
21
-75.917
0
LINE
8
BLACK
6
CONTINUOUS
10
156.206
20
-75.917
11
156.206
21
-75.917
0
LINE
8
BLACK
6
CONTINUOUS
10
156.206
20
-75.917
11
156.194
21
-75.9179
0
LINE
8
BLACK
6
CONTINUOUS
10
156.194
20
-75.9179
11
156.162
21
-75.9189
0
LINE
8
BLACK
6
CONTINUOUS
10
156.162
20
-75.9189
11
156.158
21
-75.9191
0
LINE
8
BLACK
6
CONTINUOUS
10
156.158
20
-75.9191
11
156.15
21
-75.9193
0
LINE
8
BLACK
6
CONTINUOUS
10
156.15
20
-75.9193
11
156.132
21
-75.9245
0
LINE
8
BLACK
6
CONTINUOUS
10
156.132
20
-75.9245
11
156.131
21
-75.925
0
LINE
8
BLACK
6
CONTINUOUS
10
156.131
20
-75.925
11
156.111
21
-75.929
0
LINE
8
BLACK
6
CONTINUOUS
10
156.111
20
-75.929
11
156.104
21
-75.9299
0
LINE
8
BLACK
6
CONTINUOUS
10
156.104
20
-75.9299
11
156.091
21
-75.9315
0
LINE
8
BLACK
6
CONTINUOUS
10
156.091
20
-75.9315
11
156.084
21
-75.9344
0
LINE
8
BLACK
6
CONTINUOUS
10
156.084
20
-75.9344
11
156.084
21
-75.9344
0
LINE
8
BLACK
6
CONTINUOUS
10
156.084
20
-75.9344
11
156.05
21
-75.9478
0
LINE
8
BLACK
6
CONTINUOUS
10
156.05
20
-75.9478
11
156.039
21
-75.9516
0
LINE
8
BLACK
6
CONTINUOUS
10
156.039
20
-75.9516
11
155.996
21
-75.964
0
LINE
8
BLACK
6
CONTINUOUS
10
155.996
20
-75.964
11
155.99
21
-75.968
0
LINE
8
BLACK
6
CONTINUOUS
10
155.99
20
-75.968
11
155.99
21
-75.968
0
LINE
8
BLACK
6
CONTINUOUS
10
155.99
20
-75.968
11
155.979
21
-75.9743
0
LINE
8
BLACK
6
CONTINUOUS
10
155.979
20
-75.9743
11
155.961
21
-75.983
0
LINE
8
BLACK
6
CONTINUOUS
10
155.961
20
-75.983
11
155.95
21
-75.9875
0
LINE
8
BLACK
6
CONTINUOUS
10
155.95
20
-75.9875
11
155.95
21
-75.9875
0
LINE
8
BLACK
6
CONTINUOUS
10
155.95
20
-75.9875
11
155.942
21
-75.9904
0
LINE
8
BLACK
6
CONTINUOUS
10
155.942
20
-75.9904
11
155.936
21
-75.9951
0
LINE
8
BLACK
6
CONTINUOUS
10
155.936
20
-75.9951
11
155.907
21
-76.0164
0
LINE
8
BLACK
6
CONTINUOUS
10
155.907
20
-76.0164
11
155.897
21
-76.0229
0
LINE
8
BLACK
6
CONTINUOUS
10
155.897
20
-76.0229
11
155.878
21
-76.034
0
LINE
8
BLACK
6
CONTINUOUS
10
155.878
20
-76.034
11
155.859
21
-76.0455
0
LINE
8
BLACK
6
CONTINUOUS
10
155.859
20
-76.0455
11
155.844
21
-76.0598
0
LINE
8
BLACK
6
CONTINUOUS
10
155.844
20
-76.0598
11
155.829
21
-76.0726
0
LINE
8
BLACK
6
CONTINUOUS
10
155.829
20
-76.0726
11
155.813
21
-76.0845
0
LINE
8
BLACK
6
CONTINUOUS
10
155.813
20
-76.0845
11
155.785
21
-76.1186
0
LINE
8
BLACK
6
CONTINUOUS
10
155.785
20
-76.1186
11
155.777
21
-76.1274
0
LINE
8
BLACK
6
CONTINUOUS
10
155.777
20
-76.1274
11
155.054
21
-76.8496
0
LINE
8
BLACK
6
CONTINUOUS
10
155.054
20
-76.8496
11
154.992
21
-76.8836
0
LINE
8
BLACK
6
CONTINUOUS
10
154.992
20
-76.8836
11
154.965
21
-76.8865
0
LINE
8
BLACK
6
CONTINUOUS
10
154.965
20
-76.8865
11
154.385
21
-76.8865
0
LINE
8
BLACK
6
CONTINUOUS
10
154.385
20
-76.8865
11
154.316
21
-76.8665
0
LINE
8
BLACK
6
CONTINUOUS
10
154.316
20
-76.8665
11
154.27
21
-76.8128
0
LINE
8
BLACK
6
CONTINUOUS
10
154.27
20
-76.8128
11
154.258
21
-76.7605
0
LINE
8
BLACK
6
CONTINUOUS
10
154.258
20
-76.7605
11
154.258
21
-75.6769
0
LINE
8
BLACK
6
CONTINUOUS
10
154.258
20
-75.6769
11
154.252
21
-75.6147
0
LINE
8
BLACK
6
CONTINUOUS
10
154.252
20
-75.6147
11
154.201
21
-75.4783
0
LINE
8
BLACK
6
CONTINUOUS
10
154.201
20
-75.4783
11
154.113
21
-75.3617
0
LINE
8
BLACK
6
CONTINUOUS
10
154.113
20
-75.3617
11
153.997
21
-75.2744
0
LINE
8
BLACK
6
CONTINUOUS
10
153.997
20
-75.2744
11
153.86
21
-75.2233
0
LINE
8
BLACK
6
CONTINUOUS
10
153.86
20
-75.2233
11
153.798
21
-75.2165
0
LINE
8
BLACK
6
CONTINUOUS
10
153.798
20
-75.2165
11
152.202
21
-75.2165
0
LINE
8
BLACK
6
CONTINUOUS
10
152.202
20
-75.2165
11
152.14
21
-75.2233
0
LINE
8
BLACK
6
CONTINUOUS
10
152.14
20
-75.2233
11
152.003
21
-75.2744
0
LINE
8
BLACK
6
CONTINUOUS
10
152.003
20
-75.2744
11
151.887
21
-75.3617
0
LINE
8
BLACK
6
CONTINUOUS
10
151.887
20
-75.3617
11
151.799
21
-75.4783
0
LINE
8
BLACK
6
CONTINUOUS
10
151.799
20
-75.4783
11
151.748
21
-75.6147
0
LINE
8
BLACK
6
CONTINUOUS
10
151.748
20
-75.6147
11
151.742
21
-75.6769
0
LINE
8
BLACK
6
CONTINUOUS
10
151.742
20
-75.6769
11
151.742
21
-76.8231
0
LINE
8
BLACK
6
CONTINUOUS
10
151.742
20
-76.8231
11
151.748
21
-76.8853
0
LINE
8
BLACK
6
CONTINUOUS
10
151.748
20
-76.8853
11
151.751
21
-76.8927
0
LINE
8
BLACK
6
CONTINUOUS
10
151.751
20
-76.8927
11
151.796
21
-77.0133
0
LINE
8
BLACK
6
CONTINUOUS
10
151.796
20
-77.0133
11
151.796
21
-77.0133
0
LINE
8
BLACK
6
CONTINUOUS
10
151.796
20
-77.0133
11
151.799
21
-77.0217
0
LINE
8
BLACK
6
CONTINUOUS
10
151.799
20
-77.0217
11
151.805
21
-77.0289
0
LINE
8
BLACK
6
CONTINUOUS
10
151.805
20
-77.0289
11
151.805
21
-77.0291
0
LINE
8
BLACK
6
CONTINUOUS
10
151.805
20
-77.0291
11
151.82
21
-77.0985
0
LINE
8
BLACK
6
CONTINUOUS
10
151.82
20
-77.0985
11
151.815
21
-77.1269
0
LINE
8
BLACK
6
CONTINUOUS
10
151.815
20
-77.1269
11
151.758
21
-77.3112
0
LINE
8
BLACK
6
CONTINUOUS
10
151.758
20
-77.3112
11
151.737
21
-77.5127
0
LINE
8
BLACK
6
CONTINUOUS
10
151.737
20
-77.5127
11
151.741
21
-77.5649
0
LINE
8
BLACK
6
CONTINUOUS
10
151.741
20
-77.5649
11
151.752
21
-77.6827
0
LINE
8
BLACK
6
CONTINUOUS
10
151.752
20
-77.6827
11
151.755
21
-77.7146
0
LINE
8
BLACK
6
CONTINUOUS
10
151.755
20
-77.7146
11
151.757
21
-77.7205
0
LINE
8
BLACK
6
CONTINUOUS
10
151.757
20
-77.7205
11
151.757
21
-77.7205
0
LINE
8
BLACK
6
CONTINUOUS
10
151.757
20
-77.7205
11
151.777
21
-77.7911
0
LINE
8
BLACK
6
CONTINUOUS
10
151.777
20
-77.7911
11
151.812
21
-77.909
0
LINE
8
BLACK
6
CONTINUOUS
10
151.812
20
-77.909
11
151.815
21
-77.9145
0
LINE
8
BLACK
6
CONTINUOUS
10
151.815
20
-77.9145
11
151.815
21
-77.9145
0
LINE
8
BLACK
6
CONTINUOUS
10
151.815
20
-77.9145
11
151.832
21
-77.9468
0
LINE
8
BLACK
6
CONTINUOUS
10
151.832
20
-77.9468
11
151.906
21
-78.0885
0
LINE
8
BLACK
6
CONTINUOUS
10
151.906
20
-78.0885
11
151.906
21
-78.0885
0
LINE
8
BLACK
6
CONTINUOUS
10
151.906
20
-78.0885
11
151.906
21
-78.0886
0
LINE
8
BLACK
6
CONTINUOUS
10
151.906
20
-78.0886
11
151.906
21
-78.0887
0
LINE
8
BLACK
6
CONTINUOUS
10
151.906
20
-78.0887
11
151.926
21
-78.1544
0
LINE
8
BLACK
6
CONTINUOUS
10
151.926
20
-78.1544
11
151.911
21
-78.2154
0
LINE
8
BLACK
6
CONTINUOUS
10
151.911
20
-78.2154
11
151.818
21
-78.3876
0
LINE
8
BLACK
6
CONTINUOUS
10
151.818
20
-78.3876
11
151.758
21
-78.5812
0
LINE
8
BLACK
6
CONTINUOUS
10
151.758
20
-78.5812
11
151.757
21
-78.5873
0
LINE
8
BLACK
6
CONTINUOUS
10
151.757
20
-78.5873
11
151.757
21
-78.5873
0
LINE
8
BLACK
6
CONTINUOUS
10
151.757
20
-78.5873
11
151.737
21
-78.7766
0
LINE
8
BLACK
6
CONTINUOUS
10
151.737
20
-78.7766
11
151.737
21
-78.7827
0
LINE
8
BLACK
6
CONTINUOUS
10
151.737
20
-78.7827
11
151.755
21
-78.9846
0
LINE
8
BLACK
6
CONTINUOUS
10
151.755
20
-78.9846
11
151.812
21
-79.179
0
LINE
8
BLACK
6
CONTINUOUS
10
151.812
20
-79.179
11
151.815
21
-79.1845
0
LINE
8
BLACK
6
CONTINUOUS
10
151.815
20
-79.1845
11
151.817
21
-79.1902
0
LINE
8
BLACK
6
CONTINUOUS
10
151.817
20
-79.1902
11
151.815
21
-79.1909
0
LINE
8
BLACK
6
CONTINUOUS
10
151.815
20
-79.1909
11
151.828
21
-79.2517
0
LINE
8
BLACK
6
CONTINUOUS
10
151.828
20
-79.2517
11
151.802
21
-79.3178
0
LINE
8
BLACK
6
CONTINUOUS
10
151.802
20
-79.3178
11
151.744
21
-79.3593
0
LINE
8
BLACK
6
CONTINUOUS
10
151.744
20
-79.3593
11
151.702
21
-79.3665
0
LINE
8
BLACK
6
CONTINUOUS
10
151.702
20
-79.3665
11
150.565
21
-79.3665
0
LINE
8
BLACK
6
CONTINUOUS
10
150.565
20
-79.3665
11
150.496
21
-79.3465
0
LINE
8
BLACK
6
CONTINUOUS
10
150.496
20
-79.3465
11
150.475
21
-79.3296
0
LINE
8
BLACK
6
CONTINUOUS
10
150.475
20
-79.3296
11
148.197
21
-77.0512
0
LINE
8
BLACK
6
CONTINUOUS
10
148.197
20
-77.0512
11
148.163
21
-76.9889
0
LINE
8
BLACK
6
CONTINUOUS
10
148.163
20
-76.9889
11
148.161
21
-76.9753
0
LINE
8
BLACK
6
CONTINUOUS
10
148.161
20
-76.9753
11
148.144
21
-76.8166
0
LINE
8
BLACK
6
CONTINUOUS
10
148.144
20
-76.8166
11
148.144
21
-76.8166
0
LINE
8
BLACK
6
CONTINUOUS
10
148.144
20
-76.8166
11
148.144
21
-76.8101
0
LINE
8
BLACK
6
CONTINUOUS
10
148.144
20
-76.8101
11
148.085
21
-76.6284
0
LINE
8
BLACK
6
CONTINUOUS
10
148.085
20
-76.6284
11
147.989
21
-76.4631
0
LINE
8
BLACK
6
CONTINUOUS
10
147.989
20
-76.4631
11
147.979
21
-76.4517
0
LINE
8
BLACK
6
CONTINUOUS
10
147.979
20
-76.4517
11
147.866
21
-76.326
0
LINE
8
BLACK
6
CONTINUOUS
10
147.866
20
-76.326
11
147.866
21
-76.326
0
LINE
8
BLACK
6
CONTINUOUS
10
147.866
20
-76.326
11
147.861
21
-76.3211
0
LINE
8
BLACK
6
CONTINUOUS
10
147.861
20
-76.3211
11
147.707
21
-76.2089
0
LINE
8
BLACK
6
CONTINUOUS
10
147.707
20
-76.2089
11
147.701
21
-76.2062
0
LINE
8
BLACK
6
CONTINUOUS
10
147.701
20
-76.2062
11
147.701
21
-76.2062
0
LINE
8
BLACK
6
CONTINUOUS
10
147.701
20
-76.2062
11
147.538
21
-76.1339
0
LINE
8
BLACK
6
CONTINUOUS
10
147.538
20
-76.1339
11
147.538
21
-76.1339
0
LINE
8
BLACK
6
CONTINUOUS
10
147.538
20
-76.1339
11
147.532
21
-76.1312
0
LINE
8
BLACK
6
CONTINUOUS
10
147.532
20
-76.1312
11
147.439
21
-76.1114
0
LINE
8
BLACK
6
CONTINUOUS
10
147.439
20
-76.1114
11
147.352
21
-76.0929
0
LINE
8
BLACK
6
CONTINUOUS
10
147.352
20
-76.0929
11
147.352
21
-76.0929
0
LINE
8
BLACK
6
CONTINUOUS
10
147.352
20
-76.0929
11
147.345
21
-76.0915
0
LINE
8
BLACK
6
CONTINUOUS
10
147.345
20
-76.0915
11
147.155
21
-76.0915
0
LINE
8
BLACK
6
CONTINUOUS
10
147.155
20
-76.0915
11
147.148
21
-76.0929
0
LINE
8
BLACK
6
CONTINUOUS
10
147.148
20
-76.0929
11
147.148
21
-76.0929
0
LINE
8
BLACK
6
CONTINUOUS
10
147.148
20
-76.0929
11
147.061
21
-76.1114
0
LINE
8
BLACK
6
CONTINUOUS
10
147.061
20
-76.1114
11
146.968
21
-76.1312
0
LINE
8
BLACK
6
CONTINUOUS
10
146.968
20
-76.1312
11
146.962
21
-76.1339
0
LINE
8
BLACK
6
CONTINUOUS
10
146.962
20
-76.1339
11
146.962
21
-76.1339
0
LINE
8
BLACK
6
CONTINUOUS
10
146.962
20
-76.1339
11
146.799
21
-76.2062
0
LINE
8
BLACK
6
CONTINUOUS
10
146.799
20
-76.2062
11
146.799
21
-76.2062
0
LINE
8
BLACK
6
CONTINUOUS
10
146.799
20
-76.2062
11
146.793
21
-76.2089
0
LINE
8
BLACK
6
CONTINUOUS
10
146.793
20
-76.2089
11
146.639
21
-76.3211
0
LINE
8
BLACK
6
CONTINUOUS
10
146.639
20
-76.3211
11
146.634
21
-76.326
0
LINE
8
BLACK
6
CONTINUOUS
10
146.634
20
-76.326
11
146.634
21
-76.326
0
LINE
8
BLACK
6
CONTINUOUS
10
146.634
20
-76.326
11
146.521
21
-76.4517
0
LINE
8
BLACK
6
CONTINUOUS
10
146.521
20
-76.4517
11
146.511
21
-76.4631
0
LINE
8
BLACK
6
CONTINUOUS
10
146.511
20
-76.4631
11
146.415
21
-76.6284
0
LINE
8
BLACK
6
CONTINUOUS
10
146.415
20
-76.6284
11
146.356
21
-76.8101
0
LINE
8
BLACK
6
CONTINUOUS
10
146.356
20
-76.8101
11
146.336
21
-77
0
LINE
8
BLACK
6
CONTINUOUS
10
146.336
20
-77
11
146.356
21
-77.1899
0
LINE
8
BLACK
6
CONTINUOUS
10
146.356
20
-77.1899
11
146.415
21
-77.3716
0
LINE
8
BLACK
6
CONTINUOUS
10
146.415
20
-77.3716
11
146.511
21
-77.5369
0
LINE
8
BLACK
6
CONTINUOUS
10
146.511
20
-77.5369
11
146.515
21
-77.5419
0
LINE
8
BLACK
6
CONTINUOUS
10
146.515
20
-77.5419
11
146.515
21
-77.5419
0
LINE
8
BLACK
6
CONTINUOUS
10
146.515
20
-77.5419
11
146.536
21
-77.5649
0
LINE
8
BLACK
6
CONTINUOUS
10
146.536
20
-77.5649
11
146.639
21
-77.6789
0
LINE
8
BLACK
6
CONTINUOUS
10
146.639
20
-77.6789
11
146.738
21
-77.7509
0
LINE
8
BLACK
6
CONTINUOUS
10
146.738
20
-77.7509
11
146.781
21
-77.782
0
LINE
8
BLACK
6
CONTINUOUS
10
146.781
20
-77.782
11
146.793
21
-77.7911
0
LINE
8
BLACK
6
CONTINUOUS
10
146.793
20
-77.7911
11
146.799
21
-77.7938
0
LINE
8
BLACK
6
CONTINUOUS
10
146.799
20
-77.7938
11
146.799
21
-77.7938
0
LINE
8
BLACK
6
CONTINUOUS
10
146.799
20
-77.7938
11
146.955
21
-77.863
0
LINE
8
BLACK
6
CONTINUOUS
10
146.955
20
-77.863
11
146.968
21
-77.8688
0
LINE
8
BLACK
6
CONTINUOUS
10
146.968
20
-77.8688
11
147.061
21
-77.8886
0
LINE
8
BLACK
6
CONTINUOUS
10
147.061
20
-77.8886
11
147.148
21
-77.9071
0
LINE
8
BLACK
6
CONTINUOUS
10
147.148
20
-77.9071
11
147.148
21
-77.9071
0
LINE
8
BLACK
6
CONTINUOUS
10
147.148
20
-77.9071
11
147.155
21
-77.9085
0
LINE
8
BLACK
6
CONTINUOUS
10
147.155
20
-77.9085
11
147.21
21
-77.9085
0
LINE
8
BLACK
6
CONTINUOUS
10
147.21
20
-77.9085
11
147.279
21
-77.9285
0
LINE
8
BLACK
6
CONTINUOUS
10
147.279
20
-77.9285
11
147.3
21
-77.9454
0
LINE
8
BLACK
6
CONTINUOUS
10
147.3
20
-77.9454
11
149.631
21
-80.2764
0
LINE
8
BLACK
6
CONTINUOUS
10
149.631
20
-80.2764
11
149.665
21
-80.3387
0
LINE
8
BLACK
6
CONTINUOUS
10
149.665
20
-80.3387
11
149.659
21
-80.4095
0
LINE
8
BLACK
6
CONTINUOUS
10
149.659
20
-80.4095
11
149.617
21
-80.4664
0
LINE
8
BLACK
6
CONTINUOUS
10
149.617
20
-80.4664
11
149.55
21
-80.4912
0
LINE
8
BLACK
6
CONTINUOUS
10
149.55
20
-80.4912
11
149.541
21
-80.4915
0
LINE
8
BLACK
6
CONTINUOUS
10
149.541
20
-80.4915
11
136.385
21
-80.4915
0
LINE
8
BLACK
6
CONTINUOUS
10
136.385
20
-80.4915
11
136.316
21
-80.4715
0
LINE
8
BLACK
6
CONTINUOUS
10
136.316
20
-80.4715
11
136.27
21
-80.4178
0
LINE
8
BLACK
6
CONTINUOUS
10
136.27
20
-80.4178
11
136.258
21
-80.3655
0
LINE
8
BLACK
6
CONTINUOUS
10
136.258
20
-80.3655
11
136.258
21
-68.6345
0
LINE
8
BLACK
6
CONTINUOUS
10
136.258
20
-68.6345
11
136.279
21
-68.5664
0
LINE
8
BLACK
6
CONTINUOUS
10
138.521
20
-78.6394
11
138.528
21
-78.6385
0
LINE
8
BLACK
6
CONTINUOUS
10
138.528
20
-78.6385
11
138.538
21
-78.6364
0
LINE
8
BLACK
6
CONTINUOUS
10
138.538
20
-78.6364
11
138.742
21
-78.5752
0
LINE
8
BLACK
6
CONTINUOUS
10
138.742
20
-78.5752
11
138.752
21
-78.5714
0
LINE
8
BLACK
6
CONTINUOUS
10
138.752
20
-78.5714
11
138.943
21
-78.4777
0
LINE
8
BLACK
6
CONTINUOUS
10
138.943
20
-78.4777
11
138.952
21
-78.4725
0
LINE
8
BLACK
6
CONTINUOUS
10
138.952
20
-78.4725
11
139.125
21
-78.3488
0
LINE
8
BLACK
6
CONTINUOUS
10
139.125
20
-78.3488
11
139.133
21
-78.3421
0
LINE
8
BLACK
6
CONTINUOUS
10
139.133
20
-78.3421
11
139.284
21
-78.1918
0
LINE
8
BLACK
6
CONTINUOUS
10
139.284
20
-78.1918
11
139.291
21
-78.184
0
LINE
8
BLACK
6
CONTINUOUS
10
139.291
20
-78.184
11
139.415
21
-78.011
0
LINE
8
BLACK
6
CONTINUOUS
10
139.415
20
-78.011
11
139.42
21
-78.0022
0
LINE
8
BLACK
6
CONTINUOUS
10
139.42
20
-78.0022
11
139.515
21
-77.8113
0
LINE
8
BLACK
6
CONTINUOUS
10
139.515
20
-77.8113
11
139.518
21
-77.8017
0
LINE
8
BLACK
6
CONTINUOUS
10
139.518
20
-77.8017
11
139.58
21
-77.5979
0
LINE
8
BLACK
6
CONTINUOUS
10
139.58
20
-77.5979
11
139.583
21
-77.5878
0
LINE
8
BLACK
6
CONTINUOUS
10
139.583
20
-77.5878
11
139.584
21
-77.577
0
LINE
8
BLACK
6
CONTINUOUS
10
139.584
20
-77.577
11
139.582
21
-77.5628
0
LINE
8
BLACK
6
CONTINUOUS
10
139.582
20
-77.5628
11
139.569
21
-77.559
0
LINE
8
BLACK
6
CONTINUOUS
10
139.569
20
-77.559
11
139.056
21
-77.559
0
LINE
8
BLACK
6
CONTINUOUS
10
139.056
20
-77.559
11
139.027
21
-77.6507
0
LINE
8
BLACK
6
CONTINUOUS
10
139.027
20
-77.6507
11
138.938
21
-77.8046
0
LINE
8
BLACK
6
CONTINUOUS
10
138.938
20
-77.8046
11
138.819
21
-77.9367
0
LINE
8
BLACK
6
CONTINUOUS
10
138.819
20
-77.9367
11
138.675
21
-78.0411
0
LINE
8
BLACK
6
CONTINUOUS
10
138.675
20
-78.0411
11
138.513
21
-78.1134
0
LINE
8
BLACK
6
CONTINUOUS
10
138.513
20
-78.1134
11
138.504
21
-78.1152
0
LINE
8
BLACK
6
CONTINUOUS
10
138.504
20
-78.1152
11
138.504
21
-78.6235
0
LINE
8
BLACK
6
CONTINUOUS
10
138.504
20
-78.6235
11
138.508
21
-78.6374
0
LINE
8
BLACK
6
CONTINUOUS
10
138.508
20
-78.6374
11
138.521
21
-78.6394
0
LINE
8
BLACK
6
CONTINUOUS
10
162.864
20
-73.0356
11
162.505
21
-73.3941
0
LINE
8
BLACK
6
CONTINUOUS
10
162.505
20
-73.3941
11
162.511
21
-73.4043
0
LINE
8
BLACK
6
CONTINUOUS
10
162.511
20
-73.4043
11
162.57
21
-73.5728
0
LINE
8
BLACK
6
CONTINUOUS
10
162.57
20
-73.5728
11
162.59
21
-73.75
0
LINE
8
BLACK
6
CONTINUOUS
10
162.59
20
-73.75
11
162.59
21
-73.7723
0
LINE
8
BLACK
6
CONTINUOUS
10
162.59
20
-73.7723
11
162.565
21
-73.949
0
LINE
8
BLACK
6
CONTINUOUS
10
162.565
20
-73.949
11
162.505
21
-74.106
0
LINE
8
BLACK
6
CONTINUOUS
10
162.505
20
-74.106
11
162.864
21
-74.4651
0
LINE
8
BLACK
6
CONTINUOUS
10
162.864
20
-74.4651
11
162.876
21
-74.4715
0
LINE
8
BLACK
6
CONTINUOUS
10
162.876
20
-74.4715
11
162.888
21
-74.4622
0
LINE
8
BLACK
6
CONTINUOUS
10
162.888
20
-74.4622
11
162.924
21
-74.411
0
LINE
8
BLACK
6
CONTINUOUS
10
162.924
20
-74.411
11
162.929
21
-74.4015
0
LINE
8
BLACK
6
CONTINUOUS
10
162.929
20
-74.4015
11
163.021
21
-74.2041
0
LINE
8
BLACK
6
CONTINUOUS
10
163.021
20
-74.2041
11
163.025
21
-74.1938
0
LINE
8
BLACK
6
CONTINUOUS
10
163.025
20
-74.1938
11
163.082
21
-73.9833
0
LINE
8
BLACK
6
CONTINUOUS
10
163.082
20
-73.9833
11
163.084
21
-73.9725
0
LINE
8
BLACK
6
CONTINUOUS
10
163.084
20
-73.9725
11
163.103
21
-73.7555
0
LINE
8
BLACK
6
CONTINUOUS
10
163.103
20
-73.7555
11
163.103
21
-73.7445
0
LINE
8
BLACK
6
CONTINUOUS
10
163.103
20
-73.7445
11
163.084
21
-73.5275
0
LINE
8
BLACK
6
CONTINUOUS
10
163.084
20
-73.5275
11
163.082
21
-73.5167
0
LINE
8
BLACK
6
CONTINUOUS
10
163.082
20
-73.5167
11
163.025
21
-73.3062
0
LINE
8
BLACK
6
CONTINUOUS
10
163.025
20
-73.3062
11
163.021
21
-73.2959
0
LINE
8
BLACK
6
CONTINUOUS
10
163.021
20
-73.2959
11
162.929
21
-73.0985
0
LINE
8
BLACK
6
CONTINUOUS
10
162.929
20
-73.0985
11
162.924
21
-73.089
0
LINE
8
BLACK
6
CONTINUOUS
10
162.924
20
-73.089
11
162.887
21
-73.037
0
LINE
8
BLACK
6
CONTINUOUS
10
162.887
20
-73.037
11
162.877
21
-73.0286
0
LINE
8
BLACK
6
CONTINUOUS
10
162.877
20
-73.0286
11
162.864
21
-73.0356
0
LINE
8
BLACK
6
CONTINUOUS
10
137.987
20
-78.1134
11
137.825
21
-78.0411
0
LINE
8
BLACK
6
CONTINUOUS
10
137.825
20
-78.0411
11
137.681
21
-77.9367
0
LINE
8
BLACK
6
CONTINUOUS
10
137.681
20
-77.9367
11
137.562
21
-77.8046
0
LINE
8
BLACK
6
CONTINUOUS
10
137.562
20
-77.8046
11
137.473
21
-77.6507
0
LINE
8
BLACK
6
CONTINUOUS
10
137.473
20
-77.6507
11
137.444
21
-77.559
0
LINE
8
BLACK
6
CONTINUOUS
10
137.444
20
-77.559
11
136.933
21
-77.559
0
LINE
8
BLACK
6
CONTINUOUS
10
136.933
20
-77.559
11
136.92
21
-77.563
0
LINE
8
BLACK
6
CONTINUOUS
10
136.92
20
-77.563
11
136.918
21
-77.573
0
LINE
8
BLACK
6
CONTINUOUS
10
136.918
20
-77.573
11
136.949
21
-77.7074
0
LINE
8
BLACK
6
CONTINUOUS
10
136.949
20
-77.7074
11
136.952
21
-77.7173
0
LINE
8
BLACK
6
CONTINUOUS
10
136.952
20
-77.7173
11
137.032
21
-77.9146
0
LINE
8
BLACK
6
CONTINUOUS
10
137.032
20
-77.9146
11
137.036
21
-77.9238
0
LINE
8
BLACK
6
CONTINUOUS
10
137.036
20
-77.9238
11
137.148
21
-78.1054
0
LINE
8
BLACK
6
CONTINUOUS
10
137.148
20
-78.1054
11
137.154
21
-78.1137
0
LINE
8
BLACK
6
CONTINUOUS
10
137.154
20
-78.1137
11
137.293
21
-78.2747
0
LINE
8
BLACK
6
CONTINUOUS
10
137.293
20
-78.2747
11
137.301
21
-78.2819
0
LINE
8
BLACK
6
CONTINUOUS
10
137.301
20
-78.2819
11
137.464
21
-78.4179
0
LINE
8
BLACK
6
CONTINUOUS
10
137.464
20
-78.4179
11
137.473
21
-78.4238
0
LINE
8
BLACK
6
CONTINUOUS
10
137.473
20
-78.4238
11
137.657
21
-78.5313
0
LINE
8
BLACK
6
CONTINUOUS
10
137.657
20
-78.5313
11
137.666
21
-78.5357
0
LINE
8
BLACK
6
CONTINUOUS
10
137.666
20
-78.5357
11
137.865
21
-78.6117
0
LINE
8
BLACK
6
CONTINUOUS
10
137.865
20
-78.6117
11
137.875
21
-78.6146
0
LINE
8
BLACK
6
CONTINUOUS
10
137.875
20
-78.6146
11
137.978
21
-78.6356
0
LINE
8
BLACK
6
CONTINUOUS
10
137.978
20
-78.6356
11
137.992
21
-78.6344
0
LINE
8
BLACK
6
CONTINUOUS
10
137.992
20
-78.6344
11
137.996
21
-78.6241
0
LINE
8
BLACK
6
CONTINUOUS
10
137.996
20
-78.6241
11
137.996
21
-78.1152
0
LINE
8
BLACK
6
CONTINUOUS
10
137.996
20
-78.1152
11
137.987
21
-78.1134
0
LINE
8
BLACK
6
CONTINUOUS
10
136.888
20
-74.7369
11
136.894
21
-74.8481
0
LINE
8
BLACK
6
CONTINUOUS
10
136.894
20
-74.8481
11
136.9
21
-74.9547
0
LINE
8
BLACK
6
CONTINUOUS
10
136.9
20
-74.9547
11
136.901
21
-74.9598
0
LINE
8
BLACK
6
CONTINUOUS
10
136.901
20
-74.9598
11
136.901
21
-74.9598
0
LINE
8
BLACK
6
CONTINUOUS
10
136.901
20
-74.9598
11
136.923
21
-75.0582
0
LINE
8
BLACK
6
CONTINUOUS
10
136.923
20
-75.0582
11
136.949
21
-75.1726
0
LINE
8
BLACK
6
CONTINUOUS
10
136.949
20
-75.1726
11
137.003
21
-75.3062
0
LINE
8
BLACK
6
CONTINUOUS
10
137.003
20
-75.3062
11
137.027
21
-75.3634
0
LINE
8
BLACK
6
CONTINUOUS
10
137.027
20
-75.3634
11
137.033
21
-75.3796
0
LINE
8
BLACK
6
CONTINUOUS
10
137.033
20
-75.3796
11
137.052
21
-75.4102
0
LINE
8
BLACK
6
CONTINUOUS
10
137.052
20
-75.4102
11
137.134
21
-75.5438
0
LINE
8
BLACK
6
CONTINUOUS
10
137.134
20
-75.5438
11
137.15
21
-75.5701
0
LINE
8
BLACK
6
CONTINUOUS
10
137.15
20
-75.5701
11
137.296
21
-75.7389
0
LINE
8
BLACK
6
CONTINUOUS
10
137.296
20
-75.7389
11
137.468
21
-75.8816
0
LINE
8
BLACK
6
CONTINUOUS
10
137.468
20
-75.8816
11
137.524
21
-75.9145
0
LINE
8
BLACK
6
CONTINUOUS
10
137.524
20
-75.9145
11
137.542
21
-75.9248
0
LINE
8
BLACK
6
CONTINUOUS
10
137.542
20
-75.9248
11
137.591
21
-75.9764
0
LINE
8
BLACK
6
CONTINUOUS
10
137.591
20
-75.9764
11
137.604
21
-76.0462
0
LINE
8
BLACK
6
CONTINUOUS
10
137.604
20
-76.0462
11
137.577
21
-76.112
0
LINE
8
BLACK
6
CONTINUOUS
10
137.577
20
-76.112
11
137.537
21
-76.1453
0
LINE
8
BLACK
6
CONTINUOUS
10
137.537
20
-76.1453
11
137.528
21
-76.1495
0
LINE
8
BLACK
6
CONTINUOUS
10
137.528
20
-76.1495
11
137.52
21
-76.155
0
LINE
8
BLACK
6
CONTINUOUS
10
137.52
20
-76.155
11
137.349
21
-76.2829
0
LINE
8
BLACK
6
CONTINUOUS
10
137.349
20
-76.2829
11
137.342
21
-76.2897
0
LINE
8
BLACK
6
CONTINUOUS
10
137.342
20
-76.2897
11
137.195
21
-76.4437
0
LINE
8
BLACK
6
CONTINUOUS
10
137.195
20
-76.4437
11
137.188
21
-76.4517
0
LINE
8
BLACK
6
CONTINUOUS
10
137.188
20
-76.4517
11
137.068
21
-76.6276
0
LINE
8
BLACK
6
CONTINUOUS
10
137.068
20
-76.6276
11
137.063
21
-76.6366
0
LINE
8
BLACK
6
CONTINUOUS
10
137.063
20
-76.6366
11
136.973
21
-76.8298
0
LINE
8
BLACK
6
CONTINUOUS
10
136.973
20
-76.8298
11
136.97
21
-76.8395
0
LINE
8
BLACK
6
CONTINUOUS
10
136.97
20
-76.8395
11
136.914
21
-77.0392
0
LINE
8
BLACK
6
CONTINUOUS
10
136.914
20
-77.0392
11
136.916
21
-77.0476
0
LINE
8
BLACK
6
CONTINUOUS
10
136.916
20
-77.0476
11
136.928
21
-77.051
0
LINE
8
BLACK
6
CONTINUOUS
10
136.928
20
-77.051
11
137.444
21
-77.051
0
LINE
8
BLACK
6
CONTINUOUS
10
137.444
20
-77.051
11
137.473
21
-76.9593
0
LINE
8
BLACK
6
CONTINUOUS
10
137.473
20
-76.9593
11
137.562
21
-76.8054
0
LINE
8
BLACK
6
CONTINUOUS
10
137.562
20
-76.8054
11
137.681
21
-76.6733
0
LINE
8
BLACK
6
CONTINUOUS
10
137.681
20
-76.6733
11
137.825
21
-76.5689
0
LINE
8
BLACK
6
CONTINUOUS
10
137.825
20
-76.5689
11
137.987
21
-76.4966
0
LINE
8
BLACK
6
CONTINUOUS
10
137.987
20
-76.4966
11
138.161
21
-76.4597
0
LINE
8
BLACK
6
CONTINUOUS
10
138.161
20
-76.4597
11
138.339
21
-76.4597
0
LINE
8
BLACK
6
CONTINUOUS
10
138.339
20
-76.4597
11
138.513
21
-76.4966
0
LINE
8
BLACK
6
CONTINUOUS
10
138.513
20
-76.4966
11
138.675
21
-76.5689
0
LINE
8
BLACK
6
CONTINUOUS
10
138.675
20
-76.5689
11
138.819
21
-76.6733
0
LINE
8
BLACK
6
CONTINUOUS
10
138.819
20
-76.6733
11
138.938
21
-76.8054
0
LINE
8
BLACK
6
CONTINUOUS
10
138.938
20
-76.8054
11
139.027
21
-76.9593
0
LINE
8
BLACK
6
CONTINUOUS
10
139.027
20
-76.9593
11
139.056
21
-77.051
0
LINE
8
BLACK
6
CONTINUOUS
10
139.056
20
-77.051
11
139.568
21
-77.051
0
LINE
8
BLACK
6
CONTINUOUS
10
139.568
20
-77.051
11
139.582
21
-77.047
0
LINE
8
BLACK
6
CONTINUOUS
10
139.582
20
-77.047
11
139.583
21
-77.0379
0
LINE
8
BLACK
6
CONTINUOUS
10
139.583
20
-77.0379
11
139.541
21
-76.8709
0
LINE
8
BLACK
6
CONTINUOUS
10
139.541
20
-76.8709
11
139.538
21
-76.8611
0
LINE
8
BLACK
6
CONTINUOUS
10
139.538
20
-76.8611
11
139.453
21
-76.6658
0
LINE
8
BLACK
6
CONTINUOUS
10
139.453
20
-76.6658
11
139.448
21
-76.6567
0
LINE
8
BLACK
6
CONTINUOUS
10
139.448
20
-76.6567
11
139.332
21
-76.4779
0
LINE
8
BLACK
6
CONTINUOUS
10
139.332
20
-76.4779
11
139.326
21
-76.4698
0
LINE
8
BLACK
6
CONTINUOUS
10
139.326
20
-76.4698
11
139.183
21
-76.3122
0
LINE
8
BLACK
6
CONTINUOUS
10
139.183
20
-76.3122
11
139.175
21
-76.3052
0
LINE
8
BLACK
6
CONTINUOUS
10
139.175
20
-76.3052
11
139.008
21
-76.1732
0
LINE
8
BLACK
6
CONTINUOUS
10
139.008
20
-76.1732
11
139
21
-76.1675
0
LINE
8
BLACK
6
CONTINUOUS
10
139
20
-76.1675
11
138.963
21
-76.1471
0
LINE
8
BLACK
6
CONTINUOUS
10
138.963
20
-76.1471
11
138.913
21
-76.0967
0
LINE
8
BLACK
6
CONTINUOUS
10
138.913
20
-76.0967
11
138.898
21
-76.0272
0
LINE
8
BLACK
6
CONTINUOUS
10
138.898
20
-76.0272
11
138.923
21
-75.9608
0
LINE
8
BLACK
6
CONTINUOUS
10
138.923
20
-75.9608
11
138.95
21
-75.9342
0
LINE
8
BLACK
6
CONTINUOUS
10
138.95
20
-75.9342
11
139.014
21
-75.8887
0
LINE
8
BLACK
6
CONTINUOUS
10
139.014
20
-75.8887
11
139.13
21
-75.8062
0
LINE
8
BLACK
6
CONTINUOUS
10
139.13
20
-75.8062
11
139.288
21
-75.6485
0
LINE
8
BLACK
6
CONTINUOUS
10
139.288
20
-75.6485
11
139.348
21
-75.5657
0
LINE
8
BLACK
6
CONTINUOUS
10
139.348
20
-75.5657
11
139.415
21
-75.4713
0
LINE
8
BLACK
6
CONTINUOUS
10
139.415
20
-75.4713
11
139.418
21
-75.4671
0
LINE
8
BLACK
6
CONTINUOUS
10
139.418
20
-75.4671
11
139.421
21
-75.4624
0
LINE
8
BLACK
6
CONTINUOUS
10
139.421
20
-75.4624
11
139.422
21
-75.4596
0
LINE
8
BLACK
6
CONTINUOUS
10
139.422
20
-75.4596
11
139.475
21
-75.4115
0
LINE
8
BLACK
6
CONTINUOUS
10
139.475
20
-75.4115
11
139.53
21
-75.3985
0
LINE
8
BLACK
6
CONTINUOUS
10
139.53
20
-75.3985
11
144.406
21
-75.3985
0
LINE
8
BLACK
6
CONTINUOUS
10
144.406
20
-75.3985
11
144.417
21
-75.399
0
LINE
8
BLACK
6
CONTINUOUS
10
144.417
20
-75.399
11
144.425
21
-75.4007
0
LINE
8
BLACK
6
CONTINUOUS
10
144.425
20
-75.4007
11
144.433
21
-75.4005
0
LINE
8
BLACK
6
CONTINUOUS
10
144.433
20
-75.4005
11
144.433
21
-75.4005
0
LINE
8
BLACK
6
CONTINUOUS
10
144.433
20
-75.4005
11
144.493
21
-75.3986
0
LINE
8
BLACK
6
CONTINUOUS
10
144.493
20
-75.3986
11
144.497
21
-75.3985
0
LINE
8
BLACK
6
CONTINUOUS
10
144.497
20
-75.3985
11
144.525
21
-75.3985
0
LINE
8
BLACK
6
CONTINUOUS
10
144.525
20
-75.3985
11
144.529
21
-75.398
0
LINE
8
BLACK
6
CONTINUOUS
10
144.529
20
-75.398
11
144.529
21
-75.398
0
LINE
8
BLACK
6
CONTINUOUS
10
144.529
20
-75.398
11
144.541
21
-75.3971
0
LINE
8
BLACK
6
CONTINUOUS
10
144.541
20
-75.3971
11
144.573
21
-75.396
0
LINE
8
BLACK
6
CONTINUOUS
10
144.573
20
-75.396
11
144.577
21
-75.3959
0
LINE
8
BLACK
6
CONTINUOUS
10
144.577
20
-75.3959
11
144.585
21
-75.3957
0
LINE
8
BLACK
6
CONTINUOUS
10
144.585
20
-75.3957
11
144.604
21
-75.39
0
LINE
8
BLACK
6
CONTINUOUS
10
144.604
20
-75.39
11
144.624
21
-75.386
0
LINE
8
BLACK
6
CONTINUOUS
10
144.624
20
-75.386
11
144.636
21
-75.3845
0
LINE
8
BLACK
6
CONTINUOUS
10
144.636
20
-75.3845
11
144.636
21
-75.3845
0
LINE
8
BLACK
6
CONTINUOUS
10
144.636
20
-75.3845
11
144.644
21
-75.3835
0
LINE
8
BLACK
6
CONTINUOUS
10
144.644
20
-75.3835
11
144.651
21
-75.3806
0
LINE
8
BLACK
6
CONTINUOUS
10
144.651
20
-75.3806
11
144.651
21
-75.3806
0
LINE
8
BLACK
6
CONTINUOUS
10
144.651
20
-75.3806
11
144.685
21
-75.3672
0
LINE
8
BLACK
6
CONTINUOUS
10
144.685
20
-75.3672
11
144.696
21
-75.3634
0
LINE
8
BLACK
6
CONTINUOUS
10
144.696
20
-75.3634
11
144.731
21
-75.3532
0
LINE
8
BLACK
6
CONTINUOUS
10
144.731
20
-75.3532
11
144.731
21
-75.3532
0
LINE
8
BLACK
6
CONTINUOUS
10
144.731
20
-75.3532
11
144.739
21
-75.351
0
LINE
8
BLACK
6
CONTINUOUS
10
144.739
20
-75.351
11
144.745
21
-75.347
0
LINE
8
BLACK
6
CONTINUOUS
10
144.745
20
-75.347
11
144.745
21
-75.347
0
LINE
8
BLACK
6
CONTINUOUS
10
144.745
20
-75.347
11
144.756
21
-75.3407
0
LINE
8
BLACK
6
CONTINUOUS
10
144.756
20
-75.3407
11
144.774
21
-75.332
0
LINE
8
BLACK
6
CONTINUOUS
10
144.774
20
-75.332
11
144.793
21
-75.3246
0
LINE
8
BLACK
6
CONTINUOUS
10
144.793
20
-75.3246
11
144.828
21
-75.2986
0
LINE
8
BLACK
6
CONTINUOUS
10
144.828
20
-75.2986
11
144.838
21
-75.292
0
LINE
8
BLACK
6
CONTINUOUS
10
144.838
20
-75.292
11
144.87
21
-75.2736
0
LINE
8
BLACK
6
CONTINUOUS
10
144.87
20
-75.2736
11
144.87
21
-75.2736
0
LINE
8
BLACK
6
CONTINUOUS
10
144.87
20
-75.2736
11
144.876
21
-75.2695
0
LINE
8
BLACK
6
CONTINUOUS
10
144.876
20
-75.2695
11
144.891
21
-75.2552
0
LINE
8
BLACK
6
CONTINUOUS
10
144.891
20
-75.2552
11
144.906
21
-75.2424
0
LINE
8
BLACK
6
CONTINUOUS
10
144.906
20
-75.2424
11
144.916
21
-75.2351
0
LINE
8
BLACK
6
CONTINUOUS
10
144.916
20
-75.2351
11
144.922
21
-75.2305
0
LINE
8
BLACK
6
CONTINUOUS
10
144.922
20
-75.2305
11
144.95
21
-75.1964
0
LINE
8
BLACK
6
CONTINUOUS
10
144.95
20
-75.1964
11
144.958
21
-75.1876
0
LINE
8
BLACK
6
CONTINUOUS
10
144.958
20
-75.1876
11
148.137
21
-72.0093
0
LINE
8
BLACK
6
CONTINUOUS
10
148.137
20
-72.0093
11
148.199
21
-71.9752
0
LINE
8
BLACK
6
CONTINUOUS
10
148.199
20
-71.9752
11
148.27
21
-71.9803
0
LINE
8
BLACK
6
CONTINUOUS
10
148.27
20
-71.9803
11
148.327
21
-72.0228
0
LINE
8
BLACK
6
CONTINUOUS
10
148.327
20
-72.0228
11
148.351
21
-72.0894
0
LINE
8
BLACK
6
CONTINUOUS
10
148.351
20
-72.0894
11
148.351
21
-72.1115
0
LINE
8
BLACK
6
CONTINUOUS
10
148.351
20
-72.1115
11
148.339
21
-72.2253
0
LINE
8
BLACK
6
CONTINUOUS
10
148.339
20
-72.2253
11
148.312
21
-72.2909
0
LINE
8
BLACK
6
CONTINUOUS
10
148.312
20
-72.2909
11
148.303
21
-72.3012
0
LINE
8
BLACK
6
CONTINUOUS
10
148.303
20
-72.3012
11
147.577
21
-73.0272
0
LINE
8
BLACK
6
CONTINUOUS
10
147.577
20
-73.0272
11
146.858
21
-73.7463
0
LINE
8
BLACK
6
CONTINUOUS
10
146.858
20
-73.7463
11
146.849
21
-73.7539
0
LINE
8
BLACK
6
CONTINUOUS
10
146.849
20
-73.7539
11
146.843
21
-73.758
0
LINE
8
BLACK
6
CONTINUOUS
10
146.843
20
-73.758
11
146.838
21
-73.7638
0
LINE
8
BLACK
6
CONTINUOUS
10
146.838
20
-73.7638
11
146.796
21
-73.8077
0
LINE
8
BLACK
6
CONTINUOUS
10
146.796
20
-73.8077
11
146.794
21
-73.8105
0
LINE
8
BLACK
6
CONTINUOUS
10
146.794
20
-73.8105
11
146.774
21
-73.8302
0
LINE
8
BLACK
6
CONTINUOUS
10
146.774
20
-73.8302
11
146.771
21
-73.8334
0
LINE
8
BLACK
6
CONTINUOUS
10
146.771
20
-73.8334
11
146.764
21
-73.8424
0
LINE
8
BLACK
6
CONTINUOUS
10
146.764
20
-73.8424
11
146.733
21
-73.8747
0
LINE
8
BLACK
6
CONTINUOUS
10
146.733
20
-73.8747
11
146.73
21
-73.8816
0
LINE
8
BLACK
6
CONTINUOUS
10
146.73
20
-73.8816
11
146.73
21
-73.8816
0
LINE
8
BLACK
6
CONTINUOUS
10
146.73
20
-73.8816
11
146.724
21
-73.8924
0
LINE
8
BLACK
6
CONTINUOUS
10
146.724
20
-73.8924
11
146.713
21
-73.909
0
LINE
8
BLACK
6
CONTINUOUS
10
146.713
20
-73.909
11
146.7
21
-73.925
0
LINE
8
BLACK
6
CONTINUOUS
10
146.7
20
-73.925
11
146.697
21
-73.9322
0
LINE
8
BLACK
6
CONTINUOUS
10
146.697
20
-73.9322
11
146.697
21
-73.9322
0
LINE
8
BLACK
6
CONTINUOUS
10
146.697
20
-73.9322
11
146.683
21
-73.9655
0
LINE
8
BLACK
6
CONTINUOUS
10
146.683
20
-73.9655
11
146.678
21
-73.9762
0
LINE
8
BLACK
6
CONTINUOUS
10
146.678
20
-73.9762
11
146.656
21
-74.0149
0
LINE
8
BLACK
6
CONTINUOUS
10
146.656
20
-74.0149
11
146.654
21
-74.0226
0
LINE
8
BLACK
6
CONTINUOUS
10
146.654
20
-74.0226
11
146.654
21
-74.0226
0
LINE
8
BLACK
6
CONTINUOUS
10
146.654
20
-74.0226
11
146.651
21
-74.0346
0
LINE
8
BLACK
6
CONTINUOUS
10
146.651
20
-74.0346
11
146.645
21
-74.0533
0
LINE
8
BLACK
6
CONTINUOUS
10
146.645
20
-74.0533
11
146.644
21
-74.0557
0
LINE
8
BLACK
6
CONTINUOUS
10
146.644
20
-74.0557
11
146.622
21
-74.0899
0
LINE
8
BLACK
6
CONTINUOUS
10
146.622
20
-74.0899
11
146.511
21
-74.2131
0
LINE
8
BLACK
6
CONTINUOUS
10
146.511
20
-74.2131
11
146.415
21
-74.3784
0
LINE
8
BLACK
6
CONTINUOUS
10
146.415
20
-74.3784
11
146.356
21
-74.5601
0
LINE
8
BLACK
6
CONTINUOUS
10
146.356
20
-74.5601
11
146.356
21
-74.5666
0
LINE
8
BLACK
6
CONTINUOUS
10
146.356
20
-74.5666
11
146.356
21
-74.5666
0
LINE
8
BLACK
6
CONTINUOUS
10
146.356
20
-74.5666
11
146.349
21
-74.6292
0
LINE
8
BLACK
6
CONTINUOUS
10
146.349
20
-74.6292
11
146.336
21
-74.75
0
LINE
8
BLACK
6
CONTINUOUS
10
146.336
20
-74.75
11
146.337
21
-74.7566
0
LINE
8
BLACK
6
CONTINUOUS
10
146.337
20
-74.7566
11
146.352
21
-74.8942
0
LINE
8
BLACK
6
CONTINUOUS
10
146.352
20
-74.8942
11
146.356
21
-74.9399
0
LINE
8
BLACK
6
CONTINUOUS
10
146.356
20
-74.9399
11
146.415
21
-75.1216
0
LINE
8
BLACK
6
CONTINUOUS
10
146.415
20
-75.1216
11
146.511
21
-75.2869
0
LINE
8
BLACK
6
CONTINUOUS
10
146.511
20
-75.2869
11
146.515
21
-75.2919
0
LINE
8
BLACK
6
CONTINUOUS
10
146.515
20
-75.2919
11
146.515
21
-75.2919
0
LINE
8
BLACK
6
CONTINUOUS
10
146.515
20
-75.2919
11
146.61
21
-75.3972
0
LINE
8
BLACK
6
CONTINUOUS
10
146.61
20
-75.3972
11
146.639
21
-75.4289
0
LINE
8
BLACK
6
CONTINUOUS
10
146.639
20
-75.4289
11
146.793
21
-75.5411
0
LINE
8
BLACK
6
CONTINUOUS
10
146.793
20
-75.5411
11
146.799
21
-75.5438
0
LINE
8
BLACK
6
CONTINUOUS
10
146.799
20
-75.5438
11
146.799
21
-75.5438
0
LINE
8
BLACK
6
CONTINUOUS
10
146.799
20
-75.5438
11
146.962
21
-75.6161
0
LINE
8
BLACK
6
CONTINUOUS
10
146.962
20
-75.6161
11
146.968
21
-75.6188
0
LINE
8
BLACK
6
CONTINUOUS
10
146.968
20
-75.6188
11
147.061
21
-75.6386
0
LINE
8
BLACK
6
CONTINUOUS
10
147.061
20
-75.6386
11
147.148
21
-75.6571
0
LINE
8
BLACK
6
CONTINUOUS
10
147.148
20
-75.6571
11
147.148
21
-75.6571
0
LINE
8
BLACK
6
CONTINUOUS
10
147.148
20
-75.6571
11
147.155
21
-75.6585
0
LINE
8
BLACK
6
CONTINUOUS
10
147.155
20
-75.6585
11
147.345
21
-75.6585
0
LINE
8
BLACK
6
CONTINUOUS
10
147.345
20
-75.6585
11
147.352
21
-75.6571
0
LINE
8
BLACK
6
CONTINUOUS
10
147.352
20
-75.6571
11
147.352
21
-75.6571
0
LINE
8
BLACK
6
CONTINUOUS
10
147.352
20
-75.6571
11
147.439
21
-75.6386
0
LINE
8
BLACK
6
CONTINUOUS
10
147.439
20
-75.6386
11
147.532
21
-75.6188
0
LINE
8
BLACK
6
CONTINUOUS
10
147.532
20
-75.6188
11
147.538
21
-75.6161
0
LINE
8
BLACK
6
CONTINUOUS
10
147.538
20
-75.6161
11
147.701
21
-75.5438
0
LINE
8
BLACK
6
CONTINUOUS
10
147.701
20
-75.5438
11
147.701
21
-75.5438
0
LINE
8
BLACK
6
CONTINUOUS
10
147.701
20
-75.5438
11
147.707
21
-75.5411
0
LINE
8
BLACK
6
CONTINUOUS
10
147.707
20
-75.5411
11
147.861
21
-75.4289
0
LINE
8
BLACK
6
CONTINUOUS
10
147.861
20
-75.4289
11
147.89
21
-75.3972
0
LINE
8
BLACK
6
CONTINUOUS
10
147.89
20
-75.3972
11
147.985
21
-75.2919
0
LINE
8
BLACK
6
CONTINUOUS
10
147.985
20
-75.2919
11
147.985
21
-75.2919
0
LINE
8
BLACK
6
CONTINUOUS
10
147.985
20
-75.2919
11
147.989
21
-75.2869
0
LINE
8
BLACK
6
CONTINUOUS
10
147.989
20
-75.2869
11
148.085
21
-75.1216
0
LINE
8
BLACK
6
CONTINUOUS
10
148.085
20
-75.1216
11
148.144
21
-74.9399
0
LINE
8
BLACK
6
CONTINUOUS
10
148.144
20
-74.9399
11
148.148
21
-74.8942
0
LINE
8
BLACK
6
CONTINUOUS
10
148.148
20
-74.8942
11
148.163
21
-74.7566
0
LINE
8
BLACK
6
CONTINUOUS
10
148.163
20
-74.7566
11
148.164
21
-74.75
0
LINE
8
BLACK
6
CONTINUOUS
10
148.164
20
-74.75
11
148.151
21
-74.6292
0
LINE
8
BLACK
6
CONTINUOUS
10
148.151
20
-74.6292
11
148.144
21
-74.5666
0
LINE
8
BLACK
6
CONTINUOUS
10
148.144
20
-74.5666
11
148.144
21
-74.5666
0
LINE
8
BLACK
6
CONTINUOUS
10
148.144
20
-74.5666
11
148.144
21
-74.5601
0
LINE
8
BLACK
6
CONTINUOUS
10
148.144
20
-74.5601
11
148.11
21
-74.4561
0
LINE
8
BLACK
6
CONTINUOUS
10
148.11
20
-74.4561
11
148.092
21
-74.4013
0
LINE
8
BLACK
6
CONTINUOUS
10
148.092
20
-74.4013
11
148.09
21
-74.3303
0
LINE
8
BLACK
6
CONTINUOUS
10
148.09
20
-74.3303
11
148.123
21
-74.2732
0
LINE
8
BLACK
6
CONTINUOUS
10
148.123
20
-74.2732
11
148.649
21
-73.747
0
LINE
8
BLACK
6
CONTINUOUS
10
148.649
20
-73.747
11
149.201
21
-73.1954
0
LINE
8
BLACK
6
CONTINUOUS
10
149.201
20
-73.1954
11
149.263
21
-73.1614
0
LINE
8
BLACK
6
CONTINUOUS
10
149.263
20
-73.1614
11
149.29
21
-73.1585
0
LINE
8
BLACK
6
CONTINUOUS
10
149.29
20
-73.1585
11
149.345
21
-73.1585
0
LINE
8
BLACK
6
CONTINUOUS
10
149.345
20
-73.1585
11
149.352
21
-73.1571
0
LINE
8
BLACK
6
CONTINUOUS
10
149.352
20
-73.1571
11
149.352
21
-73.1571
0
LINE
8
BLACK
6
CONTINUOUS
10
149.352
20
-73.1571
11
149.439
21
-73.1386
0
LINE
8
BLACK
6
CONTINUOUS
10
149.439
20
-73.1386
11
149.532
21
-73.1188
0
LINE
8
BLACK
6
CONTINUOUS
10
149.532
20
-73.1188
11
149.578
21
-73.0985
0
LINE
8
BLACK
6
CONTINUOUS
10
149.578
20
-73.0985
11
149.701
21
-73.0438
0
LINE
8
BLACK
6
CONTINUOUS
10
149.701
20
-73.0438
11
149.701
21
-73.0438
0
LINE
8
BLACK
6
CONTINUOUS
10
149.701
20
-73.0438
11
149.707
21
-73.0411
0
LINE
8
BLACK
6
CONTINUOUS
10
149.707
20
-73.0411
11
149.714
21
-73.0356
0
LINE
8
BLACK
6
CONTINUOUS
10
149.714
20
-73.0356
11
149.789
21
-72.9816
0
LINE
8
BLACK
6
CONTINUOUS
10
149.789
20
-72.9816
11
149.861
21
-72.9289
0
LINE
8
BLACK
6
CONTINUOUS
10
149.861
20
-72.9289
11
149.903
21
-72.8828
0
LINE
8
BLACK
6
CONTINUOUS
10
149.903
20
-72.8828
11
149.985
21
-72.7919
0
LINE
8
BLACK
6
CONTINUOUS
10
149.985
20
-72.7919
11
149.985
21
-72.7919
0
LINE
8
BLACK
6
CONTINUOUS
10
149.985
20
-72.7919
11
149.989
21
-72.7869
0
LINE
8
BLACK
6
CONTINUOUS
10
149.989
20
-72.7869
11
150.085
21
-72.6216
0
LINE
8
BLACK
6
CONTINUOUS
10
150.085
20
-72.6216
11
150.134
21
-72.4706
0
LINE
8
BLACK
6
CONTINUOUS
10
150.134
20
-72.4706
11
150.174
21
-72.412
0
LINE
8
BLACK
6
CONTINUOUS
10
150.174
20
-72.412
11
150.239
21
-72.3843
0
LINE
8
BLACK
6
CONTINUOUS
10
150.239
20
-72.3843
11
150.253
21
-72.3835
0
LINE
8
BLACK
6
CONTINUOUS
10
150.253
20
-72.3835
11
151.773
21
-72.3835
0
LINE
8
BLACK
6
CONTINUOUS
10
151.773
20
-72.3835
11
151.841
21
-72.4035
0
LINE
8
BLACK
6
CONTINUOUS
10
151.841
20
-72.4035
11
151.887
21
-72.4572
0
LINE
8
BLACK
6
CONTINUOUS
10
151.887
20
-72.4572
11
151.898
21
-72.5274
0
LINE
8
BLACK
6
CONTINUOUS
10
151.898
20
-72.5274
11
151.884
21
-72.5694
0
LINE
8
BLACK
6
CONTINUOUS
10
151.884
20
-72.5694
11
151.858
21
-72.6176
0
LINE
8
BLACK
6
CONTINUOUS
10
151.858
20
-72.6176
11
151.798
21
-72.8112
0
LINE
8
BLACK
6
CONTINUOUS
10
151.798
20
-72.8112
11
151.777
21
-73.0127
0
LINE
8
BLACK
6
CONTINUOUS
10
151.777
20
-73.0127
11
151.779
21
-73.0349
0
LINE
8
BLACK
6
CONTINUOUS
10
151.779
20
-73.0349
11
151.793
21
-73.1927
0
LINE
8
BLACK
6
CONTINUOUS
10
151.793
20
-73.1927
11
151.795
21
-73.2146
0
LINE
8
BLACK
6
CONTINUOUS
10
151.795
20
-73.2146
11
151.852
21
-73.409
0
LINE
8
BLACK
6
CONTINUOUS
10
151.852
20
-73.409
11
151.855
21
-73.4145
0
LINE
8
BLACK
6
CONTINUOUS
10
151.855
20
-73.4145
11
151.855
21
-73.4145
0
LINE
8
BLACK
6
CONTINUOUS
10
151.855
20
-73.4145
11
151.859
21
-73.4224
0
LINE
8
BLACK
6
CONTINUOUS
10
151.859
20
-73.4224
11
151.946
21
-73.5886
0
LINE
8
BLACK
6
CONTINUOUS
10
151.946
20
-73.5886
11
151.95
21
-73.5934
0
LINE
8
BLACK
6
CONTINUOUS
10
151.95
20
-73.5934
11
151.95
21
-73.5934
0
LINE
8
BLACK
6
CONTINUOUS
10
151.95
20
-73.5934
11
151.965
21
-73.6122
0
LINE
8
BLACK
6
CONTINUOUS
10
151.965
20
-73.6122
11
152.073
21
-73.7466
0
LINE
8
BLACK
6
CONTINUOUS
10
152.073
20
-73.7466
11
152.228
21
-73.8769
0
LINE
8
BLACK
6
CONTINUOUS
10
152.228
20
-73.8769
11
152.234
21
-73.8798
0
LINE
8
BLACK
6
CONTINUOUS
10
152.234
20
-73.8798
11
152.234
21
-73.8798
0
LINE
8
BLACK
6
CONTINUOUS
10
152.234
20
-73.8798
11
152.399
21
-73.971
0
LINE
8
BLACK
6
CONTINUOUS
10
152.399
20
-73.971
11
152.406
21
-73.9745
0
LINE
8
BLACK
6
CONTINUOUS
10
152.406
20
-73.9745
11
152.599
21
-74.0358
0
LINE
8
BLACK
6
CONTINUOUS
10
152.599
20
-74.0358
11
152.605
21
-74.0365
0
LINE
8
BLACK
6
CONTINUOUS
10
152.605
20
-74.0365
11
152.605
21
-74.0365
0
LINE
8
BLACK
6
CONTINUOUS
10
152.605
20
-74.0365
11
152.674
21
-74.0442
0
LINE
8
BLACK
6
CONTINUOUS
10
152.674
20
-74.0442
11
152.757
21
-74.0535
0
LINE
8
BLACK
6
CONTINUOUS
10
152.757
20
-74.0535
11
153.316
21
-74.0535
0
LINE
8
BLACK
6
CONTINUOUS
10
153.316
20
-74.0535
11
153.467
21
-74.0387
0
LINE
8
BLACK
6
CONTINUOUS
10
153.467
20
-74.0387
11
153.661
21
-73.9801
0
LINE
8
BLACK
6
CONTINUOUS
10
153.661
20
-73.9801
11
153.84
21
-73.885
0
LINE
8
BLACK
6
CONTINUOUS
10
153.84
20
-73.885
11
153.852
21
-73.8747
0
LINE
8
BLACK
6
CONTINUOUS
10
153.852
20
-73.8747
11
153.983
21
-73.7681
0
LINE
8
BLACK
6
CONTINUOUS
10
153.983
20
-73.7681
11
153.997
21
-73.7569
0
LINE
8
BLACK
6
CONTINUOUS
10
153.997
20
-73.7569
11
154.001
21
-73.7521
0
LINE
8
BLACK
6
CONTINUOUS
10
154.001
20
-73.7521
11
154.122
21
-73.6055
0
LINE
8
BLACK
6
CONTINUOUS
10
154.122
20
-73.6055
11
154.122
21
-73.6055
0
LINE
8
BLACK
6
CONTINUOUS
10
154.122
20
-73.6055
11
154.126
21
-73.6007
0
LINE
8
BLACK
6
CONTINUOUS
10
154.126
20
-73.6007
11
154.222
21
-73.4224
0
LINE
8
BLACK
6
CONTINUOUS
10
154.222
20
-73.4224
11
154.282
21
-73.2288
0
LINE
8
BLACK
6
CONTINUOUS
10
154.282
20
-73.2288
11
154.287
21
-73.1853
0
LINE
8
BLACK
6
CONTINUOUS
10
154.287
20
-73.1853
11
154.303
21
-73.0334
0
LINE
8
BLACK
6
CONTINUOUS
10
154.303
20
-73.0334
11
154.303
21
-73.0334
0
LINE
8
BLACK
6
CONTINUOUS
10
154.303
20
-73.0334
11
154.303
21
-73.0272
0
LINE
8
BLACK
6
CONTINUOUS
10
154.303
20
-73.0272
11
154.29
21
-72.8758
0
LINE
8
BLACK
6
CONTINUOUS
10
154.29
20
-72.8758
11
154.286
21
-72.8315
0
LINE
8
BLACK
6
CONTINUOUS
10
154.286
20
-72.8315
11
154.286
21
-72.8315
0
LINE
8
BLACK
6
CONTINUOUS
10
154.286
20
-72.8315
11
154.285
21
-72.8254
0
LINE
8
BLACK
6
CONTINUOUS
10
154.285
20
-72.8254
11
154.258
21
-72.7317
0
LINE
8
BLACK
6
CONTINUOUS
10
154.258
20
-72.7317
11
154.234
21
-72.6525
0
LINE
8
BLACK
6
CONTINUOUS
10
154.234
20
-72.6525
11
154.228
21
-72.631
0
LINE
8
BLACK
6
CONTINUOUS
10
154.228
20
-72.631
11
154.224
21
-72.6235
0
LINE
8
BLACK
6
CONTINUOUS
10
154.224
20
-72.6235
11
154.166
21
-72.5123
0
LINE
8
BLACK
6
CONTINUOUS
10
154.166
20
-72.5123
11
154.134
21
-72.4514
0
LINE
8
BLACK
6
CONTINUOUS
10
154.134
20
-72.4514
11
154.134
21
-72.4513
0
LINE
8
BLACK
6
CONTINUOUS
10
154.134
20
-72.4513
11
154.114
21
-72.3856
0
LINE
8
BLACK
6
CONTINUOUS
10
154.114
20
-72.3856
11
154.129
21
-72.3246
0
LINE
8
BLACK
6
CONTINUOUS
10
154.129
20
-72.3246
11
154.17
21
-72.25
0
LINE
8
BLACK
6
CONTINUOUS
10
154.17
20
-72.25
11
154.222
21
-72.1524
0
LINE
8
BLACK
6
CONTINUOUS
10
154.222
20
-72.1524
11
154.262
21
-72.0228
0
LINE
8
BLACK
6
CONTINUOUS
10
154.262
20
-72.0228
11
154.28
21
-71.9647
0
LINE
8
BLACK
6
CONTINUOUS
10
154.28
20
-71.9647
11
154.28
21
-71.9647
0
LINE
8
BLACK
6
CONTINUOUS
10
154.28
20
-71.9647
11
154.282
21
-71.9588
0
LINE
8
BLACK
6
CONTINUOUS
10
154.282
20
-71.9588
11
154.303
21
-71.7572
0
LINE
8
BLACK
6
CONTINUOUS
10
154.303
20
-71.7572
11
154.285
21
-71.5554
0
LINE
8
BLACK
6
CONTINUOUS
10
154.285
20
-71.5554
11
154.228
21
-71.361
0
LINE
8
BLACK
6
CONTINUOUS
10
154.228
20
-71.361
11
154.229
21
-71.3607
0
LINE
8
BLACK
6
CONTINUOUS
10
154.229
20
-71.3607
11
154.222
21
-71.2953
0
LINE
8
BLACK
6
CONTINUOUS
10
154.222
20
-71.2953
11
154.235
21
-71.2586
0
LINE
8
BLACK
6
CONTINUOUS
10
154.235
20
-71.2586
11
154.241
21
-71.2517
0
LINE
8
BLACK
6
CONTINUOUS
10
154.241
20
-71.2517
11
154.27
21
-71.1743
0
LINE
8
BLACK
6
CONTINUOUS
10
154.27
20
-71.1743
11
154.279
21
-71.15
0
LINE
8
BLACK
6
CONTINUOUS
10
154.279
20
-71.15
11
154.292
21
-71.1153
0
LINE
8
BLACK
6
CONTINUOUS
10
154.292
20
-71.1153
11
154.298
21
-71.0531
0
LINE
8
BLACK
6
CONTINUOUS
10
154.298
20
-71.0531
11
154.298
21
-69.9069
0
LINE
8
BLACK
6
CONTINUOUS
10
154.298
20
-69.9069
11
154.292
21
-69.8447
0
LINE
8
BLACK
6
CONTINUOUS
10
154.292
20
-69.8447
11
154.241
21
-69.7083
0
LINE
8
BLACK
6
CONTINUOUS
10
154.241
20
-69.7083
11
154.153
21
-69.5917
0
LINE
8
BLACK
6
CONTINUOUS
10
154.153
20
-69.5917
11
154.037
21
-69.5044
0
LINE
8
BLACK
6
CONTINUOUS
10
154.037
20
-69.5044
11
153.9
21
-69.4533
0
LINE
8
BLACK
6
CONTINUOUS
10
153.9
20
-69.4533
11
153.838
21
-69.4465
0
LINE
8
BLACK
6
CONTINUOUS
10
153.838
20
-69.4465
11
152.242
21
-69.4465
0
LINE
8
BLACK
6
CONTINUOUS
10
152.242
20
-69.4465
11
152.18
21
-69.4533
0
LINE
8
BLACK
6
CONTINUOUS
10
152.18
20
-69.4533
11
152.043
21
-69.5044
0
LINE
8
BLACK
6
CONTINUOUS
10
152.043
20
-69.5044
11
151.927
21
-69.5917
0
LINE
8
BLACK
6
CONTINUOUS
10
151.927
20
-69.5917
11
151.839
21
-69.7083
0
LINE
8
BLACK
6
CONTINUOUS
10
151.839
20
-69.7083
11
151.788
21
-69.8447
0
LINE
8
BLACK
6
CONTINUOUS
10
151.788
20
-69.8447
11
151.781
21
-69.9069
0
LINE
8
BLACK
6
CONTINUOUS
10
151.781
20
-69.9069
11
151.781
21
-70.9905
0
LINE
8
BLACK
6
CONTINUOUS
10
151.781
20
-70.9905
11
151.761
21
-71.0586
0
LINE
8
BLACK
6
CONTINUOUS
10
151.761
20
-71.0586
11
151.708
21
-71.1051
0
LINE
8
BLACK
6
CONTINUOUS
10
151.708
20
-71.1051
11
151.655
21
-71.1165
0
LINE
8
BLACK
6
CONTINUOUS
10
151.655
20
-71.1165
11
149.829
21
-71.1165
0
LINE
8
BLACK
6
CONTINUOUS
10
149.829
20
-71.1165
11
149.818
21
-71.116
0
LINE
8
BLACK
6
CONTINUOUS
10
149.818
20
-71.116
11
149.81
21
-71.1143
0
LINE
8
BLACK
6
CONTINUOUS
10
149.81
20
-71.1143
11
149.802
21
-71.1145
0
LINE
8
BLACK
6
CONTINUOUS
10
149.802
20
-71.1145
11
149.802
21
-71.1145
0
LINE
8
BLACK
6
CONTINUOUS
10
149.802
20
-71.1145
11
149.742
21
-71.1164
0
LINE
8
BLACK
6
CONTINUOUS
10
149.742
20
-71.1164
11
149.738
21
-71.1165
0
LINE
8
BLACK
6
CONTINUOUS
10
149.738
20
-71.1165
11
149.71
21
-71.1165
0
LINE
8
BLACK
6
CONTINUOUS
10
149.71
20
-71.1165
11
149.706
21
-71.117
0
LINE
8
BLACK
6
CONTINUOUS
10
149.706
20
-71.117
11
149.694
21
-71.1179
0
LINE
8
BLACK
6
CONTINUOUS
10
149.694
20
-71.1179
11
149.65
21
-71.1193
0
LINE
8
BLACK
6
CONTINUOUS
10
149.65
20
-71.1193
11
149.642
21
-71.1215
0
LINE
8
BLACK
6
CONTINUOUS
10
149.642
20
-71.1215
11
149.642
21
-71.1215
0
LINE
8
BLACK
6
CONTINUOUS
10
149.642
20
-71.1215
11
149.631
21
-71.125
0
LINE
8
BLACK
6
CONTINUOUS
10
149.631
20
-71.125
11
149.611
21
-71.129
0
LINE
8
BLACK
6
CONTINUOUS
10
149.611
20
-71.129
11
149.591
21
-71.1315
0
LINE
8
BLACK
6
CONTINUOUS
10
149.591
20
-71.1315
11
149.584
21
-71.1344
0
LINE
8
BLACK
6
CONTINUOUS
10
149.584
20
-71.1344
11
149.584
21
-71.1344
0
LINE
8
BLACK
6
CONTINUOUS
10
149.584
20
-71.1344
11
149.55
21
-71.1478
0
LINE
8
BLACK
6
CONTINUOUS
10
149.55
20
-71.1478
11
149.539
21
-71.1516
0
LINE
8
BLACK
6
CONTINUOUS
10
149.539
20
-71.1516
11
149.496
21
-71.164
0
LINE
8
BLACK
6
CONTINUOUS
10
149.496
20
-71.164
11
149.49
21
-71.168
0
LINE
8
BLACK
6
CONTINUOUS
10
149.49
20
-71.168
11
149.479
21
-71.1743
0
LINE
8
BLACK
6
CONTINUOUS
10
149.479
20
-71.1743
11
149.461
21
-71.183
0
LINE
8
BLACK
6
CONTINUOUS
10
149.461
20
-71.183
11
149.442
21
-71.1904
0
LINE
8
BLACK
6
CONTINUOUS
10
149.442
20
-71.1904
11
149.436
21
-71.1951
0
LINE
8
BLACK
6
CONTINUOUS
10
149.436
20
-71.1951
11
149.436
21
-71.1951
0
LINE
8
BLACK
6
CONTINUOUS
10
149.436
20
-71.1951
11
149.407
21
-71.2164
0
LINE
8
BLACK
6
CONTINUOUS
10
149.407
20
-71.2164
11
149.397
21
-71.223
0
LINE
8
BLACK
6
CONTINUOUS
10
149.397
20
-71.223
11
149.365
21
-71.2414
0
LINE
8
BLACK
6
CONTINUOUS
10
149.365
20
-71.2414
11
149.365
21
-71.2414
0
LINE
8
BLACK
6
CONTINUOUS
10
149.365
20
-71.2414
11
149.359
21
-71.2455
0
LINE
8
BLACK
6
CONTINUOUS
10
149.359
20
-71.2455
11
149.344
21
-71.2598
0
LINE
8
BLACK
6
CONTINUOUS
10
149.344
20
-71.2598
11
149.329
21
-71.2726
0
LINE
8
BLACK
6
CONTINUOUS
10
149.329
20
-71.2726
11
149.313
21
-71.2845
0
LINE
8
BLACK
6
CONTINUOUS
10
149.313
20
-71.2845
11
149.308
21
-71.2906
0
LINE
8
BLACK
6
CONTINUOUS
10
149.308
20
-71.2906
11
149.308
21
-71.2906
0
LINE
8
BLACK
6
CONTINUOUS
10
149.308
20
-71.2906
11
149.304
21
-71.2958
0
LINE
8
BLACK
6
CONTINUOUS
10
149.304
20
-71.2958
11
149.245
21
-71.3356
0
LINE
8
BLACK
6
CONTINUOUS
10
149.245
20
-71.3356
11
149.206
21
-71.3415
0
LINE
8
BLACK
6
CONTINUOUS
10
149.206
20
-71.3415
11
149.155
21
-71.3415
0
LINE
8
BLACK
6
CONTINUOUS
10
149.155
20
-71.3415
11
149.148
21
-71.3429
0
LINE
8
BLACK
6
CONTINUOUS
10
149.148
20
-71.3429
11
149.148
21
-71.3429
0
LINE
8
BLACK
6
CONTINUOUS
10
149.148
20
-71.3429
11
149.126
21
-71.3476
0
LINE
8
BLACK
6
CONTINUOUS
10
149.126
20
-71.3476
11
149.055
21
-71.3422
0
LINE
8
BLACK
6
CONTINUOUS
10
149.055
20
-71.3422
11
148.999
21
-71.2993
0
LINE
8
BLACK
6
CONTINUOUS
10
148.999
20
-71.2993
11
148.974
21
-71.2327
0
LINE
8
BLACK
6
CONTINUOUS
10
148.974
20
-71.2327
11
148.989
21
-71.1634
0
LINE
8
BLACK
6
CONTINUOUS
10
148.989
20
-71.1634
11
149.011
21
-71.1352
0
LINE
8
BLACK
6
CONTINUOUS
10
149.011
20
-71.1352
11
149.2
21
-70.9454
0
LINE
8
BLACK
6
CONTINUOUS
10
149.2
20
-70.9454
11
149.263
21
-70.9114
0
LINE
8
BLACK
6
CONTINUOUS
10
149.263
20
-70.9114
11
149.29
21
-70.9085
0
LINE
8
BLACK
6
CONTINUOUS
10
149.29
20
-70.9085
11
149.345
21
-70.9085
0
LINE
8
BLACK
6
CONTINUOUS
10
149.345
20
-70.9085
11
149.352
21
-70.9071
0
LINE
8
BLACK
6
CONTINUOUS
10
149.352
20
-70.9071
11
149.352
21
-70.9071
0
LINE
8
BLACK
6
CONTINUOUS
10
149.352
20
-70.9071
11
149.439
21
-70.8886
0
LINE
8
BLACK
6
CONTINUOUS
10
149.439
20
-70.8886
11
149.532
21
-70.8688
0
LINE
8
BLACK
6
CONTINUOUS
10
149.532
20
-70.8688
11
149.538
21
-70.8661
0
LINE
8
BLACK
6
CONTINUOUS
10
149.538
20
-70.8661
11
149.701
21
-70.7938
0
LINE
8
BLACK
6
CONTINUOUS
10
149.701
20
-70.7938
11
149.701
21
-70.7938
0
LINE
8
BLACK
6
CONTINUOUS
10
149.701
20
-70.7938
11
149.707
21
-70.7911
0
LINE
8
BLACK
6
CONTINUOUS
10
149.707
20
-70.7911
11
149.861
21
-70.6789
0
LINE
8
BLACK
6
CONTINUOUS
10
149.861
20
-70.6789
11
149.989
21
-70.5369
0
LINE
8
BLACK
6
CONTINUOUS
10
149.989
20
-70.5369
11
150.085
21
-70.3716
0
LINE
8
BLACK
6
CONTINUOUS
10
150.085
20
-70.3716
11
150.144
21
-70.1899
0
LINE
8
BLACK
6
CONTINUOUS
10
150.144
20
-70.1899
11
150.164
21
-70
0
LINE
8
BLACK
6
CONTINUOUS
10
150.164
20
-70
11
150.161
21
-69.9753
0
LINE
8
BLACK
6
CONTINUOUS
10
150.161
20
-69.9753
11
150.144
21
-69.8166
0
LINE
8
BLACK
6
CONTINUOUS
10
150.144
20
-69.8166
11
150.144
21
-69.8166
0
LINE
8
BLACK
6
CONTINUOUS
10
150.144
20
-69.8166
11
150.144
21
-69.8101
0
LINE
8
BLACK
6
CONTINUOUS
10
150.144
20
-69.8101
11
150.085
21
-69.6284
0
LINE
8
BLACK
6
CONTINUOUS
10
150.085
20
-69.6284
11
149.989
21
-69.4631
0
LINE
8
BLACK
6
CONTINUOUS
10
149.989
20
-69.4631
11
149.861
21
-69.3211
0
LINE
8
BLACK
6
CONTINUOUS
10
149.861
20
-69.3211
11
149.707
21
-69.2089
0
LINE
8
BLACK
6
CONTINUOUS
10
149.707
20
-69.2089
11
149.701
21
-69.2062
0
LINE
8
BLACK
6
CONTINUOUS
10
149.701
20
-69.2062
11
149.701
21
-69.2062
0
LINE
8
BLACK
6
CONTINUOUS
10
149.701
20
-69.2062
11
149.538
21
-69.1339
0
LINE
8
BLACK
6
CONTINUOUS
10
149.538
20
-69.1339
11
149.538
21
-69.1339
0
LINE
8
BLACK
6
CONTINUOUS
10
149.538
20
-69.1339
11
149.532
21
-69.1312
0
LINE
8
BLACK
6
CONTINUOUS
10
149.532
20
-69.1312
11
149.439
21
-69.1114
0
LINE
8
BLACK
6
CONTINUOUS
10
149.439
20
-69.1114
11
149.352
21
-69.0929
0
LINE
8
BLACK
6
CONTINUOUS
10
149.352
20
-69.0929
11
149.352
21
-69.0929
0
LINE
8
BLACK
6
CONTINUOUS
10
149.352
20
-69.0929
11
149.345
21
-69.0915
0
LINE
8
BLACK
6
CONTINUOUS
10
149.345
20
-69.0915
11
149.155
21
-69.0915
0
LINE
8
BLACK
6
CONTINUOUS
10
149.155
20
-69.0915
11
149.148
21
-69.0929
0
LINE
8
BLACK
6
CONTINUOUS
10
149.148
20
-69.0929
11
149.148
21
-69.0929
0
LINE
8
BLACK
6
CONTINUOUS
10
149.148
20
-69.0929
11
149.061
21
-69.1114
0
LINE
8
BLACK
6
CONTINUOUS
10
149.061
20
-69.1114
11
148.968
21
-69.1312
0
LINE
8
BLACK
6
CONTINUOUS
10
148.968
20
-69.1312
11
148.962
21
-69.1339
0
LINE
8
BLACK
6
CONTINUOUS
10
148.962
20
-69.1339
11
148.962
21
-69.1339
0
LINE
8
BLACK
6
CONTINUOUS
10
148.962
20
-69.1339
11
148.799
21
-69.2062
0
LINE
8
BLACK
6
CONTINUOUS
10
148.799
20
-69.2062
11
148.799
21
-69.2062
0
LINE
8
BLACK
6
CONTINUOUS
10
148.799
20
-69.2062
11
148.793
21
-69.2089
0
LINE
8
BLACK
6
CONTINUOUS
10
148.793
20
-69.2089
11
148.639
21
-69.3211
0
LINE
8
BLACK
6
CONTINUOUS
10
148.639
20
-69.3211
11
148.511
21
-69.4631
0
LINE
8
BLACK
6
CONTINUOUS
10
148.511
20
-69.4631
11
148.415
21
-69.6284
0
LINE
8
BLACK
6
CONTINUOUS
10
148.415
20
-69.6284
11
148.356
21
-69.8101
0
LINE
8
BLACK
6
CONTINUOUS
10
148.356
20
-69.8101
11
148.356
21
-69.8166
0
LINE
8
BLACK
6
CONTINUOUS
10
148.356
20
-69.8166
11
148.356
21
-69.8166
0
LINE
8
BLACK
6
CONTINUOUS
10
148.356
20
-69.8166
11
148.339
21
-69.9753
0
LINE
8
BLACK
6
CONTINUOUS
10
148.339
20
-69.9753
11
148.312
21
-70.0409
0
LINE
8
BLACK
6
CONTINUOUS
10
148.312
20
-70.0409
11
148.303
21
-70.0512
0
LINE
8
BLACK
6
CONTINUOUS
10
148.303
20
-70.0512
11
144.26
21
-74.0946
0
LINE
8
BLACK
6
CONTINUOUS
10
144.26
20
-74.0946
11
144.197
21
-74.1286
0
LINE
8
BLACK
6
CONTINUOUS
10
144.197
20
-74.1286
11
144.17
21
-74.1315
0
LINE
8
BLACK
6
CONTINUOUS
10
144.17
20
-74.1315
11
139.527
21
-74.1315
0
LINE
8
BLACK
6
CONTINUOUS
10
139.527
20
-74.1315
11
139.459
21
-74.1115
0
LINE
8
BLACK
6
CONTINUOUS
10
139.459
20
-74.1115
11
139.421
21
-74.0739
0
LINE
8
BLACK
6
CONTINUOUS
10
139.421
20
-74.0739
11
139.333
21
-73.9376
0
LINE
8
BLACK
6
CONTINUOUS
10
139.333
20
-73.9376
11
139.333
21
-73.9376
0
LINE
8
BLACK
6
CONTINUOUS
10
139.333
20
-73.9376
11
139.33
21
-73.9333
0
LINE
8
BLACK
6
CONTINUOUS
10
139.33
20
-73.9333
11
139.327
21
-73.9295
0
LINE
8
BLACK
6
CONTINUOUS
10
139.327
20
-73.9295
11
139.183
21
-73.7715
0
LINE
8
BLACK
6
CONTINUOUS
10
139.183
20
-73.7715
11
139.152
21
-73.7076
0
LINE
8
BLACK
6
CONTINUOUS
10
139.152
20
-73.7076
11
139.16
21
-73.6371
0
LINE
8
BLACK
6
CONTINUOUS
10
139.16
20
-73.6371
11
139.205
21
-73.5824
0
LINE
8
BLACK
6
CONTINUOUS
10
139.205
20
-73.5824
11
139.232
21
-73.5687
0
LINE
8
BLACK
6
CONTINUOUS
10
139.232
20
-73.5687
11
139.338
21
-73.5288
0
LINE
8
BLACK
6
CONTINUOUS
10
139.338
20
-73.5288
11
139.347
21
-73.5256
0
LINE
8
BLACK
6
CONTINUOUS
10
139.347
20
-73.5256
11
139.463
21
-73.4383
0
LINE
8
BLACK
6
CONTINUOUS
10
139.463
20
-73.4383
11
139.551
21
-73.3217
0
LINE
8
BLACK
6
CONTINUOUS
10
139.551
20
-73.3217
11
139.602
21
-73.1853
0
LINE
8
BLACK
6
CONTINUOUS
10
139.602
20
-73.1853
11
139.608
21
-73.1231
0
LINE
8
BLACK
6
CONTINUOUS
10
139.608
20
-73.1231
11
139.608
21
-71.3269
0
LINE
8
BLACK
6
CONTINUOUS
10
139.608
20
-71.3269
11
139.602
21
-71.2647
0
LINE
8
BLACK
6
CONTINUOUS
10
139.602
20
-71.2647
11
139.551
21
-71.1283
0
LINE
8
BLACK
6
CONTINUOUS
10
139.551
20
-71.1283
11
139.463
21
-71.0117
0
LINE
8
BLACK
6
CONTINUOUS
10
139.463
20
-71.0117
11
139.347
21
-70.9244
0
LINE
8
BLACK
6
CONTINUOUS
10
139.347
20
-70.9244
11
139.21
21
-70.8733
0
LINE
8
BLACK
6
CONTINUOUS
10
139.21
20
-70.8733
11
139.148
21
-70.8665
0
LINE
8
BLACK
6
CONTINUOUS
10
139.148
20
-70.8665
11
137.352
21
-70.8665
0
LINE
8
BLACK
6
CONTINUOUS
10
137.352
20
-70.8665
11
137.29
21
-70.8733
0
LINE
8
BLACK
6
CONTINUOUS
10
137.29
20
-70.8733
11
137.153
21
-70.9244
0
LINE
8
BLACK
6
CONTINUOUS
10
137.153
20
-70.9244
11
137.037
21
-71.0117
0
LINE
8
BLACK
6
CONTINUOUS
10
137.037
20
-71.0117
11
136.949
21
-71.1283
0
LINE
8
BLACK
6
CONTINUOUS
10
136.949
20
-71.1283
11
136.898
21
-71.2647
0
LINE
8
BLACK
6
CONTINUOUS
10
136.898
20
-71.2647
11
136.892
21
-71.3269
0
LINE
8
BLACK
6
CONTINUOUS
10
136.892
20
-71.3269
11
136.892
21
-73.1231
0
LINE
8
BLACK
6
CONTINUOUS
10
136.892
20
-73.1231
11
136.898
21
-73.1853
0
LINE
8
BLACK
6
CONTINUOUS
10
136.898
20
-73.1853
11
136.949
21
-73.3217
0
LINE
8
BLACK
6
CONTINUOUS
10
136.949
20
-73.3217
11
137.037
21
-73.4383
0
LINE
8
BLACK
6
CONTINUOUS
10
137.037
20
-73.4383
11
137.153
21
-73.5256
0
LINE
8
BLACK
6
CONTINUOUS
10
137.153
20
-73.5256
11
137.162
21
-73.5288
0
LINE
8
BLACK
6
CONTINUOUS
10
137.162
20
-73.5288
11
137.162
21
-73.5288
0
LINE
8
BLACK
6
CONTINUOUS
10
137.162
20
-73.5288
11
137.27
21
-73.5695
0
LINE
8
BLACK
6
CONTINUOUS
10
137.27
20
-73.5695
11
137.327
21
-73.6122
0
LINE
8
BLACK
6
CONTINUOUS
10
137.327
20
-73.6122
11
137.352
21
-73.6787
0
LINE
8
BLACK
6
CONTINUOUS
10
137.352
20
-73.6787
11
137.337
21
-73.7481
0
LINE
8
BLACK
6
CONTINUOUS
10
137.337
20
-73.7481
11
137.317
21
-73.7746
0
LINE
8
BLACK
6
CONTINUOUS
10
137.317
20
-73.7746
11
137.209
21
-73.8879
0
LINE
8
BLACK
6
CONTINUOUS
10
137.209
20
-73.8879
11
137.191
21
-73.9071
0
LINE
8
BLACK
6
CONTINUOUS
10
137.191
20
-73.9071
11
137.188
21
-73.9114
0
LINE
8
BLACK
6
CONTINUOUS
10
137.188
20
-73.9114
11
137.188
21
-73.9114
0
LINE
8
BLACK
6
CONTINUOUS
10
137.188
20
-73.9114
11
137.178
21
-73.925
0
LINE
8
BLACK
6
CONTINUOUS
10
137.178
20
-73.925
11
137.065
21
-74.0917
0
LINE
8
BLACK
6
CONTINUOUS
10
137.065
20
-74.0917
11
137.051
21
-74.122
0
LINE
8
BLACK
6
CONTINUOUS
10
137.051
20
-74.122
11
136.98
21
-74.2732
0
LINE
8
BLACK
6
CONTINUOUS
10
136.98
20
-74.2732
11
136.971
21
-74.2943
0
LINE
8
BLACK
6
CONTINUOUS
10
136.971
20
-74.2943
11
136.911
21
-74.5096
0
LINE
8
BLACK
6
CONTINUOUS
10
136.911
20
-74.5096
11
136.887
21
-74.7317
0
LINE
8
BLACK
6
CONTINUOUS
10
136.887
20
-74.7317
11
136.888
21
-74.7368
0
LINE
8
BLACK
6
CONTINUOUS
10
136.888
20
-74.7368
11
136.888
21
-74.7369
0
LINE
8
BLACK
6
CONTINUOUS
10
161.434
20
-73.0353
11
161.449
21
-73.0261
0
LINE
8
BLACK
6
CONTINUOUS
10
161.449
20
-73.0261
11
161.618
21
-72.9687
0
LINE
8
BLACK
6
CONTINUOUS
10
161.618
20
-72.9687
11
161.796
21
-72.95
0
LINE
8
BLACK
6
CONTINUOUS
10
161.796
20
-72.95
11
161.973
21
-72.9711
0
LINE
8
BLACK
6
CONTINUOUS
10
161.973
20
-72.9711
11
162.141
21
-73.031
0
LINE
8
BLACK
6
CONTINUOUS
10
162.141
20
-73.031
11
162.146
21
-73.0345
0
LINE
8
BLACK
6
CONTINUOUS
10
162.146
20
-73.0345
11
162.505
21
-72.6757
0
LINE
8
BLACK
6
CONTINUOUS
10
162.505
20
-72.6757
11
162.512
21
-72.6639
0
LINE
8
BLACK
6
CONTINUOUS
10
162.512
20
-72.6639
11
162.502
21
-72.6519
0
LINE
8
BLACK
6
CONTINUOUS
10
162.502
20
-72.6519
11
162.451
21
-72.6161
0
LINE
8
BLACK
6
CONTINUOUS
10
162.451
20
-72.6161
11
162.442
21
-72.6106
0
LINE
8
BLACK
6
CONTINUOUS
10
162.442
20
-72.6106
11
162.244
21
-72.5185
0
LINE
8
BLACK
6
CONTINUOUS
10
162.244
20
-72.5185
11
162.234
21
-72.5148
0
LINE
8
BLACK
6
CONTINUOUS
10
162.234
20
-72.5148
11
162.023
21
-72.4584
0
LINE
8
BLACK
6
CONTINUOUS
10
162.023
20
-72.4584
11
162.013
21
-72.4565
0
LINE
8
BLACK
6
CONTINUOUS
10
162.013
20
-72.4565
11
161.795
21
-72.4375
0
LINE
8
BLACK
6
CONTINUOUS
10
161.795
20
-72.4375
11
161.785
21
-72.4375
0
LINE
8
BLACK
6
CONTINUOUS
10
161.785
20
-72.4375
11
161.567
21
-72.4565
0
LINE
8
BLACK
6
CONTINUOUS
10
161.567
20
-72.4565
11
161.557
21
-72.4584
0
LINE
8
BLACK
6
CONTINUOUS
10
161.557
20
-72.4584
11
161.346
21
-72.5148
0
LINE
8
BLACK
6
CONTINUOUS
10
161.346
20
-72.5148
11
161.336
21
-72.5185
0
LINE
8
BLACK
6
CONTINUOUS
10
161.336
20
-72.5185
11
161.138
21
-72.6106
0
LINE
8
BLACK
6
CONTINUOUS
10
161.138
20
-72.6106
11
161.129
21
-72.6161
0
LINE
8
BLACK
6
CONTINUOUS
10
161.129
20
-72.6161
11
161.077
21
-72.6525
0
LINE
8
BLACK
6
CONTINUOUS
10
161.077
20
-72.6525
11
161.069
21
-72.663
0
LINE
8
BLACK
6
CONTINUOUS
10
161.069
20
-72.663
11
161.076
21
-72.6764
0
LINE
8
BLACK
6
CONTINUOUS
10
161.076
20
-72.6764
11
161.434
21
-73.0353
0
LINE
8
BLACK
6
CONTINUOUS
10
161.973
20
-75.7711
11
162.141
21
-75.831
0
LINE
8
BLACK
6
CONTINUOUS
10
162.141
20
-75.831
11
162.291
21
-75.9265
0
LINE
8
BLACK
6
CONTINUOUS
10
162.291
20
-75.9265
11
162.417
21
-76.0531
0
LINE
8
BLACK
6
CONTINUOUS
10
162.417
20
-76.0531
11
162.511
21
-76.2043
0
LINE
8
BLACK
6
CONTINUOUS
10
162.511
20
-76.2043
11
162.57
21
-76.3728
0
LINE
8
BLACK
6
CONTINUOUS
10
162.57
20
-76.3728
11
162.59
21
-76.55
0
LINE
8
BLACK
6
CONTINUOUS
10
162.59
20
-76.55
11
162.59
21
-76.5723
0
LINE
8
BLACK
6
CONTINUOUS
10
162.59
20
-76.5723
11
162.565
21
-76.749
0
LINE
8
BLACK
6
CONTINUOUS
10
162.565
20
-76.749
11
162.502
21
-76.9157
0
LINE
8
BLACK
6
CONTINUOUS
10
162.502
20
-76.9157
11
162.403
21
-77.0642
0
LINE
8
BLACK
6
CONTINUOUS
10
162.403
20
-77.0642
11
162.274
21
-77.1872
0
LINE
8
BLACK
6
CONTINUOUS
10
162.274
20
-77.1872
11
162.12
21
-77.2785
0
LINE
8
BLACK
6
CONTINUOUS
10
162.12
20
-77.2785
11
161.951
21
-77.3337
0
LINE
8
BLACK
6
CONTINUOUS
10
161.951
20
-77.3337
11
161.773
21
-77.3498
0
LINE
8
BLACK
6
CONTINUOUS
10
161.773
20
-77.3498
11
161.596
21
-77.3262
0
LINE
8
BLACK
6
CONTINUOUS
10
161.596
20
-77.3262
11
161.429
21
-77.2641
0
LINE
8
BLACK
6
CONTINUOUS
10
161.429
20
-77.2641
11
161.28
21
-77.1664
0
LINE
8
BLACK
6
CONTINUOUS
10
161.28
20
-77.1664
11
161.156
21
-77.0381
0
LINE
8
BLACK
6
CONTINUOUS
10
161.156
20
-77.0381
11
161.064
21
-76.8856
0
LINE
8
BLACK
6
CONTINUOUS
10
161.064
20
-76.8856
11
161.007
21
-76.7163
0
LINE
8
BLACK
6
CONTINUOUS
10
161.007
20
-76.7163
11
160.99
21
-76.5388
0
LINE
8
BLACK
6
CONTINUOUS
10
160.99
20
-76.5388
11
161.012
21
-76.3619
0
LINE
8
BLACK
6
CONTINUOUS
10
161.012
20
-76.3619
11
161.073
21
-76.1943
0
LINE
8
BLACK
6
CONTINUOUS
10
161.073
20
-76.1943
11
161.17
21
-76.0444
0
LINE
8
BLACK
6
CONTINUOUS
10
161.17
20
-76.0444
11
161.297
21
-75.9196
0
LINE
8
BLACK
6
CONTINUOUS
10
161.297
20
-75.9196
11
161.449
21
-75.8261
0
LINE
8
BLACK
6
CONTINUOUS
10
161.449
20
-75.8261
11
161.618
21
-75.7687
0
LINE
8
BLACK
6
CONTINUOUS
10
161.618
20
-75.7687
11
161.796
21
-75.75
0
LINE
8
BLACK
6
CONTINUOUS
10
161.796
20
-75.75
11
161.973
21
-75.7711
0
LINE
8
BLACK
6
CONTINUOUS
10
149.374
20
-69.6196
11
149.485
21
-69.6764
0
LINE
8
BLACK
6
CONTINUOUS
10
149.485
20
-69.6764
11
149.574
21
-69.7649
0
LINE
8
BLACK
6
CONTINUOUS
10
149.574
20
-69.7649
11
149.63
21
-69.8764
0
LINE
8
BLACK
6
CONTINUOUS
10
149.63
20
-69.8764
11
149.65
21
-70
0
LINE
8
BLACK
6
CONTINUOUS
10
149.65
20
-70
11
149.63
21
-70.1236
0
LINE
8
BLACK
6
CONTINUOUS
10
149.63
20
-70.1236
11
149.574
21
-70.2351
0
LINE
8
BLACK
6
CONTINUOUS
10
149.574
20
-70.2351
11
149.485
21
-70.3236
0
LINE
8
BLACK
6
CONTINUOUS
10
149.485
20
-70.3236
11
149.374
21
-70.3804
0
LINE
8
BLACK
6
CONTINUOUS
10
149.374
20
-70.3804
11
149.25
21
-70.4
0
LINE
8
BLACK
6
CONTINUOUS
10
149.25
20
-70.4
11
149.126
21
-70.3804
0
LINE
8
BLACK
6
CONTINUOUS
10
149.126
20
-70.3804
11
149.073
21
-70.3534
0
LINE
8
BLACK
6
CONTINUOUS
10
149.073
20
-70.3534
11
144.573
21
-74.8534
0
LINE
8
BLACK
6
CONTINUOUS
10
144.573
20
-74.8534
11
144.556
21
-74.8667
0
LINE
8
BLACK
6
CONTINUOUS
10
144.556
20
-74.8667
11
144.553
21
-74.8702
0
LINE
8
BLACK
6
CONTINUOUS
10
144.553
20
-74.8702
11
144.55
21
-74.871
0
LINE
8
BLACK
6
CONTINUOUS
10
144.55
20
-74.871
11
144.545
21
-74.8749
0
LINE
8
BLACK
6
CONTINUOUS
10
144.545
20
-74.8749
11
144.515
21
-74.8813
0
LINE
8
BLACK
6
CONTINUOUS
10
144.515
20
-74.8813
11
144.485
21
-74.89
0
LINE
8
BLACK
6
CONTINUOUS
10
144.485
20
-74.89
11
139.087
21
-74.89
0
LINE
8
BLACK
6
CONTINUOUS
10
139.087
20
-74.89
11
139.081
21
-74.9417
0
LINE
8
BLACK
6
CONTINUOUS
10
139.081
20
-74.9417
11
139.027
21
-75.1107
0
LINE
8
BLACK
6
CONTINUOUS
10
139.027
20
-75.1107
11
138.938
21
-75.2646
0
LINE
8
BLACK
6
CONTINUOUS
10
138.938
20
-75.2646
11
138.819
21
-75.3967
0
LINE
8
BLACK
6
CONTINUOUS
10
138.819
20
-75.3967
11
138.675
21
-75.5011
0
LINE
8
BLACK
6
CONTINUOUS
10
138.675
20
-75.5011
11
138.513
21
-75.5734
0
LINE
8
BLACK
6
CONTINUOUS
10
138.513
20
-75.5734
11
138.339
21
-75.6103
0
LINE
8
BLACK
6
CONTINUOUS
10
138.339
20
-75.6103
11
138.161
21
-75.6103
0
LINE
8
BLACK
6
CONTINUOUS
10
138.161
20
-75.6103
11
137.987
21
-75.5734
0
LINE
8
BLACK
6
CONTINUOUS
10
137.987
20
-75.5734
11
137.825
21
-75.5011
0
LINE
8
BLACK
6
CONTINUOUS
10
137.825
20
-75.5011
11
137.681
21
-75.3967
0
LINE
8
BLACK
6
CONTINUOUS
10
137.681
20
-75.3967
11
137.562
21
-75.2646
0
LINE
8
BLACK
6
CONTINUOUS
10
137.562
20
-75.2646
11
137.473
21
-75.1107
0
LINE
8
BLACK
6
CONTINUOUS
10
137.473
20
-75.1107
11
137.419
21
-74.9417
0
LINE
8
BLACK
6
CONTINUOUS
10
137.419
20
-74.9417
11
137.4
21
-74.765
0
LINE
8
BLACK
6
CONTINUOUS
10
137.4
20
-74.765
11
137.419
21
-74.5883
0
LINE
8
BLACK
6
CONTINUOUS
10
137.419
20
-74.5883
11
137.473
21
-74.4193
0
LINE
8
BLACK
6
CONTINUOUS
10
137.473
20
-74.4193
11
137.562
21
-74.2654
0
LINE
8
BLACK
6
CONTINUOUS
10
137.562
20
-74.2654
11
137.681
21
-74.1333
0
LINE
8
BLACK
6
CONTINUOUS
10
137.681
20
-74.1333
11
137.825
21
-74.0289
0
LINE
8
BLACK
6
CONTINUOUS
10
137.825
20
-74.0289
11
137.987
21
-73.9566
0
LINE
8
BLACK
6
CONTINUOUS
10
137.987
20
-73.9566
11
138.161
21
-73.9197
0
LINE
8
BLACK
6
CONTINUOUS
10
138.161
20
-73.9197
11
138.339
21
-73.9197
0
LINE
8
BLACK
6
CONTINUOUS
10
138.339
20
-73.9197
11
138.513
21
-73.9566
0
LINE
8
BLACK
6
CONTINUOUS
10
138.513
20
-73.9566
11
138.675
21
-74.0289
0
LINE
8
BLACK
6
CONTINUOUS
10
138.675
20
-74.0289
11
138.819
21
-74.1333
0
LINE
8
BLACK
6
CONTINUOUS
10
138.819
20
-74.1333
11
138.938
21
-74.2654
0
LINE
8
BLACK
6
CONTINUOUS
10
138.938
20
-74.2654
11
139.027
21
-74.4193
0
LINE
8
BLACK
6
CONTINUOUS
10
139.027
20
-74.4193
11
139.081
21
-74.5883
0
LINE
8
BLACK
6
CONTINUOUS
10
139.081
20
-74.5883
11
139.087
21
-74.64
0
LINE
8
BLACK
6
CONTINUOUS
10
139.087
20
-74.64
11
144.433
21
-74.64
0
LINE
8
BLACK
6
CONTINUOUS
10
144.433
20
-74.64
11
148.897
21
-70.1766
0
LINE
8
BLACK
6
CONTINUOUS
10
148.897
20
-70.1766
11
148.87
21
-70.1236
0
LINE
8
BLACK
6
CONTINUOUS
10
148.87
20
-70.1236
11
148.85
21
-70
0
LINE
8
BLACK
6
CONTINUOUS
10
148.85
20
-70
11
148.87
21
-69.8764
0
LINE
8
BLACK
6
CONTINUOUS
10
148.87
20
-69.8764
11
148.926
21
-69.7649
0
LINE
8
BLACK
6
CONTINUOUS
10
148.926
20
-69.7649
11
149.015
21
-69.6764
0
LINE
8
BLACK
6
CONTINUOUS
10
149.015
20
-69.6764
11
149.126
21
-69.6196
0
LINE
8
BLACK
6
CONTINUOUS
10
149.126
20
-69.6196
11
149.25
21
-69.6
0
LINE
8
BLACK
6
CONTINUOUS
10
149.25
20
-69.6
11
149.374
21
-69.6196
0
LINE
8
BLACK
6
CONTINUOUS
10
153.342
20
-71.2306
11
153.479
21
-71.2704
0
LINE
8
BLACK
6
CONTINUOUS
10
153.479
20
-71.2704
11
153.6
21
-71.3455
0
LINE
8
BLACK
6
CONTINUOUS
10
153.6
20
-71.3455
11
153.696
21
-71.4504
0
LINE
8
BLACK
6
CONTINUOUS
10
153.696
20
-71.4504
11
153.761
21
-71.5773
0
LINE
8
BLACK
6
CONTINUOUS
10
153.761
20
-71.5773
11
153.789
21
-71.717
0
LINE
8
BLACK
6
CONTINUOUS
10
153.789
20
-71.717
11
153.779
21
-71.8592
0
LINE
8
BLACK
6
CONTINUOUS
10
153.779
20
-71.8592
11
153.73
21
-71.9932
0
LINE
8
BLACK
6
CONTINUOUS
10
153.73
20
-71.9932
11
153.648
21
-72.1094
0
LINE
8
BLACK
6
CONTINUOUS
10
153.648
20
-72.1094
11
153.537
21
-72.1991
0
LINE
8
BLACK
6
CONTINUOUS
10
153.537
20
-72.1991
11
153.406
21
-72.2557
0
LINE
8
BLACK
6
CONTINUOUS
10
153.406
20
-72.2557
11
153.265
21
-72.275
0
LINE
8
BLACK
6
CONTINUOUS
10
153.265
20
-72.275
11
152.815
21
-72.275
0
LINE
8
BLACK
6
CONTINUOUS
10
152.815
20
-72.275
11
152.738
21
-72.2694
0
LINE
8
BLACK
6
CONTINUOUS
10
152.738
20
-72.2694
11
152.601
21
-72.2296
0
LINE
8
BLACK
6
CONTINUOUS
10
152.601
20
-72.2296
11
152.48
21
-72.1545
0
LINE
8
BLACK
6
CONTINUOUS
10
152.48
20
-72.1545
11
152.384
21
-72.0496
0
LINE
8
BLACK
6
CONTINUOUS
10
152.384
20
-72.0496
11
152.319
21
-71.9227
0
LINE
8
BLACK
6
CONTINUOUS
10
152.319
20
-71.9227
11
152.31
21
-71.875
0
LINE
8
BLACK
6
CONTINUOUS
10
152.31
20
-71.875
11
149.802
21
-71.875
0
LINE
8
BLACK
6
CONTINUOUS
10
149.802
20
-71.875
11
149.603
21
-72.0734
0
LINE
8
BLACK
6
CONTINUOUS
10
149.603
20
-72.0734
11
149.63
21
-72.1264
0
LINE
8
BLACK
6
CONTINUOUS
10
149.63
20
-72.1264
11
149.65
21
-72.25
0
LINE
8
BLACK
6
CONTINUOUS
10
149.65
20
-72.25
11
149.63
21
-72.3736
0
LINE
8
BLACK
6
CONTINUOUS
10
149.63
20
-72.3736
11
149.574
21
-72.4851
0
LINE
8
BLACK
6
CONTINUOUS
10
149.574
20
-72.4851
11
149.485
21
-72.5736
0
LINE
8
BLACK
6
CONTINUOUS
10
149.485
20
-72.5736
11
149.374
21
-72.6304
0
LINE
8
BLACK
6
CONTINUOUS
10
149.374
20
-72.6304
11
149.25
21
-72.65
0
LINE
8
BLACK
6
CONTINUOUS
10
149.25
20
-72.65
11
149.126
21
-72.6304
0
LINE
8
BLACK
6
CONTINUOUS
10
149.126
20
-72.6304
11
149.073
21
-72.6034
0
LINE
8
BLACK
6
CONTINUOUS
10
149.073
20
-72.6034
11
147.375
21
-74.3018
0
LINE
8
BLACK
6
CONTINUOUS
10
147.375
20
-74.3018
11
147.375
21
-74.3703
0
LINE
8
BLACK
6
CONTINUOUS
10
147.375
20
-74.3703
11
147.485
21
-74.4264
0
LINE
8
BLACK
6
CONTINUOUS
10
147.485
20
-74.4264
11
147.574
21
-74.5149
0
LINE
8
BLACK
6
CONTINUOUS
10
147.574
20
-74.5149
11
147.63
21
-74.6264
0
LINE
8
BLACK
6
CONTINUOUS
10
147.63
20
-74.6264
11
147.65
21
-74.75
0
LINE
8
BLACK
6
CONTINUOUS
10
147.65
20
-74.75
11
147.63
21
-74.8736
0
LINE
8
BLACK
6
CONTINUOUS
10
147.63
20
-74.8736
11
147.574
21
-74.9851
0
LINE
8
BLACK
6
CONTINUOUS
10
147.574
20
-74.9851
11
147.485
21
-75.0736
0
LINE
8
BLACK
6
CONTINUOUS
10
147.485
20
-75.0736
11
147.374
21
-75.1304
0
LINE
8
BLACK
6
CONTINUOUS
10
147.374
20
-75.1304
11
147.25
21
-75.15
0
LINE
8
BLACK
6
CONTINUOUS
10
147.25
20
-75.15
11
147.126
21
-75.1304
0
LINE
8
BLACK
6
CONTINUOUS
10
147.126
20
-75.1304
11
147.015
21
-75.0736
0
LINE
8
BLACK
6
CONTINUOUS
10
147.015
20
-75.0736
11
146.926
21
-74.9851
0
LINE
8
BLACK
6
CONTINUOUS
10
146.926
20
-74.9851
11
146.87
21
-74.8736
0
LINE
8
BLACK
6
CONTINUOUS
10
146.87
20
-74.8736
11
146.85
21
-74.75
0
LINE
8
BLACK
6
CONTINUOUS
10
146.85
20
-74.75
11
146.87
21
-74.6264
0
LINE
8
BLACK
6
CONTINUOUS
10
146.87
20
-74.6264
11
146.926
21
-74.5149
0
LINE
8
BLACK
6
CONTINUOUS
10
146.926
20
-74.5149
11
147.015
21
-74.4264
0
LINE
8
BLACK
6
CONTINUOUS
10
147.015
20
-74.4264
11
147.125
21
-74.3703
0
LINE
8
BLACK
6
CONTINUOUS
10
147.125
20
-74.3703
11
147.125
21
-74.25
0
LINE
8
BLACK
6
CONTINUOUS
10
147.125
20
-74.25
11
147.128
21
-74.228
0
LINE
8
BLACK
6
CONTINUOUS
10
147.128
20
-74.228
11
147.128
21
-74.2234
0
LINE
8
BLACK
6
CONTINUOUS
10
147.128
20
-74.2234
11
147.129
21
-74.2209
0
LINE
8
BLACK
6
CONTINUOUS
10
147.129
20
-74.2209
11
147.13
21
-74.2145
0
LINE
8
BLACK
6
CONTINUOUS
10
147.13
20
-74.2145
11
147.147
21
-74.1886
0
LINE
8
BLACK
6
CONTINUOUS
10
147.147
20
-74.1886
11
147.162
21
-74.1616
0
LINE
8
BLACK
6
CONTINUOUS
10
147.162
20
-74.1616
11
148.897
21
-72.4266
0
LINE
8
BLACK
6
CONTINUOUS
10
148.897
20
-72.4266
11
148.87
21
-72.3736
0
LINE
8
BLACK
6
CONTINUOUS
10
148.87
20
-72.3736
11
148.85
21
-72.25
0
LINE
8
BLACK
6
CONTINUOUS
10
148.85
20
-72.25
11
148.87
21
-72.1264
0
LINE
8
BLACK
6
CONTINUOUS
10
148.87
20
-72.1264
11
148.926
21
-72.0149
0
LINE
8
BLACK
6
CONTINUOUS
10
148.926
20
-72.0149
11
149.015
21
-71.9264
0
LINE
8
BLACK
6
CONTINUOUS
10
149.015
20
-71.9264
11
149.126
21
-71.8696
0
LINE
8
BLACK
6
CONTINUOUS
10
149.126
20
-71.8696
11
149.25
21
-71.85
0
LINE
8
BLACK
6
CONTINUOUS
10
149.25
20
-71.85
11
149.374
21
-71.8696
0
LINE
8
BLACK
6
CONTINUOUS
10
149.374
20
-71.8696
11
149.427
21
-71.8966
0
LINE
8
BLACK
6
CONTINUOUS
10
149.427
20
-71.8966
11
149.662
21
-71.6616
0
LINE
8
BLACK
6
CONTINUOUS
10
149.662
20
-71.6616
11
149.679
21
-71.6483
0
LINE
8
BLACK
6
CONTINUOUS
10
149.679
20
-71.6483
11
149.682
21
-71.6448
0
LINE
8
BLACK
6
CONTINUOUS
10
149.682
20
-71.6448
11
149.685
21
-71.644
0
LINE
8
BLACK
6
CONTINUOUS
10
149.685
20
-71.644
11
149.69
21
-71.6401
0
LINE
8
BLACK
6
CONTINUOUS
10
149.69
20
-71.6401
11
149.72
21
-71.6337
0
LINE
8
BLACK
6
CONTINUOUS
10
149.72
20
-71.6337
11
149.75
21
-71.625
0
LINE
8
BLACK
6
CONTINUOUS
10
149.75
20
-71.625
11
152.307
21
-71.625
0
LINE
8
BLACK
6
CONTINUOUS
10
152.307
20
-71.625
11
152.35
21
-71.5068
0
LINE
8
BLACK
6
CONTINUOUS
10
152.35
20
-71.5068
11
152.432
21
-71.3906
0
LINE
8
BLACK
6
CONTINUOUS
10
152.432
20
-71.3906
11
152.543
21
-71.3009
0
LINE
8
BLACK
6
CONTINUOUS
10
152.543
20
-71.3009
11
152.674
21
-71.2443
0
LINE
8
BLACK
6
CONTINUOUS
10
152.674
20
-71.2443
11
152.815
21
-71.225
0
LINE
8
BLACK
6
CONTINUOUS
10
152.815
20
-71.225
11
153.265
21
-71.225
0
LINE
8
BLACK
6
CONTINUOUS
10
153.265
20
-71.225
11
153.342
21
-71.2306
0
LINE
8
BLACK
6
CONTINUOUS
10
153.342
20
-72.5006
11
153.479
21
-72.5404
0
LINE
8
BLACK
6
CONTINUOUS
10
153.479
20
-72.5404
11
153.6
21
-72.6155
0
LINE
8
BLACK
6
CONTINUOUS
10
153.6
20
-72.6155
11
153.696
21
-72.7204
0
LINE
8
BLACK
6
CONTINUOUS
10
153.696
20
-72.7204
11
153.761
21
-72.8473
0
LINE
8
BLACK
6
CONTINUOUS
10
153.761
20
-72.8473
11
153.789
21
-72.987
0
LINE
8
BLACK
6
CONTINUOUS
10
153.789
20
-72.987
11
153.779
21
-73.1292
0
LINE
8
BLACK
6
CONTINUOUS
10
153.779
20
-73.1292
11
153.73
21
-73.2632
0
LINE
8
BLACK
6
CONTINUOUS
10
153.73
20
-73.2632
11
153.648
21
-73.3794
0
LINE
8
BLACK
6
CONTINUOUS
10
153.648
20
-73.3794
11
153.537
21
-73.4691
0
LINE
8
BLACK
6
CONTINUOUS
10
153.537
20
-73.4691
11
153.406
21
-73.5257
0
LINE
8
BLACK
6
CONTINUOUS
10
153.406
20
-73.5257
11
153.265
21
-73.545
0
LINE
8
BLACK
6
CONTINUOUS
10
153.265
20
-73.545
11
152.815
21
-73.545
0
LINE
8
BLACK
6
CONTINUOUS
10
152.815
20
-73.545
11
152.738
21
-73.5394
0
LINE
8
BLACK
6
CONTINUOUS
10
152.738
20
-73.5394
11
152.601
21
-73.4996
0
LINE
8
BLACK
6
CONTINUOUS
10
152.601
20
-73.4996
11
152.48
21
-73.4245
0
LINE
8
BLACK
6
CONTINUOUS
10
152.48
20
-73.4245
11
152.384
21
-73.3196
0
LINE
8
BLACK
6
CONTINUOUS
10
152.384
20
-73.3196
11
152.319
21
-73.1927
0
LINE
8
BLACK
6
CONTINUOUS
10
152.319
20
-73.1927
11
152.291
21
-73.053
0
LINE
8
BLACK
6
CONTINUOUS
10
152.291
20
-73.053
11
152.301
21
-72.9108
0
LINE
8
BLACK
6
CONTINUOUS
10
152.301
20
-72.9108
11
152.35
21
-72.7768
0
LINE
8
BLACK
6
CONTINUOUS
10
152.35
20
-72.7768
11
152.432
21
-72.6606
0
LINE
8
BLACK
6
CONTINUOUS
10
152.432
20
-72.6606
11
152.543
21
-72.5709
0
LINE
8
BLACK
6
CONTINUOUS
10
152.543
20
-72.5709
11
152.674
21
-72.5143
0
LINE
8
BLACK
6
CONTINUOUS
10
152.674
20
-72.5143
11
152.815
21
-72.495
0
LINE
8
BLACK
6
CONTINUOUS
10
152.815
20
-72.495
11
153.265
21
-72.495
0
LINE
8
BLACK
6
CONTINUOUS
10
153.265
20
-72.495
11
153.342
21
-72.5006
0
LINE
8
BLACK
6
CONTINUOUS
10
139.1
20
-73.075
11
137.4
21
-73.075
0
LINE
8
BLACK
6
CONTINUOUS
10
137.4
20
-73.075
11
137.4
21
-71.375
0
LINE
8
BLACK
6
CONTINUOUS
10
137.4
20
-71.375
11
139.1
21
-71.375
0
LINE
8
BLACK
6
CONTINUOUS
10
139.1
20
-71.375
11
139.1
21
-73.075
0
LINE
8
BLACK
6
CONTINUOUS
10
153.79
20
-71.005
11
152.29
21
-71.005
0
LINE
8
BLACK
6
CONTINUOUS
10
152.29
20
-71.005
11
152.29
21
-69.955
0
LINE
8
BLACK
6
CONTINUOUS
10
152.29
20
-69.955
11
153.79
21
-69.955
0
LINE
8
BLACK
6
CONTINUOUS
10
153.79
20
-69.955
11
153.79
21
-71.005
0
CIRCLE
8
BLACK
10
147.25
20
-74.75
40
0.2
0
CIRCLE
8
BLACK
10
149.25
20
-72.25
40
0.2
0
CIRCLE
8
BLACK
10
149.25
20
-70
40
0.2
0
CIRCLE
8
BLACK
10
153.25
20
-80
40
0.2
0
CIRCLE
8
BLACK
10
147.25
20
-77
40
0.2
0
CIRCLE
8
BLACK
10
141.2
20
-79.4
40
0.2
0
CIRCLE
8
BLACK
10
147.2
20
-79.2
40
0.2
0
CIRCLE
8
BLACK
10
149.2
20
-74.8
40
0.2
  0
ENDSEC
  0
EOF
