%TF.GenerationSoftware,KiCad,Pcbnew,(6.0.5-0)*%
%TF.CreationDate,2022-06-21T19:00:10+05:30*%
%TF.ProjectId,AM_Receiver_PCB,414d5f52-6563-4656-9976-65725f504342,rev?*%
%TF.SameCoordinates,Original*%
%TF.FileFunction,Copper,L1,Top*%
%TF.FilePolarity,Positive*%
%FSLAX46Y46*%
G04 Gerber Fmt 4.6, Leading zero omitted, Abs format (unit mm)*
G04 Created by KiCad (PCBNEW (6.0.5-0)) date 2022-06-21 19:00:10*
%MOMM*%
%LPD*%
G01*
G04 APERTURE LIST*
%TA.AperFunction,ComponentPad*%
%ADD10O,1.600000X1.600000*%
%TD*%
%TA.AperFunction,ComponentPad*%
%ADD11C,1.600000*%
%TD*%
%TA.AperFunction,ComponentPad*%
%ADD12R,1.600000X1.600000*%
%TD*%
%TA.AperFunction,ComponentPad*%
%ADD13O,1.700000X1.700000*%
%TD*%
%TA.AperFunction,ComponentPad*%
%ADD14R,1.700000X1.700000*%
%TD*%
%TA.AperFunction,ViaPad*%
%ADD15C,0.800000*%
%TD*%
%TA.AperFunction,Conductor*%
%ADD16C,0.250000*%
%TD*%
G04 APERTURE END LIST*
D10*
%TO.P,R3,2*%
%TO.N,Net-(C1-Pad2)*%
X86000000Y-77890000D03*
D11*
%TO.P,R3,1*%
%TO.N,V_in*%
X86000000Y-85510000D03*
%TD*%
D12*
%TO.P,U2,1,NULL*%
%TO.N,unconnected-(U2-Pad1)*%
X115000000Y-71800000D03*
D10*
%TO.P,U2,2,-*%
%TO.N,Net-(R1-Pad2)*%
X112460000Y-71800000D03*
%TO.P,U2,3,+*%
%TO.N,Net-(R5-Pad2)*%
X109920000Y-71800000D03*
%TO.P,U2,4,V-*%
%TO.N,-5V*%
X107380000Y-71800000D03*
%TO.P,U2,5,NULL*%
%TO.N,unconnected-(U2-Pad5)*%
X107380000Y-81960000D03*
%TO.P,U2,6*%
%TO.N,Net-(R1-Pad1)*%
X109920000Y-81960000D03*
%TO.P,U2,7,V+*%
%TO.N,+5V*%
X112460000Y-81960000D03*
%TO.P,U2,8,NC*%
%TO.N,unconnected-(U2-Pad8)*%
X115000000Y-81960000D03*
%TD*%
D12*
%TO.P,U3,1,NULL*%
%TO.N,unconnected-(U3-Pad1)*%
X100200000Y-98300000D03*
D10*
%TO.P,U3,2,-*%
%TO.N,Net-(R10-Pad2)*%
X100200000Y-95760000D03*
%TO.P,U3,3,+*%
%TO.N,Net-(C4-Pad2)*%
X100200000Y-93220000D03*
%TO.P,U3,4,V-*%
%TO.N,-5V*%
X100200000Y-90680000D03*
%TO.P,U3,5,NULL*%
%TO.N,unconnected-(U3-Pad5)*%
X90040000Y-90680000D03*
%TO.P,U3,6*%
%TO.N,V_out*%
X90040000Y-93220000D03*
%TO.P,U3,7,V+*%
%TO.N,+5V*%
X90040000Y-95760000D03*
%TO.P,U3,8,NC*%
%TO.N,unconnected-(U3-Pad8)*%
X90040000Y-98300000D03*
%TD*%
D13*
%TO.P,J1,5,Pin_5*%
%TO.N,V_out*%
X86100000Y-91015000D03*
%TO.P,J1,4,Pin_4*%
%TO.N,V_in*%
X86100000Y-93555000D03*
%TO.P,J1,3,Pin_3*%
%TO.N,GND*%
X86100000Y-96095000D03*
%TO.P,J1,2,Pin_2*%
%TO.N,-5V*%
X86100000Y-98635000D03*
D14*
%TO.P,J1,1,Pin_1*%
%TO.N,+5V*%
X86100000Y-101175000D03*
%TD*%
D10*
%TO.P,U1,8,NC*%
%TO.N,unconnected-(U1-Pad8)*%
X90085000Y-63950000D03*
%TO.P,U1,7,V+*%
%TO.N,+5V*%
X92625000Y-63950000D03*
%TO.P,U1,6*%
%TO.N,Net-(R5-Pad2)*%
X95165000Y-63950000D03*
%TO.P,U1,5,NULL*%
%TO.N,unconnected-(U1-Pad5)*%
X97705000Y-63950000D03*
%TO.P,U1,4,V-*%
%TO.N,-5V*%
X97705000Y-74110000D03*
%TO.P,U1,3,+*%
%TO.N,Net-(C2-Pad2)*%
X95165000Y-74110000D03*
%TO.P,U1,2,-*%
%TO.N,Net-(R6-Pad2)*%
X92625000Y-74110000D03*
D12*
%TO.P,U1,1,NULL*%
%TO.N,unconnected-(U1-Pad1)*%
X90085000Y-74110000D03*
%TD*%
D10*
%TO.P,R11,2*%
%TO.N,GND*%
X103800000Y-102910000D03*
D11*
%TO.P,R11,1*%
%TO.N,Net-(R10-Pad2)*%
X103800000Y-95290000D03*
%TD*%
D10*
%TO.P,R10,2*%
%TO.N,Net-(R10-Pad2)*%
X99010000Y-103000000D03*
D11*
%TO.P,R10,1*%
%TO.N,V_out*%
X91390000Y-103000000D03*
%TD*%
D10*
%TO.P,R9,2*%
%TO.N,GND*%
X115420000Y-102200000D03*
D11*
%TO.P,R9,1*%
%TO.N,Net-(C4-Pad2)*%
X107800000Y-102200000D03*
%TD*%
%TO.P,R8,1*%
%TO.N,Net-(C3-Pad1)*%
X110800000Y-93010000D03*
D10*
%TO.P,R8,2*%
%TO.N,GND*%
X110800000Y-85390000D03*
%TD*%
D11*
%TO.P,R7,1*%
%TO.N,Net-(R6-Pad2)*%
X102385000Y-76800000D03*
D10*
%TO.P,R7,2*%
%TO.N,GND*%
X102385000Y-84420000D03*
%TD*%
%TO.P,R6,2*%
%TO.N,Net-(R6-Pad2)*%
X102385000Y-72620000D03*
D11*
%TO.P,R6,1*%
%TO.N,Net-(R5-Pad2)*%
X102385000Y-65000000D03*
%TD*%
%TO.P,R5,1*%
%TO.N,Net-(C1-Pad2)*%
X85985000Y-72620000D03*
D10*
%TO.P,R5,2*%
%TO.N,Net-(R5-Pad2)*%
X85985000Y-65000000D03*
%TD*%
D11*
%TO.P,R4,1*%
%TO.N,Net-(C2-Pad2)*%
X97885000Y-78190000D03*
D10*
%TO.P,R4,2*%
%TO.N,GND*%
X97885000Y-85810000D03*
%TD*%
%TO.P,R2,2*%
%TO.N,GND*%
X115320000Y-64800000D03*
D11*
%TO.P,R2,1*%
%TO.N,Net-(R1-Pad2)*%
X107700000Y-64800000D03*
%TD*%
%TO.P,R1,1*%
%TO.N,Net-(R1-Pad1)*%
X115310000Y-68300000D03*
D10*
%TO.P,R1,2*%
%TO.N,Net-(R1-Pad2)*%
X107690000Y-68300000D03*
%TD*%
D12*
%TO.P,D1,1,K*%
%TO.N,Net-(C3-Pad1)*%
X106700000Y-92910000D03*
D10*
%TO.P,D1,2,A*%
%TO.N,Net-(R1-Pad1)*%
X106700000Y-85290000D03*
%TD*%
D11*
%TO.P,C4,1*%
%TO.N,Net-(C3-Pad1)*%
X114500000Y-97000000D03*
%TO.P,C4,2*%
%TO.N,Net-(C4-Pad2)*%
X109500000Y-97000000D03*
%TD*%
%TO.P,C3,1*%
%TO.N,Net-(C3-Pad1)*%
X115100000Y-91700000D03*
%TO.P,C3,2*%
%TO.N,GND*%
X115100000Y-86700000D03*
%TD*%
%TO.P,C2,1*%
%TO.N,Net-(C1-Pad2)*%
X90385000Y-83710000D03*
%TO.P,C2,2*%
%TO.N,Net-(C2-Pad2)*%
X90385000Y-78710000D03*
%TD*%
%TO.P,C1,2*%
%TO.N,Net-(C1-Pad2)*%
X94085000Y-78810000D03*
%TO.P,C1,1*%
%TO.N,GND*%
X94085000Y-83810000D03*
%TD*%
D15*
%TO.N,-5V*%
X100200000Y-85500000D03*
X90665500Y-100300000D03*
X88900000Y-99900000D03*
%TD*%
D16*
%TO.N,-5V*%
X100200000Y-85500000D02*
X100200000Y-76605000D01*
X100200000Y-76605000D02*
X97705000Y-74110000D01*
X100200000Y-85014700D02*
X107380000Y-77834700D01*
X107380000Y-77834700D02*
X107380000Y-71800000D01*
X100200000Y-85500000D02*
X100200000Y-85014700D01*
X87365000Y-99900000D02*
X88900000Y-99900000D01*
X86100000Y-98635000D02*
X87365000Y-99900000D01*
X90665500Y-100300000D02*
X90665500Y-100214500D01*
X90665500Y-100214500D02*
X100200000Y-90680000D01*
%TO.N,+5V*%
X90040000Y-95760000D02*
X92635300Y-95760000D01*
X92635300Y-95760000D02*
X105310789Y-83084511D01*
X105310789Y-83084511D02*
X111335489Y-83084511D01*
X111335489Y-83084511D02*
X112460000Y-81960000D01*
X86100000Y-101175000D02*
X88755300Y-101175000D01*
X91164511Y-98765789D02*
X91164511Y-96884511D01*
X88755300Y-101175000D02*
X91164511Y-98765789D01*
X91164511Y-96884511D02*
X90040000Y-95760000D01*
X92625000Y-63950000D02*
X88960489Y-67614511D01*
X88960489Y-67614511D02*
X88960489Y-88010189D01*
X88960489Y-88010189D02*
X91200000Y-90249700D01*
X91200000Y-90249700D02*
X91200000Y-94600000D01*
X91200000Y-94600000D02*
X90040000Y-95760000D01*
%TD*%
%TA.AperFunction,Conductor*%
%TO.N,GND*%
G36*
X117433621Y-61528502D02*
G01*
X117480114Y-61582158D01*
X117491500Y-61634500D01*
X117491500Y-104365500D01*
X117471498Y-104433621D01*
X117417842Y-104480114D01*
X117365500Y-104491500D01*
X99456366Y-104491500D01*
X99388245Y-104471498D01*
X99341752Y-104417842D01*
X99331648Y-104347568D01*
X99361142Y-104282988D01*
X99423755Y-104243793D01*
X99453933Y-104235707D01*
X99453935Y-104235706D01*
X99459243Y-104234284D01*
X99464225Y-104231961D01*
X99661762Y-104139849D01*
X99661767Y-104139846D01*
X99666749Y-104137523D01*
X99800412Y-104043931D01*
X99849789Y-104009357D01*
X99849792Y-104009355D01*
X99854300Y-104006198D01*
X100016198Y-103844300D01*
X100147523Y-103656749D01*
X100149846Y-103651767D01*
X100149849Y-103651762D01*
X100241961Y-103454225D01*
X100241961Y-103454224D01*
X100244284Y-103449243D01*
X100275066Y-103334366D01*
X100302119Y-103233402D01*
X100302119Y-103233400D01*
X100303543Y-103228087D01*
X100308054Y-103176522D01*
X102517273Y-103176522D01*
X102564764Y-103353761D01*
X102568510Y-103364053D01*
X102660586Y-103561511D01*
X102666069Y-103571007D01*
X102791028Y-103749467D01*
X102798084Y-103757875D01*
X102952125Y-103911916D01*
X102960533Y-103918972D01*
X103138993Y-104043931D01*
X103148489Y-104049414D01*
X103345947Y-104141490D01*
X103356239Y-104145236D01*
X103528503Y-104191394D01*
X103542599Y-104191058D01*
X103546000Y-104183116D01*
X103546000Y-104177967D01*
X104054000Y-104177967D01*
X104057973Y-104191498D01*
X104066522Y-104192727D01*
X104243761Y-104145236D01*
X104254053Y-104141490D01*
X104451511Y-104049414D01*
X104461007Y-104043931D01*
X104639467Y-103918972D01*
X104647875Y-103911916D01*
X104801916Y-103757875D01*
X104808972Y-103749467D01*
X104933931Y-103571007D01*
X104939414Y-103561511D01*
X105031490Y-103364053D01*
X105035236Y-103353761D01*
X105081394Y-103181497D01*
X105081058Y-103167401D01*
X105073116Y-103164000D01*
X104072115Y-103164000D01*
X104056876Y-103168475D01*
X104055671Y-103169865D01*
X104054000Y-103177548D01*
X104054000Y-104177967D01*
X103546000Y-104177967D01*
X103546000Y-103182115D01*
X103541525Y-103166876D01*
X103540135Y-103165671D01*
X103532452Y-103164000D01*
X102532033Y-103164000D01*
X102518502Y-103167973D01*
X102517273Y-103176522D01*
X100308054Y-103176522D01*
X100323498Y-103000000D01*
X100303543Y-102771913D01*
X100272036Y-102654329D01*
X100267795Y-102638503D01*
X102518606Y-102638503D01*
X102518942Y-102652599D01*
X102526884Y-102656000D01*
X103527885Y-102656000D01*
X103543124Y-102651525D01*
X103544329Y-102650135D01*
X103546000Y-102642452D01*
X103546000Y-102637885D01*
X104054000Y-102637885D01*
X104058475Y-102653124D01*
X104059865Y-102654329D01*
X104067548Y-102656000D01*
X105067967Y-102656000D01*
X105081498Y-102652027D01*
X105082727Y-102643478D01*
X105035236Y-102466239D01*
X105031490Y-102455947D01*
X104939414Y-102258489D01*
X104933931Y-102248993D01*
X104899626Y-102200000D01*
X106486502Y-102200000D01*
X106506457Y-102428087D01*
X106507881Y-102433400D01*
X106507881Y-102433402D01*
X106562673Y-102637885D01*
X106565716Y-102649243D01*
X106568039Y-102654224D01*
X106568039Y-102654225D01*
X106660151Y-102851762D01*
X106660154Y-102851767D01*
X106662477Y-102856749D01*
X106793802Y-103044300D01*
X106955700Y-103206198D01*
X106960208Y-103209355D01*
X106960211Y-103209357D01*
X106994551Y-103233402D01*
X107143251Y-103337523D01*
X107148233Y-103339846D01*
X107148238Y-103339849D01*
X107344765Y-103431490D01*
X107350757Y-103434284D01*
X107356065Y-103435706D01*
X107356067Y-103435707D01*
X107566598Y-103492119D01*
X107566600Y-103492119D01*
X107571913Y-103493543D01*
X107800000Y-103513498D01*
X108028087Y-103493543D01*
X108033400Y-103492119D01*
X108033402Y-103492119D01*
X108243933Y-103435707D01*
X108243935Y-103435706D01*
X108249243Y-103434284D01*
X108255235Y-103431490D01*
X108451762Y-103339849D01*
X108451767Y-103339846D01*
X108456749Y-103337523D01*
X108605449Y-103233402D01*
X108639789Y-103209357D01*
X108639792Y-103209355D01*
X108644300Y-103206198D01*
X108806198Y-103044300D01*
X108937523Y-102856749D01*
X108939846Y-102851767D01*
X108939849Y-102851762D01*
X109031961Y-102654225D01*
X109031961Y-102654224D01*
X109034284Y-102649243D01*
X109037328Y-102637885D01*
X109083245Y-102466522D01*
X114137273Y-102466522D01*
X114184764Y-102643761D01*
X114188510Y-102654053D01*
X114280586Y-102851511D01*
X114286069Y-102861007D01*
X114411028Y-103039467D01*
X114418084Y-103047875D01*
X114572125Y-103201916D01*
X114580533Y-103208972D01*
X114758993Y-103333931D01*
X114768489Y-103339414D01*
X114965947Y-103431490D01*
X114976239Y-103435236D01*
X115148503Y-103481394D01*
X115162599Y-103481058D01*
X115166000Y-103473116D01*
X115166000Y-103467967D01*
X115674000Y-103467967D01*
X115677973Y-103481498D01*
X115686522Y-103482727D01*
X115863761Y-103435236D01*
X115874053Y-103431490D01*
X116071511Y-103339414D01*
X116081007Y-103333931D01*
X116259467Y-103208972D01*
X116267875Y-103201916D01*
X116421916Y-103047875D01*
X116428972Y-103039467D01*
X116553931Y-102861007D01*
X116559414Y-102851511D01*
X116651490Y-102654053D01*
X116655236Y-102643761D01*
X116701394Y-102471497D01*
X116701058Y-102457401D01*
X116693116Y-102454000D01*
X115692115Y-102454000D01*
X115676876Y-102458475D01*
X115675671Y-102459865D01*
X115674000Y-102467548D01*
X115674000Y-103467967D01*
X115166000Y-103467967D01*
X115166000Y-102472115D01*
X115161525Y-102456876D01*
X115160135Y-102455671D01*
X115152452Y-102454000D01*
X114152033Y-102454000D01*
X114138502Y-102457973D01*
X114137273Y-102466522D01*
X109083245Y-102466522D01*
X109092119Y-102433402D01*
X109092119Y-102433400D01*
X109093543Y-102428087D01*
X109113498Y-102200000D01*
X109093543Y-101971913D01*
X109083244Y-101933478D01*
X109081911Y-101928503D01*
X114138606Y-101928503D01*
X114138942Y-101942599D01*
X114146884Y-101946000D01*
X115147885Y-101946000D01*
X115163124Y-101941525D01*
X115164329Y-101940135D01*
X115166000Y-101932452D01*
X115166000Y-101927885D01*
X115674000Y-101927885D01*
X115678475Y-101943124D01*
X115679865Y-101944329D01*
X115687548Y-101946000D01*
X116687967Y-101946000D01*
X116701498Y-101942027D01*
X116702727Y-101933478D01*
X116655236Y-101756239D01*
X116651490Y-101745947D01*
X116559414Y-101548489D01*
X116553931Y-101538993D01*
X116428972Y-101360533D01*
X116421916Y-101352125D01*
X116267875Y-101198084D01*
X116259467Y-101191028D01*
X116081007Y-101066069D01*
X116071511Y-101060586D01*
X115874053Y-100968510D01*
X115863761Y-100964764D01*
X115691497Y-100918606D01*
X115677401Y-100918942D01*
X115674000Y-100926884D01*
X115674000Y-101927885D01*
X115166000Y-101927885D01*
X115166000Y-100932033D01*
X115162027Y-100918502D01*
X115153478Y-100917273D01*
X114976239Y-100964764D01*
X114965947Y-100968510D01*
X114768489Y-101060586D01*
X114758993Y-101066069D01*
X114580533Y-101191028D01*
X114572125Y-101198084D01*
X114418084Y-101352125D01*
X114411028Y-101360533D01*
X114286069Y-101538993D01*
X114280586Y-101548489D01*
X114188510Y-101745947D01*
X114184764Y-101756239D01*
X114138606Y-101928503D01*
X109081911Y-101928503D01*
X109035707Y-101756067D01*
X109035706Y-101756065D01*
X109034284Y-101750757D01*
X109031907Y-101745659D01*
X108939849Y-101548238D01*
X108939846Y-101548233D01*
X108937523Y-101543251D01*
X108806198Y-101355700D01*
X108644300Y-101193802D01*
X108639792Y-101190645D01*
X108639789Y-101190643D01*
X108497652Y-101091118D01*
X108456749Y-101062477D01*
X108451767Y-101060154D01*
X108451762Y-101060151D01*
X108254225Y-100968039D01*
X108254224Y-100968039D01*
X108249243Y-100965716D01*
X108243935Y-100964294D01*
X108243933Y-100964293D01*
X108033402Y-100907881D01*
X108033400Y-100907881D01*
X108028087Y-100906457D01*
X107800000Y-100886502D01*
X107571913Y-100906457D01*
X107566600Y-100907881D01*
X107566598Y-100907881D01*
X107356067Y-100964293D01*
X107356065Y-100964294D01*
X107350757Y-100965716D01*
X107345776Y-100968039D01*
X107345775Y-100968039D01*
X107148238Y-101060151D01*
X107148233Y-101060154D01*
X107143251Y-101062477D01*
X107102348Y-101091118D01*
X106960211Y-101190643D01*
X106960208Y-101190645D01*
X106955700Y-101193802D01*
X106793802Y-101355700D01*
X106662477Y-101543251D01*
X106660154Y-101548233D01*
X106660151Y-101548238D01*
X106568093Y-101745659D01*
X106565716Y-101750757D01*
X106564294Y-101756065D01*
X106564293Y-101756067D01*
X106516756Y-101933478D01*
X106506457Y-101971913D01*
X106486502Y-102200000D01*
X104899626Y-102200000D01*
X104808972Y-102070533D01*
X104801916Y-102062125D01*
X104647875Y-101908084D01*
X104639467Y-101901028D01*
X104461007Y-101776069D01*
X104451511Y-101770586D01*
X104254053Y-101678510D01*
X104243761Y-101674764D01*
X104071497Y-101628606D01*
X104057401Y-101628942D01*
X104054000Y-101636884D01*
X104054000Y-102637885D01*
X103546000Y-102637885D01*
X103546000Y-101642033D01*
X103542027Y-101628502D01*
X103533478Y-101627273D01*
X103356239Y-101674764D01*
X103345947Y-101678510D01*
X103148489Y-101770586D01*
X103138993Y-101776069D01*
X102960533Y-101901028D01*
X102952125Y-101908084D01*
X102798084Y-102062125D01*
X102791028Y-102070533D01*
X102666069Y-102248993D01*
X102660586Y-102258489D01*
X102568510Y-102455947D01*
X102564764Y-102466239D01*
X102518606Y-102638503D01*
X100267795Y-102638503D01*
X100245707Y-102556067D01*
X100245706Y-102556065D01*
X100244284Y-102550757D01*
X100207325Y-102471497D01*
X100149849Y-102348238D01*
X100149846Y-102348233D01*
X100147523Y-102343251D01*
X100016198Y-102155700D01*
X99854300Y-101993802D01*
X99849792Y-101990645D01*
X99849789Y-101990643D01*
X99721805Y-101901028D01*
X99666749Y-101862477D01*
X99661767Y-101860154D01*
X99661762Y-101860151D01*
X99464225Y-101768039D01*
X99464224Y-101768039D01*
X99459243Y-101765716D01*
X99453935Y-101764294D01*
X99453933Y-101764293D01*
X99243402Y-101707881D01*
X99243400Y-101707881D01*
X99238087Y-101706457D01*
X99010000Y-101686502D01*
X98781913Y-101706457D01*
X98776600Y-101707881D01*
X98776598Y-101707881D01*
X98566067Y-101764293D01*
X98566065Y-101764294D01*
X98560757Y-101765716D01*
X98555776Y-101768039D01*
X98555775Y-101768039D01*
X98358238Y-101860151D01*
X98358233Y-101860154D01*
X98353251Y-101862477D01*
X98298195Y-101901028D01*
X98170211Y-101990643D01*
X98170208Y-101990645D01*
X98165700Y-101993802D01*
X98003802Y-102155700D01*
X97872477Y-102343251D01*
X97870154Y-102348233D01*
X97870151Y-102348238D01*
X97812675Y-102471497D01*
X97775716Y-102550757D01*
X97774294Y-102556065D01*
X97774293Y-102556067D01*
X97747964Y-102654329D01*
X97716457Y-102771913D01*
X97696502Y-103000000D01*
X97716457Y-103228087D01*
X97717881Y-103233400D01*
X97717881Y-103233402D01*
X97744935Y-103334366D01*
X97775716Y-103449243D01*
X97778039Y-103454224D01*
X97778039Y-103454225D01*
X97870151Y-103651762D01*
X97870154Y-103651767D01*
X97872477Y-103656749D01*
X98003802Y-103844300D01*
X98165700Y-104006198D01*
X98170208Y-104009355D01*
X98170211Y-104009357D01*
X98219588Y-104043931D01*
X98353251Y-104137523D01*
X98358233Y-104139846D01*
X98358238Y-104139849D01*
X98555775Y-104231961D01*
X98560757Y-104234284D01*
X98566065Y-104235706D01*
X98566067Y-104235707D01*
X98596245Y-104243793D01*
X98656868Y-104280745D01*
X98687889Y-104344605D01*
X98679461Y-104415100D01*
X98634258Y-104469847D01*
X98563634Y-104491500D01*
X91836366Y-104491500D01*
X91768245Y-104471498D01*
X91721752Y-104417842D01*
X91711648Y-104347568D01*
X91741142Y-104282988D01*
X91803755Y-104243793D01*
X91833933Y-104235707D01*
X91833935Y-104235706D01*
X91839243Y-104234284D01*
X91844225Y-104231961D01*
X92041762Y-104139849D01*
X92041767Y-104139846D01*
X92046749Y-104137523D01*
X92180412Y-104043931D01*
X92229789Y-104009357D01*
X92229792Y-104009355D01*
X92234300Y-104006198D01*
X92396198Y-103844300D01*
X92527523Y-103656749D01*
X92529846Y-103651767D01*
X92529849Y-103651762D01*
X92621961Y-103454225D01*
X92621961Y-103454224D01*
X92624284Y-103449243D01*
X92655066Y-103334366D01*
X92682119Y-103233402D01*
X92682119Y-103233400D01*
X92683543Y-103228087D01*
X92703498Y-103000000D01*
X92683543Y-102771913D01*
X92652036Y-102654329D01*
X92625707Y-102556067D01*
X92625706Y-102556065D01*
X92624284Y-102550757D01*
X92587325Y-102471497D01*
X92529849Y-102348238D01*
X92529846Y-102348233D01*
X92527523Y-102343251D01*
X92396198Y-102155700D01*
X92234300Y-101993802D01*
X92229792Y-101990645D01*
X92229789Y-101990643D01*
X92101805Y-101901028D01*
X92046749Y-101862477D01*
X92041767Y-101860154D01*
X92041762Y-101860151D01*
X91844225Y-101768039D01*
X91844224Y-101768039D01*
X91839243Y-101765716D01*
X91833935Y-101764294D01*
X91833933Y-101764293D01*
X91623402Y-101707881D01*
X91623400Y-101707881D01*
X91618087Y-101706457D01*
X91390000Y-101686502D01*
X91161913Y-101706457D01*
X91156600Y-101707881D01*
X91156598Y-101707881D01*
X90946067Y-101764293D01*
X90946065Y-101764294D01*
X90940757Y-101765716D01*
X90935776Y-101768039D01*
X90935775Y-101768039D01*
X90738238Y-101860151D01*
X90738233Y-101860154D01*
X90733251Y-101862477D01*
X90678195Y-101901028D01*
X90550211Y-101990643D01*
X90550208Y-101990645D01*
X90545700Y-101993802D01*
X90383802Y-102155700D01*
X90252477Y-102343251D01*
X90250154Y-102348233D01*
X90250151Y-102348238D01*
X90192675Y-102471497D01*
X90155716Y-102550757D01*
X90154294Y-102556065D01*
X90154293Y-102556067D01*
X90127964Y-102654329D01*
X90096457Y-102771913D01*
X90076502Y-103000000D01*
X90096457Y-103228087D01*
X90097881Y-103233400D01*
X90097881Y-103233402D01*
X90124935Y-103334366D01*
X90155716Y-103449243D01*
X90158039Y-103454224D01*
X90158039Y-103454225D01*
X90250151Y-103651762D01*
X90250154Y-103651767D01*
X90252477Y-103656749D01*
X90383802Y-103844300D01*
X90545700Y-104006198D01*
X90550208Y-104009355D01*
X90550211Y-104009357D01*
X90599588Y-104043931D01*
X90733251Y-104137523D01*
X90738233Y-104139846D01*
X90738238Y-104139849D01*
X90935775Y-104231961D01*
X90940757Y-104234284D01*
X90946065Y-104235706D01*
X90946067Y-104235707D01*
X90976245Y-104243793D01*
X91036868Y-104280745D01*
X91067889Y-104344605D01*
X91059461Y-104415100D01*
X91014258Y-104469847D01*
X90943634Y-104491500D01*
X83634500Y-104491500D01*
X83566379Y-104471498D01*
X83519886Y-104417842D01*
X83508500Y-104365500D01*
X83508500Y-98601695D01*
X84737251Y-98601695D01*
X84737548Y-98606848D01*
X84737548Y-98606851D01*
X84743011Y-98701590D01*
X84750110Y-98824715D01*
X84751247Y-98829761D01*
X84751248Y-98829767D01*
X84766186Y-98896050D01*
X84799222Y-99042639D01*
X84840671Y-99144717D01*
X84875488Y-99230460D01*
X84883266Y-99249616D01*
X84999987Y-99440088D01*
X85146250Y-99608938D01*
X85150230Y-99612242D01*
X85154981Y-99616187D01*
X85194616Y-99675090D01*
X85196113Y-99746071D01*
X85158997Y-99806593D01*
X85118724Y-99831112D01*
X85003295Y-99874385D01*
X84886739Y-99961739D01*
X84799385Y-100078295D01*
X84748255Y-100214684D01*
X84741500Y-100276866D01*
X84741500Y-102073134D01*
X84748255Y-102135316D01*
X84799385Y-102271705D01*
X84886739Y-102388261D01*
X85003295Y-102475615D01*
X85139684Y-102526745D01*
X85201866Y-102533500D01*
X86998134Y-102533500D01*
X87060316Y-102526745D01*
X87196705Y-102475615D01*
X87313261Y-102388261D01*
X87400615Y-102271705D01*
X87451745Y-102135316D01*
X87458500Y-102073134D01*
X87458500Y-101934500D01*
X87478502Y-101866379D01*
X87532158Y-101819886D01*
X87584500Y-101808500D01*
X88676533Y-101808500D01*
X88687716Y-101809027D01*
X88695209Y-101810702D01*
X88703135Y-101810453D01*
X88703136Y-101810453D01*
X88763286Y-101808562D01*
X88767245Y-101808500D01*
X88795156Y-101808500D01*
X88799091Y-101808003D01*
X88799156Y-101807995D01*
X88810993Y-101807062D01*
X88843251Y-101806048D01*
X88847270Y-101805922D01*
X88855189Y-101805673D01*
X88874643Y-101800021D01*
X88894000Y-101796013D01*
X88906230Y-101794468D01*
X88906231Y-101794468D01*
X88914097Y-101793474D01*
X88921468Y-101790555D01*
X88921470Y-101790555D01*
X88955212Y-101777196D01*
X88966442Y-101773351D01*
X89001283Y-101763229D01*
X89001284Y-101763229D01*
X89008893Y-101761018D01*
X89015712Y-101756985D01*
X89015717Y-101756983D01*
X89026328Y-101750707D01*
X89044076Y-101742012D01*
X89062917Y-101734552D01*
X89098687Y-101708564D01*
X89108607Y-101702048D01*
X89139835Y-101683580D01*
X89139838Y-101683578D01*
X89146662Y-101679542D01*
X89160983Y-101665221D01*
X89176017Y-101652380D01*
X89185994Y-101645131D01*
X89192407Y-101640472D01*
X89197457Y-101634368D01*
X89197462Y-101634363D01*
X89220593Y-101606402D01*
X89228583Y-101597621D01*
X89862329Y-100963876D01*
X89924641Y-100929851D01*
X89995457Y-100934916D01*
X90045059Y-100968662D01*
X90054247Y-100978866D01*
X90208748Y-101091118D01*
X90214776Y-101093802D01*
X90214778Y-101093803D01*
X90377181Y-101166109D01*
X90383212Y-101168794D01*
X90476613Y-101188647D01*
X90563556Y-101207128D01*
X90563561Y-101207128D01*
X90570013Y-101208500D01*
X90760987Y-101208500D01*
X90767439Y-101207128D01*
X90767444Y-101207128D01*
X90854388Y-101188647D01*
X90947788Y-101168794D01*
X90953819Y-101166109D01*
X91116222Y-101093803D01*
X91116224Y-101093802D01*
X91122252Y-101091118D01*
X91276753Y-100978866D01*
X91288593Y-100965716D01*
X91400121Y-100841852D01*
X91400122Y-100841851D01*
X91404540Y-100836944D01*
X91500027Y-100671556D01*
X91559042Y-100489928D01*
X91579004Y-100300000D01*
X91575480Y-100266475D01*
X91588252Y-100196637D01*
X91611695Y-100164209D01*
X98673411Y-93102493D01*
X98735723Y-93068467D01*
X98806538Y-93073532D01*
X98863374Y-93116079D01*
X98888185Y-93182599D01*
X98888026Y-93202570D01*
X98886981Y-93214514D01*
X98886981Y-93214525D01*
X98886502Y-93220000D01*
X98906457Y-93448087D01*
X98965716Y-93669243D01*
X98968039Y-93674224D01*
X98968039Y-93674225D01*
X99060151Y-93871762D01*
X99060154Y-93871767D01*
X99062477Y-93876749D01*
X99065634Y-93881257D01*
X99160121Y-94016198D01*
X99193802Y-94064300D01*
X99355700Y-94226198D01*
X99360208Y-94229355D01*
X99360211Y-94229357D01*
X99405798Y-94261277D01*
X99543251Y-94357523D01*
X99548233Y-94359846D01*
X99548238Y-94359849D01*
X99582457Y-94375805D01*
X99635742Y-94422722D01*
X99655203Y-94490999D01*
X99634661Y-94558959D01*
X99582457Y-94604195D01*
X99548238Y-94620151D01*
X99548233Y-94620154D01*
X99543251Y-94622477D01*
X99438389Y-94695902D01*
X99360211Y-94750643D01*
X99360208Y-94750645D01*
X99355700Y-94753802D01*
X99193802Y-94915700D01*
X99190645Y-94920208D01*
X99190643Y-94920211D01*
X99152055Y-94975321D01*
X99062477Y-95103251D01*
X99060154Y-95108233D01*
X99060151Y-95108238D01*
X98985688Y-95267926D01*
X98965716Y-95310757D01*
X98964294Y-95316065D01*
X98964293Y-95316067D01*
X98907881Y-95526598D01*
X98906457Y-95531913D01*
X98886502Y-95760000D01*
X98906457Y-95988087D01*
X98907881Y-95993400D01*
X98907881Y-95993402D01*
X98960934Y-96191395D01*
X98965716Y-96209243D01*
X98968039Y-96214224D01*
X98968039Y-96214225D01*
X99060151Y-96411762D01*
X99060154Y-96411767D01*
X99062477Y-96416749D01*
X99070021Y-96427523D01*
X99184960Y-96591672D01*
X99193802Y-96604300D01*
X99355700Y-96766198D01*
X99360211Y-96769357D01*
X99364424Y-96772892D01*
X99363473Y-96774026D01*
X99403471Y-96824071D01*
X99410776Y-96894690D01*
X99378742Y-96958049D01*
X99317538Y-96994030D01*
X99300483Y-96997082D01*
X99289684Y-96998255D01*
X99153295Y-97049385D01*
X99036739Y-97136739D01*
X98949385Y-97253295D01*
X98898255Y-97389684D01*
X98891500Y-97451866D01*
X98891500Y-99148134D01*
X98898255Y-99210316D01*
X98949385Y-99346705D01*
X99036739Y-99463261D01*
X99153295Y-99550615D01*
X99289684Y-99601745D01*
X99351866Y-99608500D01*
X101048134Y-99608500D01*
X101110316Y-99601745D01*
X101246705Y-99550615D01*
X101363261Y-99463261D01*
X101450615Y-99346705D01*
X101501745Y-99210316D01*
X101508500Y-99148134D01*
X101508500Y-97451866D01*
X101501745Y-97389684D01*
X101450615Y-97253295D01*
X101363261Y-97136739D01*
X101246705Y-97049385D01*
X101114971Y-97000000D01*
X108186502Y-97000000D01*
X108206457Y-97228087D01*
X108207881Y-97233400D01*
X108207881Y-97233402D01*
X108247775Y-97382285D01*
X108265716Y-97449243D01*
X108268039Y-97454224D01*
X108268039Y-97454225D01*
X108360151Y-97651762D01*
X108360154Y-97651767D01*
X108362477Y-97656749D01*
X108365634Y-97661257D01*
X108462403Y-97799457D01*
X108493802Y-97844300D01*
X108655700Y-98006198D01*
X108660208Y-98009355D01*
X108660211Y-98009357D01*
X108738389Y-98064098D01*
X108843251Y-98137523D01*
X108848233Y-98139846D01*
X108848238Y-98139849D01*
X108978778Y-98200720D01*
X109050757Y-98234284D01*
X109056065Y-98235706D01*
X109056067Y-98235707D01*
X109266598Y-98292119D01*
X109266600Y-98292119D01*
X109271913Y-98293543D01*
X109500000Y-98313498D01*
X109728087Y-98293543D01*
X109733400Y-98292119D01*
X109733402Y-98292119D01*
X109943933Y-98235707D01*
X109943935Y-98235706D01*
X109949243Y-98234284D01*
X110021222Y-98200720D01*
X110151762Y-98139849D01*
X110151767Y-98139846D01*
X110156749Y-98137523D01*
X110261611Y-98064098D01*
X110339789Y-98009357D01*
X110339792Y-98009355D01*
X110344300Y-98006198D01*
X110506198Y-97844300D01*
X110537598Y-97799457D01*
X110634366Y-97661257D01*
X110637523Y-97656749D01*
X110639846Y-97651767D01*
X110639849Y-97651762D01*
X110731961Y-97454225D01*
X110731961Y-97454224D01*
X110734284Y-97449243D01*
X110752226Y-97382285D01*
X110792119Y-97233402D01*
X110792119Y-97233400D01*
X110793543Y-97228087D01*
X110813498Y-97000000D01*
X113186502Y-97000000D01*
X113206457Y-97228087D01*
X113207881Y-97233400D01*
X113207881Y-97233402D01*
X113247775Y-97382285D01*
X113265716Y-97449243D01*
X113268039Y-97454224D01*
X113268039Y-97454225D01*
X113360151Y-97651762D01*
X113360154Y-97651767D01*
X113362477Y-97656749D01*
X113365634Y-97661257D01*
X113462403Y-97799457D01*
X113493802Y-97844300D01*
X113655700Y-98006198D01*
X113660208Y-98009355D01*
X113660211Y-98009357D01*
X113738389Y-98064098D01*
X113843251Y-98137523D01*
X113848233Y-98139846D01*
X113848238Y-98139849D01*
X113978778Y-98200720D01*
X114050757Y-98234284D01*
X114056065Y-98235706D01*
X114056067Y-98235707D01*
X114266598Y-98292119D01*
X114266600Y-98292119D01*
X114271913Y-98293543D01*
X114500000Y-98313498D01*
X114728087Y-98293543D01*
X114733400Y-98292119D01*
X114733402Y-98292119D01*
X114943933Y-98235707D01*
X114943935Y-98235706D01*
X114949243Y-98234284D01*
X115021222Y-98200720D01*
X115151762Y-98139849D01*
X115151767Y-98139846D01*
X115156749Y-98137523D01*
X115261611Y-98064098D01*
X115339789Y-98009357D01*
X115339792Y-98009355D01*
X115344300Y-98006198D01*
X115506198Y-97844300D01*
X115537598Y-97799457D01*
X115634366Y-97661257D01*
X115637523Y-97656749D01*
X115639846Y-97651767D01*
X115639849Y-97651762D01*
X115731961Y-97454225D01*
X115731961Y-97454224D01*
X115734284Y-97449243D01*
X115752226Y-97382285D01*
X115792119Y-97233402D01*
X115792119Y-97233400D01*
X115793543Y-97228087D01*
X115813498Y-97000000D01*
X115793543Y-96771913D01*
X115791736Y-96765170D01*
X115735707Y-96556067D01*
X115735706Y-96556065D01*
X115734284Y-96550757D01*
X115731961Y-96545775D01*
X115639849Y-96348238D01*
X115639844Y-96348229D01*
X115637523Y-96343251D01*
X115531192Y-96191395D01*
X115509357Y-96160211D01*
X115509355Y-96160208D01*
X115506198Y-96155700D01*
X115344300Y-95993802D01*
X115339792Y-95990645D01*
X115339789Y-95990643D01*
X115261611Y-95935902D01*
X115156749Y-95862477D01*
X115151767Y-95860154D01*
X115151762Y-95860151D01*
X114954225Y-95768039D01*
X114954224Y-95768039D01*
X114949243Y-95765716D01*
X114943935Y-95764294D01*
X114943933Y-95764293D01*
X114733402Y-95707881D01*
X114733400Y-95707881D01*
X114728087Y-95706457D01*
X114500000Y-95686502D01*
X114271913Y-95706457D01*
X114266600Y-95707881D01*
X114266598Y-95707881D01*
X114056067Y-95764293D01*
X114056065Y-95764294D01*
X114050757Y-95765716D01*
X114045776Y-95768039D01*
X114045775Y-95768039D01*
X113848238Y-95860151D01*
X113848233Y-95860154D01*
X113843251Y-95862477D01*
X113738389Y-95935902D01*
X113660211Y-95990643D01*
X113660208Y-95990645D01*
X113655700Y-95993802D01*
X113493802Y-96155700D01*
X113490645Y-96160208D01*
X113490643Y-96160211D01*
X113468808Y-96191395D01*
X113362477Y-96343251D01*
X113360156Y-96348229D01*
X113360151Y-96348238D01*
X113268039Y-96545775D01*
X113265716Y-96550757D01*
X113264294Y-96556065D01*
X113264293Y-96556067D01*
X113208264Y-96765170D01*
X113206457Y-96771913D01*
X113186502Y-97000000D01*
X110813498Y-97000000D01*
X110793543Y-96771913D01*
X110791736Y-96765170D01*
X110735707Y-96556067D01*
X110735706Y-96556065D01*
X110734284Y-96550757D01*
X110731961Y-96545775D01*
X110639849Y-96348238D01*
X110639844Y-96348229D01*
X110637523Y-96343251D01*
X110531192Y-96191395D01*
X110509357Y-96160211D01*
X110509355Y-96160208D01*
X110506198Y-96155700D01*
X110344300Y-95993802D01*
X110339792Y-95990645D01*
X110339789Y-95990643D01*
X110261611Y-95935902D01*
X110156749Y-95862477D01*
X110151767Y-95860154D01*
X110151762Y-95860151D01*
X109954225Y-95768039D01*
X109954224Y-95768039D01*
X109949243Y-95765716D01*
X109943935Y-95764294D01*
X109943933Y-95764293D01*
X109733402Y-95707881D01*
X109733400Y-95707881D01*
X109728087Y-95706457D01*
X109500000Y-95686502D01*
X109271913Y-95706457D01*
X109266600Y-95707881D01*
X109266598Y-95707881D01*
X109056067Y-95764293D01*
X109056065Y-95764294D01*
X109050757Y-95765716D01*
X109045776Y-95768039D01*
X109045775Y-95768039D01*
X108848238Y-95860151D01*
X108848233Y-95860154D01*
X108843251Y-95862477D01*
X108738389Y-95935902D01*
X108660211Y-95990643D01*
X108660208Y-95990645D01*
X108655700Y-95993802D01*
X108493802Y-96155700D01*
X108490645Y-96160208D01*
X108490643Y-96160211D01*
X108468808Y-96191395D01*
X108362477Y-96343251D01*
X108360156Y-96348229D01*
X108360151Y-96348238D01*
X108268039Y-96545775D01*
X108265716Y-96550757D01*
X108264294Y-96556065D01*
X108264293Y-96556067D01*
X108208264Y-96765170D01*
X108206457Y-96771913D01*
X108186502Y-97000000D01*
X101114971Y-97000000D01*
X101110316Y-96998255D01*
X101099526Y-96997083D01*
X101097394Y-96996197D01*
X101094778Y-96995575D01*
X101094879Y-96995152D01*
X101033965Y-96969845D01*
X100993537Y-96911483D01*
X100991078Y-96840529D01*
X101027371Y-96779510D01*
X101036031Y-96772511D01*
X101039793Y-96769354D01*
X101044300Y-96766198D01*
X101206198Y-96604300D01*
X101215041Y-96591672D01*
X101329979Y-96427523D01*
X101337523Y-96416749D01*
X101339846Y-96411767D01*
X101339849Y-96411762D01*
X101431961Y-96214225D01*
X101431961Y-96214224D01*
X101434284Y-96209243D01*
X101439067Y-96191395D01*
X101492119Y-95993402D01*
X101492119Y-95993400D01*
X101493543Y-95988087D01*
X101513498Y-95760000D01*
X101493543Y-95531913D01*
X101492119Y-95526598D01*
X101435707Y-95316067D01*
X101435706Y-95316065D01*
X101434284Y-95310757D01*
X101424605Y-95290000D01*
X102486502Y-95290000D01*
X102506457Y-95518087D01*
X102507881Y-95523400D01*
X102507881Y-95523402D01*
X102557313Y-95707881D01*
X102565716Y-95739243D01*
X102568039Y-95744224D01*
X102568039Y-95744225D01*
X102660151Y-95941762D01*
X102660154Y-95941767D01*
X102662477Y-95946749D01*
X102793802Y-96134300D01*
X102955700Y-96296198D01*
X102960208Y-96299355D01*
X102960211Y-96299357D01*
X103022898Y-96343251D01*
X103143251Y-96427523D01*
X103148233Y-96429846D01*
X103148238Y-96429849D01*
X103321973Y-96510862D01*
X103350757Y-96524284D01*
X103356065Y-96525706D01*
X103356067Y-96525707D01*
X103566598Y-96582119D01*
X103566600Y-96582119D01*
X103571913Y-96583543D01*
X103800000Y-96603498D01*
X104028087Y-96583543D01*
X104033400Y-96582119D01*
X104033402Y-96582119D01*
X104243933Y-96525707D01*
X104243935Y-96525706D01*
X104249243Y-96524284D01*
X104278027Y-96510862D01*
X104451762Y-96429849D01*
X104451767Y-96429846D01*
X104456749Y-96427523D01*
X104577102Y-96343251D01*
X104639789Y-96299357D01*
X104639792Y-96299355D01*
X104644300Y-96296198D01*
X104806198Y-96134300D01*
X104937523Y-95946749D01*
X104939846Y-95941767D01*
X104939849Y-95941762D01*
X105031961Y-95744225D01*
X105031961Y-95744224D01*
X105034284Y-95739243D01*
X105042688Y-95707881D01*
X105092119Y-95523402D01*
X105092119Y-95523400D01*
X105093543Y-95518087D01*
X105113498Y-95290000D01*
X105093543Y-95061913D01*
X105092119Y-95056598D01*
X105035707Y-94846067D01*
X105035706Y-94846065D01*
X105034284Y-94840757D01*
X105031961Y-94835775D01*
X104939849Y-94638238D01*
X104939846Y-94638233D01*
X104937523Y-94633251D01*
X104861746Y-94525031D01*
X104809357Y-94450211D01*
X104809355Y-94450208D01*
X104806198Y-94445700D01*
X104644300Y-94283802D01*
X104639792Y-94280645D01*
X104639789Y-94280643D01*
X104541392Y-94211745D01*
X104456749Y-94152477D01*
X104451767Y-94150154D01*
X104451762Y-94150151D01*
X104254225Y-94058039D01*
X104254224Y-94058039D01*
X104249243Y-94055716D01*
X104243935Y-94054294D01*
X104243933Y-94054293D01*
X104033402Y-93997881D01*
X104033400Y-93997881D01*
X104028087Y-93996457D01*
X103800000Y-93976502D01*
X103571913Y-93996457D01*
X103566600Y-93997881D01*
X103566598Y-93997881D01*
X103356067Y-94054293D01*
X103356065Y-94054294D01*
X103350757Y-94055716D01*
X103345776Y-94058039D01*
X103345775Y-94058039D01*
X103148238Y-94150151D01*
X103148233Y-94150154D01*
X103143251Y-94152477D01*
X103058608Y-94211745D01*
X102960211Y-94280643D01*
X102960208Y-94280645D01*
X102955700Y-94283802D01*
X102793802Y-94445700D01*
X102790645Y-94450208D01*
X102790643Y-94450211D01*
X102738254Y-94525031D01*
X102662477Y-94633251D01*
X102660154Y-94638233D01*
X102660151Y-94638238D01*
X102568039Y-94835775D01*
X102565716Y-94840757D01*
X102564294Y-94846065D01*
X102564293Y-94846067D01*
X102507881Y-95056598D01*
X102506457Y-95061913D01*
X102486502Y-95290000D01*
X101424605Y-95290000D01*
X101414312Y-95267926D01*
X101339849Y-95108238D01*
X101339846Y-95108233D01*
X101337523Y-95103251D01*
X101247945Y-94975321D01*
X101209357Y-94920211D01*
X101209355Y-94920208D01*
X101206198Y-94915700D01*
X101044300Y-94753802D01*
X101039792Y-94750645D01*
X101039789Y-94750643D01*
X100961611Y-94695902D01*
X100856749Y-94622477D01*
X100851767Y-94620154D01*
X100851762Y-94620151D01*
X100817543Y-94604195D01*
X100764258Y-94557278D01*
X100744797Y-94489001D01*
X100765339Y-94421041D01*
X100817543Y-94375805D01*
X100851762Y-94359849D01*
X100851767Y-94359846D01*
X100856749Y-94357523D01*
X100994202Y-94261277D01*
X101039789Y-94229357D01*
X101039792Y-94229355D01*
X101044300Y-94226198D01*
X101206198Y-94064300D01*
X101239880Y-94016198D01*
X101334366Y-93881257D01*
X101337523Y-93876749D01*
X101339846Y-93871767D01*
X101339849Y-93871762D01*
X101392834Y-93758134D01*
X105391500Y-93758134D01*
X105398255Y-93820316D01*
X105449385Y-93956705D01*
X105536739Y-94073261D01*
X105653295Y-94160615D01*
X105789684Y-94211745D01*
X105851866Y-94218500D01*
X107548134Y-94218500D01*
X107610316Y-94211745D01*
X107746705Y-94160615D01*
X107863261Y-94073261D01*
X107950615Y-93956705D01*
X108001745Y-93820316D01*
X108008500Y-93758134D01*
X108008500Y-93010000D01*
X109486502Y-93010000D01*
X109506457Y-93238087D01*
X109507881Y-93243400D01*
X109507881Y-93243402D01*
X109521597Y-93294588D01*
X109565716Y-93459243D01*
X109568039Y-93464224D01*
X109568039Y-93464225D01*
X109660151Y-93661762D01*
X109660154Y-93661767D01*
X109662477Y-93666749D01*
X109665634Y-93671257D01*
X109789407Y-93848023D01*
X109793802Y-93854300D01*
X109955700Y-94016198D01*
X109960208Y-94019355D01*
X109960211Y-94019357D01*
X110026940Y-94066081D01*
X110143251Y-94147523D01*
X110148233Y-94149846D01*
X110148238Y-94149849D01*
X110345775Y-94241961D01*
X110350757Y-94244284D01*
X110356065Y-94245706D01*
X110356067Y-94245707D01*
X110566598Y-94302119D01*
X110566600Y-94302119D01*
X110571913Y-94303543D01*
X110800000Y-94323498D01*
X111028087Y-94303543D01*
X111033400Y-94302119D01*
X111033402Y-94302119D01*
X111243933Y-94245707D01*
X111243935Y-94245706D01*
X111249243Y-94244284D01*
X111254225Y-94241961D01*
X111451762Y-94149849D01*
X111451767Y-94149846D01*
X111456749Y-94147523D01*
X111573060Y-94066081D01*
X111639789Y-94019357D01*
X111639792Y-94019355D01*
X111644300Y-94016198D01*
X111806198Y-93854300D01*
X111810594Y-93848023D01*
X111934366Y-93671257D01*
X111937523Y-93666749D01*
X111939846Y-93661767D01*
X111939849Y-93661762D01*
X112031961Y-93464225D01*
X112031961Y-93464224D01*
X112034284Y-93459243D01*
X112078404Y-93294588D01*
X112092119Y-93243402D01*
X112092119Y-93243400D01*
X112093543Y-93238087D01*
X112113498Y-93010000D01*
X112093543Y-92781913D01*
X112078994Y-92727617D01*
X112035707Y-92566067D01*
X112035706Y-92566065D01*
X112034284Y-92560757D01*
X112024313Y-92539373D01*
X111939849Y-92358238D01*
X111939846Y-92358233D01*
X111937523Y-92353251D01*
X111861261Y-92244338D01*
X111809357Y-92170211D01*
X111809355Y-92170208D01*
X111806198Y-92165700D01*
X111644300Y-92003802D01*
X111639792Y-92000645D01*
X111639789Y-92000643D01*
X111516455Y-91914284D01*
X111456749Y-91872477D01*
X111451767Y-91870154D01*
X111451762Y-91870151D01*
X111254225Y-91778039D01*
X111254224Y-91778039D01*
X111249243Y-91775716D01*
X111243935Y-91774294D01*
X111243933Y-91774293D01*
X111033402Y-91717881D01*
X111033400Y-91717881D01*
X111028087Y-91716457D01*
X110839982Y-91700000D01*
X113786502Y-91700000D01*
X113806457Y-91928087D01*
X113807881Y-91933400D01*
X113807881Y-91933402D01*
X113860112Y-92128327D01*
X113865716Y-92149243D01*
X113868039Y-92154224D01*
X113868039Y-92154225D01*
X113960151Y-92351762D01*
X113960154Y-92351767D01*
X113962477Y-92356749D01*
X114008727Y-92422800D01*
X114087735Y-92535635D01*
X114093802Y-92544300D01*
X114255700Y-92706198D01*
X114260208Y-92709355D01*
X114260211Y-92709357D01*
X114280091Y-92723277D01*
X114443251Y-92837523D01*
X114448233Y-92839846D01*
X114448238Y-92839849D01*
X114610667Y-92915590D01*
X114650757Y-92934284D01*
X114656065Y-92935706D01*
X114656067Y-92935707D01*
X114866598Y-92992119D01*
X114866600Y-92992119D01*
X114871913Y-92993543D01*
X115100000Y-93013498D01*
X115328087Y-92993543D01*
X115333400Y-92992119D01*
X115333402Y-92992119D01*
X115543933Y-92935707D01*
X115543935Y-92935706D01*
X115549243Y-92934284D01*
X115589333Y-92915590D01*
X115751762Y-92839849D01*
X115751767Y-92839846D01*
X115756749Y-92837523D01*
X115919909Y-92723277D01*
X115939789Y-92709357D01*
X115939792Y-92709355D01*
X115944300Y-92706198D01*
X116106198Y-92544300D01*
X116112266Y-92535635D01*
X116191273Y-92422800D01*
X116237523Y-92356749D01*
X116239846Y-92351767D01*
X116239849Y-92351762D01*
X116331961Y-92154225D01*
X116331961Y-92154224D01*
X116334284Y-92149243D01*
X116339889Y-92128327D01*
X116392119Y-91933402D01*
X116392119Y-91933400D01*
X116393543Y-91928087D01*
X116413498Y-91700000D01*
X116393543Y-91471913D01*
X116392119Y-91466598D01*
X116335707Y-91256067D01*
X116335706Y-91256065D01*
X116334284Y-91250757D01*
X116315170Y-91209767D01*
X116239849Y-91048238D01*
X116239846Y-91048233D01*
X116237523Y-91043251D01*
X116164098Y-90938389D01*
X116109357Y-90860211D01*
X116109355Y-90860208D01*
X116106198Y-90855700D01*
X115944300Y-90693802D01*
X115939792Y-90690645D01*
X115939789Y-90690643D01*
X115794563Y-90588955D01*
X115756749Y-90562477D01*
X115751767Y-90560154D01*
X115751762Y-90560151D01*
X115554225Y-90468039D01*
X115554224Y-90468039D01*
X115549243Y-90465716D01*
X115543935Y-90464294D01*
X115543933Y-90464293D01*
X115333402Y-90407881D01*
X115333400Y-90407881D01*
X115328087Y-90406457D01*
X115100000Y-90386502D01*
X114871913Y-90406457D01*
X114866600Y-90407881D01*
X114866598Y-90407881D01*
X114656067Y-90464293D01*
X114656065Y-90464294D01*
X114650757Y-90465716D01*
X114645776Y-90468039D01*
X114645775Y-90468039D01*
X114448238Y-90560151D01*
X114448233Y-90560154D01*
X114443251Y-90562477D01*
X114405437Y-90588955D01*
X114260211Y-90690643D01*
X114260208Y-90690645D01*
X114255700Y-90693802D01*
X114093802Y-90855700D01*
X114090645Y-90860208D01*
X114090643Y-90860211D01*
X114035902Y-90938389D01*
X113962477Y-91043251D01*
X113960154Y-91048233D01*
X113960151Y-91048238D01*
X113884830Y-91209767D01*
X113865716Y-91250757D01*
X113864294Y-91256065D01*
X113864293Y-91256067D01*
X113807881Y-91466598D01*
X113806457Y-91471913D01*
X113786502Y-91700000D01*
X110839982Y-91700000D01*
X110800000Y-91696502D01*
X110571913Y-91716457D01*
X110566600Y-91717881D01*
X110566598Y-91717881D01*
X110356067Y-91774293D01*
X110356065Y-91774294D01*
X110350757Y-91775716D01*
X110345776Y-91778039D01*
X110345775Y-91778039D01*
X110148238Y-91870151D01*
X110148233Y-91870154D01*
X110143251Y-91872477D01*
X110083545Y-91914284D01*
X109960211Y-92000643D01*
X109960208Y-92000645D01*
X109955700Y-92003802D01*
X109793802Y-92165700D01*
X109790645Y-92170208D01*
X109790643Y-92170211D01*
X109738739Y-92244338D01*
X109662477Y-92353251D01*
X109660154Y-92358233D01*
X109660151Y-92358238D01*
X109575687Y-92539373D01*
X109565716Y-92560757D01*
X109564294Y-92566065D01*
X109564293Y-92566067D01*
X109521006Y-92727617D01*
X109506457Y-92781913D01*
X109486502Y-93010000D01*
X108008500Y-93010000D01*
X108008500Y-92061866D01*
X108001745Y-91999684D01*
X107950615Y-91863295D01*
X107863261Y-91746739D01*
X107746705Y-91659385D01*
X107610316Y-91608255D01*
X107548134Y-91601500D01*
X105851866Y-91601500D01*
X105789684Y-91608255D01*
X105653295Y-91659385D01*
X105536739Y-91746739D01*
X105449385Y-91863295D01*
X105398255Y-91999684D01*
X105391500Y-92061866D01*
X105391500Y-93758134D01*
X101392834Y-93758134D01*
X101431961Y-93674225D01*
X101431961Y-93674224D01*
X101434284Y-93669243D01*
X101493543Y-93448087D01*
X101513498Y-93220000D01*
X101493543Y-92991913D01*
X101473092Y-92915590D01*
X101435707Y-92776067D01*
X101435706Y-92776065D01*
X101434284Y-92770757D01*
X101398213Y-92693401D01*
X101339849Y-92568238D01*
X101339846Y-92568233D01*
X101337523Y-92563251D01*
X101236936Y-92419598D01*
X101209357Y-92380211D01*
X101209355Y-92380208D01*
X101206198Y-92375700D01*
X101044300Y-92213802D01*
X101039792Y-92210645D01*
X101039789Y-92210643D01*
X100922229Y-92128327D01*
X100856749Y-92082477D01*
X100851767Y-92080154D01*
X100851762Y-92080151D01*
X100817543Y-92064195D01*
X100764258Y-92017278D01*
X100744797Y-91949001D01*
X100765339Y-91881041D01*
X100817543Y-91835805D01*
X100851762Y-91819849D01*
X100851767Y-91819846D01*
X100856749Y-91817523D01*
X100999052Y-91717881D01*
X101039789Y-91689357D01*
X101039792Y-91689355D01*
X101044300Y-91686198D01*
X101206198Y-91524300D01*
X101246602Y-91466598D01*
X101334366Y-91341257D01*
X101337523Y-91336749D01*
X101339846Y-91331767D01*
X101339849Y-91331762D01*
X101431961Y-91134225D01*
X101431961Y-91134224D01*
X101434284Y-91129243D01*
X101455990Y-91048238D01*
X101492119Y-90913402D01*
X101492120Y-90913398D01*
X101493543Y-90908087D01*
X101513498Y-90680000D01*
X101493543Y-90451913D01*
X101481235Y-90405978D01*
X101435707Y-90236067D01*
X101435706Y-90236065D01*
X101434284Y-90230757D01*
X101387468Y-90130359D01*
X101339849Y-90028238D01*
X101339846Y-90028233D01*
X101337523Y-90023251D01*
X101236936Y-89879598D01*
X101209357Y-89840211D01*
X101209355Y-89840208D01*
X101206198Y-89835700D01*
X101044300Y-89673802D01*
X101039792Y-89670645D01*
X101039789Y-89670643D01*
X100961611Y-89615902D01*
X100856749Y-89542477D01*
X100851767Y-89540154D01*
X100851762Y-89540151D01*
X100654225Y-89448039D01*
X100654224Y-89448039D01*
X100649243Y-89445716D01*
X100643935Y-89444294D01*
X100643933Y-89444293D01*
X100433402Y-89387881D01*
X100433400Y-89387881D01*
X100428087Y-89386457D01*
X100308439Y-89375989D01*
X100216029Y-89367904D01*
X100149911Y-89342040D01*
X100108272Y-89284537D01*
X100104331Y-89213650D01*
X100137916Y-89153288D01*
X101505142Y-87786062D01*
X114378493Y-87786062D01*
X114387789Y-87798077D01*
X114438994Y-87833931D01*
X114448489Y-87839414D01*
X114645947Y-87931490D01*
X114656239Y-87935236D01*
X114866688Y-87991625D01*
X114877481Y-87993528D01*
X115094525Y-88012517D01*
X115105475Y-88012517D01*
X115322519Y-87993528D01*
X115333312Y-87991625D01*
X115543761Y-87935236D01*
X115554053Y-87931490D01*
X115751511Y-87839414D01*
X115761006Y-87833931D01*
X115813048Y-87797491D01*
X115821424Y-87787012D01*
X115814356Y-87773566D01*
X115112812Y-87072022D01*
X115098868Y-87064408D01*
X115097035Y-87064539D01*
X115090420Y-87068790D01*
X114384923Y-87774287D01*
X114378493Y-87786062D01*
X101505142Y-87786062D01*
X102585729Y-86705475D01*
X113787483Y-86705475D01*
X113806472Y-86922519D01*
X113808375Y-86933312D01*
X113864764Y-87143761D01*
X113868510Y-87154053D01*
X113960586Y-87351511D01*
X113966069Y-87361006D01*
X114002509Y-87413048D01*
X114012988Y-87421424D01*
X114026434Y-87414356D01*
X114727978Y-86712812D01*
X114734356Y-86701132D01*
X115464408Y-86701132D01*
X115464539Y-86702965D01*
X115468790Y-86709580D01*
X116174287Y-87415077D01*
X116186062Y-87421507D01*
X116198077Y-87412211D01*
X116233931Y-87361006D01*
X116239414Y-87351511D01*
X116331490Y-87154053D01*
X116335236Y-87143761D01*
X116391625Y-86933312D01*
X116393528Y-86922519D01*
X116412517Y-86705475D01*
X116412517Y-86694525D01*
X116393528Y-86477481D01*
X116391625Y-86466688D01*
X116335236Y-86256239D01*
X116331490Y-86245947D01*
X116239414Y-86048489D01*
X116233931Y-86038994D01*
X116197491Y-85986952D01*
X116187012Y-85978576D01*
X116173566Y-85985644D01*
X115472022Y-86687188D01*
X115464408Y-86701132D01*
X114734356Y-86701132D01*
X114735592Y-86698868D01*
X114735461Y-86697035D01*
X114731210Y-86690420D01*
X114025713Y-85984923D01*
X114013938Y-85978493D01*
X114001923Y-85987789D01*
X113966069Y-86038994D01*
X113960586Y-86048489D01*
X113868510Y-86245947D01*
X113864764Y-86256239D01*
X113808375Y-86466688D01*
X113806472Y-86477481D01*
X113787483Y-86694525D01*
X113787483Y-86705475D01*
X102585729Y-86705475D01*
X104001204Y-85290000D01*
X105386502Y-85290000D01*
X105406457Y-85518087D01*
X105407881Y-85523400D01*
X105407881Y-85523402D01*
X105441395Y-85648475D01*
X105465716Y-85739243D01*
X105468039Y-85744224D01*
X105468039Y-85744225D01*
X105560151Y-85941762D01*
X105560154Y-85941767D01*
X105562477Y-85946749D01*
X105584763Y-85978576D01*
X105657262Y-86082115D01*
X105693802Y-86134300D01*
X105855700Y-86296198D01*
X105860208Y-86299355D01*
X105860211Y-86299357D01*
X105901086Y-86327978D01*
X106043251Y-86427523D01*
X106048233Y-86429846D01*
X106048238Y-86429849D01*
X106225059Y-86512301D01*
X106250757Y-86524284D01*
X106256065Y-86525706D01*
X106256067Y-86525707D01*
X106466598Y-86582119D01*
X106466600Y-86582119D01*
X106471913Y-86583543D01*
X106700000Y-86603498D01*
X106928087Y-86583543D01*
X106933400Y-86582119D01*
X106933402Y-86582119D01*
X107143933Y-86525707D01*
X107143935Y-86525706D01*
X107149243Y-86524284D01*
X107174941Y-86512301D01*
X107351762Y-86429849D01*
X107351767Y-86429846D01*
X107356749Y-86427523D01*
X107498914Y-86327978D01*
X107539789Y-86299357D01*
X107539792Y-86299355D01*
X107544300Y-86296198D01*
X107706198Y-86134300D01*
X107742739Y-86082115D01*
X107815237Y-85978576D01*
X107837523Y-85946749D01*
X107839846Y-85941767D01*
X107839849Y-85941762D01*
X107931961Y-85744225D01*
X107931961Y-85744224D01*
X107934284Y-85739243D01*
X107956450Y-85656522D01*
X109517273Y-85656522D01*
X109564764Y-85833761D01*
X109568510Y-85844053D01*
X109660586Y-86041511D01*
X109666069Y-86051007D01*
X109791028Y-86229467D01*
X109798084Y-86237875D01*
X109952125Y-86391916D01*
X109960533Y-86398972D01*
X110138993Y-86523931D01*
X110148489Y-86529414D01*
X110345947Y-86621490D01*
X110356239Y-86625236D01*
X110528503Y-86671394D01*
X110542599Y-86671058D01*
X110546000Y-86663116D01*
X110546000Y-86657967D01*
X111054000Y-86657967D01*
X111057973Y-86671498D01*
X111066522Y-86672727D01*
X111243761Y-86625236D01*
X111254053Y-86621490D01*
X111451511Y-86529414D01*
X111461007Y-86523931D01*
X111639467Y-86398972D01*
X111647875Y-86391916D01*
X111801916Y-86237875D01*
X111808972Y-86229467D01*
X111933931Y-86051007D01*
X111939414Y-86041511D01*
X112031490Y-85844053D01*
X112035236Y-85833761D01*
X112081394Y-85661497D01*
X112081058Y-85647401D01*
X112073116Y-85644000D01*
X111072115Y-85644000D01*
X111056876Y-85648475D01*
X111055671Y-85649865D01*
X111054000Y-85657548D01*
X111054000Y-86657967D01*
X110546000Y-86657967D01*
X110546000Y-85662115D01*
X110541525Y-85646876D01*
X110540135Y-85645671D01*
X110532452Y-85644000D01*
X109532033Y-85644000D01*
X109518502Y-85647973D01*
X109517273Y-85656522D01*
X107956450Y-85656522D01*
X107958606Y-85648475D01*
X107968115Y-85612988D01*
X114378576Y-85612988D01*
X114385644Y-85626434D01*
X115087188Y-86327978D01*
X115101132Y-86335592D01*
X115102965Y-86335461D01*
X115109580Y-86331210D01*
X115815077Y-85625713D01*
X115821507Y-85613938D01*
X115812211Y-85601923D01*
X115761006Y-85566069D01*
X115751511Y-85560586D01*
X115554053Y-85468510D01*
X115543761Y-85464764D01*
X115333312Y-85408375D01*
X115322519Y-85406472D01*
X115105475Y-85387483D01*
X115094525Y-85387483D01*
X114877481Y-85406472D01*
X114866688Y-85408375D01*
X114656239Y-85464764D01*
X114645947Y-85468510D01*
X114448489Y-85560586D01*
X114438994Y-85566069D01*
X114386952Y-85602509D01*
X114378576Y-85612988D01*
X107968115Y-85612988D01*
X107992119Y-85523402D01*
X107992119Y-85523400D01*
X107993543Y-85518087D01*
X108013498Y-85290000D01*
X107998494Y-85118503D01*
X109518606Y-85118503D01*
X109518942Y-85132599D01*
X109526884Y-85136000D01*
X110527885Y-85136000D01*
X110543124Y-85131525D01*
X110544329Y-85130135D01*
X110546000Y-85122452D01*
X110546000Y-85117885D01*
X111054000Y-85117885D01*
X111058475Y-85133124D01*
X111059865Y-85134329D01*
X111067548Y-85136000D01*
X112067967Y-85136000D01*
X112081498Y-85132027D01*
X112082727Y-85123478D01*
X112035236Y-84946239D01*
X112031490Y-84935947D01*
X111939414Y-84738489D01*
X111933931Y-84728993D01*
X111808972Y-84550533D01*
X111801916Y-84542125D01*
X111647875Y-84388084D01*
X111639467Y-84381028D01*
X111461007Y-84256069D01*
X111451511Y-84250586D01*
X111254053Y-84158510D01*
X111243761Y-84154764D01*
X111071497Y-84108606D01*
X111057401Y-84108942D01*
X111054000Y-84116884D01*
X111054000Y-85117885D01*
X110546000Y-85117885D01*
X110546000Y-84122033D01*
X110542027Y-84108502D01*
X110533478Y-84107273D01*
X110356239Y-84154764D01*
X110345947Y-84158510D01*
X110148489Y-84250586D01*
X110138993Y-84256069D01*
X109960533Y-84381028D01*
X109952125Y-84388084D01*
X109798084Y-84542125D01*
X109791028Y-84550533D01*
X109666069Y-84728993D01*
X109660586Y-84738489D01*
X109568510Y-84935947D01*
X109564764Y-84946239D01*
X109518606Y-85118503D01*
X107998494Y-85118503D01*
X107993543Y-85061913D01*
X107991898Y-85055775D01*
X107935707Y-84846067D01*
X107935706Y-84846065D01*
X107934284Y-84840757D01*
X107931961Y-84835775D01*
X107839849Y-84638238D01*
X107839846Y-84638233D01*
X107837523Y-84633251D01*
X107706198Y-84445700D01*
X107544300Y-84283802D01*
X107539792Y-84280645D01*
X107539789Y-84280643D01*
X107448122Y-84216457D01*
X107356749Y-84152477D01*
X107351767Y-84150154D01*
X107351762Y-84150151D01*
X107154225Y-84058039D01*
X107154224Y-84058039D01*
X107149243Y-84055716D01*
X107143935Y-84054294D01*
X107143933Y-84054293D01*
X106933402Y-83997881D01*
X106933400Y-83997881D01*
X106928087Y-83996457D01*
X106700000Y-83976502D01*
X106471913Y-83996457D01*
X106466600Y-83997881D01*
X106466598Y-83997881D01*
X106256067Y-84054293D01*
X106256065Y-84054294D01*
X106250757Y-84055716D01*
X106245776Y-84058039D01*
X106245775Y-84058039D01*
X106048238Y-84150151D01*
X106048233Y-84150154D01*
X106043251Y-84152477D01*
X105951878Y-84216457D01*
X105860211Y-84280643D01*
X105860208Y-84280645D01*
X105855700Y-84283802D01*
X105693802Y-84445700D01*
X105562477Y-84633251D01*
X105560154Y-84638233D01*
X105560151Y-84638238D01*
X105468039Y-84835775D01*
X105465716Y-84840757D01*
X105464294Y-84846065D01*
X105464293Y-84846067D01*
X105408102Y-85055775D01*
X105406457Y-85061913D01*
X105386502Y-85290000D01*
X104001204Y-85290000D01*
X105536288Y-83754916D01*
X105598600Y-83720890D01*
X105625383Y-83718011D01*
X111256722Y-83718011D01*
X111267905Y-83718538D01*
X111275398Y-83720213D01*
X111283324Y-83719964D01*
X111283325Y-83719964D01*
X111343475Y-83718073D01*
X111347434Y-83718011D01*
X111375345Y-83718011D01*
X111379280Y-83717514D01*
X111379345Y-83717506D01*
X111391182Y-83716573D01*
X111423440Y-83715559D01*
X111427459Y-83715433D01*
X111435378Y-83715184D01*
X111454832Y-83709532D01*
X111474189Y-83705524D01*
X111486419Y-83703979D01*
X111486420Y-83703979D01*
X111494286Y-83702985D01*
X111501657Y-83700066D01*
X111501659Y-83700066D01*
X111535401Y-83686707D01*
X111546631Y-83682862D01*
X111581472Y-83672740D01*
X111581473Y-83672740D01*
X111589082Y-83670529D01*
X111595901Y-83666496D01*
X111595906Y-83666494D01*
X111606517Y-83660218D01*
X111624265Y-83651523D01*
X111643106Y-83644063D01*
X111678876Y-83618075D01*
X111688796Y-83611559D01*
X111720024Y-83593091D01*
X111720027Y-83593089D01*
X111726851Y-83589053D01*
X111741172Y-83574732D01*
X111756206Y-83561891D01*
X111766183Y-83554642D01*
X111772596Y-83549983D01*
X111800787Y-83515906D01*
X111808777Y-83507127D01*
X112046752Y-83269152D01*
X112109064Y-83235126D01*
X112168459Y-83236541D01*
X112226591Y-83252118D01*
X112226602Y-83252120D01*
X112231913Y-83253543D01*
X112460000Y-83273498D01*
X112688087Y-83253543D01*
X112693400Y-83252119D01*
X112693402Y-83252119D01*
X112903933Y-83195707D01*
X112903935Y-83195706D01*
X112909243Y-83194284D01*
X112937506Y-83181105D01*
X113111762Y-83099849D01*
X113111767Y-83099846D01*
X113116749Y-83097523D01*
X113221611Y-83024098D01*
X113299789Y-82969357D01*
X113299792Y-82969355D01*
X113304300Y-82966198D01*
X113466198Y-82804300D01*
X113597523Y-82616749D01*
X113599846Y-82611767D01*
X113599849Y-82611762D01*
X113615805Y-82577543D01*
X113662722Y-82524258D01*
X113730999Y-82504797D01*
X113798959Y-82525339D01*
X113844195Y-82577543D01*
X113860151Y-82611762D01*
X113860154Y-82611767D01*
X113862477Y-82616749D01*
X113993802Y-82804300D01*
X114155700Y-82966198D01*
X114160208Y-82969355D01*
X114160211Y-82969357D01*
X114238389Y-83024098D01*
X114343251Y-83097523D01*
X114348233Y-83099846D01*
X114348238Y-83099849D01*
X114522494Y-83181105D01*
X114550757Y-83194284D01*
X114556065Y-83195706D01*
X114556067Y-83195707D01*
X114766598Y-83252119D01*
X114766600Y-83252119D01*
X114771913Y-83253543D01*
X115000000Y-83273498D01*
X115228087Y-83253543D01*
X115233400Y-83252119D01*
X115233402Y-83252119D01*
X115443933Y-83195707D01*
X115443935Y-83195706D01*
X115449243Y-83194284D01*
X115477506Y-83181105D01*
X115651762Y-83099849D01*
X115651767Y-83099846D01*
X115656749Y-83097523D01*
X115761611Y-83024098D01*
X115839789Y-82969357D01*
X115839792Y-82969355D01*
X115844300Y-82966198D01*
X116006198Y-82804300D01*
X116137523Y-82616749D01*
X116139846Y-82611767D01*
X116139849Y-82611762D01*
X116231961Y-82414225D01*
X116231961Y-82414224D01*
X116234284Y-82409243D01*
X116265593Y-82292399D01*
X116292119Y-82193402D01*
X116292120Y-82193399D01*
X116293543Y-82188087D01*
X116313498Y-81960000D01*
X116293543Y-81731913D01*
X116234284Y-81510757D01*
X116155805Y-81342457D01*
X116139849Y-81308238D01*
X116139846Y-81308233D01*
X116137523Y-81303251D01*
X116006198Y-81115700D01*
X115844300Y-80953802D01*
X115839792Y-80950645D01*
X115839789Y-80950643D01*
X115761611Y-80895902D01*
X115656749Y-80822477D01*
X115651767Y-80820154D01*
X115651762Y-80820151D01*
X115454225Y-80728039D01*
X115454224Y-80728039D01*
X115449243Y-80725716D01*
X115443935Y-80724294D01*
X115443933Y-80724293D01*
X115233402Y-80667881D01*
X115233400Y-80667881D01*
X115228087Y-80666457D01*
X115000000Y-80646502D01*
X114771913Y-80666457D01*
X114766600Y-80667881D01*
X114766598Y-80667881D01*
X114556067Y-80724293D01*
X114556065Y-80724294D01*
X114550757Y-80725716D01*
X114545776Y-80728039D01*
X114545775Y-80728039D01*
X114348238Y-80820151D01*
X114348233Y-80820154D01*
X114343251Y-80822477D01*
X114238389Y-80895902D01*
X114160211Y-80950643D01*
X114160208Y-80950645D01*
X114155700Y-80953802D01*
X113993802Y-81115700D01*
X113862477Y-81303251D01*
X113860154Y-81308233D01*
X113860151Y-81308238D01*
X113844195Y-81342457D01*
X113797278Y-81395742D01*
X113729001Y-81415203D01*
X113661041Y-81394661D01*
X113615805Y-81342457D01*
X113599849Y-81308238D01*
X113599846Y-81308233D01*
X113597523Y-81303251D01*
X113466198Y-81115700D01*
X113304300Y-80953802D01*
X113299792Y-80950645D01*
X113299789Y-80950643D01*
X113221611Y-80895902D01*
X113116749Y-80822477D01*
X113111767Y-80820154D01*
X113111762Y-80820151D01*
X112914225Y-80728039D01*
X112914224Y-80728039D01*
X112909243Y-80725716D01*
X112903935Y-80724294D01*
X112903933Y-80724293D01*
X112693402Y-80667881D01*
X112693400Y-80667881D01*
X112688087Y-80666457D01*
X112460000Y-80646502D01*
X112231913Y-80666457D01*
X112226600Y-80667881D01*
X112226598Y-80667881D01*
X112016067Y-80724293D01*
X112016065Y-80724294D01*
X112010757Y-80725716D01*
X112005776Y-80728039D01*
X112005775Y-80728039D01*
X111808238Y-80820151D01*
X111808233Y-80820154D01*
X111803251Y-80822477D01*
X111698389Y-80895902D01*
X111620211Y-80950643D01*
X111620208Y-80950645D01*
X111615700Y-80953802D01*
X111453802Y-81115700D01*
X111322477Y-81303251D01*
X111320154Y-81308233D01*
X111320151Y-81308238D01*
X111304195Y-81342457D01*
X111257278Y-81395742D01*
X111189001Y-81415203D01*
X111121041Y-81394661D01*
X111075805Y-81342457D01*
X111059849Y-81308238D01*
X111059846Y-81308233D01*
X111057523Y-81303251D01*
X110926198Y-81115700D01*
X110764300Y-80953802D01*
X110759792Y-80950645D01*
X110759789Y-80950643D01*
X110681611Y-80895902D01*
X110576749Y-80822477D01*
X110571767Y-80820154D01*
X110571762Y-80820151D01*
X110374225Y-80728039D01*
X110374224Y-80728039D01*
X110369243Y-80725716D01*
X110363935Y-80724294D01*
X110363933Y-80724293D01*
X110153402Y-80667881D01*
X110153400Y-80667881D01*
X110148087Y-80666457D01*
X109920000Y-80646502D01*
X109691913Y-80666457D01*
X109686600Y-80667881D01*
X109686598Y-80667881D01*
X109476067Y-80724293D01*
X109476065Y-80724294D01*
X109470757Y-80725716D01*
X109465776Y-80728039D01*
X109465775Y-80728039D01*
X109268238Y-80820151D01*
X109268233Y-80820154D01*
X109263251Y-80822477D01*
X109158389Y-80895902D01*
X109080211Y-80950643D01*
X109080208Y-80950645D01*
X109075700Y-80953802D01*
X108913802Y-81115700D01*
X108782477Y-81303251D01*
X108780154Y-81308233D01*
X108780151Y-81308238D01*
X108764195Y-81342457D01*
X108717278Y-81395742D01*
X108649001Y-81415203D01*
X108581041Y-81394661D01*
X108535805Y-81342457D01*
X108519849Y-81308238D01*
X108519846Y-81308233D01*
X108517523Y-81303251D01*
X108386198Y-81115700D01*
X108224300Y-80953802D01*
X108219792Y-80950645D01*
X108219789Y-80950643D01*
X108141611Y-80895902D01*
X108036749Y-80822477D01*
X108031767Y-80820154D01*
X108031762Y-80820151D01*
X107834225Y-80728039D01*
X107834224Y-80728039D01*
X107829243Y-80725716D01*
X107823935Y-80724294D01*
X107823933Y-80724293D01*
X107613402Y-80667881D01*
X107613400Y-80667881D01*
X107608087Y-80666457D01*
X107380000Y-80646502D01*
X107151913Y-80666457D01*
X107146600Y-80667881D01*
X107146598Y-80667881D01*
X106936067Y-80724293D01*
X106936065Y-80724294D01*
X106930757Y-80725716D01*
X106925776Y-80728039D01*
X106925775Y-80728039D01*
X106728238Y-80820151D01*
X106728233Y-80820154D01*
X106723251Y-80822477D01*
X106618389Y-80895902D01*
X106540211Y-80950643D01*
X106540208Y-80950645D01*
X106535700Y-80953802D01*
X106373802Y-81115700D01*
X106242477Y-81303251D01*
X106240154Y-81308233D01*
X106240151Y-81308238D01*
X106224195Y-81342457D01*
X106145716Y-81510757D01*
X106086457Y-81731913D01*
X106066502Y-81960000D01*
X106086457Y-82188087D01*
X106110000Y-82275950D01*
X106114408Y-82292399D01*
X106112718Y-82363376D01*
X106072924Y-82422172D01*
X106007660Y-82450120D01*
X105992701Y-82451011D01*
X105389552Y-82451011D01*
X105378368Y-82450484D01*
X105370880Y-82448810D01*
X105362957Y-82449059D01*
X105302822Y-82450949D01*
X105298864Y-82451011D01*
X105270933Y-82451011D01*
X105267018Y-82451506D01*
X105267014Y-82451506D01*
X105266956Y-82451514D01*
X105266927Y-82451517D01*
X105255085Y-82452450D01*
X105210899Y-82453838D01*
X105193533Y-82458883D01*
X105191447Y-82459489D01*
X105172095Y-82463497D01*
X105159857Y-82465043D01*
X105159855Y-82465044D01*
X105151992Y-82466037D01*
X105110875Y-82482317D01*
X105099674Y-82486152D01*
X105057195Y-82498493D01*
X105050376Y-82502526D01*
X105050371Y-82502528D01*
X105039760Y-82508804D01*
X105022010Y-82517501D01*
X105003172Y-82524959D01*
X104996756Y-82529620D01*
X104996755Y-82529621D01*
X104967414Y-82550939D01*
X104957490Y-82557458D01*
X104926249Y-82575933D01*
X104926244Y-82575937D01*
X104919426Y-82579969D01*
X104905102Y-82594293D01*
X104890070Y-82607132D01*
X104873682Y-82619039D01*
X104845501Y-82653104D01*
X104837511Y-82661884D01*
X103716106Y-83783289D01*
X103653794Y-83817315D01*
X103582979Y-83812250D01*
X103526143Y-83769703D01*
X103521496Y-83762656D01*
X103393972Y-83580533D01*
X103386916Y-83572125D01*
X103232875Y-83418084D01*
X103224467Y-83411028D01*
X103041498Y-83282912D01*
X103042474Y-83281518D01*
X102998808Y-83235716D01*
X102985377Y-83166001D01*
X103011769Y-83100092D01*
X103021711Y-83088893D01*
X107772247Y-78338357D01*
X107780537Y-78330813D01*
X107787018Y-78326700D01*
X107833659Y-78277032D01*
X107836413Y-78274191D01*
X107856134Y-78254470D01*
X107858612Y-78251275D01*
X107866318Y-78242253D01*
X107891158Y-78215801D01*
X107896586Y-78210021D01*
X107906346Y-78192268D01*
X107917199Y-78175745D01*
X107924753Y-78166006D01*
X107929613Y-78159741D01*
X107947176Y-78119157D01*
X107952383Y-78108527D01*
X107973695Y-78069760D01*
X107975666Y-78062083D01*
X107975668Y-78062078D01*
X107978732Y-78050142D01*
X107985138Y-78031430D01*
X107990034Y-78020117D01*
X107993181Y-78012845D01*
X108000097Y-77969181D01*
X108002504Y-77957560D01*
X108011528Y-77922411D01*
X108011528Y-77922410D01*
X108013500Y-77914730D01*
X108013500Y-77894469D01*
X108015051Y-77874758D01*
X108016979Y-77862585D01*
X108018219Y-77854757D01*
X108014059Y-77810746D01*
X108013500Y-77798889D01*
X108013500Y-73019394D01*
X108033502Y-72951273D01*
X108067229Y-72916181D01*
X108219789Y-72809357D01*
X108219792Y-72809355D01*
X108224300Y-72806198D01*
X108386198Y-72644300D01*
X108399380Y-72625475D01*
X108514366Y-72461257D01*
X108517523Y-72456749D01*
X108519846Y-72451767D01*
X108519849Y-72451762D01*
X108535805Y-72417543D01*
X108582722Y-72364258D01*
X108650999Y-72344797D01*
X108718959Y-72365339D01*
X108764195Y-72417543D01*
X108780151Y-72451762D01*
X108780154Y-72451767D01*
X108782477Y-72456749D01*
X108785634Y-72461257D01*
X108900621Y-72625475D01*
X108913802Y-72644300D01*
X109075700Y-72806198D01*
X109080208Y-72809355D01*
X109080211Y-72809357D01*
X109143114Y-72853402D01*
X109263251Y-72937523D01*
X109268233Y-72939846D01*
X109268238Y-72939849D01*
X109438825Y-73019394D01*
X109470757Y-73034284D01*
X109476065Y-73035706D01*
X109476067Y-73035707D01*
X109686598Y-73092119D01*
X109686600Y-73092119D01*
X109691913Y-73093543D01*
X109920000Y-73113498D01*
X110148087Y-73093543D01*
X110153400Y-73092119D01*
X110153402Y-73092119D01*
X110363933Y-73035707D01*
X110363935Y-73035706D01*
X110369243Y-73034284D01*
X110401175Y-73019394D01*
X110571762Y-72939849D01*
X110571767Y-72939846D01*
X110576749Y-72937523D01*
X110696886Y-72853402D01*
X110759789Y-72809357D01*
X110759792Y-72809355D01*
X110764300Y-72806198D01*
X110926198Y-72644300D01*
X110939380Y-72625475D01*
X111054366Y-72461257D01*
X111057523Y-72456749D01*
X111059846Y-72451767D01*
X111059849Y-72451762D01*
X111075805Y-72417543D01*
X111122722Y-72364258D01*
X111190999Y-72344797D01*
X111258959Y-72365339D01*
X111304195Y-72417543D01*
X111320151Y-72451762D01*
X111320154Y-72451767D01*
X111322477Y-72456749D01*
X111325634Y-72461257D01*
X111440621Y-72625475D01*
X111453802Y-72644300D01*
X111615700Y-72806198D01*
X111620208Y-72809355D01*
X111620211Y-72809357D01*
X111683114Y-72853402D01*
X111803251Y-72937523D01*
X111808233Y-72939846D01*
X111808238Y-72939849D01*
X111978825Y-73019394D01*
X112010757Y-73034284D01*
X112016065Y-73035706D01*
X112016067Y-73035707D01*
X112226598Y-73092119D01*
X112226600Y-73092119D01*
X112231913Y-73093543D01*
X112460000Y-73113498D01*
X112688087Y-73093543D01*
X112693400Y-73092119D01*
X112693402Y-73092119D01*
X112903933Y-73035707D01*
X112903935Y-73035706D01*
X112909243Y-73034284D01*
X112941175Y-73019394D01*
X113111762Y-72939849D01*
X113111767Y-72939846D01*
X113116749Y-72937523D01*
X113236886Y-72853402D01*
X113299789Y-72809357D01*
X113299792Y-72809355D01*
X113304300Y-72806198D01*
X113466198Y-72644300D01*
X113469357Y-72639789D01*
X113472892Y-72635576D01*
X113474026Y-72636527D01*
X113524071Y-72596529D01*
X113594690Y-72589224D01*
X113658049Y-72621258D01*
X113694030Y-72682462D01*
X113697082Y-72699517D01*
X113698255Y-72710316D01*
X113749385Y-72846705D01*
X113836739Y-72963261D01*
X113953295Y-73050615D01*
X114089684Y-73101745D01*
X114151866Y-73108500D01*
X115848134Y-73108500D01*
X115910316Y-73101745D01*
X116046705Y-73050615D01*
X116163261Y-72963261D01*
X116250615Y-72846705D01*
X116301745Y-72710316D01*
X116308500Y-72648134D01*
X116308500Y-70951866D01*
X116301745Y-70889684D01*
X116250615Y-70753295D01*
X116163261Y-70636739D01*
X116046705Y-70549385D01*
X115910316Y-70498255D01*
X115848134Y-70491500D01*
X114151866Y-70491500D01*
X114089684Y-70498255D01*
X113953295Y-70549385D01*
X113836739Y-70636739D01*
X113749385Y-70753295D01*
X113698255Y-70889684D01*
X113697083Y-70900474D01*
X113696197Y-70902606D01*
X113695575Y-70905222D01*
X113695152Y-70905121D01*
X113669845Y-70966035D01*
X113611483Y-71006463D01*
X113540529Y-71008922D01*
X113479510Y-70972629D01*
X113472511Y-70963969D01*
X113469354Y-70960207D01*
X113466198Y-70955700D01*
X113304300Y-70793802D01*
X113299792Y-70790645D01*
X113299789Y-70790643D01*
X113221611Y-70735902D01*
X113116749Y-70662477D01*
X113111767Y-70660154D01*
X113111762Y-70660151D01*
X112914225Y-70568039D01*
X112914224Y-70568039D01*
X112909243Y-70565716D01*
X112903935Y-70564294D01*
X112903933Y-70564293D01*
X112693402Y-70507881D01*
X112693400Y-70507881D01*
X112688087Y-70506457D01*
X112460000Y-70486502D01*
X112231913Y-70506457D01*
X112226600Y-70507881D01*
X112226598Y-70507881D01*
X112016067Y-70564293D01*
X112016065Y-70564294D01*
X112010757Y-70565716D01*
X112005776Y-70568039D01*
X112005775Y-70568039D01*
X111808238Y-70660151D01*
X111808233Y-70660154D01*
X111803251Y-70662477D01*
X111698389Y-70735902D01*
X111620211Y-70790643D01*
X111620208Y-70790645D01*
X111615700Y-70793802D01*
X111453802Y-70955700D01*
X111322477Y-71143251D01*
X111320154Y-71148233D01*
X111320151Y-71148238D01*
X111304195Y-71182457D01*
X111257278Y-71235742D01*
X111189001Y-71255203D01*
X111121041Y-71234661D01*
X111075805Y-71182457D01*
X111059849Y-71148238D01*
X111059846Y-71148233D01*
X111057523Y-71143251D01*
X110926198Y-70955700D01*
X110764300Y-70793802D01*
X110759792Y-70790645D01*
X110759789Y-70790643D01*
X110681611Y-70735902D01*
X110576749Y-70662477D01*
X110571767Y-70660154D01*
X110571762Y-70660151D01*
X110374225Y-70568039D01*
X110374224Y-70568039D01*
X110369243Y-70565716D01*
X110363935Y-70564294D01*
X110363933Y-70564293D01*
X110153402Y-70507881D01*
X110153400Y-70507881D01*
X110148087Y-70506457D01*
X109920000Y-70486502D01*
X109691913Y-70506457D01*
X109686600Y-70507881D01*
X109686598Y-70507881D01*
X109476067Y-70564293D01*
X109476065Y-70564294D01*
X109470757Y-70565716D01*
X109465776Y-70568039D01*
X109465775Y-70568039D01*
X109268238Y-70660151D01*
X109268233Y-70660154D01*
X109263251Y-70662477D01*
X109158389Y-70735902D01*
X109080211Y-70790643D01*
X109080208Y-70790645D01*
X109075700Y-70793802D01*
X108913802Y-70955700D01*
X108782477Y-71143251D01*
X108780154Y-71148233D01*
X108780151Y-71148238D01*
X108764195Y-71182457D01*
X108717278Y-71235742D01*
X108649001Y-71255203D01*
X108581041Y-71234661D01*
X108535805Y-71182457D01*
X108519849Y-71148238D01*
X108519846Y-71148233D01*
X108517523Y-71143251D01*
X108386198Y-70955700D01*
X108224300Y-70793802D01*
X108219792Y-70790645D01*
X108219789Y-70790643D01*
X108141611Y-70735902D01*
X108036749Y-70662477D01*
X108031767Y-70660154D01*
X108031762Y-70660151D01*
X107834225Y-70568039D01*
X107834224Y-70568039D01*
X107829243Y-70565716D01*
X107823935Y-70564294D01*
X107823933Y-70564293D01*
X107613402Y-70507881D01*
X107613400Y-70507881D01*
X107608087Y-70506457D01*
X107380000Y-70486502D01*
X107151913Y-70506457D01*
X107146600Y-70507881D01*
X107146598Y-70507881D01*
X106936067Y-70564293D01*
X106936065Y-70564294D01*
X106930757Y-70565716D01*
X106925776Y-70568039D01*
X106925775Y-70568039D01*
X106728238Y-70660151D01*
X106728233Y-70660154D01*
X106723251Y-70662477D01*
X106618389Y-70735902D01*
X106540211Y-70790643D01*
X106540208Y-70790645D01*
X106535700Y-70793802D01*
X106373802Y-70955700D01*
X106242477Y-71143251D01*
X106240154Y-71148233D01*
X106240151Y-71148238D01*
X106157047Y-71326457D01*
X106145716Y-71350757D01*
X106144294Y-71356065D01*
X106144293Y-71356067D01*
X106087881Y-71566598D01*
X106086457Y-71571913D01*
X106066502Y-71800000D01*
X106086457Y-72028087D01*
X106087881Y-72033400D01*
X106087881Y-72033402D01*
X106124686Y-72170757D01*
X106145716Y-72249243D01*
X106148039Y-72254224D01*
X106148039Y-72254225D01*
X106240151Y-72451762D01*
X106240154Y-72451767D01*
X106242477Y-72456749D01*
X106245634Y-72461257D01*
X106360621Y-72625475D01*
X106373802Y-72644300D01*
X106535700Y-72806198D01*
X106540208Y-72809355D01*
X106540211Y-72809357D01*
X106692771Y-72916181D01*
X106737099Y-72971638D01*
X106746500Y-73019394D01*
X106746500Y-77520105D01*
X106726498Y-77588226D01*
X106709595Y-77609200D01*
X101048595Y-83270200D01*
X100986283Y-83304226D01*
X100915468Y-83299161D01*
X100858632Y-83256614D01*
X100833821Y-83190094D01*
X100833500Y-83181105D01*
X100833500Y-76965505D01*
X100853502Y-76897384D01*
X100907158Y-76850891D01*
X100977432Y-76840787D01*
X101042012Y-76870281D01*
X101080396Y-76930007D01*
X101085021Y-76954523D01*
X101091457Y-77028087D01*
X101092881Y-77033400D01*
X101092881Y-77033402D01*
X101132335Y-77180643D01*
X101150716Y-77249243D01*
X101153039Y-77254224D01*
X101153039Y-77254225D01*
X101245151Y-77451762D01*
X101245154Y-77451767D01*
X101247477Y-77456749D01*
X101304536Y-77538238D01*
X101354225Y-77609200D01*
X101378802Y-77644300D01*
X101540700Y-77806198D01*
X101545208Y-77809355D01*
X101545211Y-77809357D01*
X101547195Y-77810746D01*
X101728251Y-77937523D01*
X101733233Y-77939846D01*
X101733238Y-77939849D01*
X101930775Y-78031961D01*
X101935757Y-78034284D01*
X101941065Y-78035706D01*
X101941067Y-78035707D01*
X102151598Y-78092119D01*
X102151600Y-78092119D01*
X102156913Y-78093543D01*
X102385000Y-78113498D01*
X102613087Y-78093543D01*
X102618400Y-78092119D01*
X102618402Y-78092119D01*
X102828933Y-78035707D01*
X102828935Y-78035706D01*
X102834243Y-78034284D01*
X102839225Y-78031961D01*
X103036762Y-77939849D01*
X103036767Y-77939846D01*
X103041749Y-77937523D01*
X103222805Y-77810746D01*
X103224789Y-77809357D01*
X103224792Y-77809355D01*
X103229300Y-77806198D01*
X103391198Y-77644300D01*
X103415776Y-77609200D01*
X103465464Y-77538238D01*
X103522523Y-77456749D01*
X103524846Y-77451767D01*
X103524849Y-77451762D01*
X103616961Y-77254225D01*
X103616961Y-77254224D01*
X103619284Y-77249243D01*
X103637666Y-77180643D01*
X103677119Y-77033402D01*
X103677119Y-77033400D01*
X103678543Y-77028087D01*
X103698498Y-76800000D01*
X103678543Y-76571913D01*
X103676729Y-76565144D01*
X103620707Y-76356067D01*
X103620706Y-76356065D01*
X103619284Y-76350757D01*
X103597833Y-76304754D01*
X103524849Y-76148238D01*
X103524846Y-76148233D01*
X103522523Y-76143251D01*
X103391198Y-75955700D01*
X103229300Y-75793802D01*
X103224792Y-75790645D01*
X103224789Y-75790643D01*
X103146611Y-75735902D01*
X103041749Y-75662477D01*
X103036767Y-75660154D01*
X103036762Y-75660151D01*
X102839225Y-75568039D01*
X102839224Y-75568039D01*
X102834243Y-75565716D01*
X102828935Y-75564294D01*
X102828933Y-75564293D01*
X102618402Y-75507881D01*
X102618400Y-75507881D01*
X102613087Y-75506457D01*
X102385000Y-75486502D01*
X102156913Y-75506457D01*
X102151600Y-75507881D01*
X102151598Y-75507881D01*
X101941067Y-75564293D01*
X101941065Y-75564294D01*
X101935757Y-75565716D01*
X101930776Y-75568039D01*
X101930775Y-75568039D01*
X101733238Y-75660151D01*
X101733233Y-75660154D01*
X101728251Y-75662477D01*
X101623389Y-75735902D01*
X101545211Y-75790643D01*
X101545208Y-75790645D01*
X101540700Y-75793802D01*
X101378802Y-75955700D01*
X101247477Y-76143251D01*
X101245154Y-76148233D01*
X101245151Y-76148238D01*
X101172167Y-76304754D01*
X101150716Y-76350757D01*
X101149294Y-76356065D01*
X101149293Y-76356067D01*
X101093271Y-76565144D01*
X101091457Y-76571913D01*
X101090978Y-76577393D01*
X101090976Y-76577404D01*
X101085978Y-76634522D01*
X101060115Y-76700640D01*
X101002611Y-76742279D01*
X100931724Y-76746219D01*
X100869959Y-76711209D01*
X100836928Y-76648364D01*
X100834520Y-76627495D01*
X100833562Y-76596999D01*
X100833500Y-76593043D01*
X100833500Y-76565144D01*
X100832996Y-76561153D01*
X100832063Y-76549311D01*
X100830923Y-76513036D01*
X100830674Y-76505111D01*
X100828462Y-76497497D01*
X100828461Y-76497492D01*
X100825023Y-76485659D01*
X100821012Y-76466295D01*
X100819467Y-76454064D01*
X100818474Y-76446203D01*
X100815557Y-76438836D01*
X100815556Y-76438831D01*
X100802198Y-76405092D01*
X100798354Y-76393865D01*
X100788230Y-76359022D01*
X100786018Y-76351407D01*
X100775707Y-76333972D01*
X100767012Y-76316224D01*
X100759552Y-76297383D01*
X100733564Y-76261613D01*
X100727048Y-76251693D01*
X100708580Y-76220465D01*
X100708578Y-76220462D01*
X100704542Y-76213638D01*
X100690221Y-76199317D01*
X100677380Y-76184283D01*
X100670131Y-76174306D01*
X100665472Y-76167893D01*
X100631395Y-76139702D01*
X100622616Y-76131712D01*
X99014152Y-74523248D01*
X98980126Y-74460936D01*
X98981541Y-74401541D01*
X98997118Y-74343409D01*
X98997120Y-74343398D01*
X98998543Y-74338087D01*
X99018498Y-74110000D01*
X98998543Y-73881913D01*
X98939284Y-73660757D01*
X98860805Y-73492457D01*
X98844849Y-73458238D01*
X98844846Y-73458233D01*
X98842523Y-73453251D01*
X98711198Y-73265700D01*
X98549300Y-73103802D01*
X98544792Y-73100645D01*
X98544789Y-73100643D01*
X98465649Y-73045229D01*
X98361749Y-72972477D01*
X98356767Y-72970154D01*
X98356762Y-72970151D01*
X98159225Y-72878039D01*
X98159224Y-72878039D01*
X98154243Y-72875716D01*
X98148935Y-72874294D01*
X98148933Y-72874293D01*
X97938402Y-72817881D01*
X97938400Y-72817881D01*
X97933087Y-72816457D01*
X97705000Y-72796502D01*
X97476913Y-72816457D01*
X97471600Y-72817881D01*
X97471598Y-72817881D01*
X97261067Y-72874293D01*
X97261065Y-72874294D01*
X97255757Y-72875716D01*
X97250776Y-72878039D01*
X97250775Y-72878039D01*
X97053238Y-72970151D01*
X97053233Y-72970154D01*
X97048251Y-72972477D01*
X96944351Y-73045229D01*
X96865211Y-73100643D01*
X96865208Y-73100645D01*
X96860700Y-73103802D01*
X96698802Y-73265700D01*
X96567477Y-73453251D01*
X96565154Y-73458233D01*
X96565151Y-73458238D01*
X96549195Y-73492457D01*
X96502278Y-73545742D01*
X96434001Y-73565203D01*
X96366041Y-73544661D01*
X96320805Y-73492457D01*
X96304849Y-73458238D01*
X96304846Y-73458233D01*
X96302523Y-73453251D01*
X96171198Y-73265700D01*
X96009300Y-73103802D01*
X96004792Y-73100645D01*
X96004789Y-73100643D01*
X95925649Y-73045229D01*
X95821749Y-72972477D01*
X95816767Y-72970154D01*
X95816762Y-72970151D01*
X95619225Y-72878039D01*
X95619224Y-72878039D01*
X95614243Y-72875716D01*
X95608935Y-72874294D01*
X95608933Y-72874293D01*
X95398402Y-72817881D01*
X95398400Y-72817881D01*
X95393087Y-72816457D01*
X95165000Y-72796502D01*
X94936913Y-72816457D01*
X94931600Y-72817881D01*
X94931598Y-72817881D01*
X94721067Y-72874293D01*
X94721065Y-72874294D01*
X94715757Y-72875716D01*
X94710776Y-72878039D01*
X94710775Y-72878039D01*
X94513238Y-72970151D01*
X94513233Y-72970154D01*
X94508251Y-72972477D01*
X94404351Y-73045229D01*
X94325211Y-73100643D01*
X94325208Y-73100645D01*
X94320700Y-73103802D01*
X94158802Y-73265700D01*
X94027477Y-73453251D01*
X94025154Y-73458233D01*
X94025151Y-73458238D01*
X94009195Y-73492457D01*
X93962278Y-73545742D01*
X93894001Y-73565203D01*
X93826041Y-73544661D01*
X93780805Y-73492457D01*
X93764849Y-73458238D01*
X93764846Y-73458233D01*
X93762523Y-73453251D01*
X93631198Y-73265700D01*
X93469300Y-73103802D01*
X93464792Y-73100645D01*
X93464789Y-73100643D01*
X93385649Y-73045229D01*
X93281749Y-72972477D01*
X93276767Y-72970154D01*
X93276762Y-72970151D01*
X93079225Y-72878039D01*
X93079224Y-72878039D01*
X93074243Y-72875716D01*
X93068935Y-72874294D01*
X93068933Y-72874293D01*
X92858402Y-72817881D01*
X92858400Y-72817881D01*
X92853087Y-72816457D01*
X92625000Y-72796502D01*
X92396913Y-72816457D01*
X92391600Y-72817881D01*
X92391598Y-72817881D01*
X92181067Y-72874293D01*
X92181065Y-72874294D01*
X92175757Y-72875716D01*
X92170776Y-72878039D01*
X92170775Y-72878039D01*
X91973238Y-72970151D01*
X91973233Y-72970154D01*
X91968251Y-72972477D01*
X91864351Y-73045229D01*
X91785211Y-73100643D01*
X91785208Y-73100645D01*
X91780700Y-73103802D01*
X91618802Y-73265700D01*
X91615643Y-73270211D01*
X91612108Y-73274424D01*
X91610974Y-73273473D01*
X91560929Y-73313471D01*
X91490310Y-73320776D01*
X91426951Y-73288742D01*
X91390970Y-73227538D01*
X91387918Y-73210483D01*
X91386745Y-73199684D01*
X91335615Y-73063295D01*
X91248261Y-72946739D01*
X91131705Y-72859385D01*
X90995316Y-72808255D01*
X90933134Y-72801500D01*
X89719989Y-72801500D01*
X89651868Y-72781498D01*
X89605375Y-72727842D01*
X89593989Y-72675500D01*
X89593989Y-72620000D01*
X101071502Y-72620000D01*
X101091457Y-72848087D01*
X101092881Y-72853400D01*
X101092881Y-72853402D01*
X101145725Y-73050615D01*
X101150716Y-73069243D01*
X101153039Y-73074224D01*
X101153039Y-73074225D01*
X101245151Y-73271762D01*
X101245154Y-73271767D01*
X101247477Y-73276749D01*
X101378802Y-73464300D01*
X101540700Y-73626198D01*
X101545208Y-73629355D01*
X101545211Y-73629357D01*
X101581529Y-73654787D01*
X101728251Y-73757523D01*
X101733233Y-73759846D01*
X101733238Y-73759849D01*
X101930775Y-73851961D01*
X101935757Y-73854284D01*
X101941065Y-73855706D01*
X101941067Y-73855707D01*
X102151598Y-73912119D01*
X102151600Y-73912119D01*
X102156913Y-73913543D01*
X102385000Y-73933498D01*
X102613087Y-73913543D01*
X102618400Y-73912119D01*
X102618402Y-73912119D01*
X102828933Y-73855707D01*
X102828935Y-73855706D01*
X102834243Y-73854284D01*
X102839225Y-73851961D01*
X103036762Y-73759849D01*
X103036767Y-73759846D01*
X103041749Y-73757523D01*
X103188471Y-73654787D01*
X103224789Y-73629357D01*
X103224792Y-73629355D01*
X103229300Y-73626198D01*
X103391198Y-73464300D01*
X103522523Y-73276749D01*
X103524846Y-73271767D01*
X103524849Y-73271762D01*
X103616961Y-73074225D01*
X103616961Y-73074224D01*
X103619284Y-73069243D01*
X103624276Y-73050615D01*
X103677119Y-72853402D01*
X103677119Y-72853400D01*
X103678543Y-72848087D01*
X103698498Y-72620000D01*
X103678543Y-72391913D01*
X103677119Y-72386598D01*
X103620707Y-72176067D01*
X103620706Y-72176065D01*
X103619284Y-72170757D01*
X103555235Y-72033402D01*
X103524849Y-71968238D01*
X103524846Y-71968233D01*
X103522523Y-71963251D01*
X103408213Y-71800000D01*
X103394357Y-71780211D01*
X103394355Y-71780208D01*
X103391198Y-71775700D01*
X103229300Y-71613802D01*
X103224792Y-71610645D01*
X103224789Y-71610643D01*
X103146611Y-71555902D01*
X103041749Y-71482477D01*
X103036767Y-71480154D01*
X103036762Y-71480151D01*
X102839225Y-71388039D01*
X102839224Y-71388039D01*
X102834243Y-71385716D01*
X102828935Y-71384294D01*
X102828933Y-71384293D01*
X102618402Y-71327881D01*
X102618400Y-71327881D01*
X102613087Y-71326457D01*
X102385000Y-71306502D01*
X102156913Y-71326457D01*
X102151600Y-71327881D01*
X102151598Y-71327881D01*
X101941067Y-71384293D01*
X101941065Y-71384294D01*
X101935757Y-71385716D01*
X101930776Y-71388039D01*
X101930775Y-71388039D01*
X101733238Y-71480151D01*
X101733233Y-71480154D01*
X101728251Y-71482477D01*
X101623389Y-71555902D01*
X101545211Y-71610643D01*
X101545208Y-71610645D01*
X101540700Y-71613802D01*
X101378802Y-71775700D01*
X101375645Y-71780208D01*
X101375643Y-71780211D01*
X101361787Y-71800000D01*
X101247477Y-71963251D01*
X101245154Y-71968233D01*
X101245151Y-71968238D01*
X101214765Y-72033402D01*
X101150716Y-72170757D01*
X101149294Y-72176065D01*
X101149293Y-72176067D01*
X101092881Y-72386598D01*
X101091457Y-72391913D01*
X101071502Y-72620000D01*
X89593989Y-72620000D01*
X89593989Y-68300000D01*
X106376502Y-68300000D01*
X106396457Y-68528087D01*
X106455716Y-68749243D01*
X106458039Y-68754224D01*
X106458039Y-68754225D01*
X106550151Y-68951762D01*
X106550154Y-68951767D01*
X106552477Y-68956749D01*
X106683802Y-69144300D01*
X106845700Y-69306198D01*
X106850208Y-69309355D01*
X106850211Y-69309357D01*
X106928389Y-69364098D01*
X107033251Y-69437523D01*
X107038233Y-69439846D01*
X107038238Y-69439849D01*
X107235775Y-69531961D01*
X107240757Y-69534284D01*
X107246065Y-69535706D01*
X107246067Y-69535707D01*
X107456598Y-69592119D01*
X107456600Y-69592119D01*
X107461913Y-69593543D01*
X107690000Y-69613498D01*
X107918087Y-69593543D01*
X107923400Y-69592119D01*
X107923402Y-69592119D01*
X108133933Y-69535707D01*
X108133935Y-69535706D01*
X108139243Y-69534284D01*
X108144225Y-69531961D01*
X108341762Y-69439849D01*
X108341767Y-69439846D01*
X108346749Y-69437523D01*
X108451611Y-69364098D01*
X108529789Y-69309357D01*
X108529792Y-69309355D01*
X108534300Y-69306198D01*
X108696198Y-69144300D01*
X108827523Y-68956749D01*
X108829846Y-68951767D01*
X108829849Y-68951762D01*
X108921961Y-68754225D01*
X108921961Y-68754224D01*
X108924284Y-68749243D01*
X108983543Y-68528087D01*
X109003498Y-68300000D01*
X113996502Y-68300000D01*
X114016457Y-68528087D01*
X114075716Y-68749243D01*
X114078039Y-68754224D01*
X114078039Y-68754225D01*
X114170151Y-68951762D01*
X114170154Y-68951767D01*
X114172477Y-68956749D01*
X114303802Y-69144300D01*
X114465700Y-69306198D01*
X114470208Y-69309355D01*
X114470211Y-69309357D01*
X114548389Y-69364098D01*
X114653251Y-69437523D01*
X114658233Y-69439846D01*
X114658238Y-69439849D01*
X114855775Y-69531961D01*
X114860757Y-69534284D01*
X114866065Y-69535706D01*
X114866067Y-69535707D01*
X115076598Y-69592119D01*
X115076600Y-69592119D01*
X115081913Y-69593543D01*
X115310000Y-69613498D01*
X115538087Y-69593543D01*
X115543400Y-69592119D01*
X115543402Y-69592119D01*
X115753933Y-69535707D01*
X115753935Y-69535706D01*
X115759243Y-69534284D01*
X115764225Y-69531961D01*
X115961762Y-69439849D01*
X115961767Y-69439846D01*
X115966749Y-69437523D01*
X116071611Y-69364098D01*
X116149789Y-69309357D01*
X116149792Y-69309355D01*
X116154300Y-69306198D01*
X116316198Y-69144300D01*
X116447523Y-68956749D01*
X116449846Y-68951767D01*
X116449849Y-68951762D01*
X116541961Y-68754225D01*
X116541961Y-68754224D01*
X116544284Y-68749243D01*
X116603543Y-68528087D01*
X116623498Y-68300000D01*
X116603543Y-68071913D01*
X116602119Y-68066598D01*
X116545707Y-67856067D01*
X116545706Y-67856065D01*
X116544284Y-67850757D01*
X116539273Y-67840010D01*
X116449849Y-67648238D01*
X116449846Y-67648233D01*
X116447523Y-67643251D01*
X116341374Y-67491655D01*
X116319357Y-67460211D01*
X116319355Y-67460208D01*
X116316198Y-67455700D01*
X116154300Y-67293802D01*
X116149792Y-67290645D01*
X116149789Y-67290643D01*
X116030277Y-67206960D01*
X115966749Y-67162477D01*
X115961767Y-67160154D01*
X115961762Y-67160151D01*
X115764225Y-67068039D01*
X115764224Y-67068039D01*
X115759243Y-67065716D01*
X115753935Y-67064294D01*
X115753933Y-67064293D01*
X115543402Y-67007881D01*
X115543400Y-67007881D01*
X115538087Y-67006457D01*
X115310000Y-66986502D01*
X115081913Y-67006457D01*
X115076600Y-67007881D01*
X115076598Y-67007881D01*
X114866067Y-67064293D01*
X114866065Y-67064294D01*
X114860757Y-67065716D01*
X114855776Y-67068039D01*
X114855775Y-67068039D01*
X114658238Y-67160151D01*
X114658233Y-67160154D01*
X114653251Y-67162477D01*
X114589723Y-67206960D01*
X114470211Y-67290643D01*
X114470208Y-67290645D01*
X114465700Y-67293802D01*
X114303802Y-67455700D01*
X114300645Y-67460208D01*
X114300643Y-67460211D01*
X114278626Y-67491655D01*
X114172477Y-67643251D01*
X114170154Y-67648233D01*
X114170151Y-67648238D01*
X114080727Y-67840010D01*
X114075716Y-67850757D01*
X114074294Y-67856065D01*
X114074293Y-67856067D01*
X114017881Y-68066598D01*
X114016457Y-68071913D01*
X113996502Y-68300000D01*
X109003498Y-68300000D01*
X108983543Y-68071913D01*
X108982119Y-68066598D01*
X108925707Y-67856067D01*
X108925706Y-67856065D01*
X108924284Y-67850757D01*
X108919273Y-67840010D01*
X108829849Y-67648238D01*
X108829846Y-67648233D01*
X108827523Y-67643251D01*
X108721374Y-67491655D01*
X108699357Y-67460211D01*
X108699355Y-67460208D01*
X108696198Y-67455700D01*
X108534300Y-67293802D01*
X108529792Y-67290645D01*
X108529789Y-67290643D01*
X108410277Y-67206960D01*
X108346749Y-67162477D01*
X108341767Y-67160154D01*
X108341762Y-67160151D01*
X108144225Y-67068039D01*
X108144224Y-67068039D01*
X108139243Y-67065716D01*
X108133935Y-67064294D01*
X108133933Y-67064293D01*
X107923402Y-67007881D01*
X107923400Y-67007881D01*
X107918087Y-67006457D01*
X107690000Y-66986502D01*
X107461913Y-67006457D01*
X107456600Y-67007881D01*
X107456598Y-67007881D01*
X107246067Y-67064293D01*
X107246065Y-67064294D01*
X107240757Y-67065716D01*
X107235776Y-67068039D01*
X107235775Y-67068039D01*
X107038238Y-67160151D01*
X107038233Y-67160154D01*
X107033251Y-67162477D01*
X106969723Y-67206960D01*
X106850211Y-67290643D01*
X106850208Y-67290645D01*
X106845700Y-67293802D01*
X106683802Y-67455700D01*
X106680645Y-67460208D01*
X106680643Y-67460211D01*
X106658626Y-67491655D01*
X106552477Y-67643251D01*
X106550154Y-67648233D01*
X106550151Y-67648238D01*
X106460727Y-67840010D01*
X106455716Y-67850757D01*
X106454294Y-67856065D01*
X106454293Y-67856067D01*
X106397881Y-68066598D01*
X106396457Y-68071913D01*
X106376502Y-68300000D01*
X89593989Y-68300000D01*
X89593989Y-67929105D01*
X89613991Y-67860984D01*
X89630894Y-67840010D01*
X92211752Y-65259152D01*
X92274064Y-65225126D01*
X92333459Y-65226541D01*
X92391591Y-65242118D01*
X92391602Y-65242120D01*
X92396913Y-65243543D01*
X92625000Y-65263498D01*
X92853087Y-65243543D01*
X92858400Y-65242119D01*
X92858402Y-65242119D01*
X93068933Y-65185707D01*
X93068935Y-65185706D01*
X93074243Y-65184284D01*
X93079225Y-65181961D01*
X93276762Y-65089849D01*
X93276767Y-65089846D01*
X93281749Y-65087523D01*
X93398925Y-65005475D01*
X93464789Y-64959357D01*
X93464792Y-64959355D01*
X93469300Y-64956198D01*
X93631198Y-64794300D01*
X93643037Y-64777393D01*
X93759366Y-64611257D01*
X93762523Y-64606749D01*
X93764846Y-64601767D01*
X93764849Y-64601762D01*
X93780805Y-64567543D01*
X93827722Y-64514258D01*
X93895999Y-64494797D01*
X93963959Y-64515339D01*
X94009195Y-64567543D01*
X94025151Y-64601762D01*
X94025154Y-64601767D01*
X94027477Y-64606749D01*
X94030634Y-64611257D01*
X94146964Y-64777393D01*
X94158802Y-64794300D01*
X94320700Y-64956198D01*
X94325208Y-64959355D01*
X94325211Y-64959357D01*
X94391075Y-65005475D01*
X94508251Y-65087523D01*
X94513233Y-65089846D01*
X94513238Y-65089849D01*
X94710775Y-65181961D01*
X94715757Y-65184284D01*
X94721065Y-65185706D01*
X94721067Y-65185707D01*
X94931598Y-65242119D01*
X94931600Y-65242119D01*
X94936913Y-65243543D01*
X95165000Y-65263498D01*
X95393087Y-65243543D01*
X95398400Y-65242119D01*
X95398402Y-65242119D01*
X95608933Y-65185707D01*
X95608935Y-65185706D01*
X95614243Y-65184284D01*
X95619225Y-65181961D01*
X95816762Y-65089849D01*
X95816767Y-65089846D01*
X95821749Y-65087523D01*
X95938925Y-65005475D01*
X96004789Y-64959357D01*
X96004792Y-64959355D01*
X96009300Y-64956198D01*
X96171198Y-64794300D01*
X96183037Y-64777393D01*
X96299366Y-64611257D01*
X96302523Y-64606749D01*
X96304846Y-64601767D01*
X96304849Y-64601762D01*
X96320805Y-64567543D01*
X96367722Y-64514258D01*
X96435999Y-64494797D01*
X96503959Y-64515339D01*
X96549195Y-64567543D01*
X96565151Y-64601762D01*
X96565154Y-64601767D01*
X96567477Y-64606749D01*
X96570634Y-64611257D01*
X96686964Y-64777393D01*
X96698802Y-64794300D01*
X96860700Y-64956198D01*
X96865208Y-64959355D01*
X96865211Y-64959357D01*
X96931075Y-65005475D01*
X97048251Y-65087523D01*
X97053233Y-65089846D01*
X97053238Y-65089849D01*
X97250775Y-65181961D01*
X97255757Y-65184284D01*
X97261065Y-65185706D01*
X97261067Y-65185707D01*
X97471598Y-65242119D01*
X97471600Y-65242119D01*
X97476913Y-65243543D01*
X97705000Y-65263498D01*
X97933087Y-65243543D01*
X97938400Y-65242119D01*
X97938402Y-65242119D01*
X98148933Y-65185707D01*
X98148935Y-65185706D01*
X98154243Y-65184284D01*
X98159225Y-65181961D01*
X98356762Y-65089849D01*
X98356767Y-65089846D01*
X98361749Y-65087523D01*
X98478925Y-65005475D01*
X98486744Y-65000000D01*
X101071502Y-65000000D01*
X101091457Y-65228087D01*
X101092881Y-65233400D01*
X101092881Y-65233402D01*
X101098415Y-65254053D01*
X101150716Y-65449243D01*
X101153039Y-65454224D01*
X101153039Y-65454225D01*
X101245151Y-65651762D01*
X101245154Y-65651767D01*
X101247477Y-65656749D01*
X101250634Y-65661257D01*
X101354335Y-65809357D01*
X101378802Y-65844300D01*
X101540700Y-66006198D01*
X101545208Y-66009355D01*
X101545211Y-66009357D01*
X101577493Y-66031961D01*
X101728251Y-66137523D01*
X101733233Y-66139846D01*
X101733238Y-66139849D01*
X101930775Y-66231961D01*
X101935757Y-66234284D01*
X101941065Y-66235706D01*
X101941067Y-66235707D01*
X102151598Y-66292119D01*
X102151600Y-66292119D01*
X102156913Y-66293543D01*
X102385000Y-66313498D01*
X102613087Y-66293543D01*
X102618400Y-66292119D01*
X102618402Y-66292119D01*
X102828933Y-66235707D01*
X102828935Y-66235706D01*
X102834243Y-66234284D01*
X102839225Y-66231961D01*
X103036762Y-66139849D01*
X103036767Y-66139846D01*
X103041749Y-66137523D01*
X103192507Y-66031961D01*
X103224789Y-66009357D01*
X103224792Y-66009355D01*
X103229300Y-66006198D01*
X103391198Y-65844300D01*
X103415666Y-65809357D01*
X103519366Y-65661257D01*
X103522523Y-65656749D01*
X103524846Y-65651767D01*
X103524849Y-65651762D01*
X103616961Y-65454225D01*
X103616961Y-65454224D01*
X103619284Y-65449243D01*
X103671586Y-65254053D01*
X103677119Y-65233402D01*
X103677119Y-65233400D01*
X103678543Y-65228087D01*
X103698498Y-65000000D01*
X103681000Y-64800000D01*
X106386502Y-64800000D01*
X106406457Y-65028087D01*
X106407881Y-65033400D01*
X106407881Y-65033402D01*
X106464189Y-65243543D01*
X106465716Y-65249243D01*
X106468039Y-65254224D01*
X106468039Y-65254225D01*
X106560151Y-65451762D01*
X106560154Y-65451767D01*
X106562477Y-65456749D01*
X106693802Y-65644300D01*
X106855700Y-65806198D01*
X106860208Y-65809355D01*
X106860211Y-65809357D01*
X106938389Y-65864098D01*
X107043251Y-65937523D01*
X107048233Y-65939846D01*
X107048238Y-65939849D01*
X107244765Y-66031490D01*
X107250757Y-66034284D01*
X107256065Y-66035706D01*
X107256067Y-66035707D01*
X107466598Y-66092119D01*
X107466600Y-66092119D01*
X107471913Y-66093543D01*
X107700000Y-66113498D01*
X107928087Y-66093543D01*
X107933400Y-66092119D01*
X107933402Y-66092119D01*
X108143933Y-66035707D01*
X108143935Y-66035706D01*
X108149243Y-66034284D01*
X108155235Y-66031490D01*
X108351762Y-65939849D01*
X108351767Y-65939846D01*
X108356749Y-65937523D01*
X108461611Y-65864098D01*
X108539789Y-65809357D01*
X108539792Y-65809355D01*
X108544300Y-65806198D01*
X108706198Y-65644300D01*
X108837523Y-65456749D01*
X108839846Y-65451767D01*
X108839849Y-65451762D01*
X108931961Y-65254225D01*
X108931961Y-65254224D01*
X108934284Y-65249243D01*
X108935812Y-65243543D01*
X108983245Y-65066522D01*
X114037273Y-65066522D01*
X114084764Y-65243761D01*
X114088510Y-65254053D01*
X114180586Y-65451511D01*
X114186069Y-65461007D01*
X114311028Y-65639467D01*
X114318084Y-65647875D01*
X114472125Y-65801916D01*
X114480533Y-65808972D01*
X114658993Y-65933931D01*
X114668489Y-65939414D01*
X114865947Y-66031490D01*
X114876239Y-66035236D01*
X115048503Y-66081394D01*
X115062599Y-66081058D01*
X115066000Y-66073116D01*
X115066000Y-66067967D01*
X115574000Y-66067967D01*
X115577973Y-66081498D01*
X115586522Y-66082727D01*
X115763761Y-66035236D01*
X115774053Y-66031490D01*
X115971511Y-65939414D01*
X115981007Y-65933931D01*
X116159467Y-65808972D01*
X116167875Y-65801916D01*
X116321916Y-65647875D01*
X116328972Y-65639467D01*
X116453931Y-65461007D01*
X116459414Y-65451511D01*
X116551490Y-65254053D01*
X116555236Y-65243761D01*
X116601394Y-65071497D01*
X116601058Y-65057401D01*
X116593116Y-65054000D01*
X115592115Y-65054000D01*
X115576876Y-65058475D01*
X115575671Y-65059865D01*
X115574000Y-65067548D01*
X115574000Y-66067967D01*
X115066000Y-66067967D01*
X115066000Y-65072115D01*
X115061525Y-65056876D01*
X115060135Y-65055671D01*
X115052452Y-65054000D01*
X114052033Y-65054000D01*
X114038502Y-65057973D01*
X114037273Y-65066522D01*
X108983245Y-65066522D01*
X108992119Y-65033402D01*
X108992119Y-65033400D01*
X108993543Y-65028087D01*
X109013498Y-64800000D01*
X108993543Y-64571913D01*
X108983244Y-64533478D01*
X108981911Y-64528503D01*
X114038606Y-64528503D01*
X114038942Y-64542599D01*
X114046884Y-64546000D01*
X115047885Y-64546000D01*
X115063124Y-64541525D01*
X115064329Y-64540135D01*
X115066000Y-64532452D01*
X115066000Y-64527885D01*
X115574000Y-64527885D01*
X115578475Y-64543124D01*
X115579865Y-64544329D01*
X115587548Y-64546000D01*
X116587967Y-64546000D01*
X116601498Y-64542027D01*
X116602727Y-64533478D01*
X116555236Y-64356239D01*
X116551490Y-64345947D01*
X116459414Y-64148489D01*
X116453931Y-64138993D01*
X116328972Y-63960533D01*
X116321916Y-63952125D01*
X116167875Y-63798084D01*
X116159467Y-63791028D01*
X115981007Y-63666069D01*
X115971511Y-63660586D01*
X115774053Y-63568510D01*
X115763761Y-63564764D01*
X115591497Y-63518606D01*
X115577401Y-63518942D01*
X115574000Y-63526884D01*
X115574000Y-64527885D01*
X115066000Y-64527885D01*
X115066000Y-63532033D01*
X115062027Y-63518502D01*
X115053478Y-63517273D01*
X114876239Y-63564764D01*
X114865947Y-63568510D01*
X114668489Y-63660586D01*
X114658993Y-63666069D01*
X114480533Y-63791028D01*
X114472125Y-63798084D01*
X114318084Y-63952125D01*
X114311028Y-63960533D01*
X114186069Y-64138993D01*
X114180586Y-64148489D01*
X114088510Y-64345947D01*
X114084764Y-64356239D01*
X114038606Y-64528503D01*
X108981911Y-64528503D01*
X108935707Y-64356067D01*
X108935706Y-64356065D01*
X108934284Y-64350757D01*
X108928682Y-64338743D01*
X108839849Y-64148238D01*
X108839846Y-64148233D01*
X108837523Y-64143251D01*
X108735606Y-63997699D01*
X108709357Y-63960211D01*
X108709355Y-63960208D01*
X108706198Y-63955700D01*
X108544300Y-63793802D01*
X108539792Y-63790645D01*
X108539789Y-63790643D01*
X108441632Y-63721913D01*
X108356749Y-63662477D01*
X108351767Y-63660154D01*
X108351762Y-63660151D01*
X108154225Y-63568039D01*
X108154224Y-63568039D01*
X108149243Y-63565716D01*
X108143935Y-63564294D01*
X108143933Y-63564293D01*
X107933402Y-63507881D01*
X107933400Y-63507881D01*
X107928087Y-63506457D01*
X107700000Y-63486502D01*
X107471913Y-63506457D01*
X107466600Y-63507881D01*
X107466598Y-63507881D01*
X107256067Y-63564293D01*
X107256065Y-63564294D01*
X107250757Y-63565716D01*
X107245776Y-63568039D01*
X107245775Y-63568039D01*
X107048238Y-63660151D01*
X107048233Y-63660154D01*
X107043251Y-63662477D01*
X106958368Y-63721913D01*
X106860211Y-63790643D01*
X106860208Y-63790645D01*
X106855700Y-63793802D01*
X106693802Y-63955700D01*
X106690645Y-63960208D01*
X106690643Y-63960211D01*
X106664394Y-63997699D01*
X106562477Y-64143251D01*
X106560154Y-64148233D01*
X106560151Y-64148238D01*
X106471318Y-64338743D01*
X106465716Y-64350757D01*
X106464294Y-64356065D01*
X106464293Y-64356067D01*
X106416756Y-64533478D01*
X106406457Y-64571913D01*
X106386502Y-64800000D01*
X103681000Y-64800000D01*
X103678543Y-64771913D01*
X103619284Y-64550757D01*
X103608619Y-64527885D01*
X103524849Y-64348238D01*
X103524846Y-64348233D01*
X103522523Y-64343251D01*
X103406874Y-64178087D01*
X103394357Y-64160211D01*
X103394355Y-64160208D01*
X103391198Y-64155700D01*
X103229300Y-63993802D01*
X103224792Y-63990645D01*
X103224789Y-63990643D01*
X103146611Y-63935902D01*
X103041749Y-63862477D01*
X103036767Y-63860154D01*
X103036762Y-63860151D01*
X102839225Y-63768039D01*
X102839224Y-63768039D01*
X102834243Y-63765716D01*
X102828935Y-63764294D01*
X102828933Y-63764293D01*
X102618402Y-63707881D01*
X102618400Y-63707881D01*
X102613087Y-63706457D01*
X102385000Y-63686502D01*
X102156913Y-63706457D01*
X102151600Y-63707881D01*
X102151598Y-63707881D01*
X101941067Y-63764293D01*
X101941065Y-63764294D01*
X101935757Y-63765716D01*
X101930776Y-63768039D01*
X101930775Y-63768039D01*
X101733238Y-63860151D01*
X101733233Y-63860154D01*
X101728251Y-63862477D01*
X101623389Y-63935902D01*
X101545211Y-63990643D01*
X101545208Y-63990645D01*
X101540700Y-63993802D01*
X101378802Y-64155700D01*
X101375645Y-64160208D01*
X101375643Y-64160211D01*
X101363126Y-64178087D01*
X101247477Y-64343251D01*
X101245154Y-64348233D01*
X101245151Y-64348238D01*
X101161381Y-64527885D01*
X101150716Y-64550757D01*
X101091457Y-64771913D01*
X101071502Y-65000000D01*
X98486744Y-65000000D01*
X98544789Y-64959357D01*
X98544792Y-64959355D01*
X98549300Y-64956198D01*
X98711198Y-64794300D01*
X98723037Y-64777393D01*
X98839366Y-64611257D01*
X98842523Y-64606749D01*
X98844846Y-64601767D01*
X98844849Y-64601762D01*
X98936961Y-64404225D01*
X98936961Y-64404224D01*
X98939284Y-64399243D01*
X98998543Y-64178087D01*
X99018498Y-63950000D01*
X98998543Y-63721913D01*
X98982617Y-63662477D01*
X98940707Y-63506067D01*
X98940706Y-63506065D01*
X98939284Y-63500757D01*
X98860805Y-63332457D01*
X98844849Y-63298238D01*
X98844846Y-63298233D01*
X98842523Y-63293251D01*
X98711198Y-63105700D01*
X98549300Y-62943802D01*
X98544792Y-62940645D01*
X98544789Y-62940643D01*
X98466611Y-62885902D01*
X98361749Y-62812477D01*
X98356767Y-62810154D01*
X98356762Y-62810151D01*
X98159225Y-62718039D01*
X98159224Y-62718039D01*
X98154243Y-62715716D01*
X98148935Y-62714294D01*
X98148933Y-62714293D01*
X97938402Y-62657881D01*
X97938400Y-62657881D01*
X97933087Y-62656457D01*
X97705000Y-62636502D01*
X97476913Y-62656457D01*
X97471600Y-62657881D01*
X97471598Y-62657881D01*
X97261067Y-62714293D01*
X97261065Y-62714294D01*
X97255757Y-62715716D01*
X97250776Y-62718039D01*
X97250775Y-62718039D01*
X97053238Y-62810151D01*
X97053233Y-62810154D01*
X97048251Y-62812477D01*
X96943389Y-62885902D01*
X96865211Y-62940643D01*
X96865208Y-62940645D01*
X96860700Y-62943802D01*
X96698802Y-63105700D01*
X96567477Y-63293251D01*
X96565154Y-63298233D01*
X96565151Y-63298238D01*
X96549195Y-63332457D01*
X96502278Y-63385742D01*
X96434001Y-63405203D01*
X96366041Y-63384661D01*
X96320805Y-63332457D01*
X96304849Y-63298238D01*
X96304846Y-63298233D01*
X96302523Y-63293251D01*
X96171198Y-63105700D01*
X96009300Y-62943802D01*
X96004792Y-62940645D01*
X96004789Y-62940643D01*
X95926611Y-62885902D01*
X95821749Y-62812477D01*
X95816767Y-62810154D01*
X95816762Y-62810151D01*
X95619225Y-62718039D01*
X95619224Y-62718039D01*
X95614243Y-62715716D01*
X95608935Y-62714294D01*
X95608933Y-62714293D01*
X95398402Y-62657881D01*
X95398400Y-62657881D01*
X95393087Y-62656457D01*
X95165000Y-62636502D01*
X94936913Y-62656457D01*
X94931600Y-62657881D01*
X94931598Y-62657881D01*
X94721067Y-62714293D01*
X94721065Y-62714294D01*
X94715757Y-62715716D01*
X94710776Y-62718039D01*
X94710775Y-62718039D01*
X94513238Y-62810151D01*
X94513233Y-62810154D01*
X94508251Y-62812477D01*
X94403389Y-62885902D01*
X94325211Y-62940643D01*
X94325208Y-62940645D01*
X94320700Y-62943802D01*
X94158802Y-63105700D01*
X94027477Y-63293251D01*
X94025154Y-63298233D01*
X94025151Y-63298238D01*
X94009195Y-63332457D01*
X93962278Y-63385742D01*
X93894001Y-63405203D01*
X93826041Y-63384661D01*
X93780805Y-63332457D01*
X93764849Y-63298238D01*
X93764846Y-63298233D01*
X93762523Y-63293251D01*
X93631198Y-63105700D01*
X93469300Y-62943802D01*
X93464792Y-62940645D01*
X93464789Y-62940643D01*
X93386611Y-62885902D01*
X93281749Y-62812477D01*
X93276767Y-62810154D01*
X93276762Y-62810151D01*
X93079225Y-62718039D01*
X93079224Y-62718039D01*
X93074243Y-62715716D01*
X93068935Y-62714294D01*
X93068933Y-62714293D01*
X92858402Y-62657881D01*
X92858400Y-62657881D01*
X92853087Y-62656457D01*
X92625000Y-62636502D01*
X92396913Y-62656457D01*
X92391600Y-62657881D01*
X92391598Y-62657881D01*
X92181067Y-62714293D01*
X92181065Y-62714294D01*
X92175757Y-62715716D01*
X92170776Y-62718039D01*
X92170775Y-62718039D01*
X91973238Y-62810151D01*
X91973233Y-62810154D01*
X91968251Y-62812477D01*
X91863389Y-62885902D01*
X91785211Y-62940643D01*
X91785208Y-62940645D01*
X91780700Y-62943802D01*
X91618802Y-63105700D01*
X91487477Y-63293251D01*
X91485154Y-63298233D01*
X91485151Y-63298238D01*
X91469195Y-63332457D01*
X91422278Y-63385742D01*
X91354001Y-63405203D01*
X91286041Y-63384661D01*
X91240805Y-63332457D01*
X91224849Y-63298238D01*
X91224846Y-63298233D01*
X91222523Y-63293251D01*
X91091198Y-63105700D01*
X90929300Y-62943802D01*
X90924792Y-62940645D01*
X90924789Y-62940643D01*
X90846611Y-62885902D01*
X90741749Y-62812477D01*
X90736767Y-62810154D01*
X90736762Y-62810151D01*
X90539225Y-62718039D01*
X90539224Y-62718039D01*
X90534243Y-62715716D01*
X90528935Y-62714294D01*
X90528933Y-62714293D01*
X90318402Y-62657881D01*
X90318400Y-62657881D01*
X90313087Y-62656457D01*
X90085000Y-62636502D01*
X89856913Y-62656457D01*
X89851600Y-62657881D01*
X89851598Y-62657881D01*
X89641067Y-62714293D01*
X89641065Y-62714294D01*
X89635757Y-62715716D01*
X89630776Y-62718039D01*
X89630775Y-62718039D01*
X89433238Y-62810151D01*
X89433233Y-62810154D01*
X89428251Y-62812477D01*
X89323389Y-62885902D01*
X89245211Y-62940643D01*
X89245208Y-62940645D01*
X89240700Y-62943802D01*
X89078802Y-63105700D01*
X88947477Y-63293251D01*
X88945154Y-63298233D01*
X88945151Y-63298238D01*
X88929195Y-63332457D01*
X88850716Y-63500757D01*
X88849294Y-63506065D01*
X88849293Y-63506067D01*
X88807383Y-63662477D01*
X88791457Y-63721913D01*
X88771502Y-63950000D01*
X88791457Y-64178087D01*
X88850716Y-64399243D01*
X88853039Y-64404224D01*
X88853039Y-64404225D01*
X88945151Y-64601762D01*
X88945154Y-64601767D01*
X88947477Y-64606749D01*
X88950634Y-64611257D01*
X89066964Y-64777393D01*
X89078802Y-64794300D01*
X89240700Y-64956198D01*
X89245208Y-64959355D01*
X89245211Y-64959357D01*
X89311075Y-65005475D01*
X89428251Y-65087523D01*
X89433233Y-65089846D01*
X89433238Y-65089849D01*
X89630775Y-65181961D01*
X89635757Y-65184284D01*
X89641065Y-65185706D01*
X89641067Y-65185707D01*
X89851598Y-65242119D01*
X89851600Y-65242119D01*
X89856913Y-65243543D01*
X90085000Y-65263498D01*
X90090475Y-65263019D01*
X90090485Y-65263019D01*
X90102428Y-65261974D01*
X90172033Y-65275962D01*
X90223026Y-65325361D01*
X90239217Y-65394486D01*
X90215465Y-65461392D01*
X90202506Y-65476589D01*
X88568236Y-67110859D01*
X88559950Y-67118399D01*
X88553471Y-67122511D01*
X88548046Y-67128288D01*
X88506846Y-67172162D01*
X88504091Y-67175004D01*
X88484354Y-67194741D01*
X88481874Y-67197938D01*
X88474171Y-67206958D01*
X88443903Y-67239190D01*
X88440084Y-67246136D01*
X88440082Y-67246139D01*
X88434141Y-67256945D01*
X88423290Y-67273464D01*
X88410875Y-67289470D01*
X88407730Y-67296739D01*
X88407727Y-67296743D01*
X88393315Y-67330048D01*
X88388098Y-67340698D01*
X88366794Y-67379451D01*
X88364823Y-67387126D01*
X88364823Y-67387127D01*
X88361756Y-67399073D01*
X88355352Y-67417777D01*
X88347308Y-67436366D01*
X88346069Y-67444189D01*
X88346066Y-67444199D01*
X88340390Y-67480035D01*
X88337984Y-67491655D01*
X88326989Y-67534481D01*
X88326989Y-67554735D01*
X88325438Y-67574445D01*
X88322269Y-67594454D01*
X88323015Y-67602346D01*
X88326430Y-67638472D01*
X88326989Y-67650330D01*
X88326989Y-87931422D01*
X88326462Y-87942605D01*
X88324787Y-87950098D01*
X88325036Y-87958024D01*
X88325036Y-87958025D01*
X88326927Y-88018175D01*
X88326989Y-88022134D01*
X88326989Y-88050045D01*
X88327486Y-88053979D01*
X88327486Y-88053980D01*
X88327494Y-88054045D01*
X88328427Y-88065882D01*
X88329816Y-88110078D01*
X88335467Y-88129528D01*
X88339476Y-88148889D01*
X88342015Y-88168986D01*
X88344934Y-88176357D01*
X88344934Y-88176359D01*
X88358293Y-88210101D01*
X88362138Y-88221331D01*
X88374471Y-88263782D01*
X88378504Y-88270601D01*
X88378506Y-88270606D01*
X88384782Y-88281217D01*
X88393477Y-88298965D01*
X88400937Y-88317806D01*
X88405599Y-88324222D01*
X88405599Y-88324223D01*
X88426925Y-88353576D01*
X88433441Y-88363496D01*
X88455947Y-88401551D01*
X88470268Y-88415872D01*
X88483108Y-88430905D01*
X88495017Y-88447296D01*
X88501123Y-88452347D01*
X88529094Y-88475487D01*
X88537873Y-88483477D01*
X89402922Y-89348526D01*
X89436948Y-89410838D01*
X89431883Y-89481653D01*
X89389336Y-89538489D01*
X89383381Y-89542417D01*
X89383251Y-89542477D01*
X89303372Y-89598409D01*
X89200211Y-89670643D01*
X89200208Y-89670645D01*
X89195700Y-89673802D01*
X89033802Y-89835700D01*
X89030645Y-89840208D01*
X89030643Y-89840211D01*
X89003064Y-89879598D01*
X88902477Y-90023251D01*
X88900154Y-90028233D01*
X88900151Y-90028238D01*
X88852532Y-90130359D01*
X88805716Y-90230757D01*
X88804294Y-90236065D01*
X88804293Y-90236067D01*
X88758765Y-90405978D01*
X88746457Y-90451913D01*
X88726502Y-90680000D01*
X88746457Y-90908087D01*
X88747880Y-90913398D01*
X88747881Y-90913402D01*
X88784011Y-91048238D01*
X88805716Y-91129243D01*
X88808039Y-91134224D01*
X88808039Y-91134225D01*
X88900151Y-91331762D01*
X88900154Y-91331767D01*
X88902477Y-91336749D01*
X88905634Y-91341257D01*
X88993399Y-91466598D01*
X89033802Y-91524300D01*
X89195700Y-91686198D01*
X89200208Y-91689355D01*
X89200211Y-91689357D01*
X89240948Y-91717881D01*
X89383251Y-91817523D01*
X89388233Y-91819846D01*
X89388238Y-91819849D01*
X89422457Y-91835805D01*
X89475742Y-91882722D01*
X89495203Y-91950999D01*
X89474661Y-92018959D01*
X89422457Y-92064195D01*
X89388238Y-92080151D01*
X89388233Y-92080154D01*
X89383251Y-92082477D01*
X89317771Y-92128327D01*
X89200211Y-92210643D01*
X89200208Y-92210645D01*
X89195700Y-92213802D01*
X89033802Y-92375700D01*
X89030645Y-92380208D01*
X89030643Y-92380211D01*
X89003064Y-92419598D01*
X88902477Y-92563251D01*
X88900154Y-92568233D01*
X88900151Y-92568238D01*
X88841787Y-92693401D01*
X88805716Y-92770757D01*
X88804294Y-92776065D01*
X88804293Y-92776067D01*
X88766908Y-92915590D01*
X88746457Y-92991913D01*
X88726502Y-93220000D01*
X88746457Y-93448087D01*
X88805716Y-93669243D01*
X88808039Y-93674224D01*
X88808039Y-93674225D01*
X88900151Y-93871762D01*
X88900154Y-93871767D01*
X88902477Y-93876749D01*
X88905634Y-93881257D01*
X89000121Y-94016198D01*
X89033802Y-94064300D01*
X89195700Y-94226198D01*
X89200208Y-94229355D01*
X89200211Y-94229357D01*
X89245798Y-94261277D01*
X89383251Y-94357523D01*
X89388233Y-94359846D01*
X89388238Y-94359849D01*
X89422457Y-94375805D01*
X89475742Y-94422722D01*
X89495203Y-94490999D01*
X89474661Y-94558959D01*
X89422457Y-94604195D01*
X89388238Y-94620151D01*
X89388233Y-94620154D01*
X89383251Y-94622477D01*
X89278389Y-94695902D01*
X89200211Y-94750643D01*
X89200208Y-94750645D01*
X89195700Y-94753802D01*
X89033802Y-94915700D01*
X89030645Y-94920208D01*
X89030643Y-94920211D01*
X88992055Y-94975321D01*
X88902477Y-95103251D01*
X88900154Y-95108233D01*
X88900151Y-95108238D01*
X88825688Y-95267926D01*
X88805716Y-95310757D01*
X88804294Y-95316065D01*
X88804293Y-95316067D01*
X88747881Y-95526598D01*
X88746457Y-95531913D01*
X88726502Y-95760000D01*
X88746457Y-95988087D01*
X88747881Y-95993400D01*
X88747881Y-95993402D01*
X88800934Y-96191395D01*
X88805716Y-96209243D01*
X88808039Y-96214224D01*
X88808039Y-96214225D01*
X88900151Y-96411762D01*
X88900154Y-96411767D01*
X88902477Y-96416749D01*
X88910021Y-96427523D01*
X89024960Y-96591672D01*
X89033802Y-96604300D01*
X89195700Y-96766198D01*
X89200208Y-96769355D01*
X89200211Y-96769357D01*
X89211131Y-96777003D01*
X89383251Y-96897523D01*
X89388233Y-96899846D01*
X89388238Y-96899849D01*
X89422457Y-96915805D01*
X89475742Y-96962722D01*
X89495203Y-97030999D01*
X89474661Y-97098959D01*
X89422457Y-97144195D01*
X89388238Y-97160151D01*
X89388233Y-97160154D01*
X89383251Y-97162477D01*
X89281960Y-97233402D01*
X89200211Y-97290643D01*
X89200208Y-97290645D01*
X89195700Y-97293802D01*
X89033802Y-97455700D01*
X89030645Y-97460208D01*
X89030643Y-97460211D01*
X89003064Y-97499598D01*
X88902477Y-97643251D01*
X88900154Y-97648233D01*
X88900151Y-97648238D01*
X88841787Y-97773401D01*
X88805716Y-97850757D01*
X88804294Y-97856065D01*
X88804293Y-97856067D01*
X88764382Y-98005015D01*
X88746457Y-98071913D01*
X88726502Y-98300000D01*
X88746457Y-98528087D01*
X88805716Y-98749243D01*
X88808039Y-98754224D01*
X88808039Y-98754225D01*
X88841442Y-98825858D01*
X88852103Y-98896050D01*
X88823123Y-98960863D01*
X88763703Y-98999719D01*
X88753444Y-99002355D01*
X88729266Y-99007494D01*
X88617712Y-99031206D01*
X88611682Y-99033891D01*
X88611681Y-99033891D01*
X88449278Y-99106197D01*
X88449276Y-99106198D01*
X88443248Y-99108882D01*
X88437907Y-99112762D01*
X88437906Y-99112763D01*
X88389222Y-99148134D01*
X88288747Y-99221134D01*
X88284332Y-99226037D01*
X88279420Y-99230460D01*
X88278295Y-99229211D01*
X88224986Y-99262051D01*
X88191800Y-99266500D01*
X87679595Y-99266500D01*
X87611474Y-99246498D01*
X87590500Y-99229595D01*
X87451218Y-99090313D01*
X87417192Y-99028001D01*
X87419755Y-98964589D01*
X87430865Y-98928022D01*
X87432370Y-98923069D01*
X87461529Y-98701590D01*
X87463156Y-98635000D01*
X87444852Y-98412361D01*
X87390431Y-98195702D01*
X87301354Y-97990840D01*
X87230874Y-97881894D01*
X87182822Y-97807617D01*
X87182820Y-97807614D01*
X87180014Y-97803277D01*
X87029670Y-97638051D01*
X87025619Y-97634852D01*
X87025615Y-97634848D01*
X86858414Y-97502800D01*
X86858410Y-97502798D01*
X86854359Y-97499598D01*
X86812569Y-97476529D01*
X86762598Y-97426097D01*
X86747826Y-97356654D01*
X86772942Y-97290248D01*
X86800294Y-97263641D01*
X86975328Y-97138792D01*
X86983200Y-97132139D01*
X87134052Y-96981812D01*
X87140730Y-96973965D01*
X87265003Y-96801020D01*
X87270313Y-96792183D01*
X87364670Y-96601267D01*
X87368469Y-96591672D01*
X87430377Y-96387910D01*
X87432555Y-96377837D01*
X87433986Y-96366962D01*
X87431775Y-96352778D01*
X87418617Y-96349000D01*
X84783225Y-96349000D01*
X84769694Y-96352973D01*
X84768257Y-96362966D01*
X84798565Y-96497446D01*
X84801645Y-96507275D01*
X84881770Y-96704603D01*
X84886413Y-96713794D01*
X84997694Y-96895388D01*
X85003777Y-96903699D01*
X85143213Y-97064667D01*
X85150580Y-97071883D01*
X85314434Y-97207916D01*
X85322881Y-97213831D01*
X85391969Y-97254203D01*
X85440693Y-97305842D01*
X85453764Y-97375625D01*
X85427033Y-97441396D01*
X85386584Y-97474752D01*
X85373607Y-97481507D01*
X85369474Y-97484610D01*
X85369471Y-97484612D01*
X85345247Y-97502800D01*
X85194965Y-97615635D01*
X85040629Y-97777138D01*
X85037715Y-97781410D01*
X85037714Y-97781411D01*
X84986787Y-97856067D01*
X84914743Y-97961680D01*
X84894628Y-98005015D01*
X84833120Y-98137523D01*
X84820688Y-98164305D01*
X84760989Y-98379570D01*
X84737251Y-98601695D01*
X83508500Y-98601695D01*
X83508500Y-93521695D01*
X84737251Y-93521695D01*
X84737548Y-93526848D01*
X84737548Y-93526851D01*
X84746046Y-93674225D01*
X84750110Y-93744715D01*
X84751247Y-93749761D01*
X84751248Y-93749767D01*
X84768815Y-93827715D01*
X84799222Y-93962639D01*
X84844141Y-94073261D01*
X84877589Y-94155634D01*
X84883266Y-94169616D01*
X84885965Y-94174020D01*
X84996481Y-94354366D01*
X84999987Y-94360088D01*
X85146250Y-94528938D01*
X85318126Y-94671632D01*
X85332498Y-94680030D01*
X85391955Y-94714774D01*
X85440679Y-94766412D01*
X85453750Y-94836195D01*
X85427019Y-94901967D01*
X85386562Y-94935327D01*
X85378457Y-94939546D01*
X85369738Y-94945036D01*
X85199433Y-95072905D01*
X85191726Y-95079748D01*
X85044590Y-95233717D01*
X85038104Y-95241727D01*
X84918098Y-95417649D01*
X84913000Y-95426623D01*
X84823338Y-95619783D01*
X84819775Y-95629470D01*
X84764389Y-95829183D01*
X84765912Y-95837607D01*
X84778292Y-95841000D01*
X87418344Y-95841000D01*
X87431875Y-95837027D01*
X87433180Y-95827947D01*
X87391214Y-95660875D01*
X87387894Y-95651124D01*
X87302972Y-95455814D01*
X87298105Y-95446739D01*
X87182426Y-95267926D01*
X87176136Y-95259757D01*
X87032806Y-95102240D01*
X87025273Y-95095215D01*
X86858139Y-94963222D01*
X86849556Y-94957520D01*
X86812602Y-94937120D01*
X86762631Y-94886687D01*
X86747859Y-94817245D01*
X86772975Y-94750839D01*
X86800327Y-94724232D01*
X86862296Y-94680030D01*
X86979860Y-94596173D01*
X87000065Y-94576039D01*
X87134435Y-94442137D01*
X87138096Y-94438489D01*
X87197594Y-94355689D01*
X87265435Y-94261277D01*
X87268453Y-94257077D01*
X87274073Y-94245707D01*
X87365136Y-94061453D01*
X87365137Y-94061451D01*
X87367430Y-94056811D01*
X87432370Y-93843069D01*
X87461529Y-93621590D01*
X87463156Y-93555000D01*
X87444852Y-93332361D01*
X87390431Y-93115702D01*
X87301354Y-92910840D01*
X87221493Y-92787393D01*
X87182822Y-92727617D01*
X87182820Y-92727614D01*
X87180014Y-92723277D01*
X87029670Y-92558051D01*
X87025619Y-92554852D01*
X87025615Y-92554848D01*
X86858414Y-92422800D01*
X86858410Y-92422798D01*
X86854359Y-92419598D01*
X86813053Y-92396796D01*
X86763084Y-92346364D01*
X86748312Y-92276921D01*
X86773428Y-92210516D01*
X86800780Y-92183909D01*
X86856824Y-92143933D01*
X86979860Y-92056173D01*
X87138096Y-91898489D01*
X87156788Y-91872477D01*
X87265435Y-91721277D01*
X87268453Y-91717077D01*
X87283715Y-91686198D01*
X87365136Y-91521453D01*
X87365137Y-91521451D01*
X87367430Y-91516811D01*
X87432370Y-91303069D01*
X87461529Y-91081590D01*
X87463156Y-91015000D01*
X87444852Y-90792361D01*
X87390431Y-90575702D01*
X87301354Y-90370840D01*
X87215250Y-90237743D01*
X87182822Y-90187617D01*
X87182820Y-90187614D01*
X87180014Y-90183277D01*
X87029670Y-90018051D01*
X87025619Y-90014852D01*
X87025615Y-90014848D01*
X86858414Y-89882800D01*
X86858410Y-89882798D01*
X86854359Y-89879598D01*
X86815847Y-89858338D01*
X86777198Y-89837003D01*
X86658789Y-89771638D01*
X86653920Y-89769914D01*
X86653916Y-89769912D01*
X86453087Y-89698795D01*
X86453083Y-89698794D01*
X86448212Y-89697069D01*
X86443119Y-89696162D01*
X86443116Y-89696161D01*
X86233373Y-89658800D01*
X86233367Y-89658799D01*
X86228284Y-89657894D01*
X86154452Y-89656992D01*
X86010081Y-89655228D01*
X86010079Y-89655228D01*
X86004911Y-89655165D01*
X85784091Y-89688955D01*
X85571756Y-89758357D01*
X85521724Y-89784402D01*
X85379695Y-89858338D01*
X85373607Y-89861507D01*
X85369474Y-89864610D01*
X85369471Y-89864612D01*
X85199100Y-89992530D01*
X85194965Y-89995635D01*
X85169894Y-90021870D01*
X85096413Y-90098764D01*
X85040629Y-90157138D01*
X85037715Y-90161410D01*
X85037714Y-90161411D01*
X84986787Y-90236067D01*
X84914743Y-90341680D01*
X84820688Y-90544305D01*
X84760989Y-90759570D01*
X84737251Y-90981695D01*
X84737548Y-90986848D01*
X84737548Y-90986851D01*
X84743011Y-91081590D01*
X84750110Y-91204715D01*
X84751247Y-91209761D01*
X84751248Y-91209767D01*
X84759363Y-91245775D01*
X84799222Y-91422639D01*
X84883266Y-91629616D01*
X84904809Y-91664771D01*
X84996481Y-91814366D01*
X84999987Y-91820088D01*
X85146250Y-91988938D01*
X85318126Y-92131632D01*
X85369758Y-92161803D01*
X85391445Y-92174476D01*
X85440169Y-92226114D01*
X85453240Y-92295897D01*
X85426509Y-92361669D01*
X85386055Y-92395027D01*
X85373607Y-92401507D01*
X85369474Y-92404610D01*
X85369471Y-92404612D01*
X85345247Y-92422800D01*
X85194965Y-92535635D01*
X85040629Y-92697138D01*
X85037715Y-92701410D01*
X85037714Y-92701411D01*
X84986787Y-92776067D01*
X84914743Y-92881680D01*
X84890325Y-92934284D01*
X84825689Y-93073532D01*
X84820688Y-93084305D01*
X84760989Y-93299570D01*
X84737251Y-93521695D01*
X83508500Y-93521695D01*
X83508500Y-85510000D01*
X84686502Y-85510000D01*
X84706457Y-85738087D01*
X84707881Y-85743400D01*
X84707881Y-85743402D01*
X84743754Y-85877279D01*
X84765716Y-85959243D01*
X84768039Y-85964224D01*
X84768039Y-85964225D01*
X84860151Y-86161762D01*
X84860154Y-86161767D01*
X84862477Y-86166749D01*
X84906393Y-86229467D01*
X84980611Y-86335461D01*
X84993802Y-86354300D01*
X85155700Y-86516198D01*
X85160208Y-86519355D01*
X85160211Y-86519357D01*
X85167248Y-86524284D01*
X85343251Y-86647523D01*
X85348233Y-86649846D01*
X85348238Y-86649849D01*
X85545775Y-86741961D01*
X85550757Y-86744284D01*
X85556065Y-86745706D01*
X85556067Y-86745707D01*
X85766598Y-86802119D01*
X85766600Y-86802119D01*
X85771913Y-86803543D01*
X86000000Y-86823498D01*
X86228087Y-86803543D01*
X86233400Y-86802119D01*
X86233402Y-86802119D01*
X86443933Y-86745707D01*
X86443935Y-86745706D01*
X86449243Y-86744284D01*
X86454225Y-86741961D01*
X86651762Y-86649849D01*
X86651767Y-86649846D01*
X86656749Y-86647523D01*
X86832752Y-86524284D01*
X86839789Y-86519357D01*
X86839792Y-86519355D01*
X86844300Y-86516198D01*
X87006198Y-86354300D01*
X87019390Y-86335461D01*
X87093607Y-86229467D01*
X87137523Y-86166749D01*
X87139846Y-86161767D01*
X87139849Y-86161762D01*
X87231961Y-85964225D01*
X87231961Y-85964224D01*
X87234284Y-85959243D01*
X87256247Y-85877279D01*
X87292119Y-85743402D01*
X87292119Y-85743400D01*
X87293543Y-85738087D01*
X87313498Y-85510000D01*
X87293543Y-85281913D01*
X87269930Y-85193788D01*
X87235707Y-85066067D01*
X87235706Y-85066065D01*
X87234284Y-85060757D01*
X87231961Y-85055775D01*
X87139849Y-84858238D01*
X87139846Y-84858233D01*
X87137523Y-84853251D01*
X87041557Y-84716198D01*
X87009357Y-84670211D01*
X87009355Y-84670208D01*
X87006198Y-84665700D01*
X86844300Y-84503802D01*
X86839792Y-84500645D01*
X86839789Y-84500643D01*
X86761322Y-84445700D01*
X86656749Y-84372477D01*
X86651767Y-84370154D01*
X86651762Y-84370151D01*
X86454225Y-84278039D01*
X86454224Y-84278039D01*
X86449243Y-84275716D01*
X86443935Y-84274294D01*
X86443933Y-84274293D01*
X86233402Y-84217881D01*
X86233400Y-84217881D01*
X86228087Y-84216457D01*
X86000000Y-84196502D01*
X85771913Y-84216457D01*
X85766600Y-84217881D01*
X85766598Y-84217881D01*
X85556067Y-84274293D01*
X85556065Y-84274294D01*
X85550757Y-84275716D01*
X85545776Y-84278039D01*
X85545775Y-84278039D01*
X85348238Y-84370151D01*
X85348233Y-84370154D01*
X85343251Y-84372477D01*
X85238678Y-84445700D01*
X85160211Y-84500643D01*
X85160208Y-84500645D01*
X85155700Y-84503802D01*
X84993802Y-84665700D01*
X84990645Y-84670208D01*
X84990643Y-84670211D01*
X84958443Y-84716198D01*
X84862477Y-84853251D01*
X84860154Y-84858233D01*
X84860151Y-84858238D01*
X84768039Y-85055775D01*
X84765716Y-85060757D01*
X84764294Y-85066065D01*
X84764293Y-85066067D01*
X84730070Y-85193788D01*
X84706457Y-85281913D01*
X84686502Y-85510000D01*
X83508500Y-85510000D01*
X83508500Y-77890000D01*
X84686502Y-77890000D01*
X84706457Y-78118087D01*
X84707881Y-78123400D01*
X84707881Y-78123402D01*
X84744686Y-78260757D01*
X84765716Y-78339243D01*
X84768039Y-78344224D01*
X84768039Y-78344225D01*
X84860151Y-78541762D01*
X84860154Y-78541767D01*
X84862477Y-78546749D01*
X84923524Y-78633933D01*
X84980621Y-78715475D01*
X84993802Y-78734300D01*
X85155700Y-78896198D01*
X85160208Y-78899355D01*
X85160211Y-78899357D01*
X85223114Y-78943402D01*
X85343251Y-79027523D01*
X85348233Y-79029846D01*
X85348238Y-79029849D01*
X85545775Y-79121961D01*
X85550757Y-79124284D01*
X85556065Y-79125706D01*
X85556067Y-79125707D01*
X85766598Y-79182119D01*
X85766600Y-79182119D01*
X85771913Y-79183543D01*
X86000000Y-79203498D01*
X86228087Y-79183543D01*
X86233400Y-79182119D01*
X86233402Y-79182119D01*
X86443933Y-79125707D01*
X86443935Y-79125706D01*
X86449243Y-79124284D01*
X86454225Y-79121961D01*
X86651762Y-79029849D01*
X86651767Y-79029846D01*
X86656749Y-79027523D01*
X86776886Y-78943402D01*
X86839789Y-78899357D01*
X86839792Y-78899355D01*
X86844300Y-78896198D01*
X87006198Y-78734300D01*
X87019380Y-78715475D01*
X87076476Y-78633933D01*
X87137523Y-78546749D01*
X87139846Y-78541767D01*
X87139849Y-78541762D01*
X87231961Y-78344225D01*
X87231961Y-78344224D01*
X87234284Y-78339243D01*
X87255315Y-78260757D01*
X87292119Y-78123402D01*
X87292119Y-78123400D01*
X87293543Y-78118087D01*
X87313498Y-77890000D01*
X87293543Y-77661913D01*
X87287615Y-77639789D01*
X87235707Y-77446067D01*
X87235706Y-77446065D01*
X87234284Y-77440757D01*
X87222953Y-77416457D01*
X87139849Y-77238238D01*
X87139846Y-77238233D01*
X87137523Y-77233251D01*
X87013154Y-77055634D01*
X87009357Y-77050211D01*
X87009355Y-77050208D01*
X87006198Y-77045700D01*
X86844300Y-76883802D01*
X86839792Y-76880645D01*
X86839789Y-76880643D01*
X86732438Y-76805475D01*
X86656749Y-76752477D01*
X86651767Y-76750154D01*
X86651762Y-76750151D01*
X86454225Y-76658039D01*
X86454224Y-76658039D01*
X86449243Y-76655716D01*
X86443935Y-76654294D01*
X86443933Y-76654293D01*
X86233402Y-76597881D01*
X86233400Y-76597881D01*
X86228087Y-76596457D01*
X86000000Y-76576502D01*
X85771913Y-76596457D01*
X85766600Y-76597881D01*
X85766598Y-76597881D01*
X85556067Y-76654293D01*
X85556065Y-76654294D01*
X85550757Y-76655716D01*
X85545776Y-76658039D01*
X85545775Y-76658039D01*
X85348238Y-76750151D01*
X85348233Y-76750154D01*
X85343251Y-76752477D01*
X85267562Y-76805475D01*
X85160211Y-76880643D01*
X85160208Y-76880645D01*
X85155700Y-76883802D01*
X84993802Y-77045700D01*
X84990645Y-77050208D01*
X84990643Y-77050211D01*
X84986846Y-77055634D01*
X84862477Y-77233251D01*
X84860154Y-77238233D01*
X84860151Y-77238238D01*
X84777047Y-77416457D01*
X84765716Y-77440757D01*
X84764294Y-77446065D01*
X84764293Y-77446067D01*
X84712385Y-77639789D01*
X84706457Y-77661913D01*
X84686502Y-77890000D01*
X83508500Y-77890000D01*
X83508500Y-72620000D01*
X84671502Y-72620000D01*
X84691457Y-72848087D01*
X84692881Y-72853400D01*
X84692881Y-72853402D01*
X84745725Y-73050615D01*
X84750716Y-73069243D01*
X84753039Y-73074224D01*
X84753039Y-73074225D01*
X84845151Y-73271762D01*
X84845154Y-73271767D01*
X84847477Y-73276749D01*
X84978802Y-73464300D01*
X85140700Y-73626198D01*
X85145208Y-73629355D01*
X85145211Y-73629357D01*
X85181529Y-73654787D01*
X85328251Y-73757523D01*
X85333233Y-73759846D01*
X85333238Y-73759849D01*
X85530775Y-73851961D01*
X85535757Y-73854284D01*
X85541065Y-73855706D01*
X85541067Y-73855707D01*
X85751598Y-73912119D01*
X85751600Y-73912119D01*
X85756913Y-73913543D01*
X85985000Y-73933498D01*
X86213087Y-73913543D01*
X86218400Y-73912119D01*
X86218402Y-73912119D01*
X86428933Y-73855707D01*
X86428935Y-73855706D01*
X86434243Y-73854284D01*
X86439225Y-73851961D01*
X86636762Y-73759849D01*
X86636767Y-73759846D01*
X86641749Y-73757523D01*
X86788471Y-73654787D01*
X86824789Y-73629357D01*
X86824792Y-73629355D01*
X86829300Y-73626198D01*
X86991198Y-73464300D01*
X87122523Y-73276749D01*
X87124846Y-73271767D01*
X87124849Y-73271762D01*
X87216961Y-73074225D01*
X87216961Y-73074224D01*
X87219284Y-73069243D01*
X87224276Y-73050615D01*
X87277119Y-72853402D01*
X87277119Y-72853400D01*
X87278543Y-72848087D01*
X87298498Y-72620000D01*
X87278543Y-72391913D01*
X87277119Y-72386598D01*
X87220707Y-72176067D01*
X87220706Y-72176065D01*
X87219284Y-72170757D01*
X87155235Y-72033402D01*
X87124849Y-71968238D01*
X87124846Y-71968233D01*
X87122523Y-71963251D01*
X87008213Y-71800000D01*
X86994357Y-71780211D01*
X86994355Y-71780208D01*
X86991198Y-71775700D01*
X86829300Y-71613802D01*
X86824792Y-71610645D01*
X86824789Y-71610643D01*
X86746611Y-71555902D01*
X86641749Y-71482477D01*
X86636767Y-71480154D01*
X86636762Y-71480151D01*
X86439225Y-71388039D01*
X86439224Y-71388039D01*
X86434243Y-71385716D01*
X86428935Y-71384294D01*
X86428933Y-71384293D01*
X86218402Y-71327881D01*
X86218400Y-71327881D01*
X86213087Y-71326457D01*
X85985000Y-71306502D01*
X85756913Y-71326457D01*
X85751600Y-71327881D01*
X85751598Y-71327881D01*
X85541067Y-71384293D01*
X85541065Y-71384294D01*
X85535757Y-71385716D01*
X85530776Y-71388039D01*
X85530775Y-71388039D01*
X85333238Y-71480151D01*
X85333233Y-71480154D01*
X85328251Y-71482477D01*
X85223389Y-71555902D01*
X85145211Y-71610643D01*
X85145208Y-71610645D01*
X85140700Y-71613802D01*
X84978802Y-71775700D01*
X84975645Y-71780208D01*
X84975643Y-71780211D01*
X84961787Y-71800000D01*
X84847477Y-71963251D01*
X84845154Y-71968233D01*
X84845151Y-71968238D01*
X84814765Y-72033402D01*
X84750716Y-72170757D01*
X84749294Y-72176065D01*
X84749293Y-72176067D01*
X84692881Y-72386598D01*
X84691457Y-72391913D01*
X84671502Y-72620000D01*
X83508500Y-72620000D01*
X83508500Y-65000000D01*
X84671502Y-65000000D01*
X84691457Y-65228087D01*
X84692881Y-65233400D01*
X84692881Y-65233402D01*
X84698415Y-65254053D01*
X84750716Y-65449243D01*
X84753039Y-65454224D01*
X84753039Y-65454225D01*
X84845151Y-65651762D01*
X84845154Y-65651767D01*
X84847477Y-65656749D01*
X84850634Y-65661257D01*
X84954335Y-65809357D01*
X84978802Y-65844300D01*
X85140700Y-66006198D01*
X85145208Y-66009355D01*
X85145211Y-66009357D01*
X85177493Y-66031961D01*
X85328251Y-66137523D01*
X85333233Y-66139846D01*
X85333238Y-66139849D01*
X85530775Y-66231961D01*
X85535757Y-66234284D01*
X85541065Y-66235706D01*
X85541067Y-66235707D01*
X85751598Y-66292119D01*
X85751600Y-66292119D01*
X85756913Y-66293543D01*
X85985000Y-66313498D01*
X86213087Y-66293543D01*
X86218400Y-66292119D01*
X86218402Y-66292119D01*
X86428933Y-66235707D01*
X86428935Y-66235706D01*
X86434243Y-66234284D01*
X86439225Y-66231961D01*
X86636762Y-66139849D01*
X86636767Y-66139846D01*
X86641749Y-66137523D01*
X86792507Y-66031961D01*
X86824789Y-66009357D01*
X86824792Y-66009355D01*
X86829300Y-66006198D01*
X86991198Y-65844300D01*
X87015666Y-65809357D01*
X87119366Y-65661257D01*
X87122523Y-65656749D01*
X87124846Y-65651767D01*
X87124849Y-65651762D01*
X87216961Y-65454225D01*
X87216961Y-65454224D01*
X87219284Y-65449243D01*
X87271586Y-65254053D01*
X87277119Y-65233402D01*
X87277119Y-65233400D01*
X87278543Y-65228087D01*
X87298498Y-65000000D01*
X87278543Y-64771913D01*
X87219284Y-64550757D01*
X87208619Y-64527885D01*
X87124849Y-64348238D01*
X87124846Y-64348233D01*
X87122523Y-64343251D01*
X87006874Y-64178087D01*
X86994357Y-64160211D01*
X86994355Y-64160208D01*
X86991198Y-64155700D01*
X86829300Y-63993802D01*
X86824792Y-63990645D01*
X86824789Y-63990643D01*
X86746611Y-63935902D01*
X86641749Y-63862477D01*
X86636767Y-63860154D01*
X86636762Y-63860151D01*
X86439225Y-63768039D01*
X86439224Y-63768039D01*
X86434243Y-63765716D01*
X86428935Y-63764294D01*
X86428933Y-63764293D01*
X86218402Y-63707881D01*
X86218400Y-63707881D01*
X86213087Y-63706457D01*
X85985000Y-63686502D01*
X85756913Y-63706457D01*
X85751600Y-63707881D01*
X85751598Y-63707881D01*
X85541067Y-63764293D01*
X85541065Y-63764294D01*
X85535757Y-63765716D01*
X85530776Y-63768039D01*
X85530775Y-63768039D01*
X85333238Y-63860151D01*
X85333233Y-63860154D01*
X85328251Y-63862477D01*
X85223389Y-63935902D01*
X85145211Y-63990643D01*
X85145208Y-63990645D01*
X85140700Y-63993802D01*
X84978802Y-64155700D01*
X84975645Y-64160208D01*
X84975643Y-64160211D01*
X84963126Y-64178087D01*
X84847477Y-64343251D01*
X84845154Y-64348233D01*
X84845151Y-64348238D01*
X84761381Y-64527885D01*
X84750716Y-64550757D01*
X84691457Y-64771913D01*
X84671502Y-65000000D01*
X83508500Y-65000000D01*
X83508500Y-61634500D01*
X83528502Y-61566379D01*
X83582158Y-61519886D01*
X83634500Y-61508500D01*
X117365500Y-61508500D01*
X117433621Y-61528502D01*
G37*
%TD.AperFunction*%
%TA.AperFunction,Conductor*%
G36*
X96503959Y-74675339D02*
G01*
X96549195Y-74727543D01*
X96565151Y-74761762D01*
X96565154Y-74761767D01*
X96567477Y-74766749D01*
X96698802Y-74954300D01*
X96860700Y-75116198D01*
X96865208Y-75119355D01*
X96865211Y-75119357D01*
X96906542Y-75148297D01*
X97048251Y-75247523D01*
X97053233Y-75249846D01*
X97053238Y-75249849D01*
X97250775Y-75341961D01*
X97255757Y-75344284D01*
X97261065Y-75345706D01*
X97261067Y-75345707D01*
X97471598Y-75402119D01*
X97471600Y-75402119D01*
X97476913Y-75403543D01*
X97705000Y-75423498D01*
X97933087Y-75403543D01*
X97938398Y-75402120D01*
X97938409Y-75402118D01*
X97996541Y-75386541D01*
X98067517Y-75388230D01*
X98118248Y-75419152D01*
X99529595Y-76830500D01*
X99563621Y-76892812D01*
X99566500Y-76919595D01*
X99566500Y-84797476D01*
X99546498Y-84865597D01*
X99534142Y-84881779D01*
X99460960Y-84963056D01*
X99365473Y-85128444D01*
X99322903Y-85259462D01*
X99318508Y-85272987D01*
X99278434Y-85331593D01*
X99213038Y-85359230D01*
X99143081Y-85347123D01*
X99090775Y-85299117D01*
X99084480Y-85287301D01*
X99024414Y-85158489D01*
X99018931Y-85148993D01*
X98893972Y-84970533D01*
X98886916Y-84962125D01*
X98732875Y-84808084D01*
X98724467Y-84801028D01*
X98546007Y-84676069D01*
X98536511Y-84670586D01*
X98339053Y-84578510D01*
X98328761Y-84574764D01*
X98156497Y-84528606D01*
X98142401Y-84528942D01*
X98139000Y-84536884D01*
X98139000Y-87077967D01*
X98142973Y-87091498D01*
X98151522Y-87092727D01*
X98328761Y-87045236D01*
X98339053Y-87041490D01*
X98536511Y-86949414D01*
X98546007Y-86943931D01*
X98724467Y-86818972D01*
X98732875Y-86811916D01*
X98886916Y-86657875D01*
X98893972Y-86649467D01*
X99018931Y-86471007D01*
X99024414Y-86461511D01*
X99116490Y-86264053D01*
X99120236Y-86253761D01*
X99176625Y-86043312D01*
X99178528Y-86032520D01*
X99180529Y-86009651D01*
X99206392Y-85943533D01*
X99263896Y-85901893D01*
X99334783Y-85897952D01*
X99396547Y-85932961D01*
X99415169Y-85957632D01*
X99460960Y-86036944D01*
X99465378Y-86041851D01*
X99465379Y-86041852D01*
X99577837Y-86166749D01*
X99588747Y-86178866D01*
X99743248Y-86291118D01*
X99749276Y-86293802D01*
X99749278Y-86293803D01*
X99911681Y-86366109D01*
X99917712Y-86368794D01*
X100011113Y-86388647D01*
X100098056Y-86407128D01*
X100098061Y-86407128D01*
X100104513Y-86408500D01*
X100295487Y-86408500D01*
X100301939Y-86407128D01*
X100301944Y-86407128D01*
X100388887Y-86388647D01*
X100482288Y-86368794D01*
X100488319Y-86366109D01*
X100650722Y-86293803D01*
X100650724Y-86293802D01*
X100656752Y-86291118D01*
X100811253Y-86178866D01*
X100822163Y-86166749D01*
X100934621Y-86041852D01*
X100934622Y-86041851D01*
X100939040Y-86036944D01*
X101034527Y-85871556D01*
X101093542Y-85689928D01*
X101100216Y-85626434D01*
X101112814Y-85506565D01*
X101113504Y-85500000D01*
X101093542Y-85310072D01*
X101078818Y-85264756D01*
X101076791Y-85193788D01*
X101113453Y-85132991D01*
X101177165Y-85101665D01*
X101247699Y-85109758D01*
X101301864Y-85153550D01*
X101376024Y-85259462D01*
X101383084Y-85267875D01*
X101537125Y-85421916D01*
X101545533Y-85428972D01*
X101728502Y-85557088D01*
X101727522Y-85558487D01*
X101771177Y-85604255D01*
X101784626Y-85673966D01*
X101758250Y-85739882D01*
X101748289Y-85751106D01*
X92409800Y-95089595D01*
X92347488Y-95123621D01*
X92320705Y-95126500D01*
X91850219Y-95126500D01*
X91782098Y-95106498D01*
X91735605Y-95052842D01*
X91725501Y-94982568D01*
X91741765Y-94936361D01*
X91744754Y-94931307D01*
X91749614Y-94925041D01*
X91765484Y-94888368D01*
X91767174Y-94884463D01*
X91772391Y-94873813D01*
X91793695Y-94835060D01*
X91798733Y-94815437D01*
X91805137Y-94796734D01*
X91810033Y-94785420D01*
X91810033Y-94785419D01*
X91813181Y-94778145D01*
X91814420Y-94770322D01*
X91814423Y-94770312D01*
X91820099Y-94734476D01*
X91822505Y-94722856D01*
X91831528Y-94687711D01*
X91831528Y-94687710D01*
X91833500Y-94680030D01*
X91833500Y-94659776D01*
X91835051Y-94640065D01*
X91836980Y-94627886D01*
X91838220Y-94620057D01*
X91834059Y-94576038D01*
X91833500Y-94564181D01*
X91833500Y-90328467D01*
X91834027Y-90317284D01*
X91835702Y-90309791D01*
X91833562Y-90241700D01*
X91833500Y-90237743D01*
X91833500Y-90209844D01*
X91832996Y-90205853D01*
X91832063Y-90194011D01*
X91831039Y-90161411D01*
X91830674Y-90149811D01*
X91828462Y-90142197D01*
X91828461Y-90142192D01*
X91825023Y-90130359D01*
X91821012Y-90110995D01*
X91819467Y-90098764D01*
X91818474Y-90090903D01*
X91815557Y-90083536D01*
X91815556Y-90083531D01*
X91802198Y-90049792D01*
X91798354Y-90038565D01*
X91792595Y-90018743D01*
X91786018Y-89996107D01*
X91775707Y-89978672D01*
X91767012Y-89960924D01*
X91759552Y-89942083D01*
X91733564Y-89906313D01*
X91727048Y-89896393D01*
X91708580Y-89865165D01*
X91708578Y-89865162D01*
X91704542Y-89858338D01*
X91690221Y-89844017D01*
X91677380Y-89828983D01*
X91670131Y-89819006D01*
X91665472Y-89812593D01*
X91631395Y-89784402D01*
X91622616Y-89776412D01*
X89630894Y-87784689D01*
X89596868Y-87722377D01*
X89593989Y-87695594D01*
X89593989Y-86076522D01*
X96602273Y-86076522D01*
X96649764Y-86253761D01*
X96653510Y-86264053D01*
X96745586Y-86461511D01*
X96751069Y-86471007D01*
X96876028Y-86649467D01*
X96883084Y-86657875D01*
X97037125Y-86811916D01*
X97045533Y-86818972D01*
X97223993Y-86943931D01*
X97233489Y-86949414D01*
X97430947Y-87041490D01*
X97441239Y-87045236D01*
X97613503Y-87091394D01*
X97627599Y-87091058D01*
X97631000Y-87083116D01*
X97631000Y-86082115D01*
X97626525Y-86066876D01*
X97625135Y-86065671D01*
X97617452Y-86064000D01*
X96617033Y-86064000D01*
X96603502Y-86067973D01*
X96602273Y-86076522D01*
X89593989Y-86076522D01*
X89593989Y-85538503D01*
X96603606Y-85538503D01*
X96603942Y-85552599D01*
X96611884Y-85556000D01*
X97612885Y-85556000D01*
X97628124Y-85551525D01*
X97629329Y-85550135D01*
X97631000Y-85542452D01*
X97631000Y-84542033D01*
X97627027Y-84528502D01*
X97618478Y-84527273D01*
X97441239Y-84574764D01*
X97430947Y-84578510D01*
X97233489Y-84670586D01*
X97223993Y-84676069D01*
X97045533Y-84801028D01*
X97037125Y-84808084D01*
X96883084Y-84962125D01*
X96876028Y-84970533D01*
X96751069Y-85148993D01*
X96745586Y-85158489D01*
X96653510Y-85355947D01*
X96649764Y-85366239D01*
X96603606Y-85538503D01*
X89593989Y-85538503D01*
X89593989Y-84982696D01*
X89613991Y-84914575D01*
X89667647Y-84868082D01*
X89737921Y-84857978D01*
X89773238Y-84868501D01*
X89935757Y-84944284D01*
X89941065Y-84945706D01*
X89941067Y-84945707D01*
X90151598Y-85002119D01*
X90151600Y-85002119D01*
X90156913Y-85003543D01*
X90385000Y-85023498D01*
X90613087Y-85003543D01*
X90618400Y-85002119D01*
X90618402Y-85002119D01*
X90828933Y-84945707D01*
X90828935Y-84945706D01*
X90834243Y-84944284D01*
X90911890Y-84908077D01*
X90937657Y-84896062D01*
X93363493Y-84896062D01*
X93372789Y-84908077D01*
X93423994Y-84943931D01*
X93433489Y-84949414D01*
X93630947Y-85041490D01*
X93641239Y-85045236D01*
X93851688Y-85101625D01*
X93862481Y-85103528D01*
X94079525Y-85122517D01*
X94090475Y-85122517D01*
X94307519Y-85103528D01*
X94318312Y-85101625D01*
X94528761Y-85045236D01*
X94539053Y-85041490D01*
X94736511Y-84949414D01*
X94746006Y-84943931D01*
X94798048Y-84907491D01*
X94806424Y-84897012D01*
X94799356Y-84883566D01*
X94097812Y-84182022D01*
X94083868Y-84174408D01*
X94082035Y-84174539D01*
X94075420Y-84178790D01*
X93369923Y-84884287D01*
X93363493Y-84896062D01*
X90937657Y-84896062D01*
X91036762Y-84849849D01*
X91036767Y-84849846D01*
X91041749Y-84847523D01*
X91176012Y-84753511D01*
X91224789Y-84719357D01*
X91224792Y-84719355D01*
X91229300Y-84716198D01*
X91391198Y-84554300D01*
X91399788Y-84542033D01*
X91507584Y-84388084D01*
X91522523Y-84366749D01*
X91524846Y-84361767D01*
X91524849Y-84361762D01*
X91616961Y-84164225D01*
X91616961Y-84164224D01*
X91619284Y-84159243D01*
X91629255Y-84122033D01*
X91677119Y-83943402D01*
X91677119Y-83943400D01*
X91678543Y-83938087D01*
X91689270Y-83815475D01*
X92772483Y-83815475D01*
X92791472Y-84032519D01*
X92793375Y-84043312D01*
X92849764Y-84253761D01*
X92853510Y-84264053D01*
X92945586Y-84461511D01*
X92951069Y-84471006D01*
X92987509Y-84523048D01*
X92997988Y-84531424D01*
X93011434Y-84524356D01*
X93712978Y-83822812D01*
X93719356Y-83811132D01*
X94449408Y-83811132D01*
X94449539Y-83812965D01*
X94453790Y-83819580D01*
X95159287Y-84525077D01*
X95171062Y-84531507D01*
X95183077Y-84522211D01*
X95218931Y-84471006D01*
X95224414Y-84461511D01*
X95316490Y-84264053D01*
X95320236Y-84253761D01*
X95376625Y-84043312D01*
X95378528Y-84032519D01*
X95397517Y-83815475D01*
X95397517Y-83804525D01*
X95378528Y-83587481D01*
X95376625Y-83576688D01*
X95320236Y-83366239D01*
X95316490Y-83355947D01*
X95224414Y-83158489D01*
X95218931Y-83148994D01*
X95182491Y-83096952D01*
X95172012Y-83088576D01*
X95158566Y-83095644D01*
X94457022Y-83797188D01*
X94449408Y-83811132D01*
X93719356Y-83811132D01*
X93720592Y-83808868D01*
X93720461Y-83807035D01*
X93716210Y-83800420D01*
X93010713Y-83094923D01*
X92998938Y-83088493D01*
X92986923Y-83097789D01*
X92951069Y-83148994D01*
X92945586Y-83158489D01*
X92853510Y-83355947D01*
X92849764Y-83366239D01*
X92793375Y-83576688D01*
X92791472Y-83587481D01*
X92772483Y-83804525D01*
X92772483Y-83815475D01*
X91689270Y-83815475D01*
X91698498Y-83710000D01*
X91678543Y-83481913D01*
X91630932Y-83304226D01*
X91620707Y-83266067D01*
X91620706Y-83266065D01*
X91619284Y-83260757D01*
X91616961Y-83255775D01*
X91524849Y-83058238D01*
X91524846Y-83058233D01*
X91522523Y-83053251D01*
X91391198Y-82865700D01*
X91248486Y-82722988D01*
X93363576Y-82722988D01*
X93370644Y-82736434D01*
X94072188Y-83437978D01*
X94086132Y-83445592D01*
X94087965Y-83445461D01*
X94094580Y-83441210D01*
X94800077Y-82735713D01*
X94806507Y-82723938D01*
X94797211Y-82711923D01*
X94746006Y-82676069D01*
X94736511Y-82670586D01*
X94539053Y-82578510D01*
X94528761Y-82574764D01*
X94318312Y-82518375D01*
X94307519Y-82516472D01*
X94090475Y-82497483D01*
X94079525Y-82497483D01*
X93862481Y-82516472D01*
X93851688Y-82518375D01*
X93641239Y-82574764D01*
X93630947Y-82578510D01*
X93433489Y-82670586D01*
X93423994Y-82676069D01*
X93371952Y-82712509D01*
X93363576Y-82722988D01*
X91248486Y-82722988D01*
X91229300Y-82703802D01*
X91224792Y-82700645D01*
X91224789Y-82700643D01*
X91101594Y-82614381D01*
X91041749Y-82572477D01*
X91036767Y-82570154D01*
X91036762Y-82570151D01*
X90839225Y-82478039D01*
X90839224Y-82478039D01*
X90834243Y-82475716D01*
X90828935Y-82474294D01*
X90828933Y-82474293D01*
X90618402Y-82417881D01*
X90618400Y-82417881D01*
X90613087Y-82416457D01*
X90385000Y-82396502D01*
X90156913Y-82416457D01*
X90151600Y-82417881D01*
X90151598Y-82417881D01*
X89941067Y-82474293D01*
X89941065Y-82474294D01*
X89935757Y-82475716D01*
X89930776Y-82478039D01*
X89930775Y-82478039D01*
X89773239Y-82551499D01*
X89703047Y-82562160D01*
X89638234Y-82533180D01*
X89599378Y-82473760D01*
X89593989Y-82437304D01*
X89593989Y-79982696D01*
X89613991Y-79914575D01*
X89667647Y-79868082D01*
X89737921Y-79857978D01*
X89773238Y-79868501D01*
X89935757Y-79944284D01*
X89941065Y-79945706D01*
X89941067Y-79945707D01*
X90151598Y-80002119D01*
X90151600Y-80002119D01*
X90156913Y-80003543D01*
X90385000Y-80023498D01*
X90613087Y-80003543D01*
X90618400Y-80002119D01*
X90618402Y-80002119D01*
X90828933Y-79945707D01*
X90828935Y-79945706D01*
X90834243Y-79944284D01*
X90897955Y-79914575D01*
X91036762Y-79849849D01*
X91036767Y-79849846D01*
X91041749Y-79847523D01*
X91176012Y-79753511D01*
X91224789Y-79719357D01*
X91224792Y-79719355D01*
X91229300Y-79716198D01*
X91391198Y-79554300D01*
X91427106Y-79503019D01*
X91449098Y-79471611D01*
X91522523Y-79366749D01*
X91524846Y-79361767D01*
X91524849Y-79361762D01*
X91616961Y-79164225D01*
X91616961Y-79164224D01*
X91619284Y-79159243D01*
X91651719Y-79038197D01*
X91677119Y-78943402D01*
X91677119Y-78943400D01*
X91678543Y-78938087D01*
X91689749Y-78810000D01*
X92771502Y-78810000D01*
X92791457Y-79038087D01*
X92792881Y-79043400D01*
X92792881Y-79043402D01*
X92830051Y-79182119D01*
X92850716Y-79259243D01*
X92853039Y-79264224D01*
X92853039Y-79264225D01*
X92945151Y-79461762D01*
X92945154Y-79461767D01*
X92947477Y-79466749D01*
X93078802Y-79654300D01*
X93240700Y-79816198D01*
X93245208Y-79819355D01*
X93245211Y-79819357D01*
X93288758Y-79849849D01*
X93428251Y-79947523D01*
X93433233Y-79949846D01*
X93433238Y-79949849D01*
X93591181Y-80023498D01*
X93635757Y-80044284D01*
X93641065Y-80045706D01*
X93641067Y-80045707D01*
X93851598Y-80102119D01*
X93851600Y-80102119D01*
X93856913Y-80103543D01*
X94085000Y-80123498D01*
X94313087Y-80103543D01*
X94318400Y-80102119D01*
X94318402Y-80102119D01*
X94528933Y-80045707D01*
X94528935Y-80045706D01*
X94534243Y-80044284D01*
X94578819Y-80023498D01*
X94736762Y-79949849D01*
X94736767Y-79949846D01*
X94741749Y-79947523D01*
X94881242Y-79849849D01*
X94924789Y-79819357D01*
X94924792Y-79819355D01*
X94929300Y-79816198D01*
X95091198Y-79654300D01*
X95222523Y-79466749D01*
X95224846Y-79461767D01*
X95224849Y-79461762D01*
X95316961Y-79264225D01*
X95316961Y-79264224D01*
X95319284Y-79259243D01*
X95339950Y-79182119D01*
X95377119Y-79043402D01*
X95377119Y-79043400D01*
X95378543Y-79038087D01*
X95398498Y-78810000D01*
X95378543Y-78581913D01*
X95369121Y-78546749D01*
X95320707Y-78366067D01*
X95320706Y-78366065D01*
X95319284Y-78360757D01*
X95305925Y-78332109D01*
X95239660Y-78190000D01*
X96571502Y-78190000D01*
X96591457Y-78418087D01*
X96592881Y-78423400D01*
X96592881Y-78423402D01*
X96610028Y-78487393D01*
X96650716Y-78639243D01*
X96653039Y-78644224D01*
X96653039Y-78644225D01*
X96745151Y-78841762D01*
X96745154Y-78841767D01*
X96747477Y-78846749D01*
X96750634Y-78851257D01*
X96874057Y-79027523D01*
X96878802Y-79034300D01*
X97040700Y-79196198D01*
X97045208Y-79199355D01*
X97045211Y-79199357D01*
X97050441Y-79203019D01*
X97228251Y-79327523D01*
X97233233Y-79329846D01*
X97233238Y-79329849D01*
X97322039Y-79371257D01*
X97435757Y-79424284D01*
X97441065Y-79425706D01*
X97441067Y-79425707D01*
X97651598Y-79482119D01*
X97651600Y-79482119D01*
X97656913Y-79483543D01*
X97885000Y-79503498D01*
X98113087Y-79483543D01*
X98118400Y-79482119D01*
X98118402Y-79482119D01*
X98328933Y-79425707D01*
X98328935Y-79425706D01*
X98334243Y-79424284D01*
X98447961Y-79371257D01*
X98536762Y-79329849D01*
X98536767Y-79329846D01*
X98541749Y-79327523D01*
X98719559Y-79203019D01*
X98724789Y-79199357D01*
X98724792Y-79199355D01*
X98729300Y-79196198D01*
X98891198Y-79034300D01*
X98895944Y-79027523D01*
X99019366Y-78851257D01*
X99022523Y-78846749D01*
X99024846Y-78841767D01*
X99024849Y-78841762D01*
X99116961Y-78644225D01*
X99116961Y-78644224D01*
X99119284Y-78639243D01*
X99159973Y-78487393D01*
X99177119Y-78423402D01*
X99177119Y-78423400D01*
X99178543Y-78418087D01*
X99198498Y-78190000D01*
X99178543Y-77961913D01*
X99171162Y-77934366D01*
X99120707Y-77746067D01*
X99120706Y-77746065D01*
X99119284Y-77740757D01*
X99085074Y-77667393D01*
X99024849Y-77538238D01*
X99024846Y-77538233D01*
X99022523Y-77533251D01*
X98940407Y-77415978D01*
X98894357Y-77350211D01*
X98894355Y-77350208D01*
X98891198Y-77345700D01*
X98729300Y-77183802D01*
X98724792Y-77180645D01*
X98724789Y-77180643D01*
X98646611Y-77125902D01*
X98541749Y-77052477D01*
X98536767Y-77050154D01*
X98536762Y-77050151D01*
X98339225Y-76958039D01*
X98339224Y-76958039D01*
X98334243Y-76955716D01*
X98328935Y-76954294D01*
X98328933Y-76954293D01*
X98118402Y-76897881D01*
X98118400Y-76897881D01*
X98113087Y-76896457D01*
X97885000Y-76876502D01*
X97656913Y-76896457D01*
X97651600Y-76897881D01*
X97651598Y-76897881D01*
X97441067Y-76954293D01*
X97441065Y-76954294D01*
X97435757Y-76955716D01*
X97430776Y-76958039D01*
X97430775Y-76958039D01*
X97233238Y-77050151D01*
X97233233Y-77050154D01*
X97228251Y-77052477D01*
X97123389Y-77125902D01*
X97045211Y-77180643D01*
X97045208Y-77180645D01*
X97040700Y-77183802D01*
X96878802Y-77345700D01*
X96875645Y-77350208D01*
X96875643Y-77350211D01*
X96829593Y-77415978D01*
X96747477Y-77533251D01*
X96745154Y-77538233D01*
X96745151Y-77538238D01*
X96684926Y-77667393D01*
X96650716Y-77740757D01*
X96649294Y-77746065D01*
X96649293Y-77746067D01*
X96598838Y-77934366D01*
X96591457Y-77961913D01*
X96571502Y-78190000D01*
X95239660Y-78190000D01*
X95224849Y-78158238D01*
X95224846Y-78158233D01*
X95222523Y-78153251D01*
X95129301Y-78020117D01*
X95094357Y-77970211D01*
X95094355Y-77970208D01*
X95091198Y-77965700D01*
X94929300Y-77803802D01*
X94924792Y-77800645D01*
X94924789Y-77800643D01*
X94792051Y-77707699D01*
X94741749Y-77672477D01*
X94736767Y-77670154D01*
X94736762Y-77670151D01*
X94539225Y-77578039D01*
X94539224Y-77578039D01*
X94534243Y-77575716D01*
X94528935Y-77574294D01*
X94528933Y-77574293D01*
X94318402Y-77517881D01*
X94318400Y-77517881D01*
X94313087Y-77516457D01*
X94085000Y-77496502D01*
X93856913Y-77516457D01*
X93851600Y-77517881D01*
X93851598Y-77517881D01*
X93641067Y-77574293D01*
X93641065Y-77574294D01*
X93635757Y-77575716D01*
X93630776Y-77578039D01*
X93630775Y-77578039D01*
X93433238Y-77670151D01*
X93433233Y-77670154D01*
X93428251Y-77672477D01*
X93377949Y-77707699D01*
X93245211Y-77800643D01*
X93245208Y-77800645D01*
X93240700Y-77803802D01*
X93078802Y-77965700D01*
X93075645Y-77970208D01*
X93075643Y-77970211D01*
X93040699Y-78020117D01*
X92947477Y-78153251D01*
X92945154Y-78158233D01*
X92945151Y-78158238D01*
X92864075Y-78332109D01*
X92850716Y-78360757D01*
X92849294Y-78366065D01*
X92849293Y-78366067D01*
X92800879Y-78546749D01*
X92791457Y-78581913D01*
X92771502Y-78810000D01*
X91689749Y-78810000D01*
X91698498Y-78710000D01*
X91678543Y-78481913D01*
X91661441Y-78418087D01*
X91620707Y-78266067D01*
X91620706Y-78266065D01*
X91619284Y-78260757D01*
X91612676Y-78246586D01*
X91524849Y-78058238D01*
X91524846Y-78058233D01*
X91522523Y-78053251D01*
X91425529Y-77914730D01*
X91394357Y-77870211D01*
X91394355Y-77870208D01*
X91391198Y-77865700D01*
X91229300Y-77703802D01*
X91224792Y-77700645D01*
X91224789Y-77700643D01*
X91137880Y-77639789D01*
X91041749Y-77572477D01*
X91036767Y-77570154D01*
X91036762Y-77570151D01*
X90839225Y-77478039D01*
X90839224Y-77478039D01*
X90834243Y-77475716D01*
X90828935Y-77474294D01*
X90828933Y-77474293D01*
X90618402Y-77417881D01*
X90618400Y-77417881D01*
X90613087Y-77416457D01*
X90385000Y-77396502D01*
X90156913Y-77416457D01*
X90151600Y-77417881D01*
X90151598Y-77417881D01*
X89941067Y-77474293D01*
X89941065Y-77474294D01*
X89935757Y-77475716D01*
X89822040Y-77528743D01*
X89773239Y-77551499D01*
X89703047Y-77562160D01*
X89638234Y-77533180D01*
X89599378Y-77473760D01*
X89593989Y-77437304D01*
X89593989Y-75544500D01*
X89613991Y-75476379D01*
X89667647Y-75429886D01*
X89719989Y-75418500D01*
X90933134Y-75418500D01*
X90995316Y-75411745D01*
X91131705Y-75360615D01*
X91248261Y-75273261D01*
X91335615Y-75156705D01*
X91386745Y-75020316D01*
X91387917Y-75009526D01*
X91388803Y-75007394D01*
X91389425Y-75004778D01*
X91389848Y-75004879D01*
X91415155Y-74943965D01*
X91473517Y-74903537D01*
X91544471Y-74901078D01*
X91605490Y-74937371D01*
X91612489Y-74946031D01*
X91615643Y-74949789D01*
X91618802Y-74954300D01*
X91780700Y-75116198D01*
X91785208Y-75119355D01*
X91785211Y-75119357D01*
X91826542Y-75148297D01*
X91968251Y-75247523D01*
X91973233Y-75249846D01*
X91973238Y-75249849D01*
X92170775Y-75341961D01*
X92175757Y-75344284D01*
X92181065Y-75345706D01*
X92181067Y-75345707D01*
X92391598Y-75402119D01*
X92391600Y-75402119D01*
X92396913Y-75403543D01*
X92625000Y-75423498D01*
X92853087Y-75403543D01*
X92858400Y-75402119D01*
X92858402Y-75402119D01*
X93068933Y-75345707D01*
X93068935Y-75345706D01*
X93074243Y-75344284D01*
X93079225Y-75341961D01*
X93276762Y-75249849D01*
X93276767Y-75249846D01*
X93281749Y-75247523D01*
X93423458Y-75148297D01*
X93464789Y-75119357D01*
X93464792Y-75119355D01*
X93469300Y-75116198D01*
X93631198Y-74954300D01*
X93762523Y-74766749D01*
X93764846Y-74761767D01*
X93764849Y-74761762D01*
X93780805Y-74727543D01*
X93827722Y-74674258D01*
X93895999Y-74654797D01*
X93963959Y-74675339D01*
X94009195Y-74727543D01*
X94025151Y-74761762D01*
X94025154Y-74761767D01*
X94027477Y-74766749D01*
X94158802Y-74954300D01*
X94320700Y-75116198D01*
X94325208Y-75119355D01*
X94325211Y-75119357D01*
X94366542Y-75148297D01*
X94508251Y-75247523D01*
X94513233Y-75249846D01*
X94513238Y-75249849D01*
X94710775Y-75341961D01*
X94715757Y-75344284D01*
X94721065Y-75345706D01*
X94721067Y-75345707D01*
X94931598Y-75402119D01*
X94931600Y-75402119D01*
X94936913Y-75403543D01*
X95165000Y-75423498D01*
X95393087Y-75403543D01*
X95398400Y-75402119D01*
X95398402Y-75402119D01*
X95608933Y-75345707D01*
X95608935Y-75345706D01*
X95614243Y-75344284D01*
X95619225Y-75341961D01*
X95816762Y-75249849D01*
X95816767Y-75249846D01*
X95821749Y-75247523D01*
X95963458Y-75148297D01*
X96004789Y-75119357D01*
X96004792Y-75119355D01*
X96009300Y-75116198D01*
X96171198Y-74954300D01*
X96302523Y-74766749D01*
X96304846Y-74761767D01*
X96304849Y-74761762D01*
X96320805Y-74727543D01*
X96367722Y-74674258D01*
X96435999Y-74654797D01*
X96503959Y-74675339D01*
G37*
%TD.AperFunction*%
%TD*%
M02*
