%TF.GenerationSoftware,KiCad,Pcbnew,(6.0.5-0)*%
%TF.CreationDate,2022-06-21T19:00:10+05:30*%
%TF.ProjectId,AM_Receiver_PCB,414d5f52-6563-4656-9976-65725f504342,rev?*%
%TF.SameCoordinates,Original*%
%TF.FileFunction,Soldermask,Bot*%
%TF.FilePolarity,Negative*%
%FSLAX46Y46*%
G04 Gerber Fmt 4.6, Leading zero omitted, Abs format (unit mm)*
G04 Created by KiCad (PCBNEW (6.0.5-0)) date 2022-06-21 19:00:10*
%MOMM*%
%LPD*%
G01*
G04 APERTURE LIST*
%ADD10O,1.600000X1.600000*%
%ADD11C,1.600000*%
%ADD12R,1.600000X1.600000*%
%ADD13O,1.700000X1.700000*%
%ADD14R,1.700000X1.700000*%
G04 APERTURE END LIST*
D10*
%TO.C,R3*%
X86000000Y-77890000D03*
D11*
X86000000Y-85510000D03*
%TD*%
D12*
%TO.C,U2*%
X115000000Y-71800000D03*
D10*
X112460000Y-71800000D03*
X109920000Y-71800000D03*
X107380000Y-71800000D03*
X107380000Y-81960000D03*
X109920000Y-81960000D03*
X112460000Y-81960000D03*
X115000000Y-81960000D03*
%TD*%
D12*
%TO.C,U3*%
X100200000Y-98300000D03*
D10*
X100200000Y-95760000D03*
X100200000Y-93220000D03*
X100200000Y-90680000D03*
X90040000Y-90680000D03*
X90040000Y-93220000D03*
X90040000Y-95760000D03*
X90040000Y-98300000D03*
%TD*%
D13*
%TO.C,J1*%
X86100000Y-91015000D03*
X86100000Y-93555000D03*
X86100000Y-96095000D03*
X86100000Y-98635000D03*
D14*
X86100000Y-101175000D03*
%TD*%
D10*
%TO.C,U1*%
X90085000Y-63950000D03*
X92625000Y-63950000D03*
X95165000Y-63950000D03*
X97705000Y-63950000D03*
X97705000Y-74110000D03*
X95165000Y-74110000D03*
X92625000Y-74110000D03*
D12*
X90085000Y-74110000D03*
%TD*%
D10*
%TO.C,R11*%
X103800000Y-102910000D03*
D11*
X103800000Y-95290000D03*
%TD*%
D10*
%TO.C,R10*%
X99010000Y-103000000D03*
D11*
X91390000Y-103000000D03*
%TD*%
D10*
%TO.C,R9*%
X115420000Y-102200000D03*
D11*
X107800000Y-102200000D03*
%TD*%
%TO.C,R8*%
X110800000Y-93010000D03*
D10*
X110800000Y-85390000D03*
%TD*%
D11*
%TO.C,R7*%
X102385000Y-76800000D03*
D10*
X102385000Y-84420000D03*
%TD*%
%TO.C,R6*%
X102385000Y-72620000D03*
D11*
X102385000Y-65000000D03*
%TD*%
%TO.C,R5*%
X85985000Y-72620000D03*
D10*
X85985000Y-65000000D03*
%TD*%
D11*
%TO.C,R4*%
X97885000Y-78190000D03*
D10*
X97885000Y-85810000D03*
%TD*%
%TO.C,R2*%
X115320000Y-64800000D03*
D11*
X107700000Y-64800000D03*
%TD*%
%TO.C,R1*%
X115310000Y-68300000D03*
D10*
X107690000Y-68300000D03*
%TD*%
D12*
%TO.C,D1*%
X106700000Y-92910000D03*
D10*
X106700000Y-85290000D03*
%TD*%
D11*
%TO.C,C4*%
X114500000Y-97000000D03*
X109500000Y-97000000D03*
%TD*%
%TO.C,C3*%
X115100000Y-91700000D03*
X115100000Y-86700000D03*
%TD*%
%TO.C,C2*%
X90385000Y-83710000D03*
X90385000Y-78710000D03*
%TD*%
%TO.C,C1*%
X94085000Y-78810000D03*
X94085000Y-83810000D03*
%TD*%
M02*
