%TF.GenerationSoftware,KiCad,Pcbnew,(6.0.5-0)*%
%TF.CreationDate,2022-06-21T19:00:10+05:30*%
%TF.ProjectId,AM_Receiver_PCB,414d5f52-6563-4656-9976-65725f504342,rev?*%
%TF.SameCoordinates,Original*%
%TF.FileFunction,Legend,Top*%
%TF.FilePolarity,Positive*%
%FSLAX46Y46*%
G04 Gerber Fmt 4.6, Leading zero omitted, Abs format (unit mm)*
G04 Created by KiCad (PCBNEW (6.0.5-0)) date 2022-06-21 19:00:10*
%MOMM*%
%LPD*%
G01*
G04 APERTURE LIST*
%ADD10C,0.150000*%
%ADD11C,0.120000*%
G04 APERTURE END LIST*
D10*
X84071428Y-100285714D02*
X84071428Y-99523809D01*
X83452380Y-98571428D02*
X83452380Y-99047619D01*
X83928571Y-99095238D01*
X83880952Y-99047619D01*
X83833333Y-98952380D01*
X83833333Y-98714285D01*
X83880952Y-98619047D01*
X83928571Y-98571428D01*
X84023809Y-98523809D01*
X84261904Y-98523809D01*
X84357142Y-98571428D01*
X84404761Y-98619047D01*
X84452380Y-98714285D01*
X84452380Y-98952380D01*
X84404761Y-99047619D01*
X84357142Y-99095238D01*
X83452380Y-98238095D02*
X84452380Y-97904761D01*
X83452380Y-97571428D01*
X83452380Y-102190476D02*
X83452380Y-102666666D01*
X83928571Y-102714285D01*
X83880952Y-102666666D01*
X83833333Y-102571428D01*
X83833333Y-102333333D01*
X83880952Y-102238095D01*
X83928571Y-102190476D01*
X84023809Y-102142857D01*
X84261904Y-102142857D01*
X84357142Y-102190476D01*
X84404761Y-102238095D01*
X84452380Y-102333333D01*
X84452380Y-102571428D01*
X84404761Y-102666666D01*
X84357142Y-102714285D01*
X83452380Y-101857142D02*
X84452380Y-101523809D01*
X83452380Y-101190476D01*
X83500000Y-95738095D02*
X83452380Y-95833333D01*
X83452380Y-95976190D01*
X83500000Y-96119047D01*
X83595238Y-96214285D01*
X83690476Y-96261904D01*
X83880952Y-96309523D01*
X84023809Y-96309523D01*
X84214285Y-96261904D01*
X84309523Y-96214285D01*
X84404761Y-96119047D01*
X84452380Y-95976190D01*
X84452380Y-95880952D01*
X84404761Y-95738095D01*
X84357142Y-95690476D01*
X84023809Y-95690476D01*
X84023809Y-95880952D01*
X83452380Y-94023809D02*
X84452380Y-93690476D01*
X83452380Y-93357142D01*
X84452380Y-93023809D02*
X83785714Y-93023809D01*
X83452380Y-93023809D02*
X83500000Y-93071428D01*
X83547619Y-93023809D01*
X83500000Y-92976190D01*
X83452380Y-93023809D01*
X83547619Y-93023809D01*
X83785714Y-92547619D02*
X84452380Y-92547619D01*
X83880952Y-92547619D02*
X83833333Y-92500000D01*
X83785714Y-92404761D01*
X83785714Y-92261904D01*
X83833333Y-92166666D01*
X83928571Y-92119047D01*
X84452380Y-92119047D01*
X83452380Y-91523809D02*
X84452380Y-91190476D01*
X83452380Y-90857142D01*
X84452380Y-90380952D02*
X84404761Y-90476190D01*
X84357142Y-90523809D01*
X84261904Y-90571428D01*
X83976190Y-90571428D01*
X83880952Y-90523809D01*
X83833333Y-90476190D01*
X83785714Y-90380952D01*
X83785714Y-90238095D01*
X83833333Y-90142857D01*
X83880952Y-90095238D01*
X83976190Y-90047619D01*
X84261904Y-90047619D01*
X84357142Y-90095238D01*
X84404761Y-90142857D01*
X84452380Y-90238095D01*
X84452380Y-90380952D01*
X83785714Y-89190476D02*
X84452380Y-89190476D01*
X83785714Y-89619047D02*
X84309523Y-89619047D01*
X84404761Y-89571428D01*
X84452380Y-89476190D01*
X84452380Y-89333333D01*
X84404761Y-89238095D01*
X84357142Y-89190476D01*
X83785714Y-88857142D02*
X83785714Y-88476190D01*
X83452380Y-88714285D02*
X84309523Y-88714285D01*
X84404761Y-88666666D01*
X84452380Y-88571428D01*
X84452380Y-88476190D01*
%TO.C,R3*%
X85833333Y-76452380D02*
X85500000Y-75976190D01*
X85261904Y-76452380D02*
X85261904Y-75452380D01*
X85642857Y-75452380D01*
X85738095Y-75500000D01*
X85785714Y-75547619D01*
X85833333Y-75642857D01*
X85833333Y-75785714D01*
X85785714Y-75880952D01*
X85738095Y-75928571D01*
X85642857Y-75976190D01*
X85261904Y-75976190D01*
X86166666Y-75452380D02*
X86785714Y-75452380D01*
X86452380Y-75833333D01*
X86595238Y-75833333D01*
X86690476Y-75880952D01*
X86738095Y-75928571D01*
X86785714Y-76023809D01*
X86785714Y-76261904D01*
X86738095Y-76357142D01*
X86690476Y-76404761D01*
X86595238Y-76452380D01*
X86309523Y-76452380D01*
X86214285Y-76404761D01*
X86166666Y-76357142D01*
%TO.C,U2*%
X116782380Y-77641904D02*
X117591904Y-77641904D01*
X117687142Y-77594285D01*
X117734761Y-77546666D01*
X117782380Y-77451428D01*
X117782380Y-77260952D01*
X117734761Y-77165714D01*
X117687142Y-77118095D01*
X117591904Y-77070476D01*
X116782380Y-77070476D01*
X116877619Y-76641904D02*
X116830000Y-76594285D01*
X116782380Y-76499047D01*
X116782380Y-76260952D01*
X116830000Y-76165714D01*
X116877619Y-76118095D01*
X116972857Y-76070476D01*
X117068095Y-76070476D01*
X117210952Y-76118095D01*
X117782380Y-76689523D01*
X117782380Y-76070476D01*
%TO.C,U3*%
X94358095Y-87452380D02*
X94358095Y-88261904D01*
X94405714Y-88357142D01*
X94453333Y-88404761D01*
X94548571Y-88452380D01*
X94739047Y-88452380D01*
X94834285Y-88404761D01*
X94881904Y-88357142D01*
X94929523Y-88261904D01*
X94929523Y-87452380D01*
X95310476Y-87452380D02*
X95929523Y-87452380D01*
X95596190Y-87833333D01*
X95739047Y-87833333D01*
X95834285Y-87880952D01*
X95881904Y-87928571D01*
X95929523Y-88023809D01*
X95929523Y-88261904D01*
X95881904Y-88357142D01*
X95834285Y-88404761D01*
X95739047Y-88452380D01*
X95453333Y-88452380D01*
X95358095Y-88404761D01*
X95310476Y-88357142D01*
%TO.C,J1*%
X85766666Y-102957380D02*
X85766666Y-103671666D01*
X85719047Y-103814523D01*
X85623809Y-103909761D01*
X85480952Y-103957380D01*
X85385714Y-103957380D01*
X86766666Y-103957380D02*
X86195238Y-103957380D01*
X86480952Y-103957380D02*
X86480952Y-102957380D01*
X86385714Y-103100238D01*
X86290476Y-103195476D01*
X86195238Y-103243095D01*
%TO.C,U1*%
X93238095Y-61452380D02*
X93238095Y-62261904D01*
X93285714Y-62357142D01*
X93333333Y-62404761D01*
X93428571Y-62452380D01*
X93619047Y-62452380D01*
X93714285Y-62404761D01*
X93761904Y-62357142D01*
X93809523Y-62261904D01*
X93809523Y-61452380D01*
X94809523Y-62452380D02*
X94238095Y-62452380D01*
X94523809Y-62452380D02*
X94523809Y-61452380D01*
X94428571Y-61595238D01*
X94333333Y-61690476D01*
X94238095Y-61738095D01*
%TO.C,R11*%
X106622380Y-99742857D02*
X106146190Y-100076190D01*
X106622380Y-100314285D02*
X105622380Y-100314285D01*
X105622380Y-99933333D01*
X105670000Y-99838095D01*
X105717619Y-99790476D01*
X105812857Y-99742857D01*
X105955714Y-99742857D01*
X106050952Y-99790476D01*
X106098571Y-99838095D01*
X106146190Y-99933333D01*
X106146190Y-100314285D01*
X106622380Y-98790476D02*
X106622380Y-99361904D01*
X106622380Y-99076190D02*
X105622380Y-99076190D01*
X105765238Y-99171428D01*
X105860476Y-99266666D01*
X105908095Y-99361904D01*
X106622380Y-97838095D02*
X106622380Y-98409523D01*
X106622380Y-98123809D02*
X105622380Y-98123809D01*
X105765238Y-98219047D01*
X105860476Y-98314285D01*
X105908095Y-98409523D01*
%TO.C,R10*%
X94477142Y-101452380D02*
X94143809Y-100976190D01*
X93905714Y-101452380D02*
X93905714Y-100452380D01*
X94286666Y-100452380D01*
X94381904Y-100500000D01*
X94429523Y-100547619D01*
X94477142Y-100642857D01*
X94477142Y-100785714D01*
X94429523Y-100880952D01*
X94381904Y-100928571D01*
X94286666Y-100976190D01*
X93905714Y-100976190D01*
X95429523Y-101452380D02*
X94858095Y-101452380D01*
X95143809Y-101452380D02*
X95143809Y-100452380D01*
X95048571Y-100595238D01*
X94953333Y-100690476D01*
X94858095Y-100738095D01*
X96048571Y-100452380D02*
X96143809Y-100452380D01*
X96239047Y-100500000D01*
X96286666Y-100547619D01*
X96334285Y-100642857D01*
X96381904Y-100833333D01*
X96381904Y-101071428D01*
X96334285Y-101261904D01*
X96286666Y-101357142D01*
X96239047Y-101404761D01*
X96143809Y-101452380D01*
X96048571Y-101452380D01*
X95953333Y-101404761D01*
X95905714Y-101357142D01*
X95858095Y-101261904D01*
X95810476Y-101071428D01*
X95810476Y-100833333D01*
X95858095Y-100642857D01*
X95905714Y-100547619D01*
X95953333Y-100500000D01*
X96048571Y-100452380D01*
%TO.C,R9*%
X111443333Y-100282380D02*
X111110000Y-99806190D01*
X110871904Y-100282380D02*
X110871904Y-99282380D01*
X111252857Y-99282380D01*
X111348095Y-99330000D01*
X111395714Y-99377619D01*
X111443333Y-99472857D01*
X111443333Y-99615714D01*
X111395714Y-99710952D01*
X111348095Y-99758571D01*
X111252857Y-99806190D01*
X110871904Y-99806190D01*
X111919523Y-100282380D02*
X112110000Y-100282380D01*
X112205238Y-100234761D01*
X112252857Y-100187142D01*
X112348095Y-100044285D01*
X112395714Y-99853809D01*
X112395714Y-99472857D01*
X112348095Y-99377619D01*
X112300476Y-99330000D01*
X112205238Y-99282380D01*
X112014761Y-99282380D01*
X111919523Y-99330000D01*
X111871904Y-99377619D01*
X111824285Y-99472857D01*
X111824285Y-99710952D01*
X111871904Y-99806190D01*
X111919523Y-99853809D01*
X112014761Y-99901428D01*
X112205238Y-99901428D01*
X112300476Y-99853809D01*
X112348095Y-99806190D01*
X112395714Y-99710952D01*
%TO.C,R8*%
X109452380Y-89366666D02*
X108976190Y-89700000D01*
X109452380Y-89938095D02*
X108452380Y-89938095D01*
X108452380Y-89557142D01*
X108500000Y-89461904D01*
X108547619Y-89414285D01*
X108642857Y-89366666D01*
X108785714Y-89366666D01*
X108880952Y-89414285D01*
X108928571Y-89461904D01*
X108976190Y-89557142D01*
X108976190Y-89938095D01*
X108880952Y-88795238D02*
X108833333Y-88890476D01*
X108785714Y-88938095D01*
X108690476Y-88985714D01*
X108642857Y-88985714D01*
X108547619Y-88938095D01*
X108500000Y-88890476D01*
X108452380Y-88795238D01*
X108452380Y-88604761D01*
X108500000Y-88509523D01*
X108547619Y-88461904D01*
X108642857Y-88414285D01*
X108690476Y-88414285D01*
X108785714Y-88461904D01*
X108833333Y-88509523D01*
X108880952Y-88604761D01*
X108880952Y-88795238D01*
X108928571Y-88890476D01*
X108976190Y-88938095D01*
X109071428Y-88985714D01*
X109261904Y-88985714D01*
X109357142Y-88938095D01*
X109404761Y-88890476D01*
X109452380Y-88795238D01*
X109452380Y-88604761D01*
X109404761Y-88509523D01*
X109357142Y-88461904D01*
X109261904Y-88414285D01*
X109071428Y-88414285D01*
X108976190Y-88461904D01*
X108928571Y-88509523D01*
X108880952Y-88604761D01*
%TO.C,R7*%
X101833333Y-75452380D02*
X101500000Y-74976190D01*
X101261904Y-75452380D02*
X101261904Y-74452380D01*
X101642857Y-74452380D01*
X101738095Y-74500000D01*
X101785714Y-74547619D01*
X101833333Y-74642857D01*
X101833333Y-74785714D01*
X101785714Y-74880952D01*
X101738095Y-74928571D01*
X101642857Y-74976190D01*
X101261904Y-74976190D01*
X102166666Y-74452380D02*
X102833333Y-74452380D01*
X102404761Y-75452380D01*
%TO.C,R6*%
X105207380Y-68976666D02*
X104731190Y-69310000D01*
X105207380Y-69548095D02*
X104207380Y-69548095D01*
X104207380Y-69167142D01*
X104255000Y-69071904D01*
X104302619Y-69024285D01*
X104397857Y-68976666D01*
X104540714Y-68976666D01*
X104635952Y-69024285D01*
X104683571Y-69071904D01*
X104731190Y-69167142D01*
X104731190Y-69548095D01*
X104207380Y-68119523D02*
X104207380Y-68310000D01*
X104255000Y-68405238D01*
X104302619Y-68452857D01*
X104445476Y-68548095D01*
X104635952Y-68595714D01*
X105016904Y-68595714D01*
X105112142Y-68548095D01*
X105159761Y-68500476D01*
X105207380Y-68405238D01*
X105207380Y-68214761D01*
X105159761Y-68119523D01*
X105112142Y-68071904D01*
X105016904Y-68024285D01*
X104778809Y-68024285D01*
X104683571Y-68071904D01*
X104635952Y-68119523D01*
X104588333Y-68214761D01*
X104588333Y-68405238D01*
X104635952Y-68500476D01*
X104683571Y-68548095D01*
X104778809Y-68595714D01*
%TO.C,R5*%
X85833333Y-63452380D02*
X85500000Y-62976190D01*
X85261904Y-63452380D02*
X85261904Y-62452380D01*
X85642857Y-62452380D01*
X85738095Y-62500000D01*
X85785714Y-62547619D01*
X85833333Y-62642857D01*
X85833333Y-62785714D01*
X85785714Y-62880952D01*
X85738095Y-62928571D01*
X85642857Y-62976190D01*
X85261904Y-62976190D01*
X86738095Y-62452380D02*
X86261904Y-62452380D01*
X86214285Y-62928571D01*
X86261904Y-62880952D01*
X86357142Y-62833333D01*
X86595238Y-62833333D01*
X86690476Y-62880952D01*
X86738095Y-62928571D01*
X86785714Y-63023809D01*
X86785714Y-63261904D01*
X86738095Y-63357142D01*
X86690476Y-63404761D01*
X86595238Y-63452380D01*
X86357142Y-63452380D01*
X86261904Y-63404761D01*
X86214285Y-63357142D01*
%TO.C,R4*%
X97833333Y-76452380D02*
X97500000Y-75976190D01*
X97261904Y-76452380D02*
X97261904Y-75452380D01*
X97642857Y-75452380D01*
X97738095Y-75500000D01*
X97785714Y-75547619D01*
X97833333Y-75642857D01*
X97833333Y-75785714D01*
X97785714Y-75880952D01*
X97738095Y-75928571D01*
X97642857Y-75976190D01*
X97261904Y-75976190D01*
X98690476Y-75785714D02*
X98690476Y-76452380D01*
X98452380Y-75404761D02*
X98214285Y-76119047D01*
X98833333Y-76119047D01*
%TO.C,R2*%
X117452380Y-65166666D02*
X116976190Y-65500000D01*
X117452380Y-65738095D02*
X116452380Y-65738095D01*
X116452380Y-65357142D01*
X116500000Y-65261904D01*
X116547619Y-65214285D01*
X116642857Y-65166666D01*
X116785714Y-65166666D01*
X116880952Y-65214285D01*
X116928571Y-65261904D01*
X116976190Y-65357142D01*
X116976190Y-65738095D01*
X116547619Y-64785714D02*
X116500000Y-64738095D01*
X116452380Y-64642857D01*
X116452380Y-64404761D01*
X116500000Y-64309523D01*
X116547619Y-64261904D01*
X116642857Y-64214285D01*
X116738095Y-64214285D01*
X116880952Y-64261904D01*
X117452380Y-64833333D01*
X117452380Y-64214285D01*
%TO.C,R1*%
X117452380Y-68166666D02*
X116976190Y-68500000D01*
X117452380Y-68738095D02*
X116452380Y-68738095D01*
X116452380Y-68357142D01*
X116500000Y-68261904D01*
X116547619Y-68214285D01*
X116642857Y-68166666D01*
X116785714Y-68166666D01*
X116880952Y-68214285D01*
X116928571Y-68261904D01*
X116976190Y-68357142D01*
X116976190Y-68738095D01*
X117452380Y-67214285D02*
X117452380Y-67785714D01*
X117452380Y-67500000D02*
X116452380Y-67500000D01*
X116595238Y-67595238D01*
X116690476Y-67690476D01*
X116738095Y-67785714D01*
%TO.C,D1*%
X104452380Y-89838095D02*
X103452380Y-89838095D01*
X103452380Y-89600000D01*
X103500000Y-89457142D01*
X103595238Y-89361904D01*
X103690476Y-89314285D01*
X103880952Y-89266666D01*
X104023809Y-89266666D01*
X104214285Y-89314285D01*
X104309523Y-89361904D01*
X104404761Y-89457142D01*
X104452380Y-89600000D01*
X104452380Y-89838095D01*
X104452380Y-88314285D02*
X104452380Y-88885714D01*
X104452380Y-88600000D02*
X103452380Y-88600000D01*
X103595238Y-88695238D01*
X103690476Y-88790476D01*
X103738095Y-88885714D01*
X105352380Y-93171904D02*
X104352380Y-93171904D01*
X105352380Y-92600476D02*
X104780952Y-93029047D01*
X104352380Y-92600476D02*
X104923809Y-93171904D01*
%TO.C,C4*%
X111673333Y-95357142D02*
X111625714Y-95404761D01*
X111482857Y-95452380D01*
X111387619Y-95452380D01*
X111244761Y-95404761D01*
X111149523Y-95309523D01*
X111101904Y-95214285D01*
X111054285Y-95023809D01*
X111054285Y-94880952D01*
X111101904Y-94690476D01*
X111149523Y-94595238D01*
X111244761Y-94500000D01*
X111387619Y-94452380D01*
X111482857Y-94452380D01*
X111625714Y-94500000D01*
X111673333Y-94547619D01*
X112530476Y-94785714D02*
X112530476Y-95452380D01*
X112292380Y-94404761D02*
X112054285Y-95119047D01*
X112673333Y-95119047D01*
%TO.C,C3*%
X117357142Y-89366666D02*
X117404761Y-89414285D01*
X117452380Y-89557142D01*
X117452380Y-89652380D01*
X117404761Y-89795238D01*
X117309523Y-89890476D01*
X117214285Y-89938095D01*
X117023809Y-89985714D01*
X116880952Y-89985714D01*
X116690476Y-89938095D01*
X116595238Y-89890476D01*
X116500000Y-89795238D01*
X116452380Y-89652380D01*
X116452380Y-89557142D01*
X116500000Y-89414285D01*
X116547619Y-89366666D01*
X116452380Y-89033333D02*
X116452380Y-88414285D01*
X116833333Y-88747619D01*
X116833333Y-88604761D01*
X116880952Y-88509523D01*
X116928571Y-88461904D01*
X117023809Y-88414285D01*
X117261904Y-88414285D01*
X117357142Y-88461904D01*
X117404761Y-88509523D01*
X117452380Y-88604761D01*
X117452380Y-88890476D01*
X117404761Y-88985714D01*
X117357142Y-89033333D01*
%TO.C,C2*%
X89833333Y-77167142D02*
X89785714Y-77214761D01*
X89642857Y-77262380D01*
X89547619Y-77262380D01*
X89404761Y-77214761D01*
X89309523Y-77119523D01*
X89261904Y-77024285D01*
X89214285Y-76833809D01*
X89214285Y-76690952D01*
X89261904Y-76500476D01*
X89309523Y-76405238D01*
X89404761Y-76310000D01*
X89547619Y-76262380D01*
X89642857Y-76262380D01*
X89785714Y-76310000D01*
X89833333Y-76357619D01*
X90214285Y-76357619D02*
X90261904Y-76310000D01*
X90357142Y-76262380D01*
X90595238Y-76262380D01*
X90690476Y-76310000D01*
X90738095Y-76357619D01*
X90785714Y-76452857D01*
X90785714Y-76548095D01*
X90738095Y-76690952D01*
X90166666Y-77262380D01*
X90785714Y-77262380D01*
%TO.C,C1*%
X93833333Y-77357142D02*
X93785714Y-77404761D01*
X93642857Y-77452380D01*
X93547619Y-77452380D01*
X93404761Y-77404761D01*
X93309523Y-77309523D01*
X93261904Y-77214285D01*
X93214285Y-77023809D01*
X93214285Y-76880952D01*
X93261904Y-76690476D01*
X93309523Y-76595238D01*
X93404761Y-76500000D01*
X93547619Y-76452380D01*
X93642857Y-76452380D01*
X93785714Y-76500000D01*
X93833333Y-76547619D01*
X94785714Y-77452380D02*
X94214285Y-77452380D01*
X94500000Y-77452380D02*
X94500000Y-76452380D01*
X94404761Y-76595238D01*
X94309523Y-76690476D01*
X94214285Y-76738095D01*
D11*
%TO.C,R3*%
X84630000Y-78430000D02*
X84960000Y-78430000D01*
X84960000Y-84970000D02*
X84630000Y-84970000D01*
X87040000Y-84970000D02*
X87370000Y-84970000D01*
X87370000Y-84970000D02*
X87370000Y-78430000D01*
X84630000Y-84970000D02*
X84630000Y-78430000D01*
X87370000Y-78430000D02*
X87040000Y-78430000D01*
%TO.C,U2*%
X116330000Y-75880000D02*
X116330000Y-73645000D01*
X116330000Y-73645000D02*
X106050000Y-73645000D01*
X106050000Y-80115000D02*
X116330000Y-80115000D01*
X116330000Y-80115000D02*
X116330000Y-77880000D01*
X106050000Y-73645000D02*
X106050000Y-80115000D01*
X116330000Y-75880000D02*
G75*
G03*
X116330000Y-77880000I0J-1000000D01*
G01*
%TO.C,U3*%
X96120000Y-99630000D02*
X98355000Y-99630000D01*
X98355000Y-99630000D02*
X98355000Y-89350000D01*
X91885000Y-89350000D02*
X91885000Y-99630000D01*
X91885000Y-99630000D02*
X94120000Y-99630000D01*
X98355000Y-89350000D02*
X91885000Y-89350000D01*
X96120000Y-99630000D02*
G75*
G03*
X94120000Y-99630000I-1000000J0D01*
G01*
%TO.C,J1*%
X87430000Y-101175000D02*
X87430000Y-102505000D01*
X87430000Y-99905000D02*
X84770000Y-99905000D01*
X87430000Y-89685000D02*
X84770000Y-89685000D01*
X87430000Y-99905000D02*
X87430000Y-89685000D01*
X87430000Y-102505000D02*
X86100000Y-102505000D01*
X84770000Y-99905000D02*
X84770000Y-89685000D01*
%TO.C,U1*%
X88755000Y-70030000D02*
G75*
G03*
X88755000Y-68030000I0J1000000D01*
G01*
X99035000Y-72265000D02*
X99035000Y-65795000D01*
X88755000Y-65795000D02*
X88755000Y-68030000D01*
X99035000Y-65795000D02*
X88755000Y-65795000D01*
X88755000Y-72265000D02*
X99035000Y-72265000D01*
X88755000Y-70030000D02*
X88755000Y-72265000D01*
%TO.C,R11*%
X105170000Y-102370000D02*
X104840000Y-102370000D01*
X104840000Y-95830000D02*
X105170000Y-95830000D01*
X102760000Y-95830000D02*
X102430000Y-95830000D01*
X102430000Y-95830000D02*
X102430000Y-102370000D01*
X105170000Y-95830000D02*
X105170000Y-102370000D01*
X102430000Y-102370000D02*
X102760000Y-102370000D01*
%TO.C,R10*%
X98470000Y-101630000D02*
X98470000Y-101960000D01*
X91930000Y-101960000D02*
X91930000Y-101630000D01*
X91930000Y-104040000D02*
X91930000Y-104370000D01*
X91930000Y-104370000D02*
X98470000Y-104370000D01*
X91930000Y-101630000D02*
X98470000Y-101630000D01*
X98470000Y-104370000D02*
X98470000Y-104040000D01*
%TO.C,R9*%
X114880000Y-100830000D02*
X114880000Y-101160000D01*
X108340000Y-101160000D02*
X108340000Y-100830000D01*
X108340000Y-103240000D02*
X108340000Y-103570000D01*
X108340000Y-103570000D02*
X114880000Y-103570000D01*
X108340000Y-100830000D02*
X114880000Y-100830000D01*
X114880000Y-103570000D02*
X114880000Y-103240000D01*
%TO.C,R8*%
X112170000Y-85930000D02*
X111840000Y-85930000D01*
X109430000Y-92470000D02*
X109430000Y-85930000D01*
X112170000Y-92470000D02*
X112170000Y-85930000D01*
X111840000Y-92470000D02*
X112170000Y-92470000D01*
X109760000Y-92470000D02*
X109430000Y-92470000D01*
X109430000Y-85930000D02*
X109760000Y-85930000D01*
%TO.C,R7*%
X101015000Y-83880000D02*
X101345000Y-83880000D01*
X103755000Y-77340000D02*
X103755000Y-83880000D01*
X101015000Y-77340000D02*
X101015000Y-83880000D01*
X101345000Y-77340000D02*
X101015000Y-77340000D01*
X103425000Y-77340000D02*
X103755000Y-77340000D01*
X103755000Y-83880000D02*
X103425000Y-83880000D01*
%TO.C,R6*%
X103755000Y-72080000D02*
X103425000Y-72080000D01*
X103425000Y-65540000D02*
X103755000Y-65540000D01*
X101345000Y-65540000D02*
X101015000Y-65540000D01*
X101015000Y-65540000D02*
X101015000Y-72080000D01*
X103755000Y-65540000D02*
X103755000Y-72080000D01*
X101015000Y-72080000D02*
X101345000Y-72080000D01*
%TO.C,R5*%
X87355000Y-65540000D02*
X87025000Y-65540000D01*
X84615000Y-72080000D02*
X84615000Y-65540000D01*
X87355000Y-72080000D02*
X87355000Y-65540000D01*
X87025000Y-72080000D02*
X87355000Y-72080000D01*
X84945000Y-72080000D02*
X84615000Y-72080000D01*
X84615000Y-65540000D02*
X84945000Y-65540000D01*
%TO.C,R4*%
X96515000Y-85270000D02*
X96845000Y-85270000D01*
X99255000Y-78730000D02*
X99255000Y-85270000D01*
X96515000Y-78730000D02*
X96515000Y-85270000D01*
X96845000Y-78730000D02*
X96515000Y-78730000D01*
X98925000Y-78730000D02*
X99255000Y-78730000D01*
X99255000Y-85270000D02*
X98925000Y-85270000D01*
%TO.C,R2*%
X114780000Y-63430000D02*
X114780000Y-63760000D01*
X108240000Y-63760000D02*
X108240000Y-63430000D01*
X108240000Y-65840000D02*
X108240000Y-66170000D01*
X108240000Y-66170000D02*
X114780000Y-66170000D01*
X108240000Y-63430000D02*
X114780000Y-63430000D01*
X114780000Y-66170000D02*
X114780000Y-65840000D01*
%TO.C,R1*%
X108230000Y-66930000D02*
X108230000Y-67260000D01*
X114770000Y-69670000D02*
X108230000Y-69670000D01*
X114770000Y-66930000D02*
X108230000Y-66930000D01*
X114770000Y-67260000D02*
X114770000Y-66930000D01*
X114770000Y-69340000D02*
X114770000Y-69670000D01*
X108230000Y-69670000D02*
X108230000Y-69340000D01*
%TO.C,D1*%
X105580000Y-86980000D02*
X105580000Y-91220000D01*
X105580000Y-90500000D02*
X107820000Y-90500000D01*
X105580000Y-90620000D02*
X107820000Y-90620000D01*
X107820000Y-86980000D02*
X105580000Y-86980000D01*
X105580000Y-90380000D02*
X107820000Y-90380000D01*
X106700000Y-91870000D02*
X106700000Y-91220000D01*
X105580000Y-91220000D02*
X107820000Y-91220000D01*
X107820000Y-91220000D02*
X107820000Y-86980000D01*
X106700000Y-86330000D02*
X106700000Y-86980000D01*
%TO.C,C4*%
X115620000Y-98370000D02*
X115620000Y-95630000D01*
X115620000Y-95630000D02*
X108380000Y-95630000D01*
X115620000Y-98370000D02*
X108380000Y-98370000D01*
X108380000Y-98370000D02*
X108380000Y-95630000D01*
%TO.C,C3*%
X113730000Y-92820000D02*
X116470000Y-92820000D01*
X116470000Y-92820000D02*
X116470000Y-85580000D01*
X113730000Y-92820000D02*
X113730000Y-85580000D01*
X113730000Y-85580000D02*
X116470000Y-85580000D01*
%TO.C,C2*%
X89015000Y-84830000D02*
X91755000Y-84830000D01*
X91755000Y-84830000D02*
X91755000Y-77590000D01*
X89015000Y-84830000D02*
X89015000Y-77590000D01*
X89015000Y-77590000D02*
X91755000Y-77590000D01*
%TO.C,C1*%
X92715000Y-77690000D02*
X95455000Y-77690000D01*
X92715000Y-84930000D02*
X92715000Y-77690000D01*
X95455000Y-84930000D02*
X95455000Y-77690000D01*
X92715000Y-84930000D02*
X95455000Y-84930000D01*
%TD*%
M02*
