%TF.GenerationSoftware,KiCad,Pcbnew,(6.0.5-0)*%
%TF.CreationDate,2022-06-21T19:00:10+05:30*%
%TF.ProjectId,AM_Receiver_PCB,414d5f52-6563-4656-9976-65725f504342,rev?*%
%TF.SameCoordinates,Original*%
%TF.FileFunction,Copper,L2,Bot*%
%TF.FilePolarity,Positive*%
%FSLAX46Y46*%
G04 Gerber Fmt 4.6, Leading zero omitted, Abs format (unit mm)*
G04 Created by KiCad (PCBNEW (6.0.5-0)) date 2022-06-21 19:00:10*
%MOMM*%
%LPD*%
G01*
G04 APERTURE LIST*
%TA.AperFunction,ComponentPad*%
%ADD10O,1.600000X1.600000*%
%TD*%
%TA.AperFunction,ComponentPad*%
%ADD11C,1.600000*%
%TD*%
%TA.AperFunction,ComponentPad*%
%ADD12R,1.600000X1.600000*%
%TD*%
%TA.AperFunction,ComponentPad*%
%ADD13O,1.700000X1.700000*%
%TD*%
%TA.AperFunction,ComponentPad*%
%ADD14R,1.700000X1.700000*%
%TD*%
%TA.AperFunction,ViaPad*%
%ADD15C,0.800000*%
%TD*%
%TA.AperFunction,Conductor*%
%ADD16C,0.250000*%
%TD*%
G04 APERTURE END LIST*
D10*
%TO.P,R3,2*%
%TO.N,Net-(C1-Pad2)*%
X86000000Y-77890000D03*
D11*
%TO.P,R3,1*%
%TO.N,V_in*%
X86000000Y-85510000D03*
%TD*%
D12*
%TO.P,U2,1,NULL*%
%TO.N,unconnected-(U2-Pad1)*%
X115000000Y-71800000D03*
D10*
%TO.P,U2,2,-*%
%TO.N,Net-(R1-Pad2)*%
X112460000Y-71800000D03*
%TO.P,U2,3,+*%
%TO.N,Net-(R5-Pad2)*%
X109920000Y-71800000D03*
%TO.P,U2,4,V-*%
%TO.N,-5V*%
X107380000Y-71800000D03*
%TO.P,U2,5,NULL*%
%TO.N,unconnected-(U2-Pad5)*%
X107380000Y-81960000D03*
%TO.P,U2,6*%
%TO.N,Net-(R1-Pad1)*%
X109920000Y-81960000D03*
%TO.P,U2,7,V+*%
%TO.N,+5V*%
X112460000Y-81960000D03*
%TO.P,U2,8,NC*%
%TO.N,unconnected-(U2-Pad8)*%
X115000000Y-81960000D03*
%TD*%
D12*
%TO.P,U3,1,NULL*%
%TO.N,unconnected-(U3-Pad1)*%
X100200000Y-98300000D03*
D10*
%TO.P,U3,2,-*%
%TO.N,Net-(R10-Pad2)*%
X100200000Y-95760000D03*
%TO.P,U3,3,+*%
%TO.N,Net-(C4-Pad2)*%
X100200000Y-93220000D03*
%TO.P,U3,4,V-*%
%TO.N,-5V*%
X100200000Y-90680000D03*
%TO.P,U3,5,NULL*%
%TO.N,unconnected-(U3-Pad5)*%
X90040000Y-90680000D03*
%TO.P,U3,6*%
%TO.N,V_out*%
X90040000Y-93220000D03*
%TO.P,U3,7,V+*%
%TO.N,+5V*%
X90040000Y-95760000D03*
%TO.P,U3,8,NC*%
%TO.N,unconnected-(U3-Pad8)*%
X90040000Y-98300000D03*
%TD*%
D13*
%TO.P,J1,5,Pin_5*%
%TO.N,V_out*%
X86100000Y-91015000D03*
%TO.P,J1,4,Pin_4*%
%TO.N,V_in*%
X86100000Y-93555000D03*
%TO.P,J1,3,Pin_3*%
%TO.N,GND*%
X86100000Y-96095000D03*
%TO.P,J1,2,Pin_2*%
%TO.N,-5V*%
X86100000Y-98635000D03*
D14*
%TO.P,J1,1,Pin_1*%
%TO.N,+5V*%
X86100000Y-101175000D03*
%TD*%
D10*
%TO.P,U1,8,NC*%
%TO.N,unconnected-(U1-Pad8)*%
X90085000Y-63950000D03*
%TO.P,U1,7,V+*%
%TO.N,+5V*%
X92625000Y-63950000D03*
%TO.P,U1,6*%
%TO.N,Net-(R5-Pad2)*%
X95165000Y-63950000D03*
%TO.P,U1,5,NULL*%
%TO.N,unconnected-(U1-Pad5)*%
X97705000Y-63950000D03*
%TO.P,U1,4,V-*%
%TO.N,-5V*%
X97705000Y-74110000D03*
%TO.P,U1,3,+*%
%TO.N,Net-(C2-Pad2)*%
X95165000Y-74110000D03*
%TO.P,U1,2,-*%
%TO.N,Net-(R6-Pad2)*%
X92625000Y-74110000D03*
D12*
%TO.P,U1,1,NULL*%
%TO.N,unconnected-(U1-Pad1)*%
X90085000Y-74110000D03*
%TD*%
D10*
%TO.P,R11,2*%
%TO.N,GND*%
X103800000Y-102910000D03*
D11*
%TO.P,R11,1*%
%TO.N,Net-(R10-Pad2)*%
X103800000Y-95290000D03*
%TD*%
D10*
%TO.P,R10,2*%
%TO.N,Net-(R10-Pad2)*%
X99010000Y-103000000D03*
D11*
%TO.P,R10,1*%
%TO.N,V_out*%
X91390000Y-103000000D03*
%TD*%
D10*
%TO.P,R9,2*%
%TO.N,GND*%
X115420000Y-102200000D03*
D11*
%TO.P,R9,1*%
%TO.N,Net-(C4-Pad2)*%
X107800000Y-102200000D03*
%TD*%
%TO.P,R8,1*%
%TO.N,Net-(C3-Pad1)*%
X110800000Y-93010000D03*
D10*
%TO.P,R8,2*%
%TO.N,GND*%
X110800000Y-85390000D03*
%TD*%
D11*
%TO.P,R7,1*%
%TO.N,Net-(R6-Pad2)*%
X102385000Y-76800000D03*
D10*
%TO.P,R7,2*%
%TO.N,GND*%
X102385000Y-84420000D03*
%TD*%
%TO.P,R6,2*%
%TO.N,Net-(R6-Pad2)*%
X102385000Y-72620000D03*
D11*
%TO.P,R6,1*%
%TO.N,Net-(R5-Pad2)*%
X102385000Y-65000000D03*
%TD*%
%TO.P,R5,1*%
%TO.N,Net-(C1-Pad2)*%
X85985000Y-72620000D03*
D10*
%TO.P,R5,2*%
%TO.N,Net-(R5-Pad2)*%
X85985000Y-65000000D03*
%TD*%
D11*
%TO.P,R4,1*%
%TO.N,Net-(C2-Pad2)*%
X97885000Y-78190000D03*
D10*
%TO.P,R4,2*%
%TO.N,GND*%
X97885000Y-85810000D03*
%TD*%
%TO.P,R2,2*%
%TO.N,GND*%
X115320000Y-64800000D03*
D11*
%TO.P,R2,1*%
%TO.N,Net-(R1-Pad2)*%
X107700000Y-64800000D03*
%TD*%
%TO.P,R1,1*%
%TO.N,Net-(R1-Pad1)*%
X115310000Y-68300000D03*
D10*
%TO.P,R1,2*%
%TO.N,Net-(R1-Pad2)*%
X107690000Y-68300000D03*
%TD*%
D12*
%TO.P,D1,1,K*%
%TO.N,Net-(C3-Pad1)*%
X106700000Y-92910000D03*
D10*
%TO.P,D1,2,A*%
%TO.N,Net-(R1-Pad1)*%
X106700000Y-85290000D03*
%TD*%
D11*
%TO.P,C4,1*%
%TO.N,Net-(C3-Pad1)*%
X114500000Y-97000000D03*
%TO.P,C4,2*%
%TO.N,Net-(C4-Pad2)*%
X109500000Y-97000000D03*
%TD*%
%TO.P,C3,1*%
%TO.N,Net-(C3-Pad1)*%
X115100000Y-91700000D03*
%TO.P,C3,2*%
%TO.N,GND*%
X115100000Y-86700000D03*
%TD*%
%TO.P,C2,1*%
%TO.N,Net-(C1-Pad2)*%
X90385000Y-83710000D03*
%TO.P,C2,2*%
%TO.N,Net-(C2-Pad2)*%
X90385000Y-78710000D03*
%TD*%
%TO.P,C1,2*%
%TO.N,Net-(C1-Pad2)*%
X94085000Y-78810000D03*
%TO.P,C1,1*%
%TO.N,GND*%
X94085000Y-83810000D03*
%TD*%
D15*
%TO.N,-5V*%
X100200000Y-85500000D03*
X90665500Y-100300000D03*
X88900000Y-99900000D03*
%TD*%
D16*
%TO.N,Net-(C4-Pad2)*%
X109500000Y-97000000D02*
X108000000Y-97000000D01*
X108000000Y-97000000D02*
X107800000Y-97200000D01*
%TO.N,Net-(C3-Pad1)*%
X114500000Y-93500000D02*
X114000000Y-93000000D01*
X114500000Y-97000000D02*
X114500000Y-93500000D01*
%TO.N,Net-(C2-Pad2)*%
X97885000Y-78190000D02*
X97885000Y-76830000D01*
X97885000Y-76830000D02*
X95165000Y-74110000D01*
%TO.N,-5V*%
X100200000Y-90680000D02*
X100200000Y-85500000D01*
X90265500Y-99900000D02*
X90665500Y-100300000D01*
X88900000Y-99900000D02*
X90265500Y-99900000D01*
%TO.N,Net-(C4-Pad2)*%
X107800000Y-102200000D02*
X107800000Y-97200000D01*
X107800000Y-97200000D02*
X107600000Y-97000000D01*
%TO.N,Net-(C1-Pad2)*%
X86000000Y-77890000D02*
X86000000Y-79325000D01*
X86000000Y-79325000D02*
X90385000Y-83710000D01*
X85985000Y-72620000D02*
X85985000Y-77875000D01*
X85985000Y-77875000D02*
X86000000Y-77890000D01*
%TO.N,V_in*%
X86100000Y-93555000D02*
X84925489Y-92380489D01*
X84925489Y-92380489D02*
X84925489Y-86374511D01*
X84925489Y-86374511D02*
X85800000Y-85500000D01*
%TO.N,Net-(C4-Pad2)*%
X107600000Y-97000000D02*
X103820000Y-93220000D01*
X103820000Y-93220000D02*
X100200000Y-93220000D01*
%TO.N,GND*%
X104110000Y-102600000D02*
X103800000Y-102910000D01*
%TO.N,Net-(C3-Pad1)*%
X110800000Y-93010000D02*
X113790000Y-93010000D01*
X113790000Y-93010000D02*
X115100000Y-91700000D01*
X106700000Y-92910000D02*
X110700000Y-92910000D01*
X110700000Y-92910000D02*
X110800000Y-93010000D01*
%TO.N,Net-(R1-Pad1)*%
X106700000Y-85290000D02*
X109920000Y-82070000D01*
X109920000Y-82070000D02*
X109920000Y-81960000D01*
X115310000Y-68300000D02*
X113584511Y-70025489D01*
X113584511Y-70025489D02*
X113584511Y-78295489D01*
X113584511Y-78295489D02*
X109920000Y-81960000D01*
%TO.N,Net-(R1-Pad2)*%
X107700000Y-64800000D02*
X107700000Y-68290000D01*
X107700000Y-68290000D02*
X107690000Y-68300000D01*
X107690000Y-68300000D02*
X108960000Y-68300000D01*
X108960000Y-68300000D02*
X112460000Y-71800000D01*
%TO.N,Net-(R5-Pad2)*%
X102385000Y-65000000D02*
X109185000Y-71800000D01*
X109185000Y-71800000D02*
X109920000Y-71800000D01*
%TO.N,Net-(R10-Pad2)*%
X100200000Y-95760000D02*
X103330000Y-95760000D01*
X103330000Y-95760000D02*
X103800000Y-95290000D01*
X99010000Y-102200000D02*
X99010000Y-96950000D01*
X99010000Y-96950000D02*
X100200000Y-95760000D01*
%TO.N,V_out*%
X90040000Y-93220000D02*
X88305000Y-93220000D01*
X88305000Y-93220000D02*
X86100000Y-91015000D01*
X91390000Y-102200000D02*
X91390000Y-94570000D01*
X91390000Y-94570000D02*
X90040000Y-93220000D01*
%TO.N,Net-(C2-Pad2)*%
X97885000Y-76900000D02*
X95165000Y-74180000D01*
X95165000Y-74180000D02*
X95165000Y-74110000D01*
X90385000Y-78710000D02*
X94985000Y-74110000D01*
X94985000Y-74110000D02*
X95165000Y-74110000D01*
%TO.N,Net-(C1-Pad2)*%
X94085000Y-78810000D02*
X94085000Y-80010000D01*
X94085000Y-80010000D02*
X90385000Y-83710000D01*
%TO.N,GND*%
X97985000Y-84420000D02*
X97885000Y-84520000D01*
%TO.N,Net-(C1-Pad2)*%
X90185000Y-83910000D02*
X90385000Y-83710000D01*
X87585000Y-80910000D02*
X90385000Y-83710000D01*
%TO.N,Net-(R6-Pad2)*%
X102385000Y-75900000D02*
X102385000Y-72620000D01*
X102385000Y-72620000D02*
X94115000Y-72620000D01*
X94115000Y-72620000D02*
X92625000Y-74110000D01*
%TO.N,Net-(R5-Pad2)*%
X102385000Y-65000000D02*
X102175000Y-65210000D01*
X102175000Y-65210000D02*
X96425000Y-65210000D01*
X96425000Y-65210000D02*
X95165000Y-63950000D01*
X85985000Y-65300000D02*
X93815000Y-65300000D01*
X93815000Y-65300000D02*
X95165000Y-63950000D01*
%TD*%
%TA.AperFunction,Conductor*%
%TO.N,GND*%
G36*
X117433621Y-61528502D02*
G01*
X117480114Y-61582158D01*
X117491500Y-61634500D01*
X117491500Y-104365500D01*
X117471498Y-104433621D01*
X117417842Y-104480114D01*
X117365500Y-104491500D01*
X99456366Y-104491500D01*
X99388245Y-104471498D01*
X99341752Y-104417842D01*
X99331648Y-104347568D01*
X99361142Y-104282988D01*
X99423755Y-104243793D01*
X99453933Y-104235707D01*
X99453935Y-104235706D01*
X99459243Y-104234284D01*
X99464225Y-104231961D01*
X99661762Y-104139849D01*
X99661767Y-104139846D01*
X99666749Y-104137523D01*
X99800412Y-104043931D01*
X99849789Y-104009357D01*
X99849792Y-104009355D01*
X99854300Y-104006198D01*
X100016198Y-103844300D01*
X100147523Y-103656749D01*
X100149846Y-103651767D01*
X100149849Y-103651762D01*
X100241961Y-103454225D01*
X100241961Y-103454224D01*
X100244284Y-103449243D01*
X100275066Y-103334366D01*
X100302119Y-103233402D01*
X100302119Y-103233400D01*
X100303543Y-103228087D01*
X100308054Y-103176522D01*
X102517273Y-103176522D01*
X102564764Y-103353761D01*
X102568510Y-103364053D01*
X102660586Y-103561511D01*
X102666069Y-103571007D01*
X102791028Y-103749467D01*
X102798084Y-103757875D01*
X102952125Y-103911916D01*
X102960533Y-103918972D01*
X103138993Y-104043931D01*
X103148489Y-104049414D01*
X103345947Y-104141490D01*
X103356239Y-104145236D01*
X103528503Y-104191394D01*
X103542599Y-104191058D01*
X103546000Y-104183116D01*
X103546000Y-104177967D01*
X104054000Y-104177967D01*
X104057973Y-104191498D01*
X104066522Y-104192727D01*
X104243761Y-104145236D01*
X104254053Y-104141490D01*
X104451511Y-104049414D01*
X104461007Y-104043931D01*
X104639467Y-103918972D01*
X104647875Y-103911916D01*
X104801916Y-103757875D01*
X104808972Y-103749467D01*
X104933931Y-103571007D01*
X104939414Y-103561511D01*
X105031490Y-103364053D01*
X105035236Y-103353761D01*
X105081394Y-103181497D01*
X105081058Y-103167401D01*
X105073116Y-103164000D01*
X104072115Y-103164000D01*
X104056876Y-103168475D01*
X104055671Y-103169865D01*
X104054000Y-103177548D01*
X104054000Y-104177967D01*
X103546000Y-104177967D01*
X103546000Y-103182115D01*
X103541525Y-103166876D01*
X103540135Y-103165671D01*
X103532452Y-103164000D01*
X102532033Y-103164000D01*
X102518502Y-103167973D01*
X102517273Y-103176522D01*
X100308054Y-103176522D01*
X100323498Y-103000000D01*
X100303543Y-102771913D01*
X100272036Y-102654329D01*
X100267795Y-102638503D01*
X102518606Y-102638503D01*
X102518942Y-102652599D01*
X102526884Y-102656000D01*
X103527885Y-102656000D01*
X103543124Y-102651525D01*
X103544329Y-102650135D01*
X103546000Y-102642452D01*
X103546000Y-102637885D01*
X104054000Y-102637885D01*
X104058475Y-102653124D01*
X104059865Y-102654329D01*
X104067548Y-102656000D01*
X105067967Y-102656000D01*
X105081498Y-102652027D01*
X105082727Y-102643478D01*
X105035236Y-102466239D01*
X105031490Y-102455947D01*
X104939414Y-102258489D01*
X104933931Y-102248993D01*
X104808972Y-102070533D01*
X104801916Y-102062125D01*
X104647875Y-101908084D01*
X104639467Y-101901028D01*
X104461007Y-101776069D01*
X104451511Y-101770586D01*
X104254053Y-101678510D01*
X104243761Y-101674764D01*
X104071497Y-101628606D01*
X104057401Y-101628942D01*
X104054000Y-101636884D01*
X104054000Y-102637885D01*
X103546000Y-102637885D01*
X103546000Y-101642033D01*
X103542027Y-101628502D01*
X103533478Y-101627273D01*
X103356239Y-101674764D01*
X103345947Y-101678510D01*
X103148489Y-101770586D01*
X103138993Y-101776069D01*
X102960533Y-101901028D01*
X102952125Y-101908084D01*
X102798084Y-102062125D01*
X102791028Y-102070533D01*
X102666069Y-102248993D01*
X102660586Y-102258489D01*
X102568510Y-102455947D01*
X102564764Y-102466239D01*
X102518606Y-102638503D01*
X100267795Y-102638503D01*
X100245707Y-102556067D01*
X100245706Y-102556065D01*
X100244284Y-102550757D01*
X100207325Y-102471497D01*
X100149849Y-102348238D01*
X100149846Y-102348233D01*
X100147523Y-102343251D01*
X100016198Y-102155700D01*
X99854300Y-101993802D01*
X99849792Y-101990645D01*
X99849789Y-101990643D01*
X99697229Y-101883819D01*
X99652901Y-101828362D01*
X99643500Y-101780606D01*
X99643500Y-99734500D01*
X99663502Y-99666379D01*
X99717158Y-99619886D01*
X99769500Y-99608500D01*
X101048134Y-99608500D01*
X101110316Y-99601745D01*
X101246705Y-99550615D01*
X101363261Y-99463261D01*
X101450615Y-99346705D01*
X101501745Y-99210316D01*
X101508500Y-99148134D01*
X101508500Y-97451866D01*
X101501745Y-97389684D01*
X101450615Y-97253295D01*
X101363261Y-97136739D01*
X101246705Y-97049385D01*
X101110316Y-96998255D01*
X101099526Y-96997083D01*
X101097394Y-96996197D01*
X101094778Y-96995575D01*
X101094879Y-96995152D01*
X101033965Y-96969845D01*
X100993537Y-96911483D01*
X100991078Y-96840529D01*
X101027371Y-96779510D01*
X101036031Y-96772511D01*
X101039793Y-96769354D01*
X101044300Y-96766198D01*
X101206198Y-96604300D01*
X101214507Y-96592434D01*
X101316181Y-96447229D01*
X101371638Y-96402901D01*
X101419394Y-96393500D01*
X103054933Y-96393500D01*
X103127203Y-96416286D01*
X103143251Y-96427523D01*
X103148233Y-96429846D01*
X103148238Y-96429849D01*
X103321182Y-96510493D01*
X103350757Y-96524284D01*
X103356065Y-96525706D01*
X103356067Y-96525707D01*
X103566598Y-96582119D01*
X103566600Y-96582119D01*
X103571913Y-96583543D01*
X103800000Y-96603498D01*
X104028087Y-96583543D01*
X104033400Y-96582119D01*
X104033402Y-96582119D01*
X104243933Y-96525707D01*
X104243935Y-96525706D01*
X104249243Y-96524284D01*
X104278818Y-96510493D01*
X104451762Y-96429849D01*
X104451767Y-96429846D01*
X104456749Y-96427523D01*
X104593408Y-96331833D01*
X104639789Y-96299357D01*
X104639792Y-96299355D01*
X104644300Y-96296198D01*
X104806198Y-96134300D01*
X104814450Y-96122516D01*
X104906788Y-95990643D01*
X104937523Y-95946749D01*
X104939846Y-95941767D01*
X104939849Y-95941762D01*
X105031961Y-95744225D01*
X105031961Y-95744224D01*
X105034284Y-95739243D01*
X105064244Y-95627431D01*
X105101194Y-95566810D01*
X105165055Y-95535789D01*
X105235550Y-95544217D01*
X105275045Y-95570949D01*
X107129595Y-97425499D01*
X107163621Y-97487811D01*
X107166500Y-97514594D01*
X107166500Y-100980606D01*
X107146498Y-101048727D01*
X107112771Y-101083819D01*
X106960211Y-101190643D01*
X106960208Y-101190645D01*
X106955700Y-101193802D01*
X106793802Y-101355700D01*
X106662477Y-101543251D01*
X106660154Y-101548233D01*
X106660151Y-101548238D01*
X106601152Y-101674764D01*
X106565716Y-101750757D01*
X106564294Y-101756065D01*
X106564293Y-101756067D01*
X106516756Y-101933478D01*
X106506457Y-101971913D01*
X106486502Y-102200000D01*
X106506457Y-102428087D01*
X106507881Y-102433400D01*
X106507881Y-102433402D01*
X106562673Y-102637885D01*
X106565716Y-102649243D01*
X106568039Y-102654224D01*
X106568039Y-102654225D01*
X106660151Y-102851762D01*
X106660154Y-102851767D01*
X106662477Y-102856749D01*
X106793802Y-103044300D01*
X106955700Y-103206198D01*
X106960208Y-103209355D01*
X106960211Y-103209357D01*
X106994551Y-103233402D01*
X107143251Y-103337523D01*
X107148233Y-103339846D01*
X107148238Y-103339849D01*
X107344765Y-103431490D01*
X107350757Y-103434284D01*
X107356065Y-103435706D01*
X107356067Y-103435707D01*
X107566598Y-103492119D01*
X107566600Y-103492119D01*
X107571913Y-103493543D01*
X107800000Y-103513498D01*
X108028087Y-103493543D01*
X108033400Y-103492119D01*
X108033402Y-103492119D01*
X108243933Y-103435707D01*
X108243935Y-103435706D01*
X108249243Y-103434284D01*
X108255235Y-103431490D01*
X108451762Y-103339849D01*
X108451767Y-103339846D01*
X108456749Y-103337523D01*
X108605449Y-103233402D01*
X108639789Y-103209357D01*
X108639792Y-103209355D01*
X108644300Y-103206198D01*
X108806198Y-103044300D01*
X108937523Y-102856749D01*
X108939846Y-102851767D01*
X108939849Y-102851762D01*
X109031961Y-102654225D01*
X109031961Y-102654224D01*
X109034284Y-102649243D01*
X109037328Y-102637885D01*
X109083245Y-102466522D01*
X114137273Y-102466522D01*
X114184764Y-102643761D01*
X114188510Y-102654053D01*
X114280586Y-102851511D01*
X114286069Y-102861007D01*
X114411028Y-103039467D01*
X114418084Y-103047875D01*
X114572125Y-103201916D01*
X114580533Y-103208972D01*
X114758993Y-103333931D01*
X114768489Y-103339414D01*
X114965947Y-103431490D01*
X114976239Y-103435236D01*
X115148503Y-103481394D01*
X115162599Y-103481058D01*
X115166000Y-103473116D01*
X115166000Y-103467967D01*
X115674000Y-103467967D01*
X115677973Y-103481498D01*
X115686522Y-103482727D01*
X115863761Y-103435236D01*
X115874053Y-103431490D01*
X116071511Y-103339414D01*
X116081007Y-103333931D01*
X116259467Y-103208972D01*
X116267875Y-103201916D01*
X116421916Y-103047875D01*
X116428972Y-103039467D01*
X116553931Y-102861007D01*
X116559414Y-102851511D01*
X116651490Y-102654053D01*
X116655236Y-102643761D01*
X116701394Y-102471497D01*
X116701058Y-102457401D01*
X116693116Y-102454000D01*
X115692115Y-102454000D01*
X115676876Y-102458475D01*
X115675671Y-102459865D01*
X115674000Y-102467548D01*
X115674000Y-103467967D01*
X115166000Y-103467967D01*
X115166000Y-102472115D01*
X115161525Y-102456876D01*
X115160135Y-102455671D01*
X115152452Y-102454000D01*
X114152033Y-102454000D01*
X114138502Y-102457973D01*
X114137273Y-102466522D01*
X109083245Y-102466522D01*
X109092119Y-102433402D01*
X109092119Y-102433400D01*
X109093543Y-102428087D01*
X109113498Y-102200000D01*
X109093543Y-101971913D01*
X109083244Y-101933478D01*
X109081911Y-101928503D01*
X114138606Y-101928503D01*
X114138942Y-101942599D01*
X114146884Y-101946000D01*
X115147885Y-101946000D01*
X115163124Y-101941525D01*
X115164329Y-101940135D01*
X115166000Y-101932452D01*
X115166000Y-101927885D01*
X115674000Y-101927885D01*
X115678475Y-101943124D01*
X115679865Y-101944329D01*
X115687548Y-101946000D01*
X116687967Y-101946000D01*
X116701498Y-101942027D01*
X116702727Y-101933478D01*
X116655236Y-101756239D01*
X116651490Y-101745947D01*
X116559414Y-101548489D01*
X116553931Y-101538993D01*
X116428972Y-101360533D01*
X116421916Y-101352125D01*
X116267875Y-101198084D01*
X116259467Y-101191028D01*
X116081007Y-101066069D01*
X116071511Y-101060586D01*
X115874053Y-100968510D01*
X115863761Y-100964764D01*
X115691497Y-100918606D01*
X115677401Y-100918942D01*
X115674000Y-100926884D01*
X115674000Y-101927885D01*
X115166000Y-101927885D01*
X115166000Y-100932033D01*
X115162027Y-100918502D01*
X115153478Y-100917273D01*
X114976239Y-100964764D01*
X114965947Y-100968510D01*
X114768489Y-101060586D01*
X114758993Y-101066069D01*
X114580533Y-101191028D01*
X114572125Y-101198084D01*
X114418084Y-101352125D01*
X114411028Y-101360533D01*
X114286069Y-101538993D01*
X114280586Y-101548489D01*
X114188510Y-101745947D01*
X114184764Y-101756239D01*
X114138606Y-101928503D01*
X109081911Y-101928503D01*
X109035707Y-101756067D01*
X109035706Y-101756065D01*
X109034284Y-101750757D01*
X108998848Y-101674764D01*
X108939849Y-101548238D01*
X108939846Y-101548233D01*
X108937523Y-101543251D01*
X108806198Y-101355700D01*
X108644300Y-101193802D01*
X108639792Y-101190645D01*
X108639789Y-101190643D01*
X108487229Y-101083819D01*
X108442901Y-101028362D01*
X108433500Y-100980606D01*
X108433500Y-98088188D01*
X108453502Y-98020067D01*
X108507158Y-97973574D01*
X108577432Y-97963470D01*
X108642012Y-97992964D01*
X108648595Y-97999093D01*
X108655700Y-98006198D01*
X108660208Y-98009355D01*
X108660211Y-98009357D01*
X108675507Y-98020067D01*
X108843251Y-98137523D01*
X108848233Y-98139846D01*
X108848238Y-98139849D01*
X108978778Y-98200720D01*
X109050757Y-98234284D01*
X109056065Y-98235706D01*
X109056067Y-98235707D01*
X109266598Y-98292119D01*
X109266600Y-98292119D01*
X109271913Y-98293543D01*
X109500000Y-98313498D01*
X109728087Y-98293543D01*
X109733400Y-98292119D01*
X109733402Y-98292119D01*
X109943933Y-98235707D01*
X109943935Y-98235706D01*
X109949243Y-98234284D01*
X110021222Y-98200720D01*
X110151762Y-98139849D01*
X110151767Y-98139846D01*
X110156749Y-98137523D01*
X110324493Y-98020067D01*
X110339789Y-98009357D01*
X110339792Y-98009355D01*
X110344300Y-98006198D01*
X110506198Y-97844300D01*
X110537598Y-97799457D01*
X110634366Y-97661257D01*
X110637523Y-97656749D01*
X110639846Y-97651767D01*
X110639849Y-97651762D01*
X110731961Y-97454225D01*
X110731961Y-97454224D01*
X110734284Y-97449243D01*
X110752226Y-97382285D01*
X110792119Y-97233402D01*
X110792119Y-97233400D01*
X110793543Y-97228087D01*
X110813498Y-97000000D01*
X110793543Y-96771913D01*
X110791578Y-96764580D01*
X110735707Y-96556067D01*
X110735706Y-96556065D01*
X110734284Y-96550757D01*
X110715509Y-96510493D01*
X110639849Y-96348238D01*
X110639846Y-96348233D01*
X110637523Y-96343251D01*
X110539971Y-96203933D01*
X110509357Y-96160211D01*
X110509355Y-96160208D01*
X110506198Y-96155700D01*
X110344300Y-95993802D01*
X110339792Y-95990645D01*
X110339789Y-95990643D01*
X110187228Y-95883819D01*
X110156749Y-95862477D01*
X110151767Y-95860154D01*
X110151762Y-95860151D01*
X109954225Y-95768039D01*
X109954224Y-95768039D01*
X109949243Y-95765716D01*
X109943935Y-95764294D01*
X109943933Y-95764293D01*
X109733402Y-95707881D01*
X109733400Y-95707881D01*
X109728087Y-95706457D01*
X109500000Y-95686502D01*
X109271913Y-95706457D01*
X109266600Y-95707881D01*
X109266598Y-95707881D01*
X109056067Y-95764293D01*
X109056065Y-95764294D01*
X109050757Y-95765716D01*
X109045776Y-95768039D01*
X109045775Y-95768039D01*
X108848238Y-95860151D01*
X108848233Y-95860154D01*
X108843251Y-95862477D01*
X108812772Y-95883819D01*
X108660211Y-95990643D01*
X108660208Y-95990645D01*
X108655700Y-95993802D01*
X108493802Y-96155700D01*
X108490645Y-96160208D01*
X108490643Y-96160211D01*
X108383819Y-96312771D01*
X108328362Y-96357099D01*
X108280606Y-96366500D01*
X108078768Y-96366500D01*
X108067585Y-96365973D01*
X108060092Y-96364298D01*
X108052166Y-96364547D01*
X108052165Y-96364547D01*
X107992002Y-96366438D01*
X107988044Y-96366500D01*
X107960144Y-96366500D01*
X107956154Y-96367004D01*
X107944318Y-96367936D01*
X107920790Y-96368676D01*
X107852075Y-96350823D01*
X107827738Y-96331833D01*
X105929500Y-94433595D01*
X105895474Y-94371283D01*
X105900539Y-94300468D01*
X105943086Y-94243632D01*
X106009606Y-94218821D01*
X106018595Y-94218500D01*
X107548134Y-94218500D01*
X107610316Y-94211745D01*
X107746705Y-94160615D01*
X107863261Y-94073261D01*
X107950615Y-93956705D01*
X108001745Y-93820316D01*
X108008500Y-93758134D01*
X108008500Y-93669500D01*
X108028502Y-93601379D01*
X108082158Y-93554886D01*
X108134500Y-93543500D01*
X109524734Y-93543500D01*
X109592855Y-93563502D01*
X109638929Y-93616250D01*
X109660151Y-93661762D01*
X109660154Y-93661767D01*
X109662477Y-93666749D01*
X109711378Y-93736586D01*
X109789407Y-93848023D01*
X109793802Y-93854300D01*
X109955700Y-94016198D01*
X109960208Y-94019355D01*
X109960211Y-94019357D01*
X110026940Y-94066081D01*
X110143251Y-94147523D01*
X110148233Y-94149846D01*
X110148238Y-94149849D01*
X110345775Y-94241961D01*
X110350757Y-94244284D01*
X110356065Y-94245706D01*
X110356067Y-94245707D01*
X110566598Y-94302119D01*
X110566600Y-94302119D01*
X110571913Y-94303543D01*
X110800000Y-94323498D01*
X111028087Y-94303543D01*
X111033400Y-94302119D01*
X111033402Y-94302119D01*
X111243933Y-94245707D01*
X111243935Y-94245706D01*
X111249243Y-94244284D01*
X111254225Y-94241961D01*
X111451762Y-94149849D01*
X111451767Y-94149846D01*
X111456749Y-94147523D01*
X111573060Y-94066081D01*
X111639789Y-94019357D01*
X111639792Y-94019355D01*
X111644300Y-94016198D01*
X111806198Y-93854300D01*
X111809357Y-93849789D01*
X111916181Y-93697229D01*
X111971638Y-93652901D01*
X112019394Y-93643500D01*
X113695405Y-93643500D01*
X113763526Y-93663502D01*
X113784500Y-93680405D01*
X113829595Y-93725500D01*
X113863621Y-93787812D01*
X113866500Y-93814595D01*
X113866500Y-95780606D01*
X113846498Y-95848727D01*
X113812771Y-95883819D01*
X113660211Y-95990643D01*
X113660208Y-95990645D01*
X113655700Y-95993802D01*
X113493802Y-96155700D01*
X113490645Y-96160208D01*
X113490643Y-96160211D01*
X113460029Y-96203933D01*
X113362477Y-96343251D01*
X113360154Y-96348233D01*
X113360151Y-96348238D01*
X113284491Y-96510493D01*
X113265716Y-96550757D01*
X113264294Y-96556065D01*
X113264293Y-96556067D01*
X113208422Y-96764580D01*
X113206457Y-96771913D01*
X113186502Y-97000000D01*
X113206457Y-97228087D01*
X113207881Y-97233400D01*
X113207881Y-97233402D01*
X113247775Y-97382285D01*
X113265716Y-97449243D01*
X113268039Y-97454224D01*
X113268039Y-97454225D01*
X113360151Y-97651762D01*
X113360154Y-97651767D01*
X113362477Y-97656749D01*
X113365634Y-97661257D01*
X113462403Y-97799457D01*
X113493802Y-97844300D01*
X113655700Y-98006198D01*
X113660208Y-98009355D01*
X113660211Y-98009357D01*
X113675507Y-98020067D01*
X113843251Y-98137523D01*
X113848233Y-98139846D01*
X113848238Y-98139849D01*
X113978778Y-98200720D01*
X114050757Y-98234284D01*
X114056065Y-98235706D01*
X114056067Y-98235707D01*
X114266598Y-98292119D01*
X114266600Y-98292119D01*
X114271913Y-98293543D01*
X114500000Y-98313498D01*
X114728087Y-98293543D01*
X114733400Y-98292119D01*
X114733402Y-98292119D01*
X114943933Y-98235707D01*
X114943935Y-98235706D01*
X114949243Y-98234284D01*
X115021222Y-98200720D01*
X115151762Y-98139849D01*
X115151767Y-98139846D01*
X115156749Y-98137523D01*
X115324493Y-98020067D01*
X115339789Y-98009357D01*
X115339792Y-98009355D01*
X115344300Y-98006198D01*
X115506198Y-97844300D01*
X115537598Y-97799457D01*
X115634366Y-97661257D01*
X115637523Y-97656749D01*
X115639846Y-97651767D01*
X115639849Y-97651762D01*
X115731961Y-97454225D01*
X115731961Y-97454224D01*
X115734284Y-97449243D01*
X115752226Y-97382285D01*
X115792119Y-97233402D01*
X115792119Y-97233400D01*
X115793543Y-97228087D01*
X115813498Y-97000000D01*
X115793543Y-96771913D01*
X115791578Y-96764580D01*
X115735707Y-96556067D01*
X115735706Y-96556065D01*
X115734284Y-96550757D01*
X115715509Y-96510493D01*
X115639849Y-96348238D01*
X115639846Y-96348233D01*
X115637523Y-96343251D01*
X115539971Y-96203933D01*
X115509357Y-96160211D01*
X115509355Y-96160208D01*
X115506198Y-96155700D01*
X115344300Y-95993802D01*
X115339792Y-95990645D01*
X115339789Y-95990643D01*
X115187229Y-95883819D01*
X115142901Y-95828362D01*
X115133500Y-95780606D01*
X115133500Y-93578768D01*
X115134027Y-93567585D01*
X115135702Y-93560092D01*
X115133562Y-93492001D01*
X115133500Y-93488044D01*
X115133500Y-93460144D01*
X115132996Y-93456153D01*
X115132063Y-93444311D01*
X115132010Y-93442608D01*
X115130674Y-93400111D01*
X115128462Y-93392497D01*
X115128461Y-93392492D01*
X115125023Y-93380659D01*
X115121012Y-93361295D01*
X115119467Y-93349064D01*
X115118474Y-93341203D01*
X115115557Y-93333836D01*
X115115556Y-93333831D01*
X115102198Y-93300092D01*
X115098354Y-93288865D01*
X115088230Y-93254022D01*
X115086018Y-93246407D01*
X115075707Y-93228972D01*
X115067012Y-93211224D01*
X115059552Y-93192383D01*
X115058949Y-93191553D01*
X115044322Y-93125220D01*
X115068945Y-93058630D01*
X115125660Y-93015922D01*
X115159043Y-93008332D01*
X115213742Y-93003547D01*
X115322606Y-92994023D01*
X115322611Y-92994022D01*
X115328087Y-92993543D01*
X115333400Y-92992119D01*
X115333402Y-92992119D01*
X115543933Y-92935707D01*
X115543935Y-92935706D01*
X115549243Y-92934284D01*
X115554225Y-92931961D01*
X115751762Y-92839849D01*
X115751767Y-92839846D01*
X115756749Y-92837523D01*
X115894038Y-92741392D01*
X115939789Y-92709357D01*
X115939792Y-92709355D01*
X115944300Y-92706198D01*
X116106198Y-92544300D01*
X116115218Y-92531419D01*
X116181899Y-92436188D01*
X116237523Y-92356749D01*
X116239846Y-92351767D01*
X116239849Y-92351762D01*
X116331961Y-92154225D01*
X116331961Y-92154224D01*
X116334284Y-92149243D01*
X116372254Y-92007540D01*
X116392119Y-91933402D01*
X116392119Y-91933400D01*
X116393543Y-91928087D01*
X116413498Y-91700000D01*
X116393543Y-91471913D01*
X116376418Y-91408001D01*
X116335707Y-91256067D01*
X116335706Y-91256065D01*
X116334284Y-91250757D01*
X116279945Y-91134225D01*
X116239849Y-91048238D01*
X116239846Y-91048233D01*
X116237523Y-91043251D01*
X116164098Y-90938389D01*
X116109357Y-90860211D01*
X116109355Y-90860208D01*
X116106198Y-90855700D01*
X115944300Y-90693802D01*
X115939792Y-90690645D01*
X115939789Y-90690643D01*
X115861611Y-90635902D01*
X115756749Y-90562477D01*
X115751767Y-90560154D01*
X115751762Y-90560151D01*
X115554225Y-90468039D01*
X115554224Y-90468039D01*
X115549243Y-90465716D01*
X115543935Y-90464294D01*
X115543933Y-90464293D01*
X115333402Y-90407881D01*
X115333400Y-90407881D01*
X115328087Y-90406457D01*
X115100000Y-90386502D01*
X114871913Y-90406457D01*
X114866600Y-90407881D01*
X114866598Y-90407881D01*
X114656067Y-90464293D01*
X114656065Y-90464294D01*
X114650757Y-90465716D01*
X114645776Y-90468039D01*
X114645775Y-90468039D01*
X114448238Y-90560151D01*
X114448233Y-90560154D01*
X114443251Y-90562477D01*
X114338389Y-90635902D01*
X114260211Y-90690643D01*
X114260208Y-90690645D01*
X114255700Y-90693802D01*
X114093802Y-90855700D01*
X114090645Y-90860208D01*
X114090643Y-90860211D01*
X114035902Y-90938389D01*
X113962477Y-91043251D01*
X113960154Y-91048233D01*
X113960151Y-91048238D01*
X113920055Y-91134225D01*
X113865716Y-91250757D01*
X113864294Y-91256065D01*
X113864293Y-91256067D01*
X113823582Y-91408001D01*
X113806457Y-91471913D01*
X113786502Y-91700000D01*
X113806457Y-91928087D01*
X113807879Y-91933392D01*
X113807881Y-91933406D01*
X113823459Y-91991539D01*
X113821771Y-92062516D01*
X113790848Y-92113248D01*
X113659052Y-92245044D01*
X113564499Y-92339596D01*
X113502187Y-92373621D01*
X113475404Y-92376500D01*
X112019394Y-92376500D01*
X111951273Y-92356498D01*
X111916181Y-92322771D01*
X111809357Y-92170211D01*
X111809355Y-92170208D01*
X111806198Y-92165700D01*
X111644300Y-92003802D01*
X111639792Y-92000645D01*
X111639789Y-92000643D01*
X111536168Y-91928087D01*
X111456749Y-91872477D01*
X111451767Y-91870154D01*
X111451762Y-91870151D01*
X111254225Y-91778039D01*
X111254224Y-91778039D01*
X111249243Y-91775716D01*
X111243935Y-91774294D01*
X111243933Y-91774293D01*
X111033402Y-91717881D01*
X111033400Y-91717881D01*
X111028087Y-91716457D01*
X110800000Y-91696502D01*
X110571913Y-91716457D01*
X110566600Y-91717881D01*
X110566598Y-91717881D01*
X110356067Y-91774293D01*
X110356065Y-91774294D01*
X110350757Y-91775716D01*
X110345776Y-91778039D01*
X110345775Y-91778039D01*
X110148238Y-91870151D01*
X110148233Y-91870154D01*
X110143251Y-91872477D01*
X110063832Y-91928087D01*
X109960211Y-92000643D01*
X109960208Y-92000645D01*
X109955700Y-92003802D01*
X109793802Y-92165700D01*
X109790645Y-92170208D01*
X109790643Y-92170211D01*
X109753840Y-92222771D01*
X109698382Y-92267099D01*
X109650627Y-92276500D01*
X108134500Y-92276500D01*
X108066379Y-92256498D01*
X108019886Y-92202842D01*
X108008500Y-92150500D01*
X108008500Y-92061866D01*
X108001745Y-91999684D01*
X107950615Y-91863295D01*
X107863261Y-91746739D01*
X107746705Y-91659385D01*
X107610316Y-91608255D01*
X107548134Y-91601500D01*
X105851866Y-91601500D01*
X105789684Y-91608255D01*
X105653295Y-91659385D01*
X105536739Y-91746739D01*
X105449385Y-91863295D01*
X105398255Y-91999684D01*
X105391500Y-92061866D01*
X105391500Y-93591405D01*
X105371498Y-93659526D01*
X105317842Y-93706019D01*
X105247568Y-93716123D01*
X105182988Y-93686629D01*
X105176405Y-93680500D01*
X104323652Y-92827747D01*
X104316112Y-92819461D01*
X104312000Y-92812982D01*
X104262348Y-92766356D01*
X104259507Y-92763602D01*
X104239770Y-92743865D01*
X104236573Y-92741385D01*
X104227551Y-92733680D01*
X104217111Y-92723876D01*
X104195321Y-92703414D01*
X104188375Y-92699595D01*
X104188372Y-92699593D01*
X104177566Y-92693652D01*
X104161047Y-92682801D01*
X104158383Y-92680735D01*
X104145041Y-92670386D01*
X104137772Y-92667241D01*
X104137768Y-92667238D01*
X104104463Y-92652826D01*
X104093813Y-92647609D01*
X104055060Y-92626305D01*
X104035437Y-92621267D01*
X104016734Y-92614863D01*
X104005420Y-92609967D01*
X104005419Y-92609967D01*
X103998145Y-92606819D01*
X103990322Y-92605580D01*
X103990312Y-92605577D01*
X103954476Y-92599901D01*
X103942856Y-92597495D01*
X103907711Y-92588472D01*
X103907710Y-92588472D01*
X103900030Y-92586500D01*
X103879776Y-92586500D01*
X103860065Y-92584949D01*
X103847886Y-92583020D01*
X103840057Y-92581780D01*
X103832165Y-92582526D01*
X103796039Y-92585941D01*
X103784181Y-92586500D01*
X101419394Y-92586500D01*
X101351273Y-92566498D01*
X101316181Y-92532771D01*
X101209357Y-92380211D01*
X101209355Y-92380208D01*
X101206198Y-92375700D01*
X101044300Y-92213802D01*
X101039792Y-92210645D01*
X101039789Y-92210643D01*
X100900694Y-92113248D01*
X100856749Y-92082477D01*
X100851767Y-92080154D01*
X100851762Y-92080151D01*
X100817543Y-92064195D01*
X100764258Y-92017278D01*
X100744797Y-91949001D01*
X100765339Y-91881041D01*
X100817543Y-91835805D01*
X100851762Y-91819849D01*
X100851767Y-91819846D01*
X100856749Y-91817523D01*
X101024589Y-91700000D01*
X101039789Y-91689357D01*
X101039792Y-91689355D01*
X101044300Y-91686198D01*
X101206198Y-91524300D01*
X101246602Y-91466598D01*
X101334366Y-91341257D01*
X101337523Y-91336749D01*
X101339846Y-91331767D01*
X101339849Y-91331762D01*
X101431961Y-91134225D01*
X101431961Y-91134224D01*
X101434284Y-91129243D01*
X101455990Y-91048238D01*
X101492119Y-90913402D01*
X101492119Y-90913400D01*
X101493543Y-90908087D01*
X101513498Y-90680000D01*
X101493543Y-90451913D01*
X101481235Y-90405978D01*
X101435707Y-90236067D01*
X101435706Y-90236065D01*
X101434284Y-90230757D01*
X101410363Y-90179457D01*
X101339849Y-90028238D01*
X101339846Y-90028233D01*
X101337523Y-90023251D01*
X101236936Y-89879598D01*
X101209357Y-89840211D01*
X101209355Y-89840208D01*
X101206198Y-89835700D01*
X101044300Y-89673802D01*
X101039792Y-89670645D01*
X101039789Y-89670643D01*
X100887229Y-89563819D01*
X100842901Y-89508362D01*
X100833500Y-89460606D01*
X100833500Y-87786062D01*
X114378493Y-87786062D01*
X114387789Y-87798077D01*
X114438994Y-87833931D01*
X114448489Y-87839414D01*
X114645947Y-87931490D01*
X114656239Y-87935236D01*
X114866688Y-87991625D01*
X114877481Y-87993528D01*
X115094525Y-88012517D01*
X115105475Y-88012517D01*
X115322519Y-87993528D01*
X115333312Y-87991625D01*
X115543761Y-87935236D01*
X115554053Y-87931490D01*
X115751511Y-87839414D01*
X115761006Y-87833931D01*
X115813048Y-87797491D01*
X115821424Y-87787012D01*
X115814356Y-87773566D01*
X115112812Y-87072022D01*
X115098868Y-87064408D01*
X115097035Y-87064539D01*
X115090420Y-87068790D01*
X114384923Y-87774287D01*
X114378493Y-87786062D01*
X100833500Y-87786062D01*
X100833500Y-86705475D01*
X113787483Y-86705475D01*
X113806472Y-86922519D01*
X113808375Y-86933312D01*
X113864764Y-87143761D01*
X113868510Y-87154053D01*
X113960586Y-87351511D01*
X113966069Y-87361006D01*
X114002509Y-87413048D01*
X114012988Y-87421424D01*
X114026434Y-87414356D01*
X114727978Y-86712812D01*
X114734356Y-86701132D01*
X115464408Y-86701132D01*
X115464539Y-86702965D01*
X115468790Y-86709580D01*
X116174287Y-87415077D01*
X116186062Y-87421507D01*
X116198077Y-87412211D01*
X116233931Y-87361006D01*
X116239414Y-87351511D01*
X116331490Y-87154053D01*
X116335236Y-87143761D01*
X116391625Y-86933312D01*
X116393528Y-86922519D01*
X116412517Y-86705475D01*
X116412517Y-86694525D01*
X116393528Y-86477481D01*
X116391625Y-86466688D01*
X116335236Y-86256239D01*
X116331490Y-86245947D01*
X116239414Y-86048489D01*
X116233931Y-86038994D01*
X116197491Y-85986952D01*
X116187012Y-85978576D01*
X116173566Y-85985644D01*
X115472022Y-86687188D01*
X115464408Y-86701132D01*
X114734356Y-86701132D01*
X114735592Y-86698868D01*
X114735461Y-86697035D01*
X114731210Y-86690420D01*
X114025713Y-85984923D01*
X114013938Y-85978493D01*
X114001923Y-85987789D01*
X113966069Y-86038994D01*
X113960586Y-86048489D01*
X113868510Y-86245947D01*
X113864764Y-86256239D01*
X113808375Y-86466688D01*
X113806472Y-86477481D01*
X113787483Y-86694525D01*
X113787483Y-86705475D01*
X100833500Y-86705475D01*
X100833500Y-86202524D01*
X100853502Y-86134403D01*
X100865858Y-86118221D01*
X100939040Y-86036944D01*
X101034527Y-85871556D01*
X101093542Y-85689928D01*
X101100216Y-85626434D01*
X101112814Y-85506565D01*
X101113504Y-85500000D01*
X101093542Y-85310072D01*
X101078818Y-85264756D01*
X101076791Y-85193788D01*
X101113453Y-85132991D01*
X101177165Y-85101665D01*
X101247699Y-85109758D01*
X101301864Y-85153550D01*
X101376024Y-85259462D01*
X101383084Y-85267875D01*
X101537125Y-85421916D01*
X101545533Y-85428972D01*
X101723993Y-85553931D01*
X101733489Y-85559414D01*
X101930947Y-85651490D01*
X101941239Y-85655236D01*
X102113503Y-85701394D01*
X102127599Y-85701058D01*
X102131000Y-85693116D01*
X102131000Y-85687967D01*
X102639000Y-85687967D01*
X102642973Y-85701498D01*
X102651522Y-85702727D01*
X102828761Y-85655236D01*
X102839053Y-85651490D01*
X103036511Y-85559414D01*
X103046007Y-85553931D01*
X103224467Y-85428972D01*
X103232875Y-85421916D01*
X103386916Y-85267875D01*
X103393972Y-85259467D01*
X103518931Y-85081007D01*
X103524414Y-85071511D01*
X103616490Y-84874053D01*
X103620236Y-84863761D01*
X103666394Y-84691497D01*
X103666058Y-84677401D01*
X103658116Y-84674000D01*
X102657115Y-84674000D01*
X102641876Y-84678475D01*
X102640671Y-84679865D01*
X102639000Y-84687548D01*
X102639000Y-85687967D01*
X102131000Y-85687967D01*
X102131000Y-84692115D01*
X102126525Y-84676876D01*
X102125135Y-84675671D01*
X102117452Y-84674000D01*
X101117033Y-84674000D01*
X101103502Y-84677973D01*
X101102273Y-84686521D01*
X101141084Y-84831363D01*
X101139394Y-84902340D01*
X101099600Y-84961136D01*
X101034336Y-84989084D01*
X100964322Y-84977311D01*
X100925741Y-84948286D01*
X100907010Y-84927483D01*
X100811253Y-84821134D01*
X100656752Y-84708882D01*
X100650724Y-84706198D01*
X100650722Y-84706197D01*
X100488319Y-84633891D01*
X100488318Y-84633891D01*
X100482288Y-84631206D01*
X100388887Y-84611353D01*
X100301944Y-84592872D01*
X100301939Y-84592872D01*
X100295487Y-84591500D01*
X100104513Y-84591500D01*
X100098061Y-84592872D01*
X100098056Y-84592872D01*
X100011113Y-84611353D01*
X99917712Y-84631206D01*
X99911682Y-84633891D01*
X99911681Y-84633891D01*
X99749278Y-84706197D01*
X99749276Y-84706198D01*
X99743248Y-84708882D01*
X99588747Y-84821134D01*
X99584329Y-84826041D01*
X99584325Y-84826045D01*
X99492352Y-84928192D01*
X99460960Y-84963056D01*
X99365473Y-85128444D01*
X99322903Y-85259462D01*
X99318508Y-85272987D01*
X99278434Y-85331593D01*
X99213038Y-85359230D01*
X99143081Y-85347123D01*
X99090775Y-85299117D01*
X99084480Y-85287301D01*
X99024414Y-85158489D01*
X99018931Y-85148993D01*
X98893972Y-84970533D01*
X98886916Y-84962125D01*
X98732875Y-84808084D01*
X98724467Y-84801028D01*
X98546007Y-84676069D01*
X98536511Y-84670586D01*
X98339053Y-84578510D01*
X98328761Y-84574764D01*
X98156497Y-84528606D01*
X98142401Y-84528942D01*
X98139000Y-84536884D01*
X98139000Y-87077967D01*
X98142973Y-87091498D01*
X98151522Y-87092727D01*
X98328761Y-87045236D01*
X98339053Y-87041490D01*
X98536511Y-86949414D01*
X98546007Y-86943931D01*
X98724467Y-86818972D01*
X98732875Y-86811916D01*
X98886916Y-86657875D01*
X98893972Y-86649467D01*
X99018931Y-86471007D01*
X99024414Y-86461511D01*
X99116490Y-86264053D01*
X99120236Y-86253761D01*
X99176625Y-86043312D01*
X99178528Y-86032520D01*
X99180529Y-86009651D01*
X99206392Y-85943533D01*
X99263896Y-85901893D01*
X99334783Y-85897952D01*
X99396547Y-85932961D01*
X99415169Y-85957632D01*
X99460960Y-86036944D01*
X99534137Y-86118215D01*
X99564853Y-86182221D01*
X99566500Y-86202524D01*
X99566500Y-89460606D01*
X99546498Y-89528727D01*
X99512771Y-89563819D01*
X99360211Y-89670643D01*
X99360208Y-89670645D01*
X99355700Y-89673802D01*
X99193802Y-89835700D01*
X99190645Y-89840208D01*
X99190643Y-89840211D01*
X99163064Y-89879598D01*
X99062477Y-90023251D01*
X99060154Y-90028233D01*
X99060151Y-90028238D01*
X98989637Y-90179457D01*
X98965716Y-90230757D01*
X98964294Y-90236065D01*
X98964293Y-90236067D01*
X98918765Y-90405978D01*
X98906457Y-90451913D01*
X98886502Y-90680000D01*
X98906457Y-90908087D01*
X98907881Y-90913400D01*
X98907881Y-90913402D01*
X98944011Y-91048238D01*
X98965716Y-91129243D01*
X98968039Y-91134224D01*
X98968039Y-91134225D01*
X99060151Y-91331762D01*
X99060154Y-91331767D01*
X99062477Y-91336749D01*
X99065634Y-91341257D01*
X99153399Y-91466598D01*
X99193802Y-91524300D01*
X99355700Y-91686198D01*
X99360208Y-91689355D01*
X99360211Y-91689357D01*
X99375411Y-91700000D01*
X99543251Y-91817523D01*
X99548233Y-91819846D01*
X99548238Y-91819849D01*
X99582457Y-91835805D01*
X99635742Y-91882722D01*
X99655203Y-91950999D01*
X99634661Y-92018959D01*
X99582457Y-92064195D01*
X99548238Y-92080151D01*
X99548233Y-92080154D01*
X99543251Y-92082477D01*
X99499306Y-92113248D01*
X99360211Y-92210643D01*
X99360208Y-92210645D01*
X99355700Y-92213802D01*
X99193802Y-92375700D01*
X99190645Y-92380208D01*
X99190643Y-92380211D01*
X99165317Y-92416381D01*
X99062477Y-92563251D01*
X99060154Y-92568233D01*
X99060151Y-92568238D01*
X98979409Y-92741392D01*
X98965716Y-92770757D01*
X98964294Y-92776065D01*
X98964293Y-92776067D01*
X98944599Y-92849566D01*
X98906457Y-92991913D01*
X98886502Y-93220000D01*
X98906457Y-93448087D01*
X98907880Y-93453398D01*
X98907881Y-93453402D01*
X98937383Y-93563502D01*
X98965716Y-93669243D01*
X98968039Y-93674224D01*
X98968039Y-93674225D01*
X99060151Y-93871762D01*
X99060154Y-93871767D01*
X99062477Y-93876749D01*
X99097774Y-93927158D01*
X99160121Y-94016198D01*
X99193802Y-94064300D01*
X99355700Y-94226198D01*
X99360208Y-94229355D01*
X99360211Y-94229357D01*
X99405798Y-94261277D01*
X99543251Y-94357523D01*
X99548233Y-94359846D01*
X99548238Y-94359849D01*
X99582457Y-94375805D01*
X99635742Y-94422722D01*
X99655203Y-94490999D01*
X99634661Y-94558959D01*
X99582457Y-94604195D01*
X99548238Y-94620151D01*
X99548233Y-94620154D01*
X99543251Y-94622477D01*
X99477771Y-94668327D01*
X99360211Y-94750643D01*
X99360208Y-94750645D01*
X99355700Y-94753802D01*
X99193802Y-94915700D01*
X99190645Y-94920208D01*
X99190643Y-94920211D01*
X99135902Y-94998389D01*
X99062477Y-95103251D01*
X99060154Y-95108233D01*
X99060151Y-95108238D01*
X98985688Y-95267926D01*
X98965716Y-95310757D01*
X98964294Y-95316065D01*
X98964293Y-95316067D01*
X98929279Y-95446739D01*
X98906457Y-95531913D01*
X98886502Y-95760000D01*
X98906457Y-95988087D01*
X98907879Y-95993392D01*
X98907881Y-95993406D01*
X98923459Y-96051539D01*
X98921771Y-96122516D01*
X98890848Y-96173248D01*
X98751324Y-96312771D01*
X98617742Y-96446353D01*
X98609463Y-96453887D01*
X98602982Y-96458000D01*
X98565940Y-96497446D01*
X98556357Y-96507651D01*
X98553602Y-96510493D01*
X98533865Y-96530230D01*
X98531385Y-96533427D01*
X98523682Y-96542447D01*
X98493414Y-96574679D01*
X98489595Y-96581625D01*
X98489593Y-96581628D01*
X98483652Y-96592434D01*
X98472801Y-96608953D01*
X98460386Y-96624959D01*
X98457241Y-96632228D01*
X98457238Y-96632232D01*
X98442826Y-96665537D01*
X98437609Y-96676187D01*
X98416305Y-96714940D01*
X98414334Y-96722615D01*
X98414334Y-96722616D01*
X98411267Y-96734562D01*
X98404863Y-96753266D01*
X98396819Y-96771855D01*
X98395580Y-96779678D01*
X98395577Y-96779688D01*
X98389901Y-96815524D01*
X98387495Y-96827144D01*
X98378472Y-96862289D01*
X98376500Y-96869970D01*
X98376500Y-96890224D01*
X98374949Y-96909934D01*
X98371780Y-96929943D01*
X98372526Y-96937835D01*
X98375941Y-96973961D01*
X98376500Y-96985819D01*
X98376500Y-101780606D01*
X98356498Y-101848727D01*
X98322771Y-101883819D01*
X98170211Y-101990643D01*
X98170208Y-101990645D01*
X98165700Y-101993802D01*
X98003802Y-102155700D01*
X97872477Y-102343251D01*
X97870154Y-102348233D01*
X97870151Y-102348238D01*
X97812675Y-102471497D01*
X97775716Y-102550757D01*
X97774294Y-102556065D01*
X97774293Y-102556067D01*
X97747964Y-102654329D01*
X97716457Y-102771913D01*
X97696502Y-103000000D01*
X97716457Y-103228087D01*
X97717881Y-103233400D01*
X97717881Y-103233402D01*
X97744935Y-103334366D01*
X97775716Y-103449243D01*
X97778039Y-103454224D01*
X97778039Y-103454225D01*
X97870151Y-103651762D01*
X97870154Y-103651767D01*
X97872477Y-103656749D01*
X98003802Y-103844300D01*
X98165700Y-104006198D01*
X98170208Y-104009355D01*
X98170211Y-104009357D01*
X98219588Y-104043931D01*
X98353251Y-104137523D01*
X98358233Y-104139846D01*
X98358238Y-104139849D01*
X98555775Y-104231961D01*
X98560757Y-104234284D01*
X98566065Y-104235706D01*
X98566067Y-104235707D01*
X98596245Y-104243793D01*
X98656868Y-104280745D01*
X98687889Y-104344605D01*
X98679461Y-104415100D01*
X98634258Y-104469847D01*
X98563634Y-104491500D01*
X91836366Y-104491500D01*
X91768245Y-104471498D01*
X91721752Y-104417842D01*
X91711648Y-104347568D01*
X91741142Y-104282988D01*
X91803755Y-104243793D01*
X91833933Y-104235707D01*
X91833935Y-104235706D01*
X91839243Y-104234284D01*
X91844225Y-104231961D01*
X92041762Y-104139849D01*
X92041767Y-104139846D01*
X92046749Y-104137523D01*
X92180412Y-104043931D01*
X92229789Y-104009357D01*
X92229792Y-104009355D01*
X92234300Y-104006198D01*
X92396198Y-103844300D01*
X92527523Y-103656749D01*
X92529846Y-103651767D01*
X92529849Y-103651762D01*
X92621961Y-103454225D01*
X92621961Y-103454224D01*
X92624284Y-103449243D01*
X92655066Y-103334366D01*
X92682119Y-103233402D01*
X92682119Y-103233400D01*
X92683543Y-103228087D01*
X92703498Y-103000000D01*
X92683543Y-102771913D01*
X92652036Y-102654329D01*
X92625707Y-102556067D01*
X92625706Y-102556065D01*
X92624284Y-102550757D01*
X92587325Y-102471497D01*
X92529849Y-102348238D01*
X92529846Y-102348233D01*
X92527523Y-102343251D01*
X92396198Y-102155700D01*
X92234300Y-101993802D01*
X92229792Y-101990645D01*
X92229789Y-101990643D01*
X92077229Y-101883819D01*
X92032901Y-101828362D01*
X92023500Y-101780606D01*
X92023500Y-94648767D01*
X92024027Y-94637584D01*
X92025702Y-94630091D01*
X92023562Y-94562014D01*
X92023500Y-94558055D01*
X92023500Y-94530144D01*
X92022995Y-94526144D01*
X92022062Y-94514301D01*
X92020922Y-94478029D01*
X92020673Y-94470110D01*
X92015022Y-94450658D01*
X92011014Y-94431306D01*
X92009467Y-94419063D01*
X92008474Y-94411203D01*
X92005556Y-94403832D01*
X91992200Y-94370097D01*
X91988355Y-94358870D01*
X91987046Y-94354366D01*
X91976018Y-94316407D01*
X91971984Y-94309585D01*
X91971981Y-94309579D01*
X91965706Y-94298968D01*
X91957010Y-94281218D01*
X91952472Y-94269756D01*
X91952469Y-94269751D01*
X91949552Y-94262383D01*
X91934715Y-94241961D01*
X91923573Y-94226625D01*
X91917057Y-94216707D01*
X91898575Y-94185457D01*
X91894542Y-94178637D01*
X91880218Y-94164313D01*
X91867376Y-94149278D01*
X91866101Y-94147523D01*
X91855472Y-94132893D01*
X91821406Y-94104711D01*
X91812627Y-94096722D01*
X91349152Y-93633247D01*
X91315126Y-93570935D01*
X91316540Y-93511541D01*
X91317745Y-93507043D01*
X91333543Y-93448087D01*
X91353498Y-93220000D01*
X91333543Y-92991913D01*
X91295401Y-92849566D01*
X91275707Y-92776067D01*
X91275706Y-92776065D01*
X91274284Y-92770757D01*
X91260591Y-92741392D01*
X91179849Y-92568238D01*
X91179846Y-92568233D01*
X91177523Y-92563251D01*
X91074683Y-92416381D01*
X91049357Y-92380211D01*
X91049355Y-92380208D01*
X91046198Y-92375700D01*
X90884300Y-92213802D01*
X90879792Y-92210645D01*
X90879789Y-92210643D01*
X90740694Y-92113248D01*
X90696749Y-92082477D01*
X90691767Y-92080154D01*
X90691762Y-92080151D01*
X90657543Y-92064195D01*
X90604258Y-92017278D01*
X90584797Y-91949001D01*
X90605339Y-91881041D01*
X90657543Y-91835805D01*
X90691762Y-91819849D01*
X90691767Y-91819846D01*
X90696749Y-91817523D01*
X90864589Y-91700000D01*
X90879789Y-91689357D01*
X90879792Y-91689355D01*
X90884300Y-91686198D01*
X91046198Y-91524300D01*
X91086602Y-91466598D01*
X91174366Y-91341257D01*
X91177523Y-91336749D01*
X91179846Y-91331767D01*
X91179849Y-91331762D01*
X91271961Y-91134225D01*
X91271961Y-91134224D01*
X91274284Y-91129243D01*
X91295990Y-91048238D01*
X91332119Y-90913402D01*
X91332119Y-90913400D01*
X91333543Y-90908087D01*
X91353498Y-90680000D01*
X91333543Y-90451913D01*
X91321235Y-90405978D01*
X91275707Y-90236067D01*
X91275706Y-90236065D01*
X91274284Y-90230757D01*
X91250363Y-90179457D01*
X91179849Y-90028238D01*
X91179846Y-90028233D01*
X91177523Y-90023251D01*
X91076936Y-89879598D01*
X91049357Y-89840211D01*
X91049355Y-89840208D01*
X91046198Y-89835700D01*
X90884300Y-89673802D01*
X90879792Y-89670645D01*
X90879789Y-89670643D01*
X90727228Y-89563819D01*
X90696749Y-89542477D01*
X90691767Y-89540154D01*
X90691762Y-89540151D01*
X90494225Y-89448039D01*
X90494224Y-89448039D01*
X90489243Y-89445716D01*
X90483935Y-89444294D01*
X90483933Y-89444293D01*
X90273402Y-89387881D01*
X90273400Y-89387881D01*
X90268087Y-89386457D01*
X90040000Y-89366502D01*
X89811913Y-89386457D01*
X89806600Y-89387881D01*
X89806598Y-89387881D01*
X89596067Y-89444293D01*
X89596065Y-89444294D01*
X89590757Y-89445716D01*
X89585776Y-89448039D01*
X89585775Y-89448039D01*
X89388238Y-89540151D01*
X89388233Y-89540154D01*
X89383251Y-89542477D01*
X89352772Y-89563819D01*
X89200211Y-89670643D01*
X89200208Y-89670645D01*
X89195700Y-89673802D01*
X89033802Y-89835700D01*
X89030645Y-89840208D01*
X89030643Y-89840211D01*
X89003064Y-89879598D01*
X88902477Y-90023251D01*
X88900154Y-90028233D01*
X88900151Y-90028238D01*
X88829637Y-90179457D01*
X88805716Y-90230757D01*
X88804294Y-90236065D01*
X88804293Y-90236067D01*
X88758765Y-90405978D01*
X88746457Y-90451913D01*
X88726502Y-90680000D01*
X88746457Y-90908087D01*
X88747881Y-90913400D01*
X88747881Y-90913402D01*
X88784011Y-91048238D01*
X88805716Y-91129243D01*
X88808039Y-91134224D01*
X88808039Y-91134225D01*
X88900151Y-91331762D01*
X88900154Y-91331767D01*
X88902477Y-91336749D01*
X88905634Y-91341257D01*
X88993399Y-91466598D01*
X89033802Y-91524300D01*
X89195700Y-91686198D01*
X89200208Y-91689355D01*
X89200211Y-91689357D01*
X89215411Y-91700000D01*
X89383251Y-91817523D01*
X89388233Y-91819846D01*
X89388238Y-91819849D01*
X89422457Y-91835805D01*
X89475742Y-91882722D01*
X89495203Y-91950999D01*
X89474661Y-92018959D01*
X89422457Y-92064195D01*
X89388238Y-92080151D01*
X89388233Y-92080154D01*
X89383251Y-92082477D01*
X89339306Y-92113248D01*
X89200211Y-92210643D01*
X89200208Y-92210645D01*
X89195700Y-92213802D01*
X89033802Y-92375700D01*
X89030645Y-92380208D01*
X89030643Y-92380211D01*
X88923819Y-92532771D01*
X88868362Y-92577099D01*
X88820606Y-92586500D01*
X88619594Y-92586500D01*
X88551473Y-92566498D01*
X88530499Y-92549595D01*
X87451218Y-91470313D01*
X87417192Y-91408001D01*
X87419755Y-91344589D01*
X87420768Y-91341257D01*
X87432370Y-91303069D01*
X87461529Y-91081590D01*
X87463156Y-91015000D01*
X87444852Y-90792361D01*
X87390431Y-90575702D01*
X87301354Y-90370840D01*
X87261906Y-90309862D01*
X87182822Y-90187617D01*
X87182820Y-90187614D01*
X87180014Y-90183277D01*
X87029670Y-90018051D01*
X87025619Y-90014852D01*
X87025615Y-90014848D01*
X86858414Y-89882800D01*
X86858410Y-89882798D01*
X86854359Y-89879598D01*
X86658789Y-89771638D01*
X86653920Y-89769914D01*
X86653916Y-89769912D01*
X86453087Y-89698795D01*
X86453083Y-89698794D01*
X86448212Y-89697069D01*
X86443119Y-89696162D01*
X86443116Y-89696161D01*
X86233373Y-89658800D01*
X86233367Y-89658799D01*
X86228284Y-89657894D01*
X86154452Y-89656992D01*
X86010081Y-89655228D01*
X86010079Y-89655228D01*
X86004911Y-89655165D01*
X85784091Y-89688955D01*
X85753986Y-89698795D01*
X85724134Y-89708552D01*
X85653170Y-89710703D01*
X85592308Y-89674147D01*
X85560872Y-89610490D01*
X85558989Y-89588787D01*
X85558989Y-86910697D01*
X85578991Y-86842576D01*
X85632647Y-86796083D01*
X85702921Y-86785979D01*
X85717600Y-86788990D01*
X85766598Y-86802119D01*
X85766600Y-86802119D01*
X85771913Y-86803543D01*
X86000000Y-86823498D01*
X86228087Y-86803543D01*
X86233400Y-86802119D01*
X86233402Y-86802119D01*
X86443933Y-86745707D01*
X86443935Y-86745706D01*
X86449243Y-86744284D01*
X86454225Y-86741961D01*
X86651762Y-86649849D01*
X86651767Y-86649846D01*
X86656749Y-86647523D01*
X86832752Y-86524284D01*
X86839789Y-86519357D01*
X86839792Y-86519355D01*
X86844300Y-86516198D01*
X87006198Y-86354300D01*
X87019390Y-86335461D01*
X87134366Y-86171257D01*
X87137523Y-86166749D01*
X87139846Y-86161767D01*
X87139849Y-86161762D01*
X87179597Y-86076522D01*
X96602273Y-86076522D01*
X96649764Y-86253761D01*
X96653510Y-86264053D01*
X96745586Y-86461511D01*
X96751069Y-86471007D01*
X96876028Y-86649467D01*
X96883084Y-86657875D01*
X97037125Y-86811916D01*
X97045533Y-86818972D01*
X97223993Y-86943931D01*
X97233489Y-86949414D01*
X97430947Y-87041490D01*
X97441239Y-87045236D01*
X97613503Y-87091394D01*
X97627599Y-87091058D01*
X97631000Y-87083116D01*
X97631000Y-86082115D01*
X97626525Y-86066876D01*
X97625135Y-86065671D01*
X97617452Y-86064000D01*
X96617033Y-86064000D01*
X96603502Y-86067973D01*
X96602273Y-86076522D01*
X87179597Y-86076522D01*
X87231961Y-85964225D01*
X87231961Y-85964224D01*
X87234284Y-85959243D01*
X87241541Y-85932162D01*
X87292119Y-85743402D01*
X87292119Y-85743400D01*
X87293543Y-85738087D01*
X87311004Y-85538503D01*
X96603606Y-85538503D01*
X96603942Y-85552599D01*
X96611884Y-85556000D01*
X97612885Y-85556000D01*
X97628124Y-85551525D01*
X97629329Y-85550135D01*
X97631000Y-85542452D01*
X97631000Y-84542033D01*
X97627027Y-84528502D01*
X97618478Y-84527273D01*
X97441239Y-84574764D01*
X97430947Y-84578510D01*
X97233489Y-84670586D01*
X97223993Y-84676069D01*
X97045533Y-84801028D01*
X97037125Y-84808084D01*
X96883084Y-84962125D01*
X96876028Y-84970533D01*
X96751069Y-85148993D01*
X96745586Y-85158489D01*
X96653510Y-85355947D01*
X96649764Y-85366239D01*
X96603606Y-85538503D01*
X87311004Y-85538503D01*
X87313498Y-85510000D01*
X87293543Y-85281913D01*
X87269930Y-85193788D01*
X87235707Y-85066067D01*
X87235706Y-85066065D01*
X87234284Y-85060757D01*
X87231961Y-85055775D01*
X87139849Y-84858238D01*
X87139846Y-84858233D01*
X87137523Y-84853251D01*
X87039152Y-84712763D01*
X87009357Y-84670211D01*
X87009355Y-84670208D01*
X87006198Y-84665700D01*
X86844300Y-84503802D01*
X86839792Y-84500645D01*
X86839789Y-84500643D01*
X86761322Y-84445700D01*
X86656749Y-84372477D01*
X86651767Y-84370154D01*
X86651762Y-84370151D01*
X86454225Y-84278039D01*
X86454224Y-84278039D01*
X86449243Y-84275716D01*
X86443935Y-84274294D01*
X86443933Y-84274293D01*
X86233402Y-84217881D01*
X86233400Y-84217881D01*
X86228087Y-84216457D01*
X86000000Y-84196502D01*
X85771913Y-84216457D01*
X85766600Y-84217881D01*
X85766598Y-84217881D01*
X85556067Y-84274293D01*
X85556065Y-84274294D01*
X85550757Y-84275716D01*
X85545776Y-84278039D01*
X85545775Y-84278039D01*
X85348238Y-84370151D01*
X85348233Y-84370154D01*
X85343251Y-84372477D01*
X85238678Y-84445700D01*
X85160211Y-84500643D01*
X85160208Y-84500645D01*
X85155700Y-84503802D01*
X84993802Y-84665700D01*
X84990645Y-84670208D01*
X84990643Y-84670211D01*
X84960848Y-84712763D01*
X84862477Y-84853251D01*
X84860154Y-84858233D01*
X84860151Y-84858238D01*
X84768039Y-85055775D01*
X84765716Y-85060757D01*
X84764294Y-85066065D01*
X84764293Y-85066067D01*
X84730070Y-85193788D01*
X84706457Y-85281913D01*
X84686502Y-85510000D01*
X84686981Y-85515475D01*
X84686981Y-85515476D01*
X84698082Y-85642363D01*
X84684093Y-85711967D01*
X84661656Y-85742439D01*
X84533236Y-85870859D01*
X84524950Y-85878399D01*
X84518471Y-85882511D01*
X84513046Y-85888288D01*
X84471846Y-85932162D01*
X84469091Y-85935004D01*
X84449354Y-85954741D01*
X84446874Y-85957938D01*
X84439171Y-85966958D01*
X84408903Y-85999190D01*
X84405084Y-86006136D01*
X84405082Y-86006139D01*
X84399141Y-86016945D01*
X84388290Y-86033464D01*
X84375875Y-86049470D01*
X84372730Y-86056739D01*
X84372727Y-86056743D01*
X84358315Y-86090048D01*
X84353098Y-86100698D01*
X84331794Y-86139451D01*
X84329823Y-86147126D01*
X84329823Y-86147127D01*
X84326756Y-86159073D01*
X84320352Y-86177777D01*
X84312308Y-86196366D01*
X84311069Y-86204189D01*
X84311066Y-86204199D01*
X84305390Y-86240035D01*
X84302984Y-86251655D01*
X84301807Y-86256239D01*
X84291989Y-86294481D01*
X84291989Y-86314735D01*
X84290438Y-86334445D01*
X84287269Y-86354454D01*
X84288015Y-86362346D01*
X84291430Y-86398472D01*
X84291989Y-86410330D01*
X84291989Y-92301722D01*
X84291462Y-92312905D01*
X84289787Y-92320398D01*
X84290036Y-92328324D01*
X84290036Y-92328325D01*
X84291927Y-92388475D01*
X84291989Y-92392434D01*
X84291989Y-92420345D01*
X84292486Y-92424279D01*
X84292486Y-92424280D01*
X84292494Y-92424345D01*
X84293427Y-92436182D01*
X84294816Y-92480378D01*
X84300467Y-92499828D01*
X84304476Y-92519189D01*
X84307015Y-92539286D01*
X84309934Y-92546657D01*
X84309934Y-92546659D01*
X84323293Y-92580401D01*
X84327138Y-92591631D01*
X84337260Y-92626472D01*
X84339471Y-92634082D01*
X84343504Y-92640901D01*
X84343506Y-92640906D01*
X84349782Y-92651517D01*
X84358477Y-92669265D01*
X84365937Y-92688106D01*
X84370599Y-92694522D01*
X84370599Y-92694523D01*
X84391925Y-92723876D01*
X84398441Y-92733796D01*
X84416905Y-92765016D01*
X84420947Y-92771851D01*
X84435268Y-92786172D01*
X84448108Y-92801205D01*
X84460017Y-92817596D01*
X84484105Y-92837523D01*
X84494094Y-92845787D01*
X84502873Y-92853777D01*
X84749778Y-93100682D01*
X84783804Y-93162994D01*
X84782100Y-93223448D01*
X84760989Y-93299570D01*
X84760441Y-93304700D01*
X84760440Y-93304704D01*
X84753341Y-93371134D01*
X84737251Y-93521695D01*
X84737548Y-93526848D01*
X84737548Y-93526851D01*
X84747662Y-93702255D01*
X84750110Y-93744715D01*
X84751247Y-93749761D01*
X84751248Y-93749767D01*
X84770047Y-93833181D01*
X84799222Y-93962639D01*
X84844141Y-94073261D01*
X84881113Y-94164313D01*
X84883266Y-94169616D01*
X84907383Y-94208971D01*
X84996481Y-94354366D01*
X84999987Y-94360088D01*
X85146250Y-94528938D01*
X85318126Y-94671632D01*
X85391955Y-94714774D01*
X85440679Y-94766412D01*
X85453750Y-94836195D01*
X85427019Y-94901967D01*
X85386562Y-94935327D01*
X85378457Y-94939546D01*
X85369738Y-94945036D01*
X85199433Y-95072905D01*
X85191726Y-95079748D01*
X85044590Y-95233717D01*
X85038104Y-95241727D01*
X84918098Y-95417649D01*
X84913000Y-95426623D01*
X84823338Y-95619783D01*
X84819775Y-95629470D01*
X84764389Y-95829183D01*
X84765912Y-95837607D01*
X84778292Y-95841000D01*
X87418344Y-95841000D01*
X87431875Y-95837027D01*
X87433180Y-95827947D01*
X87391214Y-95660875D01*
X87387894Y-95651124D01*
X87302972Y-95455814D01*
X87298105Y-95446739D01*
X87182426Y-95267926D01*
X87176136Y-95259757D01*
X87032806Y-95102240D01*
X87025273Y-95095215D01*
X86858139Y-94963222D01*
X86849556Y-94957520D01*
X86812602Y-94937120D01*
X86762631Y-94886687D01*
X86747859Y-94817245D01*
X86772975Y-94750839D01*
X86800327Y-94724232D01*
X86823797Y-94707491D01*
X86979860Y-94596173D01*
X87016118Y-94560042D01*
X87087407Y-94489001D01*
X87138096Y-94438489D01*
X87143258Y-94431306D01*
X87265435Y-94261277D01*
X87268453Y-94257077D01*
X87274073Y-94245707D01*
X87365136Y-94061453D01*
X87365137Y-94061451D01*
X87367430Y-94056811D01*
X87427774Y-93858197D01*
X87430865Y-93848023D01*
X87430865Y-93848021D01*
X87432370Y-93843069D01*
X87461529Y-93621590D01*
X87461611Y-93618240D01*
X87462676Y-93574655D01*
X87484336Y-93507043D01*
X87539111Y-93461875D01*
X87609611Y-93453491D01*
X87677733Y-93488638D01*
X87801348Y-93612253D01*
X87808888Y-93620539D01*
X87813000Y-93627018D01*
X87818777Y-93632443D01*
X87862651Y-93673643D01*
X87865493Y-93676398D01*
X87885230Y-93696135D01*
X87888427Y-93698615D01*
X87897447Y-93706318D01*
X87929679Y-93736586D01*
X87936625Y-93740405D01*
X87936628Y-93740407D01*
X87947434Y-93746348D01*
X87963953Y-93757199D01*
X87979959Y-93769614D01*
X87987228Y-93772759D01*
X87987232Y-93772762D01*
X88020537Y-93787174D01*
X88031187Y-93792391D01*
X88069940Y-93813695D01*
X88077615Y-93815666D01*
X88077616Y-93815666D01*
X88089562Y-93818733D01*
X88108266Y-93825137D01*
X88114224Y-93827715D01*
X88126855Y-93833181D01*
X88134678Y-93834420D01*
X88134688Y-93834423D01*
X88170524Y-93840099D01*
X88182144Y-93842505D01*
X88210516Y-93849789D01*
X88224970Y-93853500D01*
X88245224Y-93853500D01*
X88264934Y-93855051D01*
X88284943Y-93858220D01*
X88292835Y-93857474D01*
X88328961Y-93854059D01*
X88340819Y-93853500D01*
X88820606Y-93853500D01*
X88888727Y-93873502D01*
X88923819Y-93907229D01*
X89002332Y-94019357D01*
X89033802Y-94064300D01*
X89195700Y-94226198D01*
X89200208Y-94229355D01*
X89200211Y-94229357D01*
X89245798Y-94261277D01*
X89383251Y-94357523D01*
X89388233Y-94359846D01*
X89388238Y-94359849D01*
X89422457Y-94375805D01*
X89475742Y-94422722D01*
X89495203Y-94490999D01*
X89474661Y-94558959D01*
X89422457Y-94604195D01*
X89388238Y-94620151D01*
X89388233Y-94620154D01*
X89383251Y-94622477D01*
X89317771Y-94668327D01*
X89200211Y-94750643D01*
X89200208Y-94750645D01*
X89195700Y-94753802D01*
X89033802Y-94915700D01*
X89030645Y-94920208D01*
X89030643Y-94920211D01*
X88975902Y-94998389D01*
X88902477Y-95103251D01*
X88900154Y-95108233D01*
X88900151Y-95108238D01*
X88825688Y-95267926D01*
X88805716Y-95310757D01*
X88804294Y-95316065D01*
X88804293Y-95316067D01*
X88769279Y-95446739D01*
X88746457Y-95531913D01*
X88726502Y-95760000D01*
X88746457Y-95988087D01*
X88747881Y-95993400D01*
X88747881Y-95993402D01*
X88749033Y-95997699D01*
X88805716Y-96209243D01*
X88808039Y-96214224D01*
X88808039Y-96214225D01*
X88900151Y-96411762D01*
X88900154Y-96411767D01*
X88902477Y-96416749D01*
X88967127Y-96509079D01*
X89024960Y-96591672D01*
X89033802Y-96604300D01*
X89195700Y-96766198D01*
X89200208Y-96769355D01*
X89200211Y-96769357D01*
X89232810Y-96792183D01*
X89383251Y-96897523D01*
X89388233Y-96899846D01*
X89388238Y-96899849D01*
X89422457Y-96915805D01*
X89475742Y-96962722D01*
X89495203Y-97030999D01*
X89474661Y-97098959D01*
X89422457Y-97144195D01*
X89388238Y-97160151D01*
X89388233Y-97160154D01*
X89383251Y-97162477D01*
X89281960Y-97233402D01*
X89200211Y-97290643D01*
X89200208Y-97290645D01*
X89195700Y-97293802D01*
X89033802Y-97455700D01*
X89030645Y-97460208D01*
X89030643Y-97460211D01*
X89003064Y-97499598D01*
X88902477Y-97643251D01*
X88900154Y-97648233D01*
X88900151Y-97648238D01*
X88848885Y-97758180D01*
X88805716Y-97850757D01*
X88804294Y-97856065D01*
X88804293Y-97856067D01*
X88764065Y-98006198D01*
X88746457Y-98071913D01*
X88726502Y-98300000D01*
X88746457Y-98528087D01*
X88805716Y-98749243D01*
X88808039Y-98754224D01*
X88808039Y-98754225D01*
X88841442Y-98825858D01*
X88852103Y-98896050D01*
X88823123Y-98960863D01*
X88763703Y-98999719D01*
X88753444Y-99002355D01*
X88729266Y-99007494D01*
X88617712Y-99031206D01*
X88611682Y-99033891D01*
X88611681Y-99033891D01*
X88449278Y-99106197D01*
X88449276Y-99106198D01*
X88443248Y-99108882D01*
X88288747Y-99221134D01*
X88284326Y-99226044D01*
X88284325Y-99226045D01*
X88184352Y-99337077D01*
X88160960Y-99363056D01*
X88102686Y-99463990D01*
X88071221Y-99518489D01*
X88065473Y-99528444D01*
X88006458Y-99710072D01*
X88005768Y-99716633D01*
X88005768Y-99716635D01*
X88002674Y-99746071D01*
X87986496Y-99900000D01*
X88006458Y-100089928D01*
X88065473Y-100271556D01*
X88068776Y-100277278D01*
X88068777Y-100277279D01*
X88102686Y-100336010D01*
X88160960Y-100436944D01*
X88288747Y-100578866D01*
X88443248Y-100691118D01*
X88449276Y-100693802D01*
X88449278Y-100693803D01*
X88611681Y-100766109D01*
X88617712Y-100768794D01*
X88711113Y-100788647D01*
X88798056Y-100807128D01*
X88798061Y-100807128D01*
X88804513Y-100808500D01*
X88995487Y-100808500D01*
X89001939Y-100807128D01*
X89001944Y-100807128D01*
X89088888Y-100788647D01*
X89182288Y-100768794D01*
X89188319Y-100766109D01*
X89350722Y-100693803D01*
X89350724Y-100693802D01*
X89356752Y-100691118D01*
X89453860Y-100620565D01*
X89489671Y-100594546D01*
X89511253Y-100578866D01*
X89515668Y-100573963D01*
X89520580Y-100569540D01*
X89521705Y-100570789D01*
X89575014Y-100537949D01*
X89608200Y-100533500D01*
X89694572Y-100533500D01*
X89762693Y-100553502D01*
X89809186Y-100607158D01*
X89814405Y-100620565D01*
X89830973Y-100671556D01*
X89926460Y-100836944D01*
X89930878Y-100841851D01*
X89930879Y-100841852D01*
X90044922Y-100968510D01*
X90054247Y-100978866D01*
X90208748Y-101091118D01*
X90214776Y-101093802D01*
X90214778Y-101093803D01*
X90377181Y-101166109D01*
X90383212Y-101168794D01*
X90476613Y-101188647D01*
X90563556Y-101207128D01*
X90563561Y-101207128D01*
X90570013Y-101208500D01*
X90630500Y-101208500D01*
X90698621Y-101228502D01*
X90745114Y-101282158D01*
X90756500Y-101334500D01*
X90756500Y-101780606D01*
X90736498Y-101848727D01*
X90702771Y-101883819D01*
X90550211Y-101990643D01*
X90550208Y-101990645D01*
X90545700Y-101993802D01*
X90383802Y-102155700D01*
X90252477Y-102343251D01*
X90250154Y-102348233D01*
X90250151Y-102348238D01*
X90192675Y-102471497D01*
X90155716Y-102550757D01*
X90154294Y-102556065D01*
X90154293Y-102556067D01*
X90127964Y-102654329D01*
X90096457Y-102771913D01*
X90076502Y-103000000D01*
X90096457Y-103228087D01*
X90097881Y-103233400D01*
X90097881Y-103233402D01*
X90124935Y-103334366D01*
X90155716Y-103449243D01*
X90158039Y-103454224D01*
X90158039Y-103454225D01*
X90250151Y-103651762D01*
X90250154Y-103651767D01*
X90252477Y-103656749D01*
X90383802Y-103844300D01*
X90545700Y-104006198D01*
X90550208Y-104009355D01*
X90550211Y-104009357D01*
X90599588Y-104043931D01*
X90733251Y-104137523D01*
X90738233Y-104139846D01*
X90738238Y-104139849D01*
X90935775Y-104231961D01*
X90940757Y-104234284D01*
X90946065Y-104235706D01*
X90946067Y-104235707D01*
X90976245Y-104243793D01*
X91036868Y-104280745D01*
X91067889Y-104344605D01*
X91059461Y-104415100D01*
X91014258Y-104469847D01*
X90943634Y-104491500D01*
X83634500Y-104491500D01*
X83566379Y-104471498D01*
X83519886Y-104417842D01*
X83508500Y-104365500D01*
X83508500Y-98601695D01*
X84737251Y-98601695D01*
X84737548Y-98606848D01*
X84737548Y-98606851D01*
X84743011Y-98701590D01*
X84750110Y-98824715D01*
X84751247Y-98829761D01*
X84751248Y-98829767D01*
X84766186Y-98896050D01*
X84799222Y-99042639D01*
X84883266Y-99249616D01*
X84999987Y-99440088D01*
X85146250Y-99608938D01*
X85150230Y-99612242D01*
X85154981Y-99616187D01*
X85194616Y-99675090D01*
X85196113Y-99746071D01*
X85158997Y-99806593D01*
X85118724Y-99831112D01*
X85003295Y-99874385D01*
X84886739Y-99961739D01*
X84799385Y-100078295D01*
X84748255Y-100214684D01*
X84741500Y-100276866D01*
X84741500Y-102073134D01*
X84748255Y-102135316D01*
X84799385Y-102271705D01*
X84886739Y-102388261D01*
X85003295Y-102475615D01*
X85139684Y-102526745D01*
X85201866Y-102533500D01*
X86998134Y-102533500D01*
X87060316Y-102526745D01*
X87196705Y-102475615D01*
X87313261Y-102388261D01*
X87400615Y-102271705D01*
X87451745Y-102135316D01*
X87458500Y-102073134D01*
X87458500Y-100276866D01*
X87451745Y-100214684D01*
X87400615Y-100078295D01*
X87313261Y-99961739D01*
X87196705Y-99874385D01*
X87184132Y-99869672D01*
X87078203Y-99829960D01*
X87021439Y-99787318D01*
X86996739Y-99720756D01*
X87011947Y-99651408D01*
X87033493Y-99622727D01*
X87051251Y-99605031D01*
X87138096Y-99518489D01*
X87173915Y-99468642D01*
X87265435Y-99341277D01*
X87268453Y-99337077D01*
X87327675Y-99217251D01*
X87365136Y-99141453D01*
X87365137Y-99141451D01*
X87367430Y-99136811D01*
X87432370Y-98923069D01*
X87461529Y-98701590D01*
X87463156Y-98635000D01*
X87444852Y-98412361D01*
X87390431Y-98195702D01*
X87301354Y-97990840D01*
X87261906Y-97929862D01*
X87182822Y-97807617D01*
X87182820Y-97807614D01*
X87180014Y-97803277D01*
X87029670Y-97638051D01*
X87025619Y-97634852D01*
X87025615Y-97634848D01*
X86858414Y-97502800D01*
X86858410Y-97502798D01*
X86854359Y-97499598D01*
X86812569Y-97476529D01*
X86762598Y-97426097D01*
X86747826Y-97356654D01*
X86772942Y-97290248D01*
X86800294Y-97263641D01*
X86975328Y-97138792D01*
X86983200Y-97132139D01*
X87134052Y-96981812D01*
X87140730Y-96973965D01*
X87265003Y-96801020D01*
X87270313Y-96792183D01*
X87364670Y-96601267D01*
X87368469Y-96591672D01*
X87430377Y-96387910D01*
X87432555Y-96377837D01*
X87433986Y-96366962D01*
X87431775Y-96352778D01*
X87418617Y-96349000D01*
X84783225Y-96349000D01*
X84769694Y-96352973D01*
X84768257Y-96362966D01*
X84798565Y-96497446D01*
X84801645Y-96507275D01*
X84881770Y-96704603D01*
X84886413Y-96713794D01*
X84997694Y-96895388D01*
X85003777Y-96903699D01*
X85143213Y-97064667D01*
X85150580Y-97071883D01*
X85314434Y-97207916D01*
X85322881Y-97213831D01*
X85391969Y-97254203D01*
X85440693Y-97305842D01*
X85453764Y-97375625D01*
X85427033Y-97441396D01*
X85386584Y-97474752D01*
X85373607Y-97481507D01*
X85369474Y-97484610D01*
X85369471Y-97484612D01*
X85345247Y-97502800D01*
X85194965Y-97615635D01*
X85040629Y-97777138D01*
X85037715Y-97781410D01*
X85037714Y-97781411D01*
X84986787Y-97856067D01*
X84914743Y-97961680D01*
X84894079Y-98006198D01*
X84833120Y-98137523D01*
X84820688Y-98164305D01*
X84760989Y-98379570D01*
X84737251Y-98601695D01*
X83508500Y-98601695D01*
X83508500Y-72620000D01*
X84671502Y-72620000D01*
X84691457Y-72848087D01*
X84692881Y-72853400D01*
X84692881Y-72853402D01*
X84745725Y-73050615D01*
X84750716Y-73069243D01*
X84753039Y-73074224D01*
X84753039Y-73074225D01*
X84845151Y-73271762D01*
X84845154Y-73271767D01*
X84847477Y-73276749D01*
X84978802Y-73464300D01*
X85140700Y-73626198D01*
X85145208Y-73629355D01*
X85145211Y-73629357D01*
X85297771Y-73736181D01*
X85342099Y-73791638D01*
X85351500Y-73839394D01*
X85351500Y-76681110D01*
X85331498Y-76749231D01*
X85297772Y-76784322D01*
X85243961Y-76822001D01*
X85160211Y-76880643D01*
X85160208Y-76880645D01*
X85155700Y-76883802D01*
X84993802Y-77045700D01*
X84990645Y-77050208D01*
X84990643Y-77050211D01*
X84945191Y-77115123D01*
X84862477Y-77233251D01*
X84860154Y-77238233D01*
X84860151Y-77238238D01*
X84768459Y-77434874D01*
X84765716Y-77440757D01*
X84764294Y-77446065D01*
X84764293Y-77446067D01*
X84728931Y-77578039D01*
X84706457Y-77661913D01*
X84686502Y-77890000D01*
X84706457Y-78118087D01*
X84707881Y-78123400D01*
X84707881Y-78123402D01*
X84744686Y-78260757D01*
X84765716Y-78339243D01*
X84768039Y-78344224D01*
X84768039Y-78344225D01*
X84860151Y-78541762D01*
X84860154Y-78541767D01*
X84862477Y-78546749D01*
X84914139Y-78620530D01*
X84980621Y-78715475D01*
X84993802Y-78734300D01*
X85155700Y-78896198D01*
X85160208Y-78899355D01*
X85160211Y-78899357D01*
X85312771Y-79006181D01*
X85357099Y-79061638D01*
X85366500Y-79109394D01*
X85366500Y-79246233D01*
X85365973Y-79257416D01*
X85364298Y-79264909D01*
X85364547Y-79272835D01*
X85364547Y-79272836D01*
X85366438Y-79332986D01*
X85366500Y-79336945D01*
X85366500Y-79364856D01*
X85366997Y-79368790D01*
X85366997Y-79368791D01*
X85367005Y-79368856D01*
X85367938Y-79380693D01*
X85369327Y-79424889D01*
X85374978Y-79444339D01*
X85378987Y-79463700D01*
X85381526Y-79483797D01*
X85384445Y-79491168D01*
X85384445Y-79491170D01*
X85397804Y-79524912D01*
X85401649Y-79536142D01*
X85411771Y-79570983D01*
X85413982Y-79578593D01*
X85418015Y-79585412D01*
X85418017Y-79585417D01*
X85424293Y-79596028D01*
X85432988Y-79613776D01*
X85440448Y-79632617D01*
X85445110Y-79639033D01*
X85445110Y-79639034D01*
X85466436Y-79668387D01*
X85472952Y-79678307D01*
X85495458Y-79716362D01*
X85509779Y-79730683D01*
X85522619Y-79745716D01*
X85534528Y-79762107D01*
X85540634Y-79767158D01*
X85568605Y-79790298D01*
X85577384Y-79798288D01*
X89075848Y-83296752D01*
X89109874Y-83359064D01*
X89108459Y-83418459D01*
X89092882Y-83476591D01*
X89092880Y-83476602D01*
X89091457Y-83481913D01*
X89071502Y-83710000D01*
X89091457Y-83938087D01*
X89092881Y-83943400D01*
X89092881Y-83943402D01*
X89147673Y-84147885D01*
X89150716Y-84159243D01*
X89153039Y-84164224D01*
X89153039Y-84164225D01*
X89245151Y-84361762D01*
X89245154Y-84361767D01*
X89247477Y-84366749D01*
X89262416Y-84388084D01*
X89370213Y-84542033D01*
X89378802Y-84554300D01*
X89540700Y-84716198D01*
X89545208Y-84719355D01*
X89545211Y-84719357D01*
X89623389Y-84774098D01*
X89728251Y-84847523D01*
X89733233Y-84849846D01*
X89733238Y-84849849D01*
X89901247Y-84928192D01*
X89935757Y-84944284D01*
X89941065Y-84945706D01*
X89941067Y-84945707D01*
X90151598Y-85002119D01*
X90151600Y-85002119D01*
X90156913Y-85003543D01*
X90385000Y-85023498D01*
X90613087Y-85003543D01*
X90618400Y-85002119D01*
X90618402Y-85002119D01*
X90828933Y-84945707D01*
X90828935Y-84945706D01*
X90834243Y-84944284D01*
X90868753Y-84928192D01*
X90937657Y-84896062D01*
X93363493Y-84896062D01*
X93372789Y-84908077D01*
X93423994Y-84943931D01*
X93433489Y-84949414D01*
X93630947Y-85041490D01*
X93641239Y-85045236D01*
X93851688Y-85101625D01*
X93862481Y-85103528D01*
X94079525Y-85122517D01*
X94090475Y-85122517D01*
X94307519Y-85103528D01*
X94318312Y-85101625D01*
X94528761Y-85045236D01*
X94539053Y-85041490D01*
X94736511Y-84949414D01*
X94746006Y-84943931D01*
X94798048Y-84907491D01*
X94806424Y-84897012D01*
X94799356Y-84883566D01*
X94097812Y-84182022D01*
X94083868Y-84174408D01*
X94082035Y-84174539D01*
X94075420Y-84178790D01*
X93369923Y-84884287D01*
X93363493Y-84896062D01*
X90937657Y-84896062D01*
X91036762Y-84849849D01*
X91036767Y-84849846D01*
X91041749Y-84847523D01*
X91146611Y-84774098D01*
X91224789Y-84719357D01*
X91224792Y-84719355D01*
X91229300Y-84716198D01*
X91391198Y-84554300D01*
X91399788Y-84542033D01*
X91507584Y-84388084D01*
X91522523Y-84366749D01*
X91524846Y-84361767D01*
X91524849Y-84361762D01*
X91616961Y-84164225D01*
X91616961Y-84164224D01*
X91619284Y-84159243D01*
X91622328Y-84147885D01*
X91677119Y-83943402D01*
X91677119Y-83943400D01*
X91678543Y-83938087D01*
X91689270Y-83815475D01*
X92772483Y-83815475D01*
X92791472Y-84032519D01*
X92793375Y-84043312D01*
X92849764Y-84253761D01*
X92853510Y-84264053D01*
X92945586Y-84461511D01*
X92951069Y-84471006D01*
X92987509Y-84523048D01*
X92997988Y-84531424D01*
X93011434Y-84524356D01*
X93712978Y-83822812D01*
X93719356Y-83811132D01*
X94449408Y-83811132D01*
X94449539Y-83812965D01*
X94453790Y-83819580D01*
X95159287Y-84525077D01*
X95171062Y-84531507D01*
X95183077Y-84522211D01*
X95218931Y-84471006D01*
X95224414Y-84461511D01*
X95316490Y-84264053D01*
X95320236Y-84253761D01*
X95348439Y-84148503D01*
X101103606Y-84148503D01*
X101103942Y-84162599D01*
X101111884Y-84166000D01*
X102112885Y-84166000D01*
X102128124Y-84161525D01*
X102129329Y-84160135D01*
X102131000Y-84152452D01*
X102131000Y-84147885D01*
X102639000Y-84147885D01*
X102643475Y-84163124D01*
X102644865Y-84164329D01*
X102652548Y-84166000D01*
X103652967Y-84166000D01*
X103666498Y-84162027D01*
X103667727Y-84153478D01*
X103620236Y-83976239D01*
X103616490Y-83965947D01*
X103524414Y-83768489D01*
X103518931Y-83758993D01*
X103393972Y-83580533D01*
X103386916Y-83572125D01*
X103232875Y-83418084D01*
X103224467Y-83411028D01*
X103046007Y-83286069D01*
X103036511Y-83280586D01*
X102839053Y-83188510D01*
X102828761Y-83184764D01*
X102656497Y-83138606D01*
X102642401Y-83138942D01*
X102639000Y-83146884D01*
X102639000Y-84147885D01*
X102131000Y-84147885D01*
X102131000Y-83152033D01*
X102127027Y-83138502D01*
X102118478Y-83137273D01*
X101941239Y-83184764D01*
X101930947Y-83188510D01*
X101733489Y-83280586D01*
X101723993Y-83286069D01*
X101545533Y-83411028D01*
X101537125Y-83418084D01*
X101383084Y-83572125D01*
X101376028Y-83580533D01*
X101251069Y-83758993D01*
X101245586Y-83768489D01*
X101153510Y-83965947D01*
X101149764Y-83976239D01*
X101103606Y-84148503D01*
X95348439Y-84148503D01*
X95376625Y-84043312D01*
X95378528Y-84032519D01*
X95397517Y-83815475D01*
X95397517Y-83804525D01*
X95378528Y-83587481D01*
X95376625Y-83576688D01*
X95320236Y-83366239D01*
X95316490Y-83355947D01*
X95224414Y-83158489D01*
X95218931Y-83148994D01*
X95182491Y-83096952D01*
X95172012Y-83088576D01*
X95158566Y-83095644D01*
X94457022Y-83797188D01*
X94449408Y-83811132D01*
X93719356Y-83811132D01*
X93720592Y-83808868D01*
X93720461Y-83807035D01*
X93716210Y-83800420D01*
X93010713Y-83094923D01*
X92998938Y-83088493D01*
X92986923Y-83097789D01*
X92951069Y-83148994D01*
X92945586Y-83158489D01*
X92853510Y-83355947D01*
X92849764Y-83366239D01*
X92793375Y-83576688D01*
X92791472Y-83587481D01*
X92772483Y-83804525D01*
X92772483Y-83815475D01*
X91689270Y-83815475D01*
X91698498Y-83710000D01*
X91678543Y-83481913D01*
X91677120Y-83476602D01*
X91677118Y-83476591D01*
X91661541Y-83418459D01*
X91663230Y-83347483D01*
X91694152Y-83296752D01*
X92267916Y-82722988D01*
X93363576Y-82722988D01*
X93370644Y-82736434D01*
X94072188Y-83437978D01*
X94086132Y-83445592D01*
X94087965Y-83445461D01*
X94094580Y-83441210D01*
X94800077Y-82735713D01*
X94806507Y-82723938D01*
X94797211Y-82711923D01*
X94746006Y-82676069D01*
X94736511Y-82670586D01*
X94539053Y-82578510D01*
X94528761Y-82574764D01*
X94318312Y-82518375D01*
X94307519Y-82516472D01*
X94090475Y-82497483D01*
X94079525Y-82497483D01*
X93862481Y-82516472D01*
X93851688Y-82518375D01*
X93641239Y-82574764D01*
X93630947Y-82578510D01*
X93433489Y-82670586D01*
X93423994Y-82676069D01*
X93371952Y-82712509D01*
X93363576Y-82722988D01*
X92267916Y-82722988D01*
X94477247Y-80513657D01*
X94485537Y-80506113D01*
X94492018Y-80502000D01*
X94538659Y-80452332D01*
X94541413Y-80449491D01*
X94561134Y-80429770D01*
X94563612Y-80426575D01*
X94571318Y-80417553D01*
X94596158Y-80391101D01*
X94601586Y-80385321D01*
X94611346Y-80367568D01*
X94622199Y-80351045D01*
X94629753Y-80341306D01*
X94634613Y-80335041D01*
X94652176Y-80294457D01*
X94657383Y-80283827D01*
X94678695Y-80245060D01*
X94680666Y-80237383D01*
X94680668Y-80237378D01*
X94683732Y-80225442D01*
X94690138Y-80206730D01*
X94695033Y-80195419D01*
X94698181Y-80188145D01*
X94699421Y-80180317D01*
X94699423Y-80180310D01*
X94705099Y-80144476D01*
X94707505Y-80132856D01*
X94716528Y-80097711D01*
X94716528Y-80097710D01*
X94718500Y-80090030D01*
X94718500Y-80069776D01*
X94720051Y-80050065D01*
X94721980Y-80037886D01*
X94723220Y-80030057D01*
X94722510Y-80022546D01*
X94744589Y-79955249D01*
X94776124Y-79923453D01*
X94924789Y-79819357D01*
X94924792Y-79819355D01*
X94929300Y-79816198D01*
X95091198Y-79654300D01*
X95101888Y-79639034D01*
X95210428Y-79484022D01*
X95222523Y-79466749D01*
X95224846Y-79461767D01*
X95224849Y-79461762D01*
X95316961Y-79264225D01*
X95316961Y-79264224D01*
X95319284Y-79259243D01*
X95372233Y-79061638D01*
X95377119Y-79043402D01*
X95377119Y-79043400D01*
X95378543Y-79038087D01*
X95398498Y-78810000D01*
X95378543Y-78581913D01*
X95369121Y-78546749D01*
X95320707Y-78366067D01*
X95320706Y-78366065D01*
X95319284Y-78360757D01*
X95275130Y-78266067D01*
X95224849Y-78158238D01*
X95224846Y-78158233D01*
X95222523Y-78153251D01*
X95091198Y-77965700D01*
X94929300Y-77803802D01*
X94924792Y-77800645D01*
X94924789Y-77800643D01*
X94792051Y-77707699D01*
X94741749Y-77672477D01*
X94736767Y-77670154D01*
X94736762Y-77670151D01*
X94539225Y-77578039D01*
X94539224Y-77578039D01*
X94534243Y-77575716D01*
X94528935Y-77574294D01*
X94528933Y-77574293D01*
X94318402Y-77517881D01*
X94318400Y-77517881D01*
X94313087Y-77516457D01*
X94085000Y-77496502D01*
X93856913Y-77516457D01*
X93851600Y-77517881D01*
X93851598Y-77517881D01*
X93641067Y-77574293D01*
X93641065Y-77574294D01*
X93635757Y-77575716D01*
X93630776Y-77578039D01*
X93630775Y-77578039D01*
X93433238Y-77670151D01*
X93433233Y-77670154D01*
X93428251Y-77672477D01*
X93377949Y-77707699D01*
X93245211Y-77800643D01*
X93245208Y-77800645D01*
X93240700Y-77803802D01*
X93078802Y-77965700D01*
X92947477Y-78153251D01*
X92945154Y-78158233D01*
X92945151Y-78158238D01*
X92894870Y-78266067D01*
X92850716Y-78360757D01*
X92849294Y-78366065D01*
X92849293Y-78366067D01*
X92800879Y-78546749D01*
X92791457Y-78581913D01*
X92771502Y-78810000D01*
X92791457Y-79038087D01*
X92792881Y-79043400D01*
X92792881Y-79043402D01*
X92797768Y-79061638D01*
X92850716Y-79259243D01*
X92853039Y-79264224D01*
X92853039Y-79264225D01*
X92945151Y-79461762D01*
X92945154Y-79461767D01*
X92947477Y-79466749D01*
X92959572Y-79484022D01*
X93068113Y-79639034D01*
X93078802Y-79654300D01*
X93222704Y-79798202D01*
X93256730Y-79860514D01*
X93251665Y-79931329D01*
X93222706Y-79976389D01*
X90798247Y-82400848D01*
X90735935Y-82434874D01*
X90676542Y-82433460D01*
X90613087Y-82416457D01*
X90385000Y-82396502D01*
X90156913Y-82416457D01*
X90093458Y-82433460D01*
X90022482Y-82431770D01*
X89971753Y-82400848D01*
X86728626Y-79157721D01*
X86694600Y-79095409D01*
X86699665Y-79024594D01*
X86745451Y-78965413D01*
X86839784Y-78899361D01*
X86839790Y-78899356D01*
X86844300Y-78896198D01*
X87006198Y-78734300D01*
X87019380Y-78715475D01*
X87085861Y-78620530D01*
X87137523Y-78546749D01*
X87139846Y-78541767D01*
X87139849Y-78541762D01*
X87231961Y-78344225D01*
X87231961Y-78344224D01*
X87234284Y-78339243D01*
X87255315Y-78260757D01*
X87292119Y-78123402D01*
X87292119Y-78123400D01*
X87293543Y-78118087D01*
X87313498Y-77890000D01*
X87293543Y-77661913D01*
X87271069Y-77578039D01*
X87235707Y-77446067D01*
X87235706Y-77446065D01*
X87234284Y-77440757D01*
X87231541Y-77434874D01*
X87139849Y-77238238D01*
X87139846Y-77238233D01*
X87137523Y-77233251D01*
X87054809Y-77115123D01*
X87009357Y-77050211D01*
X87009355Y-77050208D01*
X87006198Y-77045700D01*
X86844300Y-76883802D01*
X86839792Y-76880645D01*
X86839789Y-76880643D01*
X86672229Y-76763316D01*
X86627901Y-76707859D01*
X86618500Y-76660103D01*
X86618500Y-74958134D01*
X88776500Y-74958134D01*
X88783255Y-75020316D01*
X88834385Y-75156705D01*
X88921739Y-75273261D01*
X89038295Y-75360615D01*
X89174684Y-75411745D01*
X89236866Y-75418500D01*
X90933134Y-75418500D01*
X90995316Y-75411745D01*
X91131705Y-75360615D01*
X91248261Y-75273261D01*
X91335615Y-75156705D01*
X91386745Y-75020316D01*
X91387917Y-75009526D01*
X91388803Y-75007394D01*
X91389425Y-75004778D01*
X91389848Y-75004879D01*
X91415155Y-74943965D01*
X91473517Y-74903537D01*
X91544471Y-74901078D01*
X91605490Y-74937371D01*
X91612489Y-74946031D01*
X91615643Y-74949789D01*
X91618802Y-74954300D01*
X91780700Y-75116198D01*
X91785208Y-75119355D01*
X91785211Y-75119357D01*
X91826542Y-75148297D01*
X91968251Y-75247523D01*
X91973233Y-75249846D01*
X91973238Y-75249849D01*
X92170775Y-75341961D01*
X92175757Y-75344284D01*
X92181065Y-75345706D01*
X92181067Y-75345707D01*
X92391598Y-75402119D01*
X92391600Y-75402119D01*
X92396913Y-75403543D01*
X92402389Y-75404022D01*
X92402394Y-75404023D01*
X92451076Y-75408282D01*
X92494303Y-75412064D01*
X92560420Y-75437926D01*
X92602060Y-75495429D01*
X92606001Y-75566317D01*
X92572416Y-75626679D01*
X90798247Y-77400848D01*
X90735935Y-77434874D01*
X90676542Y-77433460D01*
X90613087Y-77416457D01*
X90385000Y-77396502D01*
X90156913Y-77416457D01*
X90151600Y-77417881D01*
X90151598Y-77417881D01*
X89941067Y-77474293D01*
X89941065Y-77474294D01*
X89935757Y-77475716D01*
X89930776Y-77478039D01*
X89930775Y-77478039D01*
X89733238Y-77570151D01*
X89733233Y-77570154D01*
X89728251Y-77572477D01*
X89720308Y-77578039D01*
X89545211Y-77700643D01*
X89545208Y-77700645D01*
X89540700Y-77703802D01*
X89378802Y-77865700D01*
X89375645Y-77870208D01*
X89375643Y-77870211D01*
X89361787Y-77890000D01*
X89247477Y-78053251D01*
X89245154Y-78058233D01*
X89245151Y-78058238D01*
X89198521Y-78158238D01*
X89150716Y-78260757D01*
X89149294Y-78266065D01*
X89149293Y-78266067D01*
X89095775Y-78465799D01*
X89091457Y-78481913D01*
X89071502Y-78710000D01*
X89091457Y-78938087D01*
X89092881Y-78943400D01*
X89092881Y-78943402D01*
X89133612Y-79095409D01*
X89150716Y-79159243D01*
X89153039Y-79164224D01*
X89153039Y-79164225D01*
X89245151Y-79361762D01*
X89245154Y-79361767D01*
X89247477Y-79366749D01*
X89320902Y-79471611D01*
X89366088Y-79536142D01*
X89378802Y-79554300D01*
X89540700Y-79716198D01*
X89545208Y-79719355D01*
X89545211Y-79719357D01*
X89582857Y-79745717D01*
X89728251Y-79847523D01*
X89733233Y-79849846D01*
X89733238Y-79849849D01*
X89930775Y-79941961D01*
X89935757Y-79944284D01*
X89941065Y-79945706D01*
X89941067Y-79945707D01*
X90151598Y-80002119D01*
X90151600Y-80002119D01*
X90156913Y-80003543D01*
X90385000Y-80023498D01*
X90613087Y-80003543D01*
X90618400Y-80002119D01*
X90618402Y-80002119D01*
X90828933Y-79945707D01*
X90828935Y-79945706D01*
X90834243Y-79944284D01*
X90839225Y-79941961D01*
X91036762Y-79849849D01*
X91036767Y-79849846D01*
X91041749Y-79847523D01*
X91187143Y-79745717D01*
X91224789Y-79719357D01*
X91224792Y-79719355D01*
X91229300Y-79716198D01*
X91391198Y-79554300D01*
X91403913Y-79536142D01*
X91449098Y-79471611D01*
X91522523Y-79366749D01*
X91524846Y-79361767D01*
X91524849Y-79361762D01*
X91616961Y-79164225D01*
X91616961Y-79164224D01*
X91619284Y-79159243D01*
X91636389Y-79095409D01*
X91677119Y-78943402D01*
X91677119Y-78943400D01*
X91678543Y-78938087D01*
X91698498Y-78710000D01*
X91678543Y-78481913D01*
X91677119Y-78476598D01*
X91677118Y-78476591D01*
X91661541Y-78418459D01*
X91663230Y-78347483D01*
X91694152Y-78296752D01*
X94609791Y-75381113D01*
X94672103Y-75347087D01*
X94731495Y-75348501D01*
X94936913Y-75403543D01*
X95165000Y-75423498D01*
X95393087Y-75403543D01*
X95398400Y-75402119D01*
X95398402Y-75402119D01*
X95401332Y-75401334D01*
X95402674Y-75401366D01*
X95403819Y-75401164D01*
X95403860Y-75401394D01*
X95472308Y-75403022D01*
X95523041Y-75433945D01*
X97071090Y-76981995D01*
X97105116Y-77044307D01*
X97100051Y-77115123D01*
X97054269Y-77174301D01*
X97040700Y-77183802D01*
X96878802Y-77345700D01*
X96875645Y-77350208D01*
X96875643Y-77350211D01*
X96840187Y-77400848D01*
X96747477Y-77533251D01*
X96745154Y-77538233D01*
X96745151Y-77538238D01*
X96687481Y-77661913D01*
X96650716Y-77740757D01*
X96649294Y-77746065D01*
X96649293Y-77746067D01*
X96612193Y-77884525D01*
X96591457Y-77961913D01*
X96571502Y-78190000D01*
X96591457Y-78418087D01*
X96592881Y-78423400D01*
X96592881Y-78423402D01*
X96647381Y-78626795D01*
X96650716Y-78639243D01*
X96653039Y-78644224D01*
X96653039Y-78644225D01*
X96745151Y-78841762D01*
X96745154Y-78841767D01*
X96747477Y-78846749D01*
X96807596Y-78932607D01*
X96874057Y-79027523D01*
X96878802Y-79034300D01*
X97040700Y-79196198D01*
X97045208Y-79199355D01*
X97045211Y-79199357D01*
X97112157Y-79246233D01*
X97228251Y-79327523D01*
X97233233Y-79329846D01*
X97233238Y-79329849D01*
X97420072Y-79416970D01*
X97435757Y-79424284D01*
X97441065Y-79425706D01*
X97441067Y-79425707D01*
X97651598Y-79482119D01*
X97651600Y-79482119D01*
X97656913Y-79483543D01*
X97885000Y-79503498D01*
X98113087Y-79483543D01*
X98118400Y-79482119D01*
X98118402Y-79482119D01*
X98328933Y-79425707D01*
X98328935Y-79425706D01*
X98334243Y-79424284D01*
X98349928Y-79416970D01*
X98536762Y-79329849D01*
X98536767Y-79329846D01*
X98541749Y-79327523D01*
X98657843Y-79246233D01*
X98724789Y-79199357D01*
X98724792Y-79199355D01*
X98729300Y-79196198D01*
X98891198Y-79034300D01*
X98895944Y-79027523D01*
X98962404Y-78932607D01*
X99022523Y-78846749D01*
X99024846Y-78841767D01*
X99024849Y-78841762D01*
X99116961Y-78644225D01*
X99116961Y-78644224D01*
X99119284Y-78639243D01*
X99122620Y-78626795D01*
X99177119Y-78423402D01*
X99177119Y-78423400D01*
X99178543Y-78418087D01*
X99198498Y-78190000D01*
X99178543Y-77961913D01*
X99157807Y-77884525D01*
X99120707Y-77746067D01*
X99120706Y-77746065D01*
X99119284Y-77740757D01*
X99082519Y-77661913D01*
X99024849Y-77538238D01*
X99024846Y-77538233D01*
X99022523Y-77533251D01*
X98929813Y-77400848D01*
X98894357Y-77350211D01*
X98894355Y-77350208D01*
X98891198Y-77345700D01*
X98729300Y-77183802D01*
X98724792Y-77180645D01*
X98724789Y-77180643D01*
X98572953Y-77074326D01*
X98528625Y-77018869D01*
X98520224Y-76962229D01*
X98520702Y-76960091D01*
X98519051Y-76907557D01*
X98519420Y-76895828D01*
X98520702Y-76890091D01*
X98518562Y-76822000D01*
X98518500Y-76818043D01*
X98518500Y-76790144D01*
X98517996Y-76786153D01*
X98517063Y-76774311D01*
X98516718Y-76763316D01*
X98515674Y-76730111D01*
X98513462Y-76722497D01*
X98513461Y-76722492D01*
X98510023Y-76710659D01*
X98506012Y-76691295D01*
X98504467Y-76679064D01*
X98503474Y-76671203D01*
X98500557Y-76663836D01*
X98500556Y-76663831D01*
X98487198Y-76630092D01*
X98483354Y-76618865D01*
X98473230Y-76584022D01*
X98471018Y-76576407D01*
X98460707Y-76558972D01*
X98452012Y-76541224D01*
X98444552Y-76522383D01*
X98418564Y-76486613D01*
X98412048Y-76476693D01*
X98393580Y-76445465D01*
X98393578Y-76445462D01*
X98389542Y-76438638D01*
X98375221Y-76424317D01*
X98362380Y-76409283D01*
X98355131Y-76399306D01*
X98350472Y-76392893D01*
X98316395Y-76364702D01*
X98307616Y-76356712D01*
X97587493Y-75636589D01*
X97553467Y-75574277D01*
X97558532Y-75503462D01*
X97601079Y-75446626D01*
X97667599Y-75421815D01*
X97687570Y-75421974D01*
X97699514Y-75423019D01*
X97699525Y-75423019D01*
X97705000Y-75423498D01*
X97933087Y-75403543D01*
X97938400Y-75402119D01*
X97938402Y-75402119D01*
X98148933Y-75345707D01*
X98148935Y-75345706D01*
X98154243Y-75344284D01*
X98159225Y-75341961D01*
X98356762Y-75249849D01*
X98356767Y-75249846D01*
X98361749Y-75247523D01*
X98503458Y-75148297D01*
X98544789Y-75119357D01*
X98544792Y-75119355D01*
X98549300Y-75116198D01*
X98711198Y-74954300D01*
X98842523Y-74766749D01*
X98844846Y-74761767D01*
X98844849Y-74761762D01*
X98936961Y-74564225D01*
X98936961Y-74564224D01*
X98939284Y-74559243D01*
X98998543Y-74338087D01*
X99018498Y-74110000D01*
X98998543Y-73881913D01*
X98968897Y-73771273D01*
X98940707Y-73666067D01*
X98940706Y-73666065D01*
X98939284Y-73660757D01*
X98921352Y-73622301D01*
X98844849Y-73458238D01*
X98844846Y-73458233D01*
X98842523Y-73453251D01*
X98839367Y-73448744D01*
X98836617Y-73443981D01*
X98838491Y-73442899D01*
X98818798Y-73384479D01*
X98836093Y-73315621D01*
X98887869Y-73267044D01*
X98944700Y-73253500D01*
X101165606Y-73253500D01*
X101233727Y-73273502D01*
X101268819Y-73307229D01*
X101364574Y-73443981D01*
X101378802Y-73464300D01*
X101540700Y-73626198D01*
X101545208Y-73629355D01*
X101545211Y-73629357D01*
X101697771Y-73736181D01*
X101742099Y-73791638D01*
X101751500Y-73839394D01*
X101751500Y-75580606D01*
X101731498Y-75648727D01*
X101697771Y-75683819D01*
X101545211Y-75790643D01*
X101545208Y-75790645D01*
X101540700Y-75793802D01*
X101378802Y-75955700D01*
X101247477Y-76143251D01*
X101245154Y-76148233D01*
X101245151Y-76148238D01*
X101153039Y-76345775D01*
X101150716Y-76350757D01*
X101149294Y-76356065D01*
X101149293Y-76356067D01*
X101092881Y-76566598D01*
X101091457Y-76571913D01*
X101071502Y-76800000D01*
X101091457Y-77028087D01*
X101092881Y-77033400D01*
X101092881Y-77033402D01*
X101132335Y-77180643D01*
X101150716Y-77249243D01*
X101153039Y-77254224D01*
X101153039Y-77254225D01*
X101245151Y-77451762D01*
X101245154Y-77451767D01*
X101247477Y-77456749D01*
X101378802Y-77644300D01*
X101540700Y-77806198D01*
X101545208Y-77809355D01*
X101545211Y-77809357D01*
X101620112Y-77861803D01*
X101728251Y-77937523D01*
X101733233Y-77939846D01*
X101733238Y-77939849D01*
X101930775Y-78031961D01*
X101935757Y-78034284D01*
X101941065Y-78035706D01*
X101941067Y-78035707D01*
X102151598Y-78092119D01*
X102151600Y-78092119D01*
X102156913Y-78093543D01*
X102385000Y-78113498D01*
X102613087Y-78093543D01*
X102618400Y-78092119D01*
X102618402Y-78092119D01*
X102828933Y-78035707D01*
X102828935Y-78035706D01*
X102834243Y-78034284D01*
X102839225Y-78031961D01*
X103036762Y-77939849D01*
X103036767Y-77939846D01*
X103041749Y-77937523D01*
X103149888Y-77861803D01*
X103224789Y-77809357D01*
X103224792Y-77809355D01*
X103229300Y-77806198D01*
X103391198Y-77644300D01*
X103522523Y-77456749D01*
X103524846Y-77451767D01*
X103524849Y-77451762D01*
X103616961Y-77254225D01*
X103616961Y-77254224D01*
X103619284Y-77249243D01*
X103637666Y-77180643D01*
X103677119Y-77033402D01*
X103677119Y-77033400D01*
X103678543Y-77028087D01*
X103698498Y-76800000D01*
X103678543Y-76571913D01*
X103677119Y-76566598D01*
X103620707Y-76356067D01*
X103620706Y-76356065D01*
X103619284Y-76350757D01*
X103616961Y-76345775D01*
X103524849Y-76148238D01*
X103524846Y-76148233D01*
X103522523Y-76143251D01*
X103391198Y-75955700D01*
X103229300Y-75793802D01*
X103224792Y-75790645D01*
X103224789Y-75790643D01*
X103072229Y-75683819D01*
X103027901Y-75628362D01*
X103018500Y-75580606D01*
X103018500Y-73839394D01*
X103038502Y-73771273D01*
X103072229Y-73736181D01*
X103224789Y-73629357D01*
X103224792Y-73629355D01*
X103229300Y-73626198D01*
X103391198Y-73464300D01*
X103522523Y-73276749D01*
X103524846Y-73271767D01*
X103524849Y-73271762D01*
X103616961Y-73074225D01*
X103616961Y-73074224D01*
X103619284Y-73069243D01*
X103624276Y-73050615D01*
X103677119Y-72853402D01*
X103677119Y-72853400D01*
X103678543Y-72848087D01*
X103698498Y-72620000D01*
X103678543Y-72391913D01*
X103677119Y-72386598D01*
X103620707Y-72176067D01*
X103620706Y-72176065D01*
X103619284Y-72170757D01*
X103609544Y-72149870D01*
X103524849Y-71968238D01*
X103524846Y-71968233D01*
X103522523Y-71963251D01*
X103408213Y-71800000D01*
X103394357Y-71780211D01*
X103394355Y-71780208D01*
X103391198Y-71775700D01*
X103229300Y-71613802D01*
X103224792Y-71610645D01*
X103224789Y-71610643D01*
X103146611Y-71555902D01*
X103041749Y-71482477D01*
X103036767Y-71480154D01*
X103036762Y-71480151D01*
X102839225Y-71388039D01*
X102839224Y-71388039D01*
X102834243Y-71385716D01*
X102828935Y-71384294D01*
X102828933Y-71384293D01*
X102618402Y-71327881D01*
X102618400Y-71327881D01*
X102613087Y-71326457D01*
X102385000Y-71306502D01*
X102156913Y-71326457D01*
X102151600Y-71327881D01*
X102151598Y-71327881D01*
X101941067Y-71384293D01*
X101941065Y-71384294D01*
X101935757Y-71385716D01*
X101930776Y-71388039D01*
X101930775Y-71388039D01*
X101733238Y-71480151D01*
X101733233Y-71480154D01*
X101728251Y-71482477D01*
X101623389Y-71555902D01*
X101545211Y-71610643D01*
X101545208Y-71610645D01*
X101540700Y-71613802D01*
X101378802Y-71775700D01*
X101375645Y-71780208D01*
X101375643Y-71780211D01*
X101268819Y-71932771D01*
X101213362Y-71977099D01*
X101165606Y-71986500D01*
X94193767Y-71986500D01*
X94182584Y-71985973D01*
X94175091Y-71984298D01*
X94167165Y-71984547D01*
X94167164Y-71984547D01*
X94107014Y-71986438D01*
X94103055Y-71986500D01*
X94075144Y-71986500D01*
X94071210Y-71986997D01*
X94071209Y-71986997D01*
X94071144Y-71987005D01*
X94059307Y-71987938D01*
X94027490Y-71988938D01*
X94023029Y-71989078D01*
X94015110Y-71989327D01*
X93997454Y-71994456D01*
X93995658Y-71994978D01*
X93976306Y-71998986D01*
X93969235Y-71999880D01*
X93956203Y-72001526D01*
X93948834Y-72004443D01*
X93948832Y-72004444D01*
X93915097Y-72017800D01*
X93903869Y-72021645D01*
X93861407Y-72033982D01*
X93854585Y-72038016D01*
X93854579Y-72038019D01*
X93843968Y-72044294D01*
X93826218Y-72052990D01*
X93814756Y-72057528D01*
X93814751Y-72057531D01*
X93807383Y-72060448D01*
X93800968Y-72065109D01*
X93771625Y-72086427D01*
X93761707Y-72092943D01*
X93743019Y-72103995D01*
X93723637Y-72115458D01*
X93709313Y-72129782D01*
X93694281Y-72142621D01*
X93677893Y-72154528D01*
X93649712Y-72188593D01*
X93641722Y-72197373D01*
X93038247Y-72800848D01*
X92975935Y-72834874D01*
X92916542Y-72833460D01*
X92853087Y-72816457D01*
X92625000Y-72796502D01*
X92396913Y-72816457D01*
X92391600Y-72817881D01*
X92391598Y-72817881D01*
X92181067Y-72874293D01*
X92181065Y-72874294D01*
X92175757Y-72875716D01*
X92170776Y-72878039D01*
X92170775Y-72878039D01*
X91973238Y-72970151D01*
X91973233Y-72970154D01*
X91968251Y-72972477D01*
X91864351Y-73045229D01*
X91785211Y-73100643D01*
X91785208Y-73100645D01*
X91780700Y-73103802D01*
X91618802Y-73265700D01*
X91615643Y-73270211D01*
X91612108Y-73274424D01*
X91610974Y-73273473D01*
X91560929Y-73313471D01*
X91490310Y-73320776D01*
X91426951Y-73288742D01*
X91390970Y-73227538D01*
X91387918Y-73210483D01*
X91386745Y-73199684D01*
X91335615Y-73063295D01*
X91248261Y-72946739D01*
X91131705Y-72859385D01*
X90995316Y-72808255D01*
X90933134Y-72801500D01*
X89236866Y-72801500D01*
X89174684Y-72808255D01*
X89038295Y-72859385D01*
X88921739Y-72946739D01*
X88834385Y-73063295D01*
X88783255Y-73199684D01*
X88776500Y-73261866D01*
X88776500Y-74958134D01*
X86618500Y-74958134D01*
X86618500Y-73839394D01*
X86638502Y-73771273D01*
X86672229Y-73736181D01*
X86824789Y-73629357D01*
X86824792Y-73629355D01*
X86829300Y-73626198D01*
X86991198Y-73464300D01*
X87122523Y-73276749D01*
X87124846Y-73271767D01*
X87124849Y-73271762D01*
X87216961Y-73074225D01*
X87216961Y-73074224D01*
X87219284Y-73069243D01*
X87224276Y-73050615D01*
X87277119Y-72853402D01*
X87277119Y-72853400D01*
X87278543Y-72848087D01*
X87298498Y-72620000D01*
X87278543Y-72391913D01*
X87277119Y-72386598D01*
X87220707Y-72176067D01*
X87220706Y-72176065D01*
X87219284Y-72170757D01*
X87209544Y-72149870D01*
X87124849Y-71968238D01*
X87124846Y-71968233D01*
X87122523Y-71963251D01*
X87008213Y-71800000D01*
X86994357Y-71780211D01*
X86994355Y-71780208D01*
X86991198Y-71775700D01*
X86829300Y-71613802D01*
X86824792Y-71610645D01*
X86824789Y-71610643D01*
X86746611Y-71555902D01*
X86641749Y-71482477D01*
X86636767Y-71480154D01*
X86636762Y-71480151D01*
X86439225Y-71388039D01*
X86439224Y-71388039D01*
X86434243Y-71385716D01*
X86428935Y-71384294D01*
X86428933Y-71384293D01*
X86218402Y-71327881D01*
X86218400Y-71327881D01*
X86213087Y-71326457D01*
X85985000Y-71306502D01*
X85756913Y-71326457D01*
X85751600Y-71327881D01*
X85751598Y-71327881D01*
X85541067Y-71384293D01*
X85541065Y-71384294D01*
X85535757Y-71385716D01*
X85530776Y-71388039D01*
X85530775Y-71388039D01*
X85333238Y-71480151D01*
X85333233Y-71480154D01*
X85328251Y-71482477D01*
X85223389Y-71555902D01*
X85145211Y-71610643D01*
X85145208Y-71610645D01*
X85140700Y-71613802D01*
X84978802Y-71775700D01*
X84975645Y-71780208D01*
X84975643Y-71780211D01*
X84961787Y-71800000D01*
X84847477Y-71963251D01*
X84845154Y-71968233D01*
X84845151Y-71968238D01*
X84760456Y-72149870D01*
X84750716Y-72170757D01*
X84749294Y-72176065D01*
X84749293Y-72176067D01*
X84692881Y-72386598D01*
X84691457Y-72391913D01*
X84671502Y-72620000D01*
X83508500Y-72620000D01*
X83508500Y-65000000D01*
X84671502Y-65000000D01*
X84691457Y-65228087D01*
X84692880Y-65233398D01*
X84692881Y-65233402D01*
X84708460Y-65291541D01*
X84750716Y-65449243D01*
X84753039Y-65454224D01*
X84753039Y-65454225D01*
X84845151Y-65651762D01*
X84845154Y-65651767D01*
X84847477Y-65656749D01*
X84893598Y-65722616D01*
X84971285Y-65833564D01*
X84978802Y-65844300D01*
X85140700Y-66006198D01*
X85145208Y-66009355D01*
X85145211Y-66009357D01*
X85182170Y-66035236D01*
X85328251Y-66137523D01*
X85333233Y-66139846D01*
X85333238Y-66139849D01*
X85530775Y-66231961D01*
X85535757Y-66234284D01*
X85541065Y-66235706D01*
X85541067Y-66235707D01*
X85751598Y-66292119D01*
X85751600Y-66292119D01*
X85756913Y-66293543D01*
X85985000Y-66313498D01*
X86213087Y-66293543D01*
X86218400Y-66292119D01*
X86218402Y-66292119D01*
X86428933Y-66235707D01*
X86428935Y-66235706D01*
X86434243Y-66234284D01*
X86439225Y-66231961D01*
X86636762Y-66139849D01*
X86636767Y-66139846D01*
X86641749Y-66137523D01*
X86787830Y-66035236D01*
X86824789Y-66009357D01*
X86824792Y-66009355D01*
X86829300Y-66006198D01*
X86865093Y-65970405D01*
X86927405Y-65936379D01*
X86954188Y-65933500D01*
X93736233Y-65933500D01*
X93747416Y-65934027D01*
X93754909Y-65935702D01*
X93762835Y-65935453D01*
X93762836Y-65935453D01*
X93822986Y-65933562D01*
X93826945Y-65933500D01*
X93854856Y-65933500D01*
X93858791Y-65933003D01*
X93858856Y-65932995D01*
X93870693Y-65932062D01*
X93902951Y-65931048D01*
X93906970Y-65930922D01*
X93914889Y-65930673D01*
X93934343Y-65925021D01*
X93953700Y-65921013D01*
X93965930Y-65919468D01*
X93965931Y-65919468D01*
X93973797Y-65918474D01*
X93981168Y-65915555D01*
X93981170Y-65915555D01*
X94014912Y-65902196D01*
X94026142Y-65898351D01*
X94060983Y-65888229D01*
X94060984Y-65888229D01*
X94068593Y-65886018D01*
X94075412Y-65881985D01*
X94075417Y-65881983D01*
X94086028Y-65875707D01*
X94103776Y-65867012D01*
X94122617Y-65859552D01*
X94138215Y-65848220D01*
X94158387Y-65833564D01*
X94168307Y-65827048D01*
X94199535Y-65808580D01*
X94199538Y-65808578D01*
X94206362Y-65804542D01*
X94220683Y-65790221D01*
X94235717Y-65777380D01*
X94245694Y-65770131D01*
X94252107Y-65765472D01*
X94280298Y-65731395D01*
X94288288Y-65722616D01*
X94751752Y-65259152D01*
X94814064Y-65225126D01*
X94873459Y-65226541D01*
X94931591Y-65242118D01*
X94931602Y-65242120D01*
X94936913Y-65243543D01*
X95165000Y-65263498D01*
X95393087Y-65243543D01*
X95398392Y-65242121D01*
X95398406Y-65242119D01*
X95456539Y-65226541D01*
X95527516Y-65228229D01*
X95578248Y-65259152D01*
X95763028Y-65443933D01*
X95921353Y-65602258D01*
X95928887Y-65610537D01*
X95933000Y-65617018D01*
X95956906Y-65639467D01*
X95982651Y-65663643D01*
X95985493Y-65666398D01*
X96005230Y-65686135D01*
X96008427Y-65688615D01*
X96017447Y-65696318D01*
X96049679Y-65726586D01*
X96056625Y-65730405D01*
X96056628Y-65730407D01*
X96067434Y-65736348D01*
X96083953Y-65747199D01*
X96099959Y-65759614D01*
X96107228Y-65762759D01*
X96107232Y-65762762D01*
X96140537Y-65777174D01*
X96151187Y-65782391D01*
X96189940Y-65803695D01*
X96197615Y-65805666D01*
X96197616Y-65805666D01*
X96209562Y-65808733D01*
X96228267Y-65815137D01*
X96246855Y-65823181D01*
X96254678Y-65824420D01*
X96254688Y-65824423D01*
X96290524Y-65830099D01*
X96302144Y-65832505D01*
X96330516Y-65839789D01*
X96344970Y-65843500D01*
X96365224Y-65843500D01*
X96384934Y-65845051D01*
X96404943Y-65848220D01*
X96412835Y-65847474D01*
X96448961Y-65844059D01*
X96460819Y-65843500D01*
X101325812Y-65843500D01*
X101393933Y-65863502D01*
X101414907Y-65880405D01*
X101540700Y-66006198D01*
X101545208Y-66009355D01*
X101545211Y-66009357D01*
X101582170Y-66035236D01*
X101728251Y-66137523D01*
X101733233Y-66139846D01*
X101733238Y-66139849D01*
X101930775Y-66231961D01*
X101935757Y-66234284D01*
X101941065Y-66235706D01*
X101941067Y-66235707D01*
X102151598Y-66292119D01*
X102151600Y-66292119D01*
X102156913Y-66293543D01*
X102385000Y-66313498D01*
X102613087Y-66293543D01*
X102618398Y-66292120D01*
X102618409Y-66292118D01*
X102676541Y-66276541D01*
X102747517Y-66278230D01*
X102798248Y-66309152D01*
X106888119Y-70399023D01*
X106922145Y-70461335D01*
X106917080Y-70532150D01*
X106874533Y-70588986D01*
X106852274Y-70602313D01*
X106728238Y-70660151D01*
X106728233Y-70660154D01*
X106723251Y-70662477D01*
X106641884Y-70719451D01*
X106540211Y-70790643D01*
X106540208Y-70790645D01*
X106535700Y-70793802D01*
X106373802Y-70955700D01*
X106242477Y-71143251D01*
X106240154Y-71148233D01*
X106240151Y-71148238D01*
X106157047Y-71326457D01*
X106145716Y-71350757D01*
X106144294Y-71356065D01*
X106144293Y-71356067D01*
X106087881Y-71566598D01*
X106086457Y-71571913D01*
X106066502Y-71800000D01*
X106086457Y-72028087D01*
X106087881Y-72033400D01*
X106087881Y-72033402D01*
X106124686Y-72170757D01*
X106145716Y-72249243D01*
X106148039Y-72254224D01*
X106148039Y-72254225D01*
X106240151Y-72451762D01*
X106240154Y-72451767D01*
X106242477Y-72456749D01*
X106245634Y-72461257D01*
X106360621Y-72625475D01*
X106373802Y-72644300D01*
X106535700Y-72806198D01*
X106540208Y-72809355D01*
X106540211Y-72809357D01*
X106601523Y-72852288D01*
X106723251Y-72937523D01*
X106728233Y-72939846D01*
X106728238Y-72939849D01*
X106888988Y-73014807D01*
X106930757Y-73034284D01*
X106936065Y-73035706D01*
X106936067Y-73035707D01*
X107146598Y-73092119D01*
X107146600Y-73092119D01*
X107151913Y-73093543D01*
X107380000Y-73113498D01*
X107608087Y-73093543D01*
X107613400Y-73092119D01*
X107613402Y-73092119D01*
X107823933Y-73035707D01*
X107823935Y-73035706D01*
X107829243Y-73034284D01*
X107871012Y-73014807D01*
X108031762Y-72939849D01*
X108031767Y-72939846D01*
X108036749Y-72937523D01*
X108158477Y-72852288D01*
X108219789Y-72809357D01*
X108219792Y-72809355D01*
X108224300Y-72806198D01*
X108386198Y-72644300D01*
X108399380Y-72625475D01*
X108514366Y-72461257D01*
X108517523Y-72456749D01*
X108519846Y-72451767D01*
X108519849Y-72451762D01*
X108535805Y-72417543D01*
X108582722Y-72364258D01*
X108650999Y-72344797D01*
X108718959Y-72365339D01*
X108764195Y-72417543D01*
X108780151Y-72451762D01*
X108780154Y-72451767D01*
X108782477Y-72456749D01*
X108785634Y-72461257D01*
X108900621Y-72625475D01*
X108913802Y-72644300D01*
X109075700Y-72806198D01*
X109080208Y-72809355D01*
X109080211Y-72809357D01*
X109141523Y-72852288D01*
X109263251Y-72937523D01*
X109268233Y-72939846D01*
X109268238Y-72939849D01*
X109428988Y-73014807D01*
X109470757Y-73034284D01*
X109476065Y-73035706D01*
X109476067Y-73035707D01*
X109686598Y-73092119D01*
X109686600Y-73092119D01*
X109691913Y-73093543D01*
X109920000Y-73113498D01*
X110148087Y-73093543D01*
X110153400Y-73092119D01*
X110153402Y-73092119D01*
X110363933Y-73035707D01*
X110363935Y-73035706D01*
X110369243Y-73034284D01*
X110411012Y-73014807D01*
X110571762Y-72939849D01*
X110571767Y-72939846D01*
X110576749Y-72937523D01*
X110698477Y-72852288D01*
X110759789Y-72809357D01*
X110759792Y-72809355D01*
X110764300Y-72806198D01*
X110926198Y-72644300D01*
X110939380Y-72625475D01*
X111054366Y-72461257D01*
X111057523Y-72456749D01*
X111059846Y-72451767D01*
X111059849Y-72451762D01*
X111075805Y-72417543D01*
X111122722Y-72364258D01*
X111190999Y-72344797D01*
X111258959Y-72365339D01*
X111304195Y-72417543D01*
X111320151Y-72451762D01*
X111320154Y-72451767D01*
X111322477Y-72456749D01*
X111325634Y-72461257D01*
X111440621Y-72625475D01*
X111453802Y-72644300D01*
X111615700Y-72806198D01*
X111620208Y-72809355D01*
X111620211Y-72809357D01*
X111681523Y-72852288D01*
X111803251Y-72937523D01*
X111808233Y-72939846D01*
X111808238Y-72939849D01*
X111968988Y-73014807D01*
X112010757Y-73034284D01*
X112016065Y-73035706D01*
X112016067Y-73035707D01*
X112226598Y-73092119D01*
X112226600Y-73092119D01*
X112231913Y-73093543D01*
X112460000Y-73113498D01*
X112688087Y-73093543D01*
X112792401Y-73065592D01*
X112863376Y-73067282D01*
X112922172Y-73107076D01*
X112950120Y-73172340D01*
X112951011Y-73187299D01*
X112951011Y-77980894D01*
X112931009Y-78049015D01*
X112914106Y-78069989D01*
X110333247Y-80650848D01*
X110270935Y-80684874D01*
X110211542Y-80683460D01*
X110148087Y-80666457D01*
X109920000Y-80646502D01*
X109691913Y-80666457D01*
X109686600Y-80667881D01*
X109686598Y-80667881D01*
X109476067Y-80724293D01*
X109476065Y-80724294D01*
X109470757Y-80725716D01*
X109465776Y-80728039D01*
X109465775Y-80728039D01*
X109268238Y-80820151D01*
X109268233Y-80820154D01*
X109263251Y-80822477D01*
X109158389Y-80895902D01*
X109080211Y-80950643D01*
X109080208Y-80950645D01*
X109075700Y-80953802D01*
X108913802Y-81115700D01*
X108782477Y-81303251D01*
X108780154Y-81308233D01*
X108780151Y-81308238D01*
X108764195Y-81342457D01*
X108717278Y-81395742D01*
X108649001Y-81415203D01*
X108581041Y-81394661D01*
X108535805Y-81342457D01*
X108519849Y-81308238D01*
X108519846Y-81308233D01*
X108517523Y-81303251D01*
X108386198Y-81115700D01*
X108224300Y-80953802D01*
X108219792Y-80950645D01*
X108219789Y-80950643D01*
X108141611Y-80895902D01*
X108036749Y-80822477D01*
X108031767Y-80820154D01*
X108031762Y-80820151D01*
X107834225Y-80728039D01*
X107834224Y-80728039D01*
X107829243Y-80725716D01*
X107823935Y-80724294D01*
X107823933Y-80724293D01*
X107613402Y-80667881D01*
X107613400Y-80667881D01*
X107608087Y-80666457D01*
X107380000Y-80646502D01*
X107151913Y-80666457D01*
X107146600Y-80667881D01*
X107146598Y-80667881D01*
X106936067Y-80724293D01*
X106936065Y-80724294D01*
X106930757Y-80725716D01*
X106925776Y-80728039D01*
X106925775Y-80728039D01*
X106728238Y-80820151D01*
X106728233Y-80820154D01*
X106723251Y-80822477D01*
X106618389Y-80895902D01*
X106540211Y-80950643D01*
X106540208Y-80950645D01*
X106535700Y-80953802D01*
X106373802Y-81115700D01*
X106242477Y-81303251D01*
X106240154Y-81308233D01*
X106240151Y-81308238D01*
X106224195Y-81342457D01*
X106145716Y-81510757D01*
X106086457Y-81731913D01*
X106066502Y-81960000D01*
X106086457Y-82188087D01*
X106087881Y-82193400D01*
X106087881Y-82193402D01*
X106143467Y-82400848D01*
X106145716Y-82409243D01*
X106148039Y-82414224D01*
X106148039Y-82414225D01*
X106240151Y-82611762D01*
X106240154Y-82611767D01*
X106242477Y-82616749D01*
X106373802Y-82804300D01*
X106535700Y-82966198D01*
X106540208Y-82969355D01*
X106540211Y-82969357D01*
X106618389Y-83024098D01*
X106723251Y-83097523D01*
X106728233Y-83099846D01*
X106728238Y-83099849D01*
X106925775Y-83191961D01*
X106930757Y-83194284D01*
X106936065Y-83195706D01*
X106936067Y-83195707D01*
X107146598Y-83252119D01*
X107146600Y-83252119D01*
X107151913Y-83253543D01*
X107380000Y-83273498D01*
X107385475Y-83273019D01*
X107385476Y-83273019D01*
X107517976Y-83261427D01*
X107587580Y-83275416D01*
X107638573Y-83324816D01*
X107654763Y-83393942D01*
X107631010Y-83460847D01*
X107618052Y-83476043D01*
X107113247Y-83980848D01*
X107050935Y-84014874D01*
X106991539Y-84013459D01*
X106933406Y-83997881D01*
X106933392Y-83997879D01*
X106928087Y-83996457D01*
X106700000Y-83976502D01*
X106471913Y-83996457D01*
X106466600Y-83997881D01*
X106466598Y-83997881D01*
X106256067Y-84054293D01*
X106256065Y-84054294D01*
X106250757Y-84055716D01*
X106245776Y-84058039D01*
X106245775Y-84058039D01*
X106048238Y-84150151D01*
X106048233Y-84150154D01*
X106043251Y-84152477D01*
X105951878Y-84216457D01*
X105860211Y-84280643D01*
X105860208Y-84280645D01*
X105855700Y-84283802D01*
X105693802Y-84445700D01*
X105562477Y-84633251D01*
X105560154Y-84638233D01*
X105560151Y-84638238D01*
X105476677Y-84817251D01*
X105465716Y-84840757D01*
X105464294Y-84846065D01*
X105464293Y-84846067D01*
X105408102Y-85055775D01*
X105406457Y-85061913D01*
X105386502Y-85290000D01*
X105406457Y-85518087D01*
X105407881Y-85523400D01*
X105407881Y-85523402D01*
X105451977Y-85687967D01*
X105465716Y-85739243D01*
X105468039Y-85744224D01*
X105468039Y-85744225D01*
X105560151Y-85941762D01*
X105560154Y-85941767D01*
X105562477Y-85946749D01*
X105606522Y-86009651D01*
X105682538Y-86118213D01*
X105693802Y-86134300D01*
X105855700Y-86296198D01*
X105860208Y-86299355D01*
X105860211Y-86299357D01*
X105911773Y-86335461D01*
X106043251Y-86427523D01*
X106048233Y-86429846D01*
X106048238Y-86429849D01*
X106225059Y-86512301D01*
X106250757Y-86524284D01*
X106256065Y-86525706D01*
X106256067Y-86525707D01*
X106466598Y-86582119D01*
X106466600Y-86582119D01*
X106471913Y-86583543D01*
X106700000Y-86603498D01*
X106928087Y-86583543D01*
X106933400Y-86582119D01*
X106933402Y-86582119D01*
X107143933Y-86525707D01*
X107143935Y-86525706D01*
X107149243Y-86524284D01*
X107174941Y-86512301D01*
X107351762Y-86429849D01*
X107351767Y-86429846D01*
X107356749Y-86427523D01*
X107488227Y-86335461D01*
X107539789Y-86299357D01*
X107539792Y-86299355D01*
X107544300Y-86296198D01*
X107706198Y-86134300D01*
X107717463Y-86118213D01*
X107793478Y-86009651D01*
X107837523Y-85946749D01*
X107839846Y-85941767D01*
X107839849Y-85941762D01*
X107931961Y-85744225D01*
X107931961Y-85744224D01*
X107934284Y-85739243D01*
X107948024Y-85687967D01*
X107956450Y-85656522D01*
X109517273Y-85656522D01*
X109564764Y-85833761D01*
X109568510Y-85844053D01*
X109660586Y-86041511D01*
X109666069Y-86051007D01*
X109791028Y-86229467D01*
X109798084Y-86237875D01*
X109952125Y-86391916D01*
X109960533Y-86398972D01*
X110138993Y-86523931D01*
X110148489Y-86529414D01*
X110345947Y-86621490D01*
X110356239Y-86625236D01*
X110528503Y-86671394D01*
X110542599Y-86671058D01*
X110546000Y-86663116D01*
X110546000Y-86657967D01*
X111054000Y-86657967D01*
X111057973Y-86671498D01*
X111066522Y-86672727D01*
X111243761Y-86625236D01*
X111254053Y-86621490D01*
X111451511Y-86529414D01*
X111461007Y-86523931D01*
X111639467Y-86398972D01*
X111647875Y-86391916D01*
X111801916Y-86237875D01*
X111808972Y-86229467D01*
X111933931Y-86051007D01*
X111939414Y-86041511D01*
X112031490Y-85844053D01*
X112035236Y-85833761D01*
X112081394Y-85661497D01*
X112081058Y-85647401D01*
X112073116Y-85644000D01*
X111072115Y-85644000D01*
X111056876Y-85648475D01*
X111055671Y-85649865D01*
X111054000Y-85657548D01*
X111054000Y-86657967D01*
X110546000Y-86657967D01*
X110546000Y-85662115D01*
X110541525Y-85646876D01*
X110540135Y-85645671D01*
X110532452Y-85644000D01*
X109532033Y-85644000D01*
X109518502Y-85647973D01*
X109517273Y-85656522D01*
X107956450Y-85656522D01*
X107968115Y-85612988D01*
X114378576Y-85612988D01*
X114385644Y-85626434D01*
X115087188Y-86327978D01*
X115101132Y-86335592D01*
X115102965Y-86335461D01*
X115109580Y-86331210D01*
X115815077Y-85625713D01*
X115821507Y-85613938D01*
X115812211Y-85601923D01*
X115761006Y-85566069D01*
X115751511Y-85560586D01*
X115554053Y-85468510D01*
X115543761Y-85464764D01*
X115333312Y-85408375D01*
X115322519Y-85406472D01*
X115105475Y-85387483D01*
X115094525Y-85387483D01*
X114877481Y-85406472D01*
X114866688Y-85408375D01*
X114656239Y-85464764D01*
X114645947Y-85468510D01*
X114448489Y-85560586D01*
X114438994Y-85566069D01*
X114386952Y-85602509D01*
X114378576Y-85612988D01*
X107968115Y-85612988D01*
X107992119Y-85523402D01*
X107992119Y-85523400D01*
X107993543Y-85518087D01*
X108013498Y-85290000D01*
X107998494Y-85118503D01*
X109518606Y-85118503D01*
X109518942Y-85132599D01*
X109526884Y-85136000D01*
X110527885Y-85136000D01*
X110543124Y-85131525D01*
X110544329Y-85130135D01*
X110546000Y-85122452D01*
X110546000Y-85117885D01*
X111054000Y-85117885D01*
X111058475Y-85133124D01*
X111059865Y-85134329D01*
X111067548Y-85136000D01*
X112067967Y-85136000D01*
X112081498Y-85132027D01*
X112082727Y-85123478D01*
X112035236Y-84946239D01*
X112031490Y-84935947D01*
X111939414Y-84738489D01*
X111933931Y-84728993D01*
X111808972Y-84550533D01*
X111801916Y-84542125D01*
X111647875Y-84388084D01*
X111639467Y-84381028D01*
X111461007Y-84256069D01*
X111451511Y-84250586D01*
X111254053Y-84158510D01*
X111243761Y-84154764D01*
X111071497Y-84108606D01*
X111057401Y-84108942D01*
X111054000Y-84116884D01*
X111054000Y-85117885D01*
X110546000Y-85117885D01*
X110546000Y-84122033D01*
X110542027Y-84108502D01*
X110533478Y-84107273D01*
X110356239Y-84154764D01*
X110345947Y-84158510D01*
X110148489Y-84250586D01*
X110138993Y-84256069D01*
X109960533Y-84381028D01*
X109952125Y-84388084D01*
X109798084Y-84542125D01*
X109791028Y-84550533D01*
X109666069Y-84728993D01*
X109660586Y-84738489D01*
X109568510Y-84935947D01*
X109564764Y-84946239D01*
X109518606Y-85118503D01*
X107998494Y-85118503D01*
X107993543Y-85061913D01*
X107992119Y-85056598D01*
X107992118Y-85056591D01*
X107976541Y-84998459D01*
X107978230Y-84927483D01*
X108009152Y-84876752D01*
X109595605Y-83290299D01*
X109657917Y-83256273D01*
X109695681Y-83253873D01*
X109914524Y-83273019D01*
X109914525Y-83273019D01*
X109920000Y-83273498D01*
X110148087Y-83253543D01*
X110153400Y-83252119D01*
X110153402Y-83252119D01*
X110363933Y-83195707D01*
X110363935Y-83195706D01*
X110369243Y-83194284D01*
X110374225Y-83191961D01*
X110571762Y-83099849D01*
X110571767Y-83099846D01*
X110576749Y-83097523D01*
X110681611Y-83024098D01*
X110759789Y-82969357D01*
X110759792Y-82969355D01*
X110764300Y-82966198D01*
X110926198Y-82804300D01*
X111057523Y-82616749D01*
X111059846Y-82611767D01*
X111059849Y-82611762D01*
X111075805Y-82577543D01*
X111122722Y-82524258D01*
X111190999Y-82504797D01*
X111258959Y-82525339D01*
X111304195Y-82577543D01*
X111320151Y-82611762D01*
X111320154Y-82611767D01*
X111322477Y-82616749D01*
X111453802Y-82804300D01*
X111615700Y-82966198D01*
X111620208Y-82969355D01*
X111620211Y-82969357D01*
X111698389Y-83024098D01*
X111803251Y-83097523D01*
X111808233Y-83099846D01*
X111808238Y-83099849D01*
X112005775Y-83191961D01*
X112010757Y-83194284D01*
X112016065Y-83195706D01*
X112016067Y-83195707D01*
X112226598Y-83252119D01*
X112226600Y-83252119D01*
X112231913Y-83253543D01*
X112460000Y-83273498D01*
X112688087Y-83253543D01*
X112693400Y-83252119D01*
X112693402Y-83252119D01*
X112903933Y-83195707D01*
X112903935Y-83195706D01*
X112909243Y-83194284D01*
X112914225Y-83191961D01*
X113111762Y-83099849D01*
X113111767Y-83099846D01*
X113116749Y-83097523D01*
X113221611Y-83024098D01*
X113299789Y-82969357D01*
X113299792Y-82969355D01*
X113304300Y-82966198D01*
X113466198Y-82804300D01*
X113597523Y-82616749D01*
X113599846Y-82611767D01*
X113599849Y-82611762D01*
X113615805Y-82577543D01*
X113662722Y-82524258D01*
X113730999Y-82504797D01*
X113798959Y-82525339D01*
X113844195Y-82577543D01*
X113860151Y-82611762D01*
X113860154Y-82611767D01*
X113862477Y-82616749D01*
X113993802Y-82804300D01*
X114155700Y-82966198D01*
X114160208Y-82969355D01*
X114160211Y-82969357D01*
X114238389Y-83024098D01*
X114343251Y-83097523D01*
X114348233Y-83099846D01*
X114348238Y-83099849D01*
X114545775Y-83191961D01*
X114550757Y-83194284D01*
X114556065Y-83195706D01*
X114556067Y-83195707D01*
X114766598Y-83252119D01*
X114766600Y-83252119D01*
X114771913Y-83253543D01*
X115000000Y-83273498D01*
X115228087Y-83253543D01*
X115233400Y-83252119D01*
X115233402Y-83252119D01*
X115443933Y-83195707D01*
X115443935Y-83195706D01*
X115449243Y-83194284D01*
X115454225Y-83191961D01*
X115651762Y-83099849D01*
X115651767Y-83099846D01*
X115656749Y-83097523D01*
X115761611Y-83024098D01*
X115839789Y-82969357D01*
X115839792Y-82969355D01*
X115844300Y-82966198D01*
X116006198Y-82804300D01*
X116137523Y-82616749D01*
X116139846Y-82611767D01*
X116139849Y-82611762D01*
X116231961Y-82414225D01*
X116231961Y-82414224D01*
X116234284Y-82409243D01*
X116236534Y-82400848D01*
X116292119Y-82193402D01*
X116292119Y-82193400D01*
X116293543Y-82188087D01*
X116313498Y-81960000D01*
X116293543Y-81731913D01*
X116234284Y-81510757D01*
X116155805Y-81342457D01*
X116139849Y-81308238D01*
X116139846Y-81308233D01*
X116137523Y-81303251D01*
X116006198Y-81115700D01*
X115844300Y-80953802D01*
X115839792Y-80950645D01*
X115839789Y-80950643D01*
X115761611Y-80895902D01*
X115656749Y-80822477D01*
X115651767Y-80820154D01*
X115651762Y-80820151D01*
X115454225Y-80728039D01*
X115454224Y-80728039D01*
X115449243Y-80725716D01*
X115443935Y-80724294D01*
X115443933Y-80724293D01*
X115233402Y-80667881D01*
X115233400Y-80667881D01*
X115228087Y-80666457D01*
X115000000Y-80646502D01*
X114771913Y-80666457D01*
X114766600Y-80667881D01*
X114766598Y-80667881D01*
X114556067Y-80724293D01*
X114556065Y-80724294D01*
X114550757Y-80725716D01*
X114545776Y-80728039D01*
X114545775Y-80728039D01*
X114348238Y-80820151D01*
X114348233Y-80820154D01*
X114343251Y-80822477D01*
X114238389Y-80895902D01*
X114160211Y-80950643D01*
X114160208Y-80950645D01*
X114155700Y-80953802D01*
X113993802Y-81115700D01*
X113862477Y-81303251D01*
X113860154Y-81308233D01*
X113860151Y-81308238D01*
X113844195Y-81342457D01*
X113797278Y-81395742D01*
X113729001Y-81415203D01*
X113661041Y-81394661D01*
X113615805Y-81342457D01*
X113599849Y-81308238D01*
X113599846Y-81308233D01*
X113597523Y-81303251D01*
X113466198Y-81115700D01*
X113304300Y-80953802D01*
X113299792Y-80950645D01*
X113299789Y-80950643D01*
X113221611Y-80895902D01*
X113116749Y-80822477D01*
X113111767Y-80820154D01*
X113111762Y-80820151D01*
X112914225Y-80728039D01*
X112914224Y-80728039D01*
X112909243Y-80725716D01*
X112903935Y-80724294D01*
X112903933Y-80724293D01*
X112693402Y-80667881D01*
X112693400Y-80667881D01*
X112688087Y-80666457D01*
X112460000Y-80646502D01*
X112454525Y-80646981D01*
X112454514Y-80646981D01*
X112442570Y-80648026D01*
X112372965Y-80634038D01*
X112321973Y-80584639D01*
X112305782Y-80515513D01*
X112329534Y-80448607D01*
X112342493Y-80433411D01*
X113976758Y-78799146D01*
X113985048Y-78791602D01*
X113991529Y-78787489D01*
X114038170Y-78737821D01*
X114040924Y-78734980D01*
X114060645Y-78715259D01*
X114063123Y-78712064D01*
X114070829Y-78703042D01*
X114095669Y-78676590D01*
X114101097Y-78670810D01*
X114110857Y-78653057D01*
X114121710Y-78636534D01*
X114129264Y-78626795D01*
X114134124Y-78620530D01*
X114151687Y-78579946D01*
X114156894Y-78569316D01*
X114178206Y-78530549D01*
X114180177Y-78522872D01*
X114180179Y-78522867D01*
X114183243Y-78510931D01*
X114189649Y-78492219D01*
X114191739Y-78487391D01*
X114197692Y-78473634D01*
X114198932Y-78465806D01*
X114198934Y-78465799D01*
X114204610Y-78429965D01*
X114207016Y-78418345D01*
X114216039Y-78383200D01*
X114216039Y-78383199D01*
X114218011Y-78375519D01*
X114218011Y-78355265D01*
X114219562Y-78335554D01*
X114221491Y-78323375D01*
X114222731Y-78315546D01*
X114218570Y-78271527D01*
X114218011Y-78259670D01*
X114218011Y-73234500D01*
X114238013Y-73166379D01*
X114291669Y-73119886D01*
X114344011Y-73108500D01*
X115848134Y-73108500D01*
X115910316Y-73101745D01*
X116046705Y-73050615D01*
X116163261Y-72963261D01*
X116250615Y-72846705D01*
X116301745Y-72710316D01*
X116308500Y-72648134D01*
X116308500Y-70951866D01*
X116301745Y-70889684D01*
X116250615Y-70753295D01*
X116163261Y-70636739D01*
X116046705Y-70549385D01*
X115910316Y-70498255D01*
X115848134Y-70491500D01*
X114344011Y-70491500D01*
X114275890Y-70471498D01*
X114229397Y-70417842D01*
X114218011Y-70365500D01*
X114218011Y-70340083D01*
X114238013Y-70271962D01*
X114254916Y-70250988D01*
X114896752Y-69609152D01*
X114959064Y-69575126D01*
X115018459Y-69576541D01*
X115076591Y-69592118D01*
X115076602Y-69592120D01*
X115081913Y-69593543D01*
X115310000Y-69613498D01*
X115538087Y-69593543D01*
X115543400Y-69592119D01*
X115543402Y-69592119D01*
X115753933Y-69535707D01*
X115753935Y-69535706D01*
X115759243Y-69534284D01*
X115768795Y-69529830D01*
X115961762Y-69439849D01*
X115961767Y-69439846D01*
X115966749Y-69437523D01*
X116071611Y-69364098D01*
X116149789Y-69309357D01*
X116149792Y-69309355D01*
X116154300Y-69306198D01*
X116316198Y-69144300D01*
X116348507Y-69098159D01*
X116444366Y-68961257D01*
X116447523Y-68956749D01*
X116449846Y-68951767D01*
X116449849Y-68951762D01*
X116541961Y-68754225D01*
X116541961Y-68754224D01*
X116544284Y-68749243D01*
X116603543Y-68528087D01*
X116623498Y-68300000D01*
X116603543Y-68071913D01*
X116572525Y-67956152D01*
X116545707Y-67856067D01*
X116545706Y-67856065D01*
X116544284Y-67850757D01*
X116530591Y-67821392D01*
X116449849Y-67648238D01*
X116449846Y-67648233D01*
X116447523Y-67643251D01*
X116316198Y-67455700D01*
X116154300Y-67293802D01*
X116149792Y-67290645D01*
X116149789Y-67290643D01*
X116007228Y-67190821D01*
X115966749Y-67162477D01*
X115961767Y-67160154D01*
X115961762Y-67160151D01*
X115764225Y-67068039D01*
X115764224Y-67068039D01*
X115759243Y-67065716D01*
X115753935Y-67064294D01*
X115753933Y-67064293D01*
X115543402Y-67007881D01*
X115543400Y-67007881D01*
X115538087Y-67006457D01*
X115310000Y-66986502D01*
X115081913Y-67006457D01*
X115076600Y-67007881D01*
X115076598Y-67007881D01*
X114866067Y-67064293D01*
X114866065Y-67064294D01*
X114860757Y-67065716D01*
X114855776Y-67068039D01*
X114855775Y-67068039D01*
X114658238Y-67160151D01*
X114658233Y-67160154D01*
X114653251Y-67162477D01*
X114612772Y-67190821D01*
X114470211Y-67290643D01*
X114470208Y-67290645D01*
X114465700Y-67293802D01*
X114303802Y-67455700D01*
X114172477Y-67643251D01*
X114170154Y-67648233D01*
X114170151Y-67648238D01*
X114089409Y-67821392D01*
X114075716Y-67850757D01*
X114074294Y-67856065D01*
X114074293Y-67856067D01*
X114047475Y-67956152D01*
X114016457Y-68071913D01*
X113996502Y-68300000D01*
X114016457Y-68528087D01*
X114017879Y-68533392D01*
X114017881Y-68533406D01*
X114033459Y-68591539D01*
X114031771Y-68662516D01*
X114000848Y-68713248D01*
X113588422Y-69125673D01*
X113192253Y-69521842D01*
X113183974Y-69529376D01*
X113177493Y-69533489D01*
X113145912Y-69567120D01*
X113130868Y-69583140D01*
X113128113Y-69585982D01*
X113108376Y-69605719D01*
X113105896Y-69608916D01*
X113098193Y-69617936D01*
X113067925Y-69650168D01*
X113064106Y-69657114D01*
X113064104Y-69657117D01*
X113058163Y-69667923D01*
X113047312Y-69684442D01*
X113034897Y-69700448D01*
X113031752Y-69707717D01*
X113031749Y-69707721D01*
X113017337Y-69741026D01*
X113012120Y-69751676D01*
X112990816Y-69790429D01*
X112988845Y-69798104D01*
X112988845Y-69798105D01*
X112985778Y-69810051D01*
X112979374Y-69828755D01*
X112971330Y-69847344D01*
X112970091Y-69855167D01*
X112970088Y-69855177D01*
X112964412Y-69891013D01*
X112962006Y-69902633D01*
X112951011Y-69945459D01*
X112951011Y-69965713D01*
X112949460Y-69985423D01*
X112946291Y-70005432D01*
X112947037Y-70013324D01*
X112950452Y-70049450D01*
X112951011Y-70061308D01*
X112951011Y-70412701D01*
X112931009Y-70480822D01*
X112877353Y-70527315D01*
X112807079Y-70537419D01*
X112792407Y-70534410D01*
X112688087Y-70506457D01*
X112460000Y-70486502D01*
X112231913Y-70506457D01*
X112168458Y-70523460D01*
X112097482Y-70521770D01*
X112046753Y-70490848D01*
X109463652Y-67907747D01*
X109456112Y-67899461D01*
X109452000Y-67892982D01*
X109402348Y-67846356D01*
X109399507Y-67843602D01*
X109379770Y-67823865D01*
X109376573Y-67821385D01*
X109367551Y-67813680D01*
X109341100Y-67788841D01*
X109335321Y-67783414D01*
X109328375Y-67779595D01*
X109328372Y-67779593D01*
X109317566Y-67773652D01*
X109301047Y-67762801D01*
X109300583Y-67762441D01*
X109285041Y-67750386D01*
X109277772Y-67747241D01*
X109277768Y-67747238D01*
X109244463Y-67732826D01*
X109233813Y-67727609D01*
X109195060Y-67706305D01*
X109175437Y-67701267D01*
X109156734Y-67694863D01*
X109145420Y-67689967D01*
X109145419Y-67689967D01*
X109138145Y-67686819D01*
X109130322Y-67685580D01*
X109130312Y-67685577D01*
X109094476Y-67679901D01*
X109082856Y-67677495D01*
X109047711Y-67668472D01*
X109047710Y-67668472D01*
X109040030Y-67666500D01*
X109019776Y-67666500D01*
X109000065Y-67664949D01*
X108987886Y-67663020D01*
X108980057Y-67661780D01*
X108972165Y-67662526D01*
X108936039Y-67665941D01*
X108924181Y-67666500D01*
X108909394Y-67666500D01*
X108841273Y-67646498D01*
X108806181Y-67612771D01*
X108699357Y-67460211D01*
X108699355Y-67460208D01*
X108696198Y-67455700D01*
X108534300Y-67293802D01*
X108529792Y-67290645D01*
X108529789Y-67290643D01*
X108387229Y-67190821D01*
X108342901Y-67135364D01*
X108333500Y-67087608D01*
X108333500Y-66019394D01*
X108353502Y-65951273D01*
X108387229Y-65916181D01*
X108539789Y-65809357D01*
X108539792Y-65809355D01*
X108544300Y-65806198D01*
X108706198Y-65644300D01*
X108721501Y-65622446D01*
X108834366Y-65461257D01*
X108837523Y-65456749D01*
X108839846Y-65451767D01*
X108839849Y-65451762D01*
X108931961Y-65254225D01*
X108931961Y-65254224D01*
X108934284Y-65249243D01*
X108935812Y-65243543D01*
X108983245Y-65066522D01*
X114037273Y-65066522D01*
X114084764Y-65243761D01*
X114088510Y-65254053D01*
X114180586Y-65451511D01*
X114186069Y-65461007D01*
X114311028Y-65639467D01*
X114318084Y-65647875D01*
X114472125Y-65801916D01*
X114480533Y-65808972D01*
X114658993Y-65933931D01*
X114668489Y-65939414D01*
X114865947Y-66031490D01*
X114876239Y-66035236D01*
X115048503Y-66081394D01*
X115062599Y-66081058D01*
X115066000Y-66073116D01*
X115066000Y-66067967D01*
X115574000Y-66067967D01*
X115577973Y-66081498D01*
X115586522Y-66082727D01*
X115763761Y-66035236D01*
X115774053Y-66031490D01*
X115971511Y-65939414D01*
X115981007Y-65933931D01*
X116159467Y-65808972D01*
X116167875Y-65801916D01*
X116321916Y-65647875D01*
X116328972Y-65639467D01*
X116453931Y-65461007D01*
X116459414Y-65451511D01*
X116551490Y-65254053D01*
X116555236Y-65243761D01*
X116601394Y-65071497D01*
X116601058Y-65057401D01*
X116593116Y-65054000D01*
X115592115Y-65054000D01*
X115576876Y-65058475D01*
X115575671Y-65059865D01*
X115574000Y-65067548D01*
X115574000Y-66067967D01*
X115066000Y-66067967D01*
X115066000Y-65072115D01*
X115061525Y-65056876D01*
X115060135Y-65055671D01*
X115052452Y-65054000D01*
X114052033Y-65054000D01*
X114038502Y-65057973D01*
X114037273Y-65066522D01*
X108983245Y-65066522D01*
X108992119Y-65033402D01*
X108992119Y-65033400D01*
X108993543Y-65028087D01*
X109013498Y-64800000D01*
X108993543Y-64571913D01*
X108992119Y-64566598D01*
X108981911Y-64528503D01*
X114038606Y-64528503D01*
X114038942Y-64542599D01*
X114046884Y-64546000D01*
X115047885Y-64546000D01*
X115063124Y-64541525D01*
X115064329Y-64540135D01*
X115066000Y-64532452D01*
X115066000Y-64527885D01*
X115574000Y-64527885D01*
X115578475Y-64543124D01*
X115579865Y-64544329D01*
X115587548Y-64546000D01*
X116587967Y-64546000D01*
X116601498Y-64542027D01*
X116602727Y-64533478D01*
X116555236Y-64356239D01*
X116551490Y-64345947D01*
X116459414Y-64148489D01*
X116453931Y-64138993D01*
X116328972Y-63960533D01*
X116321916Y-63952125D01*
X116167875Y-63798084D01*
X116159467Y-63791028D01*
X115981007Y-63666069D01*
X115971511Y-63660586D01*
X115774053Y-63568510D01*
X115763761Y-63564764D01*
X115591497Y-63518606D01*
X115577401Y-63518942D01*
X115574000Y-63526884D01*
X115574000Y-64527885D01*
X115066000Y-64527885D01*
X115066000Y-63532033D01*
X115062027Y-63518502D01*
X115053478Y-63517273D01*
X114876239Y-63564764D01*
X114865947Y-63568510D01*
X114668489Y-63660586D01*
X114658993Y-63666069D01*
X114480533Y-63791028D01*
X114472125Y-63798084D01*
X114318084Y-63952125D01*
X114311028Y-63960533D01*
X114186069Y-64138993D01*
X114180586Y-64148489D01*
X114088510Y-64345947D01*
X114084764Y-64356239D01*
X114038606Y-64528503D01*
X108981911Y-64528503D01*
X108935707Y-64356067D01*
X108935706Y-64356065D01*
X108934284Y-64350757D01*
X108916122Y-64311808D01*
X108839849Y-64148238D01*
X108839846Y-64148233D01*
X108837523Y-64143251D01*
X108735606Y-63997699D01*
X108709357Y-63960211D01*
X108709355Y-63960208D01*
X108706198Y-63955700D01*
X108544300Y-63793802D01*
X108539792Y-63790645D01*
X108539789Y-63790643D01*
X108441632Y-63721913D01*
X108356749Y-63662477D01*
X108351767Y-63660154D01*
X108351762Y-63660151D01*
X108154225Y-63568039D01*
X108154224Y-63568039D01*
X108149243Y-63565716D01*
X108143935Y-63564294D01*
X108143933Y-63564293D01*
X107933402Y-63507881D01*
X107933400Y-63507881D01*
X107928087Y-63506457D01*
X107700000Y-63486502D01*
X107471913Y-63506457D01*
X107466600Y-63507881D01*
X107466598Y-63507881D01*
X107256067Y-63564293D01*
X107256065Y-63564294D01*
X107250757Y-63565716D01*
X107245776Y-63568039D01*
X107245775Y-63568039D01*
X107048238Y-63660151D01*
X107048233Y-63660154D01*
X107043251Y-63662477D01*
X106958368Y-63721913D01*
X106860211Y-63790643D01*
X106860208Y-63790645D01*
X106855700Y-63793802D01*
X106693802Y-63955700D01*
X106690645Y-63960208D01*
X106690643Y-63960211D01*
X106664394Y-63997699D01*
X106562477Y-64143251D01*
X106560154Y-64148233D01*
X106560151Y-64148238D01*
X106483878Y-64311808D01*
X106465716Y-64350757D01*
X106464294Y-64356065D01*
X106464293Y-64356067D01*
X106407881Y-64566598D01*
X106406457Y-64571913D01*
X106386502Y-64800000D01*
X106406457Y-65028087D01*
X106407881Y-65033400D01*
X106407881Y-65033402D01*
X106464189Y-65243543D01*
X106465716Y-65249243D01*
X106468039Y-65254224D01*
X106468039Y-65254225D01*
X106560151Y-65451762D01*
X106560154Y-65451767D01*
X106562477Y-65456749D01*
X106565634Y-65461257D01*
X106678500Y-65622446D01*
X106693802Y-65644300D01*
X106855700Y-65806198D01*
X106860208Y-65809355D01*
X106860211Y-65809357D01*
X107012771Y-65916181D01*
X107057099Y-65971638D01*
X107066500Y-66019394D01*
X107066500Y-67073604D01*
X107046498Y-67141725D01*
X107012771Y-67176817D01*
X106850211Y-67290643D01*
X106850208Y-67290645D01*
X106845700Y-67293802D01*
X106683802Y-67455700D01*
X106552477Y-67643251D01*
X106550154Y-67648233D01*
X106550151Y-67648238D01*
X106469409Y-67821392D01*
X106455716Y-67850757D01*
X106454293Y-67856067D01*
X106454291Y-67856073D01*
X106443718Y-67895530D01*
X106406766Y-67956152D01*
X106342905Y-67987173D01*
X106272411Y-67978743D01*
X106232917Y-67952012D01*
X103694152Y-65413247D01*
X103660126Y-65350935D01*
X103661540Y-65291541D01*
X103669054Y-65263498D01*
X103678543Y-65228087D01*
X103698498Y-65000000D01*
X103678543Y-64771913D01*
X103677119Y-64766598D01*
X103620707Y-64556067D01*
X103620706Y-64556065D01*
X103619284Y-64550757D01*
X103596941Y-64502842D01*
X103524849Y-64348238D01*
X103524846Y-64348233D01*
X103522523Y-64343251D01*
X103406874Y-64178087D01*
X103394357Y-64160211D01*
X103394355Y-64160208D01*
X103391198Y-64155700D01*
X103229300Y-63993802D01*
X103224792Y-63990645D01*
X103224789Y-63990643D01*
X103146611Y-63935902D01*
X103041749Y-63862477D01*
X103036767Y-63860154D01*
X103036762Y-63860151D01*
X102839225Y-63768039D01*
X102839224Y-63768039D01*
X102834243Y-63765716D01*
X102828935Y-63764294D01*
X102828933Y-63764293D01*
X102618402Y-63707881D01*
X102618400Y-63707881D01*
X102613087Y-63706457D01*
X102385000Y-63686502D01*
X102156913Y-63706457D01*
X102151600Y-63707881D01*
X102151598Y-63707881D01*
X101941067Y-63764293D01*
X101941065Y-63764294D01*
X101935757Y-63765716D01*
X101930776Y-63768039D01*
X101930775Y-63768039D01*
X101733238Y-63860151D01*
X101733233Y-63860154D01*
X101728251Y-63862477D01*
X101623389Y-63935902D01*
X101545211Y-63990643D01*
X101545208Y-63990645D01*
X101540700Y-63993802D01*
X101378802Y-64155700D01*
X101375645Y-64160208D01*
X101375643Y-64160211D01*
X101363126Y-64178087D01*
X101247477Y-64343251D01*
X101245153Y-64348236D01*
X101245149Y-64348242D01*
X101172636Y-64503749D01*
X101125719Y-64557035D01*
X101058441Y-64576500D01*
X99054204Y-64576500D01*
X98986083Y-64556498D01*
X98939590Y-64502842D01*
X98929486Y-64432568D01*
X98935804Y-64407403D01*
X98936960Y-64404226D01*
X98939284Y-64399243D01*
X98998543Y-64178087D01*
X99018498Y-63950000D01*
X98998543Y-63721913D01*
X98982617Y-63662477D01*
X98940707Y-63506067D01*
X98940706Y-63506065D01*
X98939284Y-63500757D01*
X98860805Y-63332457D01*
X98844849Y-63298238D01*
X98844846Y-63298233D01*
X98842523Y-63293251D01*
X98711198Y-63105700D01*
X98549300Y-62943802D01*
X98544792Y-62940645D01*
X98544789Y-62940643D01*
X98466611Y-62885902D01*
X98361749Y-62812477D01*
X98356767Y-62810154D01*
X98356762Y-62810151D01*
X98159225Y-62718039D01*
X98159224Y-62718039D01*
X98154243Y-62715716D01*
X98148935Y-62714294D01*
X98148933Y-62714293D01*
X97938402Y-62657881D01*
X97938400Y-62657881D01*
X97933087Y-62656457D01*
X97705000Y-62636502D01*
X97476913Y-62656457D01*
X97471600Y-62657881D01*
X97471598Y-62657881D01*
X97261067Y-62714293D01*
X97261065Y-62714294D01*
X97255757Y-62715716D01*
X97250776Y-62718039D01*
X97250775Y-62718039D01*
X97053238Y-62810151D01*
X97053233Y-62810154D01*
X97048251Y-62812477D01*
X96943389Y-62885902D01*
X96865211Y-62940643D01*
X96865208Y-62940645D01*
X96860700Y-62943802D01*
X96698802Y-63105700D01*
X96567477Y-63293251D01*
X96565154Y-63298233D01*
X96565151Y-63298238D01*
X96549195Y-63332457D01*
X96502278Y-63385742D01*
X96434001Y-63405203D01*
X96366041Y-63384661D01*
X96320805Y-63332457D01*
X96304849Y-63298238D01*
X96304846Y-63298233D01*
X96302523Y-63293251D01*
X96171198Y-63105700D01*
X96009300Y-62943802D01*
X96004792Y-62940645D01*
X96004789Y-62940643D01*
X95926611Y-62885902D01*
X95821749Y-62812477D01*
X95816767Y-62810154D01*
X95816762Y-62810151D01*
X95619225Y-62718039D01*
X95619224Y-62718039D01*
X95614243Y-62715716D01*
X95608935Y-62714294D01*
X95608933Y-62714293D01*
X95398402Y-62657881D01*
X95398400Y-62657881D01*
X95393087Y-62656457D01*
X95165000Y-62636502D01*
X94936913Y-62656457D01*
X94931600Y-62657881D01*
X94931598Y-62657881D01*
X94721067Y-62714293D01*
X94721065Y-62714294D01*
X94715757Y-62715716D01*
X94710776Y-62718039D01*
X94710775Y-62718039D01*
X94513238Y-62810151D01*
X94513233Y-62810154D01*
X94508251Y-62812477D01*
X94403389Y-62885902D01*
X94325211Y-62940643D01*
X94325208Y-62940645D01*
X94320700Y-62943802D01*
X94158802Y-63105700D01*
X94027477Y-63293251D01*
X94025154Y-63298233D01*
X94025151Y-63298238D01*
X94009195Y-63332457D01*
X93962278Y-63385742D01*
X93894001Y-63405203D01*
X93826041Y-63384661D01*
X93780805Y-63332457D01*
X93764849Y-63298238D01*
X93764846Y-63298233D01*
X93762523Y-63293251D01*
X93631198Y-63105700D01*
X93469300Y-62943802D01*
X93464792Y-62940645D01*
X93464789Y-62940643D01*
X93386611Y-62885902D01*
X93281749Y-62812477D01*
X93276767Y-62810154D01*
X93276762Y-62810151D01*
X93079225Y-62718039D01*
X93079224Y-62718039D01*
X93074243Y-62715716D01*
X93068935Y-62714294D01*
X93068933Y-62714293D01*
X92858402Y-62657881D01*
X92858400Y-62657881D01*
X92853087Y-62656457D01*
X92625000Y-62636502D01*
X92396913Y-62656457D01*
X92391600Y-62657881D01*
X92391598Y-62657881D01*
X92181067Y-62714293D01*
X92181065Y-62714294D01*
X92175757Y-62715716D01*
X92170776Y-62718039D01*
X92170775Y-62718039D01*
X91973238Y-62810151D01*
X91973233Y-62810154D01*
X91968251Y-62812477D01*
X91863389Y-62885902D01*
X91785211Y-62940643D01*
X91785208Y-62940645D01*
X91780700Y-62943802D01*
X91618802Y-63105700D01*
X91487477Y-63293251D01*
X91485154Y-63298233D01*
X91485151Y-63298238D01*
X91469195Y-63332457D01*
X91422278Y-63385742D01*
X91354001Y-63405203D01*
X91286041Y-63384661D01*
X91240805Y-63332457D01*
X91224849Y-63298238D01*
X91224846Y-63298233D01*
X91222523Y-63293251D01*
X91091198Y-63105700D01*
X90929300Y-62943802D01*
X90924792Y-62940645D01*
X90924789Y-62940643D01*
X90846611Y-62885902D01*
X90741749Y-62812477D01*
X90736767Y-62810154D01*
X90736762Y-62810151D01*
X90539225Y-62718039D01*
X90539224Y-62718039D01*
X90534243Y-62715716D01*
X90528935Y-62714294D01*
X90528933Y-62714293D01*
X90318402Y-62657881D01*
X90318400Y-62657881D01*
X90313087Y-62656457D01*
X90085000Y-62636502D01*
X89856913Y-62656457D01*
X89851600Y-62657881D01*
X89851598Y-62657881D01*
X89641067Y-62714293D01*
X89641065Y-62714294D01*
X89635757Y-62715716D01*
X89630776Y-62718039D01*
X89630775Y-62718039D01*
X89433238Y-62810151D01*
X89433233Y-62810154D01*
X89428251Y-62812477D01*
X89323389Y-62885902D01*
X89245211Y-62940643D01*
X89245208Y-62940645D01*
X89240700Y-62943802D01*
X89078802Y-63105700D01*
X88947477Y-63293251D01*
X88945154Y-63298233D01*
X88945151Y-63298238D01*
X88929195Y-63332457D01*
X88850716Y-63500757D01*
X88849294Y-63506065D01*
X88849293Y-63506067D01*
X88807383Y-63662477D01*
X88791457Y-63721913D01*
X88771502Y-63950000D01*
X88791457Y-64178087D01*
X88850716Y-64399243D01*
X88853037Y-64404220D01*
X88853039Y-64404226D01*
X88891754Y-64487250D01*
X88902415Y-64557442D01*
X88873435Y-64622255D01*
X88814015Y-64661111D01*
X88777559Y-64666500D01*
X87346981Y-64666500D01*
X87278860Y-64646498D01*
X87232367Y-64592842D01*
X87225275Y-64573113D01*
X87220709Y-64556072D01*
X87220706Y-64556063D01*
X87219284Y-64550757D01*
X87196941Y-64502842D01*
X87124849Y-64348238D01*
X87124846Y-64348233D01*
X87122523Y-64343251D01*
X87006874Y-64178087D01*
X86994357Y-64160211D01*
X86994355Y-64160208D01*
X86991198Y-64155700D01*
X86829300Y-63993802D01*
X86824792Y-63990645D01*
X86824789Y-63990643D01*
X86746611Y-63935902D01*
X86641749Y-63862477D01*
X86636767Y-63860154D01*
X86636762Y-63860151D01*
X86439225Y-63768039D01*
X86439224Y-63768039D01*
X86434243Y-63765716D01*
X86428935Y-63764294D01*
X86428933Y-63764293D01*
X86218402Y-63707881D01*
X86218400Y-63707881D01*
X86213087Y-63706457D01*
X85985000Y-63686502D01*
X85756913Y-63706457D01*
X85751600Y-63707881D01*
X85751598Y-63707881D01*
X85541067Y-63764293D01*
X85541065Y-63764294D01*
X85535757Y-63765716D01*
X85530776Y-63768039D01*
X85530775Y-63768039D01*
X85333238Y-63860151D01*
X85333233Y-63860154D01*
X85328251Y-63862477D01*
X85223389Y-63935902D01*
X85145211Y-63990643D01*
X85145208Y-63990645D01*
X85140700Y-63993802D01*
X84978802Y-64155700D01*
X84975645Y-64160208D01*
X84975643Y-64160211D01*
X84963126Y-64178087D01*
X84847477Y-64343251D01*
X84845154Y-64348233D01*
X84845151Y-64348238D01*
X84773059Y-64502842D01*
X84750716Y-64550757D01*
X84749294Y-64556065D01*
X84749293Y-64556067D01*
X84692881Y-64766598D01*
X84691457Y-64771913D01*
X84671502Y-65000000D01*
X83508500Y-65000000D01*
X83508500Y-61634500D01*
X83528502Y-61566379D01*
X83582158Y-61519886D01*
X83634500Y-61508500D01*
X117365500Y-61508500D01*
X117433621Y-61528502D01*
G37*
%TD.AperFunction*%
%TD*%
M02*
