M48
; DRILL file {KiCad (6.0.5-0)} date 2022 June 21, Tuesday 19:00:15
; FORMAT={-:-/ absolute / inch / decimal}
; #@! TF.CreationDate,2022-06-21T19:00:15+05:30
; #@! TF.GenerationSoftware,Kicad,Pcbnew,(6.0.5-0)
; #@! TF.FileFunction,Plated,1,2,PTH
FMAT,2
INCH
; #@! TA.AperFunction,Plated,PTH,ViaDrill
T1C0.0157
; #@! TA.AperFunction,Plated,PTH,ComponentDrill
T2C0.0315
; #@! TA.AperFunction,Plated,PTH,ComponentDrill
T3C0.0394
%
G90
G05
T1
X3.5Y-3.9331
X3.5695Y-3.9488
X3.9449Y-3.3661
T2
X3.3852Y-2.5591
X3.3852Y-2.8591
X3.3858Y-3.0665
X3.3858Y-3.3665
X3.5449Y-3.5701
X3.5449Y-3.6701
X3.5449Y-3.7701
X3.5449Y-3.8701
X3.5467Y-2.5177
X3.5467Y-2.9177
X3.5585Y-3.0988
X3.5585Y-3.2957
X3.598Y-4.0551
X3.6467Y-2.5177
X3.6467Y-2.9177
X3.7041Y-3.1028
X3.7041Y-3.2996
X3.7467Y-2.5177
X3.7467Y-2.9177
X3.8467Y-2.5177
X3.8467Y-2.9177
X3.8537Y-3.0783
X3.8537Y-3.3783
X3.898Y-4.0551
X3.9449Y-3.5701
X3.9449Y-3.6701
X3.9449Y-3.7701
X3.9449Y-3.8701
X4.0309Y-2.5591
X4.0309Y-2.8591
X4.0309Y-3.0236
X4.0309Y-3.3236
X4.0866Y-3.7516
X4.0866Y-4.0516
X4.2008Y-3.3579
X4.2008Y-3.6579
X4.2276Y-2.8268
X4.2276Y-3.2268
X4.2398Y-2.689
X4.2402Y-2.5512
X4.2441Y-4.0236
X4.311Y-3.8189
X4.3276Y-2.8268
X4.3276Y-3.2268
X4.3622Y-3.3618
X4.3622Y-3.6618
X4.4276Y-2.8268
X4.4276Y-3.2268
X4.5079Y-3.8189
X4.5276Y-2.8268
X4.5276Y-3.2268
X4.5315Y-3.4134
X4.5315Y-3.6102
X4.5398Y-2.689
X4.5402Y-2.5512
X4.5441Y-4.0236
T3
X3.3898Y-3.5833
X3.3898Y-3.6833
X3.3898Y-3.7833
X3.3898Y-3.8833
X3.3898Y-3.9833
T0
M30
