%TF.GenerationSoftware,KiCad,Pcbnew,(6.0.5-0)*%
%TF.CreationDate,2022-07-12T00:15:49+05:30*%
%TF.ProjectId,STM32F103C8T6,53544d33-3246-4313-9033-433854362e6b,rev?*%
%TF.SameCoordinates,Original*%
%TF.FileFunction,Legend,Bot*%
%TF.FilePolarity,Positive*%
%FSLAX46Y46*%
G04 Gerber Fmt 4.6, Leading zero omitted, Abs format (unit mm)*
G04 Created by KiCad (PCBNEW (6.0.5-0)) date 2022-07-12 00:15:49*
%MOMM*%
%LPD*%
G01*
G04 APERTURE LIST*
%ADD10C,0.150000*%
%ADD11C,0.120000*%
G04 APERTURE END LIST*
D10*
%TO.C,J2*%
X153252380Y-114866666D02*
X153966666Y-114866666D01*
X154109523Y-114819047D01*
X154204761Y-114723809D01*
X154252380Y-114580952D01*
X154252380Y-114485714D01*
X153347619Y-115295238D02*
X153300000Y-115342857D01*
X153252380Y-115438095D01*
X153252380Y-115676190D01*
X153300000Y-115771428D01*
X153347619Y-115819047D01*
X153442857Y-115866666D01*
X153538095Y-115866666D01*
X153680952Y-115819047D01*
X154252380Y-115247619D01*
X154252380Y-115866666D01*
%TO.C,J3*%
X153352380Y-139066666D02*
X154066666Y-139066666D01*
X154209523Y-139019047D01*
X154304761Y-138923809D01*
X154352380Y-138780952D01*
X154352380Y-138685714D01*
X153352380Y-139447619D02*
X153352380Y-140066666D01*
X153733333Y-139733333D01*
X153733333Y-139876190D01*
X153780952Y-139971428D01*
X153828571Y-140019047D01*
X153923809Y-140066666D01*
X154161904Y-140066666D01*
X154257142Y-140019047D01*
X154304761Y-139971428D01*
X154352380Y-139876190D01*
X154352380Y-139590476D01*
X154304761Y-139495238D01*
X154257142Y-139447619D01*
D11*
%TO.C,J2*%
X151345000Y-111500000D02*
X115725000Y-111500000D01*
X151345000Y-114160000D02*
X115725000Y-114160000D01*
X115725000Y-114160000D02*
X115725000Y-111500000D01*
X151345000Y-114160000D02*
X151345000Y-111500000D01*
X152615000Y-114160000D02*
X153945000Y-114160000D01*
X153945000Y-114160000D02*
X153945000Y-112830000D01*
%TO.C,J3*%
X152345000Y-142210000D02*
X153675000Y-142210000D01*
X153675000Y-142210000D02*
X153675000Y-140880000D01*
X151075000Y-142210000D02*
X115455000Y-142210000D01*
X151075000Y-142210000D02*
X151075000Y-139550000D01*
X115455000Y-142210000D02*
X115455000Y-139550000D01*
X151075000Y-139550000D02*
X115455000Y-139550000D01*
%TD*%
M02*
