%TF.GenerationSoftware,KiCad,Pcbnew,(6.0.5-0)*%
%TF.CreationDate,2022-07-12T00:15:49+05:30*%
%TF.ProjectId,STM32F103C8T6,53544d33-3246-4313-9033-433854362e6b,rev?*%
%TF.SameCoordinates,Original*%
%TF.FileFunction,Legend,Top*%
%TF.FilePolarity,Positive*%
%FSLAX46Y46*%
G04 Gerber Fmt 4.6, Leading zero omitted, Abs format (unit mm)*
G04 Created by KiCad (PCBNEW (6.0.5-0)) date 2022-07-12 00:15:49*
%MOMM*%
%LPD*%
G01*
G04 APERTURE LIST*
%ADD10C,0.150000*%
%ADD11C,0.125000*%
%ADD12C,0.120000*%
G04 APERTURE END LIST*
D10*
X141525000Y-121946428D02*
X141632142Y-121982142D01*
X141667857Y-122017857D01*
X141703571Y-122089285D01*
X141703571Y-122196428D01*
X141667857Y-122267857D01*
X141632142Y-122303571D01*
X141560714Y-122339285D01*
X141275000Y-122339285D01*
X141275000Y-121589285D01*
X141525000Y-121589285D01*
X141596428Y-121625000D01*
X141632142Y-121660714D01*
X141667857Y-121732142D01*
X141667857Y-121803571D01*
X141632142Y-121875000D01*
X141596428Y-121910714D01*
X141525000Y-121946428D01*
X141275000Y-121946428D01*
X142167857Y-121589285D02*
X142310714Y-121589285D01*
X142382142Y-121625000D01*
X142453571Y-121696428D01*
X142489285Y-121839285D01*
X142489285Y-122089285D01*
X142453571Y-122232142D01*
X142382142Y-122303571D01*
X142310714Y-122339285D01*
X142167857Y-122339285D01*
X142096428Y-122303571D01*
X142025000Y-122232142D01*
X141989285Y-122089285D01*
X141989285Y-121839285D01*
X142025000Y-121696428D01*
X142096428Y-121625000D01*
X142167857Y-121589285D01*
X142953571Y-121589285D02*
X143096428Y-121589285D01*
X143167857Y-121625000D01*
X143239285Y-121696428D01*
X143275000Y-121839285D01*
X143275000Y-122089285D01*
X143239285Y-122232142D01*
X143167857Y-122303571D01*
X143096428Y-122339285D01*
X142953571Y-122339285D01*
X142882142Y-122303571D01*
X142810714Y-122232142D01*
X142775000Y-122089285D01*
X142775000Y-121839285D01*
X142810714Y-121696428D01*
X142882142Y-121625000D01*
X142953571Y-121589285D01*
X143489285Y-121589285D02*
X143917857Y-121589285D01*
X143703571Y-122339285D02*
X143703571Y-121589285D01*
X144310714Y-121589285D02*
X144382142Y-121589285D01*
X144453571Y-121625000D01*
X144489285Y-121660714D01*
X144525000Y-121732142D01*
X144560714Y-121875000D01*
X144560714Y-122053571D01*
X144525000Y-122196428D01*
X144489285Y-122267857D01*
X144453571Y-122303571D01*
X144382142Y-122339285D01*
X144310714Y-122339285D01*
X144239285Y-122303571D01*
X144203571Y-122267857D01*
X144167857Y-122196428D01*
X144132142Y-122053571D01*
X144132142Y-121875000D01*
X144167857Y-121732142D01*
X144203571Y-121660714D01*
X144239285Y-121625000D01*
X144310714Y-121589285D01*
D11*
X117283333Y-138773809D02*
X117283333Y-139273809D01*
X117092857Y-139273809D01*
X117045238Y-139250000D01*
X117021428Y-139226190D01*
X116997619Y-139178571D01*
X116997619Y-139107142D01*
X117021428Y-139059523D01*
X117045238Y-139035714D01*
X117092857Y-139011904D01*
X117283333Y-139011904D01*
X116807142Y-138916666D02*
X116569047Y-138916666D01*
X116854761Y-138773809D02*
X116688095Y-139273809D01*
X116521428Y-138773809D01*
X116402380Y-139273809D02*
X116092857Y-139273809D01*
X116259523Y-139083333D01*
X116188095Y-139083333D01*
X116140476Y-139059523D01*
X116116666Y-139035714D01*
X116092857Y-138988095D01*
X116092857Y-138869047D01*
X116116666Y-138821428D01*
X116140476Y-138797619D01*
X116188095Y-138773809D01*
X116330952Y-138773809D01*
X116378571Y-138797619D01*
X116402380Y-138821428D01*
X119883333Y-138773809D02*
X119883333Y-139273809D01*
X119692857Y-139273809D01*
X119645238Y-139250000D01*
X119621428Y-139226190D01*
X119597619Y-139178571D01*
X119597619Y-139107142D01*
X119621428Y-139059523D01*
X119645238Y-139035714D01*
X119692857Y-139011904D01*
X119883333Y-139011904D01*
X119407142Y-138916666D02*
X119169047Y-138916666D01*
X119454761Y-138773809D02*
X119288095Y-139273809D01*
X119121428Y-138773809D01*
X118740476Y-139107142D02*
X118740476Y-138773809D01*
X118859523Y-139297619D02*
X118978571Y-138940476D01*
X118669047Y-138940476D01*
X122483333Y-138773809D02*
X122483333Y-139273809D01*
X122292857Y-139273809D01*
X122245238Y-139250000D01*
X122221428Y-139226190D01*
X122197619Y-139178571D01*
X122197619Y-139107142D01*
X122221428Y-139059523D01*
X122245238Y-139035714D01*
X122292857Y-139011904D01*
X122483333Y-139011904D01*
X122007142Y-138916666D02*
X121769047Y-138916666D01*
X122054761Y-138773809D02*
X121888095Y-139273809D01*
X121721428Y-138773809D01*
X121316666Y-139273809D02*
X121554761Y-139273809D01*
X121578571Y-139035714D01*
X121554761Y-139059523D01*
X121507142Y-139083333D01*
X121388095Y-139083333D01*
X121340476Y-139059523D01*
X121316666Y-139035714D01*
X121292857Y-138988095D01*
X121292857Y-138869047D01*
X121316666Y-138821428D01*
X121340476Y-138797619D01*
X121388095Y-138773809D01*
X121507142Y-138773809D01*
X121554761Y-138797619D01*
X121578571Y-138821428D01*
X124983333Y-138773809D02*
X124983333Y-139273809D01*
X124792857Y-139273809D01*
X124745238Y-139250000D01*
X124721428Y-139226190D01*
X124697619Y-139178571D01*
X124697619Y-139107142D01*
X124721428Y-139059523D01*
X124745238Y-139035714D01*
X124792857Y-139011904D01*
X124983333Y-139011904D01*
X124507142Y-138916666D02*
X124269047Y-138916666D01*
X124554761Y-138773809D02*
X124388095Y-139273809D01*
X124221428Y-138773809D01*
X123840476Y-139273809D02*
X123935714Y-139273809D01*
X123983333Y-139250000D01*
X124007142Y-139226190D01*
X124054761Y-139154761D01*
X124078571Y-139059523D01*
X124078571Y-138869047D01*
X124054761Y-138821428D01*
X124030952Y-138797619D01*
X123983333Y-138773809D01*
X123888095Y-138773809D01*
X123840476Y-138797619D01*
X123816666Y-138821428D01*
X123792857Y-138869047D01*
X123792857Y-138988095D01*
X123816666Y-139035714D01*
X123840476Y-139059523D01*
X123888095Y-139083333D01*
X123983333Y-139083333D01*
X124030952Y-139059523D01*
X124054761Y-139035714D01*
X124078571Y-138988095D01*
X127583333Y-138773809D02*
X127583333Y-139273809D01*
X127392857Y-139273809D01*
X127345238Y-139250000D01*
X127321428Y-139226190D01*
X127297619Y-139178571D01*
X127297619Y-139107142D01*
X127321428Y-139059523D01*
X127345238Y-139035714D01*
X127392857Y-139011904D01*
X127583333Y-139011904D01*
X127107142Y-138916666D02*
X126869047Y-138916666D01*
X127154761Y-138773809D02*
X126988095Y-139273809D01*
X126821428Y-138773809D01*
X126702380Y-139273809D02*
X126369047Y-139273809D01*
X126583333Y-138773809D01*
X130119047Y-138773809D02*
X130119047Y-139273809D01*
X129928571Y-139273809D01*
X129880952Y-139250000D01*
X129857142Y-139226190D01*
X129833333Y-139178571D01*
X129833333Y-139107142D01*
X129857142Y-139059523D01*
X129880952Y-139035714D01*
X129928571Y-139011904D01*
X130119047Y-139011904D01*
X129452380Y-139035714D02*
X129380952Y-139011904D01*
X129357142Y-138988095D01*
X129333333Y-138940476D01*
X129333333Y-138869047D01*
X129357142Y-138821428D01*
X129380952Y-138797619D01*
X129428571Y-138773809D01*
X129619047Y-138773809D01*
X129619047Y-139273809D01*
X129452380Y-139273809D01*
X129404761Y-139250000D01*
X129380952Y-139226190D01*
X129357142Y-139178571D01*
X129357142Y-139130952D01*
X129380952Y-139083333D01*
X129404761Y-139059523D01*
X129452380Y-139035714D01*
X129619047Y-139035714D01*
X129023809Y-139273809D02*
X128976190Y-139273809D01*
X128928571Y-139250000D01*
X128904761Y-139226190D01*
X128880952Y-139178571D01*
X128857142Y-139083333D01*
X128857142Y-138964285D01*
X128880952Y-138869047D01*
X128904761Y-138821428D01*
X128928571Y-138797619D01*
X128976190Y-138773809D01*
X129023809Y-138773809D01*
X129071428Y-138797619D01*
X129095238Y-138821428D01*
X129119047Y-138869047D01*
X129142857Y-138964285D01*
X129142857Y-139083333D01*
X129119047Y-139178571D01*
X129095238Y-139226190D01*
X129071428Y-139250000D01*
X129023809Y-139273809D01*
X132719047Y-138773809D02*
X132719047Y-139273809D01*
X132528571Y-139273809D01*
X132480952Y-139250000D01*
X132457142Y-139226190D01*
X132433333Y-139178571D01*
X132433333Y-139107142D01*
X132457142Y-139059523D01*
X132480952Y-139035714D01*
X132528571Y-139011904D01*
X132719047Y-139011904D01*
X132052380Y-139035714D02*
X131980952Y-139011904D01*
X131957142Y-138988095D01*
X131933333Y-138940476D01*
X131933333Y-138869047D01*
X131957142Y-138821428D01*
X131980952Y-138797619D01*
X132028571Y-138773809D01*
X132219047Y-138773809D01*
X132219047Y-139273809D01*
X132052380Y-139273809D01*
X132004761Y-139250000D01*
X131980952Y-139226190D01*
X131957142Y-139178571D01*
X131957142Y-139130952D01*
X131980952Y-139083333D01*
X132004761Y-139059523D01*
X132052380Y-139035714D01*
X132219047Y-139035714D01*
X131457142Y-138773809D02*
X131742857Y-138773809D01*
X131600000Y-138773809D02*
X131600000Y-139273809D01*
X131647619Y-139202380D01*
X131695238Y-139154761D01*
X131742857Y-139130952D01*
X135219047Y-138773809D02*
X135219047Y-139273809D01*
X135028571Y-139273809D01*
X134980952Y-139250000D01*
X134957142Y-139226190D01*
X134933333Y-139178571D01*
X134933333Y-139107142D01*
X134957142Y-139059523D01*
X134980952Y-139035714D01*
X135028571Y-139011904D01*
X135219047Y-139011904D01*
X134552380Y-139035714D02*
X134480952Y-139011904D01*
X134457142Y-138988095D01*
X134433333Y-138940476D01*
X134433333Y-138869047D01*
X134457142Y-138821428D01*
X134480952Y-138797619D01*
X134528571Y-138773809D01*
X134719047Y-138773809D01*
X134719047Y-139273809D01*
X134552380Y-139273809D01*
X134504761Y-139250000D01*
X134480952Y-139226190D01*
X134457142Y-139178571D01*
X134457142Y-139130952D01*
X134480952Y-139083333D01*
X134504761Y-139059523D01*
X134552380Y-139035714D01*
X134719047Y-139035714D01*
X134242857Y-139226190D02*
X134219047Y-139250000D01*
X134171428Y-139273809D01*
X134052380Y-139273809D01*
X134004761Y-139250000D01*
X133980952Y-139226190D01*
X133957142Y-139178571D01*
X133957142Y-139130952D01*
X133980952Y-139059523D01*
X134266666Y-138773809D01*
X133957142Y-138773809D01*
X137957142Y-138773809D02*
X137957142Y-139273809D01*
X137766666Y-139273809D01*
X137719047Y-139250000D01*
X137695238Y-139226190D01*
X137671428Y-139178571D01*
X137671428Y-139107142D01*
X137695238Y-139059523D01*
X137719047Y-139035714D01*
X137766666Y-139011904D01*
X137957142Y-139011904D01*
X137290476Y-139035714D02*
X137219047Y-139011904D01*
X137195238Y-138988095D01*
X137171428Y-138940476D01*
X137171428Y-138869047D01*
X137195238Y-138821428D01*
X137219047Y-138797619D01*
X137266666Y-138773809D01*
X137457142Y-138773809D01*
X137457142Y-139273809D01*
X137290476Y-139273809D01*
X137242857Y-139250000D01*
X137219047Y-139226190D01*
X137195238Y-139178571D01*
X137195238Y-139130952D01*
X137219047Y-139083333D01*
X137242857Y-139059523D01*
X137290476Y-139035714D01*
X137457142Y-139035714D01*
X136695238Y-138773809D02*
X136980952Y-138773809D01*
X136838095Y-138773809D02*
X136838095Y-139273809D01*
X136885714Y-139202380D01*
X136933333Y-139154761D01*
X136980952Y-139130952D01*
X136385714Y-139273809D02*
X136338095Y-139273809D01*
X136290476Y-139250000D01*
X136266666Y-139226190D01*
X136242857Y-139178571D01*
X136219047Y-139083333D01*
X136219047Y-138964285D01*
X136242857Y-138869047D01*
X136266666Y-138821428D01*
X136290476Y-138797619D01*
X136338095Y-138773809D01*
X136385714Y-138773809D01*
X136433333Y-138797619D01*
X136457142Y-138821428D01*
X136480952Y-138869047D01*
X136504761Y-138964285D01*
X136504761Y-139083333D01*
X136480952Y-139178571D01*
X136457142Y-139226190D01*
X136433333Y-139250000D01*
X136385714Y-139273809D01*
X140557142Y-138773809D02*
X140557142Y-139273809D01*
X140366666Y-139273809D01*
X140319047Y-139250000D01*
X140295238Y-139226190D01*
X140271428Y-139178571D01*
X140271428Y-139107142D01*
X140295238Y-139059523D01*
X140319047Y-139035714D01*
X140366666Y-139011904D01*
X140557142Y-139011904D01*
X139890476Y-139035714D02*
X139819047Y-139011904D01*
X139795238Y-138988095D01*
X139771428Y-138940476D01*
X139771428Y-138869047D01*
X139795238Y-138821428D01*
X139819047Y-138797619D01*
X139866666Y-138773809D01*
X140057142Y-138773809D01*
X140057142Y-139273809D01*
X139890476Y-139273809D01*
X139842857Y-139250000D01*
X139819047Y-139226190D01*
X139795238Y-139178571D01*
X139795238Y-139130952D01*
X139819047Y-139083333D01*
X139842857Y-139059523D01*
X139890476Y-139035714D01*
X140057142Y-139035714D01*
X139295238Y-138773809D02*
X139580952Y-138773809D01*
X139438095Y-138773809D02*
X139438095Y-139273809D01*
X139485714Y-139202380D01*
X139533333Y-139154761D01*
X139580952Y-139130952D01*
X138819047Y-138773809D02*
X139104761Y-138773809D01*
X138961904Y-138773809D02*
X138961904Y-139273809D01*
X139009523Y-139202380D01*
X139057142Y-139154761D01*
X139104761Y-139130952D01*
X142783333Y-138773809D02*
X142783333Y-139273809D01*
X142592857Y-139273809D01*
X142545238Y-139250000D01*
X142521428Y-139226190D01*
X142497619Y-139178571D01*
X142497619Y-139107142D01*
X142521428Y-139059523D01*
X142545238Y-139035714D01*
X142592857Y-139011904D01*
X142783333Y-139011904D01*
X142307142Y-138916666D02*
X142069047Y-138916666D01*
X142354761Y-138773809D02*
X142188095Y-139273809D01*
X142021428Y-138773809D01*
X141783333Y-139059523D02*
X141830952Y-139083333D01*
X141854761Y-139107142D01*
X141878571Y-139154761D01*
X141878571Y-139178571D01*
X141854761Y-139226190D01*
X141830952Y-139250000D01*
X141783333Y-139273809D01*
X141688095Y-139273809D01*
X141640476Y-139250000D01*
X141616666Y-139226190D01*
X141592857Y-139178571D01*
X141592857Y-139154761D01*
X141616666Y-139107142D01*
X141640476Y-139083333D01*
X141688095Y-139059523D01*
X141783333Y-139059523D01*
X141830952Y-139035714D01*
X141854761Y-139011904D01*
X141878571Y-138964285D01*
X141878571Y-138869047D01*
X141854761Y-138821428D01*
X141830952Y-138797619D01*
X141783333Y-138773809D01*
X141688095Y-138773809D01*
X141640476Y-138797619D01*
X141616666Y-138821428D01*
X141592857Y-138869047D01*
X141592857Y-138964285D01*
X141616666Y-139011904D01*
X141640476Y-139035714D01*
X141688095Y-139059523D01*
X145283333Y-138773809D02*
X145283333Y-139273809D01*
X145092857Y-139273809D01*
X145045238Y-139250000D01*
X145021428Y-139226190D01*
X144997619Y-139178571D01*
X144997619Y-139107142D01*
X145021428Y-139059523D01*
X145045238Y-139035714D01*
X145092857Y-139011904D01*
X145283333Y-139011904D01*
X144807142Y-138916666D02*
X144569047Y-138916666D01*
X144854761Y-138773809D02*
X144688095Y-139273809D01*
X144521428Y-138773809D01*
X144330952Y-138773809D02*
X144235714Y-138773809D01*
X144188095Y-138797619D01*
X144164285Y-138821428D01*
X144116666Y-138892857D01*
X144092857Y-138988095D01*
X144092857Y-139178571D01*
X144116666Y-139226190D01*
X144140476Y-139250000D01*
X144188095Y-139273809D01*
X144283333Y-139273809D01*
X144330952Y-139250000D01*
X144354761Y-139226190D01*
X144378571Y-139178571D01*
X144378571Y-139059523D01*
X144354761Y-139011904D01*
X144330952Y-138988095D01*
X144283333Y-138964285D01*
X144188095Y-138964285D01*
X144140476Y-138988095D01*
X144116666Y-139011904D01*
X144092857Y-139059523D01*
X148121428Y-138873809D02*
X148121428Y-139373809D01*
X147930952Y-139373809D01*
X147883333Y-139350000D01*
X147859523Y-139326190D01*
X147835714Y-139278571D01*
X147835714Y-139207142D01*
X147859523Y-139159523D01*
X147883333Y-139135714D01*
X147930952Y-139111904D01*
X148121428Y-139111904D01*
X147645238Y-139016666D02*
X147407142Y-139016666D01*
X147692857Y-138873809D02*
X147526190Y-139373809D01*
X147359523Y-138873809D01*
X146930952Y-138873809D02*
X147216666Y-138873809D01*
X147073809Y-138873809D02*
X147073809Y-139373809D01*
X147121428Y-139302380D01*
X147169047Y-139254761D01*
X147216666Y-139230952D01*
X146621428Y-139373809D02*
X146573809Y-139373809D01*
X146526190Y-139350000D01*
X146502380Y-139326190D01*
X146478571Y-139278571D01*
X146454761Y-139183333D01*
X146454761Y-139064285D01*
X146478571Y-138969047D01*
X146502380Y-138921428D01*
X146526190Y-138897619D01*
X146573809Y-138873809D01*
X146621428Y-138873809D01*
X146669047Y-138897619D01*
X146692857Y-138921428D01*
X146716666Y-138969047D01*
X146740476Y-139064285D01*
X146740476Y-139183333D01*
X146716666Y-139278571D01*
X146692857Y-139326190D01*
X146669047Y-139350000D01*
X146621428Y-139373809D01*
X150280952Y-139250000D02*
X150328571Y-139273809D01*
X150400000Y-139273809D01*
X150471428Y-139250000D01*
X150519047Y-139202380D01*
X150542857Y-139154761D01*
X150566666Y-139059523D01*
X150566666Y-138988095D01*
X150542857Y-138892857D01*
X150519047Y-138845238D01*
X150471428Y-138797619D01*
X150400000Y-138773809D01*
X150352380Y-138773809D01*
X150280952Y-138797619D01*
X150257142Y-138821428D01*
X150257142Y-138988095D01*
X150352380Y-138988095D01*
X150042857Y-138773809D02*
X150042857Y-139273809D01*
X149757142Y-138773809D01*
X149757142Y-139273809D01*
X149519047Y-138773809D02*
X149519047Y-139273809D01*
X149400000Y-139273809D01*
X149328571Y-139250000D01*
X149280952Y-139202380D01*
X149257142Y-139154761D01*
X149233333Y-139059523D01*
X149233333Y-138988095D01*
X149257142Y-138892857D01*
X149280952Y-138845238D01*
X149328571Y-138797619D01*
X149400000Y-138773809D01*
X149519047Y-138773809D01*
X153019047Y-139273809D02*
X152709523Y-139273809D01*
X152876190Y-139083333D01*
X152804761Y-139083333D01*
X152757142Y-139059523D01*
X152733333Y-139035714D01*
X152709523Y-138988095D01*
X152709523Y-138869047D01*
X152733333Y-138821428D01*
X152757142Y-138797619D01*
X152804761Y-138773809D01*
X152947619Y-138773809D01*
X152995238Y-138797619D01*
X153019047Y-138821428D01*
X152566666Y-139273809D02*
X152400000Y-138773809D01*
X152233333Y-139273809D01*
X152114285Y-139273809D02*
X151804761Y-139273809D01*
X151971428Y-139083333D01*
X151900000Y-139083333D01*
X151852380Y-139059523D01*
X151828571Y-139035714D01*
X151804761Y-138988095D01*
X151804761Y-138869047D01*
X151828571Y-138821428D01*
X151852380Y-138797619D01*
X151900000Y-138773809D01*
X152042857Y-138773809D01*
X152090476Y-138797619D01*
X152114285Y-138821428D01*
X151980952Y-114426190D02*
X152290476Y-114426190D01*
X152123809Y-114616666D01*
X152195238Y-114616666D01*
X152242857Y-114640476D01*
X152266666Y-114664285D01*
X152290476Y-114711904D01*
X152290476Y-114830952D01*
X152266666Y-114878571D01*
X152242857Y-114902380D01*
X152195238Y-114926190D01*
X152052380Y-114926190D01*
X152004761Y-114902380D01*
X151980952Y-114878571D01*
X152433333Y-114426190D02*
X152600000Y-114926190D01*
X152766666Y-114426190D01*
X152885714Y-114426190D02*
X153195238Y-114426190D01*
X153028571Y-114616666D01*
X153100000Y-114616666D01*
X153147619Y-114640476D01*
X153171428Y-114664285D01*
X153195238Y-114711904D01*
X153195238Y-114830952D01*
X153171428Y-114878571D01*
X153147619Y-114902380D01*
X153100000Y-114926190D01*
X152957142Y-114926190D01*
X152909523Y-114902380D01*
X152885714Y-114878571D01*
X149819047Y-114450000D02*
X149771428Y-114426190D01*
X149700000Y-114426190D01*
X149628571Y-114450000D01*
X149580952Y-114497619D01*
X149557142Y-114545238D01*
X149533333Y-114640476D01*
X149533333Y-114711904D01*
X149557142Y-114807142D01*
X149580952Y-114854761D01*
X149628571Y-114902380D01*
X149700000Y-114926190D01*
X149747619Y-114926190D01*
X149819047Y-114902380D01*
X149842857Y-114878571D01*
X149842857Y-114711904D01*
X149747619Y-114711904D01*
X150057142Y-114926190D02*
X150057142Y-114426190D01*
X150342857Y-114926190D01*
X150342857Y-114426190D01*
X150580952Y-114926190D02*
X150580952Y-114426190D01*
X150700000Y-114426190D01*
X150771428Y-114450000D01*
X150819047Y-114497619D01*
X150842857Y-114545238D01*
X150866666Y-114640476D01*
X150866666Y-114711904D01*
X150842857Y-114807142D01*
X150819047Y-114854761D01*
X150771428Y-114902380D01*
X150700000Y-114926190D01*
X150580952Y-114926190D01*
X146640476Y-114902380D02*
X146711904Y-114926190D01*
X146830952Y-114926190D01*
X146878571Y-114902380D01*
X146902380Y-114878571D01*
X146926190Y-114830952D01*
X146926190Y-114783333D01*
X146902380Y-114735714D01*
X146878571Y-114711904D01*
X146830952Y-114688095D01*
X146735714Y-114664285D01*
X146688095Y-114640476D01*
X146664285Y-114616666D01*
X146640476Y-114569047D01*
X146640476Y-114521428D01*
X146664285Y-114473809D01*
X146688095Y-114450000D01*
X146735714Y-114426190D01*
X146854761Y-114426190D01*
X146926190Y-114450000D01*
X147092857Y-114426190D02*
X147211904Y-114926190D01*
X147307142Y-114569047D01*
X147402380Y-114926190D01*
X147521428Y-114426190D01*
X147711904Y-114926190D02*
X147711904Y-114426190D01*
X147830952Y-114426190D01*
X147902380Y-114450000D01*
X147950000Y-114497619D01*
X147973809Y-114545238D01*
X147997619Y-114640476D01*
X147997619Y-114711904D01*
X147973809Y-114807142D01*
X147950000Y-114854761D01*
X147902380Y-114902380D01*
X147830952Y-114926190D01*
X147711904Y-114926190D01*
X148211904Y-114926190D02*
X148211904Y-114426190D01*
X148545238Y-114426190D02*
X148640476Y-114426190D01*
X148688095Y-114450000D01*
X148735714Y-114497619D01*
X148759523Y-114592857D01*
X148759523Y-114759523D01*
X148735714Y-114854761D01*
X148688095Y-114902380D01*
X148640476Y-114926190D01*
X148545238Y-114926190D01*
X148497619Y-114902380D01*
X148450000Y-114854761D01*
X148426190Y-114759523D01*
X148426190Y-114592857D01*
X148450000Y-114497619D01*
X148497619Y-114450000D01*
X148545238Y-114426190D01*
X143969047Y-114902380D02*
X144040476Y-114926190D01*
X144159523Y-114926190D01*
X144207142Y-114902380D01*
X144230952Y-114878571D01*
X144254761Y-114830952D01*
X144254761Y-114783333D01*
X144230952Y-114735714D01*
X144207142Y-114711904D01*
X144159523Y-114688095D01*
X144064285Y-114664285D01*
X144016666Y-114640476D01*
X143992857Y-114616666D01*
X143969047Y-114569047D01*
X143969047Y-114521428D01*
X143992857Y-114473809D01*
X144016666Y-114450000D01*
X144064285Y-114426190D01*
X144183333Y-114426190D01*
X144254761Y-114450000D01*
X144421428Y-114426190D02*
X144540476Y-114926190D01*
X144635714Y-114569047D01*
X144730952Y-114926190D01*
X144850000Y-114426190D01*
X145326190Y-114878571D02*
X145302380Y-114902380D01*
X145230952Y-114926190D01*
X145183333Y-114926190D01*
X145111904Y-114902380D01*
X145064285Y-114854761D01*
X145040476Y-114807142D01*
X145016666Y-114711904D01*
X145016666Y-114640476D01*
X145040476Y-114545238D01*
X145064285Y-114497619D01*
X145111904Y-114450000D01*
X145183333Y-114426190D01*
X145230952Y-114426190D01*
X145302380Y-114450000D01*
X145326190Y-114473809D01*
X145778571Y-114926190D02*
X145540476Y-114926190D01*
X145540476Y-114426190D01*
X145945238Y-114926190D02*
X145945238Y-114426190D01*
X146230952Y-114926190D02*
X146016666Y-114640476D01*
X146230952Y-114426190D02*
X145945238Y-114711904D01*
X141678571Y-114926190D02*
X141678571Y-114426190D01*
X141869047Y-114426190D01*
X141916666Y-114450000D01*
X141940476Y-114473809D01*
X141964285Y-114521428D01*
X141964285Y-114592857D01*
X141940476Y-114640476D01*
X141916666Y-114664285D01*
X141869047Y-114688095D01*
X141678571Y-114688095D01*
X142154761Y-114783333D02*
X142392857Y-114783333D01*
X142107142Y-114926190D02*
X142273809Y-114426190D01*
X142440476Y-114926190D01*
X142869047Y-114926190D02*
X142583333Y-114926190D01*
X142726190Y-114926190D02*
X142726190Y-114426190D01*
X142678571Y-114497619D01*
X142630952Y-114545238D01*
X142583333Y-114569047D01*
X143321428Y-114426190D02*
X143083333Y-114426190D01*
X143059523Y-114664285D01*
X143083333Y-114640476D01*
X143130952Y-114616666D01*
X143250000Y-114616666D01*
X143297619Y-114640476D01*
X143321428Y-114664285D01*
X143345238Y-114711904D01*
X143345238Y-114830952D01*
X143321428Y-114878571D01*
X143297619Y-114902380D01*
X143250000Y-114926190D01*
X143130952Y-114926190D01*
X143083333Y-114902380D01*
X143059523Y-114878571D01*
X139209523Y-114902380D02*
X139280952Y-114926190D01*
X139400000Y-114926190D01*
X139447619Y-114902380D01*
X139471428Y-114878571D01*
X139495238Y-114830952D01*
X139495238Y-114783333D01*
X139471428Y-114735714D01*
X139447619Y-114711904D01*
X139400000Y-114688095D01*
X139304761Y-114664285D01*
X139257142Y-114640476D01*
X139233333Y-114616666D01*
X139209523Y-114569047D01*
X139209523Y-114521428D01*
X139233333Y-114473809D01*
X139257142Y-114450000D01*
X139304761Y-114426190D01*
X139423809Y-114426190D01*
X139495238Y-114450000D01*
X139661904Y-114426190D02*
X139780952Y-114926190D01*
X139876190Y-114569047D01*
X139971428Y-114926190D01*
X140090476Y-114426190D01*
X140376190Y-114426190D02*
X140471428Y-114426190D01*
X140519047Y-114450000D01*
X140566666Y-114497619D01*
X140590476Y-114592857D01*
X140590476Y-114759523D01*
X140566666Y-114854761D01*
X140519047Y-114902380D01*
X140471428Y-114926190D01*
X140376190Y-114926190D01*
X140328571Y-114902380D01*
X140280952Y-114854761D01*
X140257142Y-114759523D01*
X140257142Y-114592857D01*
X140280952Y-114497619D01*
X140328571Y-114450000D01*
X140376190Y-114426190D01*
X136780952Y-114926190D02*
X136780952Y-114426190D01*
X136971428Y-114426190D01*
X137019047Y-114450000D01*
X137042857Y-114473809D01*
X137066666Y-114521428D01*
X137066666Y-114592857D01*
X137042857Y-114640476D01*
X137019047Y-114664285D01*
X136971428Y-114688095D01*
X136780952Y-114688095D01*
X137447619Y-114664285D02*
X137519047Y-114688095D01*
X137542857Y-114711904D01*
X137566666Y-114759523D01*
X137566666Y-114830952D01*
X137542857Y-114878571D01*
X137519047Y-114902380D01*
X137471428Y-114926190D01*
X137280952Y-114926190D01*
X137280952Y-114426190D01*
X137447619Y-114426190D01*
X137495238Y-114450000D01*
X137519047Y-114473809D01*
X137542857Y-114521428D01*
X137542857Y-114569047D01*
X137519047Y-114616666D01*
X137495238Y-114640476D01*
X137447619Y-114664285D01*
X137280952Y-114664285D01*
X137995238Y-114592857D02*
X137995238Y-114926190D01*
X137876190Y-114402380D02*
X137757142Y-114759523D01*
X138066666Y-114759523D01*
X134280952Y-114926190D02*
X134280952Y-114426190D01*
X134471428Y-114426190D01*
X134519047Y-114450000D01*
X134542857Y-114473809D01*
X134566666Y-114521428D01*
X134566666Y-114592857D01*
X134542857Y-114640476D01*
X134519047Y-114664285D01*
X134471428Y-114688095D01*
X134280952Y-114688095D01*
X134947619Y-114664285D02*
X135019047Y-114688095D01*
X135042857Y-114711904D01*
X135066666Y-114759523D01*
X135066666Y-114830952D01*
X135042857Y-114878571D01*
X135019047Y-114902380D01*
X134971428Y-114926190D01*
X134780952Y-114926190D01*
X134780952Y-114426190D01*
X134947619Y-114426190D01*
X134995238Y-114450000D01*
X135019047Y-114473809D01*
X135042857Y-114521428D01*
X135042857Y-114569047D01*
X135019047Y-114616666D01*
X134995238Y-114640476D01*
X134947619Y-114664285D01*
X134780952Y-114664285D01*
X135519047Y-114426190D02*
X135280952Y-114426190D01*
X135257142Y-114664285D01*
X135280952Y-114640476D01*
X135328571Y-114616666D01*
X135447619Y-114616666D01*
X135495238Y-114640476D01*
X135519047Y-114664285D01*
X135542857Y-114711904D01*
X135542857Y-114830952D01*
X135519047Y-114878571D01*
X135495238Y-114902380D01*
X135447619Y-114926190D01*
X135328571Y-114926190D01*
X135280952Y-114902380D01*
X135257142Y-114878571D01*
X131780952Y-114926190D02*
X131780952Y-114426190D01*
X131971428Y-114426190D01*
X132019047Y-114450000D01*
X132042857Y-114473809D01*
X132066666Y-114521428D01*
X132066666Y-114592857D01*
X132042857Y-114640476D01*
X132019047Y-114664285D01*
X131971428Y-114688095D01*
X131780952Y-114688095D01*
X132447619Y-114664285D02*
X132519047Y-114688095D01*
X132542857Y-114711904D01*
X132566666Y-114759523D01*
X132566666Y-114830952D01*
X132542857Y-114878571D01*
X132519047Y-114902380D01*
X132471428Y-114926190D01*
X132280952Y-114926190D01*
X132280952Y-114426190D01*
X132447619Y-114426190D01*
X132495238Y-114450000D01*
X132519047Y-114473809D01*
X132542857Y-114521428D01*
X132542857Y-114569047D01*
X132519047Y-114616666D01*
X132495238Y-114640476D01*
X132447619Y-114664285D01*
X132280952Y-114664285D01*
X132995238Y-114426190D02*
X132900000Y-114426190D01*
X132852380Y-114450000D01*
X132828571Y-114473809D01*
X132780952Y-114545238D01*
X132757142Y-114640476D01*
X132757142Y-114830952D01*
X132780952Y-114878571D01*
X132804761Y-114902380D01*
X132852380Y-114926190D01*
X132947619Y-114926190D01*
X132995238Y-114902380D01*
X133019047Y-114878571D01*
X133042857Y-114830952D01*
X133042857Y-114711904D01*
X133019047Y-114664285D01*
X132995238Y-114640476D01*
X132947619Y-114616666D01*
X132852380Y-114616666D01*
X132804761Y-114640476D01*
X132780952Y-114664285D01*
X132757142Y-114711904D01*
X129180952Y-114926190D02*
X129180952Y-114426190D01*
X129371428Y-114426190D01*
X129419047Y-114450000D01*
X129442857Y-114473809D01*
X129466666Y-114521428D01*
X129466666Y-114592857D01*
X129442857Y-114640476D01*
X129419047Y-114664285D01*
X129371428Y-114688095D01*
X129180952Y-114688095D01*
X129847619Y-114664285D02*
X129919047Y-114688095D01*
X129942857Y-114711904D01*
X129966666Y-114759523D01*
X129966666Y-114830952D01*
X129942857Y-114878571D01*
X129919047Y-114902380D01*
X129871428Y-114926190D01*
X129680952Y-114926190D01*
X129680952Y-114426190D01*
X129847619Y-114426190D01*
X129895238Y-114450000D01*
X129919047Y-114473809D01*
X129942857Y-114521428D01*
X129942857Y-114569047D01*
X129919047Y-114616666D01*
X129895238Y-114640476D01*
X129847619Y-114664285D01*
X129680952Y-114664285D01*
X130133333Y-114426190D02*
X130466666Y-114426190D01*
X130252380Y-114926190D01*
X126680952Y-114926190D02*
X126680952Y-114426190D01*
X126871428Y-114426190D01*
X126919047Y-114450000D01*
X126942857Y-114473809D01*
X126966666Y-114521428D01*
X126966666Y-114592857D01*
X126942857Y-114640476D01*
X126919047Y-114664285D01*
X126871428Y-114688095D01*
X126680952Y-114688095D01*
X127347619Y-114664285D02*
X127419047Y-114688095D01*
X127442857Y-114711904D01*
X127466666Y-114759523D01*
X127466666Y-114830952D01*
X127442857Y-114878571D01*
X127419047Y-114902380D01*
X127371428Y-114926190D01*
X127180952Y-114926190D01*
X127180952Y-114426190D01*
X127347619Y-114426190D01*
X127395238Y-114450000D01*
X127419047Y-114473809D01*
X127442857Y-114521428D01*
X127442857Y-114569047D01*
X127419047Y-114616666D01*
X127395238Y-114640476D01*
X127347619Y-114664285D01*
X127180952Y-114664285D01*
X127752380Y-114640476D02*
X127704761Y-114616666D01*
X127680952Y-114592857D01*
X127657142Y-114545238D01*
X127657142Y-114521428D01*
X127680952Y-114473809D01*
X127704761Y-114450000D01*
X127752380Y-114426190D01*
X127847619Y-114426190D01*
X127895238Y-114450000D01*
X127919047Y-114473809D01*
X127942857Y-114521428D01*
X127942857Y-114545238D01*
X127919047Y-114592857D01*
X127895238Y-114616666D01*
X127847619Y-114640476D01*
X127752380Y-114640476D01*
X127704761Y-114664285D01*
X127680952Y-114688095D01*
X127657142Y-114735714D01*
X127657142Y-114830952D01*
X127680952Y-114878571D01*
X127704761Y-114902380D01*
X127752380Y-114926190D01*
X127847619Y-114926190D01*
X127895238Y-114902380D01*
X127919047Y-114878571D01*
X127942857Y-114830952D01*
X127942857Y-114735714D01*
X127919047Y-114688095D01*
X127895238Y-114664285D01*
X127847619Y-114640476D01*
X124180952Y-114921190D02*
X124180952Y-114421190D01*
X124371428Y-114421190D01*
X124419047Y-114445000D01*
X124442857Y-114468809D01*
X124466666Y-114516428D01*
X124466666Y-114587857D01*
X124442857Y-114635476D01*
X124419047Y-114659285D01*
X124371428Y-114683095D01*
X124180952Y-114683095D01*
X124847619Y-114659285D02*
X124919047Y-114683095D01*
X124942857Y-114706904D01*
X124966666Y-114754523D01*
X124966666Y-114825952D01*
X124942857Y-114873571D01*
X124919047Y-114897380D01*
X124871428Y-114921190D01*
X124680952Y-114921190D01*
X124680952Y-114421190D01*
X124847619Y-114421190D01*
X124895238Y-114445000D01*
X124919047Y-114468809D01*
X124942857Y-114516428D01*
X124942857Y-114564047D01*
X124919047Y-114611666D01*
X124895238Y-114635476D01*
X124847619Y-114659285D01*
X124680952Y-114659285D01*
X125204761Y-114921190D02*
X125300000Y-114921190D01*
X125347619Y-114897380D01*
X125371428Y-114873571D01*
X125419047Y-114802142D01*
X125442857Y-114706904D01*
X125442857Y-114516428D01*
X125419047Y-114468809D01*
X125395238Y-114445000D01*
X125347619Y-114421190D01*
X125252380Y-114421190D01*
X125204761Y-114445000D01*
X125180952Y-114468809D01*
X125157142Y-114516428D01*
X125157142Y-114635476D01*
X125180952Y-114683095D01*
X125204761Y-114706904D01*
X125252380Y-114730714D01*
X125347619Y-114730714D01*
X125395238Y-114706904D01*
X125419047Y-114683095D01*
X125442857Y-114635476D01*
X121242857Y-114923690D02*
X121242857Y-114423690D01*
X121433333Y-114423690D01*
X121480952Y-114447500D01*
X121504761Y-114471309D01*
X121528571Y-114518928D01*
X121528571Y-114590357D01*
X121504761Y-114637976D01*
X121480952Y-114661785D01*
X121433333Y-114685595D01*
X121242857Y-114685595D01*
X122028571Y-114876071D02*
X122004761Y-114899880D01*
X121933333Y-114923690D01*
X121885714Y-114923690D01*
X121814285Y-114899880D01*
X121766666Y-114852261D01*
X121742857Y-114804642D01*
X121719047Y-114709404D01*
X121719047Y-114637976D01*
X121742857Y-114542738D01*
X121766666Y-114495119D01*
X121814285Y-114447500D01*
X121885714Y-114423690D01*
X121933333Y-114423690D01*
X122004761Y-114447500D01*
X122028571Y-114471309D01*
X122504761Y-114923690D02*
X122219047Y-114923690D01*
X122361904Y-114923690D02*
X122361904Y-114423690D01*
X122314285Y-114495119D01*
X122266666Y-114542738D01*
X122219047Y-114566547D01*
X122671428Y-114423690D02*
X122980952Y-114423690D01*
X122814285Y-114614166D01*
X122885714Y-114614166D01*
X122933333Y-114637976D01*
X122957142Y-114661785D01*
X122980952Y-114709404D01*
X122980952Y-114828452D01*
X122957142Y-114876071D01*
X122933333Y-114899880D01*
X122885714Y-114923690D01*
X122742857Y-114923690D01*
X122695238Y-114899880D01*
X122671428Y-114876071D01*
X118742857Y-114926190D02*
X118742857Y-114426190D01*
X118933333Y-114426190D01*
X118980952Y-114450000D01*
X119004761Y-114473809D01*
X119028571Y-114521428D01*
X119028571Y-114592857D01*
X119004761Y-114640476D01*
X118980952Y-114664285D01*
X118933333Y-114688095D01*
X118742857Y-114688095D01*
X119528571Y-114878571D02*
X119504761Y-114902380D01*
X119433333Y-114926190D01*
X119385714Y-114926190D01*
X119314285Y-114902380D01*
X119266666Y-114854761D01*
X119242857Y-114807142D01*
X119219047Y-114711904D01*
X119219047Y-114640476D01*
X119242857Y-114545238D01*
X119266666Y-114497619D01*
X119314285Y-114450000D01*
X119385714Y-114426190D01*
X119433333Y-114426190D01*
X119504761Y-114450000D01*
X119528571Y-114473809D01*
X120004761Y-114926190D02*
X119719047Y-114926190D01*
X119861904Y-114926190D02*
X119861904Y-114426190D01*
X119814285Y-114497619D01*
X119766666Y-114545238D01*
X119719047Y-114569047D01*
X120433333Y-114592857D02*
X120433333Y-114926190D01*
X120314285Y-114402380D02*
X120195238Y-114759523D01*
X120504761Y-114759523D01*
X116242857Y-114926190D02*
X116242857Y-114426190D01*
X116433333Y-114426190D01*
X116480952Y-114450000D01*
X116504761Y-114473809D01*
X116528571Y-114521428D01*
X116528571Y-114592857D01*
X116504761Y-114640476D01*
X116480952Y-114664285D01*
X116433333Y-114688095D01*
X116242857Y-114688095D01*
X117028571Y-114878571D02*
X117004761Y-114902380D01*
X116933333Y-114926190D01*
X116885714Y-114926190D01*
X116814285Y-114902380D01*
X116766666Y-114854761D01*
X116742857Y-114807142D01*
X116719047Y-114711904D01*
X116719047Y-114640476D01*
X116742857Y-114545238D01*
X116766666Y-114497619D01*
X116814285Y-114450000D01*
X116885714Y-114426190D01*
X116933333Y-114426190D01*
X117004761Y-114450000D01*
X117028571Y-114473809D01*
X117504761Y-114926190D02*
X117219047Y-114926190D01*
X117361904Y-114926190D02*
X117361904Y-114426190D01*
X117314285Y-114497619D01*
X117266666Y-114545238D01*
X117219047Y-114569047D01*
X117957142Y-114426190D02*
X117719047Y-114426190D01*
X117695238Y-114664285D01*
X117719047Y-114640476D01*
X117766666Y-114616666D01*
X117885714Y-114616666D01*
X117933333Y-114640476D01*
X117957142Y-114664285D01*
X117980952Y-114711904D01*
X117980952Y-114830952D01*
X117957142Y-114878571D01*
X117933333Y-114902380D01*
X117885714Y-114926190D01*
X117766666Y-114926190D01*
X117719047Y-114902380D01*
X117695238Y-114878571D01*
X118530952Y-131150000D02*
X118483333Y-131126190D01*
X118411904Y-131126190D01*
X118340476Y-131150000D01*
X118292857Y-131197619D01*
X118269047Y-131245238D01*
X118245238Y-131340476D01*
X118245238Y-131411904D01*
X118269047Y-131507142D01*
X118292857Y-131554761D01*
X118340476Y-131602380D01*
X118411904Y-131626190D01*
X118459523Y-131626190D01*
X118530952Y-131602380D01*
X118554761Y-131578571D01*
X118554761Y-131411904D01*
X118459523Y-131411904D01*
X117690476Y-128302380D02*
X117761904Y-128326190D01*
X117880952Y-128326190D01*
X117928571Y-128302380D01*
X117952380Y-128278571D01*
X117976190Y-128230952D01*
X117976190Y-128183333D01*
X117952380Y-128135714D01*
X117928571Y-128111904D01*
X117880952Y-128088095D01*
X117785714Y-128064285D01*
X117738095Y-128040476D01*
X117714285Y-128016666D01*
X117690476Y-127969047D01*
X117690476Y-127921428D01*
X117714285Y-127873809D01*
X117738095Y-127850000D01*
X117785714Y-127826190D01*
X117904761Y-127826190D01*
X117976190Y-127850000D01*
X118142857Y-127826190D02*
X118261904Y-128326190D01*
X118357142Y-127969047D01*
X118452380Y-128326190D01*
X118571428Y-127826190D01*
X118761904Y-128326190D02*
X118761904Y-127826190D01*
X119095238Y-127826190D02*
X119190476Y-127826190D01*
X119238095Y-127850000D01*
X119285714Y-127897619D01*
X119309523Y-127992857D01*
X119309523Y-128159523D01*
X119285714Y-128254761D01*
X119238095Y-128302380D01*
X119190476Y-128326190D01*
X119095238Y-128326190D01*
X119047619Y-128302380D01*
X119000000Y-128254761D01*
X118976190Y-128159523D01*
X118976190Y-127992857D01*
X119000000Y-127897619D01*
X119047619Y-127850000D01*
X119095238Y-127826190D01*
X117880952Y-123626190D02*
X118190476Y-123626190D01*
X118023809Y-123816666D01*
X118095238Y-123816666D01*
X118142857Y-123840476D01*
X118166666Y-123864285D01*
X118190476Y-123911904D01*
X118190476Y-124030952D01*
X118166666Y-124078571D01*
X118142857Y-124102380D01*
X118095238Y-124126190D01*
X117952380Y-124126190D01*
X117904761Y-124102380D01*
X117880952Y-124078571D01*
X118333333Y-123626190D02*
X118500000Y-124126190D01*
X118666666Y-123626190D01*
X118785714Y-123626190D02*
X119095238Y-123626190D01*
X118928571Y-123816666D01*
X119000000Y-123816666D01*
X119047619Y-123840476D01*
X119071428Y-123864285D01*
X119095238Y-123911904D01*
X119095238Y-124030952D01*
X119071428Y-124078571D01*
X119047619Y-124102380D01*
X119000000Y-124126190D01*
X118857142Y-124126190D01*
X118809523Y-124102380D01*
X118785714Y-124078571D01*
X118302380Y-125978571D02*
X118278571Y-126002380D01*
X118207142Y-126026190D01*
X118159523Y-126026190D01*
X118088095Y-126002380D01*
X118040476Y-125954761D01*
X118016666Y-125907142D01*
X117992857Y-125811904D01*
X117992857Y-125740476D01*
X118016666Y-125645238D01*
X118040476Y-125597619D01*
X118088095Y-125550000D01*
X118159523Y-125526190D01*
X118207142Y-125526190D01*
X118278571Y-125550000D01*
X118302380Y-125573809D01*
X118754761Y-126026190D02*
X118516666Y-126026190D01*
X118516666Y-125526190D01*
X118921428Y-126026190D02*
X118921428Y-125526190D01*
X119207142Y-126026190D02*
X118992857Y-125740476D01*
X119207142Y-125526190D02*
X118921428Y-125811904D01*
D10*
%TO.C,J4*%
X111886666Y-133182380D02*
X111886666Y-133896666D01*
X111839047Y-134039523D01*
X111743809Y-134134761D01*
X111600952Y-134182380D01*
X111505714Y-134182380D01*
X112791428Y-133515714D02*
X112791428Y-134182380D01*
X112553333Y-133134761D02*
X112315238Y-133849047D01*
X112934285Y-133849047D01*
D11*
%TO.C,C12*%
X115458571Y-120911428D02*
X115482380Y-120935238D01*
X115506190Y-121006666D01*
X115506190Y-121054285D01*
X115482380Y-121125714D01*
X115434761Y-121173333D01*
X115387142Y-121197142D01*
X115291904Y-121220952D01*
X115220476Y-121220952D01*
X115125238Y-121197142D01*
X115077619Y-121173333D01*
X115030000Y-121125714D01*
X115006190Y-121054285D01*
X115006190Y-121006666D01*
X115030000Y-120935238D01*
X115053809Y-120911428D01*
X115506190Y-120435238D02*
X115506190Y-120720952D01*
X115506190Y-120578095D02*
X115006190Y-120578095D01*
X115077619Y-120625714D01*
X115125238Y-120673333D01*
X115149047Y-120720952D01*
X115053809Y-120244761D02*
X115030000Y-120220952D01*
X115006190Y-120173333D01*
X115006190Y-120054285D01*
X115030000Y-120006666D01*
X115053809Y-119982857D01*
X115101428Y-119959047D01*
X115149047Y-119959047D01*
X115220476Y-119982857D01*
X115506190Y-120268571D01*
X115506190Y-119959047D01*
%TO.C,R1*%
X144096190Y-124263333D02*
X143858095Y-124430000D01*
X144096190Y-124549047D02*
X143596190Y-124549047D01*
X143596190Y-124358571D01*
X143620000Y-124310952D01*
X143643809Y-124287142D01*
X143691428Y-124263333D01*
X143762857Y-124263333D01*
X143810476Y-124287142D01*
X143834285Y-124310952D01*
X143858095Y-124358571D01*
X143858095Y-124549047D01*
X144096190Y-123787142D02*
X144096190Y-124072857D01*
X144096190Y-123930000D02*
X143596190Y-123930000D01*
X143667619Y-123977619D01*
X143715238Y-124025238D01*
X143739047Y-124072857D01*
%TO.C,C2*%
X151616666Y-127278571D02*
X151592857Y-127302380D01*
X151521428Y-127326190D01*
X151473809Y-127326190D01*
X151402380Y-127302380D01*
X151354761Y-127254761D01*
X151330952Y-127207142D01*
X151307142Y-127111904D01*
X151307142Y-127040476D01*
X151330952Y-126945238D01*
X151354761Y-126897619D01*
X151402380Y-126850000D01*
X151473809Y-126826190D01*
X151521428Y-126826190D01*
X151592857Y-126850000D01*
X151616666Y-126873809D01*
X151807142Y-126873809D02*
X151830952Y-126850000D01*
X151878571Y-126826190D01*
X151997619Y-126826190D01*
X152045238Y-126850000D01*
X152069047Y-126873809D01*
X152092857Y-126921428D01*
X152092857Y-126969047D01*
X152069047Y-127040476D01*
X151783333Y-127326190D01*
X152092857Y-127326190D01*
%TO.C,SW1*%
X120233333Y-131702380D02*
X120304761Y-131726190D01*
X120423809Y-131726190D01*
X120471428Y-131702380D01*
X120495238Y-131678571D01*
X120519047Y-131630952D01*
X120519047Y-131583333D01*
X120495238Y-131535714D01*
X120471428Y-131511904D01*
X120423809Y-131488095D01*
X120328571Y-131464285D01*
X120280952Y-131440476D01*
X120257142Y-131416666D01*
X120233333Y-131369047D01*
X120233333Y-131321428D01*
X120257142Y-131273809D01*
X120280952Y-131250000D01*
X120328571Y-131226190D01*
X120447619Y-131226190D01*
X120519047Y-131250000D01*
X120685714Y-131226190D02*
X120804761Y-131726190D01*
X120900000Y-131369047D01*
X120995238Y-131726190D01*
X121114285Y-131226190D01*
X121566666Y-131726190D02*
X121280952Y-131726190D01*
X121423809Y-131726190D02*
X121423809Y-131226190D01*
X121376190Y-131297619D01*
X121328571Y-131345238D01*
X121280952Y-131369047D01*
%TO.C,Y1*%
X127561904Y-133988095D02*
X127561904Y-134226190D01*
X127395238Y-133726190D02*
X127561904Y-133988095D01*
X127728571Y-133726190D01*
X128157142Y-134226190D02*
X127871428Y-134226190D01*
X128014285Y-134226190D02*
X128014285Y-133726190D01*
X127966666Y-133797619D01*
X127919047Y-133845238D01*
X127871428Y-133869047D01*
%TO.C,C4*%
X123778571Y-122683333D02*
X123802380Y-122707142D01*
X123826190Y-122778571D01*
X123826190Y-122826190D01*
X123802380Y-122897619D01*
X123754761Y-122945238D01*
X123707142Y-122969047D01*
X123611904Y-122992857D01*
X123540476Y-122992857D01*
X123445238Y-122969047D01*
X123397619Y-122945238D01*
X123350000Y-122897619D01*
X123326190Y-122826190D01*
X123326190Y-122778571D01*
X123350000Y-122707142D01*
X123373809Y-122683333D01*
X123492857Y-122254761D02*
X123826190Y-122254761D01*
X123302380Y-122373809D02*
X123659523Y-122492857D01*
X123659523Y-122183333D01*
%TO.C,R6*%
X146326190Y-122183333D02*
X146088095Y-122350000D01*
X146326190Y-122469047D02*
X145826190Y-122469047D01*
X145826190Y-122278571D01*
X145850000Y-122230952D01*
X145873809Y-122207142D01*
X145921428Y-122183333D01*
X145992857Y-122183333D01*
X146040476Y-122207142D01*
X146064285Y-122230952D01*
X146088095Y-122278571D01*
X146088095Y-122469047D01*
X145826190Y-121754761D02*
X145826190Y-121850000D01*
X145850000Y-121897619D01*
X145873809Y-121921428D01*
X145945238Y-121969047D01*
X146040476Y-121992857D01*
X146230952Y-121992857D01*
X146278571Y-121969047D01*
X146302380Y-121945238D01*
X146326190Y-121897619D01*
X146326190Y-121802380D01*
X146302380Y-121754761D01*
X146278571Y-121730952D01*
X146230952Y-121707142D01*
X146111904Y-121707142D01*
X146064285Y-121730952D01*
X146040476Y-121754761D01*
X146016666Y-121802380D01*
X146016666Y-121897619D01*
X146040476Y-121945238D01*
X146064285Y-121969047D01*
X146111904Y-121992857D01*
%TO.C,C7*%
X132916666Y-120418571D02*
X132892857Y-120442380D01*
X132821428Y-120466190D01*
X132773809Y-120466190D01*
X132702380Y-120442380D01*
X132654761Y-120394761D01*
X132630952Y-120347142D01*
X132607142Y-120251904D01*
X132607142Y-120180476D01*
X132630952Y-120085238D01*
X132654761Y-120037619D01*
X132702380Y-119990000D01*
X132773809Y-119966190D01*
X132821428Y-119966190D01*
X132892857Y-119990000D01*
X132916666Y-120013809D01*
X133083333Y-119966190D02*
X133416666Y-119966190D01*
X133202380Y-120466190D01*
%TO.C,R10*%
X123726190Y-126021428D02*
X123488095Y-126188095D01*
X123726190Y-126307142D02*
X123226190Y-126307142D01*
X123226190Y-126116666D01*
X123250000Y-126069047D01*
X123273809Y-126045238D01*
X123321428Y-126021428D01*
X123392857Y-126021428D01*
X123440476Y-126045238D01*
X123464285Y-126069047D01*
X123488095Y-126116666D01*
X123488095Y-126307142D01*
X123726190Y-125545238D02*
X123726190Y-125830952D01*
X123726190Y-125688095D02*
X123226190Y-125688095D01*
X123297619Y-125735714D01*
X123345238Y-125783333D01*
X123369047Y-125830952D01*
X123226190Y-125235714D02*
X123226190Y-125188095D01*
X123250000Y-125140476D01*
X123273809Y-125116666D01*
X123321428Y-125092857D01*
X123416666Y-125069047D01*
X123535714Y-125069047D01*
X123630952Y-125092857D01*
X123678571Y-125116666D01*
X123702380Y-125140476D01*
X123726190Y-125188095D01*
X123726190Y-125235714D01*
X123702380Y-125283333D01*
X123678571Y-125307142D01*
X123630952Y-125330952D01*
X123535714Y-125354761D01*
X123416666Y-125354761D01*
X123321428Y-125330952D01*
X123273809Y-125307142D01*
X123250000Y-125283333D01*
X123226190Y-125235714D01*
%TO.C,C13*%
X121078571Y-117778571D02*
X121054761Y-117802380D01*
X120983333Y-117826190D01*
X120935714Y-117826190D01*
X120864285Y-117802380D01*
X120816666Y-117754761D01*
X120792857Y-117707142D01*
X120769047Y-117611904D01*
X120769047Y-117540476D01*
X120792857Y-117445238D01*
X120816666Y-117397619D01*
X120864285Y-117350000D01*
X120935714Y-117326190D01*
X120983333Y-117326190D01*
X121054761Y-117350000D01*
X121078571Y-117373809D01*
X121554761Y-117826190D02*
X121269047Y-117826190D01*
X121411904Y-117826190D02*
X121411904Y-117326190D01*
X121364285Y-117397619D01*
X121316666Y-117445238D01*
X121269047Y-117469047D01*
X121721428Y-117326190D02*
X122030952Y-117326190D01*
X121864285Y-117516666D01*
X121935714Y-117516666D01*
X121983333Y-117540476D01*
X122007142Y-117564285D01*
X122030952Y-117611904D01*
X122030952Y-117730952D01*
X122007142Y-117778571D01*
X121983333Y-117802380D01*
X121935714Y-117826190D01*
X121792857Y-117826190D01*
X121745238Y-117802380D01*
X121721428Y-117778571D01*
%TO.C,C3*%
X131278571Y-123083333D02*
X131302380Y-123107142D01*
X131326190Y-123178571D01*
X131326190Y-123226190D01*
X131302380Y-123297619D01*
X131254761Y-123345238D01*
X131207142Y-123369047D01*
X131111904Y-123392857D01*
X131040476Y-123392857D01*
X130945238Y-123369047D01*
X130897619Y-123345238D01*
X130850000Y-123297619D01*
X130826190Y-123226190D01*
X130826190Y-123178571D01*
X130850000Y-123107142D01*
X130873809Y-123083333D01*
X130826190Y-122916666D02*
X130826190Y-122607142D01*
X131016666Y-122773809D01*
X131016666Y-122702380D01*
X131040476Y-122654761D01*
X131064285Y-122630952D01*
X131111904Y-122607142D01*
X131230952Y-122607142D01*
X131278571Y-122630952D01*
X131302380Y-122654761D01*
X131326190Y-122702380D01*
X131326190Y-122845238D01*
X131302380Y-122892857D01*
X131278571Y-122916666D01*
%TO.C,R8*%
X119026190Y-116820833D02*
X118788095Y-116987500D01*
X119026190Y-117106547D02*
X118526190Y-117106547D01*
X118526190Y-116916071D01*
X118550000Y-116868452D01*
X118573809Y-116844642D01*
X118621428Y-116820833D01*
X118692857Y-116820833D01*
X118740476Y-116844642D01*
X118764285Y-116868452D01*
X118788095Y-116916071D01*
X118788095Y-117106547D01*
X118740476Y-116535119D02*
X118716666Y-116582738D01*
X118692857Y-116606547D01*
X118645238Y-116630357D01*
X118621428Y-116630357D01*
X118573809Y-116606547D01*
X118550000Y-116582738D01*
X118526190Y-116535119D01*
X118526190Y-116439880D01*
X118550000Y-116392261D01*
X118573809Y-116368452D01*
X118621428Y-116344642D01*
X118645238Y-116344642D01*
X118692857Y-116368452D01*
X118716666Y-116392261D01*
X118740476Y-116439880D01*
X118740476Y-116535119D01*
X118764285Y-116582738D01*
X118788095Y-116606547D01*
X118835714Y-116630357D01*
X118930952Y-116630357D01*
X118978571Y-116606547D01*
X119002380Y-116582738D01*
X119026190Y-116535119D01*
X119026190Y-116439880D01*
X119002380Y-116392261D01*
X118978571Y-116368452D01*
X118930952Y-116344642D01*
X118835714Y-116344642D01*
X118788095Y-116368452D01*
X118764285Y-116392261D01*
X118740476Y-116439880D01*
%TO.C,C8*%
X141878571Y-124283333D02*
X141902380Y-124307142D01*
X141926190Y-124378571D01*
X141926190Y-124426190D01*
X141902380Y-124497619D01*
X141854761Y-124545238D01*
X141807142Y-124569047D01*
X141711904Y-124592857D01*
X141640476Y-124592857D01*
X141545238Y-124569047D01*
X141497619Y-124545238D01*
X141450000Y-124497619D01*
X141426190Y-124426190D01*
X141426190Y-124378571D01*
X141450000Y-124307142D01*
X141473809Y-124283333D01*
X141640476Y-123997619D02*
X141616666Y-124045238D01*
X141592857Y-124069047D01*
X141545238Y-124092857D01*
X141521428Y-124092857D01*
X141473809Y-124069047D01*
X141450000Y-124045238D01*
X141426190Y-123997619D01*
X141426190Y-123902380D01*
X141450000Y-123854761D01*
X141473809Y-123830952D01*
X141521428Y-123807142D01*
X141545238Y-123807142D01*
X141592857Y-123830952D01*
X141616666Y-123854761D01*
X141640476Y-123902380D01*
X141640476Y-123997619D01*
X141664285Y-124045238D01*
X141688095Y-124069047D01*
X141735714Y-124092857D01*
X141830952Y-124092857D01*
X141878571Y-124069047D01*
X141902380Y-124045238D01*
X141926190Y-123997619D01*
X141926190Y-123902380D01*
X141902380Y-123854761D01*
X141878571Y-123830952D01*
X141830952Y-123807142D01*
X141735714Y-123807142D01*
X141688095Y-123830952D01*
X141664285Y-123854761D01*
X141640476Y-123902380D01*
%TO.C,R5*%
X147616666Y-119426190D02*
X147450000Y-119188095D01*
X147330952Y-119426190D02*
X147330952Y-118926190D01*
X147521428Y-118926190D01*
X147569047Y-118950000D01*
X147592857Y-118973809D01*
X147616666Y-119021428D01*
X147616666Y-119092857D01*
X147592857Y-119140476D01*
X147569047Y-119164285D01*
X147521428Y-119188095D01*
X147330952Y-119188095D01*
X148069047Y-118926190D02*
X147830952Y-118926190D01*
X147807142Y-119164285D01*
X147830952Y-119140476D01*
X147878571Y-119116666D01*
X147997619Y-119116666D01*
X148045238Y-119140476D01*
X148069047Y-119164285D01*
X148092857Y-119211904D01*
X148092857Y-119330952D01*
X148069047Y-119378571D01*
X148045238Y-119402380D01*
X147997619Y-119426190D01*
X147878571Y-119426190D01*
X147830952Y-119402380D01*
X147807142Y-119378571D01*
%TO.C,R2*%
X142716666Y-116196190D02*
X142550000Y-115958095D01*
X142430952Y-116196190D02*
X142430952Y-115696190D01*
X142621428Y-115696190D01*
X142669047Y-115720000D01*
X142692857Y-115743809D01*
X142716666Y-115791428D01*
X142716666Y-115862857D01*
X142692857Y-115910476D01*
X142669047Y-115934285D01*
X142621428Y-115958095D01*
X142430952Y-115958095D01*
X142907142Y-115743809D02*
X142930952Y-115720000D01*
X142978571Y-115696190D01*
X143097619Y-115696190D01*
X143145238Y-115720000D01*
X143169047Y-115743809D01*
X143192857Y-115791428D01*
X143192857Y-115839047D01*
X143169047Y-115910476D01*
X142883333Y-116196190D01*
X143192857Y-116196190D01*
%TO.C,J5*%
X145626190Y-119966666D02*
X145983333Y-119966666D01*
X146054761Y-119990476D01*
X146102380Y-120038095D01*
X146126190Y-120109523D01*
X146126190Y-120157142D01*
X145626190Y-119490476D02*
X145626190Y-119728571D01*
X145864285Y-119752380D01*
X145840476Y-119728571D01*
X145816666Y-119680952D01*
X145816666Y-119561904D01*
X145840476Y-119514285D01*
X145864285Y-119490476D01*
X145911904Y-119466666D01*
X146030952Y-119466666D01*
X146078571Y-119490476D01*
X146102380Y-119514285D01*
X146126190Y-119561904D01*
X146126190Y-119680952D01*
X146102380Y-119728571D01*
X146078571Y-119752380D01*
%TO.C,U1*%
X135729047Y-121186190D02*
X135729047Y-121590952D01*
X135752857Y-121638571D01*
X135776666Y-121662380D01*
X135824285Y-121686190D01*
X135919523Y-121686190D01*
X135967142Y-121662380D01*
X135990952Y-121638571D01*
X136014761Y-121590952D01*
X136014761Y-121186190D01*
X136514761Y-121686190D02*
X136229047Y-121686190D01*
X136371904Y-121686190D02*
X136371904Y-121186190D01*
X136324285Y-121257619D01*
X136276666Y-121305238D01*
X136229047Y-121329047D01*
%TO.C,C1*%
X148406666Y-127228571D02*
X148382857Y-127252380D01*
X148311428Y-127276190D01*
X148263809Y-127276190D01*
X148192380Y-127252380D01*
X148144761Y-127204761D01*
X148120952Y-127157142D01*
X148097142Y-127061904D01*
X148097142Y-126990476D01*
X148120952Y-126895238D01*
X148144761Y-126847619D01*
X148192380Y-126800000D01*
X148263809Y-126776190D01*
X148311428Y-126776190D01*
X148382857Y-126800000D01*
X148406666Y-126823809D01*
X148882857Y-127276190D02*
X148597142Y-127276190D01*
X148740000Y-127276190D02*
X148740000Y-126776190D01*
X148692380Y-126847619D01*
X148644761Y-126895238D01*
X148597142Y-126919047D01*
%TO.C,R9*%
X119426190Y-121083333D02*
X119188095Y-121250000D01*
X119426190Y-121369047D02*
X118926190Y-121369047D01*
X118926190Y-121178571D01*
X118950000Y-121130952D01*
X118973809Y-121107142D01*
X119021428Y-121083333D01*
X119092857Y-121083333D01*
X119140476Y-121107142D01*
X119164285Y-121130952D01*
X119188095Y-121178571D01*
X119188095Y-121369047D01*
X119426190Y-120845238D02*
X119426190Y-120750000D01*
X119402380Y-120702380D01*
X119378571Y-120678571D01*
X119307142Y-120630952D01*
X119211904Y-120607142D01*
X119021428Y-120607142D01*
X118973809Y-120630952D01*
X118950000Y-120654761D01*
X118926190Y-120702380D01*
X118926190Y-120797619D01*
X118950000Y-120845238D01*
X118973809Y-120869047D01*
X119021428Y-120892857D01*
X119140476Y-120892857D01*
X119188095Y-120869047D01*
X119211904Y-120845238D01*
X119235714Y-120797619D01*
X119235714Y-120702380D01*
X119211904Y-120654761D01*
X119188095Y-120630952D01*
X119140476Y-120607142D01*
%TO.C,R7*%
X147516666Y-125026190D02*
X147350000Y-124788095D01*
X147230952Y-125026190D02*
X147230952Y-124526190D01*
X147421428Y-124526190D01*
X147469047Y-124550000D01*
X147492857Y-124573809D01*
X147516666Y-124621428D01*
X147516666Y-124692857D01*
X147492857Y-124740476D01*
X147469047Y-124764285D01*
X147421428Y-124788095D01*
X147230952Y-124788095D01*
X147683333Y-124526190D02*
X148016666Y-124526190D01*
X147802380Y-125026190D01*
D10*
%TO.C,J1*%
X148212380Y-121973333D02*
X148926666Y-121973333D01*
X149069523Y-122020952D01*
X149164761Y-122116190D01*
X149212380Y-122259047D01*
X149212380Y-122354285D01*
X149212380Y-120973333D02*
X149212380Y-121544761D01*
X149212380Y-121259047D02*
X148212380Y-121259047D01*
X148355238Y-121354285D01*
X148450476Y-121449523D01*
X148498095Y-121544761D01*
D11*
%TO.C,D1*%
X143826190Y-127869047D02*
X143326190Y-127869047D01*
X143326190Y-127750000D01*
X143350000Y-127678571D01*
X143397619Y-127630952D01*
X143445238Y-127607142D01*
X143540476Y-127583333D01*
X143611904Y-127583333D01*
X143707142Y-127607142D01*
X143754761Y-127630952D01*
X143802380Y-127678571D01*
X143826190Y-127750000D01*
X143826190Y-127869047D01*
X143826190Y-127107142D02*
X143826190Y-127392857D01*
X143826190Y-127250000D02*
X143326190Y-127250000D01*
X143397619Y-127297619D01*
X143445238Y-127345238D01*
X143469047Y-127392857D01*
%TO.C,C5*%
X139278571Y-133383333D02*
X139302380Y-133407142D01*
X139326190Y-133478571D01*
X139326190Y-133526190D01*
X139302380Y-133597619D01*
X139254761Y-133645238D01*
X139207142Y-133669047D01*
X139111904Y-133692857D01*
X139040476Y-133692857D01*
X138945238Y-133669047D01*
X138897619Y-133645238D01*
X138850000Y-133597619D01*
X138826190Y-133526190D01*
X138826190Y-133478571D01*
X138850000Y-133407142D01*
X138873809Y-133383333D01*
X138826190Y-132930952D02*
X138826190Y-133169047D01*
X139064285Y-133192857D01*
X139040476Y-133169047D01*
X139016666Y-133121428D01*
X139016666Y-133002380D01*
X139040476Y-132954761D01*
X139064285Y-132930952D01*
X139111904Y-132907142D01*
X139230952Y-132907142D01*
X139278571Y-132930952D01*
X139302380Y-132954761D01*
X139326190Y-133002380D01*
X139326190Y-133121428D01*
X139302380Y-133169047D01*
X139278571Y-133192857D01*
%TO.C,C6*%
X123578571Y-129783333D02*
X123602380Y-129807142D01*
X123626190Y-129878571D01*
X123626190Y-129926190D01*
X123602380Y-129997619D01*
X123554761Y-130045238D01*
X123507142Y-130069047D01*
X123411904Y-130092857D01*
X123340476Y-130092857D01*
X123245238Y-130069047D01*
X123197619Y-130045238D01*
X123150000Y-129997619D01*
X123126190Y-129926190D01*
X123126190Y-129878571D01*
X123150000Y-129807142D01*
X123173809Y-129783333D01*
X123126190Y-129354761D02*
X123126190Y-129450000D01*
X123150000Y-129497619D01*
X123173809Y-129521428D01*
X123245238Y-129569047D01*
X123340476Y-129592857D01*
X123530952Y-129592857D01*
X123578571Y-129569047D01*
X123602380Y-129545238D01*
X123626190Y-129497619D01*
X123626190Y-129402380D01*
X123602380Y-129354761D01*
X123578571Y-129330952D01*
X123530952Y-129307142D01*
X123411904Y-129307142D01*
X123364285Y-129330952D01*
X123340476Y-129354761D01*
X123316666Y-129402380D01*
X123316666Y-129497619D01*
X123340476Y-129545238D01*
X123364285Y-129569047D01*
X123411904Y-129592857D01*
%TO.C,U2*%
X145726190Y-134880952D02*
X146130952Y-134880952D01*
X146178571Y-134857142D01*
X146202380Y-134833333D01*
X146226190Y-134785714D01*
X146226190Y-134690476D01*
X146202380Y-134642857D01*
X146178571Y-134619047D01*
X146130952Y-134595238D01*
X145726190Y-134595238D01*
X145773809Y-134380952D02*
X145750000Y-134357142D01*
X145726190Y-134309523D01*
X145726190Y-134190476D01*
X145750000Y-134142857D01*
X145773809Y-134119047D01*
X145821428Y-134095238D01*
X145869047Y-134095238D01*
X145940476Y-134119047D01*
X146226190Y-134404761D01*
X146226190Y-134095238D01*
%TO.C,D3*%
X113524940Y-117144047D02*
X113024940Y-117144047D01*
X113024940Y-117025000D01*
X113048750Y-116953571D01*
X113096369Y-116905952D01*
X113143988Y-116882142D01*
X113239226Y-116858333D01*
X113310654Y-116858333D01*
X113405892Y-116882142D01*
X113453511Y-116905952D01*
X113501130Y-116953571D01*
X113524940Y-117025000D01*
X113524940Y-117144047D01*
X113024940Y-116691666D02*
X113024940Y-116382142D01*
X113215416Y-116548809D01*
X113215416Y-116477380D01*
X113239226Y-116429761D01*
X113263035Y-116405952D01*
X113310654Y-116382142D01*
X113429702Y-116382142D01*
X113477321Y-116405952D01*
X113501130Y-116429761D01*
X113524940Y-116477380D01*
X113524940Y-116620238D01*
X113501130Y-116667857D01*
X113477321Y-116691666D01*
D12*
%TO.C,J4*%
X115165000Y-130190000D02*
X112505000Y-130190000D01*
X117875000Y-132730000D02*
X116605000Y-132730000D01*
X112505000Y-131540000D02*
X106505000Y-131540000D01*
X115562071Y-124220000D02*
X115165000Y-124220000D01*
X115562071Y-123460000D02*
X115165000Y-123460000D01*
X112505000Y-124220000D02*
X106505000Y-124220000D01*
X112505000Y-126760000D02*
X106505000Y-126760000D01*
X112505000Y-131780000D02*
X106505000Y-131780000D01*
X112505000Y-129300000D02*
X106505000Y-129300000D01*
X117875000Y-131460000D02*
X117875000Y-132730000D01*
X115495000Y-131840000D02*
X115165000Y-131840000D01*
X112505000Y-131840000D02*
X106505000Y-131840000D01*
X112505000Y-131300000D02*
X106505000Y-131300000D01*
X106505000Y-128540000D02*
X112505000Y-128540000D01*
X115562071Y-126000000D02*
X115165000Y-126000000D01*
X112505000Y-132790000D02*
X115165000Y-132790000D01*
X115562071Y-128540000D02*
X115165000Y-128540000D01*
X106505000Y-126000000D02*
X112505000Y-126000000D01*
X112505000Y-131660000D02*
X106505000Y-131660000D01*
X112505000Y-131420000D02*
X106505000Y-131420000D01*
X115165000Y-125110000D02*
X112505000Y-125110000D01*
X115165000Y-122510000D02*
X112505000Y-122510000D01*
X106505000Y-131080000D02*
X112505000Y-131080000D01*
X115495000Y-131080000D02*
X115165000Y-131080000D01*
X106505000Y-131840000D02*
X106505000Y-131080000D01*
X106505000Y-124220000D02*
X106505000Y-123460000D01*
X106505000Y-126760000D02*
X106505000Y-126000000D01*
X106505000Y-123460000D02*
X112505000Y-123460000D01*
X112505000Y-122510000D02*
X112505000Y-132790000D01*
X112505000Y-131180000D02*
X106505000Y-131180000D01*
X106505000Y-129300000D02*
X106505000Y-128540000D01*
X115165000Y-132790000D02*
X115165000Y-122510000D01*
X115562071Y-126760000D02*
X115165000Y-126760000D01*
X115165000Y-127650000D02*
X112505000Y-127650000D01*
X115562071Y-129300000D02*
X115165000Y-129300000D01*
%TO.C,C12*%
X117220000Y-120730580D02*
X117220000Y-120449420D01*
X116200000Y-120730580D02*
X116200000Y-120449420D01*
%TO.C,R1*%
X145822500Y-124417258D02*
X145822500Y-123942742D01*
X144777500Y-124417258D02*
X144777500Y-123942742D01*
%TO.C,C2*%
X150145000Y-129155000D02*
X152630000Y-129155000D01*
X152630000Y-127585000D02*
X150145000Y-127585000D01*
X150145000Y-127585000D02*
X150145000Y-129155000D01*
%TO.C,SW1*%
X122430000Y-123930000D02*
X122730000Y-123930000D01*
X119890000Y-128070000D02*
X119590000Y-128070000D01*
X119590000Y-128070000D02*
X119590000Y-123930000D01*
X122730000Y-123930000D02*
X122730000Y-128070000D01*
X122730000Y-128070000D02*
X122430000Y-128070000D01*
X119590000Y-123930000D02*
X119890000Y-123930000D01*
%TO.C,Y1*%
X130350000Y-132190000D02*
X130350000Y-119590000D01*
X125250000Y-119590000D02*
X125250000Y-132190000D01*
X130350000Y-119590000D02*
X125250000Y-119590000D01*
%TO.C,C4*%
X124960000Y-122492164D02*
X124960000Y-122707836D01*
X124240000Y-122492164D02*
X124240000Y-122707836D01*
%TO.C,R6*%
X147967258Y-122492500D02*
X147492742Y-122492500D01*
X147967258Y-121447500D02*
X147492742Y-121447500D01*
%TO.C,C7*%
X132892164Y-121760000D02*
X133107836Y-121760000D01*
X132892164Y-121040000D02*
X133107836Y-121040000D01*
%TO.C,R10*%
X124980000Y-125446359D02*
X124980000Y-125753641D01*
X124220000Y-125446359D02*
X124220000Y-125753641D01*
%TO.C,C13*%
X121540580Y-119510000D02*
X121259420Y-119510000D01*
X121540580Y-118490000D02*
X121259420Y-118490000D01*
%TO.C,C3*%
X132360000Y-123107836D02*
X132360000Y-122892164D01*
X131640000Y-123107836D02*
X131640000Y-122892164D01*
%TO.C,R8*%
X116766250Y-116974758D02*
X116766250Y-116500242D01*
X117811250Y-116974758D02*
X117811250Y-116500242D01*
%TO.C,C8*%
X140440000Y-122892164D02*
X140440000Y-123107836D01*
X141160000Y-122892164D02*
X141160000Y-123107836D01*
%TO.C,R5*%
X147977258Y-120822500D02*
X147502742Y-120822500D01*
X147977258Y-119777500D02*
X147502742Y-119777500D01*
%TO.C,R2*%
X142562742Y-117922500D02*
X143037258Y-117922500D01*
X142562742Y-116877500D02*
X143037258Y-116877500D01*
%TO.C,J5*%
X142805000Y-121130000D02*
X140205000Y-121130000D01*
X145405000Y-118470000D02*
X145405000Y-119800000D01*
X142805000Y-118470000D02*
X140205000Y-118470000D01*
X140205000Y-118470000D02*
X140205000Y-121130000D01*
X142805000Y-118470000D02*
X142805000Y-121130000D01*
X144075000Y-118470000D02*
X145405000Y-118470000D01*
%TO.C,U1*%
X132950000Y-123700000D02*
X132500000Y-123700000D01*
X139270000Y-130920000D02*
X139720000Y-130920000D01*
X132500000Y-123700000D02*
X132500000Y-124150000D01*
X139270000Y-123700000D02*
X139720000Y-123700000D01*
X139720000Y-130920000D02*
X139720000Y-130470000D01*
X132500000Y-124150000D02*
X131210000Y-124150000D01*
X132500000Y-130920000D02*
X132500000Y-130470000D01*
X132950000Y-130920000D02*
X132500000Y-130920000D01*
X139720000Y-123700000D02*
X139720000Y-124150000D01*
%TO.C,C1*%
X148349420Y-128990000D02*
X148630580Y-128990000D01*
X148349420Y-127970000D02*
X148630580Y-127970000D01*
%TO.C,R9*%
X121082742Y-121582500D02*
X121557258Y-121582500D01*
X121082742Y-120537500D02*
X121557258Y-120537500D01*
%TO.C,R7*%
X147967258Y-124132500D02*
X147492742Y-124132500D01*
X147967258Y-123087500D02*
X147492742Y-123087500D01*
%TO.C,J1*%
X149785000Y-123340000D02*
X149785000Y-122740000D01*
X149785000Y-125790000D02*
X153335000Y-125790000D01*
X149785000Y-123640000D02*
X149785000Y-125790000D01*
X149785000Y-117490000D02*
X153335000Y-117490000D01*
X149785000Y-119640000D02*
X149785000Y-117490000D01*
X150535000Y-123340000D02*
X149785000Y-123340000D01*
X153335000Y-125790000D02*
X153335000Y-122890000D01*
X153335000Y-117490000D02*
X153335000Y-120390000D01*
%TO.C,D1*%
X146270000Y-128740000D02*
X146270000Y-125880000D01*
X146270000Y-125880000D02*
X144350000Y-125880000D01*
X144350000Y-125880000D02*
X144350000Y-128740000D01*
%TO.C,C5*%
X140360000Y-132292164D02*
X140360000Y-132507836D01*
X139640000Y-132292164D02*
X139640000Y-132507836D01*
%TO.C,C6*%
X124960000Y-129492164D02*
X124960000Y-129707836D01*
X124240000Y-129492164D02*
X124240000Y-129707836D01*
%TO.C,U2*%
X146950000Y-136050000D02*
X148210000Y-136050000D01*
X153770000Y-130040000D02*
X153770000Y-136050000D01*
X153770000Y-136050000D02*
X152510000Y-136050000D01*
X146950000Y-132290000D02*
X146950000Y-136050000D01*
%TO.C,D3*%
X113988750Y-115775000D02*
X113988750Y-118635000D01*
X113988750Y-118635000D02*
X115908750Y-118635000D01*
X115908750Y-118635000D02*
X115908750Y-115775000D01*
%TD*%
M02*
