%TF.GenerationSoftware,KiCad,Pcbnew,(6.0.5-0)*%
%TF.CreationDate,2022-07-12T00:15:49+05:30*%
%TF.ProjectId,STM32F103C8T6,53544d33-3246-4313-9033-433854362e6b,rev?*%
%TF.SameCoordinates,Original*%
%TF.FileFunction,Soldermask,Top*%
%TF.FilePolarity,Negative*%
%FSLAX46Y46*%
G04 Gerber Fmt 4.6, Leading zero omitted, Abs format (unit mm)*
G04 Created by KiCad (PCBNEW (6.0.5-0)) date 2022-07-12 00:15:49*
%MOMM*%
%LPD*%
G01*
G04 APERTURE LIST*
G04 Aperture macros list*
%AMRoundRect*
0 Rectangle with rounded corners*
0 $1 Rounding radius*
0 $2 $3 $4 $5 $6 $7 $8 $9 X,Y pos of 4 corners*
0 Add a 4 corners polygon primitive as box body*
4,1,4,$2,$3,$4,$5,$6,$7,$8,$9,$2,$3,0*
0 Add four circle primitives for the rounded corners*
1,1,$1+$1,$2,$3*
1,1,$1+$1,$4,$5*
1,1,$1+$1,$6,$7*
1,1,$1+$1,$8,$9*
0 Add four rect primitives between the rounded corners*
20,1,$1+$1,$2,$3,$4,$5,0*
20,1,$1+$1,$4,$5,$6,$7,0*
20,1,$1+$1,$6,$7,$8,$9,0*
20,1,$1+$1,$8,$9,$2,$3,0*%
G04 Aperture macros list end*
%ADD10R,1.700000X1.700000*%
%ADD11O,1.700000X1.700000*%
%ADD12RoundRect,0.225000X0.250000X-0.225000X0.250000X0.225000X-0.250000X0.225000X-0.250000X-0.225000X0*%
%ADD13RoundRect,0.200000X0.275000X-0.200000X0.275000X0.200000X-0.275000X0.200000X-0.275000X-0.200000X0*%
%ADD14RoundRect,0.250000X-0.375000X-0.275000X0.375000X-0.275000X0.375000X0.275000X-0.375000X0.275000X0*%
%ADD15RoundRect,0.200000X0.800000X-0.200000X0.800000X0.200000X-0.800000X0.200000X-0.800000X-0.200000X0*%
%ADD16R,2.000000X4.500000*%
%ADD17RoundRect,0.140000X-0.170000X0.140000X-0.170000X-0.140000X0.170000X-0.140000X0.170000X0.140000X0*%
%ADD18RoundRect,0.200000X0.200000X0.275000X-0.200000X0.275000X-0.200000X-0.275000X0.200000X-0.275000X0*%
%ADD19RoundRect,0.140000X-0.140000X-0.170000X0.140000X-0.170000X0.140000X0.170000X-0.140000X0.170000X0*%
%ADD20RoundRect,0.135000X-0.185000X0.135000X-0.185000X-0.135000X0.185000X-0.135000X0.185000X0.135000X0*%
%ADD21RoundRect,0.225000X0.225000X0.250000X-0.225000X0.250000X-0.225000X-0.250000X0.225000X-0.250000X0*%
%ADD22RoundRect,0.140000X0.170000X-0.140000X0.170000X0.140000X-0.170000X0.140000X-0.170000X-0.140000X0*%
%ADD23RoundRect,0.200000X-0.200000X-0.275000X0.200000X-0.275000X0.200000X0.275000X-0.200000X0.275000X0*%
%ADD24RoundRect,0.075000X-0.662500X-0.075000X0.662500X-0.075000X0.662500X0.075000X-0.662500X0.075000X0*%
%ADD25RoundRect,0.075000X-0.075000X-0.662500X0.075000X-0.662500X0.075000X0.662500X-0.075000X0.662500X0*%
%ADD26RoundRect,0.225000X-0.225000X-0.250000X0.225000X-0.250000X0.225000X0.250000X-0.225000X0.250000X0*%
%ADD27R,1.500000X0.450000*%
%ADD28O,1.100000X1.800000*%
%ADD29O,1.100000X2.200000*%
%ADD30RoundRect,0.250000X-0.450000X0.325000X-0.450000X-0.325000X0.450000X-0.325000X0.450000X0.325000X0*%
%ADD31R,1.500000X2.000000*%
%ADD32R,3.800000X2.000000*%
%ADD33RoundRect,0.250000X0.450000X-0.325000X0.450000X0.325000X-0.450000X0.325000X-0.450000X-0.325000X0*%
G04 APERTURE END LIST*
D10*
%TO.C,J4*%
X116605000Y-131460000D03*
D11*
X116605000Y-128920000D03*
X116605000Y-126380000D03*
X116605000Y-123840000D03*
%TD*%
D12*
%TO.C,C12*%
X116710000Y-121365000D03*
X116710000Y-119815000D03*
%TD*%
D13*
%TO.C,R1*%
X145300000Y-125005000D03*
X145300000Y-123355000D03*
%TD*%
D14*
%TO.C,C2*%
X151030000Y-128370000D03*
X152630000Y-128370000D03*
%TD*%
D15*
%TO.C,SW1*%
X121160000Y-128100000D03*
X121160000Y-123900000D03*
%TD*%
D16*
%TO.C,Y1*%
X127800000Y-122040000D03*
X127800000Y-130540000D03*
%TD*%
D17*
%TO.C,C4*%
X124600000Y-122120000D03*
X124600000Y-123080000D03*
%TD*%
D18*
%TO.C,R6*%
X148555000Y-121970000D03*
X146905000Y-121970000D03*
%TD*%
D19*
%TO.C,C7*%
X132520000Y-121400000D03*
X133480000Y-121400000D03*
%TD*%
D20*
%TO.C,R10*%
X124600000Y-125090000D03*
X124600000Y-126110000D03*
%TD*%
D21*
%TO.C,C13*%
X122175000Y-119000000D03*
X120625000Y-119000000D03*
%TD*%
D22*
%TO.C,C3*%
X132000000Y-123480000D03*
X132000000Y-122520000D03*
%TD*%
D13*
%TO.C,R8*%
X117288750Y-117562500D03*
X117288750Y-115912500D03*
%TD*%
D17*
%TO.C,C8*%
X140800000Y-122520000D03*
X140800000Y-123480000D03*
%TD*%
D18*
%TO.C,R5*%
X148565000Y-120300000D03*
X146915000Y-120300000D03*
%TD*%
D23*
%TO.C,R2*%
X141975000Y-117400000D03*
X143625000Y-117400000D03*
%TD*%
D10*
%TO.C,J5*%
X144075000Y-119800000D03*
D11*
X141535000Y-119800000D03*
%TD*%
D24*
%TO.C,U1*%
X131947500Y-124560000D03*
X131947500Y-125060000D03*
X131947500Y-125560000D03*
X131947500Y-126060000D03*
X131947500Y-126560000D03*
X131947500Y-127060000D03*
X131947500Y-127560000D03*
X131947500Y-128060000D03*
X131947500Y-128560000D03*
X131947500Y-129060000D03*
X131947500Y-129560000D03*
X131947500Y-130060000D03*
D25*
X133360000Y-131472500D03*
X133860000Y-131472500D03*
X134360000Y-131472500D03*
X134860000Y-131472500D03*
X135360000Y-131472500D03*
X135860000Y-131472500D03*
X136360000Y-131472500D03*
X136860000Y-131472500D03*
X137360000Y-131472500D03*
X137860000Y-131472500D03*
X138360000Y-131472500D03*
X138860000Y-131472500D03*
D24*
X140272500Y-130060000D03*
X140272500Y-129560000D03*
X140272500Y-129060000D03*
X140272500Y-128560000D03*
X140272500Y-128060000D03*
X140272500Y-127560000D03*
X140272500Y-127060000D03*
X140272500Y-126560000D03*
X140272500Y-126060000D03*
X140272500Y-125560000D03*
X140272500Y-125060000D03*
X140272500Y-124560000D03*
D25*
X138860000Y-123147500D03*
X138360000Y-123147500D03*
X137860000Y-123147500D03*
X137360000Y-123147500D03*
X136860000Y-123147500D03*
X136360000Y-123147500D03*
X135860000Y-123147500D03*
X135360000Y-123147500D03*
X134860000Y-123147500D03*
X134360000Y-123147500D03*
X133860000Y-123147500D03*
X133360000Y-123147500D03*
%TD*%
D26*
%TO.C,C1*%
X147715000Y-128480000D03*
X149265000Y-128480000D03*
%TD*%
D23*
%TO.C,R9*%
X120495000Y-121060000D03*
X122145000Y-121060000D03*
%TD*%
D18*
%TO.C,R7*%
X148555000Y-123610000D03*
X146905000Y-123610000D03*
%TD*%
D27*
%TO.C,J1*%
X150785000Y-122940000D03*
X150785000Y-122290000D03*
X150785000Y-121640000D03*
X150785000Y-120990000D03*
X150785000Y-120340000D03*
D28*
X150535000Y-118840000D03*
D29*
X152685000Y-121640000D03*
D28*
X150535000Y-124440000D03*
%TD*%
D30*
%TO.C,D1*%
X145310000Y-126715000D03*
X145310000Y-128765000D03*
%TD*%
D17*
%TO.C,C5*%
X140000000Y-131920000D03*
X140000000Y-132880000D03*
%TD*%
%TO.C,C6*%
X124600000Y-129120000D03*
X124600000Y-130080000D03*
%TD*%
D31*
%TO.C,U2*%
X152660000Y-130990000D03*
D32*
X150360000Y-137290000D03*
D31*
X150360000Y-130990000D03*
X148060000Y-130990000D03*
%TD*%
D33*
%TO.C,D3*%
X114948750Y-117800000D03*
X114948750Y-115750000D03*
%TD*%
D10*
%TO.C,J2*%
X152615000Y-112830000D03*
D11*
X150075000Y-112830000D03*
X147535000Y-112830000D03*
X144995000Y-112830000D03*
X142455000Y-112830000D03*
X139915000Y-112830000D03*
X137375000Y-112830000D03*
X134835000Y-112830000D03*
X132295000Y-112830000D03*
X129755000Y-112830000D03*
X127215000Y-112830000D03*
X124675000Y-112830000D03*
X122135000Y-112830000D03*
X119595000Y-112830000D03*
X117055000Y-112830000D03*
%TD*%
D10*
%TO.C,J3*%
X152345000Y-140880000D03*
D11*
X149805000Y-140880000D03*
X147265000Y-140880000D03*
X144725000Y-140880000D03*
X142185000Y-140880000D03*
X139645000Y-140880000D03*
X137105000Y-140880000D03*
X134565000Y-140880000D03*
X132025000Y-140880000D03*
X129485000Y-140880000D03*
X126945000Y-140880000D03*
X124405000Y-140880000D03*
X121865000Y-140880000D03*
X119325000Y-140880000D03*
X116785000Y-140880000D03*
%TD*%
M02*
