M48
; DRILL file {KiCad (6.0.5-0)} date 2022 July 12, Tuesday 00:15:29
; FORMAT={-:-/ absolute / inch / decimal}
; #@! TF.CreationDate,2022-07-12T00:15:29+05:30
; #@! TF.GenerationSoftware,Kicad,Pcbnew,(6.0.5-0)
; #@! TF.FileFunction,Plated,1,2,PTH
FMAT,2
INCH
; #@! TA.AperFunction,Plated,PTH,ViaDrill
T1C0.0157
; #@! TA.AperFunction,Plated,PTH,ComponentDrill
T2C0.0197
; #@! TA.AperFunction,Plated,PTH,ComponentDrill
T3C0.0394
%
G90
G05
T1
X4.5906Y-5.2677
X4.6457Y-4.7795
X4.6614Y-4.5669
X4.6772Y-4.9764
X4.6772Y-5.0709
X4.9685Y-4.6772
X5.1827Y-4.7875
X5.2402Y-4.9016
X5.3504Y-4.9094
X5.4252Y-4.923
X5.4567Y-4.9528
X5.5039Y-4.7677
X5.5276Y-5.2756
X5.5551Y-5.1969
X5.5669Y-4.7874
X5.5842Y-4.8558
X5.6693Y-4.5748
X5.6693Y-4.9291
X5.685Y-5.2008
X5.8583Y-4.6772
X6.0236Y-5.0
T3
X4.5907Y-4.8756
X4.5907Y-4.9756
X4.5907Y-5.0756
X4.5907Y-5.1756
X4.5978Y-5.5465
X4.6085Y-4.4421
X4.6978Y-5.5465
X4.7085Y-4.4421
X4.7978Y-5.5465
X4.8085Y-4.4421
X4.8978Y-5.5465
X4.9085Y-4.4421
X4.9978Y-5.5465
X5.0085Y-4.4421
X5.0978Y-5.5465
X5.1085Y-4.4421
X5.1978Y-5.5465
X5.2085Y-4.4421
X5.2978Y-5.5465
X5.3085Y-4.4421
X5.3978Y-5.5465
X5.4085Y-4.4421
X5.4978Y-5.5465
X5.5085Y-4.4421
X5.5722Y-4.7165
X5.5978Y-5.5465
X5.6085Y-4.4421
X5.6722Y-4.7165
X5.6978Y-5.5465
X5.7085Y-4.4421
X5.7978Y-5.5465
X5.8085Y-4.4421
X5.8978Y-5.5465
X5.9085Y-4.4421
X5.9978Y-5.5465
X6.0085Y-4.4421
T2
G00X5.9266Y-4.6925
M15
G01X5.9266Y-4.665
M16
G05
G00X5.9266Y-4.913
M15
G01X5.9266Y-4.8854
M16
G05
G00X6.0112Y-4.8106
M15
G01X6.0112Y-4.7673
M16
G05
T0
M30
