M48
; DRILL file {KiCad (6.0.5-0)} date 2022 June 15, Wednesday 16:59:56
; FORMAT={-:-/ absolute / inch / decimal}
; #@! TF.CreationDate,2022-06-15T16:59:56+05:30
; #@! TF.GenerationSoftware,Kicad,Pcbnew,(6.0.5-0)
; #@! TF.FileFunction,Plated,1,2,PTH
FMAT,2
INCH
; #@! TA.AperFunction,Plated,PTH,ViaDrill
T1C0.0157
; #@! TA.AperFunction,Plated,PTH,ComponentDrill
T2C0.0295
; #@! TA.AperFunction,Plated,PTH,ComponentDrill
T3C0.0315
; #@! TA.AperFunction,Plated,PTH,ComponentDrill
T4C0.0394
%
G90
G05
T1
X5.5591Y-3.126
X5.7953Y-3.1181
X5.7972Y-2.9429
X5.7972Y-3.0315
X5.874Y-2.9449
X5.876Y-2.7559
X5.876Y-2.8445
X6.0335Y-3.1496
T2
X6.0236Y-3.002
X6.0236Y-3.052
X6.0236Y-3.102
X6.0252Y-2.7748
X6.0252Y-2.8248
X6.0252Y-2.8748
T3
X6.2697Y-2.9035
X6.2697Y-3.0138
X6.3697Y-2.9035
X6.3697Y-3.0138
T4
X5.4429Y-2.8435
X5.4429Y-2.9435
X5.4429Y-3.0435
T0
M30
