%TF.GenerationSoftware,KiCad,Pcbnew,(6.0.5-0)*%
%TF.CreationDate,2022-06-15T16:59:53+05:30*%
%TF.ProjectId,CNY70_PCB,434e5937-305f-4504-9342-2e6b69636164,rev?*%
%TF.SameCoordinates,Original*%
%TF.FileFunction,Copper,L2,Bot*%
%TF.FilePolarity,Positive*%
%FSLAX46Y46*%
G04 Gerber Fmt 4.6, Leading zero omitted, Abs format (unit mm)*
G04 Created by KiCad (PCBNEW (6.0.5-0)) date 2022-06-15 16:59:53*
%MOMM*%
%LPD*%
G01*
G04 APERTURE LIST*
G04 Aperture macros list*
%AMRoundRect*
0 Rectangle with rounded corners*
0 $1 Rounding radius*
0 $2 $3 $4 $5 $6 $7 $8 $9 X,Y pos of 4 corners*
0 Add a 4 corners polygon primitive as box body*
4,1,4,$2,$3,$4,$5,$6,$7,$8,$9,$2,$3,0*
0 Add four circle primitives for the rounded corners*
1,1,$1+$1,$2,$3*
1,1,$1+$1,$4,$5*
1,1,$1+$1,$6,$7*
1,1,$1+$1,$8,$9*
0 Add four rect primitives between the rounded corners*
20,1,$1+$1,$2,$3,$4,$5,0*
20,1,$1+$1,$4,$5,$6,$7,0*
20,1,$1+$1,$6,$7,$8,$9,0*
20,1,$1+$1,$8,$9,$2,$3,0*%
G04 Aperture macros list end*
%TA.AperFunction,ComponentPad*%
%ADD10R,1.700000X1.700000*%
%TD*%
%TA.AperFunction,ComponentPad*%
%ADD11O,1.700000X1.700000*%
%TD*%
%TA.AperFunction,ComponentPad*%
%ADD12C,1.600000*%
%TD*%
%TA.AperFunction,ComponentPad*%
%ADD13RoundRect,0.249600X-0.550400X0.550400X-0.550400X-0.550400X0.550400X-0.550400X0.550400X0.550400X0*%
%TD*%
%TA.AperFunction,ComponentPad*%
%ADD14R,1.500000X1.050000*%
%TD*%
%TA.AperFunction,ComponentPad*%
%ADD15O,1.500000X1.050000*%
%TD*%
%TA.AperFunction,ViaPad*%
%ADD16C,0.800000*%
%TD*%
%TA.AperFunction,Conductor*%
%ADD17C,0.250000*%
%TD*%
G04 APERTURE END LIST*
D10*
%TO.P,J1,1,Pin_1*%
%TO.N,VCC*%
X138250000Y-72225000D03*
D11*
%TO.P,J1,2,Pin_2*%
%TO.N,Net-(J1-Pad2)*%
X138250000Y-74765000D03*
%TO.P,J1,3,Pin_3*%
%TO.N,GND*%
X138250000Y-77305000D03*
%TD*%
D12*
%TO.P,U1,4,E*%
%TO.N,Net-(Q1-Pad2)*%
X159250000Y-76550000D03*
%TO.P,U1,3,C*%
%TO.N,VCC*%
X161790000Y-76550000D03*
%TO.P,U1,2,K*%
%TO.N,GND*%
X161790000Y-73750000D03*
D13*
%TO.P,U1,1,A*%
%TO.N,Net-(R1-Pad2)*%
X159250000Y-73750000D03*
%TD*%
D14*
%TO.P,Q2,1,C*%
%TO.N,Net-(J1-Pad2)*%
X153040000Y-70480000D03*
D15*
%TO.P,Q2,2,B*%
%TO.N,Net-(Q2-Pad2)*%
X153040000Y-71750000D03*
%TO.P,Q2,3,E*%
%TO.N,Net-(Q1-Pad3)*%
X153040000Y-73020000D03*
%TD*%
D14*
%TO.P,Q1,1,C*%
%TO.N,Net-(Q1-Pad1)*%
X153000000Y-76250000D03*
D15*
%TO.P,Q1,2,B*%
%TO.N,Net-(Q1-Pad2)*%
X153000000Y-77520000D03*
%TO.P,Q1,3,E*%
%TO.N,Net-(Q1-Pad3)*%
X153000000Y-78790000D03*
%TD*%
D16*
%TO.N,Net-(Q2-Pad2)*%
X147250000Y-74750000D03*
X149250000Y-72250000D03*
%TO.N,Net-(J1-Pad2)*%
X149250000Y-70000000D03*
%TO.N,VCC*%
X153250000Y-80000000D03*
X147250000Y-77000000D03*
%TO.N,GND*%
X141200000Y-79400000D03*
X147200000Y-79200000D03*
X149200000Y-74800000D03*
%TD*%
D17*
%TO.N,Net-(Q1-Pad2)*%
X155280000Y-77520000D02*
X156250000Y-76550000D01*
X156250000Y-76550000D02*
X159250000Y-76550000D01*
%TO.N,Net-(Q2-Pad2)*%
X153040000Y-71750000D02*
X149750000Y-71750000D01*
X149750000Y-71750000D02*
X149250000Y-72250000D01*
X149250000Y-72250000D02*
X147250000Y-74250000D01*
X147250000Y-74250000D02*
X147250000Y-74750000D01*
%TO.N,Net-(J1-Pad2)*%
X149250000Y-70000000D02*
X144485000Y-74765000D01*
X144485000Y-74765000D02*
X138250000Y-74765000D01*
%TO.N,VCC*%
X153250000Y-80000000D02*
X150250000Y-80000000D01*
X150250000Y-80000000D02*
X147250000Y-77000000D01*
%TO.N,Net-(Q1-Pad2)*%
X153000000Y-77520000D02*
X155280000Y-77520000D01*
%TD*%
%TA.AperFunction,Conductor*%
%TO.N,GND*%
G36*
X164183621Y-68528502D02*
G01*
X164230114Y-68582158D01*
X164241500Y-68634500D01*
X164241500Y-80365500D01*
X164221498Y-80433621D01*
X164167842Y-80480114D01*
X164115500Y-80491500D01*
X154218979Y-80491500D01*
X154150858Y-80471498D01*
X154104365Y-80417842D01*
X154094261Y-80347568D01*
X154099146Y-80326564D01*
X154141502Y-80196206D01*
X154143542Y-80189928D01*
X154163504Y-80000000D01*
X154143542Y-79810072D01*
X154084527Y-79628444D01*
X154041264Y-79553511D01*
X154024527Y-79484518D01*
X154047747Y-79417426D01*
X154053299Y-79410198D01*
X154082026Y-79375472D01*
X154085956Y-79370722D01*
X154182356Y-79192435D01*
X154242290Y-78998820D01*
X154263476Y-78797250D01*
X154255898Y-78713986D01*
X154245665Y-78601543D01*
X154245664Y-78601540D01*
X154245106Y-78595404D01*
X154187881Y-78400971D01*
X154185025Y-78395507D01*
X154154896Y-78337874D01*
X154141062Y-78268238D01*
X154167073Y-78202178D01*
X154224669Y-78160667D01*
X154266558Y-78153500D01*
X155201233Y-78153500D01*
X155212416Y-78154027D01*
X155219909Y-78155702D01*
X155227835Y-78155453D01*
X155227836Y-78155453D01*
X155287986Y-78153562D01*
X155291945Y-78153500D01*
X155319856Y-78153500D01*
X155323791Y-78153003D01*
X155323856Y-78152995D01*
X155335693Y-78152062D01*
X155367951Y-78151048D01*
X155371970Y-78150922D01*
X155379889Y-78150673D01*
X155399343Y-78145021D01*
X155418700Y-78141013D01*
X155430930Y-78139468D01*
X155430931Y-78139468D01*
X155438797Y-78138474D01*
X155446168Y-78135555D01*
X155446170Y-78135555D01*
X155479912Y-78122196D01*
X155491142Y-78118351D01*
X155525983Y-78108229D01*
X155525984Y-78108229D01*
X155533593Y-78106018D01*
X155540412Y-78101985D01*
X155540417Y-78101983D01*
X155551028Y-78095707D01*
X155568776Y-78087012D01*
X155587617Y-78079552D01*
X155623387Y-78053564D01*
X155633307Y-78047048D01*
X155664535Y-78028580D01*
X155664538Y-78028578D01*
X155671362Y-78024542D01*
X155685683Y-78010221D01*
X155700717Y-77997380D01*
X155710694Y-77990131D01*
X155717107Y-77985472D01*
X155745298Y-77951395D01*
X155753288Y-77942616D01*
X156475499Y-77220405D01*
X156537811Y-77186379D01*
X156564594Y-77183500D01*
X158030606Y-77183500D01*
X158098727Y-77203502D01*
X158133819Y-77237229D01*
X158240643Y-77389789D01*
X158243802Y-77394300D01*
X158405700Y-77556198D01*
X158410208Y-77559355D01*
X158410211Y-77559357D01*
X158429050Y-77572548D01*
X158593251Y-77687523D01*
X158598233Y-77689846D01*
X158598238Y-77689849D01*
X158795775Y-77781961D01*
X158800757Y-77784284D01*
X158806065Y-77785706D01*
X158806067Y-77785707D01*
X159016598Y-77842119D01*
X159016600Y-77842119D01*
X159021913Y-77843543D01*
X159250000Y-77863498D01*
X159478087Y-77843543D01*
X159483400Y-77842119D01*
X159483402Y-77842119D01*
X159693933Y-77785707D01*
X159693935Y-77785706D01*
X159699243Y-77784284D01*
X159704225Y-77781961D01*
X159901762Y-77689849D01*
X159901767Y-77689846D01*
X159906749Y-77687523D01*
X160070950Y-77572548D01*
X160089789Y-77559357D01*
X160089792Y-77559355D01*
X160094300Y-77556198D01*
X160256198Y-77394300D01*
X160268117Y-77377279D01*
X160318521Y-77305294D01*
X160387523Y-77206749D01*
X160389846Y-77201767D01*
X160389849Y-77201762D01*
X160405805Y-77167543D01*
X160452722Y-77114258D01*
X160520999Y-77094797D01*
X160588959Y-77115339D01*
X160634195Y-77167543D01*
X160650151Y-77201762D01*
X160650154Y-77201767D01*
X160652477Y-77206749D01*
X160721479Y-77305294D01*
X160771884Y-77377279D01*
X160783802Y-77394300D01*
X160945700Y-77556198D01*
X160950208Y-77559355D01*
X160950211Y-77559357D01*
X160969050Y-77572548D01*
X161133251Y-77687523D01*
X161138233Y-77689846D01*
X161138238Y-77689849D01*
X161335775Y-77781961D01*
X161340757Y-77784284D01*
X161346065Y-77785706D01*
X161346067Y-77785707D01*
X161556598Y-77842119D01*
X161556600Y-77842119D01*
X161561913Y-77843543D01*
X161790000Y-77863498D01*
X162018087Y-77843543D01*
X162023400Y-77842119D01*
X162023402Y-77842119D01*
X162233933Y-77785707D01*
X162233935Y-77785706D01*
X162239243Y-77784284D01*
X162244225Y-77781961D01*
X162441762Y-77689849D01*
X162441767Y-77689846D01*
X162446749Y-77687523D01*
X162610950Y-77572548D01*
X162629789Y-77559357D01*
X162629792Y-77559355D01*
X162634300Y-77556198D01*
X162796198Y-77394300D01*
X162808117Y-77377279D01*
X162858521Y-77305294D01*
X162927523Y-77206749D01*
X162929846Y-77201767D01*
X162929849Y-77201762D01*
X163021961Y-77004225D01*
X163021961Y-77004224D01*
X163024284Y-76999243D01*
X163058681Y-76870875D01*
X163082119Y-76783402D01*
X163082119Y-76783400D01*
X163083543Y-76778087D01*
X163103498Y-76550000D01*
X163083543Y-76321913D01*
X163079069Y-76305215D01*
X163025707Y-76106067D01*
X163025706Y-76106065D01*
X163024284Y-76100757D01*
X163020607Y-76092872D01*
X162929849Y-75898238D01*
X162929846Y-75898233D01*
X162927523Y-75893251D01*
X162796198Y-75705700D01*
X162634300Y-75543802D01*
X162629792Y-75540645D01*
X162629789Y-75540643D01*
X162530484Y-75471109D01*
X162446749Y-75412477D01*
X162441767Y-75410154D01*
X162441762Y-75410151D01*
X162244225Y-75318039D01*
X162244224Y-75318039D01*
X162239243Y-75315716D01*
X162162203Y-75295073D01*
X162074034Y-75271448D01*
X162013412Y-75234496D01*
X161982390Y-75170635D01*
X161990819Y-75100141D01*
X162036022Y-75045394D01*
X162074035Y-75028034D01*
X162233761Y-74985236D01*
X162244053Y-74981490D01*
X162441511Y-74889414D01*
X162451006Y-74883931D01*
X162503048Y-74847491D01*
X162511424Y-74837012D01*
X162504356Y-74823566D01*
X161802812Y-74122022D01*
X161788868Y-74114408D01*
X161787035Y-74114539D01*
X161780420Y-74118790D01*
X161074923Y-74824287D01*
X161068493Y-74836062D01*
X161077789Y-74848077D01*
X161128994Y-74883931D01*
X161138489Y-74889414D01*
X161335947Y-74981490D01*
X161346239Y-74985236D01*
X161505965Y-75028034D01*
X161566588Y-75064986D01*
X161597609Y-75128846D01*
X161589181Y-75199341D01*
X161543978Y-75254088D01*
X161505966Y-75271448D01*
X161417797Y-75295073D01*
X161340757Y-75315716D01*
X161335776Y-75318039D01*
X161335775Y-75318039D01*
X161138238Y-75410151D01*
X161138233Y-75410154D01*
X161133251Y-75412477D01*
X161049516Y-75471109D01*
X160950211Y-75540643D01*
X160950208Y-75540645D01*
X160945700Y-75543802D01*
X160783802Y-75705700D01*
X160652477Y-75893251D01*
X160650154Y-75898233D01*
X160650151Y-75898238D01*
X160634195Y-75932457D01*
X160587278Y-75985742D01*
X160519001Y-76005203D01*
X160451041Y-75984661D01*
X160405805Y-75932457D01*
X160389849Y-75898238D01*
X160389846Y-75898233D01*
X160387523Y-75893251D01*
X160256198Y-75705700D01*
X160094300Y-75543802D01*
X160089792Y-75540645D01*
X160089789Y-75540643D01*
X159990484Y-75471109D01*
X159906749Y-75412477D01*
X159901767Y-75410154D01*
X159901762Y-75410151D01*
X159704225Y-75318039D01*
X159704224Y-75318039D01*
X159699243Y-75315716D01*
X159693936Y-75314294D01*
X159693925Y-75314290D01*
X159663751Y-75306205D01*
X159603129Y-75269254D01*
X159572107Y-75205393D01*
X159580536Y-75134898D01*
X159625740Y-75080152D01*
X159696363Y-75058499D01*
X159850772Y-75058499D01*
X159854016Y-75058162D01*
X159854024Y-75058162D01*
X159900032Y-75053388D01*
X159956484Y-75047531D01*
X160124175Y-74991585D01*
X160274498Y-74898563D01*
X160399389Y-74773453D01*
X160492149Y-74622968D01*
X160515094Y-74553794D01*
X160519112Y-74541679D01*
X160559543Y-74483319D01*
X160625108Y-74456083D01*
X160694989Y-74468617D01*
X160701009Y-74472464D01*
X160716434Y-74464356D01*
X161417978Y-73762812D01*
X161424356Y-73751132D01*
X162154408Y-73751132D01*
X162154539Y-73752965D01*
X162158790Y-73759580D01*
X162864287Y-74465077D01*
X162876062Y-74471507D01*
X162888077Y-74462211D01*
X162923931Y-74411006D01*
X162929414Y-74401511D01*
X163021490Y-74204053D01*
X163025236Y-74193761D01*
X163081625Y-73983312D01*
X163083528Y-73972519D01*
X163102517Y-73755475D01*
X163102517Y-73744525D01*
X163083528Y-73527481D01*
X163081625Y-73516688D01*
X163025236Y-73306239D01*
X163021490Y-73295947D01*
X162929414Y-73098489D01*
X162923931Y-73088994D01*
X162887491Y-73036952D01*
X162877012Y-73028576D01*
X162863566Y-73035644D01*
X162162022Y-73737188D01*
X162154408Y-73751132D01*
X161424356Y-73751132D01*
X161425592Y-73748868D01*
X161425461Y-73747035D01*
X161421210Y-73740420D01*
X160715713Y-73034923D01*
X160701769Y-73027309D01*
X160693616Y-73027892D01*
X160649952Y-73044972D01*
X160580347Y-73030985D01*
X160529354Y-72981586D01*
X160519445Y-72959328D01*
X160493904Y-72882772D01*
X160493899Y-72882762D01*
X160491585Y-72875825D01*
X160398563Y-72725502D01*
X160335939Y-72662988D01*
X161068576Y-72662988D01*
X161075644Y-72676434D01*
X161777188Y-73377978D01*
X161791132Y-73385592D01*
X161792965Y-73385461D01*
X161799580Y-73381210D01*
X162505077Y-72675713D01*
X162511507Y-72663938D01*
X162502211Y-72651923D01*
X162451006Y-72616069D01*
X162441511Y-72610586D01*
X162244053Y-72518510D01*
X162233761Y-72514764D01*
X162023312Y-72458375D01*
X162012519Y-72456472D01*
X161795475Y-72437483D01*
X161784525Y-72437483D01*
X161567481Y-72456472D01*
X161556688Y-72458375D01*
X161346239Y-72514764D01*
X161335947Y-72518510D01*
X161138489Y-72610586D01*
X161128994Y-72616069D01*
X161076952Y-72652509D01*
X161068576Y-72662988D01*
X160335939Y-72662988D01*
X160273453Y-72600611D01*
X160122968Y-72507851D01*
X159969103Y-72456815D01*
X159961711Y-72454363D01*
X159961709Y-72454362D01*
X159955180Y-72452197D01*
X159850773Y-72441500D01*
X159254633Y-72441500D01*
X158649228Y-72441501D01*
X158645984Y-72441838D01*
X158645976Y-72441838D01*
X158599968Y-72446612D01*
X158543516Y-72452469D01*
X158375825Y-72508415D01*
X158225502Y-72601437D01*
X158220332Y-72606616D01*
X158201470Y-72625511D01*
X158100611Y-72726547D01*
X158007851Y-72877032D01*
X158005546Y-72883980D01*
X158005546Y-72883981D01*
X157954807Y-73036952D01*
X157952197Y-73044820D01*
X157941500Y-73149227D01*
X157941501Y-74350772D01*
X157952469Y-74456484D01*
X158008415Y-74624175D01*
X158101437Y-74774498D01*
X158226547Y-74899389D01*
X158377032Y-74992149D01*
X158383980Y-74994454D01*
X158383981Y-74994454D01*
X158538289Y-75045637D01*
X158538291Y-75045638D01*
X158544820Y-75047803D01*
X158649227Y-75058500D01*
X158803634Y-75058500D01*
X158871755Y-75078502D01*
X158918248Y-75132158D01*
X158928352Y-75202432D01*
X158898858Y-75267012D01*
X158836245Y-75306207D01*
X158806067Y-75314293D01*
X158806065Y-75314294D01*
X158800757Y-75315716D01*
X158795776Y-75318039D01*
X158795775Y-75318039D01*
X158598238Y-75410151D01*
X158598233Y-75410154D01*
X158593251Y-75412477D01*
X158509516Y-75471109D01*
X158410211Y-75540643D01*
X158410208Y-75540645D01*
X158405700Y-75543802D01*
X158243802Y-75705700D01*
X158240645Y-75710208D01*
X158240643Y-75710211D01*
X158133819Y-75862771D01*
X158078362Y-75907099D01*
X158030606Y-75916500D01*
X156328767Y-75916500D01*
X156317584Y-75915973D01*
X156310091Y-75914298D01*
X156302165Y-75914547D01*
X156302164Y-75914547D01*
X156242014Y-75916438D01*
X156238055Y-75916500D01*
X156210144Y-75916500D01*
X156206210Y-75916997D01*
X156206209Y-75916997D01*
X156206144Y-75917005D01*
X156194307Y-75917938D01*
X156162490Y-75918938D01*
X156158029Y-75919078D01*
X156150110Y-75919327D01*
X156132454Y-75924456D01*
X156130658Y-75924978D01*
X156111306Y-75928986D01*
X156104235Y-75929880D01*
X156091203Y-75931526D01*
X156083834Y-75934443D01*
X156083832Y-75934444D01*
X156050097Y-75947800D01*
X156038869Y-75951645D01*
X155996407Y-75963982D01*
X155989585Y-75968016D01*
X155989579Y-75968019D01*
X155978968Y-75974294D01*
X155961218Y-75982990D01*
X155949756Y-75987528D01*
X155949751Y-75987531D01*
X155942383Y-75990448D01*
X155935968Y-75995109D01*
X155906625Y-76016427D01*
X155896707Y-76022943D01*
X155878019Y-76033995D01*
X155858637Y-76045458D01*
X155844313Y-76059782D01*
X155829281Y-76072621D01*
X155812893Y-76084528D01*
X155784712Y-76118593D01*
X155776722Y-76127373D01*
X155054500Y-76849595D01*
X154992188Y-76883621D01*
X154965405Y-76886500D01*
X154384500Y-76886500D01*
X154316379Y-76866498D01*
X154269886Y-76812842D01*
X154258500Y-76760500D01*
X154258500Y-75676866D01*
X154251745Y-75614684D01*
X154200615Y-75478295D01*
X154113261Y-75361739D01*
X153996705Y-75274385D01*
X153860316Y-75223255D01*
X153798134Y-75216500D01*
X152201866Y-75216500D01*
X152139684Y-75223255D01*
X152003295Y-75274385D01*
X151886739Y-75361739D01*
X151799385Y-75478295D01*
X151748255Y-75614684D01*
X151741500Y-75676866D01*
X151741500Y-76823134D01*
X151748255Y-76885316D01*
X151751029Y-76892715D01*
X151796232Y-77013296D01*
X151796234Y-77013299D01*
X151799385Y-77021705D01*
X151804773Y-77028894D01*
X151804906Y-77029137D01*
X151820076Y-77098494D01*
X151814752Y-77126907D01*
X151757710Y-77311180D01*
X151736524Y-77512750D01*
X151741267Y-77564865D01*
X151751996Y-77682749D01*
X151754894Y-77714596D01*
X151756632Y-77720502D01*
X151756633Y-77720506D01*
X151777416Y-77791118D01*
X151812119Y-77909029D01*
X151814972Y-77914486D01*
X151814973Y-77914489D01*
X151831879Y-77946827D01*
X151905923Y-78088460D01*
X151905923Y-78088462D01*
X151906019Y-78088645D01*
X151905984Y-78088663D01*
X151925889Y-78154441D01*
X151910729Y-78215409D01*
X151817644Y-78387565D01*
X151757710Y-78581180D01*
X151757066Y-78587305D01*
X151757066Y-78587306D01*
X151737168Y-78776622D01*
X151736524Y-78782750D01*
X151754894Y-78984596D01*
X151812119Y-79179029D01*
X151814973Y-79184489D01*
X151817282Y-79190203D01*
X151815484Y-79190930D01*
X151827573Y-79251746D01*
X151801571Y-79317810D01*
X151743980Y-79359328D01*
X151702076Y-79366500D01*
X150564594Y-79366500D01*
X150496473Y-79346498D01*
X150475499Y-79329595D01*
X148197122Y-77051217D01*
X148163096Y-76988905D01*
X148160907Y-76975292D01*
X148144232Y-76816635D01*
X148144232Y-76816633D01*
X148143542Y-76810072D01*
X148084527Y-76628444D01*
X147989040Y-76463056D01*
X147978840Y-76451727D01*
X147865675Y-76326045D01*
X147865674Y-76326044D01*
X147861253Y-76321134D01*
X147706752Y-76208882D01*
X147700724Y-76206198D01*
X147700722Y-76206197D01*
X147538319Y-76133891D01*
X147538318Y-76133891D01*
X147532288Y-76131206D01*
X147438888Y-76111353D01*
X147351944Y-76092872D01*
X147351939Y-76092872D01*
X147345487Y-76091500D01*
X147154513Y-76091500D01*
X147148061Y-76092872D01*
X147148056Y-76092872D01*
X147061112Y-76111353D01*
X146967712Y-76131206D01*
X146961682Y-76133891D01*
X146961681Y-76133891D01*
X146799278Y-76206197D01*
X146799276Y-76206198D01*
X146793248Y-76208882D01*
X146638747Y-76321134D01*
X146634326Y-76326044D01*
X146634325Y-76326045D01*
X146521161Y-76451727D01*
X146510960Y-76463056D01*
X146415473Y-76628444D01*
X146356458Y-76810072D01*
X146336496Y-77000000D01*
X146356458Y-77189928D01*
X146415473Y-77371556D01*
X146510960Y-77536944D01*
X146515378Y-77541851D01*
X146515379Y-77541852D01*
X146536100Y-77564865D01*
X146638747Y-77678866D01*
X146737843Y-77750864D01*
X146780645Y-77781961D01*
X146793248Y-77791118D01*
X146799276Y-77793802D01*
X146799278Y-77793803D01*
X146954741Y-77863019D01*
X146967712Y-77868794D01*
X147061113Y-77888647D01*
X147148056Y-77907128D01*
X147148061Y-77907128D01*
X147154513Y-77908500D01*
X147210406Y-77908500D01*
X147278527Y-77928502D01*
X147299501Y-77945405D01*
X149630501Y-80276405D01*
X149664527Y-80338717D01*
X149659462Y-80409532D01*
X149616915Y-80466368D01*
X149550395Y-80491179D01*
X149541406Y-80491500D01*
X136384500Y-80491500D01*
X136316379Y-80471498D01*
X136269886Y-80417842D01*
X136258500Y-80365500D01*
X136258500Y-77572966D01*
X136918257Y-77572966D01*
X136948565Y-77707446D01*
X136951645Y-77717275D01*
X137031770Y-77914603D01*
X137036413Y-77923794D01*
X137147694Y-78105388D01*
X137153777Y-78113699D01*
X137293213Y-78274667D01*
X137300580Y-78281883D01*
X137464434Y-78417916D01*
X137472881Y-78423831D01*
X137656756Y-78531279D01*
X137666042Y-78535729D01*
X137865001Y-78611703D01*
X137874899Y-78614579D01*
X137978250Y-78635606D01*
X137992299Y-78634410D01*
X137996000Y-78624065D01*
X137996000Y-78623517D01*
X138504000Y-78623517D01*
X138508064Y-78637359D01*
X138521478Y-78639393D01*
X138528184Y-78638534D01*
X138538262Y-78636392D01*
X138742255Y-78575191D01*
X138751842Y-78571433D01*
X138943095Y-78477739D01*
X138951945Y-78472464D01*
X139125328Y-78348792D01*
X139133200Y-78342139D01*
X139284052Y-78191812D01*
X139290730Y-78183965D01*
X139415003Y-78011020D01*
X139420313Y-78002183D01*
X139514670Y-77811267D01*
X139518469Y-77801672D01*
X139580377Y-77597910D01*
X139582555Y-77587837D01*
X139583986Y-77576962D01*
X139581775Y-77562778D01*
X139568617Y-77559000D01*
X138522115Y-77559000D01*
X138506876Y-77563475D01*
X138505671Y-77564865D01*
X138504000Y-77572548D01*
X138504000Y-78623517D01*
X137996000Y-78623517D01*
X137996000Y-77577115D01*
X137991525Y-77561876D01*
X137990135Y-77560671D01*
X137982452Y-77559000D01*
X136933225Y-77559000D01*
X136919694Y-77562973D01*
X136918257Y-77572966D01*
X136258500Y-77572966D01*
X136258500Y-74731695D01*
X136887251Y-74731695D01*
X136887548Y-74736848D01*
X136887548Y-74736851D01*
X136893961Y-74848077D01*
X136900110Y-74954715D01*
X136901247Y-74959761D01*
X136901248Y-74959767D01*
X136923423Y-75058162D01*
X136949222Y-75172639D01*
X137003457Y-75306205D01*
X137026662Y-75363351D01*
X137033266Y-75379616D01*
X137051978Y-75410151D01*
X137133880Y-75543803D01*
X137149987Y-75570088D01*
X137296250Y-75738938D01*
X137468126Y-75881632D01*
X137524454Y-75914547D01*
X137541955Y-75924774D01*
X137590679Y-75976412D01*
X137603750Y-76046195D01*
X137577019Y-76111967D01*
X137536562Y-76145327D01*
X137528457Y-76149546D01*
X137519738Y-76155036D01*
X137349433Y-76282905D01*
X137341726Y-76289748D01*
X137194590Y-76443717D01*
X137188104Y-76451727D01*
X137068098Y-76627649D01*
X137063000Y-76636623D01*
X136973338Y-76829783D01*
X136969775Y-76839470D01*
X136914389Y-77039183D01*
X136915912Y-77047607D01*
X136928292Y-77051000D01*
X139568344Y-77051000D01*
X139581875Y-77047027D01*
X139583180Y-77037947D01*
X139541214Y-76870875D01*
X139537894Y-76861124D01*
X139452972Y-76665814D01*
X139448105Y-76656739D01*
X139332426Y-76477926D01*
X139326136Y-76469757D01*
X139182806Y-76312240D01*
X139175273Y-76305215D01*
X139008139Y-76173222D01*
X138999556Y-76167520D01*
X138962602Y-76147120D01*
X138912631Y-76096687D01*
X138897859Y-76027245D01*
X138922975Y-75960839D01*
X138950327Y-75934232D01*
X139014100Y-75888743D01*
X139129860Y-75806173D01*
X139288096Y-75648489D01*
X139347594Y-75565689D01*
X139415435Y-75471277D01*
X139418453Y-75467077D01*
X139420746Y-75462437D01*
X139422446Y-75459608D01*
X139474674Y-75411518D01*
X139530451Y-75398500D01*
X144406233Y-75398500D01*
X144417416Y-75399027D01*
X144424909Y-75400702D01*
X144432835Y-75400453D01*
X144432836Y-75400453D01*
X144492986Y-75398562D01*
X144496945Y-75398500D01*
X144524856Y-75398500D01*
X144528791Y-75398003D01*
X144528856Y-75397995D01*
X144540693Y-75397062D01*
X144572951Y-75396048D01*
X144576970Y-75395922D01*
X144584889Y-75395673D01*
X144604343Y-75390021D01*
X144623700Y-75386013D01*
X144635930Y-75384468D01*
X144635931Y-75384468D01*
X144643797Y-75383474D01*
X144651168Y-75380555D01*
X144651170Y-75380555D01*
X144684912Y-75367196D01*
X144696142Y-75363351D01*
X144730983Y-75353229D01*
X144730984Y-75353229D01*
X144738593Y-75351018D01*
X144745412Y-75346985D01*
X144745417Y-75346983D01*
X144756028Y-75340707D01*
X144773776Y-75332012D01*
X144792617Y-75324552D01*
X144828387Y-75298564D01*
X144838307Y-75292048D01*
X144869535Y-75273580D01*
X144869538Y-75273578D01*
X144876362Y-75269542D01*
X144890683Y-75255221D01*
X144905717Y-75242380D01*
X144915694Y-75235131D01*
X144922107Y-75230472D01*
X144950298Y-75196395D01*
X144958288Y-75187616D01*
X148136645Y-72009259D01*
X148198957Y-71975233D01*
X148269772Y-71980298D01*
X148326608Y-72022845D01*
X148351419Y-72089365D01*
X148351050Y-72111524D01*
X148339093Y-72225293D01*
X148312080Y-72290950D01*
X148302878Y-72301218D01*
X147576845Y-73027250D01*
X146857747Y-73746348D01*
X146849461Y-73753888D01*
X146842982Y-73758000D01*
X146837557Y-73763777D01*
X146796357Y-73807651D01*
X146793602Y-73810493D01*
X146773865Y-73830230D01*
X146771385Y-73833427D01*
X146763682Y-73842447D01*
X146733414Y-73874679D01*
X146729595Y-73881625D01*
X146729593Y-73881628D01*
X146723652Y-73892434D01*
X146712801Y-73908953D01*
X146700386Y-73924959D01*
X146697241Y-73932228D01*
X146697238Y-73932232D01*
X146682826Y-73965537D01*
X146677609Y-73976187D01*
X146656305Y-74014940D01*
X146654334Y-74022615D01*
X146654334Y-74022616D01*
X146651267Y-74034562D01*
X146644862Y-74053269D01*
X146643829Y-74055656D01*
X146621829Y-74089923D01*
X146510960Y-74213056D01*
X146415473Y-74378444D01*
X146356458Y-74560072D01*
X146355768Y-74566633D01*
X146355768Y-74566635D01*
X146349192Y-74629200D01*
X146336496Y-74750000D01*
X146337186Y-74756565D01*
X146351654Y-74894217D01*
X146356458Y-74939928D01*
X146415473Y-75121556D01*
X146510960Y-75286944D01*
X146515378Y-75291851D01*
X146515379Y-75291852D01*
X146610279Y-75397249D01*
X146638747Y-75428866D01*
X146793248Y-75541118D01*
X146799276Y-75543802D01*
X146799278Y-75543803D01*
X146961681Y-75616109D01*
X146967712Y-75618794D01*
X147061113Y-75638647D01*
X147148056Y-75657128D01*
X147148061Y-75657128D01*
X147154513Y-75658500D01*
X147345487Y-75658500D01*
X147351939Y-75657128D01*
X147351944Y-75657128D01*
X147438887Y-75638647D01*
X147532288Y-75618794D01*
X147538319Y-75616109D01*
X147700722Y-75543803D01*
X147700724Y-75543802D01*
X147706752Y-75541118D01*
X147861253Y-75428866D01*
X147889721Y-75397249D01*
X147984621Y-75291852D01*
X147984622Y-75291851D01*
X147989040Y-75286944D01*
X148084527Y-75121556D01*
X148143542Y-74939928D01*
X148148347Y-74894217D01*
X148162814Y-74756565D01*
X148163504Y-74750000D01*
X148150808Y-74629200D01*
X148144232Y-74566635D01*
X148144232Y-74566633D01*
X148143542Y-74560072D01*
X148109754Y-74456083D01*
X148091940Y-74401257D01*
X148089913Y-74330289D01*
X148122678Y-74273226D01*
X148648870Y-73747035D01*
X149200500Y-73195405D01*
X149262812Y-73161379D01*
X149289595Y-73158500D01*
X149345487Y-73158500D01*
X149351939Y-73157128D01*
X149351944Y-73157128D01*
X149438887Y-73138647D01*
X149532288Y-73118794D01*
X149577894Y-73098489D01*
X149700722Y-73043803D01*
X149700724Y-73043802D01*
X149706752Y-73041118D01*
X149714287Y-73035644D01*
X149788690Y-72981586D01*
X149861253Y-72928866D01*
X149902756Y-72882772D01*
X149984621Y-72791852D01*
X149984622Y-72791851D01*
X149989040Y-72786944D01*
X150084527Y-72621556D01*
X150133588Y-72470563D01*
X150173662Y-72411958D01*
X150239059Y-72384321D01*
X150253421Y-72383500D01*
X151772835Y-72383500D01*
X151840956Y-72403502D01*
X151887449Y-72457158D01*
X151897553Y-72527432D01*
X151883671Y-72569429D01*
X151857644Y-72617565D01*
X151797710Y-72811180D01*
X151776524Y-73012750D01*
X151778542Y-73034923D01*
X151792903Y-73192715D01*
X151794894Y-73214596D01*
X151852119Y-73409029D01*
X151854972Y-73414486D01*
X151854973Y-73414489D01*
X151859127Y-73422435D01*
X151946019Y-73588645D01*
X151949879Y-73593445D01*
X151949879Y-73593446D01*
X151964938Y-73612176D01*
X152073019Y-73746601D01*
X152228281Y-73876881D01*
X152233673Y-73879845D01*
X152233677Y-73879848D01*
X152399463Y-73970989D01*
X152405891Y-73974523D01*
X152599084Y-74035807D01*
X152605201Y-74036493D01*
X152605205Y-74036494D01*
X152673604Y-74044166D01*
X152756817Y-74053500D01*
X153316004Y-74053500D01*
X153466713Y-74038723D01*
X153660742Y-73980142D01*
X153839698Y-73884990D01*
X153852341Y-73874679D01*
X153983078Y-73768051D01*
X153996763Y-73756890D01*
X154000692Y-73752141D01*
X154122027Y-73605472D01*
X154122029Y-73605469D01*
X154125956Y-73600722D01*
X154222356Y-73422435D01*
X154282290Y-73228820D01*
X154286863Y-73185316D01*
X154302832Y-73033378D01*
X154302832Y-73033377D01*
X154303476Y-73027250D01*
X154289695Y-72875825D01*
X154285665Y-72831543D01*
X154285664Y-72831540D01*
X154285106Y-72825404D01*
X154257534Y-72731721D01*
X154234220Y-72652509D01*
X154227881Y-72630971D01*
X154223951Y-72623452D01*
X154165823Y-72512264D01*
X154133981Y-72451355D01*
X154134016Y-72451337D01*
X154114111Y-72385559D01*
X154129271Y-72324591D01*
X154169602Y-72250000D01*
X154222356Y-72152435D01*
X154262471Y-72022845D01*
X154280468Y-71964707D01*
X154280469Y-71964704D01*
X154282290Y-71958820D01*
X154303476Y-71757250D01*
X154285106Y-71555404D01*
X154227881Y-71360971D01*
X154228740Y-71360718D01*
X154222286Y-71295338D01*
X154235452Y-71258594D01*
X154240615Y-71251705D01*
X154269636Y-71174293D01*
X154278747Y-71149988D01*
X154291745Y-71115316D01*
X154298500Y-71053134D01*
X154298500Y-69906866D01*
X154291745Y-69844684D01*
X154240615Y-69708295D01*
X154153261Y-69591739D01*
X154036705Y-69504385D01*
X153900316Y-69453255D01*
X153838134Y-69446500D01*
X152241866Y-69446500D01*
X152179684Y-69453255D01*
X152043295Y-69504385D01*
X151926739Y-69591739D01*
X151839385Y-69708295D01*
X151788255Y-69844684D01*
X151781500Y-69906866D01*
X151781500Y-70990500D01*
X151761498Y-71058621D01*
X151707842Y-71105114D01*
X151655500Y-71116500D01*
X149828768Y-71116500D01*
X149817585Y-71115973D01*
X149810092Y-71114298D01*
X149802166Y-71114547D01*
X149802165Y-71114547D01*
X149742002Y-71116438D01*
X149738044Y-71116500D01*
X149710144Y-71116500D01*
X149706154Y-71117004D01*
X149694320Y-71117936D01*
X149650111Y-71119326D01*
X149642497Y-71121538D01*
X149642492Y-71121539D01*
X149630659Y-71124977D01*
X149611296Y-71128988D01*
X149591203Y-71131526D01*
X149583836Y-71134443D01*
X149583831Y-71134444D01*
X149550092Y-71147802D01*
X149538865Y-71151646D01*
X149496407Y-71163982D01*
X149489581Y-71168019D01*
X149478972Y-71174293D01*
X149461224Y-71182988D01*
X149442383Y-71190448D01*
X149435967Y-71195110D01*
X149435966Y-71195110D01*
X149406613Y-71216436D01*
X149396693Y-71222952D01*
X149365465Y-71241420D01*
X149365462Y-71241422D01*
X149358638Y-71245458D01*
X149344317Y-71259779D01*
X149329284Y-71272619D01*
X149312893Y-71284528D01*
X149307840Y-71290636D01*
X149307838Y-71290638D01*
X149303557Y-71295813D01*
X149244725Y-71335553D01*
X149206471Y-71341500D01*
X149154513Y-71341500D01*
X149148058Y-71342872D01*
X149148049Y-71342873D01*
X149125972Y-71347566D01*
X149055181Y-71342165D01*
X148998548Y-71299349D01*
X148974054Y-71232711D01*
X148989475Y-71163410D01*
X149010679Y-71135225D01*
X149200499Y-70945405D01*
X149262811Y-70911379D01*
X149289594Y-70908500D01*
X149345487Y-70908500D01*
X149351939Y-70907128D01*
X149351944Y-70907128D01*
X149438887Y-70888647D01*
X149532288Y-70868794D01*
X149538319Y-70866109D01*
X149700722Y-70793803D01*
X149700724Y-70793802D01*
X149706752Y-70791118D01*
X149861253Y-70678866D01*
X149989040Y-70536944D01*
X150084527Y-70371556D01*
X150143542Y-70189928D01*
X150163504Y-70000000D01*
X150160907Y-69975293D01*
X150144232Y-69816635D01*
X150144232Y-69816633D01*
X150143542Y-69810072D01*
X150084527Y-69628444D01*
X149989040Y-69463056D01*
X149861253Y-69321134D01*
X149706752Y-69208882D01*
X149700724Y-69206198D01*
X149700722Y-69206197D01*
X149538319Y-69133891D01*
X149538318Y-69133891D01*
X149532288Y-69131206D01*
X149438888Y-69111353D01*
X149351944Y-69092872D01*
X149351939Y-69092872D01*
X149345487Y-69091500D01*
X149154513Y-69091500D01*
X149148061Y-69092872D01*
X149148056Y-69092872D01*
X149061112Y-69111353D01*
X148967712Y-69131206D01*
X148961682Y-69133891D01*
X148961681Y-69133891D01*
X148799278Y-69206197D01*
X148799276Y-69206198D01*
X148793248Y-69208882D01*
X148638747Y-69321134D01*
X148510960Y-69463056D01*
X148415473Y-69628444D01*
X148356458Y-69810072D01*
X148355768Y-69816633D01*
X148355768Y-69816635D01*
X148339093Y-69975293D01*
X148312080Y-70040950D01*
X148302878Y-70051218D01*
X144259500Y-74094595D01*
X144197188Y-74128621D01*
X144170405Y-74131500D01*
X139526805Y-74131500D01*
X139458684Y-74111498D01*
X139421013Y-74073940D01*
X139332822Y-73937617D01*
X139332820Y-73937614D01*
X139330014Y-73933277D01*
X139326532Y-73929450D01*
X139182798Y-73771488D01*
X139151746Y-73707642D01*
X139160141Y-73637143D01*
X139205317Y-73582375D01*
X139231761Y-73568706D01*
X139338297Y-73528767D01*
X139346705Y-73525615D01*
X139463261Y-73438261D01*
X139550615Y-73321705D01*
X139601745Y-73185316D01*
X139608500Y-73123134D01*
X139608500Y-71326866D01*
X139601745Y-71264684D01*
X139550615Y-71128295D01*
X139463261Y-71011739D01*
X139346705Y-70924385D01*
X139210316Y-70873255D01*
X139148134Y-70866500D01*
X137351866Y-70866500D01*
X137289684Y-70873255D01*
X137153295Y-70924385D01*
X137036739Y-71011739D01*
X136949385Y-71128295D01*
X136898255Y-71264684D01*
X136891500Y-71326866D01*
X136891500Y-73123134D01*
X136898255Y-73185316D01*
X136949385Y-73321705D01*
X137036739Y-73438261D01*
X137153295Y-73525615D01*
X137161704Y-73528767D01*
X137161705Y-73528768D01*
X137270451Y-73569535D01*
X137327216Y-73612176D01*
X137351916Y-73678738D01*
X137336709Y-73748087D01*
X137317316Y-73774568D01*
X137209030Y-73887883D01*
X137190629Y-73907138D01*
X137187715Y-73911410D01*
X137187714Y-73911411D01*
X137178472Y-73924959D01*
X137064743Y-74091680D01*
X137050659Y-74122022D01*
X136980473Y-74273226D01*
X136970688Y-74294305D01*
X136910989Y-74509570D01*
X136887251Y-74731695D01*
X136258500Y-74731695D01*
X136258500Y-68634500D01*
X136278502Y-68566379D01*
X136332158Y-68519886D01*
X136384500Y-68508500D01*
X164115500Y-68508500D01*
X164183621Y-68528502D01*
G37*
%TD.AperFunction*%
%TD*%
M02*
