%TF.GenerationSoftware,KiCad,Pcbnew,(6.0.5-0)*%
%TF.CreationDate,2022-06-15T16:59:53+05:30*%
%TF.ProjectId,CNY70_PCB,434e5937-305f-4504-9342-2e6b69636164,rev?*%
%TF.SameCoordinates,Original*%
%TF.FileFunction,Copper,L1,Top*%
%TF.FilePolarity,Positive*%
%FSLAX46Y46*%
G04 Gerber Fmt 4.6, Leading zero omitted, Abs format (unit mm)*
G04 Created by KiCad (PCBNEW (6.0.5-0)) date 2022-06-15 16:59:53*
%MOMM*%
%LPD*%
G01*
G04 APERTURE LIST*
G04 Aperture macros list*
%AMRoundRect*
0 Rectangle with rounded corners*
0 $1 Rounding radius*
0 $2 $3 $4 $5 $6 $7 $8 $9 X,Y pos of 4 corners*
0 Add a 4 corners polygon primitive as box body*
4,1,4,$2,$3,$4,$5,$6,$7,$8,$9,$2,$3,0*
0 Add four circle primitives for the rounded corners*
1,1,$1+$1,$2,$3*
1,1,$1+$1,$4,$5*
1,1,$1+$1,$6,$7*
1,1,$1+$1,$8,$9*
0 Add four rect primitives between the rounded corners*
20,1,$1+$1,$2,$3,$4,$5,0*
20,1,$1+$1,$4,$5,$6,$7,0*
20,1,$1+$1,$6,$7,$8,$9,0*
20,1,$1+$1,$8,$9,$2,$3,0*%
G04 Aperture macros list end*
%TA.AperFunction,ComponentPad*%
%ADD10R,1.700000X1.700000*%
%TD*%
%TA.AperFunction,ComponentPad*%
%ADD11O,1.700000X1.700000*%
%TD*%
%TA.AperFunction,ComponentPad*%
%ADD12C,1.600000*%
%TD*%
%TA.AperFunction,ComponentPad*%
%ADD13RoundRect,0.249600X-0.550400X0.550400X-0.550400X-0.550400X0.550400X-0.550400X0.550400X0.550400X0*%
%TD*%
%TA.AperFunction,SMDPad,CuDef*%
%ADD14RoundRect,0.250000X0.350000X0.450000X-0.350000X0.450000X-0.350000X-0.450000X0.350000X-0.450000X0*%
%TD*%
%TA.AperFunction,SMDPad,CuDef*%
%ADD15RoundRect,0.250000X-0.350000X-0.450000X0.350000X-0.450000X0.350000X0.450000X-0.350000X0.450000X0*%
%TD*%
%TA.AperFunction,ComponentPad*%
%ADD16R,1.500000X1.050000*%
%TD*%
%TA.AperFunction,ComponentPad*%
%ADD17O,1.500000X1.050000*%
%TD*%
%TA.AperFunction,ViaPad*%
%ADD18C,0.800000*%
%TD*%
%TA.AperFunction,Conductor*%
%ADD19C,0.250000*%
%TD*%
G04 APERTURE END LIST*
D10*
%TO.P,J1,1,Pin_1*%
%TO.N,VCC*%
X138250000Y-72225000D03*
D11*
%TO.P,J1,2,Pin_2*%
%TO.N,Net-(J1-Pad2)*%
X138250000Y-74765000D03*
%TO.P,J1,3,Pin_3*%
%TO.N,GND*%
X138250000Y-77305000D03*
%TD*%
D12*
%TO.P,U1,4,E*%
%TO.N,Net-(Q1-Pad2)*%
X159250000Y-76550000D03*
%TO.P,U1,3,C*%
%TO.N,VCC*%
X161790000Y-76550000D03*
%TO.P,U1,2,K*%
%TO.N,GND*%
X161790000Y-73750000D03*
D13*
%TO.P,U1,1,A*%
%TO.N,Net-(R1-Pad2)*%
X159250000Y-73750000D03*
%TD*%
D14*
%TO.P,R7,1*%
%TO.N,Net-(Q1-Pad3)*%
X143250000Y-79250000D03*
%TO.P,R7,2*%
%TO.N,GND*%
X141250000Y-79250000D03*
%TD*%
D15*
%TO.P,R6,1*%
%TO.N,Net-(Q2-Pad2)*%
X147250000Y-74750000D03*
%TO.P,R6,2*%
%TO.N,GND*%
X149250000Y-74750000D03*
%TD*%
%TO.P,R5,1*%
%TO.N,VCC*%
X147250000Y-70000000D03*
%TO.P,R5,2*%
%TO.N,Net-(J1-Pad2)*%
X149250000Y-70000000D03*
%TD*%
D14*
%TO.P,R4,1*%
%TO.N,Net-(Q2-Pad2)*%
X149250000Y-72250000D03*
%TO.P,R4,2*%
%TO.N,Net-(Q1-Pad1)*%
X147250000Y-72250000D03*
%TD*%
D15*
%TO.P,R3,1*%
%TO.N,VCC*%
X147250000Y-77000000D03*
%TO.P,R3,2*%
%TO.N,Net-(Q1-Pad1)*%
X149250000Y-77000000D03*
%TD*%
D14*
%TO.P,R2,1*%
%TO.N,Net-(Q1-Pad2)*%
X149250000Y-79250000D03*
%TO.P,R2,2*%
%TO.N,GND*%
X147250000Y-79250000D03*
%TD*%
D15*
%TO.P,R1,1*%
%TO.N,VCC*%
X141250000Y-70000000D03*
%TO.P,R1,2*%
%TO.N,Net-(R1-Pad2)*%
X143250000Y-70000000D03*
%TD*%
D16*
%TO.P,Q2,1,C*%
%TO.N,Net-(J1-Pad2)*%
X153040000Y-70480000D03*
D17*
%TO.P,Q2,2,B*%
%TO.N,Net-(Q2-Pad2)*%
X153040000Y-71750000D03*
%TO.P,Q2,3,E*%
%TO.N,Net-(Q1-Pad3)*%
X153040000Y-73020000D03*
%TD*%
D16*
%TO.P,Q1,1,C*%
%TO.N,Net-(Q1-Pad1)*%
X153000000Y-76250000D03*
D17*
%TO.P,Q1,2,B*%
%TO.N,Net-(Q1-Pad2)*%
X153000000Y-77520000D03*
%TO.P,Q1,3,E*%
%TO.N,Net-(Q1-Pad3)*%
X153000000Y-78790000D03*
%TD*%
D18*
%TO.N,Net-(Q2-Pad2)*%
X147250000Y-74750000D03*
X149250000Y-72250000D03*
%TO.N,Net-(J1-Pad2)*%
X149250000Y-70000000D03*
%TO.N,VCC*%
X153250000Y-80000000D03*
X147250000Y-77000000D03*
%TO.N,GND*%
X141200000Y-79400000D03*
X147200000Y-79200000D03*
X149200000Y-74800000D03*
%TD*%
D19*
%TO.N,VCC*%
X158390000Y-80000000D02*
X158390000Y-79950000D01*
X158390000Y-79950000D02*
X161790000Y-76550000D01*
%TO.N,Net-(R1-Pad2)*%
X159250000Y-73750000D02*
X159250000Y-70050000D01*
X159250000Y-70050000D02*
X157800000Y-68600000D01*
%TO.N,VCC*%
X145400000Y-71400000D02*
X145400000Y-71600000D01*
X145400000Y-71600000D02*
X145400000Y-76000000D01*
X141250000Y-70000000D02*
X142850000Y-71600000D01*
X142850000Y-71600000D02*
X145400000Y-71600000D01*
X158390000Y-80000000D02*
X153250000Y-80000000D01*
X147250000Y-70000000D02*
X146800000Y-70000000D01*
X146800000Y-70000000D02*
X145400000Y-71400000D01*
X145400000Y-76000000D02*
X146400000Y-77000000D01*
X146400000Y-77000000D02*
X147250000Y-77000000D01*
X141250000Y-70000000D02*
X140475000Y-70000000D01*
X140475000Y-70000000D02*
X138250000Y-72225000D01*
%TO.N,GND*%
X141250000Y-79350000D02*
X141200000Y-79400000D01*
X141250000Y-79250000D02*
X141250000Y-79350000D01*
%TO.N,Net-(Q1-Pad3)*%
X143250000Y-79250000D02*
X144600000Y-80600000D01*
X144600000Y-80600000D02*
X151190000Y-80600000D01*
X151190000Y-80600000D02*
X153000000Y-78790000D01*
%TO.N,Net-(R1-Pad2)*%
X143250000Y-70000000D02*
X144600000Y-70000000D01*
X144600000Y-70000000D02*
X146000000Y-68600000D01*
X146000000Y-68600000D02*
X157800000Y-68600000D01*
%TO.N,Net-(Q1-Pad2)*%
X149250000Y-79250000D02*
X150980000Y-77520000D01*
X150980000Y-77520000D02*
X153000000Y-77520000D01*
%TO.N,GND*%
X147250000Y-79250000D02*
X147200000Y-79200000D01*
X149250000Y-74750000D02*
X149200000Y-74800000D01*
%TO.N,Net-(Q1-Pad1)*%
X149250000Y-77000000D02*
X150000000Y-76250000D01*
X150000000Y-76250000D02*
X153000000Y-76250000D01*
%TO.N,Net-(Q1-Pad3)*%
X154800000Y-78800000D02*
X154600000Y-78800000D01*
X155800000Y-77800000D02*
X154800000Y-78800000D01*
X154620000Y-73020000D02*
X155800000Y-74200000D01*
X153040000Y-73020000D02*
X154620000Y-73020000D01*
X155800000Y-74200000D02*
X155800000Y-77800000D01*
X154600000Y-78800000D02*
X154590000Y-78790000D01*
X154590000Y-78790000D02*
X153000000Y-78790000D01*
%TO.N,Net-(Q1-Pad1)*%
X147250000Y-72250000D02*
X147250000Y-72475000D01*
X147250000Y-72475000D02*
X148275000Y-73500000D01*
X148275000Y-73500000D02*
X150925000Y-73500000D01*
X150925000Y-73500000D02*
X153000000Y-75575000D01*
X153000000Y-75575000D02*
X153000000Y-76250000D01*
%TO.N,Net-(J1-Pad2)*%
X149250000Y-70000000D02*
X149730000Y-70480000D01*
X149730000Y-70480000D02*
X153040000Y-70480000D01*
%TO.N,Net-(Q2-Pad2)*%
X147250000Y-74500000D02*
X147250000Y-74750000D01*
%TD*%
%TA.AperFunction,Conductor*%
%TO.N,VCC*%
G36*
X164183621Y-68528502D02*
G01*
X164230114Y-68582158D01*
X164241500Y-68634500D01*
X164241500Y-80365500D01*
X164221498Y-80433621D01*
X164167842Y-80480114D01*
X164115500Y-80491500D01*
X152498594Y-80491500D01*
X152430473Y-80471498D01*
X152383980Y-80417842D01*
X152373876Y-80347568D01*
X152403370Y-80282988D01*
X152409499Y-80276405D01*
X152825499Y-79860405D01*
X152887811Y-79826379D01*
X152914594Y-79823500D01*
X153276004Y-79823500D01*
X153426713Y-79808723D01*
X153620742Y-79750142D01*
X153799698Y-79654990D01*
X153956763Y-79526890D01*
X154004501Y-79469184D01*
X154063333Y-79429447D01*
X154101585Y-79423500D01*
X154465107Y-79423500D01*
X154496442Y-79427459D01*
X154519970Y-79433500D01*
X154540224Y-79433500D01*
X154559934Y-79435051D01*
X154579943Y-79438220D01*
X154587835Y-79437474D01*
X154606580Y-79435702D01*
X154623962Y-79434059D01*
X154635819Y-79433500D01*
X154721233Y-79433500D01*
X154732416Y-79434027D01*
X154739909Y-79435702D01*
X154747835Y-79435453D01*
X154747836Y-79435453D01*
X154807986Y-79433562D01*
X154811945Y-79433500D01*
X154839856Y-79433500D01*
X154843791Y-79433003D01*
X154843856Y-79432995D01*
X154855693Y-79432062D01*
X154887951Y-79431048D01*
X154891970Y-79430922D01*
X154899889Y-79430673D01*
X154919343Y-79425021D01*
X154938700Y-79421013D01*
X154950930Y-79419468D01*
X154950931Y-79419468D01*
X154958797Y-79418474D01*
X154966168Y-79415555D01*
X154966170Y-79415555D01*
X154999912Y-79402196D01*
X155011142Y-79398351D01*
X155045983Y-79388229D01*
X155045984Y-79388229D01*
X155053593Y-79386018D01*
X155060412Y-79381985D01*
X155060417Y-79381983D01*
X155071028Y-79375707D01*
X155088776Y-79367012D01*
X155107617Y-79359552D01*
X155143387Y-79333564D01*
X155153307Y-79327048D01*
X155184535Y-79308580D01*
X155184538Y-79308578D01*
X155191362Y-79304542D01*
X155205683Y-79290221D01*
X155220717Y-79277380D01*
X155230694Y-79270131D01*
X155237107Y-79265472D01*
X155265298Y-79231395D01*
X155273288Y-79222616D01*
X156192247Y-78303657D01*
X156200537Y-78296113D01*
X156207018Y-78292000D01*
X156253659Y-78242332D01*
X156256413Y-78239491D01*
X156276135Y-78219769D01*
X156278612Y-78216576D01*
X156286317Y-78207555D01*
X156300795Y-78192137D01*
X156316586Y-78175321D01*
X156320407Y-78168371D01*
X156326346Y-78157568D01*
X156337202Y-78141041D01*
X156344757Y-78131302D01*
X156344758Y-78131300D01*
X156349614Y-78125040D01*
X156367174Y-78084460D01*
X156372391Y-78073812D01*
X156389877Y-78042005D01*
X156393695Y-78035060D01*
X156398733Y-78015437D01*
X156405137Y-77996734D01*
X156410033Y-77985420D01*
X156410033Y-77985419D01*
X156413181Y-77978145D01*
X156414420Y-77970322D01*
X156414423Y-77970312D01*
X156420099Y-77934476D01*
X156422505Y-77922856D01*
X156431528Y-77887711D01*
X156431528Y-77887710D01*
X156433500Y-77880030D01*
X156433500Y-77859776D01*
X156435051Y-77840065D01*
X156436980Y-77827886D01*
X156438220Y-77820057D01*
X156434059Y-77776038D01*
X156433500Y-77764181D01*
X156433500Y-74278767D01*
X156434027Y-74267584D01*
X156435702Y-74260091D01*
X156433562Y-74192014D01*
X156433500Y-74188055D01*
X156433500Y-74160144D01*
X156432995Y-74156144D01*
X156432062Y-74144301D01*
X156432048Y-74143834D01*
X156430673Y-74100111D01*
X156425021Y-74080657D01*
X156421013Y-74061300D01*
X156419468Y-74049070D01*
X156419468Y-74049069D01*
X156418474Y-74041203D01*
X156415555Y-74033830D01*
X156402196Y-74000088D01*
X156398351Y-73988858D01*
X156388229Y-73954017D01*
X156388229Y-73954016D01*
X156386018Y-73946407D01*
X156381985Y-73939588D01*
X156381983Y-73939583D01*
X156375707Y-73928972D01*
X156367012Y-73911224D01*
X156359552Y-73892383D01*
X156333564Y-73856613D01*
X156327048Y-73846693D01*
X156308580Y-73815465D01*
X156308578Y-73815462D01*
X156304542Y-73808638D01*
X156290221Y-73794317D01*
X156277380Y-73779283D01*
X156270131Y-73769306D01*
X156265472Y-73762893D01*
X156231395Y-73734702D01*
X156222616Y-73726712D01*
X155123652Y-72627747D01*
X155116112Y-72619461D01*
X155112000Y-72612982D01*
X155062348Y-72566356D01*
X155059507Y-72563602D01*
X155039770Y-72543865D01*
X155036573Y-72541385D01*
X155027551Y-72533680D01*
X155001100Y-72508841D01*
X154995321Y-72503414D01*
X154988375Y-72499595D01*
X154988372Y-72499593D01*
X154977566Y-72493652D01*
X154961047Y-72482801D01*
X154958301Y-72480671D01*
X154945041Y-72470386D01*
X154937772Y-72467241D01*
X154937768Y-72467238D01*
X154904463Y-72452826D01*
X154893813Y-72447609D01*
X154855060Y-72426305D01*
X154835437Y-72421267D01*
X154816734Y-72414863D01*
X154805420Y-72409967D01*
X154805419Y-72409967D01*
X154798145Y-72406819D01*
X154790322Y-72405580D01*
X154790312Y-72405577D01*
X154754476Y-72399901D01*
X154742856Y-72397495D01*
X154707711Y-72388472D01*
X154707710Y-72388472D01*
X154700030Y-72386500D01*
X154679776Y-72386500D01*
X154660065Y-72384949D01*
X154647886Y-72383020D01*
X154640057Y-72381780D01*
X154603254Y-72385259D01*
X154596039Y-72385941D01*
X154584181Y-72386500D01*
X154307165Y-72386500D01*
X154239044Y-72366498D01*
X154192551Y-72312842D01*
X154182447Y-72242568D01*
X154196329Y-72200571D01*
X154219426Y-72157853D01*
X154222356Y-72152435D01*
X154279905Y-71966525D01*
X154280468Y-71964707D01*
X154280469Y-71964704D01*
X154282290Y-71958820D01*
X154303476Y-71757250D01*
X154285106Y-71555404D01*
X154279188Y-71535294D01*
X154229620Y-71366879D01*
X154229619Y-71366877D01*
X154227881Y-71360971D01*
X154228740Y-71360718D01*
X154222286Y-71295338D01*
X154235452Y-71258594D01*
X154240615Y-71251705D01*
X154254776Y-71213932D01*
X154288971Y-71122715D01*
X154291745Y-71115316D01*
X154298500Y-71053134D01*
X154298500Y-69906866D01*
X154291745Y-69844684D01*
X154240615Y-69708295D01*
X154153261Y-69591739D01*
X154036705Y-69504385D01*
X154028296Y-69501233D01*
X154028295Y-69501232D01*
X153964942Y-69477482D01*
X153908177Y-69434841D01*
X153883477Y-69368279D01*
X153898684Y-69298930D01*
X153948970Y-69248812D01*
X154009171Y-69233500D01*
X157485406Y-69233500D01*
X157553527Y-69253502D01*
X157574501Y-69270405D01*
X158579595Y-70275499D01*
X158613621Y-70337811D01*
X158616500Y-70364594D01*
X158616500Y-72337329D01*
X158596498Y-72405450D01*
X158542842Y-72451943D01*
X158530379Y-72456852D01*
X158375825Y-72508415D01*
X158225502Y-72601437D01*
X158220332Y-72606616D01*
X158199238Y-72627747D01*
X158100611Y-72726547D01*
X158007851Y-72877032D01*
X158005546Y-72883980D01*
X158005546Y-72883981D01*
X157958218Y-73026669D01*
X157952197Y-73044820D01*
X157941500Y-73149227D01*
X157941501Y-74350772D01*
X157952469Y-74456484D01*
X158008415Y-74624175D01*
X158101437Y-74774498D01*
X158226547Y-74899389D01*
X158377032Y-74992149D01*
X158383980Y-74994454D01*
X158383981Y-74994454D01*
X158538289Y-75045637D01*
X158538291Y-75045638D01*
X158544820Y-75047803D01*
X158649227Y-75058500D01*
X158803634Y-75058500D01*
X158871755Y-75078502D01*
X158918248Y-75132158D01*
X158928352Y-75202432D01*
X158898858Y-75267012D01*
X158836245Y-75306207D01*
X158806067Y-75314293D01*
X158806065Y-75314294D01*
X158800757Y-75315716D01*
X158795776Y-75318039D01*
X158795775Y-75318039D01*
X158598238Y-75410151D01*
X158598233Y-75410154D01*
X158593251Y-75412477D01*
X158502941Y-75475713D01*
X158410211Y-75540643D01*
X158410208Y-75540645D01*
X158405700Y-75543802D01*
X158243802Y-75705700D01*
X158240645Y-75710208D01*
X158240643Y-75710211D01*
X158239467Y-75711891D01*
X158112477Y-75893251D01*
X158110154Y-75898233D01*
X158110151Y-75898238D01*
X158059997Y-76005795D01*
X158015716Y-76100757D01*
X158014294Y-76106065D01*
X158014293Y-76106067D01*
X157960171Y-76308051D01*
X157956457Y-76321913D01*
X157936502Y-76550000D01*
X157956457Y-76778087D01*
X157957881Y-76783400D01*
X157957881Y-76783402D01*
X157995025Y-76922022D01*
X158015716Y-76999243D01*
X158018039Y-77004224D01*
X158018039Y-77004225D01*
X158110151Y-77201762D01*
X158110154Y-77201767D01*
X158112477Y-77206749D01*
X158185902Y-77311611D01*
X158230224Y-77374908D01*
X158243802Y-77394300D01*
X158405700Y-77556198D01*
X158410208Y-77559355D01*
X158410211Y-77559357D01*
X158477061Y-77606166D01*
X158593251Y-77687523D01*
X158598233Y-77689846D01*
X158598238Y-77689849D01*
X158778587Y-77773946D01*
X158800757Y-77784284D01*
X158806065Y-77785706D01*
X158806067Y-77785707D01*
X159016598Y-77842119D01*
X159016600Y-77842119D01*
X159021913Y-77843543D01*
X159250000Y-77863498D01*
X159478087Y-77843543D01*
X159483400Y-77842119D01*
X159483402Y-77842119D01*
X159693933Y-77785707D01*
X159693935Y-77785706D01*
X159699243Y-77784284D01*
X159721413Y-77773946D01*
X159901762Y-77689849D01*
X159901767Y-77689846D01*
X159906749Y-77687523D01*
X159980243Y-77636062D01*
X161068493Y-77636062D01*
X161077789Y-77648077D01*
X161128994Y-77683931D01*
X161138489Y-77689414D01*
X161335947Y-77781490D01*
X161346239Y-77785236D01*
X161556688Y-77841625D01*
X161567481Y-77843528D01*
X161784525Y-77862517D01*
X161795475Y-77862517D01*
X162012519Y-77843528D01*
X162023312Y-77841625D01*
X162233761Y-77785236D01*
X162244053Y-77781490D01*
X162441511Y-77689414D01*
X162451006Y-77683931D01*
X162503048Y-77647491D01*
X162511424Y-77637012D01*
X162504356Y-77623566D01*
X161802812Y-76922022D01*
X161788868Y-76914408D01*
X161787035Y-76914539D01*
X161780420Y-76918790D01*
X161074923Y-77624287D01*
X161068493Y-77636062D01*
X159980243Y-77636062D01*
X160022939Y-77606166D01*
X160089789Y-77559357D01*
X160089792Y-77559355D01*
X160094300Y-77556198D01*
X160256198Y-77394300D01*
X160269777Y-77374908D01*
X160314098Y-77311611D01*
X160387523Y-77206749D01*
X160389846Y-77201767D01*
X160389849Y-77201762D01*
X160406081Y-77166951D01*
X160452998Y-77113666D01*
X160521275Y-77094205D01*
X160589235Y-77114747D01*
X160634471Y-77166951D01*
X160650586Y-77201511D01*
X160656069Y-77211006D01*
X160692509Y-77263048D01*
X160702988Y-77271424D01*
X160716434Y-77264356D01*
X161417978Y-76562812D01*
X161424356Y-76551132D01*
X162154408Y-76551132D01*
X162154539Y-76552965D01*
X162158790Y-76559580D01*
X162864287Y-77265077D01*
X162876062Y-77271507D01*
X162888077Y-77262211D01*
X162923931Y-77211006D01*
X162929414Y-77201511D01*
X163021490Y-77004053D01*
X163025236Y-76993761D01*
X163081625Y-76783312D01*
X163083528Y-76772519D01*
X163102517Y-76555475D01*
X163102517Y-76544525D01*
X163083528Y-76327481D01*
X163081625Y-76316688D01*
X163025236Y-76106239D01*
X163021490Y-76095947D01*
X162929414Y-75898489D01*
X162923931Y-75888994D01*
X162887491Y-75836952D01*
X162877012Y-75828576D01*
X162863566Y-75835644D01*
X162162022Y-76537188D01*
X162154408Y-76551132D01*
X161424356Y-76551132D01*
X161425592Y-76548868D01*
X161425461Y-76547035D01*
X161421210Y-76540420D01*
X160715713Y-75834923D01*
X160703938Y-75828493D01*
X160691923Y-75837789D01*
X160656069Y-75888994D01*
X160650586Y-75898489D01*
X160634471Y-75933049D01*
X160587554Y-75986334D01*
X160519277Y-76005795D01*
X160451317Y-75985253D01*
X160406081Y-75933049D01*
X160389849Y-75898238D01*
X160389846Y-75898233D01*
X160387523Y-75893251D01*
X160260533Y-75711891D01*
X160259357Y-75710211D01*
X160259355Y-75710208D01*
X160256198Y-75705700D01*
X160094300Y-75543802D01*
X160089792Y-75540645D01*
X160089789Y-75540643D01*
X159997059Y-75475713D01*
X159906749Y-75412477D01*
X159901767Y-75410154D01*
X159901762Y-75410151D01*
X159704225Y-75318039D01*
X159704224Y-75318039D01*
X159699243Y-75315716D01*
X159693936Y-75314294D01*
X159693925Y-75314290D01*
X159663751Y-75306205D01*
X159603129Y-75269254D01*
X159572107Y-75205393D01*
X159580536Y-75134898D01*
X159625740Y-75080152D01*
X159696363Y-75058499D01*
X159850772Y-75058499D01*
X159854016Y-75058162D01*
X159854024Y-75058162D01*
X159900032Y-75053388D01*
X159956484Y-75047531D01*
X160124175Y-74991585D01*
X160274498Y-74898563D01*
X160399389Y-74773453D01*
X160492149Y-74622968D01*
X160513393Y-74558919D01*
X160553824Y-74500561D01*
X160619388Y-74473324D01*
X160689270Y-74485858D01*
X160736199Y-74526317D01*
X160780643Y-74589789D01*
X160783802Y-74594300D01*
X160945700Y-74756198D01*
X160950208Y-74759355D01*
X160950211Y-74759357D01*
X161028389Y-74814098D01*
X161133251Y-74887523D01*
X161138233Y-74889846D01*
X161138238Y-74889849D01*
X161335775Y-74981961D01*
X161340757Y-74984284D01*
X161346064Y-74985706D01*
X161505966Y-75028552D01*
X161566588Y-75065504D01*
X161597610Y-75129365D01*
X161589181Y-75199859D01*
X161543978Y-75254606D01*
X161505965Y-75271966D01*
X161346239Y-75314764D01*
X161335947Y-75318510D01*
X161138489Y-75410586D01*
X161128994Y-75416069D01*
X161076952Y-75452509D01*
X161068576Y-75462988D01*
X161075644Y-75476434D01*
X161777188Y-76177978D01*
X161791132Y-76185592D01*
X161792965Y-76185461D01*
X161799580Y-76181210D01*
X162505077Y-75475713D01*
X162511507Y-75463938D01*
X162502211Y-75451923D01*
X162451006Y-75416069D01*
X162441511Y-75410586D01*
X162244053Y-75318510D01*
X162233761Y-75314764D01*
X162074035Y-75271966D01*
X162013412Y-75235014D01*
X161982391Y-75171154D01*
X161990819Y-75100659D01*
X162036022Y-75045912D01*
X162074034Y-75028552D01*
X162233936Y-74985706D01*
X162239243Y-74984284D01*
X162244225Y-74981961D01*
X162441762Y-74889849D01*
X162441767Y-74889846D01*
X162446749Y-74887523D01*
X162551611Y-74814098D01*
X162629789Y-74759357D01*
X162629792Y-74759355D01*
X162634300Y-74756198D01*
X162796198Y-74594300D01*
X162820972Y-74558920D01*
X162872130Y-74485858D01*
X162927523Y-74406749D01*
X162929846Y-74401767D01*
X162929849Y-74401762D01*
X163021961Y-74204225D01*
X163021961Y-74204224D01*
X163024284Y-74199243D01*
X163026750Y-74190042D01*
X163082119Y-73983402D01*
X163082119Y-73983400D01*
X163083543Y-73978087D01*
X163103498Y-73750000D01*
X163083543Y-73521913D01*
X163079911Y-73508357D01*
X163025707Y-73306067D01*
X163025706Y-73306065D01*
X163024284Y-73300757D01*
X163002405Y-73253836D01*
X162929849Y-73098238D01*
X162929846Y-73098233D01*
X162927523Y-73093251D01*
X162813540Y-72930467D01*
X162799357Y-72910211D01*
X162799355Y-72910208D01*
X162796198Y-72905700D01*
X162634300Y-72743802D01*
X162629792Y-72740645D01*
X162629789Y-72740643D01*
X162551611Y-72685902D01*
X162446749Y-72612477D01*
X162441767Y-72610154D01*
X162441762Y-72610151D01*
X162244225Y-72518039D01*
X162244224Y-72518039D01*
X162239243Y-72515716D01*
X162233935Y-72514294D01*
X162233933Y-72514293D01*
X162023402Y-72457881D01*
X162023400Y-72457881D01*
X162018087Y-72456457D01*
X161790000Y-72436502D01*
X161561913Y-72456457D01*
X161556600Y-72457881D01*
X161556598Y-72457881D01*
X161346067Y-72514293D01*
X161346065Y-72514294D01*
X161340757Y-72515716D01*
X161335776Y-72518039D01*
X161335775Y-72518039D01*
X161138238Y-72610151D01*
X161138233Y-72610154D01*
X161133251Y-72612477D01*
X161028389Y-72685902D01*
X160950211Y-72740643D01*
X160950208Y-72740645D01*
X160945700Y-72743802D01*
X160783802Y-72905700D01*
X160780645Y-72910208D01*
X160780643Y-72910211D01*
X160736174Y-72973719D01*
X160680716Y-73018047D01*
X160610097Y-73025356D01*
X160546737Y-72993325D01*
X160513437Y-72941324D01*
X160494839Y-72885577D01*
X160491585Y-72875825D01*
X160398563Y-72725502D01*
X160273453Y-72600611D01*
X160122968Y-72507851D01*
X160098072Y-72499593D01*
X159969832Y-72457057D01*
X159911472Y-72416626D01*
X159884236Y-72351061D01*
X159883500Y-72337464D01*
X159883500Y-70128768D01*
X159884027Y-70117585D01*
X159885702Y-70110092D01*
X159883562Y-70042001D01*
X159883500Y-70038044D01*
X159883500Y-70010144D01*
X159882996Y-70006153D01*
X159882063Y-69994311D01*
X159880923Y-69958036D01*
X159880674Y-69950111D01*
X159875021Y-69930652D01*
X159871012Y-69911293D01*
X159870453Y-69906866D01*
X159868474Y-69891203D01*
X159865558Y-69883837D01*
X159865556Y-69883831D01*
X159852200Y-69850098D01*
X159848355Y-69838868D01*
X159838230Y-69804017D01*
X159838230Y-69804016D01*
X159836019Y-69796407D01*
X159825705Y-69778966D01*
X159817008Y-69761213D01*
X159812472Y-69749758D01*
X159809552Y-69742383D01*
X159783563Y-69706612D01*
X159777047Y-69696692D01*
X159758578Y-69665463D01*
X159754542Y-69658638D01*
X159740221Y-69644317D01*
X159727380Y-69629283D01*
X159720131Y-69619306D01*
X159715472Y-69612893D01*
X159681395Y-69584702D01*
X159672626Y-69576722D01*
X158819498Y-68723593D01*
X158785474Y-68661283D01*
X158790539Y-68590467D01*
X158833086Y-68533632D01*
X158899606Y-68508821D01*
X158908595Y-68508500D01*
X164115500Y-68508500D01*
X164183621Y-68528502D01*
G37*
%TD.AperFunction*%
%TA.AperFunction,Conductor*%
G36*
X144959527Y-68528502D02*
G01*
X145006020Y-68582158D01*
X145016124Y-68652432D01*
X144986630Y-68717012D01*
X144980501Y-68723595D01*
X144475350Y-69228746D01*
X144413038Y-69262772D01*
X144342223Y-69257707D01*
X144285387Y-69215160D01*
X144279118Y-69205965D01*
X144198478Y-69075652D01*
X144073303Y-68950695D01*
X144067072Y-68946854D01*
X143928968Y-68861725D01*
X143928966Y-68861724D01*
X143922738Y-68857885D01*
X143842995Y-68831436D01*
X143761389Y-68804368D01*
X143761387Y-68804368D01*
X143754861Y-68802203D01*
X143748025Y-68801503D01*
X143748022Y-68801502D01*
X143704969Y-68797091D01*
X143650400Y-68791500D01*
X142849600Y-68791500D01*
X142846354Y-68791837D01*
X142846350Y-68791837D01*
X142750692Y-68801762D01*
X142750688Y-68801763D01*
X142743834Y-68802474D01*
X142737298Y-68804655D01*
X142737296Y-68804655D01*
X142720928Y-68810116D01*
X142576054Y-68858450D01*
X142425652Y-68951522D01*
X142420479Y-68956704D01*
X142338862Y-69038463D01*
X142276579Y-69072542D01*
X142205759Y-69067539D01*
X142160671Y-69038618D01*
X142078171Y-68956261D01*
X142066760Y-68947249D01*
X141928757Y-68862184D01*
X141915576Y-68856037D01*
X141761290Y-68804862D01*
X141747914Y-68801995D01*
X141653562Y-68792328D01*
X141647145Y-68792000D01*
X141522115Y-68792000D01*
X141506876Y-68796475D01*
X141505671Y-68797865D01*
X141504000Y-68805548D01*
X141504000Y-71189884D01*
X141508475Y-71205123D01*
X141509865Y-71206328D01*
X141517548Y-71207999D01*
X141647095Y-71207999D01*
X141653614Y-71207662D01*
X141749206Y-71197743D01*
X141762600Y-71194851D01*
X141916784Y-71143412D01*
X141929962Y-71137239D01*
X142067807Y-71051937D01*
X142079208Y-71042901D01*
X142160430Y-70961538D01*
X142222713Y-70927459D01*
X142293533Y-70932462D01*
X142338620Y-70961383D01*
X142421512Y-71044130D01*
X142421517Y-71044134D01*
X142426697Y-71049305D01*
X142432927Y-71053145D01*
X142432928Y-71053146D01*
X142570288Y-71137816D01*
X142577262Y-71142115D01*
X142605931Y-71151624D01*
X142738611Y-71195632D01*
X142738613Y-71195632D01*
X142745139Y-71197797D01*
X142751975Y-71198497D01*
X142751978Y-71198498D01*
X142795031Y-71202909D01*
X142849600Y-71208500D01*
X143650400Y-71208500D01*
X143653646Y-71208163D01*
X143653650Y-71208163D01*
X143749308Y-71198238D01*
X143749312Y-71198237D01*
X143756166Y-71197526D01*
X143762702Y-71195345D01*
X143762704Y-71195345D01*
X143894806Y-71151272D01*
X143923946Y-71141550D01*
X144074348Y-71048478D01*
X144199305Y-70923303D01*
X144225660Y-70880548D01*
X144288275Y-70778968D01*
X144288276Y-70778966D01*
X144292115Y-70772738D01*
X144309663Y-70719832D01*
X144350094Y-70661473D01*
X144415658Y-70634236D01*
X144429256Y-70633500D01*
X144521233Y-70633500D01*
X144532416Y-70634027D01*
X144539909Y-70635702D01*
X144547835Y-70635453D01*
X144547836Y-70635453D01*
X144607986Y-70633562D01*
X144611945Y-70633500D01*
X144639856Y-70633500D01*
X144643791Y-70633003D01*
X144643856Y-70632995D01*
X144655693Y-70632062D01*
X144687951Y-70631048D01*
X144691970Y-70630922D01*
X144699889Y-70630673D01*
X144719343Y-70625021D01*
X144738700Y-70621013D01*
X144750930Y-70619468D01*
X144750931Y-70619468D01*
X144758797Y-70618474D01*
X144766168Y-70615555D01*
X144766170Y-70615555D01*
X144799912Y-70602196D01*
X144811142Y-70598351D01*
X144845983Y-70588229D01*
X144845984Y-70588229D01*
X144853593Y-70586018D01*
X144860412Y-70581985D01*
X144860417Y-70581983D01*
X144871028Y-70575707D01*
X144888776Y-70567012D01*
X144907617Y-70559552D01*
X144943387Y-70533564D01*
X144953307Y-70527048D01*
X144984535Y-70508580D01*
X144984538Y-70508578D01*
X144991362Y-70504542D01*
X145005683Y-70490221D01*
X145020717Y-70477380D01*
X145030694Y-70470131D01*
X145037107Y-70465472D01*
X145065298Y-70431395D01*
X145073278Y-70422626D01*
X145926907Y-69568998D01*
X145989217Y-69534974D01*
X146060033Y-69540039D01*
X146116868Y-69582586D01*
X146141679Y-69649106D01*
X146142000Y-69658095D01*
X146142000Y-69727885D01*
X146146475Y-69743124D01*
X146147865Y-69744329D01*
X146155548Y-69746000D01*
X147378000Y-69746000D01*
X147446121Y-69766002D01*
X147492614Y-69819658D01*
X147504000Y-69872000D01*
X147504000Y-70128000D01*
X147483998Y-70196121D01*
X147430342Y-70242614D01*
X147378000Y-70254000D01*
X146160116Y-70254000D01*
X146144877Y-70258475D01*
X146143672Y-70259865D01*
X146142001Y-70267548D01*
X146142001Y-70497095D01*
X146142338Y-70503614D01*
X146152257Y-70599206D01*
X146155149Y-70612600D01*
X146206588Y-70766784D01*
X146212761Y-70779962D01*
X146298063Y-70917807D01*
X146307099Y-70929208D01*
X146413462Y-71035387D01*
X146447541Y-71097670D01*
X146442538Y-71168490D01*
X146413617Y-71213578D01*
X146300695Y-71326697D01*
X146296855Y-71332927D01*
X146296854Y-71332928D01*
X146282073Y-71356908D01*
X146207885Y-71477262D01*
X146152203Y-71645139D01*
X146141500Y-71749600D01*
X146141500Y-72750400D01*
X146141837Y-72753646D01*
X146141837Y-72753650D01*
X146151471Y-72846498D01*
X146152474Y-72856166D01*
X146154655Y-72862702D01*
X146154655Y-72862704D01*
X146163751Y-72889967D01*
X146208450Y-73023946D01*
X146301522Y-73174348D01*
X146426697Y-73299305D01*
X146432927Y-73303145D01*
X146432928Y-73303146D01*
X146577262Y-73392115D01*
X146575730Y-73394601D01*
X146619030Y-73432706D01*
X146638509Y-73500978D01*
X146617986Y-73568943D01*
X146574807Y-73606436D01*
X146576054Y-73608450D01*
X146425652Y-73701522D01*
X146420479Y-73706704D01*
X146379560Y-73747694D01*
X146300695Y-73826697D01*
X146296855Y-73832927D01*
X146296854Y-73832928D01*
X146232323Y-73937617D01*
X146207885Y-73977262D01*
X146182728Y-74053108D01*
X146160263Y-74120840D01*
X146152203Y-74145139D01*
X146151503Y-74151975D01*
X146151502Y-74151978D01*
X146150259Y-74164108D01*
X146141500Y-74249600D01*
X146141500Y-75250400D01*
X146141837Y-75253646D01*
X146141837Y-75253650D01*
X146144795Y-75282153D01*
X146152474Y-75356166D01*
X146154655Y-75362702D01*
X146154655Y-75362704D01*
X146184421Y-75451923D01*
X146208450Y-75523946D01*
X146301522Y-75674348D01*
X146306704Y-75679521D01*
X146413463Y-75786094D01*
X146447542Y-75848376D01*
X146442539Y-75919197D01*
X146413618Y-75964285D01*
X146306261Y-76071829D01*
X146297249Y-76083240D01*
X146212184Y-76221243D01*
X146206037Y-76234424D01*
X146154862Y-76388710D01*
X146151995Y-76402086D01*
X146142328Y-76496438D01*
X146142000Y-76502855D01*
X146142000Y-76727885D01*
X146146475Y-76743124D01*
X146147865Y-76744329D01*
X146155548Y-76746000D01*
X147378000Y-76746000D01*
X147446121Y-76766002D01*
X147492614Y-76819658D01*
X147504000Y-76872000D01*
X147504000Y-77128000D01*
X147483998Y-77196121D01*
X147430342Y-77242614D01*
X147378000Y-77254000D01*
X146160116Y-77254000D01*
X146144877Y-77258475D01*
X146143672Y-77259865D01*
X146142001Y-77267548D01*
X146142001Y-77497095D01*
X146142338Y-77503614D01*
X146152257Y-77599206D01*
X146155149Y-77612600D01*
X146206588Y-77766784D01*
X146212761Y-77779962D01*
X146298063Y-77917807D01*
X146307099Y-77929208D01*
X146413462Y-78035387D01*
X146447541Y-78097670D01*
X146442538Y-78168490D01*
X146413617Y-78213578D01*
X146300695Y-78326697D01*
X146207885Y-78477262D01*
X146152203Y-78645139D01*
X146151503Y-78651975D01*
X146151502Y-78651978D01*
X146150008Y-78666564D01*
X146141500Y-78749600D01*
X146141500Y-79750400D01*
X146141837Y-79753644D01*
X146141837Y-79753652D01*
X146149499Y-79827497D01*
X146136634Y-79897318D01*
X146088063Y-79949100D01*
X146024172Y-79966500D01*
X144914595Y-79966500D01*
X144846474Y-79946498D01*
X144825500Y-79929595D01*
X144395405Y-79499500D01*
X144361379Y-79437188D01*
X144358500Y-79410405D01*
X144358500Y-78749600D01*
X144349904Y-78666753D01*
X144348238Y-78650692D01*
X144348237Y-78650688D01*
X144347526Y-78643834D01*
X144291550Y-78476054D01*
X144198478Y-78325652D01*
X144073303Y-78200695D01*
X144067072Y-78196854D01*
X143928968Y-78111725D01*
X143928966Y-78111724D01*
X143922738Y-78107885D01*
X143835694Y-78079014D01*
X143761389Y-78054368D01*
X143761387Y-78054368D01*
X143754861Y-78052203D01*
X143748025Y-78051503D01*
X143748022Y-78051502D01*
X143704969Y-78047091D01*
X143650400Y-78041500D01*
X142849600Y-78041500D01*
X142846354Y-78041837D01*
X142846350Y-78041837D01*
X142750692Y-78051762D01*
X142750688Y-78051763D01*
X142743834Y-78052474D01*
X142737298Y-78054655D01*
X142737296Y-78054655D01*
X142608365Y-78097670D01*
X142576054Y-78108450D01*
X142425652Y-78201522D01*
X142420479Y-78206704D01*
X142339216Y-78288109D01*
X142276934Y-78322188D01*
X142206114Y-78317185D01*
X142161025Y-78288264D01*
X142078483Y-78205866D01*
X142073303Y-78200695D01*
X142067072Y-78196854D01*
X141928968Y-78111725D01*
X141928966Y-78111724D01*
X141922738Y-78107885D01*
X141835694Y-78079014D01*
X141761389Y-78054368D01*
X141761387Y-78054368D01*
X141754861Y-78052203D01*
X141748025Y-78051503D01*
X141748022Y-78051502D01*
X141704969Y-78047091D01*
X141650400Y-78041500D01*
X140849600Y-78041500D01*
X140846354Y-78041837D01*
X140846350Y-78041837D01*
X140750692Y-78051762D01*
X140750688Y-78051763D01*
X140743834Y-78052474D01*
X140737298Y-78054655D01*
X140737296Y-78054655D01*
X140608365Y-78097670D01*
X140576054Y-78108450D01*
X140425652Y-78201522D01*
X140420479Y-78206704D01*
X140415307Y-78211885D01*
X140300695Y-78326697D01*
X140207885Y-78477262D01*
X140152203Y-78645139D01*
X140151503Y-78651975D01*
X140151502Y-78651978D01*
X140150008Y-78666564D01*
X140141500Y-78749600D01*
X140141500Y-79750400D01*
X140141837Y-79753646D01*
X140141837Y-79753650D01*
X140149085Y-79823500D01*
X140152474Y-79856166D01*
X140208450Y-80023946D01*
X140301522Y-80174348D01*
X140339132Y-80211892D01*
X140403679Y-80276327D01*
X140437758Y-80338609D01*
X140432755Y-80409430D01*
X140390258Y-80466302D01*
X140323759Y-80491171D01*
X140314661Y-80491500D01*
X136384500Y-80491500D01*
X136316379Y-80471498D01*
X136269886Y-80417842D01*
X136258500Y-80365500D01*
X136258500Y-77271695D01*
X136887251Y-77271695D01*
X136887548Y-77276848D01*
X136887548Y-77276851D01*
X136893011Y-77371590D01*
X136900110Y-77494715D01*
X136901247Y-77499761D01*
X136901248Y-77499767D01*
X136913364Y-77553526D01*
X136949222Y-77712639D01*
X137033266Y-77919616D01*
X137073591Y-77985420D01*
X137144248Y-78100722D01*
X137149987Y-78110088D01*
X137296250Y-78278938D01*
X137468126Y-78421632D01*
X137661000Y-78534338D01*
X137869692Y-78614030D01*
X137874760Y-78615061D01*
X137874763Y-78615062D01*
X137982017Y-78636883D01*
X138088597Y-78658567D01*
X138093772Y-78658757D01*
X138093774Y-78658757D01*
X138306673Y-78666564D01*
X138306677Y-78666564D01*
X138311837Y-78666753D01*
X138316957Y-78666097D01*
X138316959Y-78666097D01*
X138528288Y-78639025D01*
X138528289Y-78639025D01*
X138533416Y-78638368D01*
X138538366Y-78636883D01*
X138742429Y-78575661D01*
X138742434Y-78575659D01*
X138747384Y-78574174D01*
X138947994Y-78475896D01*
X139129860Y-78346173D01*
X139143152Y-78332928D01*
X139211209Y-78265107D01*
X139288096Y-78188489D01*
X139333689Y-78125040D01*
X139415435Y-78011277D01*
X139418453Y-78007077D01*
X139429157Y-77985420D01*
X139515136Y-77811453D01*
X139515137Y-77811451D01*
X139517430Y-77806811D01*
X139578391Y-77606166D01*
X139580865Y-77598023D01*
X139580865Y-77598021D01*
X139582370Y-77593069D01*
X139611529Y-77371590D01*
X139611611Y-77368240D01*
X139613074Y-77308365D01*
X139613074Y-77308361D01*
X139613156Y-77305000D01*
X139594852Y-77082361D01*
X139540431Y-76865702D01*
X139451354Y-76660840D01*
X139377730Y-76547035D01*
X139332822Y-76477617D01*
X139332820Y-76477614D01*
X139330014Y-76473277D01*
X139179670Y-76308051D01*
X139175619Y-76304852D01*
X139175615Y-76304848D01*
X139008414Y-76172800D01*
X139008410Y-76172798D01*
X139004359Y-76169598D01*
X138963053Y-76146796D01*
X138913084Y-76096364D01*
X138898312Y-76026921D01*
X138923428Y-75960516D01*
X138950780Y-75933909D01*
X139010165Y-75891550D01*
X139129860Y-75806173D01*
X139288096Y-75648489D01*
X139347594Y-75565689D01*
X139415435Y-75471277D01*
X139418453Y-75467077D01*
X139426482Y-75450833D01*
X139515136Y-75271453D01*
X139515137Y-75271451D01*
X139517430Y-75266811D01*
X139578592Y-75065504D01*
X139580865Y-75058023D01*
X139580865Y-75058021D01*
X139582370Y-75053069D01*
X139611529Y-74831590D01*
X139612924Y-74774498D01*
X139613074Y-74768365D01*
X139613074Y-74768361D01*
X139613156Y-74765000D01*
X139594852Y-74542361D01*
X139540431Y-74325702D01*
X139451354Y-74120840D01*
X139402180Y-74044828D01*
X139332822Y-73937617D01*
X139332820Y-73937614D01*
X139330014Y-73933277D01*
X139326540Y-73929459D01*
X139326533Y-73929450D01*
X139182435Y-73771088D01*
X139151383Y-73707242D01*
X139159779Y-73636744D01*
X139204956Y-73581976D01*
X139231400Y-73568307D01*
X139338052Y-73528325D01*
X139353649Y-73519786D01*
X139455724Y-73443285D01*
X139468285Y-73430724D01*
X139544786Y-73328649D01*
X139553324Y-73313054D01*
X139598478Y-73192606D01*
X139602105Y-73177351D01*
X139607631Y-73126486D01*
X139608000Y-73119672D01*
X139608000Y-72497115D01*
X139603525Y-72481876D01*
X139602135Y-72480671D01*
X139594452Y-72479000D01*
X136910116Y-72479000D01*
X136894877Y-72483475D01*
X136893672Y-72484865D01*
X136892001Y-72492548D01*
X136892001Y-73119669D01*
X136892371Y-73126490D01*
X136897895Y-73177352D01*
X136901521Y-73192604D01*
X136946676Y-73313054D01*
X136955214Y-73328649D01*
X137031715Y-73430724D01*
X137044276Y-73443285D01*
X137146351Y-73519786D01*
X137161946Y-73528324D01*
X137270827Y-73569142D01*
X137327591Y-73611784D01*
X137352291Y-73678345D01*
X137337083Y-73747694D01*
X137317691Y-73774175D01*
X137204729Y-73892383D01*
X137190629Y-73907138D01*
X137187715Y-73911410D01*
X137187714Y-73911411D01*
X137158650Y-73954017D01*
X137064743Y-74091680D01*
X137036754Y-74151978D01*
X136983406Y-74266907D01*
X136970688Y-74294305D01*
X136910989Y-74509570D01*
X136887251Y-74731695D01*
X136887548Y-74736848D01*
X136887548Y-74736851D01*
X136893011Y-74831590D01*
X136900110Y-74954715D01*
X136901247Y-74959761D01*
X136901248Y-74959767D01*
X136922275Y-75053069D01*
X136949222Y-75172639D01*
X137033266Y-75379616D01*
X137053403Y-75412477D01*
X137133291Y-75542842D01*
X137149987Y-75570088D01*
X137296250Y-75738938D01*
X137468126Y-75881632D01*
X137503547Y-75902330D01*
X137541445Y-75924476D01*
X137590169Y-75976114D01*
X137603240Y-76045897D01*
X137576509Y-76111669D01*
X137536055Y-76145027D01*
X137523607Y-76151507D01*
X137519474Y-76154610D01*
X137519471Y-76154612D01*
X137349100Y-76282530D01*
X137344965Y-76285635D01*
X137190629Y-76447138D01*
X137187715Y-76451410D01*
X137187714Y-76451411D01*
X137113926Y-76559580D01*
X137064743Y-76631680D01*
X137049003Y-76665590D01*
X136974297Y-76826531D01*
X136970688Y-76834305D01*
X136910989Y-77049570D01*
X136887251Y-77271695D01*
X136258500Y-77271695D01*
X136258500Y-71952885D01*
X136892000Y-71952885D01*
X136896475Y-71968124D01*
X136897865Y-71969329D01*
X136905548Y-71971000D01*
X137977885Y-71971000D01*
X137993124Y-71966525D01*
X137994329Y-71965135D01*
X137996000Y-71957452D01*
X137996000Y-71952885D01*
X138504000Y-71952885D01*
X138508475Y-71968124D01*
X138509865Y-71969329D01*
X138517548Y-71971000D01*
X139589884Y-71971000D01*
X139605123Y-71966525D01*
X139606328Y-71965135D01*
X139607999Y-71957452D01*
X139607999Y-71330331D01*
X139607629Y-71323510D01*
X139602105Y-71272648D01*
X139598479Y-71257396D01*
X139553324Y-71136946D01*
X139544786Y-71121351D01*
X139468285Y-71019276D01*
X139455724Y-71006715D01*
X139353649Y-70930214D01*
X139338054Y-70921676D01*
X139217606Y-70876522D01*
X139202351Y-70872895D01*
X139151486Y-70867369D01*
X139144672Y-70867000D01*
X138522115Y-70867000D01*
X138506876Y-70871475D01*
X138505671Y-70872865D01*
X138504000Y-70880548D01*
X138504000Y-71952885D01*
X137996000Y-71952885D01*
X137996000Y-70885116D01*
X137991525Y-70869877D01*
X137990135Y-70868672D01*
X137982452Y-70867001D01*
X137355331Y-70867001D01*
X137348510Y-70867371D01*
X137297648Y-70872895D01*
X137282396Y-70876521D01*
X137161946Y-70921676D01*
X137146351Y-70930214D01*
X137044276Y-71006715D01*
X137031715Y-71019276D01*
X136955214Y-71121351D01*
X136946676Y-71136946D01*
X136901522Y-71257394D01*
X136897895Y-71272649D01*
X136892369Y-71323514D01*
X136892000Y-71330328D01*
X136892000Y-71952885D01*
X136258500Y-71952885D01*
X136258500Y-70497095D01*
X140142001Y-70497095D01*
X140142338Y-70503614D01*
X140152257Y-70599206D01*
X140155149Y-70612600D01*
X140206588Y-70766784D01*
X140212761Y-70779962D01*
X140298063Y-70917807D01*
X140307099Y-70929208D01*
X140421829Y-71043739D01*
X140433240Y-71052751D01*
X140571243Y-71137816D01*
X140584424Y-71143963D01*
X140738710Y-71195138D01*
X140752086Y-71198005D01*
X140846438Y-71207672D01*
X140852854Y-71208000D01*
X140977885Y-71208000D01*
X140993124Y-71203525D01*
X140994329Y-71202135D01*
X140996000Y-71194452D01*
X140996000Y-70272115D01*
X140991525Y-70256876D01*
X140990135Y-70255671D01*
X140982452Y-70254000D01*
X140160116Y-70254000D01*
X140144877Y-70258475D01*
X140143672Y-70259865D01*
X140142001Y-70267548D01*
X140142001Y-70497095D01*
X136258500Y-70497095D01*
X136258500Y-69727885D01*
X140142000Y-69727885D01*
X140146475Y-69743124D01*
X140147865Y-69744329D01*
X140155548Y-69746000D01*
X140977885Y-69746000D01*
X140993124Y-69741525D01*
X140994329Y-69740135D01*
X140996000Y-69732452D01*
X140996000Y-68810116D01*
X140991525Y-68794877D01*
X140990135Y-68793672D01*
X140982452Y-68792001D01*
X140852905Y-68792001D01*
X140846386Y-68792338D01*
X140750794Y-68802257D01*
X140737400Y-68805149D01*
X140583216Y-68856588D01*
X140570038Y-68862761D01*
X140432193Y-68948063D01*
X140420792Y-68957099D01*
X140306261Y-69071829D01*
X140297249Y-69083240D01*
X140212184Y-69221243D01*
X140206037Y-69234424D01*
X140154862Y-69388710D01*
X140151995Y-69402086D01*
X140142328Y-69496438D01*
X140142000Y-69502855D01*
X140142000Y-69727885D01*
X136258500Y-69727885D01*
X136258500Y-68634500D01*
X136278502Y-68566379D01*
X136332158Y-68519886D01*
X136384500Y-68508500D01*
X144891406Y-68508500D01*
X144959527Y-68528502D01*
G37*
%TD.AperFunction*%
%TD*%
M02*
