%TF.GenerationSoftware,KiCad,Pcbnew,(6.0.5-0)*%
%TF.CreationDate,2022-06-15T16:59:53+05:30*%
%TF.ProjectId,CNY70_PCB,434e5937-305f-4504-9342-2e6b69636164,rev?*%
%TF.SameCoordinates,Original*%
%TF.FileFunction,Legend,Top*%
%TF.FilePolarity,Positive*%
%FSLAX46Y46*%
G04 Gerber Fmt 4.6, Leading zero omitted, Abs format (unit mm)*
G04 Created by KiCad (PCBNEW (6.0.5-0)) date 2022-06-15 16:59:53*
%MOMM*%
%LPD*%
G01*
G04 APERTURE LIST*
%ADD10C,0.150000*%
%ADD11C,0.120000*%
G04 APERTURE END LIST*
D10*
%TO.C,J1*%
X137916666Y-69347380D02*
X137916666Y-70061666D01*
X137869047Y-70204523D01*
X137773809Y-70299761D01*
X137630952Y-70347380D01*
X137535714Y-70347380D01*
X138916666Y-70347380D02*
X138345238Y-70347380D01*
X138630952Y-70347380D02*
X138630952Y-69347380D01*
X138535714Y-69490238D01*
X138440476Y-69585476D01*
X138345238Y-69633095D01*
%TO.C,R7*%
X142083333Y-77952380D02*
X141750000Y-77476190D01*
X141511904Y-77952380D02*
X141511904Y-76952380D01*
X141892857Y-76952380D01*
X141988095Y-77000000D01*
X142035714Y-77047619D01*
X142083333Y-77142857D01*
X142083333Y-77285714D01*
X142035714Y-77380952D01*
X141988095Y-77428571D01*
X141892857Y-77476190D01*
X141511904Y-77476190D01*
X142416666Y-76952380D02*
X143083333Y-76952380D01*
X142654761Y-77952380D01*
%TO.C,R6*%
X145083333Y-75202380D02*
X144750000Y-74726190D01*
X144511904Y-75202380D02*
X144511904Y-74202380D01*
X144892857Y-74202380D01*
X144988095Y-74250000D01*
X145035714Y-74297619D01*
X145083333Y-74392857D01*
X145083333Y-74535714D01*
X145035714Y-74630952D01*
X144988095Y-74678571D01*
X144892857Y-74726190D01*
X144511904Y-74726190D01*
X145940476Y-74202380D02*
X145750000Y-74202380D01*
X145654761Y-74250000D01*
X145607142Y-74297619D01*
X145511904Y-74440476D01*
X145464285Y-74630952D01*
X145464285Y-75011904D01*
X145511904Y-75107142D01*
X145559523Y-75154761D01*
X145654761Y-75202380D01*
X145845238Y-75202380D01*
X145940476Y-75154761D01*
X145988095Y-75107142D01*
X146035714Y-75011904D01*
X146035714Y-74773809D01*
X145988095Y-74678571D01*
X145940476Y-74630952D01*
X145845238Y-74583333D01*
X145654761Y-74583333D01*
X145559523Y-74630952D01*
X145511904Y-74678571D01*
X145464285Y-74773809D01*
%TO.C,R5*%
X145083333Y-70452380D02*
X144750000Y-69976190D01*
X144511904Y-70452380D02*
X144511904Y-69452380D01*
X144892857Y-69452380D01*
X144988095Y-69500000D01*
X145035714Y-69547619D01*
X145083333Y-69642857D01*
X145083333Y-69785714D01*
X145035714Y-69880952D01*
X144988095Y-69928571D01*
X144892857Y-69976190D01*
X144511904Y-69976190D01*
X145988095Y-69452380D02*
X145511904Y-69452380D01*
X145464285Y-69928571D01*
X145511904Y-69880952D01*
X145607142Y-69833333D01*
X145845238Y-69833333D01*
X145940476Y-69880952D01*
X145988095Y-69928571D01*
X146035714Y-70023809D01*
X146035714Y-70261904D01*
X145988095Y-70357142D01*
X145940476Y-70404761D01*
X145845238Y-70452380D01*
X145607142Y-70452380D01*
X145511904Y-70404761D01*
X145464285Y-70357142D01*
%TO.C,R4*%
X145083333Y-72702380D02*
X144750000Y-72226190D01*
X144511904Y-72702380D02*
X144511904Y-71702380D01*
X144892857Y-71702380D01*
X144988095Y-71750000D01*
X145035714Y-71797619D01*
X145083333Y-71892857D01*
X145083333Y-72035714D01*
X145035714Y-72130952D01*
X144988095Y-72178571D01*
X144892857Y-72226190D01*
X144511904Y-72226190D01*
X145940476Y-72035714D02*
X145940476Y-72702380D01*
X145702380Y-71654761D02*
X145464285Y-72369047D01*
X146083333Y-72369047D01*
%TO.C,R3*%
X145083333Y-77452380D02*
X144750000Y-76976190D01*
X144511904Y-77452380D02*
X144511904Y-76452380D01*
X144892857Y-76452380D01*
X144988095Y-76500000D01*
X145035714Y-76547619D01*
X145083333Y-76642857D01*
X145083333Y-76785714D01*
X145035714Y-76880952D01*
X144988095Y-76928571D01*
X144892857Y-76976190D01*
X144511904Y-76976190D01*
X145416666Y-76452380D02*
X146035714Y-76452380D01*
X145702380Y-76833333D01*
X145845238Y-76833333D01*
X145940476Y-76880952D01*
X145988095Y-76928571D01*
X146035714Y-77023809D01*
X146035714Y-77261904D01*
X145988095Y-77357142D01*
X145940476Y-77404761D01*
X145845238Y-77452380D01*
X145559523Y-77452380D01*
X145464285Y-77404761D01*
X145416666Y-77357142D01*
%TO.C,R2*%
X145083333Y-79702380D02*
X144750000Y-79226190D01*
X144511904Y-79702380D02*
X144511904Y-78702380D01*
X144892857Y-78702380D01*
X144988095Y-78750000D01*
X145035714Y-78797619D01*
X145083333Y-78892857D01*
X145083333Y-79035714D01*
X145035714Y-79130952D01*
X144988095Y-79178571D01*
X144892857Y-79226190D01*
X144511904Y-79226190D01*
X145464285Y-78797619D02*
X145511904Y-78750000D01*
X145607142Y-78702380D01*
X145845238Y-78702380D01*
X145940476Y-78750000D01*
X145988095Y-78797619D01*
X146035714Y-78892857D01*
X146035714Y-78988095D01*
X145988095Y-79130952D01*
X145416666Y-79702380D01*
X146035714Y-79702380D01*
%TO.C,R1*%
X142083333Y-72202380D02*
X141750000Y-71726190D01*
X141511904Y-72202380D02*
X141511904Y-71202380D01*
X141892857Y-71202380D01*
X141988095Y-71250000D01*
X142035714Y-71297619D01*
X142083333Y-71392857D01*
X142083333Y-71535714D01*
X142035714Y-71630952D01*
X141988095Y-71678571D01*
X141892857Y-71726190D01*
X141511904Y-71726190D01*
X143035714Y-72202380D02*
X142464285Y-72202380D01*
X142750000Y-72202380D02*
X142750000Y-71202380D01*
X142654761Y-71345238D01*
X142559523Y-71440476D01*
X142464285Y-71488095D01*
%TO.C,Q2*%
X156654761Y-70547619D02*
X156559523Y-70500000D01*
X156464285Y-70404761D01*
X156321428Y-70261904D01*
X156226190Y-70214285D01*
X156130952Y-70214285D01*
X156178571Y-70452380D02*
X156083333Y-70404761D01*
X155988095Y-70309523D01*
X155940476Y-70119047D01*
X155940476Y-69785714D01*
X155988095Y-69595238D01*
X156083333Y-69500000D01*
X156178571Y-69452380D01*
X156369047Y-69452380D01*
X156464285Y-69500000D01*
X156559523Y-69595238D01*
X156607142Y-69785714D01*
X156607142Y-70119047D01*
X156559523Y-70309523D01*
X156464285Y-70404761D01*
X156369047Y-70452380D01*
X156178571Y-70452380D01*
X156988095Y-69547619D02*
X157035714Y-69500000D01*
X157130952Y-69452380D01*
X157369047Y-69452380D01*
X157464285Y-69500000D01*
X157511904Y-69547619D01*
X157559523Y-69642857D01*
X157559523Y-69738095D01*
X157511904Y-69880952D01*
X156940476Y-70452380D01*
X157559523Y-70452380D01*
%TO.C,Q1*%
X156654761Y-80297619D02*
X156559523Y-80250000D01*
X156464285Y-80154761D01*
X156321428Y-80011904D01*
X156226190Y-79964285D01*
X156130952Y-79964285D01*
X156178571Y-80202380D02*
X156083333Y-80154761D01*
X155988095Y-80059523D01*
X155940476Y-79869047D01*
X155940476Y-79535714D01*
X155988095Y-79345238D01*
X156083333Y-79250000D01*
X156178571Y-79202380D01*
X156369047Y-79202380D01*
X156464285Y-79250000D01*
X156559523Y-79345238D01*
X156607142Y-79535714D01*
X156607142Y-79869047D01*
X156559523Y-80059523D01*
X156464285Y-80154761D01*
X156369047Y-80202380D01*
X156178571Y-80202380D01*
X157559523Y-80202380D02*
X156988095Y-80202380D01*
X157273809Y-80202380D02*
X157273809Y-79202380D01*
X157178571Y-79345238D01*
X157083333Y-79440476D01*
X156988095Y-79488095D01*
D11*
%TO.C,J1*%
X136920000Y-78635000D02*
X139580000Y-78635000D01*
X136920000Y-73495000D02*
X136920000Y-78635000D01*
X136920000Y-72225000D02*
X136920000Y-70895000D01*
X139580000Y-73495000D02*
X139580000Y-78635000D01*
X136920000Y-70895000D02*
X138250000Y-70895000D01*
X136920000Y-73495000D02*
X139580000Y-73495000D01*
%TO.C,R7*%
X142477064Y-79985000D02*
X142022936Y-79985000D01*
X142477064Y-78515000D02*
X142022936Y-78515000D01*
%TO.C,R6*%
X148022936Y-74015000D02*
X148477064Y-74015000D01*
X148022936Y-75485000D02*
X148477064Y-75485000D01*
%TO.C,R5*%
X148022936Y-69265000D02*
X148477064Y-69265000D01*
X148022936Y-70735000D02*
X148477064Y-70735000D01*
%TO.C,R4*%
X148477064Y-72985000D02*
X148022936Y-72985000D01*
X148477064Y-71515000D02*
X148022936Y-71515000D01*
%TO.C,R3*%
X148022936Y-76265000D02*
X148477064Y-76265000D01*
X148022936Y-77735000D02*
X148477064Y-77735000D01*
%TO.C,R2*%
X148477064Y-79985000D02*
X148022936Y-79985000D01*
X148477064Y-78515000D02*
X148022936Y-78515000D01*
%TO.C,R1*%
X142022936Y-69265000D02*
X142477064Y-69265000D01*
X142022936Y-70735000D02*
X142477064Y-70735000D01*
%TO.C,Q2*%
X151190000Y-69950000D02*
X151190000Y-73550000D01*
X151201522Y-73588478D02*
G75*
G03*
X155640000Y-71750000I1838478J1838478D01*
G01*
X155640001Y-71750000D02*
G75*
G03*
X151201522Y-69911522I-2600001J0D01*
G01*
%TO.C,Q1*%
X151150000Y-75720000D02*
X151150000Y-79320000D01*
X151161522Y-79358478D02*
G75*
G03*
X155600000Y-77520000I1838478J1838478D01*
G01*
X155600001Y-77520000D02*
G75*
G03*
X151161522Y-75681522I-2600001J0D01*
G01*
%TD*%
M02*
